<svg xmlns="http://www.w3.org/2000/svg" xmlns:xlink="http://www.w3.org/1999/xlink" width="179.79" height="250.65" viewBox="0 0 179.79 250.65">
  <defs>
    <clipPath id="clip-_10c">
      <rect width="179.79" height="250.65"/>
    </clipPath>
  </defs>
  <g id="_10c" data-name="10c" clip-path="url(#clip-_10c)">
    <g id="_10c-2" data-name="10c" transform="translate(-2269.855 -873.972)">
      <rect id="rect6355-6-85-3-6-8-7" width="177.785" height="248.651" rx="8.504" transform="translate(2270.855 874.972)" fill="#fff" stroke="#000" stroke-width="0.997"/>
      <path id="path147-0-8-1-6-13-2-22-1-5" d="M2400.973,901.376c-7.819.17-11.326,8.974-5.535,15.811.84,1,.927,1.569-.611.612-3.9-2.608-11.376-.894-11.759,7.077-.472,9.822,13.251,12.652,15.827,2.208.136-1.1,1.032-1.077.816.487a32.5,32.5,0,0,1-3.383,12.082h9.3a32.5,32.5,0,0,1-3.383-12.082c-.216-1.564.68-1.589.816-.487,2.577,10.444,16.3,7.614,15.827-2.208-.383-7.971-7.859-9.685-11.758-7.077-1.539.957-1.452.385-.612-.612,5.791-6.837,2.285-15.641-5.534-15.811h-.007Z"/>
      <path id="path147-0-8-1-6-75-2-83-21-1-8" d="M2318.517,901.376c-7.82.17-11.326,8.974-5.535,15.811.84,1,.926,1.569-.612.612-3.9-2.608-11.375-.894-11.758,7.077-.473,9.822,13.25,12.652,15.827,2.208.136-1.1,1.031-1.077.816.487a32.5,32.5,0,0,1-3.383,12.082h9.3a32.5,32.5,0,0,1-3.383-12.082c-.216-1.564.68-1.589.815-.487,2.577,10.444,16.3,7.614,15.827-2.208-.382-7.971-7.859-9.685-11.758-7.077-1.538.957-1.451.385-.612-.612,5.792-6.837,2.285-15.641-5.534-15.811h-.006Z"/>
      <path id="path147-0-8-1-6-7-5-5-7-3-5-5" d="M2400.973,1097.883c-7.819-.17-11.326-8.974-5.535-15.811.84-1,.927-1.569-.611-.611-3.9,2.607-11.376.893-11.759-7.078-.472-9.822,13.251-12.652,15.827-2.208.136,1.1,1.032,1.077.816-.487a32.5,32.5,0,0,0-3.383-12.082h9.3a32.507,32.507,0,0,0-3.383,12.082c-.216,1.564.68,1.589.816.487,2.577-10.444,16.3-7.614,15.827,2.208-.383,7.971-7.859,9.685-11.758,7.078-1.539-.958-1.452-.386-.612.611,5.791,6.837,2.285,15.641-5.534,15.811h-.007Z"/>
      <path id="path147-0-8-1-6-75-6-1-2-7-9-3" d="M2318.517,1097.883c-7.82-.17-11.326-8.974-5.535-15.811.84-1,.926-1.569-.612-.611-3.9,2.607-11.375.893-11.758-7.078-.473-9.822,13.25-12.652,15.827-2.208.136,1.1,1.031,1.077.816-.487a32.5,32.5,0,0,0-3.383-12.082h9.3a32.507,32.507,0,0,0-3.383,12.082c-.216,1.564.68,1.589.815.487,2.577-10.444,16.3-7.614,15.827,2.208-.382,7.971-7.859,9.685-11.758,7.078-1.538-.958-1.451-.386-.612.611,5.792,6.837,2.285,15.641-5.534,15.811h-.006Z"/>
      <path id="path147-0-8-1-6-2-00-7-1-1-4" d="M2359.745,927.748c-7.82.17-11.326,8.974-5.535,15.811.84,1,.927,1.569-.611.611-3.9-2.607-11.376-.893-11.759,7.078-.473,9.822,13.251,12.652,15.827,2.208.136-1.1,1.032-1.077.816.487a32.5,32.5,0,0,1-3.383,12.082h9.3a32.507,32.507,0,0,1-3.383-12.082c-.216-1.564.68-1.589.816-.487,2.576,10.444,16.3,7.614,15.827-2.208-.383-7.971-7.86-9.685-11.759-7.078-1.538.958-1.451.386-.611-.611,5.791-6.837,2.285-15.641-5.535-15.811h-.006Z"/>
      <path id="path147-0-8-1-6-2-0-8-6-8-1-8" d="M2359.745,1071.511c-7.82-.169-11.326-8.973-5.535-15.81.84-1,.927-1.57-.612-.612-3.9,2.608-11.375.893-11.758-7.078-.473-9.821,13.251-12.651,15.827-2.207.136,1.1,1.032,1.076.816-.488a32.5,32.5,0,0,0-3.383-12.082h9.3a32.507,32.507,0,0,0-3.383,12.082c-.216,1.564.68,1.59.816.488,2.576-10.444,16.3-7.614,15.827,2.207-.383,7.971-7.86,9.685-11.759,7.078-1.538-.958-1.451-.385-.611.612,5.791,6.837,2.285,15.641-5.535,15.81h-.006Z"/>
      <path id="path147-6-9-8-7-0-5-6-83-3-7" d="M2434.93,1083.773c3.128-.071,4.531-3.739,2.214-6.588-.336-.415-.37-.654.245-.255,1.56,1.087,4.55.373,4.7-2.949.19-4.092-5.3-5.271-6.331-.92-.054.46-.412.449-.326-.2a13.977,13.977,0,0,1,1.353-5.034h-3.718a13.977,13.977,0,0,1,1.353,5.034c.087.652-.272.663-.326.2-1.03-4.351-6.52-3.172-6.331.92.153,3.322,3.144,4.036,4.7,2.949.615-.4.58-.16.244.255-2.316,2.849-.913,6.517,2.214,6.588h0Z"/>
      <path id="path147-0-8-1-6-75-2-9-77-44-0-7" d="M2318.517,954.119c-7.82.17-11.326,8.974-5.535,15.811.84,1,.926,1.569-.612.612-3.9-2.608-11.375-.894-11.758,7.077-.473,9.822,13.25,12.652,15.827,2.208.136-1.1,1.031-1.077.816.487a32.506,32.506,0,0,1-3.383,12.083h9.3a32.511,32.511,0,0,1-3.383-12.083c-.216-1.564.68-1.589.815-.487,2.577,10.444,16.3,7.614,15.827-2.208-.382-7.971-7.859-9.685-11.758-7.077-1.538.957-1.451.385-.612-.612,5.792-6.837,2.285-15.641-5.534-15.811h-.006Z"/>
      <path id="path147-0-8-1-6-75-2-8-0-3-9-3" d="M2318.517,1045.14c-7.82-.17-11.326-8.974-5.535-15.811.84-1,.926-1.569-.612-.612-3.9,2.608-11.375.894-11.758-7.077-.473-9.822,13.25-12.652,15.827-2.208.136,1.1,1.031,1.077.816-.487a32.5,32.5,0,0,0-3.383-12.082h9.3a32.5,32.5,0,0,0-3.383,12.082c-.216,1.564.68,1.589.815.487,2.577-10.444,16.3-7.614,15.827,2.208-.382,7.971-7.859,9.685-11.758,7.077-1.538-.957-1.451-.385-.612.612,5.792,6.837,2.285,15.641-5.534,15.811h-.006Z"/>
      <path id="path147-0-8-1-6-75-2-9-7-1-9-7-9" d="M2400.973,954.119c-7.819.17-11.326,8.974-5.535,15.811.84,1,.927,1.569-.611.612-3.9-2.608-11.376-.894-11.759,7.077-.472,9.822,13.251,12.652,15.827,2.208.136-1.1,1.032-1.077.816.487a32.507,32.507,0,0,1-3.383,12.083h9.3a32.511,32.511,0,0,1-3.383-12.083c-.216-1.564.68-1.589.816-.487,2.577,10.444,16.3,7.614,15.827-2.208-.383-7.971-7.859-9.685-11.758-7.077-1.539.957-1.452.385-.612-.612,5.791-6.837,2.285-15.641-5.534-15.811h-.007Z"/>
      <path id="path147-0-8-1-6-75-2-8-5-1-52-2-8" d="M2400.973,1045.14c-7.819-.17-11.326-8.974-5.535-15.811.84-1,.927-1.569-.611-.612-3.9,2.608-11.376.894-11.759-7.077-.472-9.822,13.251-12.652,15.827-2.208.136,1.1,1.032,1.077.816-.487a32.5,32.5,0,0,0-3.383-12.082h9.3a32.5,32.5,0,0,0-3.383,12.082c-.216,1.564.68,1.589.816.487,2.577-10.444,16.3-7.614,15.827,2.208-.383,7.971-7.859,9.685-11.758,7.077-1.539-.957-1.452-.385-.612.612,5.791,6.837,2.285,15.641-5.534,15.811h-.007Z"/>
      <path id="path147-6-9-8-7-4-5-62-52-8-0" d="M2284.567,914.823c-3.128.07-4.531,3.739-2.214,6.588.336.415.371.654-.245.255-1.56-1.087-4.55-.373-4.7,2.949-.189,4.092,5.3,5.271,6.331.92.054-.459.412-.449.326.2a13.971,13.971,0,0,1-1.353,5.034h3.718a13.971,13.971,0,0,1-1.353-5.034c-.086-.652.272-.662.326-.2,1.031,4.351,6.52,3.172,6.331-.92-.153-3.322-3.144-4.036-4.7-2.949-.616.4-.581.16-.245-.255,2.316-2.849.914-6.517-2.214-6.588h0Z"/>
      <path id="path31-6-7-6" d="M2276.587,912.323V886.008h2.548v26.315Z"/>
      <path id="path33-9-3-6" d="M2286.687,886.007c-2.453,0-4.424,2.243-4.424,5.029v16.258c0,2.786,1.972,5.028,4.424,5.028h1.431c2.453,0,4.428-2.242,4.428-5.028V891.036c0-2.786-1.976-5.029-4.428-5.029Zm.74,2.488a2.55,2.55,0,0,1,2.612,2.5v16.474a2.616,2.616,0,0,1-5.228,0V891a2.554,2.554,0,0,1,2.616-2.5Z"/>
      <path id="path31-1-4-0-7" d="M2442.907,1086.273v26.315h-2.548v-26.315Z"/>
      <path id="path33-5-7-4-0" d="M2432.808,1112.589c2.452,0,4.423-2.243,4.423-5.029V1091.3c0-2.786-1.972-5.028-4.423-5.028h-1.431c-2.453,0-4.428,2.242-4.428,5.028v16.258c0,2.786,1.976,5.029,4.428,5.029Zm-.74-2.488a2.55,2.55,0,0,1-2.612-2.5v-16.474a2.616,2.616,0,0,1,5.228,0V1107.6a2.554,2.554,0,0,1-2.616,2.5Z"/>
    </g>
  </g>
</svg>
