<svg xmlns="http://www.w3.org/2000/svg" xmlns:xlink="http://www.w3.org/1999/xlink" width="179.79" height="250.65" viewBox="0 0 179.79 250.65">
  <defs>
    <clipPath id="clip-_10h">
      <rect width="179.79" height="250.65"/>
    </clipPath>
  </defs>
  <g id="_10h" data-name="10h" clip-path="url(#clip-_10h)">
    <g id="_10h-2" data-name="10h" transform="translate(-2269.855 -1155.422)">
      <g id="g10276-9-9">
        <rect id="rect10278-0-6" width="177.786" height="248.651" rx="8.504" transform="translate(2270.855 1156.422)" fill="#fff" stroke="#000" stroke-width="1.001"/>
      </g>
      <path id="path10308-5-1" d="M2318.52,1273.514s-3.717-6.1-8.73-13.282c-3.354-4.8-6.035-10-6.284-14.484-.286-5.117,2.42-10.251,7.32-10.5s6.885,3.946,7.694,7.4c.809-3.458,2.8-7.653,7.693-7.4s7.607,5.383,7.321,10.5c-.25,4.48-2.931,9.681-6.285,14.484C2322.236,1267.41,2318.52,1273.514,2318.52,1273.514Z" fill="#d40000"/>
      <path id="path10310-7-8" d="M2284.568,1212.221s-1.772-2.543-4.162-5.534c-1.6-2-2.878-4.168-3-6.035-.136-2.132,1.154-4.271,3.491-4.375s3.282,1.644,3.668,3.085c.385-1.441,1.333-3.189,3.668-3.085s3.626,2.243,3.49,4.375c-.119,1.867-1.4,4.034-3,6.035C2286.339,1209.678,2284.568,1212.221,2284.568,1212.221Z" fill="#d40000"/>
      <path id="path10312-3-5" d="M2434.929,1349.273s-1.772,2.544-4.162,5.535c-1.6,2-2.877,4.168-3,6.035-.136,2.132,1.154,4.271,3.49,4.375s3.282-1.644,3.668-3.085c.386,1.441,1.334,3.188,3.668,3.085a3.864,3.864,0,0,0,3.49-4.375c-.119-1.867-1.4-4.034-3-6.035C2436.7,1351.817,2434.929,1349.273,2434.929,1349.273Z" fill="#d40000"/>
      <path id="path10314-8-8" d="M2359.748,1254.775s-3.716-6.1-8.73-13.283c-3.353-4.8-6.035-10-6.284-14.484-.286-5.117,2.421-10.251,7.32-10.5s6.885,3.946,7.694,7.4c.809-3.458,2.8-7.653,7.694-7.4s7.606,5.383,7.32,10.5c-.249,4.48-2.931,9.681-6.284,14.484C2363.464,1248.67,2359.748,1254.775,2359.748,1254.775Z" fill="#d40000"/>
      <path id="path10318-3-7" d="M2318.52,1220.771s-3.717-6.1-8.73-13.282c-3.354-4.8-6.035-10-6.284-14.484-.286-5.117,2.42-10.251,7.32-10.5s6.885,3.945,7.694,7.4c.809-3.459,2.8-7.653,7.693-7.4s7.607,5.383,7.321,10.5c-.25,4.48-2.931,9.681-6.285,14.484C2322.236,1214.667,2318.52,1220.771,2318.52,1220.771Z" fill="#d40000"/>
      <path id="path10322-4-6" d="M2400.976,1273.514s-3.716-6.1-8.729-13.282c-3.354-4.8-6.035-10-6.285-14.484-.285-5.117,2.421-10.251,7.321-10.5s6.884,3.946,7.693,7.4c.81-3.458,2.8-7.653,7.694-7.4s7.606,5.383,7.32,10.5c-.249,4.48-2.93,9.681-6.284,14.484C2404.693,1267.41,2400.976,1273.514,2400.976,1273.514Z" fill="#d40000"/>
      <path id="path10324-9-8" d="M2400.976,1220.771s-3.716-6.1-8.729-13.282c-3.354-4.8-6.035-10-6.285-14.484-.285-5.117,2.421-10.251,7.321-10.5s6.884,3.945,7.693,7.4c.81-3.459,2.8-7.653,7.694-7.4s7.606,5.383,7.32,10.5c-.249,4.48-2.93,9.681-6.284,14.484C2404.693,1214.667,2400.976,1220.771,2400.976,1220.771Z" fill="#d40000"/>
      <path id="path10332-8-6" d="M2359.748,1306.72s-3.716,6.1-8.73,13.283c-3.353,4.8-6.035,10-6.284,14.484-.286,5.117,2.421,10.251,7.32,10.5s6.885-3.946,7.694-7.4c.809,3.458,2.8,7.653,7.694,7.4s7.606-5.383,7.32-10.5c-.249-4.48-2.931-9.681-6.284-14.484C2363.465,1312.825,2359.748,1306.72,2359.748,1306.72Z" fill="#d40000"/>
      <path id="path10334-5-0" d="M2400.976,1287.98s-3.716,6.1-8.729,13.283c-3.354,4.8-6.035,10-6.285,14.484-.285,5.117,2.421,10.251,7.321,10.5s6.884-3.946,7.693-7.4c.81,3.458,2.8,7.653,7.694,7.4s7.606-5.383,7.32-10.5c-.249-4.48-2.93-9.681-6.284-14.484C2404.693,1294.085,2400.976,1287.98,2400.976,1287.98Z" fill="#d40000"/>
      <path id="path10336-3-5" d="M2318.52,1287.98s-3.717,6.1-8.73,13.283c-3.354,4.8-6.035,10-6.284,14.484-.286,5.117,2.42,10.251,7.32,10.5s6.885-3.946,7.694-7.4c.809,3.458,2.8,7.653,7.693,7.4s7.607-5.383,7.321-10.5c-.25-4.48-2.931-9.681-6.285-14.484C2322.236,1294.085,2318.52,1287.98,2318.52,1287.98Z" fill="#d40000"/>
      <path id="path10338-2-9" d="M2400.976,1340.723s-3.716,6.1-8.729,13.283c-3.354,4.8-6.035,10-6.285,14.484-.285,5.117,2.421,10.251,7.321,10.5s6.884-3.946,7.693-7.4c.81,3.458,2.8,7.653,7.694,7.4s7.606-5.383,7.32-10.5c-.249-4.48-2.93-9.681-6.284-14.484C2404.693,1346.828,2400.976,1340.723,2400.976,1340.723Z" fill="#d40000"/>
      <path id="path10340-9-7" d="M2318.52,1340.723s-3.717,6.1-8.73,13.283c-3.354,4.8-6.035,10-6.284,14.484-.286,5.117,2.42,10.251,7.32,10.5s6.885-3.946,7.694-7.4c.809,3.458,2.8,7.653,7.693,7.4s7.607-5.383,7.321-10.5c-.25-4.48-2.931-9.681-6.285-14.484C2322.236,1346.828,2318.52,1340.723,2318.52,1340.723Z" fill="#d40000"/>
      <g id="g7724-24-8-9-7">
        <g id="g8345-9-7-5-1">
          <path id="path31-8-2-9-8" d="M2276.587,1193.772v-26.315h2.548v26.315Z" fill="#d40000"/>
          <path id="path33-2-3-1-6" d="M2286.687,1167.457c-2.453,0-4.424,2.243-4.424,5.028v16.259c0,2.786,1.972,5.028,4.424,5.028h1.431c2.452,0,4.428-2.242,4.428-5.028v-16.259c0-2.785-1.977-5.028-4.428-5.028Zm.74,2.488a2.55,2.55,0,0,1,2.612,2.5v16.474a2.616,2.616,0,0,1-5.228,0v-16.474a2.554,2.554,0,0,1,2.616-2.5Z" fill="#d40000"/>
        </g>
      </g>
      <g id="g7724-2-5-0-2-7">
        <g id="g8345-5-0-9-6-9">
          <g id="g10963-5-1">
            <path id="path31-1-3-2-1-5" d="M2442.907,1367.723v26.315h-2.547v-26.315Z" fill="#d40000"/>
            <path id="path33-5-5-3-3-1" d="M2432.808,1394.038c2.453,0,4.424-2.243,4.424-5.029v-16.258c0-2.786-1.973-5.028-4.424-5.028h-1.431c-2.453,0-4.428,2.242-4.428,5.028v16.258c0,2.786,1.976,5.029,4.428,5.029Zm-.74-2.488a2.55,2.55,0,0,1-2.612-2.5v-16.474a2.616,2.616,0,0,1,5.228,0v16.474a2.554,2.554,0,0,1-2.616,2.5Z" fill="#d40000"/>
          </g>
        </g>
      </g>
    </g>
  </g>
</svg>
