<svg xmlns="http://www.w3.org/2000/svg" xmlns:xlink="http://www.w3.org/1999/xlink" width="179.79" height="250.65" viewBox="0 0 179.79 250.65">
  <defs>
    <clipPath id="clip-_10s">
      <rect width="179.79" height="250.65"/>
    </clipPath>
  </defs>
  <g id="_10s" data-name="10s" clip-path="url(#clip-_10s)">
    <g id="_10s-2" data-name="10s" transform="translate(-2269.855 -1436.871)">
      <g id="g8587-4-9">
        <rect id="rect7263-6-4" width="177.786" height="248.651" rx="8.504" transform="translate(2270.855 1437.871)" fill="#fff" stroke="#000" stroke-width="1.001"/>
        <path id="path7293-3-2" d="M2318.52,1463.943c-7.348,10.492-15.21,16.53-15.341,24.716-.044,2.65,1.388,7.156,5.871,8.018,2.908.557,6.913-1.8,7-6.589-.012-.953,1.009-.929,1,.378a27.2,27.2,0,0,1-3.338,11.755h9.625a27.2,27.2,0,0,1-3.338-11.755c-.009-1.307,1.012-1.331,1-.378.084,4.789,4.088,7.146,7,6.589,4.483-.862,5.914-5.368,5.87-8.018C2333.73,1480.473,2325.868,1474.435,2318.52,1463.943Z"/>
        <path id="path7295-4-8" d="M2284.568,1477.722c-3.433,4.372-7.107,6.887-7.168,10.3a3.31,3.31,0,0,0,2.743,3.341,2.848,2.848,0,0,0,3.269-2.745c-.008-.4.471-.387.466.157a10.421,10.421,0,0,1-1.559,4.9h4.5a10.423,10.423,0,0,1-1.56-4.9c-.008-.544.473-.555.467-.157a2.848,2.848,0,0,0,3.269,2.745,3.31,3.31,0,0,0,2.742-3.341c-.061-3.411-3.734-5.926-7.167-10.3Z"/>
        <path id="path7297-5-1" d="M2318.52,1607.707c-7.348-10.492-15.21-16.53-15.341-24.716-.044-2.65,1.388-7.155,5.871-8.018,2.908-.556,6.913,1.8,7,6.589-.012.954,1.009.929,1-.378a27.193,27.193,0,0,0-3.338-11.754h9.625a27.2,27.2,0,0,0-3.338,11.754c-.009,1.307,1.012,1.332,1,.378.084-4.788,4.088-7.145,7-6.589,4.483.863,5.914,5.368,5.87,8.018C2333.73,1591.177,2325.868,1597.215,2318.52,1607.707Z"/>
        <path id="path7299-3-5" d="M2434.929,1646.672c-3.433-4.372-7.106-6.888-7.167-10.3a3.309,3.309,0,0,1,2.742-3.34,2.848,2.848,0,0,1,3.269,2.745c-.008.4.471.387.467-.157a10.419,10.419,0,0,0-1.56-4.9h4.5a10.429,10.429,0,0,0-1.559,4.9c-.008.544.472.554.466.157a2.848,2.848,0,0,1,3.269-2.745,3.31,3.31,0,0,1,2.743,3.34c-.061,3.411-3.734,5.927-7.167,10.3Z"/>
        <path id="path7301-4-0" d="M2400.976,1463.943c-7.347,10.492-15.209,16.53-15.34,24.716-.044,2.65,1.387,7.156,5.87,8.018,2.909.557,6.914-1.8,7-6.589-.013-.953,1.008-.929,1,.378a27.2,27.2,0,0,1-3.338,11.755h9.625a27.2,27.2,0,0,1-3.338-11.755c-.009-1.307,1.012-1.331,1-.378.083,4.789,4.088,7.146,7,6.589,4.483-.862,5.914-5.368,5.87-8.018C2416.186,1480.473,2408.324,1474.435,2400.976,1463.943Z"/>
        <path id="path7303-7-8" d="M2318.52,1516.687c-7.348,10.492-15.21,16.529-15.341,24.715-.044,2.651,1.388,7.156,5.871,8.018,2.908.557,6.913-1.8,7-6.589-.012-.953,1.009-.928,1,.378a27.2,27.2,0,0,1-3.338,11.755h9.625a27.2,27.2,0,0,1-3.338-11.755c-.009-1.306,1.012-1.331,1-.378.084,4.789,4.088,7.146,7,6.589,4.483-.862,5.914-5.367,5.87-8.018C2333.73,1533.216,2325.868,1527.179,2318.52,1516.687Z"/>
        <path id="path7305-6-7" d="M2359.748,1497.947c-7.348,10.492-15.21,16.53-15.341,24.715-.043,2.651,1.388,7.156,5.871,8.018,2.909.557,6.913-1.8,7-6.589-.013-.953,1.008-.928,1,.378a27.2,27.2,0,0,1-3.338,11.755h9.626a27.2,27.2,0,0,1-3.338-11.755c-.01-1.306,1.011-1.331,1-.378.084,4.789,4.088,7.146,7,6.589,4.483-.862,5.914-5.367,5.871-8.018C2374.958,1514.476,2367.1,1508.439,2359.748,1497.947Z"/>
        <path id="path7309-8-5" d="M2400.976,1516.687c-7.347,10.492-15.209,16.529-15.34,24.715-.044,2.651,1.387,7.156,5.87,8.018,2.909.557,6.914-1.8,7-6.589-.013-.953,1.008-.928,1,.378a27.2,27.2,0,0,1-3.338,11.755h9.625a27.2,27.2,0,0,1-3.338-11.755c-.009-1.306,1.012-1.331,1-.378.083,4.789,4.088,7.146,7,6.589,4.483-.862,5.914-5.367,5.87-8.018C2416.186,1533.216,2408.324,1527.179,2400.976,1516.687Z"/>
        <path id="path7313-6-8" d="M2318.52,1660.45c-7.348-10.492-15.21-16.53-15.341-24.715-.044-2.651,1.388-7.156,5.871-8.019,2.908-.556,6.913,1.8,7,6.589-.012.954,1.009.929,1-.377a27.2,27.2,0,0,0-3.338-11.755h9.625a27.2,27.2,0,0,0-3.338,11.755c-.009,1.306,1.012,1.331,1,.377.084-4.788,4.088-7.145,7-6.588,4.483.862,5.914,5.367,5.87,8.018-.13,8.185-7.992,14.223-15.34,24.715Z"/>
        <path id="path7315-7-3" d="M2400.976,1660.45c-7.347-10.492-15.209-16.53-15.34-24.715-.044-2.651,1.387-7.156,5.87-8.019,2.909-.556,6.914,1.8,7,6.589-.013.954,1.008.929,1-.377a27.2,27.2,0,0,0-3.338-11.755h9.625a27.2,27.2,0,0,0-3.338,11.755c-.009,1.306,1.012,1.331,1,.377.083-4.788,4.088-7.145,7-6.588,4.483.862,5.914,5.367,5.87,8.018-.131,8.185-7.993,14.223-15.341,24.715Z"/>
        <path id="path7317-0-2" d="M2359.748,1626.447c-7.348-10.492-15.21-16.53-15.341-24.716-.043-2.65,1.388-7.155,5.871-8.018,2.909-.557,6.913,1.8,7,6.589-.013.954,1.008.929,1-.378a27.2,27.2,0,0,0-3.338-11.754h9.626a27.2,27.2,0,0,0-3.338,11.754c-.01,1.307,1.011,1.332,1,.378.084-4.789,4.088-7.146,7-6.589,4.483.863,5.914,5.368,5.871,8.018C2374.958,1609.917,2367.1,1615.955,2359.748,1626.447Z"/>
        <path id="path7319-5-6" d="M2400.976,1607.707c-7.347-10.492-15.209-16.53-15.34-24.716-.044-2.65,1.387-7.155,5.87-8.018,2.909-.556,6.914,1.8,7,6.589-.013.954,1.008.929,1-.378a27.2,27.2,0,0,0-3.338-11.754h9.625a27.193,27.193,0,0,0-3.338,11.754c-.009,1.307,1.012,1.332,1,.378.083-4.788,4.088-7.145,7-6.589,4.483.863,5.914,5.368,5.87,8.018C2416.186,1591.177,2408.324,1597.215,2400.976,1607.707Z"/>
        <path id="path31-5-4-7" d="M2276.587,1475.222v-26.315h2.548v26.315Z"/>
        <path id="path33-4-6-8" d="M2286.686,1448.906c-2.452,0-4.423,2.243-4.423,5.029v16.258c0,2.786,1.972,5.028,4.423,5.028h1.432c2.452,0,4.427-2.242,4.427-5.028v-16.258c0-2.786-1.976-5.029-4.427-5.029Zm.741,2.488a2.55,2.55,0,0,1,2.612,2.5v16.474a2.617,2.617,0,0,1-5.229,0V1453.9a2.555,2.555,0,0,1,2.617-2.5Z"/>
        <g id="g8583-6-9">
          <path id="path31-5-5-6-7" d="M2442.907,1649.172v26.315h-2.547v-26.315Z"/>
          <path id="path33-4-3-7-9" d="M2432.808,1675.487c2.453,0,4.424-2.242,4.424-5.028V1654.2c0-2.786-1.973-5.028-4.424-5.028h-1.431c-2.453,0-4.428,2.242-4.428,5.028v16.259c0,2.786,1.976,5.028,4.428,5.028Zm-.74-2.488a2.55,2.55,0,0,1-2.612-2.5v-16.473a2.616,2.616,0,0,1,5.228,0V1670.5a2.554,2.554,0,0,1-2.616,2.5Z"/>
        </g>
      </g>
    </g>
  </g>
</svg>
