<svg xmlns="http://www.w3.org/2000/svg" xmlns:xlink="http://www.w3.org/1999/xlink" width="179.79" height="250.65" viewBox="0 0 179.79 250.65">
  <defs>
    <clipPath id="clip-_2c">
      <rect width="179.79" height="250.65"/>
    </clipPath>
  </defs>
  <g id="_2c" data-name="2c" clip-path="url(#clip-_2c)">
    <g id="_2c-2" data-name="2c" transform="translate(-585.194 -873.973)">
      <g id="layer1-33-1-8-0-7">
        <rect id="rect6355-6-85-4-0-5" width="177.786" height="248.651" rx="8.504" transform="translate(586.194 874.973)" fill="#fff" stroke="#000" stroke-width="1.001"/>
      </g>
      <path id="path147-0-8-1-6-7-2-1-6-3" d="M675.083,901.376c-7.819.17-11.326,8.974-5.534,15.811.839,1,.926,1.57-.612.612-3.9-2.608-11.375-.894-11.758,7.077-.473,9.822,13.25,12.652,15.827,2.208.136-1.1,1.031-1.077.815.487a32.481,32.481,0,0,1-3.383,12.082h9.3a32.5,32.5,0,0,1-3.382-12.082c-.216-1.564.679-1.589.815-.487,2.577,10.444,16.3,7.614,15.827-2.208-.383-7.971-7.859-9.685-11.758-7.077-1.538.958-1.452.385-.612-.612,5.791-6.837,2.285-15.641-5.534-15.811h-.007Z"/>
      <path id="path147-0-8-1-6-1-4-5-4-2" d="M675.083,1097.883c-7.819-.17-11.326-8.974-5.534-15.811.84-1,.926-1.569-.612-.611-3.9,2.607-11.375.893-11.758-7.078-.473-9.822,13.25-12.652,15.827-2.208.136,1.1,1.031,1.077.815-.487a32.486,32.486,0,0,0-3.383-12.082h9.3a32.481,32.481,0,0,0-3.383,12.082c-.216,1.564.679,1.589.815.487,2.577-10.444,16.3-7.614,15.827,2.208-.383,7.971-7.859,9.685-11.758,7.078-1.538-.958-1.452-.386-.612.611,5.792,6.837,2.285,15.641-5.534,15.811h-.007Z"/>
      <path id="path147-6-9-8-7-0-5-4-9-1" d="M750.269,1083.773c3.128-.071,4.53-3.739,2.214-6.588-.336-.415-.371-.654.245-.255,1.559,1.087,4.55.373,4.7-2.949.189-4.092-5.3-5.271-6.331-.92-.054.459-.413.449-.326-.2a13.972,13.972,0,0,1,1.353-5.034h-3.718a13.972,13.972,0,0,1,1.353,5.034c.086.652-.272.662-.326.2-1.031-4.351-6.52-3.172-6.331.92.153,3.321,3.143,4.036,4.7,2.949.615-.4.581-.16.245.255-2.317,2.849-.914,6.517,2.214,6.588h0Z"/>
      <path id="path147-6-9-8-7-4-5-9-2-7" d="M599.905,914.823c-3.128.071-4.53,3.739-2.214,6.588.336.416.371.654-.245.255-1.559-1.086-4.55-.372-4.7,2.949-.189,4.092,5.3,5.271,6.331.92.054-.459.412-.449.326.2a13.971,13.971,0,0,1-1.353,5.034h3.718a13.971,13.971,0,0,1-1.353-5.034c-.086-.652.272-.662.326-.2,1.031,4.351,6.52,3.172,6.331-.92-.153-3.321-3.144-4.035-4.7-2.949-.616.4-.581.161-.245-.255,2.317-2.849.914-6.517-2.214-6.588h0Z"/>
      <path id="path15-9-1-0-1" d="M592.027,912.267l.128-1.623c.4-5.015,1.48-6.706,7.584-11.941,2.963-2.538,3.935-3.79,4.071-5.243.389-3.426-2.639-4.495-4.611-4.511-2.556-.023-5.448,1.534-4.068,5.154l-2.868.859c-.576-3.376.017-6.543,2.7-7.949,3.584-1.833,8.18-1.114,10.5,1.773a6.892,6.892,0,0,1,1.079,6.716c-2.444,5.359-10.735,7.717-11.419,13.918h9.164v-3.452h2.7v6.355l-14.96-.056Z"/>
      <path id="path15-5-7-4-9-4" d="M757.747,1086.33l-.128,1.622c-.405,5.015-1.481,6.707-7.585,11.942-2.963,2.537-3.935,3.789-4.071,5.242-.388,3.426,2.64,4.495,4.612,4.511,2.555.023,5.447-1.534,4.067-5.154l2.868-.859c.576,3.376-.017,6.543-2.7,7.949-3.584,1.833-8.18,1.114-10.5-1.773a6.9,6.9,0,0,1-1.079-6.716c2.444-5.359,10.735-7.717,11.419-13.918h-9.163v3.453h-2.7v-6.356l14.961.057Z"/>
    </g>
  </g>
</svg>
