<svg xmlns="http://www.w3.org/2000/svg" width="178.786" height="249.652" viewBox="0 0 178.786 249.652">
  <g id="_2d" data-name="2d" transform="translate(-585.694 -1718.82)">
    <rect id="rect6486-8" width="177.785" height="248.651" rx="8.504" transform="translate(586.194 1719.32)" fill="#fff" stroke="#000" stroke-width="1.001"/>
    <path id="path6516-8" d="M675.087,1783.67c-4.131-6.83-8.476-13.468-13.907-19.139,5.431-5.67,9.776-12.308,13.907-19.138,4.13,6.83,8.476,13.468,13.906,19.138C683.563,1770.2,679.217,1776.84,675.087,1783.67Z" fill="#d40000"/>
    <path id="path6518-2" d="M599.906,1775.12a44.933,44.933,0,0,0-5.794-7.974,44.976,44.976,0,0,0,5.794-7.975,44.98,44.98,0,0,0,5.795,7.975A44.937,44.937,0,0,0,599.906,1775.12Z" fill="#d40000"/>
    <path id="path6522-0" d="M750.268,1928.121a44.986,44.986,0,0,0-5.795-7.974,45.025,45.025,0,0,0,5.795-7.975,44.971,44.971,0,0,0,5.794,7.975A44.933,44.933,0,0,0,750.268,1928.121Z" fill="#d40000"/>
    <path id="path6538-6" d="M675.087,1941.9c-4.131-6.829-8.476-13.468-13.907-19.138,5.431-5.671,9.776-12.309,13.907-19.139,4.13,6.83,8.476,13.468,13.906,19.139C683.563,1928.431,679.217,1935.07,675.087,1941.9Z" fill="#d40000"/>
    <path id="path15-34-1-4-2" d="M592.425,1756.614l.128-1.622c.405-5.015,1.481-6.707,7.585-11.942,2.963-2.537,3.935-3.789,4.071-5.242.388-3.426-2.64-4.495-4.612-4.511-2.556-.023-5.448,1.534-4.067,5.153l-2.868.86c-.577-3.376.016-6.543,2.7-7.949,3.584-1.833,8.179-1.114,10.5,1.773a6.9,6.9,0,0,1,1.08,6.716c-2.444,5.359-10.735,7.717-11.419,13.918h9.163v-3.453h2.7v6.356l-14.96-.057Z" fill="#d40000"/>
    <path id="path15-5-4-6-4" d="M757.746,1930.678l-.128,1.623c-.4,5.014-1.48,6.706-7.584,11.941-2.964,2.537-3.935,3.789-4.071,5.242-.389,3.426,2.639,4.495,4.611,4.511,2.556.023,5.448-1.534,4.068-5.153l2.868-.86c.576,3.376-.017,6.544-2.7,7.949-3.584,1.833-8.18,1.114-10.5-1.773a6.892,6.892,0,0,1-1.079-6.716c2.444-5.359,10.735-7.717,11.419-13.918h-9.163v3.453h-2.7v-6.356l14.96.057Z" fill="#d40000"/>
  </g>
</svg>
