<svg xmlns="http://www.w3.org/2000/svg" xmlns:xlink="http://www.w3.org/1999/xlink" width="179.79" height="250.65" viewBox="0 0 179.79 250.65">
  <defs>
    <clipPath id="clip-_2h">
      <rect width="179.79" height="250.65"/>
    </clipPath>
  </defs>
  <g id="_2h" data-name="2h" clip-path="url(#clip-_2h)">
    <g id="_2h-2" data-name="2h" transform="translate(-585.194 -1155.422)">
      <g id="g9732-9-3">
        <rect id="rect9734-4-5" width="177.786" height="248.651" rx="8.504" transform="translate(586.194 1156.422)" fill="#fff" stroke="#000" stroke-width="1.001"/>
      </g>
      <path id="path9766-0-8" d="M599.906,1212.221s-1.772-2.543-4.162-5.534c-1.6-2-2.877-4.168-3-6.035-.136-2.132,1.154-4.271,3.49-4.375s3.282,1.644,3.668,3.085c.386-1.441,1.334-3.189,3.668-3.085a3.864,3.864,0,0,1,3.49,4.375c-.119,1.867-1.4,4.034-3,6.035C601.678,1209.678,599.906,1212.221,599.906,1212.221Z" fill="#d40000"/>
      <path id="path9768-3-3" d="M750.268,1349.273s-1.772,2.544-4.162,5.535c-1.6,2-2.877,4.168-3,6.035a3.864,3.864,0,0,0,3.49,4.375c2.334.1,3.282-1.644,3.668-3.085.386,1.441,1.333,3.188,3.668,3.085s3.626-2.243,3.49-4.375c-.119-1.867-1.4-4.034-3-6.035C752.04,1351.817,750.268,1349.273,750.268,1349.273Z" fill="#d40000"/>
      <path id="path9772-1-7" d="M675.087,1220.771s-3.717-6.1-8.73-13.282c-3.354-4.8-6.035-10-6.284-14.484-.286-5.117,2.42-10.251,7.32-10.5s6.885,3.945,7.694,7.4c.809-3.459,2.8-7.653,7.693-7.4s7.607,5.383,7.321,10.5c-.25,4.48-2.931,9.681-6.285,14.484C678.8,1214.667,675.087,1220.771,675.087,1220.771Z" fill="#d40000"/>
      <path id="path9786-2-1" d="M675.087,1340.723s-3.717,6.1-8.73,13.283c-3.354,4.8-6.035,10-6.284,14.484-.286,5.117,2.42,10.251,7.32,10.5s6.885-3.946,7.694-7.4c.809,3.458,2.8,7.653,7.693,7.4s7.607-5.383,7.321-10.5c-.25-4.48-2.931-9.681-6.285-14.484C678.8,1346.828,675.087,1340.723,675.087,1340.723Z" fill="#d40000"/>
      <path id="path15-34-0-0-4" d="M592.425,1193.716l.128-1.623c.4-5.014,1.481-6.706,7.584-11.941,2.964-2.538,3.936-3.79,4.072-5.242.388-3.426-2.64-4.5-4.612-4.511-2.556-.024-5.448,1.534-4.067,5.153l-2.869.859c-.576-3.376.017-6.543,2.7-7.948,3.583-1.833,8.179-1.115,10.5,1.773a6.894,6.894,0,0,1,1.08,6.715c-2.445,5.36-10.736,7.717-11.42,13.918h9.164v-3.452h2.7v6.355l-14.96-.056Z" fill="#d40000"/>
      <path id="path15-5-4-5-2-7" d="M757.747,1367.779l-.128,1.623c-.405,5.014-1.481,6.706-7.585,11.941-2.963,2.537-3.935,3.789-4.071,5.242-.388,3.426,2.64,4.495,4.612,4.511,2.556.023,5.447-1.534,4.067-5.153l2.868-.86c.577,3.376-.017,6.544-2.7,7.949-3.584,1.833-8.179,1.114-10.5-1.773a6.893,6.893,0,0,1-1.079-6.715c2.444-5.36,10.735-7.718,11.419-13.918h-9.163v3.452h-2.7v-6.355l14.96.056Z" fill="#d40000"/>
    </g>
  </g>
</svg>
