<svg xmlns="http://www.w3.org/2000/svg" xmlns:xlink="http://www.w3.org/1999/xlink" width="179.79" height="250.65" viewBox="0 0 179.79 250.65">
  <defs>
    <clipPath id="clip-_2s">
      <rect width="179.79" height="250.65"/>
    </clipPath>
  </defs>
  <g id="_2s" data-name="2s" clip-path="url(#clip-_2s)">
    <g id="_2s-2" data-name="2s" transform="translate(-585.194 -1436.871)">
      <rect id="rect6716-2-0" width="177.786" height="248.651" rx="8.504" transform="translate(586.194 1437.871)" fill="#fff" stroke="#000" stroke-width="1.001"/>
      <path id="path6748-4-0" d="M599.906,1477.722c-3.433,4.372-7.106,6.887-7.167,10.3a3.31,3.31,0,0,0,2.743,3.341,2.848,2.848,0,0,0,3.269-2.745c-.008-.4.471-.387.466.157a10.433,10.433,0,0,1-1.559,4.9h4.5a10.423,10.423,0,0,1-1.56-4.9c-.008-.544.473-.555.467-.157a2.848,2.848,0,0,0,3.269,2.745,3.312,3.312,0,0,0,2.743-3.341c-.062-3.411-3.735-5.926-7.168-10.3Z"/>
      <path id="path6752-9-1" d="M750.268,1646.672c-3.433-4.372-7.107-6.888-7.168-10.3a3.311,3.311,0,0,1,2.743-3.34,2.848,2.848,0,0,1,3.269,2.745c-.008.4.471.387.467-.157a10.419,10.419,0,0,0-1.56-4.9h4.5a10.429,10.429,0,0,0-1.559,4.9c-.008.544.472.554.466.157a2.848,2.848,0,0,1,3.269-2.745,3.309,3.309,0,0,1,2.743,3.34c-.061,3.411-3.734,5.927-7.167,10.3Z"/>
      <path id="path6760-2-4" d="M675.087,1463.943c-7.348,10.492-15.21,16.53-15.341,24.716-.044,2.65,1.388,7.156,5.871,8.018,2.908.557,6.913-1.8,7-6.589-.012-.953,1.009-.929,1,.378a27.2,27.2,0,0,1-3.338,11.755H679.9a27.2,27.2,0,0,1-3.338-11.755c-.009-1.307,1.012-1.331,1-.378.084,4.789,4.088,7.146,7,6.589,4.483-.862,5.914-5.368,5.87-8.018-.13-8.186-7.993-14.224-15.34-24.716Z"/>
      <path id="path6774-6-2" d="M675.087,1660.45c-7.348-10.492-15.21-16.53-15.341-24.715-.044-2.651,1.388-7.156,5.871-8.019,2.908-.556,6.913,1.8,7,6.589-.012.954,1.009.929,1-.377a27.2,27.2,0,0,0-3.338-11.755H679.9a27.2,27.2,0,0,0-3.338,11.755c-.009,1.306,1.012,1.331,1,.377.084-4.788,4.088-7.145,7-6.588,4.483.862,5.914,5.367,5.87,8.018-.13,8.185-7.993,14.223-15.34,24.715Z"/>
      <path id="path15-3-8-9" d="M592.425,1475.165l.128-1.623c.4-5.014,1.481-6.706,7.584-11.941,2.964-2.537,3.936-3.789,4.072-5.242.388-3.426-2.64-4.495-4.612-4.511-2.556-.023-5.448,1.534-4.067,5.153l-2.869.86c-.576-3.376.017-6.544,2.7-7.949,3.584-1.833,8.179-1.114,10.5,1.773a6.9,6.9,0,0,1,1.08,6.716c-2.445,5.359-10.736,7.717-11.42,13.918h9.164v-3.453h2.7v6.356l-14.96-.057Z"/>
      <path id="path15-3-5-1-4" d="M757.747,1649.228l-.128,1.623c-.405,5.015-1.481,6.706-7.585,11.941-2.963,2.538-3.935,3.79-4.071,5.242-.388,3.427,2.64,4.5,4.612,4.512,2.556.023,5.447-1.534,4.067-5.154l2.868-.859c.577,3.376-.017,6.543-2.7,7.949-3.584,1.832-8.179,1.114-10.5-1.774a6.893,6.893,0,0,1-1.079-6.715c2.444-5.359,10.735-7.717,11.419-13.918h-9.163v3.452h-2.7v-6.355l14.96.057Z"/>
    </g>
  </g>
</svg>
