<svg xmlns="http://www.w3.org/2000/svg" xmlns:xlink="http://www.w3.org/1999/xlink" width="179.79" height="250.65" viewBox="0 0 179.79 250.65">
  <defs>
    <clipPath id="clip-_3c">
      <rect width="179.79" height="250.65"/>
    </clipPath>
  </defs>
  <g id="_3c" data-name="3c" clip-path="url(#clip-_3c)">
    <g id="_3c-2" data-name="3c" transform="translate(-795.776 -873.973)">
      <g id="layer1-33-1-4-5-7">
        <rect id="rect6355-6-85-2-7-5" width="177.786" height="248.651" rx="8.504" transform="translate(796.776 874.973)" fill="#fff" stroke="#000" stroke-width="1.001"/>
      </g>
      <path id="path147-0-8-1-6-7-2-5-9-2" d="M885.666,901.376c-7.82.17-11.326,8.974-5.535,15.811.84,1,.927,1.57-.611.612-3.9-2.608-11.376-.894-11.759,7.077-.473,9.822,13.251,12.652,15.827,2.208.136-1.1,1.032-1.077.816.487a32.5,32.5,0,0,1-3.383,12.082h9.3a32.5,32.5,0,0,1-3.383-12.082c-.216-1.564.68-1.589.816-.487,2.577,10.444,16.3,7.614,15.827-2.208-.383-7.971-7.859-9.685-11.758-7.077-1.539.958-1.452.385-.612-.612,5.791-6.837,2.285-15.641-5.535-15.811h-.006Z"/>
      <path id="path147-0-8-1-6-1-4-3-4-3" d="M885.666,1097.883c-7.82-.17-11.326-8.974-5.535-15.811.84-1,.927-1.569-.611-.611-3.9,2.607-11.376.893-11.759-7.078-.473-9.822,13.251-12.652,15.827-2.208.136,1.1,1.032,1.077.816-.487a32.5,32.5,0,0,0-3.383-12.082h9.3a32.5,32.5,0,0,0-3.383,12.082c-.216,1.564.68,1.589.816.487,2.577-10.444,16.3-7.614,15.827,2.208-.383,7.971-7.859,9.685-11.758,7.078-1.539-.958-1.452-.386-.612.611,5.791,6.837,2.285,15.641-5.535,15.811h-.006Z"/>
      <path id="path147-0-8-1-6-1-1-0-4-8-8" d="M885.666,980.491c-7.82.17-11.326,8.974-5.535,15.811.84,1,.927,1.569-.611.611-3.9-2.607-11.376-.893-11.759,7.078-.473,9.822,13.251,12.652,15.827,2.208.136-1.1,1.032-1.077.816.487a32.5,32.5,0,0,1-3.383,12.082h9.3a32.5,32.5,0,0,1-3.383-12.082c-.216-1.564.68-1.589.816-.487,2.577,10.444,16.3,7.614,15.827-2.208-.383-7.971-7.859-9.685-11.758-7.078-1.539.958-1.452.386-.612-.611,5.791-6.837,2.285-15.641-5.535-15.811h-.006Z"/>
      <path id="path147-6-9-8-7-0-5-5-1-4" d="M960.852,1083.773c3.127-.071,4.53-3.739,2.214-6.588-.336-.415-.371-.654.244-.255,1.56,1.087,4.55.373,4.7-2.949.189-4.092-5.3-5.271-6.331-.92-.055.459-.413.449-.326-.2a13.972,13.972,0,0,1,1.353-5.034h-3.719a13.994,13.994,0,0,1,1.354,5.034c.086.652-.272.662-.327.2-1.03-4.351-6.52-3.172-6.331.92.154,3.322,3.144,4.036,4.7,2.949.615-.4.581-.16.245.255-2.317,2.849-.914,6.517,2.213,6.588h0Z"/>
      <path id="path147-6-9-8-7-4-5-8-2-3" d="M810.488,914.823c-3.128.071-4.531,3.739-2.214,6.588.336.416.37.654-.245.255-1.56-1.086-4.55-.372-4.7,2.949-.189,4.092,5.3,5.271,6.331.92.054-.459.412-.449.326.2a13.971,13.971,0,0,1-1.353,5.034h3.718a13.971,13.971,0,0,1-1.353-5.034c-.087-.652.272-.662.326-.2,1.031,4.351,6.52,3.172,6.331-.92-.153-3.321-3.144-4.035-4.7-2.949-.615.4-.58.161-.244-.255,2.316-2.849.914-6.517-2.214-6.588h0Z"/>
      <path id="path17-9-7-6-4" d="M801.958,906.555l2.024-1.491c1.756,2.864,3.72,4.749,6.724,4.426,4.507-.31,6.375-5.042,5.432-8.606a5.213,5.213,0,0,0-7.612-3.051,7.43,7.43,0,0,1-1.508.734c-.311,0-1.016-1.4-.92-1.832a93.136,93.136,0,0,1,6.828-8.014H805.37v3.417h-2.9v-6.13h14.768v2.08a50.25,50.25,0,0,0-5.264,6.358,7.166,7.166,0,0,1,6.748,5.393,14.317,14.317,0,0,1-.412,7.268,9.114,9.114,0,0,1-7.4,5.194c-4.984.335-7.628-3.161-8.948-5.746Z"/>
      <path id="path17-5-0-1-5-7" d="M969.379,1092.042l-2.023,1.49c-1.756-2.863-3.72-4.749-6.725-4.425-4.507.31-6.375,5.041-5.432,8.606a5.214,5.214,0,0,0,7.612,3.051,7.451,7.451,0,0,1,1.509-.734c.311,0,1.015,1.4.919,1.831a92.957,92.957,0,0,1-6.828,8.014h7.556v-3.416h2.9v6.13H954.1v-2.08a50.37,50.37,0,0,0,5.264-6.359,7.166,7.166,0,0,1-6.748-5.392,14.31,14.31,0,0,1,.412-7.269,9.108,9.108,0,0,1,7.4-5.193c4.983-.335,7.627,3.16,8.947,5.746Z"/>
    </g>
  </g>
</svg>
