<svg xmlns="http://www.w3.org/2000/svg" xmlns:xlink="http://www.w3.org/1999/xlink" width="179.79" height="250.65" viewBox="0 0 179.79 250.65">
  <defs>
    <clipPath id="clip-_3d">
      <rect width="179.79" height="250.65"/>
    </clipPath>
  </defs>
  <g id="_3d" data-name="3d" clip-path="url(#clip-_3d)">
    <g id="_3d-2" data-name="3d" transform="translate(-795.777 -1718.32)">
      <rect id="rect6554-0" width="177.785" height="248.651" rx="8.504" transform="translate(796.777 1719.32)" fill="#fff" stroke="#000" stroke-width="1.001"/>
      <path id="path6584-3" d="M885.669,1783.67c-4.13-6.83-8.476-13.468-13.906-19.139,5.43-5.67,9.776-12.308,13.906-19.138,4.131,6.83,8.476,13.468,13.907,19.138C894.145,1770.2,889.8,1776.84,885.669,1783.67Z" fill="#d40000"/>
      <path id="path6586-2" d="M810.489,1775.12a44.985,44.985,0,0,0-5.794-7.974,45.028,45.028,0,0,0,5.794-7.975,45.025,45.025,0,0,0,5.794,7.975A44.981,44.981,0,0,0,810.489,1775.12Z" fill="#d40000"/>
      <path id="path6590-7" d="M960.85,1928.121a44.932,44.932,0,0,0-5.794-7.974,44.971,44.971,0,0,0,5.794-7.975,44.976,44.976,0,0,0,5.8,7.975A44.938,44.938,0,0,0,960.85,1928.121Z" fill="#d40000"/>
      <path id="path6600-5" d="M885.669,1862.785c-4.13-6.83-8.476-13.468-13.906-19.139,5.43-5.67,9.776-12.309,13.906-19.139,4.131,6.83,8.476,13.469,13.907,19.139C894.145,1849.317,889.8,1855.955,885.669,1862.785Z" fill="#d40000"/>
      <path id="path6606-3" d="M885.669,1941.9c-4.13-6.829-8.476-13.468-13.906-19.138,5.43-5.671,9.776-12.309,13.906-19.139,4.131,6.83,8.476,13.468,13.907,19.139C894.145,1928.431,889.8,1935.07,885.669,1941.9Z" fill="#d40000"/>
      <path id="path17-2-9-4-8" d="M801.958,1750.9l2.023-1.49c1.756,2.863,3.72,4.749,6.725,4.425,4.507-.31,6.375-5.041,5.432-8.606a5.214,5.214,0,0,0-7.612-3.051,7.428,7.428,0,0,1-1.509.734c-.311,0-1.015-1.4-.919-1.831a92.946,92.946,0,0,1,6.828-8.014H805.37v3.417h-2.9v-6.131h14.767v2.08a50.367,50.367,0,0,0-5.264,6.359,7.166,7.166,0,0,1,6.748,5.392,14.321,14.321,0,0,1-.411,7.269,9.111,9.111,0,0,1-7.4,5.193c-4.983.336-7.627-3.16-8.947-5.746Z" fill="#d40000"/>
      <path id="path17-5-3-3-8" d="M969.379,1936.39l-2.024,1.49c-1.756-2.863-3.72-4.749-6.724-4.425-4.507.31-6.375,5.041-5.432,8.606a5.214,5.214,0,0,0,7.612,3.051,7.428,7.428,0,0,1,1.508-.734c.312,0,1.016,1.4.92,1.831a93.14,93.14,0,0,1-6.828,8.014h7.556v-3.416h2.9v6.13H954.1v-2.08a50.279,50.279,0,0,0,5.264-6.359,7.163,7.163,0,0,1-6.747-5.392,14.321,14.321,0,0,1,.411-7.269,9.111,9.111,0,0,1,7.4-5.193c4.984-.335,7.628,3.16,8.948,5.746Z" fill="#d40000"/>
    </g>
  </g>
</svg>
