<svg xmlns="http://www.w3.org/2000/svg" xmlns:xlink="http://www.w3.org/1999/xlink" width="179.79" height="250.65" viewBox="0 0 179.79 250.65">
  <defs>
    <clipPath id="clip-_3h">
      <rect width="179.79" height="250.65"/>
    </clipPath>
  </defs>
  <g id="_3h" data-name="3h" clip-path="url(#clip-_3h)">
    <g id="_3h-2" data-name="3h" transform="translate(-795.776 -1155.422)">
      <g id="g9800-8-2">
        <rect id="rect9802-4-3" width="177.786" height="248.651" rx="8.504" transform="translate(796.776 1156.422)" fill="#fff" stroke="#000" stroke-width="1.001"/>
      </g>
      <path id="path9834-5-2" d="M810.489,1212.221s-1.772-2.543-4.162-5.534c-1.6-2-2.877-4.168-3-6.035a3.864,3.864,0,0,1,3.49-4.375c2.334-.1,3.282,1.644,3.668,3.085.386-1.441,1.333-3.189,3.668-3.085s3.626,2.243,3.49,4.375c-.119,1.867-1.4,4.034-3,6.035C812.261,1209.678,810.489,1212.221,810.489,1212.221Z" fill="#d40000"/>
      <path id="path9836-5-8" d="M960.85,1349.273s-1.771,2.544-4.161,5.535c-1.6,2-2.878,4.168-3,6.035-.136,2.132,1.154,4.271,3.49,4.375s3.283-1.644,3.668-3.085c.386,1.441,1.334,3.188,3.668,3.085a3.864,3.864,0,0,0,3.49-4.375c-.118-1.867-1.4-4.034-3-6.035C962.622,1351.817,960.85,1349.273,960.85,1349.273Z" fill="#d40000"/>
      <path id="path9840-3-6" d="M885.669,1220.771s-3.716-6.1-8.729-13.282c-3.354-4.8-6.035-10-6.285-14.484-.286-5.117,2.421-10.251,7.321-10.5s6.884,3.945,7.693,7.4c.809-3.459,2.8-7.653,7.694-7.4s7.606,5.383,7.32,10.5c-.249,4.48-2.93,9.681-6.284,14.484C889.386,1214.667,885.669,1220.771,885.669,1220.771Z" fill="#d40000"/>
      <path id="path9850-2-3" d="M885.669,1299.886s-3.716-6.1-8.729-13.282c-3.354-4.8-6.035-10.005-6.285-14.484-.286-5.118,2.421-10.252,7.321-10.5s6.884,3.946,7.693,7.4c.809-3.458,2.8-7.652,7.694-7.4s7.606,5.383,7.32,10.5c-.249,4.479-2.93,9.68-6.284,14.484C889.386,1293.781,885.669,1299.886,885.669,1299.886Z" fill="#d40000"/>
      <path id="path9854-8-0" d="M885.669,1340.723s-3.716,6.1-8.729,13.283c-3.354,4.8-6.035,10-6.285,14.484-.286,5.117,2.421,10.251,7.321,10.5s6.884-3.946,7.693-7.4c.809,3.458,2.8,7.653,7.694,7.4s7.606-5.383,7.32-10.5c-.249-4.48-2.93-9.681-6.284-14.484C889.386,1346.828,885.669,1340.723,885.669,1340.723Z" fill="#d40000"/>
      <path id="path17-2-9-8-4" d="M801.958,1188l2.023-1.49c1.756,2.863,3.72,4.749,6.725,4.425,4.507-.31,6.375-5.041,5.432-8.606a5.215,5.215,0,0,0-7.613-3.051,7.428,7.428,0,0,1-1.508.734c-.311,0-1.016-1.4-.919-1.831a92.818,92.818,0,0,1,6.827-8.014H805.37v3.416h-2.9v-6.13h14.767v2.08a50.371,50.371,0,0,0-5.264,6.359,7.165,7.165,0,0,1,6.748,5.392,14.307,14.307,0,0,1-.412,7.268,9.107,9.107,0,0,1-7.4,5.194c-4.984.335-7.627-3.161-8.947-5.746Z" fill="#d40000"/>
      <path id="path17-5-3-9-1-3" d="M969.379,1373.491l-2.023,1.49c-1.756-2.863-3.72-4.749-6.725-4.425-4.507.31-6.375,5.041-5.432,8.606a5.214,5.214,0,0,0,7.612,3.051,7.451,7.451,0,0,1,1.509-.734c.311,0,1.015,1.4.919,1.831a92.838,92.838,0,0,1-6.827,8.014h7.555v-3.416h2.9v6.13H954.1v-2.08a50.37,50.37,0,0,0,5.264-6.359,7.164,7.164,0,0,1-6.748-5.392,14.306,14.306,0,0,1,.412-7.268,9.107,9.107,0,0,1,7.4-5.194c4.983-.335,7.627,3.161,8.947,5.746Z" fill="#d40000"/>
    </g>
  </g>
</svg>
