<svg xmlns="http://www.w3.org/2000/svg" xmlns:xlink="http://www.w3.org/1999/xlink" width="179.79" height="250.65" viewBox="0 0 179.79 250.65">
  <defs>
    <clipPath id="clip-_3s">
      <rect width="179.79" height="250.65"/>
    </clipPath>
  </defs>
  <g id="_3s" data-name="3s" clip-path="url(#clip-_3s)">
    <g id="_3s-2" data-name="3s" transform="translate(-795.776 -1436.871)">
      <rect id="rect6784-5-9" width="177.786" height="248.651" rx="8.504" transform="translate(796.776 1437.871)" fill="#fff" stroke="#000" stroke-width="1.001"/>
      <path id="path6816-2-4" d="M810.489,1477.722c-3.433,4.372-7.107,6.887-7.168,10.3a3.312,3.312,0,0,0,2.743,3.341,2.848,2.848,0,0,0,3.269-2.745c-.008-.4.471-.387.467.157a10.423,10.423,0,0,1-1.56,4.9h4.5a10.433,10.433,0,0,1-1.559-4.9c-.008-.544.472-.555.466-.157a2.848,2.848,0,0,0,3.269,2.745,3.31,3.31,0,0,0,2.743-3.341c-.061-3.411-3.734-5.926-7.167-10.3Z"/>
      <path id="path6820-0-2" d="M960.85,1646.672c-3.433-4.372-7.106-6.888-7.167-10.3a3.309,3.309,0,0,1,2.743-3.34,2.848,2.848,0,0,1,3.269,2.745c-.008.4.471.387.466-.157a10.407,10.407,0,0,0-1.559-4.9h4.5a10.407,10.407,0,0,0-1.559,4.9c-.008.544.472.554.466.157a2.848,2.848,0,0,1,3.269-2.745,3.31,3.31,0,0,1,2.743,3.34c-.061,3.411-3.734,5.927-7.167,10.3Z"/>
      <path id="path6828-8-3" d="M885.669,1463.943c-7.347,10.492-15.21,16.53-15.34,24.716-.044,2.65,1.387,7.156,5.87,8.018,2.909.557,6.913-1.8,7-6.589-.013-.953,1.008-.929,1,.378a27.2,27.2,0,0,1-3.338,11.755h9.625a27.2,27.2,0,0,1-3.338-11.755c-.009-1.307,1.011-1.331,1-.378.083,4.789,4.088,7.146,7,6.589,4.484-.862,5.915-5.368,5.871-8.018-.131-8.186-7.993-14.224-15.341-24.716Z"/>
      <path id="path6842-0-7" d="M885.669,1660.45c-7.347-10.492-15.21-16.53-15.34-24.715-.044-2.651,1.387-7.156,5.87-8.019,2.909-.556,6.913,1.8,7,6.589-.013.954,1.008.929,1-.377a27.2,27.2,0,0,0-3.338-11.755h9.625a27.2,27.2,0,0,0-3.338,11.755c-.009,1.306,1.011,1.331,1,.377.083-4.788,4.088-7.145,7-6.588,4.484.862,5.915,5.367,5.871,8.018-.131,8.185-7.993,14.223-15.341,24.715Z"/>
      <path id="path6844-7-0" d="M885.669,1543.058c-7.347,10.492-15.21,16.53-15.34,24.715-.044,2.651,1.387,7.156,5.87,8.019,2.909.556,6.913-1.8,7-6.589-.013-.954,1.008-.929,1,.377a27.2,27.2,0,0,1-3.338,11.755h9.625a27.2,27.2,0,0,1-3.338-11.755c-.009-1.306,1.011-1.331,1-.377.083,4.788,4.088,7.145,7,6.589,4.484-.863,5.915-5.368,5.871-8.019-.131-8.185-7.993-14.223-15.341-24.715Z"/>
      <path id="path17-9-11-4" d="M801.958,1469.453l2.023-1.49c1.756,2.863,3.72,4.749,6.724,4.425,4.508-.31,6.376-5.041,5.433-8.606a5.214,5.214,0,0,0-7.612-3.051,7.451,7.451,0,0,1-1.509.734c-.311,0-1.016-1.4-.919-1.831a93,93,0,0,1,6.827-8.014H805.37v3.416h-2.9v-6.13h14.767v2.08a50.371,50.371,0,0,0-5.264,6.359,7.165,7.165,0,0,1,6.748,5.392,14.306,14.306,0,0,1-.412,7.268,9.107,9.107,0,0,1-7.4,5.194c-4.983.335-7.627-3.161-8.947-5.746Z"/>
      <path id="path17-9-1-0-8" d="M969.379,1654.94l-2.023,1.49c-1.756-2.863-3.72-4.748-6.725-4.425-4.507.31-6.375,5.042-5.432,8.606a5.213,5.213,0,0,0,7.612,3.051,7.458,7.458,0,0,1,1.509-.734c.311,0,1.015,1.4.919,1.832a92.957,92.957,0,0,1-6.828,8.014h7.556v-3.417h2.9v6.13H954.1v-2.079a50.37,50.37,0,0,0,5.264-6.359,7.165,7.165,0,0,1-6.748-5.392,14.321,14.321,0,0,1,.411-7.269,9.114,9.114,0,0,1,7.405-5.194c4.983-.335,7.627,3.161,8.947,5.746Z"/>
    </g>
  </g>
</svg>
