<svg xmlns="http://www.w3.org/2000/svg" xmlns:xlink="http://www.w3.org/1999/xlink" width="179.79" height="250.65" viewBox="0 0 179.79 250.65">
  <defs>
    <clipPath id="clip-_4c">
      <rect width="179.79" height="250.65"/>
    </clipPath>
  </defs>
  <g id="_4c" data-name="4c" clip-path="url(#clip-_4c)">
    <g id="_4c-2" data-name="4c" transform="translate(-1006.359 -873.972)">
      <rect id="rect6355-6-85-3-72-9" width="177.785" height="248.651" rx="8.504" transform="translate(1007.359 874.972)" fill="#fff" stroke="#000" stroke-width="0.997"/>
      <path id="path147-0-8-1-6-13-2-06-7" d="M1137.477,901.376c-7.82.17-11.326,8.974-5.535,15.811.84,1,.927,1.569-.612.611-3.9-2.607-11.375-.893-11.758,7.078-.473,9.822,13.25,12.652,15.827,2.208.136-1.1,1.032-1.077.816.487a32.5,32.5,0,0,1-3.383,12.082h9.3a32.5,32.5,0,0,1-3.383-12.082c-.216-1.564.68-1.589.816-.487,2.576,10.444,16.3,7.614,15.827-2.208-.383-7.971-7.859-9.685-11.758-7.078-1.539.958-1.452.386-.612-.611,5.791-6.837,2.285-15.641-5.535-15.811h-.006Z"/>
      <path id="path147-0-8-1-6-75-2-83-35-3" d="M1055.02,901.376c-7.819.17-11.325,8.974-5.534,15.811.84,1,.926,1.569-.612.611-3.9-2.607-11.375-.893-11.758,7.078-.473,9.822,13.25,12.652,15.827,2.208.136-1.1,1.031-1.077.815.487a32.506,32.506,0,0,1-3.382,12.082h9.3a32.507,32.507,0,0,1-3.383-12.082c-.216-1.564.679-1.589.815-.487,2.577,10.444,16.3,7.614,15.827-2.208-.382-7.971-7.859-9.685-11.758-7.078-1.538.958-1.451.386-.612-.611,5.792-6.837,2.285-15.641-5.534-15.811h-.007Z"/>
      <path id="path147-0-8-1-6-7-5-5-7-77-6" d="M1137.477,1097.883c-7.82-.17-11.326-8.974-5.535-15.811.84-1,.927-1.569-.612-.611-3.9,2.607-11.375.893-11.758-7.078-.473-9.822,13.25-12.652,15.827-2.208.136,1.1,1.032,1.077.816-.487a32.5,32.5,0,0,0-3.383-12.082h9.3a32.5,32.5,0,0,0-3.383,12.082c-.216,1.564.68,1.589.816.487,2.576-10.444,16.3-7.614,15.827,2.208-.383,7.971-7.859,9.685-11.758,7.078-1.539-.958-1.452-.386-.612.611,5.791,6.837,2.285,15.641-5.535,15.811h-.006Z"/>
      <path id="path147-0-8-1-6-75-6-1-2-08-0" d="M1055.02,1097.883c-7.819-.17-11.325-8.974-5.534-15.811.84-1,.926-1.569-.612-.611-3.9,2.607-11.375.893-11.758-7.078-.473-9.822,13.25-12.652,15.827-2.208.136,1.1,1.031,1.077.815-.487a32.506,32.506,0,0,0-3.382-12.082h9.3a32.507,32.507,0,0,0-3.383,12.082c-.216,1.564.679,1.589.815.487,2.577-10.444,16.3-7.614,15.827,2.208-.382,7.971-7.859,9.685-11.758,7.078-1.538-.958-1.451-.386-.612.611,5.792,6.837,2.285,15.641-5.534,15.811h-.007Z"/>
      <path id="path147-6-9-8-7-0-5-6-17-9" d="M1171.434,1083.773c3.128-.071,4.53-3.739,2.214-6.588-.336-.415-.371-.654.245-.255,1.559,1.087,4.55.373,4.7-2.949.189-4.092-5.3-5.271-6.331-.92-.054.46-.412.449-.326-.2a13.977,13.977,0,0,1,1.353-5.034h-3.718a13.977,13.977,0,0,1,1.353,5.034c.086.652-.272.663-.326.2-1.031-4.351-6.52-3.172-6.331.92.153,3.322,3.144,4.036,4.7,2.949.615-.4.581-.16.245.255-2.317,2.849-.914,6.517,2.214,6.588h0Z"/>
      <path id="path147-6-9-8-7-4-5-62-79-3" d="M1021.071,914.823c-3.128.07-4.531,3.739-2.214,6.588.336.415.37.654-.245.255-1.56-1.087-4.55-.373-4.7,2.949-.19,4.092,5.3,5.271,6.33.92.055-.459.413-.449.327.2a13.973,13.973,0,0,1-1.354,5.034h3.719a13.971,13.971,0,0,1-1.353-5.034c-.087-.652.271-.662.326-.2,1.031,4.351,6.52,3.172,6.331-.92-.154-3.322-3.144-4.036-4.7-2.949-.615.4-.58.16-.244-.255,2.316-2.849.914-6.517-2.214-6.588h0Z"/>
      <path id="path19-0-7-3" d="M1021.255,912.32v-2.325h2.095v-3.834h-10.479v-2.705l11.339-17.449,1.852.01v17.439h3.208v2.705h-3.208L1026,910h1.756v2.327h-6.5Zm2.095-19.925-7.2,11.062h7.2Z"/>
      <path id="path19-4-4-9-1" d="M1171.247,1086.277v2.324h-2.095v3.834h10.48v2.7l-11.34,17.449-1.852-.01V1095.14h-3.208v-2.7h3.208l.061-3.834h-1.756v-2.328h6.5Zm-2.095,19.924,7.2-11.062h-7.2Z"/>
    </g>
  </g>
</svg>
