<svg xmlns="http://www.w3.org/2000/svg" xmlns:xlink="http://www.w3.org/1999/xlink" width="179.79" height="250.65" viewBox="0 0 179.79 250.65">
  <defs>
    <clipPath id="clip-_4d">
      <rect width="179.79" height="250.65"/>
    </clipPath>
  </defs>
  <g id="_4d" data-name="4d" clip-path="url(#clip-_4d)">
    <g id="_4d-2" data-name="4d" transform="translate(-1006.359 -1718.32)">
      <rect id="rect6622-5" width="177.785" height="248.651" rx="8.504" transform="translate(1007.359 1719.32)" fill="#fff" stroke="#000" stroke-width="1.001"/>
      <path id="path6654-0" d="M1021.072,1775.12a44.938,44.938,0,0,0-5.8-7.974,44.981,44.981,0,0,0,5.8-7.975,44.978,44.978,0,0,0,5.794,7.975A44.935,44.935,0,0,0,1021.072,1775.12Z" fill="#d40000"/>
      <path id="path6656-6" d="M1137.48,1783.67c-4.13-6.83-8.476-13.468-13.906-19.139,5.43-5.67,9.776-12.308,13.906-19.138,4.131,6.83,8.476,13.468,13.907,19.138C1145.956,1770.2,1141.611,1776.84,1137.48,1783.67Z" fill="#d40000"/>
      <path id="path6658-8" d="M1171.433,1928.121a44.932,44.932,0,0,0-5.8-7.974,44.97,44.97,0,0,0,5.8-7.975,45.02,45.02,0,0,0,5.794,7.975A44.982,44.982,0,0,0,1171.433,1928.121Z" fill="#d40000"/>
      <path id="path6660-7" d="M1055.024,1783.67c-4.131-6.83-8.476-13.468-13.907-19.139,5.431-5.67,9.776-12.308,13.907-19.138,4.13,6.83,8.476,13.468,13.906,19.138C1063.5,1770.2,1059.154,1776.84,1055.024,1783.67Z" fill="#d40000"/>
      <path id="path6676-4" d="M1055.024,1941.9c-4.131-6.83-8.476-13.469-13.907-19.139,5.431-5.671,9.776-12.309,13.907-19.139,4.13,6.83,8.476,13.468,13.906,19.139C1063.5,1928.435,1059.154,1935.074,1055.024,1941.9Z" fill="#d40000"/>
      <path id="path6678-8" d="M1137.48,1941.909c-4.13-6.83-8.476-13.468-13.906-19.139,5.43-5.67,9.776-12.308,13.906-19.138,4.131,6.83,8.476,13.468,13.907,19.138C1145.956,1928.441,1141.611,1935.079,1137.48,1941.909Z" fill="#d40000"/>
      <path id="path19-3-1-9-0" d="M1021.255,1756.667v-2.324h2.095v-3.834h-10.479V1747.8l11.339-17.449,1.852.01V1747.8h3.208v2.705h-3.208l-.06,3.834h1.756v2.328h-6.5Zm2.095-19.924-7.2,11.062h7.2Z" fill="#d40000"/>
      <path id="path19-4-46-7-7" d="M1171.247,1930.625v2.324h-2.095v3.834h10.479v2.705l-11.339,17.449-1.852-.009v-17.44h-3.208v-2.705h3.208l.06-3.834h-1.756v-2.328h6.5Zm-2.095,19.924,7.2-11.062h-7.2Z" fill="#d40000"/>
    </g>
  </g>
</svg>
