<svg xmlns="http://www.w3.org/2000/svg" xmlns:xlink="http://www.w3.org/1999/xlink" width="179.79" height="250.65" viewBox="0 0 179.79 250.65">
  <defs>
    <clipPath id="clip-_4h">
      <rect width="179.79" height="250.65"/>
    </clipPath>
  </defs>
  <g id="_4h" data-name="4h" clip-path="url(#clip-_4h)">
    <g id="_4h-2" data-name="4h" transform="translate(-1006.359 -1155.422)">
      <g id="g9868-8-1">
        <rect id="rect9870-7-0" width="177.786" height="248.651" rx="8.504" transform="translate(1007.359 1156.422)" fill="#fff" stroke="#000" stroke-width="1.001"/>
      </g>
      <path id="path9902-6-7" d="M1021.071,1212.221s-1.771-2.543-4.161-5.534c-1.6-2-2.878-4.168-3-6.035-.136-2.132,1.154-4.271,3.49-4.375s3.283,1.644,3.668,3.085c.386-1.441,1.334-3.189,3.668-3.085a3.864,3.864,0,0,1,3.49,4.375c-.118,1.867-1.4,4.034-3,6.035C1022.843,1209.678,1021.073,1212.219,1021.071,1212.221Z" fill="#d40000"/>
      <path id="path9904-6-0" d="M1171.433,1349.273s-1.772,2.544-4.162,5.535c-1.6,2-2.877,4.168-3,6.035-.136,2.132,1.154,4.271,3.49,4.375s3.282-1.644,3.668-3.085c.386,1.441,1.334,3.188,3.668,3.085s3.626-2.243,3.49-4.375c-.119-1.867-1.4-4.034-3-6.035C1173.2,1351.817,1171.435,1349.275,1171.433,1349.273Z" fill="#d40000"/>
      <path id="path9910-2-6" d="M1055.024,1220.771s-3.717-6.1-8.73-13.282c-3.354-4.8-6.035-10-6.284-14.484-.286-5.117,2.42-10.251,7.32-10.5s6.884,3.945,7.694,7.4c.809-3.459,2.8-7.653,7.693-7.4s7.606,5.383,7.321,10.5c-.25,4.48-2.931,9.681-6.285,14.484C1058.74,1214.667,1055.027,1220.766,1055.024,1220.771Z" fill="#d40000"/>
      <path id="path9916-8-0" d="M1137.48,1220.771s-3.716-6.1-8.729-13.282c-3.354-4.8-6.035-10-6.285-14.484-.286-5.117,2.421-10.251,7.321-10.5s6.884,3.945,7.693,7.4c.809-3.459,2.8-7.653,7.694-7.4s7.606,5.383,7.32,10.5c-.249,4.48-2.93,9.681-6.284,14.484C1141.2,1214.667,1137.483,1220.766,1137.48,1220.771Z" fill="#d40000"/>
      <path id="path9930-7-9" d="M1137.48,1340.723c0,.005-3.716,6.1-8.729,13.283-3.354,4.8-6.035,10-6.285,14.484-.286,5.117,2.421,10.251,7.321,10.5s6.884-3.946,7.693-7.4c.809,3.458,2.8,7.653,7.694,7.4s7.606-5.383,7.32-10.5c-.249-4.48-2.93-9.681-6.284-14.484C1141.2,1346.828,1137.483,1340.728,1137.48,1340.723Z" fill="#d40000"/>
      <path id="path9932-9-8" d="M1055.024,1340.723c0,.005-3.717,6.1-8.73,13.283-3.354,4.8-6.035,10-6.284,14.484-.286,5.117,2.42,10.251,7.32,10.5s6.884-3.946,7.694-7.4c.809,3.458,2.8,7.653,7.693,7.4s7.606-5.383,7.321-10.5c-.25-4.48-2.931-9.681-6.285-14.484C1058.74,1346.828,1055.027,1340.728,1055.024,1340.723Z" fill="#d40000"/>
      <path id="path19-3-8-2-9" d="M1021.255,1193.769v-2.324h2.095v-3.834h-10.48v-2.706l11.34-17.448,1.852.009v17.439h3.208v2.706h-3.208l-.061,3.834h1.757v2.327h-6.5Zm2.095-19.924-7.2,11.061h7.2Z" fill="#d40000"/>
      <path id="path19-4-46-0-1-9" d="M1171.248,1367.726v2.324h-2.1v3.834h10.479v2.706l-11.339,17.448-1.853-.009v-17.44h-3.208v-2.7h3.208l.061-3.834h-1.756v-2.327h6.5Zm-2.1,19.924,7.2-11.062h-7.2Z" fill="#d40000"/>
    </g>
  </g>
</svg>
