<svg xmlns="http://www.w3.org/2000/svg" xmlns:xlink="http://www.w3.org/1999/xlink" width="179.79" height="250.65" viewBox="0 0 179.79 250.65">
  <defs>
    <clipPath id="clip-_4s">
      <rect width="179.79" height="250.65"/>
    </clipPath>
  </defs>
  <g id="_4s" data-name="4s" clip-path="url(#clip-_4s)">
    <g id="_4s-2" data-name="4s" transform="translate(-1006.359 -1436.871)">
      <g id="g8473-4-9">
        <rect id="rect6852-0-4" width="177.786" height="248.651" rx="8.504" transform="translate(1007.359 1437.871)" fill="#fff" stroke="#000" stroke-width="1.001"/>
        <path id="path6882-1-0" d="M1055.024,1463.943c-7.348,10.492-15.21,16.53-15.341,24.716-.044,2.65,1.388,7.156,5.871,8.018,2.908.557,6.913-1.8,7-6.589-.012-.953,1.009-.929,1,.378a27.2,27.2,0,0,1-3.338,11.755h9.626a27.2,27.2,0,0,1-3.339-11.755c-.009-1.307,1.012-1.331,1-.378.084,4.789,4.088,7.146,7,6.589,4.483-.862,5.914-5.368,5.87-8.018-.13-8.186-7.992-14.224-15.34-24.716Z"/>
        <path id="path6884-6-5" d="M1021.071,1477.722c-3.433,4.372-7.106,6.887-7.167,10.3a3.31,3.31,0,0,0,2.743,3.341,2.848,2.848,0,0,0,3.269-2.745c-.008-.4.471-.387.466.157a10.411,10.411,0,0,1-1.559,4.9h4.5a10.41,10.41,0,0,1-1.559-4.9c-.008-.544.472-.555.466-.157a2.848,2.848,0,0,0,3.269,2.745,3.311,3.311,0,0,0,2.743-3.341c-.061-3.411-3.734-5.926-7.167-10.3Z"/>
        <path id="path6888-1-5" d="M1171.433,1646.672c-3.433-4.372-7.106-6.888-7.167-10.3a3.309,3.309,0,0,1,2.743-3.34,2.848,2.848,0,0,1,3.269,2.745c-.008.4.471.387.466-.157a10.43,10.43,0,0,0-1.559-4.9h4.5a10.421,10.421,0,0,0-1.56,4.9c-.008.544.473.554.467.157a2.848,2.848,0,0,1,3.269-2.745,3.311,3.311,0,0,1,2.743,3.34c-.062,3.411-3.735,5.927-7.168,10.3Z"/>
        <path id="path6890-4-9" d="M1137.48,1463.943c-7.347,10.492-15.21,16.53-15.34,24.716-.044,2.65,1.387,7.156,5.87,8.018,2.909.557,6.913-1.8,7-6.589-.013-.953,1.008-.929,1,.378a27.2,27.2,0,0,1-3.338,11.755h9.625a27.2,27.2,0,0,1-3.338-11.755c-.009-1.307,1.011-1.331,1-.378.083,4.789,4.088,7.146,7,6.589,4.483-.862,5.914-5.368,5.87-8.018-.13-8.186-7.993-14.224-15.341-24.716Z"/>
        <path id="path6902-7-5" d="M1055.024,1660.45c-7.348-10.492-15.21-16.53-15.341-24.715-.044-2.651,1.388-7.156,5.871-8.019,2.908-.556,6.913,1.8,7,6.589-.012.954,1.009.929,1-.377a27.2,27.2,0,0,0-3.338-11.755h9.626a27.2,27.2,0,0,0-3.339,11.755c-.009,1.306,1.012,1.331,1,.377.084-4.788,4.088-7.145,7-6.588,4.483.862,5.914,5.367,5.87,8.018-.13,8.185-7.992,14.223-15.34,24.715Z"/>
        <path id="path6904-9-7" d="M1137.48,1660.45c-7.347-10.492-15.21-16.53-15.34-24.715-.044-2.651,1.387-7.156,5.87-8.019,2.909-.556,6.913,1.8,7,6.589-.013.954,1.008.929,1-.377a27.2,27.2,0,0,0-3.338-11.755h9.625a27.2,27.2,0,0,0-3.338,11.755c-.009,1.306,1.011,1.331,1,.377.083-4.788,4.088-7.145,7-6.588,4.483.862,5.914,5.367,5.87,8.018-.13,8.185-7.993,14.223-15.341,24.715Z"/>
        <path id="path19-08-0-9" d="M1021.255,1475.218v-2.324h2.095v-3.834h-10.479v-2.705l11.339-17.449,1.852.009v17.44h3.208v2.705h-3.208l-.06,3.834h1.756v2.328h-6.5Zm2.095-19.924-7.2,11.062h7.2Z"/>
        <path id="path19-08-1-1-4" d="M1171.249,1649.175v2.324h-2.095v3.835h10.479v2.7l-11.339,17.449-1.853-.01v-17.439h-3.208v-2.706h3.208l.061-3.834h-1.756v-2.327h6.5Zm-2.095,19.925,7.2-11.062h-7.2Z"/>
      </g>
    </g>
  </g>
</svg>
