<svg xmlns="http://www.w3.org/2000/svg" xmlns:xlink="http://www.w3.org/1999/xlink" width="179.79" height="250.65" viewBox="0 0 179.79 250.65">
  <defs>
    <clipPath id="clip-_5c">
      <rect width="179.79" height="250.65"/>
    </clipPath>
  </defs>
  <g id="_5c" data-name="5c" clip-path="url(#clip-_5c)">
    <g id="_5c-2" data-name="5c" transform="translate(-1216.942 -873.973)">
      <g id="layer1-33-1-41-1-2-6">
        <rect id="rect6355-6-85-3-7-9-4" width="177.786" height="248.651" rx="8.504" transform="translate(1217.942 874.973)" fill="#fff" stroke="#000" stroke-width="1.001"/>
      </g>
      <path id="path147-0-8-1-6-13-2-8-2-5" d="M1348.06,901.376c-7.82.17-11.326,8.974-5.535,15.811.84,1,.926,1.57-.612.612-3.9-2.608-11.375-.894-11.758,7.078-.473,9.821,13.25,12.651,15.827,2.207.136-1.1,1.032-1.076.816.488a32.509,32.509,0,0,1-3.383,12.082h9.3a32.51,32.51,0,0,1-3.383-12.082c-.216-1.564.68-1.59.816-.488,2.576,10.444,16.3,7.614,15.826-2.207-.382-7.972-7.859-9.686-11.758-7.078-1.538.958-1.451.385-.611-.612,5.791-6.837,2.285-15.641-5.535-15.811h-.006Z"/>
      <path id="path147-0-8-1-6-75-2-83-7-6-4" d="M1265.6,901.376c-7.82.17-11.326,8.974-5.535,15.811.84,1,.927,1.57-.611.612-3.9-2.608-11.376-.894-11.759,7.078-.473,9.821,13.251,12.651,15.827,2.207.136-1.1,1.032-1.076.816.488a32.509,32.509,0,0,1-3.383,12.082h9.3a32.51,32.51,0,0,1-3.383-12.082c-.216-1.564.68-1.59.816-.488,2.577,10.444,16.3,7.614,15.827-2.207-.383-7.972-7.859-9.686-11.758-7.078-1.539.958-1.452.385-.612-.612,5.791-6.837,2.285-15.641-5.535-15.811h-.006Z"/>
      <path id="path147-0-8-1-6-7-5-5-7-6-8-5" d="M1348.06,1097.883c-7.82-.17-11.326-8.974-5.535-15.811.84-1,.926-1.569-.612-.611-3.9,2.607-11.375.893-11.758-7.078-.473-9.822,13.25-12.652,15.827-2.208.136,1.1,1.032,1.077.816-.487a32.5,32.5,0,0,0-3.383-12.082h9.3a32.5,32.5,0,0,0-3.383,12.082c-.216,1.564.68,1.589.816.487,2.576-10.444,16.3-7.614,15.826,2.208-.382,7.971-7.859,9.685-11.758,7.078-1.538-.958-1.451-.386-.611.611,5.791,6.837,2.285,15.641-5.535,15.811h-.006Z"/>
      <path id="path147-0-8-1-6-75-6-1-2-4-9-5" d="M1265.6,1097.883c-7.82-.17-11.326-8.974-5.535-15.811.84-1,.927-1.569-.611-.611-3.9,2.607-11.376.893-11.759-7.078-.473-9.822,13.251-12.652,15.827-2.208.136,1.1,1.032,1.077.816-.487a32.5,32.5,0,0,0-3.383-12.082h9.3a32.5,32.5,0,0,0-3.383,12.082c-.216,1.564.68,1.589.816.487,2.577-10.444,16.3-7.614,15.827,2.208-.383,7.971-7.859,9.685-11.758,7.078-1.539-.958-1.452-.386-.612.611,5.791,6.837,2.285,15.641-5.535,15.811h-.006Z"/>
      <path id="path147-0-8-1-6-1-1-0-5-6-4-0" d="M1306.831,980.491c-7.819.17-11.326,8.974-5.534,15.811.84,1,.926,1.569-.612.611-3.9-2.607-11.376-.893-11.758,7.078-.473,9.822,13.25,12.652,15.827,2.208.136-1.1,1.031-1.077.815.487a32.486,32.486,0,0,1-3.383,12.082h9.3a32.486,32.486,0,0,1-3.383-12.082c-.216-1.564.679-1.589.815-.487,2.577,10.444,16.3,7.614,15.827-2.208-.383-7.971-7.859-9.685-11.758-7.078-1.538.958-1.452.386-.612-.611,5.792-6.837,2.285-15.641-5.534-15.811h-.007Z"/>
      <path id="path147-6-9-8-7-0-5-6-7-4-6" d="M1382.017,1083.773c3.128-.071,4.53-3.739,2.214-6.588-.336-.415-.371-.654.245-.255,1.559,1.087,4.55.372,4.7-2.949.189-4.092-5.3-5.271-6.331-.92-.054.459-.412.449-.326-.2a13.972,13.972,0,0,1,1.353-5.034h-3.718a13.972,13.972,0,0,1,1.353,5.034c.086.652-.272.662-.326.2-1.031-4.351-6.52-3.172-6.331.92.153,3.321,3.143,4.036,4.7,2.949.615-.4.581-.16.245.255-2.317,2.849-.914,6.517,2.214,6.588h0Z"/>
      <path id="path147-6-9-8-7-4-5-62-2-3-8" d="M1231.653,914.823c-3.128.071-4.53,3.739-2.214,6.588.336.416.371.654-.245.255-1.559-1.086-4.55-.372-4.7,2.949-.189,4.092,5.3,5.271,6.331.92.054-.459.412-.449.326.2a13.971,13.971,0,0,1-1.353,5.034h3.718a13.974,13.974,0,0,1-1.353-5.034c-.086-.652.272-.662.326-.2,1.031,4.351,6.52,3.172,6.331-.92-.153-3.321-3.144-4.035-4.7-2.949-.615.4-.581.161-.245-.255,2.317-2.849.914-6.517-2.214-6.588h0Z"/>
      <path id="path21-39-8-1" d="M1223.369,905.511l2.576-.025c.492,1.588,1.579,3.2,3.056,3.651a6.16,6.16,0,0,0,7.739-4.12c1.072-3.325-.024-7.994-2.9-9.652-2.38-1.374-5.915-.215-7.539,2.725l-1.8-1.126.968-10.956h11.787V888.6H1227.7l-.151,4.565a7.536,7.536,0,0,1,7.271-.424c3.892,1.893,5.7,6.2,4.945,11.271-1.049,5.046-3.361,7.905-8.576,8.313-5.8.054-7.849-4.014-7.824-6.811Z"/>
      <path id="path21-3-4-1-8" d="M1390.3,1093.086l-2.577.025c-.491-1.589-1.579-3.2-3.055-3.651a6.159,6.159,0,0,0-7.739,4.12c-1.072,3.325.024,7.994,2.9,9.651,2.38,1.374,5.916.215,7.54-2.725l1.8,1.126-.969,10.957h-11.786V1110h9.551l.152-4.565a7.536,7.536,0,0,1-7.271.424c-3.893-1.893-5.7-6.2-4.945-11.271,1.048-5.046,3.36-7.905,8.575-8.313,5.8-.054,7.849,4.014,7.825,6.812Z"/>
    </g>
  </g>
</svg>
