<svg xmlns="http://www.w3.org/2000/svg" xmlns:xlink="http://www.w3.org/1999/xlink" width="179.79" height="250.65" viewBox="0 0 179.79 250.65">
  <defs>
    <clipPath id="clip-_5d">
      <rect width="179.79" height="250.65"/>
    </clipPath>
  </defs>
  <g id="_5d" data-name="5d" clip-path="url(#clip-_5d)">
    <g id="_5d-2" data-name="5d" transform="translate(-1216.942 -1718.32)">
      <rect id="rect6690-8" width="177.785" height="248.651" rx="8.504" transform="translate(1217.942 1719.32)" fill="#fff" stroke="#000" stroke-width="1.001"/>
      <path id="path6722-9" d="M1231.654,1775.12a44.933,44.933,0,0,0-5.794-7.974,44.976,44.976,0,0,0,5.794-7.975,44.98,44.98,0,0,0,5.795,7.975A44.937,44.937,0,0,0,1231.654,1775.12Z" fill="#d40000"/>
      <path id="path6724-6" d="M1348.063,1783.67c-4.131-6.83-8.476-13.468-13.907-19.139,5.431-5.67,9.776-12.308,13.907-19.138,4.13,6.83,8.476,13.468,13.906,19.138C1356.539,1770.2,1352.193,1776.84,1348.063,1783.67Z" fill="#d40000"/>
      <path id="path6726-3" d="M1382.015,1928.121a44.933,44.933,0,0,0-5.794-7.974,44.971,44.971,0,0,0,5.794-7.975,44.97,44.97,0,0,0,5.8,7.975A44.932,44.932,0,0,0,1382.015,1928.121Z" fill="#d40000"/>
      <path id="path6728-7" d="M1265.606,1783.67c-4.13-6.83-8.476-13.468-13.906-19.139,5.43-5.67,9.776-12.308,13.906-19.138,4.131,6.83,8.476,13.468,13.907,19.138C1274.082,1770.2,1269.737,1776.84,1265.606,1783.67Z" fill="#d40000"/>
      <path id="path6736-0" d="M1306.835,1862.785c-4.131-6.83-8.476-13.468-13.907-19.139,5.431-5.67,9.776-12.309,13.907-19.139,4.13,6.83,8.476,13.469,13.906,19.139C1315.311,1849.317,1310.965,1855.955,1306.835,1862.785Z" fill="#d40000"/>
      <path id="path6744-9" d="M1265.606,1941.9c-4.13-6.83-8.476-13.469-13.906-19.139,5.43-5.671,9.776-12.309,13.906-19.139,4.131,6.83,8.476,13.468,13.907,19.139C1274.082,1928.435,1269.737,1935.074,1265.606,1941.9Z" fill="#d40000"/>
      <path id="path6746-2" d="M1348.063,1941.909c-4.131-6.83-8.476-13.468-13.907-19.139,5.431-5.67,9.776-12.308,13.907-19.138,4.13,6.83,8.476,13.468,13.906,19.138C1356.539,1928.441,1352.193,1935.079,1348.063,1941.909Z" fill="#d40000"/>
      <path id="path21-9-8-2-7" d="M1223.369,1749.858l2.576-.025c.492,1.589,1.579,3.2,3.056,3.651a6.16,6.16,0,0,0,7.739-4.12c1.072-3.325-.024-7.994-2.9-9.651-2.38-1.374-5.915-.215-7.539,2.725l-1.8-1.126.968-10.957h11.787v2.59H1227.7l-.152,4.565a7.536,7.536,0,0,1,7.271-.424c3.892,1.893,5.7,6.2,4.945,11.271-1.049,5.046-3.361,7.9-8.576,8.313-5.8.054-7.848-4.014-7.824-6.812Z" fill="#d40000"/>
      <path id="path21-3-0-8-6" d="M1390.3,1937.434l-2.576.025c-.491-1.588-1.579-3.2-3.055-3.651a6.159,6.159,0,0,0-7.739,4.12c-1.072,3.325.023,7.994,2.9,9.651,2.38,1.374,5.916.215,7.54-2.724l1.8,1.125-.969,10.957h-11.786v-2.59h9.551l.151-4.564a7.541,7.541,0,0,1-7.271.424c-3.892-1.894-5.7-6.2-4.944-11.271,1.048-5.046,3.36-7.906,8.575-8.314,5.8-.054,7.849,4.014,7.824,6.812Z" fill="#d40000"/>
    </g>
  </g>
</svg>
