<svg xmlns="http://www.w3.org/2000/svg" xmlns:xlink="http://www.w3.org/1999/xlink" width="179.79" height="250.65" viewBox="0 0 179.79 250.65">
  <defs>
    <clipPath id="clip-_5h">
      <rect width="179.79" height="250.65"/>
    </clipPath>
  </defs>
  <g id="_5h" data-name="5h" clip-path="url(#clip-_5h)">
    <g id="_5h-2" data-name="5h" transform="translate(-1216.942 -1155.422)">
      <g id="g9936-1-0">
        <rect id="rect9938-9-5" width="177.786" height="248.651" rx="8.504" transform="translate(1217.942 1156.422)" fill="#fff" stroke="#000" stroke-width="1.001"/>
      </g>
      <path id="path9970-5-6" d="M1231.654,1212.221s-1.772-2.543-4.162-5.534c-1.6-2-2.877-4.168-3-6.035-.136-2.132,1.154-4.271,3.49-4.375s3.282,1.644,3.668,3.085c.386-1.441,1.334-3.189,3.668-3.085a3.864,3.864,0,0,1,3.49,4.375c-.119,1.867-1.4,4.034-3,6.035C1233.426,1209.678,1231.654,1212.221,1231.654,1212.221Z" fill="#d40000"/>
      <path id="path9972-9-9" d="M1382.016,1349.273s-1.772,2.544-4.162,5.535c-1.6,2-2.877,4.168-3,6.035a3.864,3.864,0,0,0,3.49,4.375c2.334.1,3.282-1.644,3.668-3.085.386,1.441,1.333,3.188,3.668,3.085s3.626-2.243,3.49-4.375c-.119-1.867-1.4-4.034-3-6.035C1383.788,1351.817,1382.016,1349.273,1382.016,1349.273Z" fill="#d40000"/>
      <path id="path9978-0-4" d="M1265.606,1220.771s-3.716-6.1-8.729-13.282c-3.354-4.8-6.035-10-6.285-14.484-.285-5.117,2.421-10.251,7.321-10.5s6.884,3.945,7.693,7.4c.81-3.459,2.8-7.653,7.694-7.4s7.606,5.383,7.32,10.5c-.249,4.48-2.93,9.681-6.284,14.484C1269.323,1214.667,1265.606,1220.771,1265.606,1220.771Z" fill="#d40000"/>
      <path id="path9984-9-5" d="M1348.063,1220.771s-3.716-6.1-8.73-13.282c-3.353-4.8-6.035-10-6.284-14.484-.286-5.117,2.421-10.251,7.32-10.5s6.885,3.945,7.694,7.4c.809-3.459,2.8-7.653,7.694-7.4s7.606,5.383,7.32,10.5c-.249,4.48-2.931,9.681-6.284,14.484C1351.779,1214.667,1348.063,1220.771,1348.063,1220.771Z" fill="#d40000"/>
      <path id="path9986-7-3" d="M1306.835,1299.886s-3.717-6.1-8.73-13.282c-3.354-4.8-6.035-10.005-6.284-14.484-.286-5.118,2.42-10.252,7.32-10.5s6.885,3.946,7.694,7.4c.809-3.458,2.8-7.652,7.693-7.4s7.607,5.383,7.321,10.5c-.25,4.479-2.931,9.68-6.285,14.484C1310.551,1293.781,1306.835,1299.886,1306.835,1299.886Z" fill="#d40000"/>
      <path id="path9998-0-9" d="M1348.063,1340.723s-3.716,6.1-8.73,13.283c-3.353,4.8-6.035,10-6.284,14.484-.286,5.117,2.421,10.251,7.32,10.5s6.885-3.946,7.694-7.4c.809,3.458,2.8,7.653,7.694,7.4s7.606-5.383,7.32-10.5c-.249-4.48-2.931-9.681-6.284-14.484C1351.779,1346.828,1348.063,1340.723,1348.063,1340.723Z" fill="#d40000"/>
      <path id="path10000-8-2" d="M1265.606,1340.723s-3.716,6.1-8.729,13.283c-3.354,4.8-6.035,10-6.285,14.484-.285,5.117,2.421,10.251,7.321,10.5s6.884-3.946,7.693-7.4c.81,3.458,2.8,7.653,7.694,7.4s7.606-5.383,7.32-10.5c-.249-4.48-2.93-9.681-6.284-14.484C1269.323,1346.828,1265.606,1340.723,1265.606,1340.723Z" fill="#d40000"/>
      <path id="path21-9-5-1-8" d="M1223.369,1186.959l2.576-.024c.492,1.588,1.579,3.2,3.056,3.651a6.16,6.16,0,0,0,7.739-4.12c1.072-3.325-.024-7.994-2.9-9.651-2.38-1.375-5.915-.216-7.539,2.724l-1.805-1.126.969-10.956h11.787v2.59H1227.7l-.151,4.564a7.539,7.539,0,0,1,7.271-.424c3.892,1.893,5.7,6.2,4.945,11.271-1.049,5.046-3.361,7.905-8.576,8.314-5.8.053-7.849-4.014-7.824-6.812h0Z" fill="#d40000"/>
      <path id="path21-3-0-6-3-8" d="M1390.3,1374.535l-2.577.025c-.491-1.588-1.579-3.2-3.055-3.651a6.16,6.16,0,0,0-7.739,4.12c-1.072,3.325.024,7.994,2.9,9.651,2.379,1.375,5.915.215,7.539-2.724l1.8,1.125-.968,10.957h-11.787v-2.59h9.551l.152-4.564a7.539,7.539,0,0,1-7.271.424c-3.892-1.894-5.7-6.2-4.945-11.271,1.048-5.046,3.361-7.906,8.576-8.314,5.8-.053,7.848,4.014,7.824,6.812Z" fill="#d40000"/>
    </g>
  </g>
</svg>
