<svg xmlns="http://www.w3.org/2000/svg" xmlns:xlink="http://www.w3.org/1999/xlink" width="179.79" height="250.65" viewBox="0 0 179.79 250.65">
  <defs>
    <clipPath id="clip-_5s">
      <rect width="179.79" height="250.65"/>
    </clipPath>
  </defs>
  <g id="_5s" data-name="5s" clip-path="url(#clip-_5s)">
    <g id="_5s-2" data-name="5s" transform="translate(-1216.942 -1436.871)">
      <g id="g8459-0-4">
        <rect id="rect6920-5-5" width="177.786" height="248.651" rx="8.504" transform="translate(1217.942 1437.871)" fill="#fff" stroke="#000" stroke-width="1.001"/>
        <path id="path6950-9-9" d="M1348.063,1660.45c7.348-10.492,15.21-16.53,15.341-24.715.044-2.651-1.388-7.156-5.871-8.019-2.908-.556-6.913,1.8-7,6.589.013.954-1.008.929-1-.377a27.2,27.2,0,0,1,3.338-11.755h-9.626a27.2,27.2,0,0,1,3.338,11.755c.01,1.306-1.011,1.331-1,.377-.084-4.788-4.088-7.145-7-6.589-4.483.863-5.914,5.368-5.871,8.019.131,8.185,7.993,14.223,15.341,24.715Z"/>
        <path id="path6952-6-0" d="M1382.015,1646.671c3.433-4.371,7.107-6.887,7.168-10.3a3.311,3.311,0,0,0-2.743-3.34,2.848,2.848,0,0,0-3.269,2.745c.008.4-.471.387-.467-.158a10.419,10.419,0,0,1,1.56-4.9h-4.5a10.43,10.43,0,0,1,1.559,4.9c.008.545-.472.555-.466.158a2.848,2.848,0,0,0-3.269-2.745,3.309,3.309,0,0,0-2.743,3.34c.061,3.411,3.734,5.927,7.167,10.3Z"/>
        <path id="path6956-5-0" d="M1231.654,1477.722c3.433,4.372,7.106,6.887,7.167,10.3a3.31,3.31,0,0,1-2.743,3.341,2.848,2.848,0,0,1-3.269-2.746c.008-.4-.471-.386-.466.158a10.421,10.421,0,0,0,1.559,4.9h-4.5a10.41,10.41,0,0,0,1.559-4.9c.008-.544-.472-.555-.466-.158a2.848,2.848,0,0,1-3.269,2.746,3.312,3.312,0,0,1-2.743-3.341c.061-3.411,3.734-5.926,7.167-10.3Z"/>
        <path id="path6958-4-1" d="M1265.606,1660.45c7.348-10.492,15.21-16.53,15.341-24.715.044-2.651-1.387-7.156-5.871-8.019-2.908-.556-6.913,1.8-7,6.589.012.954-1.009.929-1-.377a27.2,27.2,0,0,1,3.338-11.755h-9.626a27.186,27.186,0,0,1,3.339,11.755c.009,1.306-1.012,1.331-1,.377-.084-4.788-4.088-7.145-7-6.589-4.483.863-5.914,5.368-5.87,8.019.13,8.185,7.992,14.223,15.34,24.715Z"/>
        <path id="path6970-5-5" d="M1348.063,1463.943c7.348,10.493,15.21,16.53,15.341,24.716.044,2.65-1.388,7.156-5.871,8.018-2.908.557-6.913-1.8-7-6.589.013-.953-1.008-.929-1,.378a27.2,27.2,0,0,0,3.338,11.755h-9.626a27.2,27.2,0,0,0,3.338-11.755c.01-1.307-1.011-1.331-1-.378-.084,4.789-4.088,7.146-7,6.589-4.483-.862-5.914-5.368-5.871-8.018.131-8.186,7.993-14.224,15.341-24.716Z"/>
        <path id="path6972-5-8" d="M1265.606,1463.943c7.348,10.493,15.21,16.53,15.341,24.716.044,2.65-1.387,7.156-5.871,8.018-2.908.557-6.913-1.8-7-6.589.012-.953-1.009-.929-1,.378a27.2,27.2,0,0,0,3.338,11.755h-9.626a27.189,27.189,0,0,0,3.339-11.755c.009-1.307-1.012-1.331-1-.378-.084,4.789-4.088,7.146-7,6.589-4.483-.862-5.914-5.368-5.87-8.018.13-8.186,7.992-14.224,15.34-24.716Z"/>
        <path id="path6980-6-3" d="M1306.835,1581.335c7.348-10.492,15.21-16.53,15.34-24.715.044-2.651-1.387-7.156-5.87-8.018-2.909-.557-6.913,1.8-7,6.589.013.953-1.008.928-1-.378a27.2,27.2,0,0,1,3.338-11.755h-9.625a27.2,27.2,0,0,1,3.338,11.755c.009,1.306-1.011,1.331-1,.378-.083-4.789-4.088-7.146-7-6.589-4.484.862-5.915,5.367-5.871,8.018.131,8.186,7.993,14.223,15.341,24.715Z"/>
        <path id="path21-4-5-5" d="M1390.3,1655.985l-2.576.024c-.491-1.588-1.579-3.2-3.055-3.651a6.159,6.159,0,0,0-7.739,4.12c-1.072,3.325.023,7.994,2.895,9.652,2.38,1.374,5.916.215,7.54-2.725l1.8,1.126-.969,10.956h-11.786V1672.9h9.551l.152-4.565a7.54,7.54,0,0,1-7.272.424c-3.892-1.893-5.7-6.2-4.944-11.271,1.048-5.046,3.36-7.9,8.575-8.314,5.8-.053,7.849,4.015,7.824,6.812h0Z"/>
        <path id="path21-4-9-2-8" d="M1223.371,1468.409l2.576-.025c.491,1.588,1.579,3.2,3.055,3.651a6.161,6.161,0,0,0,7.74-4.12c1.072-3.325-.024-7.994-2.9-9.651-2.38-1.374-5.916-.215-7.54,2.724l-1.8-1.125.969-10.957h11.787v2.59h-9.552l-.151,4.564a7.541,7.541,0,0,1,7.271-.424c3.892,1.894,5.7,6.2,4.944,11.271-1.048,5.046-3.36,7.906-8.575,8.314-5.8.053-7.849-4.014-7.824-6.812Z"/>
      </g>
    </g>
  </g>
</svg>
