<svg xmlns="http://www.w3.org/2000/svg" xmlns:xlink="http://www.w3.org/1999/xlink" width="179.79" height="250.65" viewBox="0 0 179.79 250.65">
  <defs>
    <clipPath id="clip-_6c">
      <rect width="179.79" height="250.65"/>
    </clipPath>
  </defs>
  <g id="_6c" data-name="6c" clip-path="url(#clip-_6c)">
    <g id="_6c-2" data-name="6c" transform="translate(-1427.525 -873.972)">
      <rect id="rect6355-6-85-3-2-3-6" width="177.785" height="248.651" rx="8.504" transform="translate(1428.525 874.972)" fill="#fff" stroke="#000" stroke-width="0.997"/>
      <path id="path147-0-8-1-6-13-2-5-7-1" d="M1558.642,901.376c-7.819.17-11.326,8.974-5.535,15.811.84,1,.927,1.569-.611.612-3.9-2.608-11.376-.894-11.758,7.077-.473,9.822,13.25,12.652,15.827,2.208.136-1.1,1.031-1.077.815.487A32.5,32.5,0,0,1,1554,939.653h9.3a32.5,32.5,0,0,1-3.383-12.082c-.215-1.564.68-1.589.816-.487,2.577,10.444,16.3,7.614,15.827-2.208-.383-7.971-7.859-9.685-11.758-7.077-1.538.957-1.452.385-.612-.612,5.791-6.837,2.285-15.641-5.534-15.811h-.007Z"/>
      <path id="path147-0-8-1-6-75-2-83-8-8-7" d="M1476.186,901.376c-7.82.17-11.326,8.974-5.535,15.811.84,1,.927,1.569-.612.612-3.9-2.608-11.375-.894-11.758,7.077-.473,9.822,13.25,12.652,15.827,2.208.136-1.1,1.032-1.077.816.487a32.5,32.5,0,0,1-3.383,12.082h9.3a32.5,32.5,0,0,1-3.383-12.082c-.216-1.564.68-1.589.816-.487,2.576,10.444,16.3,7.614,15.827-2.208-.383-7.971-7.86-9.685-11.759-7.077-1.538.957-1.451.385-.611-.612,5.791-6.837,2.285-15.641-5.535-15.811h-.006Z"/>
      <path id="path147-0-8-1-6-7-5-5-7-8-7-8" d="M1558.642,1097.883c-7.819-.17-11.326-8.974-5.535-15.811.84-1,.927-1.569-.611-.611-3.9,2.607-11.375.893-11.758-7.078-.473-9.822,13.25-12.651,15.827-2.208.136,1.1,1.031,1.077.815-.487a32.5,32.5,0,0,0-3.383-12.082h9.3a32.5,32.5,0,0,0-3.383,12.082c-.215,1.564.68,1.589.816.487,2.577-10.443,16.3-7.614,15.827,2.208-.383,7.971-7.859,9.685-11.758,7.078-1.538-.958-1.452-.386-.612.611,5.791,6.837,2.285,15.641-5.534,15.811h-.007Z"/>
      <path id="path147-0-8-1-6-75-6-1-2-0-6-8" d="M1476.186,1097.883c-7.82-.17-11.326-8.974-5.535-15.811.84-1,.927-1.569-.612-.611-3.9,2.607-11.375.893-11.758-7.078-.473-9.822,13.25-12.651,15.827-2.208.136,1.1,1.032,1.077.816-.487a32.5,32.5,0,0,0-3.383-12.082h9.3a32.5,32.5,0,0,0-3.383,12.082c-.216,1.564.68,1.589.816.487,2.576-10.443,16.3-7.614,15.827,2.208-.383,7.971-7.86,9.685-11.759,7.078-1.538-.958-1.451-.386-.611.611,5.791,6.837,2.285,15.641-5.535,15.811h-.006Z"/>
      <path id="path147-0-8-1-6-7-5-7-3-0-9-6-4" d="M1558.642,980.491c-7.819.17-11.326,8.974-5.535,15.811.84,1,.927,1.569-.611.611-3.9-2.607-11.376-.893-11.758,7.078-.473,9.822,13.25,12.652,15.827,2.208.136-1.1,1.031-1.077.815.487a32.5,32.5,0,0,1-3.383,12.082h9.3a32.5,32.5,0,0,1-3.383-12.082c-.215-1.564.68-1.589.816-.487,2.577,10.444,16.3,7.614,15.827-2.208-.383-7.971-7.859-9.685-11.758-7.078-1.538.958-1.452.386-.612-.611,5.791-6.837,2.285-15.641-5.534-15.811h-.007Z"/>
      <path id="path147-0-8-1-6-75-6-6-5-3-0-0-2" d="M1476.186,980.491c-7.82.17-11.326,8.974-5.535,15.811.84,1,.927,1.569-.612.611-3.9-2.607-11.375-.893-11.758,7.078-.473,9.822,13.25,12.652,15.827,2.208.136-1.1,1.032-1.077.816.487a32.5,32.5,0,0,1-3.383,12.082h9.3a32.5,32.5,0,0,1-3.383-12.082c-.216-1.564.68-1.589.816-.487,2.576,10.444,16.3,7.614,15.827-2.208-.383-7.971-7.86-9.685-11.759-7.078-1.538.958-1.451.386-.611-.611,5.791-6.837,2.285-15.641-5.535-15.811h-.006Z"/>
      <path id="path147-6-9-8-7-0-5-6-4-2-8" d="M1592.6,1083.773c3.127-.071,4.53-3.739,2.213-6.588-.336-.415-.37-.654.245-.255,1.56,1.087,4.55.373,4.7-2.949.19-4.092-5.3-5.271-6.33-.919-.055.459-.413.448-.327-.2a13.979,13.979,0,0,1,1.354-5.034h-3.719a13.977,13.977,0,0,1,1.353,5.034c.087.652-.271.663-.326.2-1.03-4.352-6.52-3.173-6.331.919.154,3.322,3.144,4.036,4.7,2.949.615-.4.58-.16.244.255-2.316,2.849-.914,6.517,2.214,6.588h0Z"/>
      <path id="path147-6-9-8-7-4-5-62-0-2-9" d="M1442.236,914.823c-3.128.071-4.531,3.739-2.214,6.588.336.415.371.654-.245.255-1.559-1.087-4.55-.372-4.7,2.949-.189,4.092,5.3,5.271,6.331.92.054-.459.412-.449.326.2a13.971,13.971,0,0,1-1.353,5.034h3.718a13.971,13.971,0,0,1-1.353-5.034c-.086-.652.272-.662.326-.2,1.031,4.351,6.52,3.172,6.331-.92-.153-3.321-3.144-4.036-4.7-2.949-.616.4-.581.16-.245-.255,2.317-2.849.914-6.517-2.214-6.588h0Z"/>
      <path id="path23-8-1-4" d="M1434.518,904.227a52.81,52.81,0,0,1-.051-9.635c.816-5.189,2.795-7.563,6.11-8.338,3.221-.755,7.745.086,8.737,4.422l-2.692.052c-1.456-2.932-5.14-2.149-7.216-.873-1.656,1.016-2.4,5.259-2.084,5.52,0,0,3.132-2.322,5.6-2.151,5.276.55,7.452,5.132,7.267,9.457-.168,5.2-1.815,9.365-7.407,9.641-5.316-.205-7.752-3.107-8.264-8.1h0Zm13.111-1.375c.029-3.61-1.607-6.315-4.707-6.612s-6.22,2.728-6,6.408c.216,3.7,1.644,6.8,5.4,6.787,4.04-.016,5.292-4.013,5.311-6.583Z"/>
      <path id="path23-6-8-9-6" d="M1600.315,1094.369a52.8,52.8,0,0,1,.051,9.635c-.816,5.188-2.795,7.563-6.11,8.338-3.221.755-7.745-.086-8.737-4.422l2.692-.052c1.456,2.932,5.14,2.149,7.216.873,1.656-1.016,2.4-5.259,2.084-5.52,0,0-3.132,2.322-5.6,2.151-5.276-.55-7.452-5.132-7.267-9.457.168-5.2,1.815-9.365,7.407-9.641,5.316.2,7.752,3.107,8.264,8.1h0Zm-13.111,1.375c-.029,3.61,1.607,6.315,4.707,6.612s6.22-2.728,6-6.408-1.644-6.8-5.4-6.787c-4.04.016-5.292,4.013-5.311,6.582h0Z"/>
    </g>
  </g>
</svg>
