<svg xmlns="http://www.w3.org/2000/svg" xmlns:xlink="http://www.w3.org/1999/xlink" width="179.79" height="250.65" viewBox="0 0 179.79 250.65">
  <defs>
    <clipPath id="clip-_6d">
      <rect width="179.79" height="250.65"/>
    </clipPath>
  </defs>
  <g id="_6d" data-name="6d" clip-path="url(#clip-_6d)">
    <g id="_6d-2" data-name="6d" transform="translate(-1427.525 -1718.32)">
      <rect id="rect6758-6" width="177.785" height="248.651" rx="8.504" transform="translate(1428.525 1719.32)" fill="#fff" stroke="#000" stroke-width="1.001"/>
      <path id="path6790-5" d="M1442.237,1775.12a44.988,44.988,0,0,0-5.794-7.974,45.031,45.031,0,0,0,5.794-7.975,45.024,45.024,0,0,0,5.794,7.975A44.981,44.981,0,0,0,1442.237,1775.12Z" fill="#d40000"/>
      <path id="path6792-5" d="M1558.645,1783.67c-4.13-6.83-8.475-13.468-13.906-19.139,5.43-5.67,9.776-12.308,13.906-19.138,4.131,6.83,8.476,13.468,13.907,19.138C1567.121,1770.2,1562.776,1776.84,1558.645,1783.67Z" fill="#d40000"/>
      <path id="path6794-1" d="M1592.6,1928.121a44.982,44.982,0,0,0-5.794-7.974,45.02,45.02,0,0,0,5.794-7.975,45.02,45.02,0,0,0,5.794,7.975A44.981,44.981,0,0,0,1592.6,1928.121Z" fill="#d40000"/>
      <path id="path6796-2" d="M1476.189,1783.67c-4.13-6.83-8.476-13.468-13.906-19.139,5.43-5.67,9.776-12.308,13.906-19.138,4.131,6.83,8.476,13.468,13.907,19.138C1484.665,1770.2,1480.32,1776.84,1476.189,1783.67Z" fill="#d40000"/>
      <path id="path6806-6" d="M1476.189,1862.759c-4.13-6.83-8.476-13.468-13.906-19.139,5.43-5.67,9.776-12.308,13.906-19.138,4.131,6.83,8.476,13.468,13.907,19.138C1484.665,1849.291,1480.32,1855.929,1476.189,1862.759Z" fill="#d40000"/>
      <path id="path6808-6" d="M1558.645,1862.771c-4.13-6.83-8.475-13.468-13.906-19.138,5.43-5.671,9.776-12.309,13.906-19.139,4.131,6.83,8.476,13.468,13.907,19.139C1567.121,1849.3,1562.776,1855.941,1558.645,1862.771Z" fill="#d40000"/>
      <path id="path6812-0" d="M1476.189,1941.9c-4.13-6.83-8.476-13.469-13.906-19.139,5.43-5.671,9.776-12.309,13.906-19.139,4.131,6.83,8.476,13.468,13.907,19.139C1484.665,1928.435,1480.32,1935.074,1476.189,1941.9Z" fill="#d40000"/>
      <path id="path6814-4" d="M1558.645,1941.909c-4.13-6.83-8.475-13.468-13.906-19.139,5.43-5.67,9.776-12.308,13.906-19.138,4.131,6.83,8.476,13.468,13.907,19.138C1567.121,1928.441,1562.776,1935.079,1558.645,1941.909Z" fill="#d40000"/>
      <path id="path23-5-3-5-5" d="M1434.518,1748.574a52.8,52.8,0,0,1-.051-9.634c.816-5.189,2.795-7.563,6.111-8.338,3.22-.755,7.744.086,8.736,4.422l-2.692.053c-1.456-2.932-5.14-2.149-7.216-.873-1.656,1.016-2.4,5.259-2.084,5.52,0,0,3.132-2.323,5.6-2.151,5.276.55,7.452,5.131,7.267,9.456-.168,5.2-1.815,9.365-7.407,9.642-5.316-.206-7.752-3.108-8.264-8.1h0Zm13.111-1.374c.029-3.61-1.607-6.315-4.707-6.612s-6.22,2.728-6,6.408c.216,3.7,1.644,6.8,5.4,6.787,4.04-.016,5.292-4.013,5.311-6.583Z" fill="#d40000"/>
      <path id="path23-6-5-6-6" d="M1600.315,1938.717a52.8,52.8,0,0,1,.051,9.635c-.816,5.188-2.795,7.563-6.111,8.338-3.22.755-7.744-.086-8.736-4.423l2.692-.051c1.456,2.932,5.14,2.149,7.216.873,1.655-1.016,2.4-5.259,2.084-5.52,0,0-3.132,2.322-5.6,2.151-5.275-.55-7.451-5.132-7.266-9.457.167-5.2,1.815-9.365,7.407-9.641,5.316.205,7.752,3.107,8.264,8.1h0Zm-13.111,1.374c-.029,3.61,1.607,6.316,4.707,6.613s6.22-2.728,6-6.408c-.216-3.7-1.644-6.8-5.4-6.787-4.04.016-5.292,4.013-5.311,6.582Z" fill="#d40000"/>
    </g>
  </g>
</svg>
