<svg xmlns="http://www.w3.org/2000/svg" xmlns:xlink="http://www.w3.org/1999/xlink" width="179.79" height="250.65" viewBox="0 0 179.79 250.65">
  <defs>
    <clipPath id="clip-_6h">
      <rect width="179.79" height="250.65"/>
    </clipPath>
  </defs>
  <g id="_6h" data-name="6h" clip-path="url(#clip-_6h)">
    <g id="_6h-2" data-name="6h" transform="translate(-1427.524 -1155.422)">
      <g id="g10004-9-9">
        <rect id="rect10006-6-1" width="177.786" height="248.651" rx="8.504" transform="translate(1428.524 1156.422)" fill="#fff" stroke="#000" stroke-width="1.001"/>
      </g>
      <path id="path10038-5-0" d="M1442.237,1212.221s-1.772-2.543-4.162-5.534c-1.6-2-2.877-4.168-3-6.035-.136-2.132,1.154-4.271,3.49-4.375s3.282,1.644,3.668,3.085c.386-1.441,1.333-3.189,3.668-3.085s3.626,2.243,3.49,4.375c-.119,1.867-1.4,4.034-3,6.035C1444.009,1209.678,1442.237,1212.221,1442.237,1212.221Z" fill="#d40000"/>
      <path id="path10040-7-6" d="M1592.6,1349.273s-1.771,2.544-4.161,5.535c-1.6,2-2.878,4.168-3,6.035-.136,2.132,1.154,4.271,3.49,4.375s3.283-1.644,3.668-3.085c.386,1.441,1.334,3.188,3.669,3.085s3.626-2.243,3.49-4.375c-.119-1.867-1.4-4.034-3-6.035C1594.37,1351.817,1592.6,1349.273,1592.6,1349.273Z" fill="#d40000"/>
      <path id="path10046-1-1" d="M1476.189,1220.771s-3.716-6.1-8.73-13.282c-3.353-4.8-6.035-10-6.284-14.484-.286-5.117,2.421-10.251,7.32-10.5s6.885,3.945,7.694,7.4c.809-3.459,2.8-7.653,7.694-7.4s7.606,5.383,7.32,10.5c-.249,4.48-2.931,9.681-6.284,14.484C1479.905,1214.667,1476.189,1220.771,1476.189,1220.771Z" fill="#d40000"/>
      <path id="path10048-2-0" d="M1558.646,1299.886s-3.717-6.1-8.73-13.282c-3.354-4.8-6.035-10.005-6.284-14.484-.286-5.118,2.42-10.252,7.32-10.5s6.885,3.946,7.694,7.4c.809-3.458,2.8-7.652,7.693-7.4s7.607,5.383,7.321,10.5c-.25,4.479-2.931,9.68-6.285,14.484C1562.362,1293.781,1558.646,1299.886,1558.646,1299.886Z" fill="#d40000"/>
      <path id="path10052-3-1" d="M1558.646,1220.771s-3.717-6.1-8.73-13.282c-3.354-4.8-6.035-10-6.284-14.484-.286-5.117,2.42-10.251,7.32-10.5s6.885,3.945,7.694,7.4c.809-3.459,2.8-7.653,7.693-7.4s7.607,5.383,7.321,10.5c-.25,4.48-2.931,9.681-6.285,14.484C1562.362,1214.667,1558.646,1220.771,1558.646,1220.771Z" fill="#d40000"/>
      <path id="path10056-4-2" d="M1476.189,1299.886s-3.716-6.1-8.73-13.282c-3.353-4.8-6.035-10.005-6.284-14.484-.286-5.118,2.421-10.252,7.32-10.5s6.885,3.946,7.694,7.4c.809-3.458,2.8-7.652,7.694-7.4s7.606,5.383,7.32,10.5c-.249,4.479-2.931,9.68-6.284,14.484C1479.905,1293.781,1476.189,1299.886,1476.189,1299.886Z" fill="#d40000"/>
      <path id="path10066-9-2" d="M1558.646,1340.723s-3.717,6.1-8.73,13.283c-3.354,4.8-6.035,10-6.284,14.484-.286,5.117,2.42,10.251,7.32,10.5s6.885-3.946,7.694-7.4c.809,3.458,2.8,7.653,7.693,7.4s7.607-5.383,7.321-10.5c-.25-4.48-2.931-9.681-6.285-14.484C1562.362,1346.828,1558.646,1340.723,1558.646,1340.723Z" fill="#d40000"/>
      <path id="path10068-1-2" d="M1476.189,1340.723s-3.716,6.1-8.73,13.283c-3.353,4.8-6.035,10-6.284,14.484-.286,5.117,2.421,10.251,7.32,10.5s6.885-3.946,7.694-7.4c.809,3.458,2.8,7.653,7.694,7.4s7.606-5.383,7.32-10.5c-.249-4.48-2.931-9.681-6.284-14.484C1479.905,1346.828,1476.189,1340.723,1476.189,1340.723Z" fill="#d40000"/>
      <path id="path23-5-2-7-3" d="M1434.517,1185.676a52.882,52.882,0,0,1-.05-9.634c.816-5.189,2.795-7.563,6.11-8.338,3.221-.755,7.745.086,8.737,4.422l-2.692.052c-1.456-2.932-5.14-2.149-7.216-.873-1.656,1.016-2.4,5.259-2.084,5.52,0,0,3.131-2.323,5.6-2.151,5.276.55,7.452,5.131,7.267,9.456-.168,5.2-1.815,9.365-7.407,9.642-5.317-.206-7.752-3.108-8.264-8.1h0Zm13.112-1.374c.029-3.61-1.607-6.315-4.707-6.612s-6.22,2.728-6,6.408,1.644,6.8,5.4,6.787c4.039-.016,5.292-4.013,5.311-6.583Z" fill="#d40000"/>
      <path id="path23-6-5-1-7-1" d="M1600.316,1375.818a52.985,52.985,0,0,1,.051,9.635c-.816,5.189-2.8,7.563-6.111,8.338-3.221.755-7.745-.086-8.737-4.422l2.692-.052c1.456,2.932,5.14,2.149,7.216.873,1.656-1.016,2.4-5.259,2.084-5.52,0,0-3.132,2.322-5.6,2.151-5.276-.55-7.452-5.131-7.267-9.457.167-5.2,1.815-9.365,7.407-9.641,5.316.206,7.752,3.107,8.264,8.1h0Zm-13.112,1.375c-.029,3.61,1.608,6.315,4.707,6.612s6.221-2.728,6.005-6.408-1.645-6.8-5.4-6.787c-4.039.016-5.291,4.013-5.311,6.583Z" fill="#d40000"/>
    </g>
  </g>
</svg>
