<svg xmlns="http://www.w3.org/2000/svg" xmlns:xlink="http://www.w3.org/1999/xlink" width="179.79" height="250.65" viewBox="0 0 179.79 250.65">
  <defs>
    <clipPath id="clip-_6s">
      <rect width="179.79" height="250.65"/>
    </clipPath>
  </defs>
  <g id="_6s" data-name="6s" clip-path="url(#clip-_6s)">
    <g id="_6s-2" data-name="6s" transform="translate(-1427.525 -1436.871)">
      <rect id="rect6988-1-0" width="177.786" height="248.651" rx="8.504" transform="translate(1428.525 1437.871)" fill="#fff" stroke="#000" stroke-width="1.001"/>
      <path id="path7018-7-4" d="M1476.189,1463.943c-7.348,10.492-15.21,16.53-15.341,24.716-.044,2.65,1.388,7.156,5.871,8.018,2.908.557,6.913-1.8,7-6.589-.013-.953,1.008-.929,1,.378a27.2,27.2,0,0,1-3.338,11.755H1481a27.2,27.2,0,0,1-3.338-11.755c-.01-1.307,1.011-1.331,1-.378.084,4.789,4.088,7.146,7,6.589,4.483-.862,5.915-5.368,5.871-8.018-.131-8.186-7.993-14.224-15.341-24.716Z"/>
      <path id="path7020-0-8" d="M1442.237,1477.722c-3.433,4.372-7.107,6.887-7.168,10.3a3.312,3.312,0,0,0,2.743,3.341,2.848,2.848,0,0,0,3.269-2.745c-.008-.4.471-.387.467.157a10.423,10.423,0,0,1-1.56,4.9h4.5a10.432,10.432,0,0,1-1.559-4.9c-.008-.544.472-.555.466-.157a2.848,2.848,0,0,0,3.269,2.745,3.31,3.31,0,0,0,2.743-3.341c-.061-3.411-3.734-5.926-7.167-10.3Z"/>
      <path id="path7024-7-1" d="M1592.6,1646.672c-3.433-4.372-7.106-6.888-7.167-10.3a3.309,3.309,0,0,1,2.743-3.34,2.849,2.849,0,0,1,3.269,2.745c-.008.4.471.387.466-.157a10.421,10.421,0,0,0-1.56-4.9h4.5a10.419,10.419,0,0,0-1.56,4.9c-.008.544.473.554.467.157a2.848,2.848,0,0,1,3.268-2.745,3.309,3.309,0,0,1,2.743,3.34c-.061,3.411-3.734,5.927-7.167,10.3Z"/>
      <path id="path7026-2-6" d="M1558.646,1463.943c-7.348,10.492-15.21,16.53-15.341,24.716-.044,2.65,1.388,7.156,5.871,8.018,2.908.557,6.913-1.8,7-6.589-.012-.953,1.009-.929,1,.378a27.2,27.2,0,0,1-3.338,11.755h9.625a27.2,27.2,0,0,1-3.338-11.755c-.009-1.307,1.012-1.331,1-.378.084,4.789,4.088,7.146,7,6.589,4.483-.862,5.914-5.368,5.87-8.018C1573.856,1480.473,1565.994,1474.435,1558.646,1463.943Z"/>
      <path id="path7036-9-6" d="M1476.189,1543.058c-7.348,10.492-15.21,16.53-15.341,24.715-.044,2.651,1.388,7.156,5.871,8.019,2.908.556,6.913-1.8,7-6.589-.013-.954,1.008-.929,1,.377a27.2,27.2,0,0,1-3.338,11.755H1481a27.2,27.2,0,0,1-3.338-11.755c-.01-1.306,1.011-1.331,1-.377.084,4.788,4.088,7.145,7,6.589,4.483-.863,5.915-5.368,5.871-8.019-.131-8.185-7.993-14.223-15.341-24.715Z"/>
      <path id="path7038-9-6" d="M1476.189,1660.45c-7.348-10.492-15.21-16.53-15.341-24.715-.044-2.651,1.388-7.156,5.871-8.019,2.908-.556,6.913,1.8,7,6.589-.013.954,1.008.929,1-.377a27.2,27.2,0,0,0-3.338-11.755H1481a27.2,27.2,0,0,0-3.338,11.755c-.01,1.306,1.011,1.331,1,.377.084-4.788,4.088-7.145,7-6.588,4.483.862,5.915,5.367,5.871,8.018-.131,8.185-7.993,14.223-15.341,24.715Z"/>
      <path id="path7040-0-9" d="M1558.646,1660.45c-7.348-10.492-15.21-16.53-15.341-24.715-.044-2.651,1.388-7.156,5.871-8.019,2.908-.556,6.913,1.8,7,6.589-.012.954,1.009.929,1-.377a27.2,27.2,0,0,0-3.338-11.755h9.625a27.2,27.2,0,0,0-3.338,11.755c-.009,1.306,1.012,1.331,1,.377.084-4.788,4.088-7.145,7-6.588,4.483.862,5.914,5.367,5.87,8.018-.13,8.185-7.992,14.223-15.34,24.715Z"/>
      <path id="path7050-2-9" d="M1558.646,1543.058c-7.348,10.492-15.21,16.53-15.341,24.715-.044,2.651,1.388,7.156,5.871,8.019,2.908.556,6.913-1.8,7-6.589-.012-.954,1.009-.929,1,.377a27.2,27.2,0,0,1-3.338,11.755h9.625a27.2,27.2,0,0,1-3.338-11.755c-.009-1.306,1.012-1.331,1-.377.084,4.788,4.088,7.145,7,6.589,4.483-.863,5.914-5.368,5.87-8.019C1573.856,1559.588,1565.994,1553.55,1558.646,1543.058Z"/>
      <path id="path23-1-9-8" d="M1434.517,1467.125a52.986,52.986,0,0,1-.051-9.634c.817-5.189,2.8-7.563,6.111-8.338,3.221-.755,7.745.085,8.737,4.422l-2.692.053c-1.456-2.932-5.14-2.149-7.216-.873-1.656,1.016-2.4,5.259-2.084,5.52,0,0,3.131-2.323,5.6-2.151,5.276.55,7.452,5.131,7.267,9.456-.168,5.2-1.815,9.365-7.407,9.642-5.317-.206-7.753-3.108-8.264-8.1h0Zm13.112-1.374c.029-3.61-1.607-6.315-4.707-6.612s-6.22,2.728-6,6.407c.216,3.7,1.644,6.8,5.4,6.788,4.039-.016,5.292-4.013,5.311-6.583Z"/>
      <path id="path23-1-5-6-4" d="M1600.316,1657.268a52.882,52.882,0,0,1,.05,9.634c-.816,5.189-2.795,7.564-6.11,8.339-3.221.755-7.745-.086-8.737-4.423l2.692-.052c1.456,2.932,5.14,2.149,7.216.873,1.656-1.016,2.4-5.259,2.084-5.52,0,0-3.131,2.322-5.6,2.151-5.276-.55-7.452-5.131-7.267-9.457.168-5.2,1.815-9.364,7.407-9.641,5.316.2,7.752,3.107,8.264,8.1h0Zm-13.112,1.374c-.029,3.61,1.607,6.316,4.707,6.613s6.22-2.728,6-6.408c-.216-3.7-1.644-6.8-5.4-6.788-4.04.016-5.292,4.014-5.311,6.583Z"/>
    </g>
  </g>
</svg>
