<svg xmlns="http://www.w3.org/2000/svg" xmlns:xlink="http://www.w3.org/1999/xlink" width="179.79" height="250.65" viewBox="0 0 179.79 250.65">
  <defs>
    <clipPath id="clip-_7c">
      <rect width="179.79" height="250.65"/>
    </clipPath>
  </defs>
  <g id="_7c" data-name="7c" clip-path="url(#clip-_7c)">
    <g id="_7c-2" data-name="7c" transform="translate(-1638.107 -873.972)">
      <rect id="rect6355-6-85-3-1-8-1" width="177.785" height="248.651" rx="8.504" transform="translate(1639.107 874.972)" fill="#fff" stroke="#000" stroke-width="0.997"/>
      <path id="path147-0-8-1-6-13-2-0-1-5" d="M1769.225,901.376c-7.82.17-11.326,8.974-5.535,15.811.84,1,.927,1.569-.611.612-3.9-2.608-11.376-.894-11.759,7.077-.473,9.822,13.251,12.652,15.827,2.208.136-1.1,1.032-1.077.816.487a32.5,32.5,0,0,1-3.383,12.082h9.3a32.5,32.5,0,0,1-3.383-12.082c-.216-1.564.68-1.589.816-.487,2.576,10.444,16.3,7.614,15.827-2.208-.383-7.971-7.86-9.685-11.759-7.077-1.538.957-1.451.385-.611-.612,5.791-6.837,2.285-15.641-5.535-15.811h-.006Z"/>
      <path id="path147-0-8-1-6-75-2-83-2-0-7" d="M1686.768,901.376c-7.819.17-11.326,8.974-5.534,15.811.84,1,.926,1.569-.612.612-3.9-2.608-11.375-.894-11.758,7.077-.473,9.822,13.25,12.652,15.827,2.208.136-1.1,1.031-1.077.815.487a32.481,32.481,0,0,1-3.383,12.082h9.3a32.5,32.5,0,0,1-3.383-12.082c-.216-1.564.679-1.589.815-.487,2.577,10.444,16.3,7.614,15.827-2.208-.383-7.971-7.859-9.685-11.758-7.077-1.538.957-1.452.385-.612-.612,5.791-6.837,2.285-15.641-5.534-15.811h-.007Z"/>
      <path id="path147-0-8-1-6-7-5-5-7-7-7-6" d="M1769.225,1097.883c-7.82-.17-11.326-8.974-5.535-15.811.84-1,.927-1.569-.611-.611-3.9,2.607-11.376.893-11.759-7.078-.473-9.822,13.251-12.651,15.827-2.208.136,1.1,1.032,1.077.816-.487a32.5,32.5,0,0,0-3.383-12.082h9.3a32.5,32.5,0,0,0-3.383,12.082c-.216,1.564.68,1.589.816.487,2.576-10.443,16.3-7.614,15.827,2.208-.383,7.971-7.86,9.685-11.759,7.078-1.538-.958-1.451-.386-.611.611,5.791,6.837,2.285,15.641-5.535,15.811h-.006Z"/>
      <path id="path147-0-8-1-6-75-6-1-2-9-1-9" d="M1686.768,1097.883c-7.819-.17-11.326-8.974-5.534-15.811.84-1,.926-1.569-.612-.611-3.9,2.607-11.375.893-11.758-7.078-.473-9.822,13.25-12.651,15.827-2.208.136,1.1,1.031,1.077.815-.487a32.486,32.486,0,0,0-3.383-12.082h9.3a32.5,32.5,0,0,0-3.383,12.082c-.216,1.564.679,1.589.815.487,2.577-10.443,16.3-7.614,15.827,2.208-.383,7.971-7.859,9.685-11.758,7.078-1.538-.958-1.452-.386-.612.611,5.791,6.837,2.285,15.641-5.534,15.811h-.007Z"/>
      <path id="path147-0-8-1-6-2-00-7-2-3-4" d="M1728,940.934c-7.82.17-11.326,8.974-5.535,15.81.84,1,.927,1.57-.612.612-3.9-2.607-11.375-.893-11.758,7.078-.473,9.822,13.25,12.651,15.827,2.208.136-1.1,1.032-1.077.816.487a32.506,32.506,0,0,1-3.383,12.082h9.3a32.506,32.506,0,0,1-3.383-12.082c-.216-1.564.68-1.589.816-.487,2.576,10.443,16.3,7.613,15.827-2.208-.383-7.971-7.86-9.685-11.759-7.078-1.538.958-1.451.386-.611-.612,5.791-6.836,2.285-15.64-5.535-15.81H1728Z"/>
      <path id="path147-0-8-1-6-7-5-7-3-0-1-7-4" d="M1769.225,980.491c-7.82.17-11.326,8.974-5.535,15.811.84,1,.927,1.569-.611.611-3.9-2.607-11.376-.893-11.759,7.078-.473,9.822,13.251,12.652,15.827,2.208.136-1.1,1.032-1.077.816.487a32.5,32.5,0,0,1-3.383,12.082h9.3a32.5,32.5,0,0,1-3.383-12.082c-.216-1.564.68-1.589.816-.487,2.576,10.444,16.3,7.614,15.827-2.208-.383-7.971-7.86-9.685-11.759-7.078-1.538.958-1.451.386-.611-.611,5.791-6.837,2.285-15.641-5.535-15.811h-.006Z"/>
      <path id="path147-0-8-1-6-75-6-6-5-3-9-6-0" d="M1686.768,980.491c-7.819.17-11.326,8.974-5.534,15.811.84,1,.926,1.569-.612.611-3.9-2.607-11.375-.893-11.758,7.078-.473,9.822,13.25,12.652,15.827,2.208.136-1.1,1.031-1.077.815.487a32.486,32.486,0,0,1-3.383,12.082h9.3a32.5,32.5,0,0,1-3.383-12.082c-.216-1.564.679-1.589.815-.487,2.577,10.444,16.3,7.614,15.827-2.208-.383-7.971-7.859-9.685-11.758-7.078-1.538.958-1.452.386-.612-.611,5.791-6.837,2.285-15.641-5.534-15.811h-.007Z"/>
      <path id="path147-6-9-8-7-0-5-6-8-4-3" d="M1803.182,1083.773c3.128-.071,4.53-3.739,2.214-6.588-.336-.415-.371-.654.245-.254,1.559,1.086,4.55.372,4.7-2.95.189-4.092-5.3-5.271-6.331-.919-.054.459-.413.448-.326-.2a13.982,13.982,0,0,1,1.353-5.035h-3.718a13.982,13.982,0,0,1,1.353,5.035c.086.651-.272.662-.326.2-1.031-4.352-6.52-3.173-6.331.919.153,3.322,3.143,4.036,4.7,2.95.615-.4.581-.161.245.254-2.317,2.849-.914,6.517,2.214,6.588h0Z"/>
      <path id="path147-6-9-8-7-4-5-62-5-2-9" d="M1652.819,914.823c-3.128.071-4.531,3.739-2.214,6.588.336.415.37.654-.245.255-1.56-1.087-4.55-.372-4.7,2.949-.19,4.092,5.3,5.271,6.33.92.055-.459.413-.449.327.2a14.013,14.013,0,0,1-1.353,5.034h3.718a13.971,13.971,0,0,1-1.353-5.034c-.087-.652.272-.662.326-.2,1.031,4.351,6.52,3.172,6.331-.92-.153-3.321-3.144-4.036-4.7-2.949-.615.4-.58.16-.244-.255,2.316-2.849.914-6.517-2.214-6.588h0Z"/>
      <path id="path25-6-8-8" d="M1648.778,912.32c1.729-9.149,3.569-16.018,8.4-23.473h-9.82v3.209h-2.607v-6.049h14.363l1.772,2.84c-5.131,5.609-9.827,23.738-9,23.473h-3.112Z"/>
      <path id="path25-7-7-3-9" d="M1807.22,1086.276c-1.729,9.15-3.569,16.018-8.4,23.473h9.82v-3.209h2.607v6.049h-14.363l-1.772-2.84c5.131-5.608,9.827-23.738,9-23.473h3.112Z"/>
    </g>
  </g>
</svg>
