<svg xmlns="http://www.w3.org/2000/svg" xmlns:xlink="http://www.w3.org/1999/xlink" width="179.79" height="250.65" viewBox="0 0 179.79 250.65">
  <defs>
    <clipPath id="clip-_7d">
      <rect width="179.79" height="250.65"/>
    </clipPath>
  </defs>
  <g id="_7d" data-name="7d" clip-path="url(#clip-_7d)">
    <g id="_7d-2" data-name="7d" transform="translate(-1638.107 -1718.32)">
      <rect id="rect6826-9" width="177.785" height="248.651" rx="8.504" transform="translate(1639.107 1719.32)" fill="#fff" stroke="#000" stroke-width="1.001"/>
      <path id="path6858-4" d="M1652.82,1775.12a44.937,44.937,0,0,0-5.795-7.974,44.98,44.98,0,0,0,5.795-7.975,44.976,44.976,0,0,0,5.794,7.975A44.933,44.933,0,0,0,1652.82,1775.12Z" fill="#d40000"/>
      <path id="path6860-1" d="M1769.228,1783.67c-4.13-6.83-8.476-13.468-13.906-19.139,5.43-5.67,9.776-12.308,13.906-19.138,4.131,6.83,8.476,13.468,13.907,19.138C1777.7,1770.2,1773.359,1776.84,1769.228,1783.67Z" fill="#d40000"/>
      <path id="path6862-0" d="M1803.181,1928.121a44.982,44.982,0,0,0-5.794-7.974,45.02,45.02,0,0,0,5.794-7.975,45.02,45.02,0,0,0,5.794,7.975A44.981,44.981,0,0,0,1803.181,1928.121Z" fill="#d40000"/>
      <path id="path6864-5" d="M1686.772,1783.67c-4.131-6.83-8.476-13.468-13.906-19.139,5.43-5.67,9.776-12.308,13.906-19.138,4.13,6.83,8.476,13.468,13.906,19.138C1695.248,1770.2,1690.9,1776.84,1686.772,1783.67Z" fill="#d40000"/>
      <path id="path6870-5" d="M1728,1823.214c-4.13-6.83-8.476-13.468-13.906-19.138,5.43-5.671,9.776-12.309,13.906-19.139,4.131,6.83,8.476,13.468,13.906,19.139C1736.476,1809.746,1732.131,1816.384,1728,1823.214Z" fill="#d40000"/>
      <path id="path6874-1" d="M1686.772,1862.759c-4.131-6.83-8.476-13.468-13.906-19.139,5.43-5.67,9.776-12.308,13.906-19.138,4.13,6.83,8.476,13.468,13.906,19.138C1695.248,1849.291,1690.9,1855.929,1686.772,1862.759Z" fill="#d40000"/>
      <path id="path6876-6" d="M1769.228,1862.771c-4.13-6.83-8.476-13.468-13.906-19.138,5.43-5.671,9.776-12.309,13.906-19.139,4.131,6.83,8.476,13.468,13.907,19.139C1777.7,1849.3,1773.359,1855.941,1769.228,1862.771Z" fill="#d40000"/>
      <path id="path6880-5" d="M1686.772,1941.9c-4.131-6.83-8.476-13.469-13.906-19.139,5.43-5.671,9.776-12.309,13.906-19.139,4.13,6.83,8.476,13.468,13.906,19.139C1695.248,1928.435,1690.9,1935.074,1686.772,1941.9Z" fill="#d40000"/>
      <path id="path6882-9" d="M1769.228,1941.909c-4.13-6.83-8.476-13.468-13.906-19.139,5.43-5.67,9.776-12.308,13.906-19.138,4.131,6.83,8.476,13.468,13.907,19.138C1777.7,1928.441,1773.359,1935.079,1769.228,1941.909Z" fill="#d40000"/>
      <path id="path25-43-4-8-8" d="M1648.778,1756.668c1.729-9.149,3.569-16.018,8.4-23.473h-9.82v3.209h-2.607v-6.049h14.363l1.772,2.84c-5.131,5.609-9.827,23.738-9,23.473Z" fill="#d40000"/>
      <path id="path25-7-0-7-6" d="M1807.22,1930.624c-1.729,9.15-3.569,16.018-8.4,23.473h9.82v-3.209h2.607v6.049h-14.363l-1.771-2.84c5.131-5.609,9.827-23.738,8.995-23.473Z" fill="#d40000"/>
    </g>
  </g>
</svg>
