<svg xmlns="http://www.w3.org/2000/svg" xmlns:xlink="http://www.w3.org/1999/xlink" width="179.79" height="250.65" viewBox="0 0 179.79 250.65">
  <defs>
    <clipPath id="clip-_7h">
      <rect width="179.79" height="250.65"/>
    </clipPath>
  </defs>
  <g id="_7h" data-name="7h" clip-path="url(#clip-_7h)">
    <g id="_7h-2" data-name="7h" transform="translate(-1638.107 -1154.422)">
      <rect id="rect10074-2-8" width="177.786" height="248.651" rx="8.504" transform="translate(1639.107 1156.422)" fill="#fff" stroke="#000" stroke-width="1.001"/>
      <path id="path10106-2-3" d="M1652.82,1212.221s-1.772-2.543-4.162-5.534c-1.6-2-2.878-4.168-3-6.035-.136-2.132,1.154-4.271,3.49-4.375s3.283,1.644,3.669,3.085c.385-1.441,1.333-3.189,3.668-3.085s3.626,2.243,3.49,4.375c-.119,1.867-1.4,4.034-3,6.035C1654.591,1209.678,1652.82,1212.221,1652.82,1212.221Z" fill="#d40000"/>
      <path id="path10108-3-1" d="M1803.181,1349.273s-1.772,2.544-4.162,5.535c-1.6,2-2.877,4.168-3,6.035-.136,2.132,1.154,4.271,3.49,4.375s3.282-1.644,3.668-3.085c.386,1.441,1.334,3.188,3.668,3.085a3.864,3.864,0,0,0,3.49-4.375c-.119-1.867-1.4-4.034-3-6.035C1804.953,1351.817,1803.181,1349.273,1803.181,1349.273Z" fill="#d40000"/>
      <path id="path10110-3-5" d="M1728,1260.329s-3.716-6.1-8.73-13.283c-3.353-4.8-6.035-10-6.284-14.484-.286-5.117,2.421-10.251,7.32-10.5s6.885,3.946,7.694,7.4c.809-3.458,2.8-7.653,7.694-7.4s7.606,5.383,7.32,10.5c-.249,4.48-2.931,9.681-6.284,14.484C1731.716,1254.224,1728,1260.329,1728,1260.329Z" fill="#d40000"/>
      <path id="path10114-8-3" d="M1686.772,1220.771s-3.717-6.1-8.73-13.282c-3.354-4.8-6.035-10-6.284-14.484-.286-5.117,2.42-10.251,7.32-10.5s6.885,3.945,7.694,7.4c.809-3.459,2.8-7.653,7.693-7.4s7.607,5.383,7.321,10.5c-.25,4.48-2.931,9.681-6.285,14.484C1690.488,1214.667,1686.772,1220.771,1686.772,1220.771Z" fill="#d40000"/>
      <path id="path10116-2-5" d="M1769.228,1299.886s-3.716-6.1-8.729-13.282c-3.354-4.8-6.035-10.005-6.285-14.484-.285-5.118,2.421-10.252,7.321-10.5s6.884,3.946,7.693,7.4c.81-3.458,2.8-7.652,7.694-7.4s7.606,5.383,7.32,10.5c-.249,4.479-2.93,9.68-6.284,14.484C1772.945,1293.781,1769.228,1299.886,1769.228,1299.886Z" fill="#d40000"/>
      <path id="path10120-6-5" d="M1769.228,1220.771s-3.716-6.1-8.729-13.282c-3.354-4.8-6.035-10-6.285-14.484-.285-5.117,2.421-10.251,7.321-10.5s6.884,3.945,7.693,7.4c.81-3.459,2.8-7.653,7.694-7.4s7.606,5.383,7.32,10.5c-.249,4.48-2.93,9.681-6.284,14.484C1772.945,1214.667,1769.228,1220.771,1769.228,1220.771Z" fill="#d40000"/>
      <path id="path10124-1-1" d="M1686.772,1299.886s-3.717-6.1-8.73-13.282c-3.354-4.8-6.035-10.005-6.284-14.484-.286-5.118,2.42-10.252,7.32-10.5s6.885,3.946,7.694,7.4c.809-3.458,2.8-7.652,7.693-7.4s7.607,5.383,7.321,10.5c-.25,4.479-2.931,9.68-6.285,14.484C1690.488,1293.781,1686.772,1299.886,1686.772,1299.886Z" fill="#d40000"/>
      <path id="path10134-7-3" d="M1769.228,1340.723s-3.716,6.1-8.729,13.283c-3.354,4.8-6.035,10-6.285,14.484-.285,5.117,2.421,10.251,7.321,10.5s6.884-3.946,7.693-7.4c.81,3.458,2.8,7.653,7.694,7.4s7.606-5.383,7.32-10.5c-.249-4.48-2.93-9.681-6.284-14.484C1772.945,1346.828,1769.228,1340.723,1769.228,1340.723Z" fill="#d40000"/>
      <path id="path10136-5-7" d="M1686.772,1340.723s-3.717,6.1-8.73,13.283c-3.354,4.8-6.035,10-6.284,14.484-.286,5.117,2.42,10.251,7.32,10.5s6.885-3.946,7.694-7.4c.809,3.458,2.8,7.653,7.693,7.4s7.607-5.383,7.321-10.5c-.25-4.48-2.931-9.681-6.285-14.484C1690.488,1346.828,1686.772,1340.723,1686.772,1340.723Z" fill="#d40000"/>
      <path id="path25-43-2-3-9" d="M1648.778,1193.769c1.729-9.149,3.569-16.018,8.4-23.472h-9.82v3.209h-2.607v-6.049h14.363l1.772,2.84c-5.131,5.608-9.827,23.738-9,23.472Z" fill="#d40000"/>
      <path id="path25-7-0-2-8-2" d="M1807.22,1367.725c-1.728,9.15-3.568,16.018-8.4,23.473h9.819v-3.209h2.607v6.049h-14.363l-1.771-2.84c5.131-5.608,9.827-23.738,8.995-23.473Z" fill="#d40000"/>
    </g>
  </g>
</svg>
