<svg xmlns="http://www.w3.org/2000/svg" xmlns:xlink="http://www.w3.org/1999/xlink" width="179.79" height="250.65" viewBox="0 0 179.79 250.65">
  <defs>
    <clipPath id="clip-_7s">
      <rect width="179.79" height="250.65"/>
    </clipPath>
  </defs>
  <g id="_7s" data-name="7s" clip-path="url(#clip-_7s)">
    <g id="_7s-2" data-name="7s" transform="translate(-1638.107 -1436.871)">
      <rect id="rect7056-4-2" width="177.786" height="248.651" rx="8.504" transform="translate(1639.107 1437.871)" fill="#fff" stroke="#000" stroke-width="1.001"/>
      <path id="path7086-8-0" d="M1686.772,1463.943c-7.348,10.492-15.21,16.53-15.341,24.716-.044,2.65,1.388,7.156,5.871,8.018,2.908.557,6.913-1.8,7-6.589-.013-.953,1.008-.929,1,.378a27.2,27.2,0,0,1-3.338,11.755h9.626a27.219,27.219,0,0,1-3.339-11.755c-.009-1.307,1.012-1.331,1-.378.084,4.789,4.088,7.146,7,6.589,4.483-.862,5.914-5.368,5.87-8.018C1701.982,1480.473,1694.12,1474.435,1686.772,1463.943Z"/>
      <path id="path7088-9-3" d="M1652.82,1477.722c-3.433,4.372-7.107,6.887-7.168,10.3a3.312,3.312,0,0,0,2.743,3.341,2.848,2.848,0,0,0,3.269-2.745c-.008-.4.471-.387.466.157a10.421,10.421,0,0,1-1.559,4.9h4.5a10.423,10.423,0,0,1-1.56-4.9c-.008-.544.473-.555.467-.157a2.848,2.848,0,0,0,3.269,2.745,3.312,3.312,0,0,0,2.743-3.341c-.062-3.411-3.735-5.926-7.168-10.3Z"/>
      <path id="path7092-7-0" d="M1803.181,1646.672c-3.433-4.372-7.106-6.888-7.167-10.3a3.309,3.309,0,0,1,2.743-3.34,2.849,2.849,0,0,1,3.269,2.745c-.008.4.471.387.466-.157a10.419,10.419,0,0,0-1.56-4.9h4.5a10.418,10.418,0,0,0-1.56,4.9c-.008.544.473.554.466.157a2.849,2.849,0,0,1,3.269-2.745,3.309,3.309,0,0,1,2.743,3.34c-.061,3.411-3.734,5.927-7.167,10.3Z"/>
      <path id="path7094-3-5" d="M1769.228,1463.943c-7.347,10.492-15.21,16.53-15.34,24.716-.044,2.65,1.387,7.156,5.87,8.018,2.909.557,6.914-1.8,7-6.589-.013-.953,1.008-.929,1,.378a27.2,27.2,0,0,1-3.338,11.755h9.625a27.2,27.2,0,0,1-3.338-11.755c-.009-1.307,1.012-1.331,1-.378.083,4.789,4.088,7.146,7,6.589,4.484-.862,5.915-5.368,5.871-8.018C1784.438,1480.473,1776.576,1474.435,1769.228,1463.943Z"/>
      <path id="path7098-7-3" d="M1728,1503.5c-7.348,10.492-15.21,16.53-15.34,24.715-.044,2.651,1.387,7.156,5.87,8.018,2.909.557,6.913-1.8,7-6.589-.013-.953,1.008-.928,1,.378a27.2,27.2,0,0,1-3.338,11.755h9.626a27.2,27.2,0,0,1-3.338-11.755c-.01-1.306,1.011-1.331,1-.378.084,4.789,4.089,7.146,7,6.589,4.483-.862,5.915-5.367,5.871-8.018C1743.21,1520.031,1735.348,1513.993,1728,1503.5Z"/>
      <path id="path7105-0-7" d="M1686.772,1543.058c-7.348,10.492-15.21,16.53-15.341,24.715-.044,2.651,1.388,7.156,5.871,8.019,2.908.556,6.913-1.8,7-6.589-.013-.954,1.008-.929,1,.377a27.2,27.2,0,0,1-3.338,11.755h9.626a27.215,27.215,0,0,1-3.339-11.755c-.009-1.306,1.012-1.331,1-.377.084,4.788,4.088,7.145,7,6.589,4.483-.863,5.914-5.368,5.87-8.019C1701.982,1559.588,1694.12,1553.55,1686.772,1543.058Z"/>
      <path id="path7107-6-3" d="M1686.772,1660.45c-7.348-10.492-15.21-16.53-15.341-24.715-.044-2.651,1.388-7.156,5.871-8.019,2.908-.556,6.913,1.8,7,6.589-.013.954,1.008.929,1-.377a27.2,27.2,0,0,0-3.338-11.755h9.626a27.216,27.216,0,0,0-3.339,11.755c-.009,1.306,1.012,1.331,1,.377.084-4.788,4.088-7.145,7-6.588,4.483.862,5.914,5.367,5.87,8.018-.13,8.185-7.992,14.223-15.34,24.715Z"/>
      <path id="path7109-5-0" d="M1769.228,1660.45c-7.347-10.492-15.21-16.53-15.34-24.715-.044-2.651,1.387-7.156,5.87-8.019,2.909-.556,6.914,1.8,7,6.589-.013.954,1.008.929,1-.377a27.2,27.2,0,0,0-3.338-11.755h9.625a27.2,27.2,0,0,0-3.338,11.755c-.009,1.306,1.012,1.331,1,.377.083-4.788,4.088-7.145,7-6.588,4.484.862,5.915,5.367,5.871,8.018-.131,8.185-7.993,14.223-15.341,24.715Z"/>
      <path id="path7119-1-9" d="M1769.228,1543.058c-7.347,10.492-15.21,16.53-15.34,24.715-.044,2.651,1.387,7.156,5.87,8.019,2.909.556,6.914-1.8,7-6.589-.013-.954,1.008-.929,1,.377a27.2,27.2,0,0,1-3.338,11.755h9.625a27.2,27.2,0,0,1-3.338-11.755c-.009-1.306,1.012-1.331,1-.377.083,4.788,4.088,7.145,7,6.589,4.484-.863,5.915-5.368,5.871-8.019C1784.438,1559.588,1776.576,1553.55,1769.228,1543.058Z"/>
      <path id="path25-4-6-4" d="M1648.778,1475.219c1.729-9.15,3.569-16.018,8.4-23.473h-9.82v3.209h-2.607v-6.049h14.363l1.772,2.84c-5.131,5.609-9.827,23.738-9,23.473Z"/>
      <path id="path25-4-1-9-1" d="M1807.22,1649.175c-1.729,9.149-3.569,16.018-8.4,23.472h9.819v-3.209h2.607v6.049h-14.363l-1.771-2.84c5.131-5.608,9.827-23.737,8.995-23.472Z"/>
    </g>
  </g>
</svg>
