<svg xmlns="http://www.w3.org/2000/svg" xmlns:xlink="http://www.w3.org/1999/xlink" width="179.79" height="250.65" viewBox="0 0 179.79 250.65">
  <defs>
    <clipPath id="clip-_8c">
      <rect width="179.79" height="250.65"/>
    </clipPath>
  </defs>
  <g id="_8c" data-name="8c" clip-path="url(#clip-_8c)">
    <g id="_8c-2" data-name="8c" transform="translate(-1848.69 -873.972)">
      <rect id="rect6355-6-85-3-3-4-3" width="177.785" height="248.651" rx="8.504" transform="translate(1849.69 874.972)" fill="#fff" stroke="#000" stroke-width="0.997"/>
      <path id="path147-0-8-1-6-13-2-2-3-8" d="M1979.808,901.376c-7.82.17-11.326,8.974-5.535,15.811.84,1,.927,1.569-.612.612-3.9-2.608-11.375-.894-11.758,7.077-.473,9.822,13.25,12.652,15.827,2.208.136-1.1,1.032-1.077.816.487a32.5,32.5,0,0,1-3.383,12.082h9.3a32.5,32.5,0,0,1-3.383-12.082c-.216-1.564.68-1.589.815-.487,2.577,10.444,16.3,7.614,15.827-2.208-.382-7.971-7.859-9.685-11.758-7.077-1.538.957-1.452.385-.611-.612,5.791-6.837,2.284-15.641-5.535-15.811h-.006Z"/>
      <path id="path147-0-8-1-6-75-2-83-9-8-9" d="M1897.351,901.376c-7.819.17-11.326,8.974-5.534,15.811.839,1,.926,1.569-.612.612-3.9-2.608-11.375-.894-11.758,7.077-.473,9.822,13.25,12.652,15.827,2.208.136-1.1,1.031-1.077.815.487a32.5,32.5,0,0,1-3.383,12.082h9.3a32.5,32.5,0,0,1-3.383-12.082c-.216-1.564.68-1.589.816-.487,2.577,10.444,16.3,7.614,15.827-2.208-.383-7.971-7.859-9.685-11.758-7.077-1.539.957-1.452.385-.612-.612,5.791-6.837,2.285-15.641-5.534-15.811h-.007Z"/>
      <path id="path147-0-8-1-6-7-5-5-7-62-3-0" d="M1979.808,1097.883c-7.82-.17-11.326-8.974-5.535-15.811.84-1,.927-1.569-.612-.611-3.9,2.607-11.375.893-11.758-7.078-.473-9.822,13.25-12.651,15.827-2.208.136,1.1,1.032,1.077.816-.487a32.5,32.5,0,0,0-3.383-12.082h9.3a32.5,32.5,0,0,0-3.383,12.082c-.216,1.564.68,1.589.815.487,2.577-10.443,16.3-7.614,15.827,2.208-.382,7.971-7.859,9.685-11.758,7.078-1.538-.958-1.452-.386-.611.611,5.791,6.837,2.284,15.641-5.535,15.811h-.006Z"/>
      <path id="path147-0-8-1-6-75-6-1-2-41-4-5" d="M1897.351,1097.883c-7.819-.17-11.326-8.974-5.534-15.811.839-1,.926-1.569-.612-.611-3.9,2.607-11.375.893-11.758-7.078-.473-9.822,13.25-12.651,15.827-2.208.136,1.1,1.031,1.077.815-.487a32.507,32.507,0,0,0-3.383-12.082h9.3a32.507,32.507,0,0,0-3.383,12.082c-.216,1.564.68,1.589.816.487,2.577-10.443,16.3-7.614,15.827,2.208-.383,7.971-7.859,9.685-11.758,7.078-1.539-.958-1.452-.386-.612.611,5.791,6.837,2.285,15.641-5.534,15.811h-.007Z"/>
      <path id="path147-0-8-1-6-2-00-7-5-5-3" d="M1938.58,940.934c-7.82.17-11.326,8.974-5.535,15.81.84,1,.927,1.57-.612.612-3.9-2.607-11.375-.893-11.758,7.078-.473,9.821,13.25,12.651,15.827,2.208.136-1.1,1.032-1.077.816.487a32.506,32.506,0,0,1-3.383,12.082h9.3a32.506,32.506,0,0,1-3.383-12.082c-.216-1.564.68-1.589.815-.487,2.577,10.443,16.3,7.613,15.827-2.208-.382-7.971-7.859-9.685-11.758-7.078-1.538.958-1.451.386-.611-.612,5.791-6.836,2.284-15.64-5.535-15.81h-.006Z"/>
      <path id="path147-0-8-1-6-7-5-7-3-0-4-4-6" d="M1979.808,980.491c-7.82.17-11.326,8.974-5.535,15.811.84,1,.927,1.569-.612.611-3.9-2.607-11.375-.893-11.758,7.078-.473,9.822,13.25,12.652,15.827,2.208.136-1.1,1.031-1.077.816.487a32.5,32.5,0,0,1-3.383,12.082h9.3a32.5,32.5,0,0,1-3.383-12.082c-.216-1.564.68-1.589.815-.487,2.577,10.444,16.3,7.614,15.827-2.208-.382-7.971-7.859-9.685-11.758-7.078-1.538.958-1.452.386-.611-.611,5.791-6.837,2.284-15.641-5.535-15.811h-.006Z"/>
      <path id="path147-0-8-1-6-75-6-6-5-3-2-4-8" d="M1897.351,980.491c-7.819.17-11.326,8.974-5.534,15.811.839,1,.926,1.569-.612.611-3.9-2.607-11.375-.893-11.758,7.078-.473,9.822,13.25,12.652,15.827,2.208.136-1.1,1.031-1.077.815.487a32.506,32.506,0,0,1-3.383,12.082h9.3a32.506,32.506,0,0,1-3.383-12.082c-.216-1.564.68-1.589.816-.487,2.577,10.444,16.3,7.614,15.827-2.208-.383-7.971-7.859-9.685-11.758-7.078-1.539.958-1.452.386-.612-.611,5.791-6.837,2.285-15.641-5.534-15.811h-.007Z"/>
      <path id="path147-0-8-1-6-2-0-8-6-42-9-6" d="M1938.58,1058.326c-7.82-.17-11.326-8.974-5.535-15.811.84-1,.927-1.569-.612-.612-3.9,2.608-11.375.894-11.758-7.077-.473-9.822,13.25-12.652,15.827-2.208.136,1.1,1.032,1.077.816-.487a32.5,32.5,0,0,0-3.383-12.082h9.3a32.5,32.5,0,0,0-3.383,12.082c-.216,1.564.68,1.589.816.487,2.576-10.444,16.3-7.614,15.827,2.208-.383,7.971-7.86,9.685-11.759,7.077-1.538-.957-1.451-.385-.611.612,5.791,6.837,2.285,15.641-5.535,15.811h-.006Z"/>
      <path id="path147-6-9-8-7-0-5-6-1-6-9" d="M2013.765,1083.773c3.128-.071,4.53-3.739,2.214-6.588-.336-.415-.371-.654.244-.254,1.56,1.086,4.551.372,4.7-2.95.189-4.092-5.3-5.271-6.331-.919-.055.459-.413.448-.326-.2a13.977,13.977,0,0,1,1.353-5.034h-3.718a13.98,13.98,0,0,1,1.353,5.034c.086.652-.272.663-.326.2-1.031-4.352-6.52-3.173-6.331.919.153,3.322,3.144,4.036,4.7,2.95.616-.4.581-.161.245.254-2.317,2.849-.914,6.517,2.214,6.588h0Z"/>
      <path id="path147-6-9-8-7-4-5-62-4-0-0" d="M1863.4,914.823c-3.128.071-4.53,3.739-2.213,6.588.335.415.37.654-.245.255-1.56-1.087-4.55-.372-4.7,2.949-.189,4.092,5.3,5.271,6.331.92.055-.459.413-.449.327.2a13.973,13.973,0,0,1-1.354,5.034h3.719a13.971,13.971,0,0,1-1.353-5.034c-.087-.652.271-.662.326-.2,1.03,4.351,6.52,3.172,6.331-.92-.154-3.321-3.144-4.036-4.7-2.949-.615.4-.58.16-.244-.255,2.316-2.849.913-6.517-2.214-6.588h0Z"/>
      <path id="path27-3-3-2" d="M1854.864,904.615c.125-3.533,1.4-4.858,3.912-6.707a6.087,6.087,0,0,1-2.676-5.4c.413-4.4,3.8-6.6,7.505-6.5s6.891,3.038,7.14,6.233a5.438,5.438,0,0,1-2.577,5.58c2.336,1.974,3.828,3.271,3.772,6.751a8.175,8.175,0,0,1-8.164,7.746c-5.152.126-9.04-4.173-8.912-7.706h0Zm14.383.012c.221-3.2-2.6-5.356-5.791-5.387a5.878,5.878,0,0,0-5.88,5.491c0,3.083,3.612,4.759,5.944,4.767,2.836.013,5.536-2.117,5.727-4.871Zm-1.019-11.441a4.69,4.69,0,0,0-4.98-4.545c-2.276.07-4.684,1.808-4.688,4.059,0,2.818,2.741,4.226,5.08,4.28,2.124.048,4.539-1.759,4.588-3.794Z"/>
      <path id="path27-0-0-5-0" d="M2005.225,1093.982c.125,3.533,1.4,4.858,3.913,6.706a6.089,6.089,0,0,0-2.677,5.4c.413,4.4,3.8,6.6,7.5,6.5s6.891-3.037,7.14-6.233a5.436,5.436,0,0,0-2.577-5.579c2.336-1.975,3.828-3.272,3.773-6.751a8.178,8.178,0,0,0-8.164-7.747c-5.153-.126-9.041,4.173-8.913,7.706Zm14.384-.013c.22,3.2-2.6,5.356-5.792,5.387a5.877,5.877,0,0,1-5.879-5.49c0-3.084,3.611-4.76,5.944-4.767,2.835-.013,5.535,2.116,5.727,4.87Zm-1.02,11.442a4.69,4.69,0,0,1-4.98,4.545c-2.276-.071-4.683-1.808-4.687-4.059,0-2.819,2.74-4.227,5.08-4.281,2.123-.048,4.539,1.76,4.587,3.8Z"/>
    </g>
  </g>
</svg>
