<svg xmlns="http://www.w3.org/2000/svg" xmlns:xlink="http://www.w3.org/1999/xlink" width="179.79" height="250.65" viewBox="0 0 179.79 250.65">
  <defs>
    <clipPath id="clip-_8d">
      <rect width="179.79" height="250.65"/>
    </clipPath>
  </defs>
  <g id="_8d" data-name="8d" clip-path="url(#clip-_8d)">
    <g id="_8d-2" data-name="8d" transform="translate(-1848.69 -1718.32)">
      <rect id="rect6894-2" width="177.785" height="248.651" rx="8.504" transform="translate(1849.69 1719.32)" fill="#fff" stroke="#000" stroke-width="1.001"/>
      <path id="path6926-2" d="M1863.4,1775.12a44.937,44.937,0,0,0-5.795-7.974,44.98,44.98,0,0,0,5.795-7.975,44.976,44.976,0,0,0,5.794,7.975A44.933,44.933,0,0,0,1863.4,1775.12Z" fill="#d40000"/>
      <path id="path6928-9" d="M1979.811,1783.67c-4.131-6.83-8.476-13.468-13.906-19.139,5.43-5.67,9.776-12.308,13.906-19.138,4.13,6.83,8.476,13.468,13.906,19.138C1988.287,1770.2,1983.941,1776.84,1979.811,1783.67Z" fill="#d40000"/>
      <path id="path6930-6" d="M2013.764,1928.121a44.938,44.938,0,0,0-5.8-7.974,44.976,44.976,0,0,0,5.8-7.975,44.971,44.971,0,0,0,5.794,7.975A44.932,44.932,0,0,0,2013.764,1928.121Z" fill="#d40000"/>
      <path id="path6932-2" d="M1897.355,1783.67c-4.131-6.83-8.476-13.468-13.907-19.139,5.431-5.67,9.776-12.308,13.907-19.138,4.13,6.83,8.476,13.468,13.906,19.138C1905.831,1770.2,1901.485,1776.84,1897.355,1783.67Z" fill="#d40000"/>
      <path id="path6938-4" d="M1938.583,1823.214c-4.131-6.83-8.476-13.468-13.907-19.138,5.431-5.671,9.776-12.309,13.907-19.139,4.13,6.83,8.476,13.468,13.906,19.139C1947.059,1809.746,1942.713,1816.384,1938.583,1823.214Z" fill="#d40000"/>
      <path id="path6942-4" d="M1897.355,1862.759c-4.131-6.83-8.476-13.468-13.907-19.139,5.431-5.67,9.776-12.308,13.907-19.138,4.13,6.83,8.476,13.468,13.906,19.138C1905.831,1849.291,1901.485,1855.929,1897.355,1862.759Z" fill="#d40000"/>
      <path id="path6944-9" d="M1979.811,1862.771c-4.131-6.83-8.476-13.468-13.906-19.138,5.43-5.671,9.776-12.309,13.906-19.139,4.13,6.83,8.476,13.468,13.906,19.139C1988.287,1849.3,1983.941,1855.941,1979.811,1862.771Z" fill="#d40000"/>
      <path id="path6948-4" d="M1897.355,1941.9c-4.131-6.829-8.476-13.468-13.907-19.138,5.431-5.671,9.776-12.309,13.907-19.139,4.13,6.83,8.476,13.468,13.906,19.139C1905.831,1928.435,1901.485,1935.074,1897.355,1941.9Z" fill="#d40000"/>
      <path id="path6950-4" d="M1979.811,1941.909c-4.131-6.83-8.476-13.468-13.906-19.139,5.43-5.67,9.776-12.308,13.906-19.138,4.13,6.83,8.476,13.468,13.906,19.138C1988.287,1928.441,1983.941,1935.079,1979.811,1941.909Z" fill="#d40000"/>
      <path id="path6956-4" d="M1938.583,1902.331c-4.131-6.83-8.476-13.468-13.907-19.138,5.431-5.671,9.776-12.309,13.907-19.139,4.13,6.83,8.476,13.468,13.906,19.139C1947.059,1888.863,1942.713,1895.5,1938.583,1902.331Z" fill="#d40000"/>
      <path id="path27-00-7-8-6" d="M1854.864,1748.963c.125-3.533,1.4-4.858,3.912-6.707a6.089,6.089,0,0,1-2.676-5.4c.412-4.4,3.8-6.6,7.5-6.5s6.892,3.038,7.14,6.233a5.438,5.438,0,0,1-2.576,5.58c2.336,1.974,3.828,3.271,3.772,6.751a8.175,8.175,0,0,1-8.164,7.746c-5.152.126-9.04-4.173-8.912-7.7Zm14.383.012c.221-3.2-2.6-5.356-5.791-5.387a5.878,5.878,0,0,0-5.88,5.491c0,3.083,3.612,4.759,5.944,4.767,2.836.012,5.536-2.117,5.727-4.871Zm-1.019-11.442a4.69,4.69,0,0,0-4.98-4.544c-2.276.07-4.683,1.807-4.687,4.059,0,2.818,2.74,4.226,5.08,4.28,2.123.048,4.539-1.759,4.587-3.8Z" fill="#d40000"/>
      <path id="path27-0-1-9-8" d="M2005.225,1938.33c.125,3.532,1.4,4.858,3.913,6.706a6.089,6.089,0,0,0-2.677,5.4c.413,4.4,3.8,6.595,7.5,6.5s6.891-3.038,7.14-6.233a5.436,5.436,0,0,0-2.577-5.579c2.336-1.975,3.828-3.272,3.773-6.752a8.177,8.177,0,0,0-8.164-7.746c-5.153-.126-9.041,4.173-8.913,7.706Zm14.384-.013c.22,3.2-2.6,5.356-5.792,5.387a5.877,5.877,0,0,1-5.879-5.49c0-3.084,3.611-4.76,5.944-4.767,2.835-.013,5.535,2.116,5.727,4.87Zm-1.02,11.442a4.689,4.689,0,0,1-4.98,4.544c-2.276-.07-4.683-1.807-4.687-4.058,0-2.819,2.74-4.227,5.08-4.281,2.123-.048,4.539,1.76,4.587,3.8Z" fill="#d40000"/>
    </g>
  </g>
</svg>
