<svg xmlns="http://www.w3.org/2000/svg" xmlns:xlink="http://www.w3.org/1999/xlink" width="179.79" height="250.65" viewBox="0 0 179.79 250.65">
  <defs>
    <clipPath id="clip-_8h">
      <rect width="179.79" height="250.65"/>
    </clipPath>
  </defs>
  <g id="_8h" data-name="8h" clip-path="url(#clip-_8h)">
    <g id="_8h-2" data-name="8h" transform="translate(-1848.69 -1155.422)">
      <g id="g10140-6-7">
        <rect id="rect10142-4-2" width="177.786" height="248.651" rx="8.504" transform="translate(1849.69 1156.422)" fill="#fff" stroke="#000" stroke-width="1.001"/>
      </g>
      <path id="path10174-9-0" d="M1863.4,1212.221s-1.772-2.543-4.162-5.534c-1.6-2-2.877-4.168-3-6.035-.136-2.132,1.154-4.271,3.49-4.375s3.282,1.644,3.668,3.085c.386-1.441,1.334-3.189,3.668-3.085a3.864,3.864,0,0,1,3.49,4.375c-.119,1.867-1.4,4.034-3,6.035C1865.174,1209.678,1863.4,1212.221,1863.4,1212.221Z" fill="#d40000"/>
      <path id="path10176-9-9" d="M2013.764,1349.273s-1.772,2.544-4.162,5.535c-1.6,2-2.877,4.168-3,6.035a3.864,3.864,0,0,0,3.49,4.375c2.334.1,3.282-1.644,3.668-3.085.386,1.441,1.333,3.188,3.668,3.085s3.626-2.243,3.49-4.375c-.119-1.867-1.4-4.034-3-6.035C2015.536,1351.817,2013.765,1349.275,2013.764,1349.273Z" fill="#d40000"/>
      <path id="path10178-8-4" d="M1938.583,1260.329s-3.717-6.1-8.73-13.283c-3.354-4.8-6.035-10-6.284-14.484-.286-5.117,2.42-10.251,7.32-10.5s6.885,3.946,7.694,7.4c.809-3.458,2.8-7.653,7.693-7.4s7.607,5.383,7.321,10.5c-.25,4.48-2.931,9.681-6.285,14.484C1942.3,1254.224,1938.583,1260.329,1938.583,1260.329Z" fill="#d40000"/>
      <path id="path10182-1-9" d="M1897.354,1220.771s-3.716-6.1-8.729-13.282c-3.354-4.8-6.035-10-6.285-14.484-.285-5.117,2.421-10.251,7.321-10.5s6.884,3.945,7.693,7.4c.81-3.459,2.8-7.653,7.694-7.4s7.606,5.383,7.32,10.5c-.249,4.48-2.93,9.681-6.284,14.484C1901.071,1214.667,1897.354,1220.771,1897.354,1220.771Z" fill="#d40000"/>
      <path id="path10184-9-1" d="M1979.811,1299.886s-3.716-6.1-8.73-13.282c-3.353-4.8-6.035-10.005-6.284-14.484-.286-5.118,2.421-10.252,7.32-10.5s6.885,3.946,7.694,7.4c.809-3.458,2.8-7.652,7.694-7.4s7.606,5.383,7.32,10.5c-.249,4.479-2.931,9.68-6.284,14.484C1983.527,1293.781,1979.811,1299.886,1979.811,1299.886Z" fill="#d40000"/>
      <path id="path10188-5-4" d="M1979.811,1220.771s-3.716-6.1-8.73-13.282c-3.353-4.8-6.035-10-6.284-14.484-.286-5.117,2.421-10.251,7.32-10.5s6.885,3.945,7.694,7.4c.809-3.459,2.8-7.653,7.694-7.4s7.606,5.383,7.32,10.5c-.249,4.48-2.931,9.681-6.284,14.484C1983.527,1214.667,1979.811,1220.771,1979.811,1220.771Z" fill="#d40000"/>
      <path id="path10192-3-6" d="M1897.354,1299.886s-3.716-6.1-8.729-13.282c-3.354-4.8-6.035-10.005-6.285-14.484-.285-5.118,2.421-10.252,7.321-10.5s6.884,3.946,7.693,7.4c.81-3.458,2.8-7.652,7.694-7.4s7.606,5.383,7.32,10.5c-.249,4.479-2.93,9.68-6.284,14.484C1901.071,1293.781,1897.354,1299.886,1897.354,1299.886Z" fill="#d40000"/>
      <path id="path10196-7-3" d="M1938.583,1301.166s-3.717,6.1-8.73,13.283c-3.354,4.8-6.035,10-6.284,14.484-.286,5.117,2.42,10.251,7.32,10.5s6.885-3.946,7.694-7.4c.809,3.458,2.8,7.652,7.694,7.4s7.606-5.383,7.32-10.5c-.249-4.48-2.93-9.681-6.284-14.484-5.013-7.178-8.73-13.283-8.73-13.283Z" fill="#d40000"/>
      <path id="path10202-2-8" d="M1979.811,1340.723s-3.716,6.1-8.73,13.283c-3.353,4.8-6.035,10-6.284,14.484-.286,5.117,2.421,10.251,7.32,10.5s6.885-3.946,7.694-7.4c.809,3.458,2.8,7.653,7.694,7.4s7.606-5.383,7.32-10.5c-.249-4.48-2.931-9.681-6.284-14.484C1983.527,1346.828,1979.811,1340.723,1979.811,1340.723Z" fill="#d40000"/>
      <path id="path10204-9-4" d="M1897.354,1340.723s-3.716,6.1-8.729,13.283c-3.354,4.8-6.035,10-6.285,14.484-.285,5.117,2.421,10.251,7.321,10.5s6.884-3.946,7.693-7.4c.81,3.458,2.8,7.653,7.694,7.4s7.606-5.383,7.32-10.5c-.249-4.48-2.93-9.681-6.284-14.484C1901.071,1346.828,1897.354,1340.723,1897.354,1340.723Z" fill="#d40000"/>
      <path id="path27-00-0-7-4" d="M1854.864,1186.064c.124-3.533,1.4-4.858,3.912-6.706a6.086,6.086,0,0,1-2.676-5.4c.412-4.4,3.8-6.6,7.5-6.5s6.891,3.038,7.14,6.233a5.436,5.436,0,0,1-2.576,5.579c2.336,1.975,3.827,3.272,3.772,6.752a8.176,8.176,0,0,1-8.164,7.746c-5.152.126-9.04-4.173-8.912-7.706Zm14.383.013c.22-3.2-2.6-5.356-5.791-5.388a5.88,5.88,0,0,0-5.88,5.491c0,3.084,3.612,4.76,5.944,4.767,2.835.013,5.536-2.117,5.727-4.87Zm-1.02-11.442a4.689,4.689,0,0,0-4.979-4.545c-2.276.071-4.684,1.808-4.688,4.059,0,2.819,2.74,4.227,5.08,4.281,2.124.048,4.54-1.76,4.588-3.8h0Z" fill="#d40000"/>
      <path id="path27-0-1-0-8-9" d="M2005.225,1375.431c.125,3.533,1.4,4.858,3.913,6.706a6.09,6.09,0,0,0-2.677,5.4c.413,4.4,3.8,6.595,7.5,6.5s6.891-3.037,7.14-6.233a5.435,5.435,0,0,0-2.577-5.579c2.336-1.975,3.828-3.272,3.773-6.751a8.177,8.177,0,0,0-8.164-7.747c-5.153-.126-9.041,4.173-8.913,7.706Zm14.384-.013c.22,3.2-2.6,5.356-5.792,5.387a5.878,5.878,0,0,1-5.879-5.49c0-3.084,3.611-4.76,5.944-4.767,2.835-.013,5.535,2.116,5.727,4.87Zm-1.02,11.442a4.69,4.69,0,0,1-4.979,4.545c-2.277-.071-4.684-1.808-4.688-4.059,0-2.819,2.74-4.227,5.08-4.281,2.124-.048,4.539,1.76,4.587,3.8Z" fill="#d40000"/>
    </g>
  </g>
</svg>
