<svg xmlns="http://www.w3.org/2000/svg" width="178.786" height="249.652" viewBox="0 0 178.786 249.652">
  <g id="_8s" data-name="8s" transform="translate(-1849.19 -1437.371)">
    <rect id="rect7125-2-7" width="177.786" height="248.651" rx="8.504" transform="translate(1849.69 1437.871)" fill="#fff" stroke="#000" stroke-width="1.001"/>
    <path id="path7155-4-0" d="M1897.354,1463.943c-7.348,10.492-15.21,16.53-15.34,24.716-.044,2.65,1.387,7.156,5.87,8.018,2.909.557,6.913-1.8,7-6.589-.013-.953,1.008-.929,1,.378a27.2,27.2,0,0,1-3.338,11.755h9.625a27.2,27.2,0,0,1-3.338-11.755c-.01-1.307,1.011-1.331,1-.378.083,4.789,4.088,7.146,7,6.589,4.483-.862,5.915-5.368,5.871-8.018C1912.564,1480.473,1904.7,1474.435,1897.354,1463.943Z"/>
    <path id="path7157-2-9" d="M1863.4,1477.722c-3.433,4.372-7.106,6.887-7.167,10.3a3.31,3.31,0,0,0,2.743,3.341,2.848,2.848,0,0,0,3.268-2.745c-.008-.4.471-.387.467.157a10.423,10.423,0,0,1-1.56,4.9h4.5a10.424,10.424,0,0,1-1.56-4.9c-.008-.544.472-.555.466-.157a2.848,2.848,0,0,0,3.269,2.745,3.31,3.31,0,0,0,2.743-3.341c-.061-3.411-3.734-5.926-7.167-10.3Z"/>
    <path id="path7162-7-0" d="M2013.764,1646.672c-3.433-4.372-7.107-6.888-7.168-10.3a3.311,3.311,0,0,1,2.743-3.34,2.848,2.848,0,0,1,3.269,2.745c-.008.4.471.387.467-.157a10.419,10.419,0,0,0-1.56-4.9h4.5a10.417,10.417,0,0,0-1.559,4.9c-.008.544.472.554.466.157a2.848,2.848,0,0,1,3.269-2.745,3.311,3.311,0,0,1,2.743,3.34c-.062,3.411-3.735,5.927-7.168,10.3Z"/>
    <path id="path7164-8-3" d="M1979.811,1463.943c-7.348,10.492-15.21,16.53-15.34,24.716-.044,2.65,1.387,7.156,5.87,8.018,2.909.557,6.913-1.8,7-6.589-.013-.953,1.008-.929,1,.378a27.2,27.2,0,0,1-3.338,11.755h9.626a27.2,27.2,0,0,1-3.338-11.755c-.01-1.307,1.011-1.331,1-.378.084,4.789,4.089,7.146,7,6.589,4.483-.862,5.914-5.368,5.871-8.018C1995.021,1480.473,1987.159,1474.435,1979.811,1463.943Z"/>
    <path id="path7168-3-2" d="M1938.583,1503.5c-7.348,10.492-15.21,16.53-15.341,24.715-.044,2.651,1.388,7.156,5.871,8.018,2.908.557,6.913-1.8,7-6.589-.012-.953,1.009-.928,1,.378a27.2,27.2,0,0,1-3.338,11.755h9.625a27.2,27.2,0,0,1-3.338-11.755c-.009-1.306,1.012-1.331,1-.378.084,4.789,4.088,7.146,7,6.589,4.483-.862,5.914-5.367,5.87-8.018C1953.793,1520.031,1945.931,1513.993,1938.583,1503.5Z"/>
    <path id="path7174-5-0" d="M1897.354,1543.058c-7.348,10.492-15.21,16.53-15.34,24.715-.044,2.651,1.387,7.156,5.87,8.019,2.909.556,6.913-1.8,7-6.589-.013-.954,1.008-.929,1,.377a27.2,27.2,0,0,1-3.338,11.755h9.625a27.2,27.2,0,0,1-3.338-11.755c-.01-1.306,1.011-1.331,1-.377.083,4.788,4.088,7.145,7,6.589,4.483-.863,5.915-5.368,5.871-8.019C1912.564,1559.588,1904.7,1553.55,1897.354,1543.058Z"/>
    <path id="path7176-7-0" d="M1897.354,1660.45c-7.348-10.492-15.21-16.53-15.34-24.715-.044-2.651,1.387-7.156,5.87-8.019,2.909-.556,6.913,1.8,7,6.589-.013.954,1.008.929,1-.377a27.2,27.2,0,0,0-3.338-11.755h9.625a27.2,27.2,0,0,0-3.338,11.755c-.01,1.306,1.011,1.331,1,.377.083-4.788,4.088-7.145,7-6.588,4.483.862,5.915,5.367,5.871,8.018-.131,8.185-7.993,14.223-15.341,24.715Z"/>
    <path id="path7178-9-4" d="M1979.811,1660.45c-7.348-10.492-15.21-16.53-15.34-24.715-.044-2.651,1.387-7.156,5.87-8.019,2.909-.556,6.913,1.8,7,6.589-.013.954,1.008.929,1-.377a27.2,27.2,0,0,0-3.338-11.755h9.626a27.2,27.2,0,0,0-3.338,11.755c-.01,1.306,1.011,1.331,1,.377.084-4.788,4.089-7.145,7-6.588,4.483.862,5.914,5.367,5.871,8.018-.131,8.185-7.993,14.223-15.341,24.715Z"/>
    <path id="path7180-5-1" d="M1938.583,1620.893c-7.348-10.492-15.21-16.53-15.341-24.716-.044-2.65,1.388-7.155,5.871-8.018,2.908-.557,6.913,1.8,7,6.589-.012.953,1.009.929,1-.378a27.2,27.2,0,0,0-3.338-11.755h9.625a27.2,27.2,0,0,0-3.338,11.755c-.009,1.307,1.012,1.331,1,.378.084-4.789,4.088-7.146,7-6.589,4.483.863,5.914,5.368,5.87,8.018C1953.793,1604.363,1945.931,1610.4,1938.583,1620.893Z"/>
    <path id="path7189-7-7" d="M1979.811,1543.058c-7.348,10.492-15.21,16.53-15.34,24.715-.044,2.651,1.387,7.156,5.87,8.019,2.909.556,6.913-1.8,7-6.589-.013-.954,1.008-.929,1,.377a27.2,27.2,0,0,1-3.338,11.755h9.626a27.2,27.2,0,0,1-3.338-11.755c-.01-1.306,1.011-1.331,1-.377.084,4.788,4.089,7.145,7,6.589,4.483-.863,5.914-5.368,5.871-8.019C1995.021,1559.588,1987.159,1553.55,1979.811,1543.058Z"/>
    <path id="path27-43-30-7" d="M1854.864,1467.513c.124-3.532,1.4-4.858,3.912-6.706a6.09,6.09,0,0,1-2.677-5.4c.413-4.4,3.8-6.6,7.505-6.5s6.891,3.038,7.14,6.233a5.435,5.435,0,0,1-2.576,5.579c2.335,1.975,3.827,3.272,3.772,6.752a8.175,8.175,0,0,1-8.164,7.746c-5.152.126-9.04-4.173-8.912-7.706Zm14.383.013c.22-3.2-2.6-5.356-5.791-5.387a5.878,5.878,0,0,0-5.88,5.49c0,3.084,3.612,4.76,5.944,4.768,2.835.012,5.536-2.117,5.727-4.871Zm-1.02-11.442a4.688,4.688,0,0,0-4.979-4.544c-2.276.07-4.684,1.807-4.688,4.059,0,2.818,2.74,4.226,5.08,4.28,2.124.048,4.539-1.76,4.587-3.8Z"/>
    <path id="path27-43-3-4-8" d="M2005.225,1656.88c.125,3.533,1.4,4.858,3.913,6.706a6.09,6.09,0,0,0-2.677,5.4c.413,4.4,3.8,6.6,7.5,6.5s6.891-3.038,7.14-6.234a5.436,5.436,0,0,0-2.577-5.579c2.336-1.975,3.828-3.272,3.773-6.751a8.175,8.175,0,0,0-8.164-7.746c-5.153-.127-9.041,4.172-8.913,7.7Zm14.384-.013c.22,3.2-2.6,5.356-5.792,5.388a5.878,5.878,0,0,1-5.879-5.491c0-3.084,3.611-4.76,5.944-4.767,2.835-.013,5.535,2.117,5.727,4.87Zm-1.02,11.442a4.691,4.691,0,0,1-4.98,4.545c-2.276-.07-4.683-1.808-4.687-4.059,0-2.819,2.74-4.226,5.08-4.28,2.124-.048,4.539,1.759,4.587,3.794Z"/>
  </g>
</svg>
