<svg xmlns="http://www.w3.org/2000/svg" xmlns:xlink="http://www.w3.org/1999/xlink" width="179.79" height="250.65" viewBox="0 0 179.79 250.65">
  <defs>
    <clipPath id="clip-_9c">
      <rect width="179.79" height="250.65"/>
    </clipPath>
  </defs>
  <g id="_9c" data-name="9c" clip-path="url(#clip-_9c)">
    <g id="_9c-2" data-name="9c" transform="translate(-2059.273 -873.972)">
      <rect id="rect6355-6-85-3-78-4-6" width="177.785" height="248.651" rx="8.504" transform="translate(2060.273 874.972)" fill="#fff" stroke="#000" stroke-width="0.997"/>
      <path id="path147-0-8-1-6-13-2-9-8-8" d="M2190.39,901.376c-7.819.17-11.326,8.974-5.534,15.811.839,1,.926,1.569-.612.612-3.9-2.608-11.375-.894-11.758,7.077-.473,9.822,13.25,12.652,15.827,2.208.136-1.1,1.031-1.077.815.487a32.478,32.478,0,0,1-3.383,12.082h9.3a32.5,32.5,0,0,1-3.382-12.082c-.216-1.564.679-1.589.815-.487,2.577,10.444,16.3,7.614,15.827-2.208-.383-7.971-7.859-9.685-11.758-7.077-1.538.957-1.452.385-.612-.612,5.791-6.837,2.285-15.641-5.534-15.811h-.007Z"/>
      <path id="path147-0-8-1-6-75-2-83-3-5-0" d="M2107.934,901.376c-7.82.17-11.326,8.974-5.535,15.811.84,1,.927,1.569-.611.612-3.9-2.608-11.376-.894-11.759,7.077-.473,9.822,13.251,12.652,15.827,2.208.136-1.1,1.032-1.077.816.487a32.5,32.5,0,0,1-3.383,12.082h9.3a32.5,32.5,0,0,1-3.383-12.082c-.216-1.564.68-1.589.816-.487,2.577,10.444,16.3,7.614,15.827-2.208-.383-7.971-7.859-9.685-11.759-7.077-1.538.957-1.451.385-.611-.612,5.791-6.837,2.285-15.641-5.535-15.811h-.006Z"/>
      <path id="path147-0-8-1-6-7-5-5-7-63-0-4" d="M2190.39,1097.883c-7.819-.17-11.326-8.974-5.534-15.811.839-1,.926-1.569-.612-.611-3.9,2.607-11.375.893-11.758-7.078-.473-9.822,13.25-12.651,15.827-2.208.136,1.1,1.031,1.077.815-.487a32.484,32.484,0,0,0-3.383-12.082h9.3a32.506,32.506,0,0,0-3.382,12.082c-.216,1.564.679,1.589.815.487,2.577-10.443,16.3-7.614,15.827,2.208-.383,7.971-7.859,9.685-11.758,7.078-1.538-.958-1.452-.386-.612.611,5.791,6.837,2.285,15.641-5.534,15.811h-.007Z"/>
      <path id="path147-0-8-1-6-75-6-1-2-46-5-0" d="M2107.934,1097.883c-7.82-.17-11.326-8.974-5.535-15.811.84-1,.927-1.569-.611-.611-3.9,2.607-11.376.893-11.759-7.078-.473-9.822,13.251-12.651,15.827-2.208.136,1.1,1.032,1.077.816-.487a32.507,32.507,0,0,0-3.383-12.082h9.3a32.507,32.507,0,0,0-3.383,12.082c-.216,1.564.68,1.589.816.487,2.577-10.443,16.3-7.614,15.827,2.208-.383,7.971-7.859,9.685-11.759,7.078-1.538-.958-1.451-.386-.611.611,5.791,6.837,2.285,15.641-5.535,15.811h-.006Z"/>
      <path id="path147-0-8-1-6-1-1-0-5-61-2-0" d="M2149.162,980.491c-7.819.17-11.326,8.974-5.535,15.811.84,1,.927,1.569-.611.611-3.9-2.607-11.376-.893-11.758,7.078-.473,9.822,13.25,12.652,15.826,2.208.137-1.1,1.032-1.077.816.487a32.483,32.483,0,0,1-3.383,12.082h9.3a32.487,32.487,0,0,1-3.382-12.082c-.216-1.564.679-1.589.815-.487,2.577,10.444,16.3,7.614,15.827-2.208-.383-7.971-7.859-9.685-11.758-7.078-1.538.958-1.452.386-.612-.611,5.791-6.837,2.285-15.641-5.534-15.811h-.007Z"/>
      <path id="path147-6-9-8-7-0-5-6-5-2-8" d="M2224.348,1083.773c3.127-.071,4.53-3.739,2.213-6.588-.336-.415-.37-.654.245-.255,1.56,1.087,4.55.373,4.7-2.949.189-4.092-5.3-5.271-6.33-.919-.055.459-.413.448-.327-.2a14,14,0,0,1,1.353-5.034h-3.718a13.977,13.977,0,0,1,1.353,5.034c.087.652-.272.663-.326.2-1.031-4.352-6.52-3.173-6.331.919.153,3.322,3.144,4.036,4.7,2.949.615-.4.58-.16.244.255-2.316,2.849-.914,6.517,2.214,6.588h0Z"/>
      <path id="path147-0-8-1-6-75-2-9-77-4-4-2" d="M2107.934,954.119c-7.82.17-11.326,8.974-5.535,15.811.84,1,.927,1.57-.611.612-3.9-2.608-11.376-.894-11.758,7.078-.474,9.821,13.25,12.651,15.826,2.207.137-1.1,1.032-1.076.816.488a32.506,32.506,0,0,1-3.383,12.082h9.3a32.506,32.506,0,0,1-3.383-12.082c-.216-1.564.68-1.59.816-.488,2.577,10.444,16.3,7.614,15.827-2.207-.383-7.972-7.859-9.686-11.758-7.078-1.539.958-1.452.385-.612-.612,5.791-6.837,2.285-15.641-5.535-15.811h-.006Z"/>
      <path id="path147-0-8-1-6-75-2-8-0-6-4-4" d="M2107.934,1045.14c-7.82-.17-11.326-8.974-5.535-15.811.84-1,.927-1.569-.611-.611-3.9,2.607-11.376.893-11.759-7.078-.473-9.822,13.251-12.652,15.827-2.208.136,1.1,1.032,1.077.816-.487a32.507,32.507,0,0,0-3.383-12.082h9.3a32.507,32.507,0,0,0-3.383,12.082c-.216,1.564.68,1.589.816.487,2.577-10.444,16.3-7.614,15.827,2.208-.383,7.971-7.859,9.685-11.759,7.078-1.538-.958-1.451-.386-.611.611,5.791,6.837,2.285,15.641-5.535,15.811h-.006Z"/>
      <path id="path147-0-8-1-6-75-2-9-7-1-36-2-4" d="M2190.39,954.119c-7.819.17-11.326,8.974-5.534,15.811.839,1,.926,1.57-.612.612-3.9-2.608-11.375-.894-11.758,7.078-.473,9.821,13.25,12.651,15.827,2.207.136-1.1,1.031-1.076.815.488a32.483,32.483,0,0,1-3.383,12.082h9.3a32.5,32.5,0,0,1-3.382-12.082c-.216-1.564.679-1.59.815-.488,2.577,10.444,16.3,7.614,15.827-2.207-.383-7.972-7.859-9.686-11.758-7.078-1.538.958-1.452.385-.612-.612,5.791-6.837,2.285-15.641-5.534-15.811h-.007Z"/>
      <path id="path147-0-8-1-6-75-2-8-5-1-55-5-4" d="M2190.39,1045.14c-7.819-.17-11.326-8.974-5.534-15.811.839-1,.926-1.569-.612-.611-3.9,2.607-11.375.893-11.758-7.078-.473-9.822,13.25-12.652,15.827-2.208.136,1.1,1.031,1.077.815-.487a32.484,32.484,0,0,0-3.383-12.082h9.3a32.506,32.506,0,0,0-3.382,12.082c-.216,1.564.679,1.589.815.487,2.577-10.444,16.3-7.614,15.827,2.208-.383,7.971-7.859,9.685-11.758,7.078-1.538-.958-1.452-.386-.612.611,5.791,6.837,2.285,15.641-5.534,15.811h-.007Z"/>
      <path id="path147-6-9-8-7-4-5-62-7-8-4" d="M2073.984,914.823c-3.128.071-4.53,3.739-2.214,6.588.336.415.371.654-.245.255-1.559-1.087-4.55-.372-4.7,2.949-.189,4.092,5.3,5.271,6.331.92.055-.459.413-.449.326.2a13.971,13.971,0,0,1-1.353,5.034h3.718a13.991,13.991,0,0,1-1.353-5.034c-.086-.652.272-.662.326-.2,1.031,4.351,6.52,3.172,6.331-.92-.153-3.321-3.143-4.036-4.7-2.949-.615.4-.581.16-.245-.255,2.317-2.849.914-6.517-2.213-6.588h0Z"/>
      <path id="path29-2-3-4" d="M2066.642,907.25l2.405-.763a4.261,4.261,0,0,0,4.679,2.989c3.48-.278,4.636-4.172,4.9-7.615a6.907,6.907,0,0,1-5.128,2.1c-5.548-.3-6.968-4.744-7.019-9.4-.152-3.924,1.468-6.766,4.247-8.071a9.508,9.508,0,0,1,6.324.122c3.4,1.8,4.66,4.9,4.431,12.3,0,6.094-1.292,13.191-7.816,13.346a6.324,6.324,0,0,1-7.019-5.012Zm9.444-6.678a5.693,5.693,0,0,0,2.277-2.4,4.522,4.522,0,0,0,.44-2.973c-.308-4.418-2.62-6.926-5.976-6.429-1.872.282-2.9,1.33-3.484,3.28-1.084,3.6.292,7.823,2.869,8.794a5.011,5.011,0,0,0,3.874-.274Z"/>
      <path id="path29-6-1-3-7" d="M2231.687,1091.346l-2.4.764a4.263,4.263,0,0,0-4.68-2.99c-3.479.278-4.635,4.173-4.9,7.615a6.9,6.9,0,0,1,5.128-2.1c5.547.3,6.968,4.743,7.019,9.4.151,3.924-1.468,6.766-4.247,8.072a9.508,9.508,0,0,1-6.324-.122c-3.4-1.8-4.66-4.9-4.432-12.306,0-6.094,1.292-13.191,7.816-13.346a6.325,6.325,0,0,1,7.019,5.012Zm-9.444,6.678a5.7,5.7,0,0,0-2.276,2.4,4.517,4.517,0,0,0-.44,2.973c.308,4.418,2.62,6.926,5.975,6.429,1.872-.282,2.9-1.33,3.484-3.28,1.084-3.6-.292-7.823-2.868-8.794a5.018,5.018,0,0,0-3.875.274Z"/>
    </g>
  </g>
</svg>
