<svg xmlns="http://www.w3.org/2000/svg" xmlns:xlink="http://www.w3.org/1999/xlink" width="179.79" height="250.65" viewBox="0 0 179.79 250.65">
  <defs>
    <clipPath id="clip-_9d">
      <rect width="179.79" height="250.65"/>
    </clipPath>
  </defs>
  <g id="_9d" data-name="9d" clip-path="url(#clip-_9d)">
    <g id="_9d-2" data-name="9d" transform="translate(-2059.273 -1718.32)">
      <rect id="rect6962-4" width="177.785" height="248.651" rx="8.504" transform="translate(2060.273 1719.32)" fill="#fff" stroke="#000" stroke-width="1.001"/>
      <path id="path6994-9" d="M2073.985,1775.12a45,45,0,0,0-5.794-7.974,45.038,45.038,0,0,0,5.794-7.975,45.024,45.024,0,0,0,5.794,7.975A44.981,44.981,0,0,0,2073.985,1775.12Z" fill="#d40000"/>
      <path id="path6996-5" d="M2190.394,1783.67c-4.131-6.83-8.476-13.468-13.907-19.139,5.431-5.67,9.776-12.308,13.907-19.138,4.13,6.83,8.475,13.468,13.906,19.138C2198.869,1770.2,2194.524,1776.84,2190.394,1783.67Z" fill="#d40000"/>
      <path id="path6998-7" d="M2224.346,1928.121a44.932,44.932,0,0,0-5.794-7.974,44.971,44.971,0,0,0,5.794-7.975,44.965,44.965,0,0,0,5.8,7.975A44.926,44.926,0,0,0,2224.346,1928.121Z" fill="#d40000"/>
      <path id="path7000-7" d="M2107.937,1783.67c-4.13-6.83-8.476-13.468-13.906-19.139,5.43-5.67,9.776-12.308,13.906-19.138,4.131,6.83,8.476,13.468,13.907,19.138C2116.413,1770.2,2112.068,1776.84,2107.937,1783.67Z" fill="#d40000"/>
      <path id="path7002-0" d="M2190.394,1836.419c-4.131-6.83-8.476-13.468-13.907-19.139,5.431-5.67,9.776-12.309,13.907-19.139,4.13,6.83,8.475,13.469,13.906,19.139C2198.869,1822.951,2194.524,1829.589,2190.394,1836.419Z" fill="#d40000"/>
      <path id="path7004-0" d="M2107.937,1836.419c-4.13-6.83-8.476-13.468-13.906-19.139,5.43-5.67,9.776-12.309,13.906-19.139,4.131,6.83,8.476,13.469,13.907,19.139C2116.413,1822.951,2112.068,1829.589,2107.937,1836.419Z" fill="#d40000"/>
      <path id="path7008-2" d="M2149.165,1862.785c-4.13-6.83-8.476-13.468-13.906-19.139,5.431-5.67,9.776-12.309,13.906-19.139,4.131,6.83,8.476,13.469,13.907,19.139C2157.641,1849.317,2153.3,1855.955,2149.165,1862.785Z" fill="#d40000"/>
      <path id="path7016-2" d="M2107.937,1941.9c-4.13-6.83-8.476-13.469-13.906-19.139,5.43-5.671,9.776-12.309,13.906-19.139,4.131,6.83,8.476,13.468,13.907,19.139C2116.413,1928.435,2112.068,1935.074,2107.937,1941.9Z" fill="#d40000"/>
      <path id="path7018-0" d="M2190.394,1941.909c-4.131-6.83-8.476-13.468-13.907-19.139,5.431-5.67,9.776-12.308,13.907-19.138,4.13,6.83,8.475,13.468,13.906,19.138C2198.869,1928.441,2194.524,1935.079,2190.394,1941.909Z" fill="#d40000"/>
      <path id="path7020-7" d="M2190.394,1889.155c-4.131-6.83-8.476-13.468-13.907-19.138,5.431-5.671,9.776-12.309,13.907-19.139,4.13,6.83,8.475,13.468,13.906,19.139C2198.869,1875.687,2194.524,1882.325,2190.394,1889.155Z" fill="#d40000"/>
      <path id="path7022-4" d="M2107.937,1889.13c-4.13-6.83-8.476-13.469-13.906-19.139,5.43-5.671,9.776-12.309,13.906-19.139,4.131,6.83,8.476,13.468,13.907,19.139C2116.413,1875.661,2112.068,1882.3,2107.937,1889.13Z" fill="#d40000"/>
      <path id="path29-5-3-7-8" d="M2066.642,1751.6l2.4-.763a4.263,4.263,0,0,0,4.68,2.989c3.479-.278,4.635-4.173,4.9-7.615a6.9,6.9,0,0,1-5.128,2.1c-5.547-.3-6.967-4.744-7.019-9.4-.151-3.924,1.469-6.766,4.248-8.071a9.509,9.509,0,0,1,6.324.122c3.4,1.8,4.66,4.9,4.431,12.305,0,6.094-1.292,13.191-7.816,13.346a6.324,6.324,0,0,1-7.019-5.012Zm9.444-6.678a5.689,5.689,0,0,0,2.276-2.4,4.514,4.514,0,0,0,.441-2.973c-.308-4.418-2.621-6.926-5.976-6.429-1.872.282-2.9,1.33-3.483,3.28-1.085,3.6.291,7.823,2.868,8.794a5.011,5.011,0,0,0,3.874-.274Z" fill="#d40000"/>
      <path id="path29-6-2-9-2" d="M2231.687,1935.694l-2.4.764a4.262,4.262,0,0,0-4.68-2.99c-3.479.278-4.635,4.173-4.9,7.615a6.9,6.9,0,0,1,5.128-2.1c5.547.3,6.968,4.743,7.019,9.4.151,3.924-1.469,6.766-4.247,8.072a9.5,9.5,0,0,1-6.324-.123c-3.4-1.8-4.66-4.9-4.432-12.305,0-6.094,1.292-13.191,7.816-13.346a6.324,6.324,0,0,1,7.019,5.012Zm-9.444,6.678a5.7,5.7,0,0,0-2.276,2.4,4.523,4.523,0,0,0-.441,2.973c.309,4.418,2.621,6.926,5.976,6.429,1.872-.282,2.9-1.33,3.484-3.28,1.084-3.6-.292-7.823-2.869-8.794a5.016,5.016,0,0,0-3.874.274Z" fill="#d40000"/>
    </g>
  </g>
</svg>
