<svg xmlns="http://www.w3.org/2000/svg" xmlns:xlink="http://www.w3.org/1999/xlink" width="179.79" height="250.65" viewBox="0 0 179.79 250.65">
  <defs>
    <clipPath id="clip-_9h">
      <rect width="179.79" height="250.65"/>
    </clipPath>
  </defs>
  <g id="_9h" data-name="9h" clip-path="url(#clip-_9h)">
    <g id="_9h-2" data-name="9h" transform="translate(-2059.273 -1155.422)">
      <g id="g10208-4-1">
        <rect id="rect10210-5-4" width="177.786" height="248.651" rx="8.504" transform="translate(2060.273 1156.422)" fill="#fff" stroke="#000" stroke-width="1.001"/>
      </g>
      <path id="path10240-7-9" d="M2107.937,1273.514s-3.716-6.1-8.73-13.282c-3.353-4.8-6.035-10-6.284-14.484-.286-5.117,2.421-10.251,7.32-10.5s6.885,3.946,7.694,7.4c.809-3.458,2.8-7.653,7.694-7.4s7.606,5.383,7.32,10.5c-.249,4.48-2.931,9.681-6.284,14.484C2111.654,1267.41,2107.937,1273.514,2107.937,1273.514Z" fill="#d40000"/>
      <path id="path10242-3-8" d="M2073.985,1212.221s-1.772-2.543-4.162-5.534c-1.6-2-2.877-4.168-3-6.035-.136-2.132,1.154-4.271,3.49-4.375s3.282,1.644,3.668,3.085c.386-1.441,1.333-3.189,3.668-3.085s3.626,2.243,3.49,4.375c-.119,1.867-1.4,4.034-3,6.035C2075.757,1209.678,2073.986,1212.219,2073.985,1212.221Z" fill="#d40000"/>
      <path id="path10244-4-5" d="M2224.347,1349.273s-1.772,2.544-4.162,5.535c-1.6,2-2.878,4.168-3,6.035-.136,2.132,1.154,4.271,3.49,4.375s3.283-1.644,3.669-3.085c.385,1.441,1.333,3.188,3.668,3.085s3.626-2.243,3.49-4.375c-.119-1.867-1.4-4.034-3-6.035C2226.118,1351.817,2224.347,1349.273,2224.347,1349.273Z" fill="#d40000"/>
      <path id="path10250-9-0" d="M2107.937,1220.771s-3.716-6.1-8.73-13.282c-3.353-4.8-6.035-10-6.284-14.484-.286-5.117,2.421-10.251,7.32-10.5s6.885,3.945,7.694,7.4c.809-3.459,2.8-7.653,7.694-7.4s7.606,5.383,7.32,10.5c-.249,4.48-2.931,9.681-6.284,14.484C2111.654,1214.667,2107.937,1220.771,2107.937,1220.771Z" fill="#d40000"/>
      <path id="path10254-7-3" d="M2190.394,1273.514s-3.717-6.1-8.73-13.282c-3.354-4.8-6.035-10-6.284-14.484-.286-5.117,2.42-10.251,7.32-10.5s6.885,3.946,7.694,7.4c.809-3.458,2.8-7.653,7.693-7.4s7.607,5.383,7.321,10.5c-.25,4.48-2.931,9.681-6.285,14.484C2194.11,1267.41,2190.394,1273.514,2190.394,1273.514Z" fill="#d40000"/>
      <path id="path10256-4-7" d="M2190.394,1220.771s-3.717-6.1-8.73-13.282c-3.354-4.8-6.035-10-6.284-14.484-.286-5.117,2.42-10.251,7.32-10.5s6.885,3.945,7.694,7.4c.809-3.459,2.8-7.653,7.693-7.4s7.607,5.383,7.321,10.5c-.25,4.48-2.931,9.681-6.285,14.484C2194.11,1214.667,2190.394,1220.771,2190.394,1220.771Z" fill="#d40000"/>
      <path id="path10258-5-9" d="M2149.165,1299.886s-3.716-6.1-8.729-13.282c-3.354-4.8-6.035-10.005-6.285-14.484-.285-5.118,2.421-10.252,7.321-10.5s6.884,3.946,7.693,7.4c.81-3.458,2.8-7.652,7.694-7.4s7.606,5.383,7.32,10.5c-.249,4.479-2.93,9.68-6.284,14.484C2152.882,1293.781,2149.165,1299.886,2149.165,1299.886Z" fill="#d40000"/>
      <path id="path10266-8-9" d="M2190.394,1287.98s-3.717,6.1-8.73,13.283c-3.354,4.8-6.035,10-6.284,14.484-.286,5.117,2.42,10.251,7.32,10.5s6.885-3.946,7.694-7.4c.809,3.458,2.8,7.653,7.693,7.4s7.607-5.383,7.321-10.5c-.25-4.48-2.931-9.681-6.285-14.484C2194.11,1294.085,2190.394,1287.98,2190.394,1287.98Z" fill="#d40000"/>
      <path id="path10268-2-7" d="M2107.937,1287.98s-3.716,6.1-8.73,13.283c-3.353,4.8-6.035,10-6.284,14.484-.286,5.117,2.421,10.251,7.32,10.5s6.885-3.946,7.694-7.4c.809,3.458,2.8,7.653,7.694,7.4s7.606-5.383,7.32-10.5c-.249-4.48-2.931-9.681-6.284-14.484C2111.654,1294.085,2107.937,1287.98,2107.937,1287.98Z" fill="#d40000"/>
      <path id="path10270-1-4" d="M2190.394,1340.723s-3.717,6.1-8.73,13.283c-3.354,4.8-6.035,10-6.284,14.484-.286,5.117,2.42,10.251,7.32,10.5s6.885-3.946,7.694-7.4c.809,3.458,2.8,7.653,7.693,7.4s7.607-5.383,7.321-10.5c-.25-4.48-2.931-9.681-6.285-14.484C2194.11,1346.828,2190.394,1340.723,2190.394,1340.723Z" fill="#d40000"/>
      <path id="path10272-0-7" d="M2107.937,1340.723s-3.716,6.1-8.73,13.283c-3.353,4.8-6.035,10-6.284,14.484-.286,5.117,2.421,10.251,7.32,10.5s6.885-3.946,7.694-7.4c.809,3.458,2.8,7.653,7.694,7.4s7.606-5.383,7.32-10.5c-.249-4.48-2.931-9.681-6.284-14.484C2111.654,1346.828,2107.937,1340.723,2107.937,1340.723Z" fill="#d40000"/>
      <path id="path29-5-8-5-4" d="M2066.642,1188.7l2.4-.763a4.262,4.262,0,0,0,4.68,2.99c3.479-.278,4.635-4.173,4.9-7.616a6.906,6.906,0,0,1-5.128,2.1c-5.548-.3-6.968-4.744-7.019-9.4-.152-3.924,1.468-6.767,4.247-8.072a9.508,9.508,0,0,1,6.324.122c3.4,1.8,4.66,4.9,4.432,12.306,0,6.094-1.292,13.191-7.816,13.345a6.324,6.324,0,0,1-7.019-5.012Zm9.444-6.677a5.7,5.7,0,0,0,2.276-2.4,4.514,4.514,0,0,0,.44-2.972c-.308-4.418-2.62-6.926-5.975-6.429-1.872.282-2.9,1.33-3.484,3.279-1.084,3.606.292,7.823,2.869,8.8a5.016,5.016,0,0,0,3.874-.274Z" fill="#d40000"/>
      <path id="path29-6-2-3-6-6" d="M2231.687,1372.8l-2.4.764a4.262,4.262,0,0,0-4.68-2.99c-3.479.278-4.635,4.173-4.9,7.616a6.906,6.906,0,0,1,5.128-2.1c5.548.3,6.968,4.744,7.019,9.4.152,3.924-1.468,6.767-4.247,8.072a9.509,9.509,0,0,1-6.324-.122c-3.4-1.8-4.66-4.9-4.432-12.306,0-6.094,1.292-13.191,7.816-13.345a6.323,6.323,0,0,1,7.019,5.012h0Zm-9.444,6.678a5.7,5.7,0,0,0-2.276,2.4,4.517,4.517,0,0,0-.44,2.973c.308,4.418,2.62,6.926,5.975,6.429,1.872-.282,2.9-1.33,3.484-3.28,1.084-3.605-.292-7.823-2.868-8.794a5.019,5.019,0,0,0-3.875.274Z" fill="#d40000"/>
    </g>
  </g>
</svg>
