<svg xmlns="http://www.w3.org/2000/svg" xmlns:xlink="http://www.w3.org/1999/xlink" width="179.79" height="250.65" viewBox="0 0 179.79 250.65">
  <defs>
    <clipPath id="clip-_9s">
      <rect width="179.79" height="250.65"/>
    </clipPath>
  </defs>
  <g id="_9s" data-name="9s" clip-path="url(#clip-_9s)">
    <g id="_9s-2" data-name="9s" transform="translate(-2059.272 -1436.871)">
      <rect id="rect7195-8-7" width="177.786" height="248.651" rx="8.504" transform="translate(2060.272 1437.871)" fill="#fff" stroke="#000" stroke-width="1.001"/>
      <path id="path7225-5-2" d="M2107.937,1463.943c-7.348,10.492-15.21,16.53-15.34,24.716-.044,2.65,1.387,7.156,5.87,8.018,2.909.557,6.913-1.8,7-6.589-.013-.953,1.008-.929,1,.378a27.216,27.216,0,0,1-3.339,11.755h9.626a27.2,27.2,0,0,1-3.338-11.755c-.01-1.307,1.011-1.331,1-.378.083,4.789,4.088,7.146,7,6.589,4.483-.862,5.915-5.368,5.871-8.018C2123.147,1480.473,2115.285,1474.435,2107.937,1463.943Z"/>
      <path id="path7227-2-8" d="M2073.985,1477.722c-3.433,4.372-7.107,6.887-7.168,10.3a3.312,3.312,0,0,0,2.743,3.341,2.848,2.848,0,0,0,3.269-2.745c-.008-.4.471-.387.467.157a10.423,10.423,0,0,1-1.56,4.9h4.5a10.421,10.421,0,0,1-1.559-4.9c-.008-.544.472-.555.466-.157a2.848,2.848,0,0,0,3.269,2.745,3.311,3.311,0,0,0,2.743-3.341c-.061-3.411-3.735-5.926-7.168-10.3Z"/>
      <path id="path7229-4-8" d="M2107.937,1607.707c-7.348-10.492-15.21-16.53-15.34-24.716-.044-2.65,1.387-7.155,5.87-8.018,2.909-.556,6.913,1.8,7,6.589-.013.954,1.008.929,1-.378a27.208,27.208,0,0,0-3.339-11.754h9.626a27.193,27.193,0,0,0-3.338,11.754c-.01,1.307,1.011,1.332,1,.378.083-4.788,4.088-7.145,7-6.589,4.483.863,5.915,5.368,5.871,8.018C2123.147,1591.177,2115.285,1597.215,2107.937,1607.707Z"/>
      <path id="path7231-7-8" d="M2224.347,1646.672c-3.434-4.372-7.107-6.888-7.168-10.3a3.309,3.309,0,0,1,2.743-3.34,2.848,2.848,0,0,1,3.269,2.745c-.008.4.471.387.466-.157a10.429,10.429,0,0,0-1.559-4.9h4.5a10.422,10.422,0,0,0-1.56,4.9c-.008.544.473.554.467.157a2.848,2.848,0,0,1,3.269-2.745,3.309,3.309,0,0,1,2.742,3.34c-.061,3.411-3.734,5.927-7.167,10.3Z"/>
      <path id="path7233-8-9" d="M2190.394,1463.943c-7.348,10.492-15.21,16.53-15.341,24.716-.044,2.65,1.388,7.156,5.871,8.018,2.908.557,6.913-1.8,7-6.589-.013-.953,1.008-.929,1,.378a27.2,27.2,0,0,1-3.338,11.755h9.626a27.219,27.219,0,0,1-3.339-11.755c-.009-1.307,1.012-1.331,1-.378.084,4.789,4.088,7.146,7,6.589,4.483-.862,5.914-5.368,5.87-8.018C2205.6,1480.473,2197.742,1474.435,2190.394,1463.943Z"/>
      <path id="path7235-9-4" d="M2107.937,1516.687c-7.348,10.492-15.21,16.529-15.34,24.715-.044,2.651,1.387,7.156,5.87,8.018,2.909.557,6.913-1.8,7-6.589-.013-.953,1.008-.928,1,.378a27.216,27.216,0,0,1-3.339,11.755h9.626a27.2,27.2,0,0,1-3.338-11.755c-.01-1.306,1.011-1.331,1-.378.083,4.789,4.088,7.146,7,6.589,4.483-.862,5.915-5.367,5.871-8.018C2123.147,1533.216,2115.285,1527.179,2107.937,1516.687Z"/>
      <path id="path7241-7-2" d="M2190.394,1516.687c-7.348,10.492-15.21,16.529-15.341,24.715-.044,2.651,1.388,7.156,5.871,8.018,2.908.557,6.913-1.8,7-6.589-.013-.953,1.008-.928,1,.378a27.2,27.2,0,0,1-3.338,11.755h9.626a27.22,27.22,0,0,1-3.339-11.755c-.009-1.306,1.012-1.331,1-.378.084,4.789,4.088,7.146,7,6.589,4.483-.862,5.914-5.367,5.87-8.018C2205.6,1533.216,2197.742,1527.179,2190.394,1516.687Z"/>
      <path id="path7245-1-6" d="M2107.937,1660.45c-7.348-10.492-15.21-16.53-15.34-24.715-.044-2.651,1.387-7.156,5.87-8.019,2.909-.556,6.913,1.8,7,6.589-.013.954,1.008.929,1-.377a27.213,27.213,0,0,0-3.339-11.755h9.626a27.2,27.2,0,0,0-3.338,11.755c-.01,1.306,1.011,1.331,1,.377.083-4.788,4.088-7.145,7-6.588,4.483.862,5.915,5.367,5.871,8.018-.131,8.185-7.993,14.223-15.341,24.715Z"/>
      <path id="path7247-0-6" d="M2190.394,1660.45c-7.348-10.492-15.21-16.53-15.341-24.715-.044-2.651,1.388-7.156,5.871-8.019,2.908-.556,6.913,1.8,7,6.589-.013.954,1.008.929,1-.377a27.2,27.2,0,0,0-3.338-11.755h9.626a27.217,27.217,0,0,0-3.339,11.755c-.009,1.306,1.012,1.331,1,.377.084-4.788,4.088-7.145,7-6.588,4.483.862,5.914,5.367,5.87,8.018-.13,8.185-7.992,14.223-15.34,24.715Z"/>
      <path id="path7251-3-6" d="M2190.394,1607.707c-7.348-10.492-15.21-16.53-15.341-24.716-.044-2.65,1.388-7.155,5.871-8.018,2.908-.556,6.913,1.8,7,6.589-.013.954,1.008.929,1-.378a27.2,27.2,0,0,0-3.338-11.754h9.626a27.212,27.212,0,0,0-3.339,11.754c-.009,1.307,1.012,1.332,1,.378.084-4.788,4.088-7.145,7-6.589,4.483.863,5.914,5.368,5.87,8.018C2205.6,1591.177,2197.742,1597.215,2190.394,1607.707Z"/>
      <path id="path7255-7-8" d="M2149.166,1543.058c-7.348,10.492-15.21,16.53-15.341,24.715-.044,2.651,1.387,7.156,5.87,8.019,2.909.556,6.914-1.8,7-6.589-.013-.954,1.008-.929,1,.377a27.2,27.2,0,0,1-3.338,11.755h9.625a27.2,27.2,0,0,1-3.338-11.755c-.009-1.306,1.012-1.331,1-.377.083,4.788,4.088,7.145,7,6.589,4.483-.863,5.914-5.368,5.87-8.019C2164.375,1559.588,2156.513,1553.55,2149.166,1543.058Z"/>
      <path id="path29-33-4-4" d="M2066.642,1470.149l2.4-.764a4.262,4.262,0,0,0,4.68,2.99c3.479-.278,4.635-4.173,4.9-7.615a6.9,6.9,0,0,1-5.128,2.1c-5.547-.3-6.968-4.743-7.019-9.4-.151-3.924,1.468-6.766,4.247-8.071a9.509,9.509,0,0,1,6.324.122c3.4,1.8,4.661,4.9,4.432,12.3,0,6.094-1.292,13.191-7.816,13.346a6.324,6.324,0,0,1-7.019-5.012Zm9.444-6.678a5.7,5.7,0,0,0,2.276-2.4,4.516,4.516,0,0,0,.441-2.973c-.309-4.418-2.621-6.926-5.976-6.429-1.872.282-2.9,1.33-3.484,3.28-1.084,3.6.292,7.823,2.868,8.794a5.018,5.018,0,0,0,3.875-.274Z"/>
      <path id="path29-33-3-8-6" d="M2231.687,1654.245l-2.4.763a4.26,4.26,0,0,0-4.68-2.989c-3.479.277-4.635,4.172-4.9,7.615a6.906,6.906,0,0,1,5.128-2.1c5.548.3,6.968,4.744,7.019,9.4.152,3.924-1.468,6.766-4.247,8.071a9.509,9.509,0,0,1-6.324-.122c-3.4-1.8-4.66-4.9-4.432-12.306,0-6.093,1.292-13.191,7.816-13.345a6.324,6.324,0,0,1,7.019,5.012Zm-9.444,6.677a5.7,5.7,0,0,0-2.276,2.4,4.515,4.515,0,0,0-.44,2.973c.308,4.417,2.62,6.925,5.975,6.429,1.872-.282,2.9-1.331,3.484-3.28,1.084-3.606-.292-7.823-2.868-8.794a5.014,5.014,0,0,0-3.875.273Z"/>
    </g>
  </g>
</svg>
