<svg xmlns="http://www.w3.org/2000/svg" xmlns:xlink="http://www.w3.org/1999/xlink" width="179.79" height="250.65" viewBox="0 0 179.79 250.65">
  <defs>
    <clipPath id="clip-ac">
      <rect width="179.79" height="250.65"/>
    </clipPath>
  </defs>
  <g id="ac" clip-path="url(#clip-ac)">
    <g id="ac-2" data-name="ac" transform="translate(-374.611 -873.972)">
      <rect id="rect6355-6-85-9-3-2" width="177.785" height="248.651" rx="8.504" transform="translate(375.611 874.972)" fill="#fff" stroke="#000" stroke-width="0.997"/>
      <path id="path147-0-8-1-6-1-1-0-9-1-8" d="M464.5,980.491c-7.82.17-11.326,8.974-5.535,15.811.84,1,.926,1.569-.612.611-3.9-2.607-11.375-.893-11.758,7.078-.473,9.822,13.25,12.652,15.827,2.208.136-1.1,1.031-1.077.816.487a32.5,32.5,0,0,1-3.383,12.082h9.3a32.5,32.5,0,0,1-3.383-12.082c-.216-1.564.679-1.589.816-.487,2.576,10.444,16.3,7.614,15.826-2.208-.382-7.971-7.859-9.685-11.758-7.078-1.538.958-1.451.386-.611-.611,5.791-6.837,2.284-15.641-5.535-15.811H464.5Z"/>
      <path id="path147-6-9-8-7-0-5-0-8-3" d="M539.686,1083.773c3.128-.071,4.53-3.739,2.214-6.588-.336-.415-.371-.654.245-.255,1.559,1.087,4.55.373,4.7-2.949.189-4.092-5.3-5.271-6.331-.92-.054.46-.413.449-.326-.2a13.977,13.977,0,0,1,1.353-5.034h-3.718a13.977,13.977,0,0,1,1.353,5.034c.086.652-.272.663-.326.2-1.031-4.351-6.52-3.172-6.331.92.153,3.322,3.143,4.036,4.7,2.949.615-.4.581-.16.245.255-2.317,2.849-.914,6.517,2.214,6.588h0Z"/>
      <path id="path41-6-3-5-1" d="M381.285,912.323v-2.251h2.144L388,886.007h2.6l5.032,24.065h1.731v2.251h-5.9v-2.251h1.592l-.636-3.687h-5.952l-.46,3.687H387.6v2.251Zm10.624-8.565-2.588-12.881L386.9,903.758Z"/>
      <path id="path41-6-4-0-2-8" d="M531.646,1086.273v2.251h2.144l4.568,24.065h2.6l5.032-24.065h1.731v-2.251h-5.9v2.251h1.593l-.636,3.687h-5.953l-.459-3.687h1.592v-2.251Zm10.624,8.565-2.588,12.881-2.424-12.881Z"/>
      <path id="path147-6-9-8-7-4-5-6-8-9" d="M389.322,914.823c-3.127.07-4.53,3.739-2.213,6.588.336.415.37.654-.245.255-1.56-1.087-4.55-.373-4.7,2.949-.19,4.092,5.3,5.271,6.33.92.055-.459.413-.449.327.2a13.973,13.973,0,0,1-1.354,5.034h3.719a13.972,13.972,0,0,1-1.353-5.034c-.087-.652.271-.662.326-.2,1.031,4.351,6.52,3.172,6.331-.92-.153-3.322-3.144-4.036-4.7-2.949-.615.4-.58.16-.244-.255,2.316-2.849.914-6.517-2.214-6.588h0Z"/>
    </g>
  </g>
</svg>
