<svg xmlns="http://www.w3.org/2000/svg" xmlns:xlink="http://www.w3.org/1999/xlink" width="179.79" height="250.65" viewBox="0 0 179.79 250.65">
  <defs>
    <clipPath id="clip-ad">
      <rect width="179.79" height="250.65"/>
    </clipPath>
  </defs>
  <g id="ad" clip-path="url(#clip-ad)">
    <g id="ad-2" data-name="ad" transform="translate(-374.611 -1718.32)">
      <rect id="rect6367-6" width="177.785" height="248.651" rx="8.504" transform="translate(375.611 1719.32)" fill="#fff" stroke="#000" stroke-width="1.001"/>
      <path id="path6399-9" d="M389.324,1775.12a44.938,44.938,0,0,0-5.8-7.974,44.981,44.981,0,0,0,5.8-7.975,44.976,44.976,0,0,0,5.794,7.975A44.933,44.933,0,0,0,389.324,1775.12Z" fill="#d40000"/>
      <path id="path6403-1" d="M539.685,1928.121a44.981,44.981,0,0,0-5.794-7.974,45.02,45.02,0,0,0,5.794-7.975,45.02,45.02,0,0,0,5.794,7.975A44.981,44.981,0,0,0,539.685,1928.121Z" fill="#d40000"/>
      <path id="path6413-1" d="M464.5,1862.785c-4.131-6.83-8.476-13.468-13.906-19.139,5.43-5.67,9.776-12.309,13.906-19.139,4.13,6.83,8.476,13.469,13.906,19.139C472.98,1849.317,468.634,1855.955,464.5,1862.785Z" fill="#d40000"/>
      <path id="path41-87-9-4-8" d="M381.285,1756.671v-2.25h2.144L388,1730.355h2.6l5.032,24.066h1.731v2.25h-5.9v-2.25h1.592l-.636-3.688h-5.952l-.46,3.688H387.6v2.25Zm10.624-8.565-2.588-12.881-2.424,12.881Z" fill="#d40000"/>
      <path id="path41-8-5-6-1" d="M531.646,1930.621v2.25h2.144l4.568,24.066h2.6l5.032-24.065h1.731v-2.251h-5.9v2.251h1.592l-.635,3.687h-5.953l-.459-3.687h1.592v-2.251Zm10.624,8.565-2.588,12.881-2.424-12.881Z" fill="#d40000"/>
    </g>
  </g>
</svg>
