<svg xmlns="http://www.w3.org/2000/svg" xmlns:xlink="http://www.w3.org/1999/xlink" width="179.79" height="250.65" viewBox="0 0 179.79 250.65">
  <defs>
    <clipPath id="clip-ah">
      <rect width="179.79" height="250.65"/>
    </clipPath>
  </defs>
  <g id="ah" clip-path="url(#clip-ah)">
    <g id="ah-2" data-name="ah" transform="translate(-374.611 -1155.422)">
      <g id="g9664-0-2">
        <rect id="rect9666-2-2" width="177.786" height="248.651" rx="8.504" transform="translate(375.611 1156.422)" fill="#fff" stroke="#000" stroke-width="1.001"/>
      </g>
      <path id="path9698-0-0" d="M389.323,1212.221s-1.771-2.543-4.161-5.534c-1.6-2-2.878-4.168-3-6.035-.136-2.132,1.154-4.271,3.49-4.375s3.283,1.644,3.668,3.085c.386-1.441,1.334-3.189,3.668-3.085a3.864,3.864,0,0,1,3.49,4.375c-.118,1.867-1.4,4.034-3,6.035C391.1,1209.678,389.323,1212.221,389.323,1212.221Z" fill="#d40000"/>
      <path id="path9700-3-2" d="M539.685,1349.273s-1.772,2.544-4.162,5.535c-1.6,2-2.877,4.168-3,6.035-.136,2.132,1.154,4.271,3.49,4.375s3.282-1.644,3.668-3.085c.386,1.441,1.334,3.188,3.668,3.085s3.626-2.243,3.49-4.375c-.119-1.867-1.4-4.034-3-6.035C541.457,1351.817,539.685,1349.273,539.685,1349.273Z" fill="#d40000"/>
      <path id="path9714-6-6" d="M464.5,1299.886s-3.716-6.1-8.73-13.282c-3.353-4.8-6.035-10.005-6.284-14.484-.286-5.118,2.421-10.252,7.32-10.5s6.885,3.946,7.694,7.4c.809-3.458,2.8-7.652,7.694-7.4s7.606,5.383,7.32,10.5c-.249,4.479-2.931,9.68-6.284,14.484C468.22,1293.781,464.5,1299.886,464.5,1299.886Z" fill="#d40000"/>
      <path id="path41-87-8-3-9" d="M381.285,1193.772v-2.25h2.144L388,1167.457h2.6l5.031,24.065h1.732v2.25h-5.9v-2.25h1.592l-.636-3.688h-5.952l-.46,3.688H387.6v2.25Zm10.623-8.565-2.587-12.88-2.424,12.88Z" fill="#d40000"/>
      <path id="path41-8-5-1-8-7" d="M531.646,1367.723v2.25h2.145l4.567,24.065h2.6l5.032-24.065h1.732v-2.25h-5.9v2.25h1.593l-.636,3.688h-5.952l-.46-3.688h1.592v-2.25Zm10.624,8.565-2.588,12.88-2.423-12.88Z" fill="#d40000"/>
    </g>
  </g>
</svg>
