<svg xmlns="http://www.w3.org/2000/svg" xmlns:xlink="http://www.w3.org/1999/xlink" width="179.79" height="250.65" viewBox="0 0 179.79 250.65">
  <defs>
    <clipPath id="clip-as">
      <rect width="179.79" height="250.65"/>
    </clipPath>
  </defs>
  <g id="as" clip-path="url(#clip-as)">
    <g id="as-2" data-name="as" transform="translate(-374.611 -1436.871)">
      <rect id="rect6355-6-85-62-9-7" width="177.786" height="248.651" rx="8.504" transform="translate(375.611 1437.871)" fill="#fff" stroke="#000" stroke-width="1.001"/>
      <path id="path153-0-1-2-5-5-5-3-4" d="M389.323,1477.722c-3.433,4.372-7.106,6.887-7.167,10.3a3.31,3.31,0,0,0,2.743,3.341,2.848,2.848,0,0,0,3.269-2.745c-.008-.4.471-.387.466.157a10.41,10.41,0,0,1-1.559,4.9h4.5a10.423,10.423,0,0,1-1.56-4.9c-.008-.544.473-.555.467-.157a2.848,2.848,0,0,0,3.269,2.745,3.311,3.311,0,0,0,2.743-3.341C396.43,1484.609,392.756,1482.094,389.323,1477.722Z"/>
      <path id="path153-0-1-2-5-6-5-9-1-9" d="M539.685,1646.672c-3.433-4.372-7.106-6.888-7.167-10.3a3.309,3.309,0,0,1,2.743-3.34,2.849,2.849,0,0,1,3.269,2.745c-.008.4.471.387.466-.157a10.418,10.418,0,0,0-1.56-4.9h4.5a10.418,10.418,0,0,0-1.56,4.9c-.008.544.473.554.467.157a2.848,2.848,0,0,1,3.269-2.745,3.311,3.311,0,0,1,2.743,3.34c-.062,3.411-3.735,5.927-7.168,10.3Z"/>
      <path id="path153-6-3-1-6-92-7-2-9-8" d="M464.5,1543.058c-7.348,10.492-15.21,16.53-15.341,24.715-.043,2.651,1.388,7.156,5.871,8.019,2.909.556,6.913-1.8,7-6.589-.013-.954,1.008-.929,1,.377a27.2,27.2,0,0,1-3.338,11.755h9.626a27.2,27.2,0,0,1-3.338-11.755c-.01-1.306,1.011-1.331,1-.377.084,4.788,4.088,7.145,7,6.589,4.483-.863,5.914-5.368,5.871-8.019C479.714,1559.588,471.852,1553.55,464.5,1543.058Z"/>
      <path id="path41-4-9-2" d="M381.285,1475.222v-2.251h2.144L388,1448.906h2.6l5.031,24.065h1.732v2.251h-5.9v-2.251h1.592l-.636-3.687h-5.952l-.46,3.687H387.6v2.251Zm10.623-8.566-2.587-12.88-2.424,12.88Z"/>
      <path id="path41-4-2-4-0" d="M531.646,1649.172v2.25h2.145l4.567,24.065h2.6l5.032-24.065h1.732v-2.25h-5.9v2.25h1.593l-.636,3.688h-5.952l-.46-3.688h1.592v-2.25Zm10.624,8.565-2.588,12.881-2.423-12.881Z"/>
    </g>
  </g>
</svg>
