<svg xmlns="http://www.w3.org/2000/svg" xmlns:xlink="http://www.w3.org/1999/xlink" width="179.79" height="250.65" viewBox="0 0 179.79 250.65">
  <defs>
    <clipPath id="clip-jc">
      <rect width="179.79" height="250.65"/>
    </clipPath>
  </defs>
  <g id="jc" clip-path="url(#clip-jc)">
    <g id="jc-2" data-name="jc" transform="translate(-2480.438 -873.973)">
      <g id="g11322-4-2">
        <rect id="rect6355-6-85-3-39-1-8" width="177.786" height="248.651" rx="8.504" transform="translate(2481.438 874.973)" fill="#fff" stroke="#000" stroke-width="1.001"/>
        <path id="path147-6-9-8-7-0-5-6-79-2-4" d="M2645.513,1083.773c3.128-.071,4.531-3.739,2.214-6.588-.336-.415-.37-.654.245-.255,1.56,1.087,4.55.372,4.7-2.949.189-4.092-5.3-5.271-6.331-.92-.054.459-.412.449-.326-.2a13.972,13.972,0,0,1,1.353-5.034h-3.718a13.972,13.972,0,0,1,1.353,5.034c.086.652-.272.662-.326.2-1.031-4.351-6.52-3.172-6.331.92.153,3.322,3.144,4.036,4.7,2.949.616-.4.581-.16.245.255-2.317,2.849-.914,6.517,2.214,6.588h0Z"/>
        <path id="path147-6-9-8-7-4-5-62-3-3-7" d="M2495.149,914.823c-3.128.071-4.53,3.739-2.214,6.588.336.416.371.654-.244.255-1.56-1.087-4.551-.372-4.7,2.949-.189,4.092,5.3,5.271,6.331.92.054-.459.413-.449.326.2a13.971,13.971,0,0,1-1.353,5.034h3.719a13.973,13.973,0,0,1-1.354-5.034c-.086-.652.272-.662.326-.2,1.031,4.351,6.52,3.172,6.331-.92-.153-3.321-3.143-4.036-4.7-2.949-.615.4-.581.161-.245-.255,2.317-2.849.914-6.517-2.214-6.588h0Z"/>
        <path id="path35-5-6-2" d="M2495.064,886.007v2.755h2.672s.064,2.655.088,8.288c.02,5.469.132,8.182-.216,9.74-.936,3.59-6.132,3.609-7.164,1.028a10.458,10.458,0,0,1-.468-4.181H2487.1s.017.762.021,1.693c.016,4.037,1.351,5.967,4.475,6.729,3.212.868,6.968-.457,8.3-3.205.795-1.566.7-1.674.723-11.144.012-6.319.108-8.948.108-8.948h2.46v-2.755Z"/>
        <path id="path35-6-4-1-2" d="M2645.6,1112.589v-2.755h-2.672s-.064-2.655-.088-8.287c-.02-5.47-.132-8.183.216-9.74.936-3.59,6.132-3.61,7.164-1.029a10.467,10.467,0,0,1,.468,4.181h2.872s-.017-.761-.021-1.693c-.016-4.037-1.351-5.967-4.475-6.728-3.212-.869-6.968.456-8.3,3.2-.8,1.566-.7,1.674-.723,11.145-.012,6.318-.108,8.947-.108,8.947h-2.46v2.755Z"/>
      </g>
      <g id="g5275-8-4-5">
        <g id="layer1-1-8-4-5">
          <g id="g3799-8-1-3">
            <path id="path3306-4-9-5" d="M2610.142,898.846c.68-.976,3.625,5.836,5.515,11,.929,2.537,2.17,4.628,1.658,5.295-1.347,1.369-4.833.144-7.368-1.811a22.393,22.393,0,0,1-4.622-5.163Zm23.763,5.05.108,4.007a90.083,90.083,0,0,0-8.624,8.639l9.056.05c-.08,49.232.072,147.9.072,147.9s-10.066-10.239-9.821-10.276c.012,0-.286-59.615-.324-99.717-.08-.189,5.263-.2,5.6-2.822.224-1.734-5.6-1.5-5.694-1.61.012-18.026-.053-30.751-.053-30.751l-5.353-.176Zm-31.445,18.559c.778,1.556,2.016,7.537,2.964,7.394,4.352-1.449,5.755,5,1.251,5.334-1.705.126-3.609-2.106-4.678-4.883-.513-1.455.016-8.428.463-7.845Zm-.982,8.971c1.284,2.1,2.513,9.8,4.852,9.361a2.709,2.709,0,0,1,3.294,3.037c-1.095,4.623-8.92.231-10.973-.834A52.725,52.725,0,0,0,2601.478,931.426Zm16.513,21.687c-1.791,4.068-1.309,7.41.21,11.5-4.646,2-9.227,4.39-13.807,6.787-.027-.011-.227-16.038,1.29-23.356.522-1.114,2.4-.225,3.491.318a73.853,73.853,0,0,1,8.816,4.749Zm-82.467,73.636c.948,7.575.259,19.362-1.086,24.025-.517,1.579-11.285-5.539-12.063-6.026,2.121-3.946-.779-13.115-.463-11.473.747-.524,13.364-7.291,13.612-6.526Zm4.627,31.437c-.2.486-1.008,6.156-1.257,6.177-.817.071-2.015-5.552-4.1-7.408-3.933.456-4.394-2.22-3.625-3.514-.19-.568,1.27-1.8,2.634-1.684C2537.2,1053.087,2541.769,1054.264,2540.151,1058.186Zm45.128,9.68s-2.956,16.67-2.97,16.649c-7.306,1.061-14.349,2.275-20.862,1.533,1.286-17.327,3.309-32.311,8.86-34.911l-11.5-9.287s-12.771,7.993-12.042,7.874c.315-.086.564-6.8.751-17.656-.324-28.336-16.572-57.022-17.2-56.733-.344-.231,13.842-1.344,24.039,3.065l.458-37.521s-5.054-2.533-5.99-3.7c-1.866-6.528,3.166-8.2,6.182-6.564,1.41-4.961,3.555-17.225,3.633-17.221a94.95,94.95,0,0,1,20.819-1.609,110.121,110.121,0,0,0-2.284,15.967c-.88,8.656-2.647,16.855-7.183,18.8.807-.321,11.345,8.918,11.345,8.918l12.8-7.9c-4.137,27,2.934,53.228,15.136,74.442-6.149.712-13.111.374-23.977-2.888,0,0,.611,37.594.615,37.385,12.02,4.756,5.46,14.013-.627,11.363Zm-46.747,3.365c-.045.383-.219,4.629-.219,4.629-1.7-2-3.073-7.88-3.411-7.781,0,0-2.184.345-2.864-.382-2.216-2.37-.037-5.169,2.177-4.645,2.2.569,4.625,4.355,4.317,8.179Zm-22.594-127.459s.472,66.67.46,100.087c-8.4-.132-6.753,4.555.111,4.062l.023,30.81,4.552.159s-8.568,8.981-14,14.716l-.125-2.917,8.267-8.954-8.56.014-.029-147.838Zm14.294,154.851c-2.073.454-4.235-9.147-7.831-14.974,4.086-2.46,10.532,2.218,11.981,5.971C2533.438,1092.8,2530.173,1098.589,2530.232,1098.623Z" fill="#e2cf00"/>
            <path id="path3304-4-6-6" d="M2635.638,1104.56V894.036H2505.023V1104.56Zm-43.287-44.336c-.177-.339-.467-.828-.467-.828a2.114,2.114,0,0,0,.535-.227c15.136-5.629,31.33-18.171,31.613-18.54v13.883l10.018,10.606v37.62h-39.383l-11.544-19.407c.694-5.084,2.492-14.926,2.492-14.926,1.059.257,4.634.595,6.565-2.189.921-1.328,1.413-3.138.171-5.992Zm-73.8-43.3-1.5,1.9,2.636-.121-1.81,1.973,2.917.068-2.274,1.941,3.069.036-2.281,1.91,3.36-.153-2.407,2.078,3.321-.014-2.477,2.09,3.249.045-2.111,1.877,2.836.033-3.206,2.264a13.821,13.821,0,0,0-5.054-.983l-.038-15.237Zm-2.3,26.422c-7.495-.026-9.1,4-.039,4.64-.17,10.132.409,30.4.409,30.4l4.934.126s-13.228,14.357-14.475,15.525c-1.13-48.259-1.08-160.306-1.08-160.306l10.108,10.168.112,31.682c3.383,3.446,5.321,8.472,7.335,11.728l5.527,2.7-1.3,4.465.556,1.27,1.726-6.318-6.047-2.889-.641-1.307,1.019-5.953-5.723-1.973-.992-1.369.359-5.813-1.2-.365V968.6l1.194.1.425-6.526-1.619-.477v-1.474c0,.026.948-.005,1.41.035a8.746,8.746,0,0,1,1.689,1.722l-.57,7.248,7.254,1.462.54.767-1.335,7.244,7.617,2.343c-.782-1.934-1.818-3.743-2.68-5.647,1.046-.3,2.138-.373,3.2-.6.285-9.786-.045-19.969.258-29.173,6.13-.445,3.254.142,5.92.1a1.9,1.9,0,0,0,1.022-3.5l1.056-.38,1.848,2.1-3.861,3.723.023,1.07,4.794-4.82-2.075-2.408,1.234-.644,1.894,2.005s4.075-4.193,3.822-4.269a1.39,1.39,0,0,1-.506-.466c-2.9-6.3,1.058-9.307,5.844-7.565,1.217-5.8,2.377-11.027,3.334-17.031,3.577-1.358,20.4-2.143,20.582-1.831,0,0,.426.409.444.612-.076.268.482-.559.482-.559,0-.357,14.663.367,21.894,1.753a6.552,6.552,0,0,1,.088,1.617c-.118,1.845.024,1.828-1.646,1.559-3.411-.229-6.056.947-7.108,3.964-.589,1.69-.313,3.212.586,7.732.874,4.39.883,3.917.779,4.51a4.957,4.957,0,0,1-1.943,2.35c-.81.661-.891,1.908-.239,1.218a4.731,4.731,0,0,1,1.943-1.26c1.659-.874,1.605-1.716.625-5.321-.46-1.691-.941-3.514-.956-3.727-.05-.662.187-.391,1.176.291a23.277,23.277,0,0,0,2.013,1.233c1.986,1.065,1.106-.1-.806-1.38-1.5-1.12-1.752-1.6-.455-1.067a7.024,7.024,0,0,0,4.755-.256c.294-.165.512-.146.559.125.067.422-.19,1.482-.3,3.932-.28,6.2-1.732,12.8-5.83,16.613-5.867,5.462-15.507,1.756-20.857-3.3l-.578.884c3.591,3.03,9.815,6.811,15.877,6.077-2.535,2.125-8.126,5.646-8.126,5.646-3.834-2.8-6.662-5.586-10.871-8.613l-.733.489,11.577,9.229,12.472-8.268s-.518,7.932-.713,10.831l5.41-4.808L2594.5,947.6l4.423-4.576s-.747.106.07-1.306c1.245-2.539,2-6.63,2.572-10.785-.112-3.1.648-6.536.883-9.269a24.391,24.391,0,0,0,1.836,6.229c.865,2.238,1.2,2.221,2.18,1.9,5.291-.447,2.9,9.817-3.357,3.1-.274-.285-.727-.633-.748-.566a35.491,35.491,0,0,0,2.352,7.064c.732,1.317.738,1.5,1.825,1.39,2.034-.211,2.722.517,2.928,2.67-.271,4.069-4.65,2.35-7.456,1.1-.253-.2,1.317,1.438,1.878,2.013a3.287,3.287,0,0,1,.887,1.284l-.165,2.16-4.293,3.94,3.529,5.239-.147,1.873-3.771,4.549,4.018,4.386.05,1.562-3.266,4.371,4.377,3.529.212,1.407s-2.81,5.228-2.734,5.418c.064.159,4.743,3.409,4.743,3.409l.471,2.2-2.032,5.581,4.863,2.792.89,2.52-1.369,5.17,5.045,2.342,1.438,2.912-.937,5.433,5.654,1.683,1.5,2.389-.2,4.778,1.385.143-.02,1.179-1.542-.012a8.959,8.959,0,0,1-.05,2.537c-.29,4.012-.317,3.858.636,4.025,2.007.351,1.547,1.591-.505,1.361-.315-.035-.582-.062-.806-.1-.541-.1-.957-.806-.957-.806l.451-7.411-7.23-1.214-.687-.93,1.211-6.868-6.787-1.974-.914-1.664,1.924-7.143-6.841-3.025-.452-1.326,2.9-6.34-6.286-3.072-.393-1.52,3.49-6.538-7.246-5.3s.194.518.482,1.384l5.746,4.126-2.912,5.581s-.231-.408-.478-.322c.146.931.262,1.868.328,2.784l2.966,7.772-9.595,6.487c4.111,2.489,9.3,2.406,14.06,3.339a6.7,6.7,0,0,0,.567,1.264c1.386,2.235,2.632,5.076,4.178,8.007a9.3,9.3,0,0,1-2.855.711c-1.692,9.556-3.368,20.549-6.066,28.867a2.144,2.144,0,0,0-1.392,3.762c-.264.075-.543.15-.837.221-.389.006-1.963-1.741-1.963-1.741l4.045-4.01.023-1.326c-1.613,1.689-5.16,5.336-5.16,5.336l2.137,2.257-1.057.5-1.731-1.916-3.884,4.014-1-.682a46.379,46.379,0,0,1,4.119-4.332c-1.023-1.217-4.987-5.057-4.987-5.057l.012,1.326,3.907,3.808-3.8,3.812-.22.252s-3.015-1.31-3.207-1.307c1.282,1.06,3.584,1.969,4.835,2.886,5.667,3.36.284,10.312-4.943,8.586-.149-.56-2.883,14.666-2.575,15.505-.277,2.358-.338,2.025.476,3.376,2.433,5.639,9.533,16.311,9.533,16.311l-63.89.411a25.807,25.807,0,0,0,1.84-3.887,22.678,22.678,0,0,1-4.9-8.7,15.555,15.555,0,0,0-3.632-7.178c-.029-.066.065-.148.177-.225,5.052-1.79,10.809,2.544,12.578,7.488l2.9-4.751c-1.31-.149,19.294,2.351,24.349,1.719-.448-.089-.977-.462-.679-1.889.515-2.458,1.431-11.343,1.431-11.343,1.016-8.644,1.8-19.507,7.473-23.1a10.414,10.414,0,0,0-1.619-1.405c-.018.012.668.709.691.791a.69.69,0,0,1-.313.543,14.185,14.185,0,0,0-2.615,3.063c-4.682-4.088-12.008-7.608-16.424-6.146-1.743.367-2.516,2.056-3.44.686a99.305,99.305,0,0,0,.651-22.042c-.722-14.321-3.867-22.528-6.983-32.673,1.6-.569,9.826-6.113,9.826-6.113.05-.705-9.92-3.006-13.832-2.6,0,0-.805-.788-.808-.622.023.044.051.1.078.156a1.9,1.9,0,0,0,1.477,3.478c.491,1.212.91,2.273.91,2.273l-5.538-2.424,1.8-6.092-.606-1.354-2.2,7.934,7.069,3.045.478,1.407-2.931,6.019,6.321,3.765.266,1.2-3.4,6.46,6.12,4.727-4.477,5.817,5.511,4.654-.062.771-4.566,5.286,4.72,4.879.131,1.973-5.144,4.6,4.442,6.487a19.678,19.678,0,0,0-4.1,4.1l-1.084-.477,3.945-3.005-4.215-6.123-4.446,4.037,2.41,3.951-1.469-.671-1.346-2.117.22-2.164,4.392-4.021-3.775-5.5-.031-1.008s2.348-2.714,4.057-4.731l-4.786-5.309,3.914-5.022-4.924-4.216.138,1.265,3.633,3.083-2.788,3.4c-.2,2.047.242,5.56-.8,7.1,1.681,1.655.8,5.64-.023,6.932,1.606,1.911.687,6.107-.337,6.284,1.226,1.546.738,4.678-.286,5.7-.328.176,4.376,1.882,7.344,3.931-2.469,4.621-1.893,8.968-2.672,10.535a78.906,78.906,0,0,0-3.617-8.772c-.125-.246-.388-.19-.779-.2-4.908-.439-4.44-4.507-.76-5.549,0,0-7.484-5.6-11.277-6.225-.039-.1-.011-.232.116-.5a14.009,14.009,0,0,0,.93-4.758,20.335,20.335,0,0,0-.945-6.422l1.554-.966c.309-1.338,2.046-1.365,2.213-2.319-.367-4.094-8.318-19.773-10-21.545-.636,11.188.58,23.332-.029,34.5Zm1.815-28.532-1.289,1.065.031-1.693Zm-1.258-2.593.65.487-.654.73Zm79.962-19.968c-.121-.771-.264-1.535-.42-2.284a2.145,2.145,0,0,0-.544-4.216,2.109,2.109,0,0,0-.486.062c-.335-1.181-.657-2.2-.906-2.947l-.432-.31c1.166,4.078-1.094,6.272,2.244,9.66.05.169.295.122.544.035Zm-68.9,110.619-20.793-.137v-7.716l16.024-17.131-6.178-.076.065-29.384a28.749,28.749,0,0,0,4.871-2.865l9.745,5.421.7.361a3.592,3.592,0,0,0-.841.453,3.424,3.424,0,0,0-1.022,3.855c.819,2.194,2.51,1.8,3.919,1.8,1.17.909,2.171,3.948,2.992,5.976a12.865,12.865,0,0,1,.837,2.067,5.271,5.271,0,0,1,.084.885s-.189-.059-.466-.629c-1.552-3.288-5.18-4.878-7.107-1.768-.977,1.906-.3,4.084,1.338,4.693a8.415,8.415,0,0,0,2.21-.012c.1-.06,1.238,1.614,2.846,7.115.66,2.273.833,7.2.2,7.911-1.065,1.3-1.339,3.125-2.24,4.437-.41.823-.388.31-1.03-.609-2.188-3.132-6.036-5.559-9.557-5.406-2.5.109-3.271.966-2.68,1.691a11.774,11.774,0,0,1,2.719,5.119c1.048,4.031,2.158,7.627,4.975,10.761Zm10.556-19.143c-.263-.249-.055-.634-.007-1.33.12-1.767.158-1.787,1.168-1.342a5.9,5.9,0,0,0,6.329-1.694c2.083-2.273,2.149-4.612.848-9.23-1.486-5.194-1.45-5.879.332-6.941,1.071-.918,2.169-2.841,1.758-2.835a.8.8,0,0,0-.328.256,19.038,19.038,0,0,1-1.855,1.45c-2.068,1.423-2.716,2.15-1.766,4.778.938,2.593,1.694,5.128,1.3,5.285-.187.076-.9-.768-1.342-1.023a21.068,21.068,0,0,0-3.047-1.486c-.323,0,.022.236.953.85,2.49,1.644,3.509,3.133,1.106,2.191a5.18,5.18,0,0,0-3.416.042c-.9.3-1.363.592-1.458.252a34.543,34.543,0,0,1,.092-4.855c.03-.1.151-1.2.27-2.427.455-4.673,1.248-8.61,3.29-11.145,6.832-8.484,14.606-6.011,23.339.779-3.257,9.074-3.032,16.146-3.837,19.025a3.06,3.06,0,0,1-2.187-.527,9.043,9.043,0,0,0-3.929-1.187c-1.238-.067-1.453.109-1.342-.26.085-.284,2.08-.873,3.3-1.128,2.222-.465,2.059-.982.188-.812a12.608,12.608,0,0,0-5.884,2.313c-1.4.933-1.447.934-1.072,2.105.09.282.279.7-.386.95-.69.256-.593.539-.2.854.1.077.345.095.444.174.124.1-.009.538-.008.6,2.542,2.162,7.024,2.214,10.707-.005a.531.531,0,0,1,.2.754c-.388.852-4.351,1.874-7.166,1.919-1.283.021-1.534-.143-3.467-.737-.794-.244-1.239-.307-1.311-.186-.164.277.122,1.1.733,1.54,2.064,1.487,5.068,1.369,9.171-.268,2.2-.876,1.966-1.176,1.257,3.18-.2,1.209-.424,2.132-.424,2.132S2541.589,1085.053,2538.432,1083.732Zm2.954-4.091a3.626,3.626,0,0,1-2.483-.791c-.791-.88.039-1.154,1.3-.675a5.56,5.56,0,0,0,4.851-.62c.909-.568,1.1-.264.339.55A5.633,5.633,0,0,1,2541.386,1079.641Zm14.6-1.516c-1.77.012-3.391-.307-4.057-1.059-.608-.686-.022-.756,1.5-.159a9.44,9.44,0,0,0,7.343-.6c1.209-.6,1.581-.727,1.419-.039C2561.474,1077.382,2558.57,1078.107,2555.983,1078.125Zm-14.157-.555c-1.687,0-3.12-.393-2.854-1.279.095-.316.178-.126,1.385.248a7.744,7.744,0,0,0,4.292-.221c1.443-.423,1.72-.519,1.072.108A6.02,6.02,0,0,1,2541.826,1077.57Zm-3.435-.852c-1.708-2.646-2.01-6.527-3.827-8.629-3.361.629-4.952-2.549-2.123-4.666,1.438-.8,3.191-.2,4.479,1.924a8.731,8.731,0,0,1,1.608,4.528C2538.416,1072.569,2538.567,1074.011,2538.391,1076.718Zm19.678-1.215-.744-.089c-.54-1.842-1.75-1.953-2.476-.023l-.563-.093C2555.142,1072.932,2557.287,1072.835,2558.069,1075.5Zm1.154-.035c-.311.018-.569-.31-.706-.744-.29-.98.039-.857.713-.442s1.207.693.814.861A2.87,2.87,0,0,1,2559.223,1075.468Zm-6.4-.628c-.257-.32-.315-.566.016-.8a6.309,6.309,0,0,1,.875-.391c.3-.092.485-.019.359.415a3.237,3.237,0,0,1-.486,1.113A.92.92,0,0,1,2552.828,1074.84Zm-9.028.225-.59-.043c-.618-1.684-2.065-1.635-2.622-.174l-.528,0C2541.056,1072.244,2543.081,1072.715,2543.8,1075.065Zm1.065-.221c-.566,0-1.116-.818-.806-1.237.313-.263,1.708.036,1.832.555C2545.939,1074.474,2545.43,1074.843,2544.865,1074.844Zm-5.461-.159a.3.3,0,0,1-.262-.306c-.144-.69.676-.931.86-.667C2540.1,1073.857,2539.672,1074.408,2539.4,1074.685Zm12.994-7.376a2.677,2.677,0,0,0,1.937-2.928,2.2,2.2,0,0,0-1.449-2.152c-1.648-.375-2.789.781-4.473,1.249-.728.191-.557,1.135-.092,1.545.6.527,1.517.2,2.749-.75,2.417-1.86,3,1.716.795,2.349C2551.523,1066.72,2551.68,1067.511,2552.4,1067.309Zm71.467-82.38-.939-.272.938-1.118s0,.966,0,1.39Zm-2.617-3.826,1.936-2.19-2.63.2,1.784-1.863-2.737-.111,2.012-2.092-2.691.054,1.989-2.02-2.538-.072,1.677-1.849-2.793.216,2.039-2.211-2.992.053,2.268-2.062-2.985.021.9-1.026-.795-.4c-.812.38-5.492,1.844-5.646,2.946,1.033.278,4.076-1.279,4.277-1.02,1.221,5.411,6.483,17.38,9.954,20.871l.243-33.824c.53-.494,1.378-.249,1.919-.468,1.76.092,4.7-2.866,3.163-3.452-.8-.179-5.251-.945-5.264-1.167-.545-9.8.337-19.66-.069-30.124-1.244-.186-5.31-.419-5.31-.419s14.913-15.648,15.206-15.333c-.349,16.771-.166,49.558.127,49.68a27.446,27.446,0,0,1-.345,3.055l.322,104.3a2.769,2.769,0,0,0,.266.764c.306.509.328.639.351,2.2a2.437,2.437,0,0,1-.019,1.217h0l-10.2-10.835-.013-30.32s-9.654-14.336-11.877-20.957c-4.873-9.858-4.346-24.225-7.3-29.725-.061,0-.12,0-.181.008-.071-.8-.08-1.123-.2-1.249-.221-1.792-.462-4.242-.462-4.242l1.068-1.706-1.192-1.536-.007-4.095,1.589-1.625-1.454-1.854.405-3.823,1.133-1.016-.644-.873a13.914,13.914,0,0,1,.151-2.955c.175-1.071,1.225-.927,3.409.19a49.173,49.173,0,0,1,8.708,4.883c-.146,1.99-2.6,6.53.814,11.536,1.261.951,4.924.6,5.244.745l-.028,15.42m.005,1.781-1.651.289,1.666-1.678Zm-78.63,76.975c.135-.016.3-.143.521-.388s.595-.189,1.523-.132a3.667,3.667,0,0,0,1.9-.206c.746-.272.762-.271,1.28-.05a2.681,2.681,0,0,0,2.059.174,2.61,2.61,0,0,1,2.052.09c.57.281.75.225.949-.3a12.381,12.381,0,0,1,.674-1.354c.609-.936.462-1.092-.813-.7a6.053,6.053,0,0,1-3.695-.058,4.163,4.163,0,0,0-3.305.311,2.932,2.932,0,0,1-3.363-.268c-.637-.539-.6-.131-.439.985C2544.728,1059.067,2544.855,1059.748,2545.2,1059.709Zm43.3-3.937a2.142,2.142,0,0,0,0-4.285C2587.94,1051.954,2587.651,1055.686,2588.5,1055.772Zm-41.156-.017a8.092,8.092,0,0,1,5.086-.444c1.578.484,1.2-.708-.513-.857-1.19-.1-1.11-.1-.181-.977.783-.737-.2-.683-.733-.225-.631.54-2.345.4-3.312-.043-.425-.194-.471.613.034.791,1.274.447.968.481-.421.936-.514.117-.534,1.015.04.819Zm41.156-.7c-.673-.255-.252-2.739,0-2.85a1.425,1.425,0,0,1,0,2.85Zm11.369-.089c-.544.187-.926-.722-.926-1.334a1.422,1.422,0,0,1,1.416-1.427c.957.939,1.131,1.985.024,2.575-.16.061-.331.123-.514.186Zm-5.6-2.1,4.555-4.63-4.47-4.553-4.477,4.653Zm-53.944-1.834a1.189,1.189,0,1,1,1.184-1.191A1.187,1.187,0,0,1,2540.318,1051.034Zm53.983-1.555a1.189,1.189,0,1,1,1.18-1.191A1.186,1.186,0,0,1,2594.3,1049.479Zm-48.41-1.137-3.263-4.417,4-3.606-.2,2.241a1.9,1.9,0,0,0-.336,3.646Zm54.33-.244.046-1.2-4.111-4.095,4.069-4.247-.035-1.175-5.064,5.422Zm-11.62,0,5.025-5.185-4.847-5.324-.062,1.349,3.806,3.956-3.879,3.874Zm-72.513-.83a2.2,2.2,0,0,1-2.168-1.008c-.209-.378-.322-.7-.628-.845-.6-.276-1.408-.086-1.446.116a4.377,4.377,0,0,1,1.126.256c.8.724.664,1.18-.471,1.09-.365-.017-1.387-.032-1.41-.434-.227-1.386,1.606-2.4,3.952-2.215,1.673.278,1.68-.371,1.8-1.268a6.065,6.065,0,0,1,.54-1.148c.591-1.066.787-.918.374-1.33a3.4,3.4,0,0,1-.91-1.788l.018-5.621s3.509.015,4.729.9c1.278,2.343,2.146,7.4.27,10.171a16.626,16.626,0,0,1-2.723,2.11A5.066,5.066,0,0,1,2516.088,1047.264Zm19.841-.632.128-1.625a1.9,1.9,0,0,0,.293-3.664l.112-1.412,2.6,3.758Zm10.22-1.1a1.269,1.269,0,0,1,.212-2.3Zm54.3-.594c1.8-.941,1.182-4.587,0-4.285a2.143,2.143,0,0,0,0,4.285Zm-11.762-.054a2.142,2.142,0,0,0,0-4.285C2587.126,1041.1,2588.011,1044.817,2588.69,1044.887Zm-52.579-.543.185-2.338a1.266,1.266,0,0,1-.185,2.338Zm64.341-.12a1.425,1.425,0,0,1,0-2.85C2600.919,1041.281,2601.215,1043.978,2600.452,1044.224Zm-11.762-.054c-.949-.078-.161-2.506,0-2.851a1.426,1.426,0,0,1,0,2.851Zm-47.778-1.354,4.7-4.711-4.643-5.146-3.864,4.723Zm53.462-.9,4.509-4.669-4.262-4.428-4.5,4.774Zm29.658-2.555-1.679-1.757,1.679-.015Zm-82.754-.175a1.189,1.189,0,1,1,1.18-1.19A1.186,1.186,0,0,1,2541.278,1039.19Zm53.12-.643a1.189,1.189,0,1,1,1.18-1.187A1.186,1.186,0,0,1,2594.4,1038.547Zm-5.828-1.389,4.983-5.177-4.813-5.153-.066,1.221,3.857,3.9-3.91,4.026Zm11.716-.007-.05-1.311-4-3.987,4.2-4.25-.17-1.144-5.168,5.375Zm-53.782-1.42-3.606-3.606,3.594-4.025,0,2.09a1.9,1.9,0,0,0,0,3.591Zm-9.942-.186-.039-1.473a1.9,1.9,0,0,0-.1-3.7l-.031-1.167,2.854,3.164Zm83.362-.663s-1.2-1.291-1.612-1.819a2.131,2.131,0,0,0-2.557-3.308c-.219-.326-1.18-1.663-1.18-1.663l5.669.915Zm-31.327-.857a2.143,2.143,0,0,0,0-4.285C2586.458,1030.178,2586.879,1033.922,2588.6,1034.025Zm11.871-.081c3.035-.335,2.248-4.217,0-4.286a2.143,2.143,0,0,0,0,4.286Zm-63.96-.532-.066-2.377a1.268,1.268,0,0,1,.066,2.377Zm52.089-.1c-1.378-.505-.958-2.945,0-2.851a1.425,1.425,0,0,1,0,2.851Zm11.871-.082a1.425,1.425,0,0,1,0-2.85A1.418,1.418,0,0,1,2600.468,1033.226Zm-53.968-.136a1.268,1.268,0,0,1,0-2.206Zm71.364-.608-1.658-2.145a1.4,1.4,0,0,1,.49-.089,1.426,1.426,0,0,1,1.168,2.234Zm-76.736-.974,3.9-4.708-4.786-4.269-3.394,4.227Zm53.227-.566,4.778-4.878-3.374-3.525,1.866.205,2.7,2.769.062-.919-1.47-1.691,1.568.054c.568-.884-2.965-.911-4.964-1.252-2.537-.432-8.062-2.473-6.847-.975l1.393.358-1.315,1.582.015,1.2,2.275-2.451.772.178-3.224,3.343.216,1.02,3.964-4.08,1.153.264-4.03,4.134Zm-53.424-2.808a1.187,1.187,0,1,1,1.184-1.186A1.182,1.182,0,0,1,2540.931,1028.134Zm53.586-.616a1.186,1.186,0,1,1,1.18-1.187A1.183,1.183,0,0,1,2594.517,1027.518Zm26.764-.341s.306-3.9.478-5.782l-6.174-1.66-.767,6.236Zm2.692-.3-.86-.031.144-3.635.835.9Zm-11.423-1.578s-.621-1-1.33-2.11a2.144,2.144,0,0,0-1.516-3.649,2.094,2.094,0,0,0-.621.093c-.278-.527-.794-1.365-.794-1.365l5.291,1.559Zm-66.243-.4-4.153-3.4,3.228-3.994.216,1.714a1.9,1.9,0,0,0,.459,3.676Zm71.85-.058a1.188,1.188,0,1,1,1.184-1.187A1.183,1.183,0,0,1,2618.157,1024.846Zm-83.018-.376a1.9,1.9,0,0,0,0-3.8C2534.727,1020.365,2534.613,1023.932,2535.139,1024.47Zm0-.636c-.112-.566-.249-2.662,0-2.529a1.265,1.265,0,0,1,0,2.529Zm75.679-1.264c-.472-.749-.963-1.555-1.376-2.285a1.426,1.426,0,0,1,1.376,2.285Zm-64.842-.326a1.265,1.265,0,0,1-.3-2.366Zm-5.627-1.113,3.509-4.735-5.325-4.177-3.016,5.181Zm80.111-1.927-3.969-1.168.748-4.083a6.343,6.343,0,0,0,.583,1.183,2.139,2.139,0,0,0,1.859,3.179c.056,0,.114,0,.169-.007C2620.2,1018.832,2620.46,1019.2,2620.46,1019.2Zm-5.882-.993,1.292-6.511-5.969-2.416-1.454,6.879Zm-74.908-.051a1.186,1.186,0,1,1,1.184-1.186A1.182,1.182,0,0,1,2539.67,1018.16Zm79.679-.6a1.422,1.422,0,0,1-1.084-1.384,1.489,1.489,0,0,1,.027-.26C2618.634,1016.466,2619,1017.04,2619.349,1017.559Zm-84.745-.177,3.2-6.062-5.441-3.82.373,1.295,3.891,2.87-2.262,4.17Zm77.325-2.192a1.189,1.189,0,1,1,1.18-1.191A1.186,1.186,0,0,1,2611.929,1015.19Zm-5.634-.6-1.269-2.222a2.134,2.134,0,0,0-1.778-3.8l-.918-1.958,5.542,2.439Zm-72.926-.019a1.508,1.508,0,0,0,1.312-.534,1.9,1.9,0,0,0-1.312-3.267C2531.942,1011.112,2532.708,1014.411,2533.369,1014.566Zm11.465-.524-4.5-3.238,2.63-5.1s.264,1.031.6,2.416a1.9,1.9,0,0,0,.806,3.618h.023C2544.564,1012.566,2544.722,1013.367,2544.834,1014.042Zm-11.465-.112c-.783-.241-.518-2.448,0-2.529a1.2,1.2,0,0,1,1.257,1.264A1.262,1.262,0,0,1,2533.369,1013.93Zm71.345-2.234-1.153-2.463a1.425,1.425,0,0,1,1.153,2.463Zm-60.47-.6a1.263,1.263,0,0,1-.532-2.335c.174.736.357,1.539.532,2.335Zm-5.943-.648,3.085-6.131-5.7-3.494-2.622,5.93Zm76.328-1.179-3.514-1.6.991-3.645.429.892a2.138,2.138,0,0,0,1.569,3.269Zm-5.55-1.729,1.724-6.131-5.476-2.866-2.5,6.17Zm4.613-.221a1.422,1.422,0,0,1-.776-1.268,1.455,1.455,0,0,1,.031-.283Zm-76.4-.5a1.189,1.189,0,1,1,1.18-1.19A1.189,1.189,0,0,1,2537.287,1006.817Zm-5.2-.338,2.614-6.417-6-3.33.452,1.17,4.437,2.575-1.9,4.644Zm74.8-2.14a1.187,1.187,0,1,1,1.18-1.186A1.182,1.182,0,0,1,2606.881,1004.339Zm-76.682-.95a1.9,1.9,0,0,0,1.889-1.9,1.871,1.871,0,0,0-1.889-1.9C2528.3,999.632,2529.269,1003.405,2530.2,1003.389Zm70.812-.213a13.477,13.477,0,0,1-.875-2.036,2.145,2.145,0,0,0-1.068-3.913c-.042,0-.239-.031-.239-.031l-.34-1.291,4.713,2.486A32.5,32.5,0,0,1,2601.011,1003.176Zm-70.812-.423c-.551-.232-.7-2.457,0-2.528a1.264,1.264,0,0,1,0,2.528Zm11.615-.736-4.631-2.668,2.325-5.046.691,2.312a1.9,1.9,0,0,0,1.037,3.47Zm58.071-1.59-.736-2.467a1.3,1.3,0,0,1,1.211,1.408A1.42,1.42,0,0,1,2599.885,1000.427Zm-58.846-1a1.264,1.264,0,0,1-.644-2.16Zm69.116-.163-3.583-2.1,1.616-4.2.471,1.516a2.141,2.141,0,0,0,1.083,3.467Zm-74.785-.085,2.171-5.852-6.282-3.319-1.569,5.987Zm74.091-2.145a1.415,1.415,0,0,1-.517-1.655Zm-4.693-.29,2.549-5.938-5.3-3.513-2.761,6.189Zm-71.368-.966a1.187,1.187,0,1,1,1.18-1.187A1.183,1.183,0,0,1,2533.4,995.777Zm-6.215-2.609a2,2,0,0,0,.842-1.68,1.891,1.891,0,0,0-1.889-1.9,2.84,2.84,0,0,0-.628.069C2524.966,990.391,2525.738,993.2,2527.185,993.168Zm76,.17a1.189,1.189,0,1,1,1.18-1.187A1.183,1.183,0,0,1,2603.183,993.338Zm-77.325-3.058a.539.539,0,0,1,.28-.056,1.282,1.282,0,0,1,1.257,1.264,1.266,1.266,0,0,1-.468.984C2525.842,993.291,2525.682,990.117,2525.858,990.28Zm70.344-1.01c-.217-.974-.455-1.9-.69-2.761a1.387,1.387,0,0,1,.3-.035,1.427,1.427,0,0,1,.393,2.8Zm-65.837-.7,1.642-6.581-6.286-2.3-1.2,6.228Zm76.632-.089-3.336-2.316a31.4,31.4,0,0,1,1.99-4.009l.258,1.21a2.145,2.145,0,0,0,.822,3.862Zm-70.535-.315a1.254,1.254,0,0,1-1.254-1.26.855.855,0,0,1,.5-.868c.276.624.655,1.243,1,2.082A.739.739,0,0,1,2536.462,988.168Zm70.1-1.737a1.43,1.43,0,0,1-.482-2.268Zm-5.01-.962,3.028-5.289-4.443-3.416-3.471,5.293Zm-73.3-.178a1.189,1.189,0,1,1,1.184-1.19A1.186,1.186,0,0,1,2528.251,985.291Zm-5.437-1.644-.772-1.2a1.9,1.9,0,0,0-1.508-3.045,1.865,1.865,0,0,0-.412.043l-.621-.965,3.941,1.419Zm77.831-1.412a1.186,1.186,0,1,1,1.184-1.186A1.182,1.182,0,0,1,2600.645,982.235Zm-78.981-.38-1.164-1.819h.034A1.2,1.2,0,0,1,2521.664,981.855Zm73.316-.081,4.288-5.72-5.688-4.239.089,1.264,4.157,2.986-3.162,4.235Zm-62.626-1.935-5.661-1.788,1.211-5.646,1.334,2.23a1.894,1.894,0,0,0,1.9,3.176Zm61.673-.981a2.143,2.143,0,0,0-.216-4.274.366.366,0,1,0,0,.718,1.425,1.425,0,0,1,.093,2.846l.1.71Zm-69.362-.609.983-6.535-6.413-1.376-.479,5.925Zm80.187-.159-3.027-2.249,2.3-3.235.123.927a2.146,2.146,0,0,0,.5,3.766Zm-74.318-.815a1.264,1.264,0,0,1-.956-2.078l1.222,2.047A1.227,1.227,0,0,1,2530.534,977.275Zm20.235-.885c-.167-.037-.408-.076-.359-.177s1.076-1.237,1.076-1.237l-.115-1.055-1.82,2.075-.733-.272,2.557-2.613.119-.974-3.4,3.362-1.454-.4,3.961-3.921-4.563-4.649-4.566,4.68,3.244,3.564-1.6-.151a9.833,9.833,0,0,0-2.665-2.668l.124.931c.063-.044,1.509,1.367,1.28,1.6l-1.276-.093c-1.5.408,1.832.959,5.046,1.5,1.667.066,6.522,2.218,5.364.572-.069-.03-.145-.05-.21-.072Zm53.864.044a1.424,1.424,0,0,1-.27-2.032Zm-82.317-1.136a1.187,1.187,0,1,1,1.18-1.187A1.183,1.183,0,0,1,2522.316,975.3Zm77.6-.117,3.687-4.711-4.177-4.03-4.277,5.042Zm-82.791-1.206-.288-.05V970.71l.454.1Zm28.781-1.493a1.186,1.186,0,1,1,1.184-1.186A1.182,1.182,0,0,1,2545.91,972.482Zm53.439-.337a1.189,1.189,0,1,1,1.18-1.191A1.187,1.187,0,0,1,2599.349,972.145Zm-5.692-.935,4.763-5.708-5.114-5.309.016,1.187,3.972,4.188-3.722,4.363Zm-53.254-.523,4.9-4.979-4.887-5.092-.115,1.144,3.771,3.827-3.532,3.669Zm10.775-.516-.008-1.353-3.073-3.145,3.147-3.231-.02-1.372-4.462,4.626Zm-25.11-.593-5.773-1.1.355-5.483,1.388,1.687a1.9,1.9,0,0,0,1.512,3.036,1.862,1.862,0,0,0,.829-.194Zm77.8-.978-2.846-3.009,2.719-3.091.023,1.051a2.146,2.146,0,0,0,.081,3.968Zm-10.551-.76a2.145,2.145,0,0,0,0-4.176v.748a1.425,1.425,0,0,1,0,2.68Zm-41.832-.2c.876-.58.485-3.854,0-3.8a1.9,1.9,0,0,0,0,3.8Zm-11.18-.31a1.9,1.9,0,0,0,0-3.8C2539.48,963.8,2539.819,967.138,2540.31,967.329Zm-16.76-.245a1.257,1.257,0,0,1-1.257-1.26,1.274,1.274,0,0,1,.17-.628l1.5,1.822A1.256,1.256,0,0,1,2523.55,967.084Zm27.94-.081a1.265,1.265,0,0,1,0-2.529C2551.427,964.927,2551.727,967.055,2551.49,967Zm52.344-.291a1.435,1.435,0,0,1-.05-2.354Zm-63.524-.019c-.157-.512-.353-2.618,0-2.529a1.265,1.265,0,0,1,0,2.529Zm5.716-1.842,4.6-4.6-4.7-4.828-4.442,4.766Zm53.073-.249,4.118-4.471-3.968-5.181-4.655,4.661Zm22.329-.163c-1.267,0-2.45-.219-2.931-1.066-1.94-2.612-1.383-7.978-.039-9.823,3.018-2.754,4.725-3.484,8.13-2.854-.391,1.548,1.244,2.382,1.48,2.04.03-.005.157-.276,0-.3a1.174,1.174,0,0,1-.942-1.558c1.3.041,2.14.018,2.272.6.082.358-.127.911-.883,1.533-.887.714-4.974.7-4.974.7a4.541,4.541,0,0,1-.4,1.842c-.361.592-.86,1.248-.517,1.52a2.087,2.087,0,0,1,1.072,1.707c.159,1.607-.092,5.476-.035,5.518C2622.976,964.365,2622.187,964.44,2621.428,964.439Zm-75.4-2.986a1.187,1.187,0,1,1,1.18-1.186A1.186,1.186,0,0,1,2546.033,961.453Zm53.035-.461a1.189,1.189,0,1,1,1.184-1.187A1.183,1.183,0,0,1,2599.068,960.992Zm-58.661-1.117,4.809-4.933-5.125-5.332.161,1.447,3.691,3.819-3.61,3.785Zm10.863-.093.132-1.365-3.406-3.6,3.093-3.2.046-1.551-4.55,4.824Zm52.653-1.861-2.719-3.836,3.236-2.854-.085,1.09a2.145,2.145,0,0,0-.312,4.068Zm-10.181-.757c.063-.795.106-1.438.146-2.024a2.145,2.145,0,0,0,.29-4c.058-.614.134-1.294.243-2.148l3.251,4.781Zm-76.88-.224-.111-13.414-9.689-10.087v-37.77h39.747l10.238,17.349c.2.343.5.221.722.551l-3.035,16.3c-4.779-2.213-8.8,3.51-6.19,8.147-14.729,5.41-31.682,18.925-31.682,18.925Zm23.518-.074a1.9,1.9,0,0,0,0-3.8C2539.02,953.692,2539.709,956.84,2540.38,956.866Zm11-.113c.525-.6.824-3.826,0-3.8a1.92,1.92,0,0,0-1.889,1.9A1.892,1.892,0,0,0,2551.382,956.753Zm-11-.523c-.995-.736-.092-2.356,0-2.529a1.265,1.265,0,0,1,0,2.529Zm11-.113a1.262,1.262,0,0,1,0-2.524C2551.308,953.8,2551.7,956.032,2551.382,956.117Zm52.718-.5a1.427,1.427,0,0,1,.2-2.524Zm-10.154-1.272c.059-.91.1-1.658.162-2.416a1.425,1.425,0,0,1-.162,2.416Zm-47.859-.438,4.485-4.51-4.67-4.878-4.439,4.723Zm53.351-1.171,4.7-3.793-3.023-4.661-1.053-.636-4.3,3.7Zm18.857-.314-11.055-5.933s2.867-1.208,2.788-3.134c-.114-2.154-1.4-3.914-3.945-3.253-.585.085-.852-.159-1.416-1.482-1.079-2.532-2.144-5.313-1.727-5.227a8.453,8.453,0,0,0,2.749,1.869,3.115,3.115,0,0,0,3.849-4.215c-.877-2.08-2.336-2.2-3.8-1.986-.214-.049-.4-.286-.54-.558a22.4,22.4,0,0,1-1.72-5.224c-.849-4-1.04-9-.42-10.257.857-1.739,2.04-4.095,2.04-4.095,2.306,4.42,7.331,8.293,12.977,6.922.191-.119.229-.743-.027-1.109-1.831-2.417-2.141-4.631-2.8-7.007-1.677-6.09-5.064-9.576-5.017-8.953l1.773-3.232s15.353-.076,21.637,0v7.419l-16.46,16.952,6.521.277-.226,29.224C2621.1,949.92,2618.295,952.422,2618.295,952.422Zm-72.289-1.873a1.189,1.189,0,1,1,1.184-1.187A1.183,1.183,0,0,1,2546.006,950.549Zm53.933-1.2a1.189,1.189,0,1,1,1.18-1.187A1.187,1.187,0,0,1,2599.939,949.347Zm-48.653-1.09-.116-1.171-3.235-3.409,3-3.064c.437-.6,1.554-.47,1.905-.511-.242-.749-.913-.657-1.6-.947l-4.354,4.479Zm-.05-2.649c.785-.248.646-3.606,0-3.8a1.9,1.9,0,0,0,0,3.8Zm-11.095-.516a7.74,7.74,0,0,1,0-2.528,1.264,1.264,0,0,1,0,2.528Zm11.095-.12a1.264,1.264,0,0,1,0-2.528C2551.405,942.735,2551.685,944.931,2551.236,944.972Zm38.9-.609a2.022,2.022,0,0,1,.652-.027c.656,0,1.471.465,1.65.38.206-.1.136-.529.126-.723-.023-.179-.522-.239-.727-.374-.331-.219-.241-.3.135-.384.333-.078.6-.1.813-.4.132-.188.144-.518-.081-.514-1.31.019-2.972.562-4.54.033-.9-.322-1.479-.522-1.622-.4-.3.258.75,1.266,1.754,1.455s1.375.112,1.047.415c-.169.157-.4.1-.414.209a.619.619,0,0,0,.458.685c.295.048.526-.262.749-.352Zm-5.634-3.164a.885.885,0,0,0,.466-.244c.6-.4,1.533-.933,3.787-.311a6.074,6.074,0,0,0,3.441-.177,3.417,3.417,0,0,1,2.259-.02c.708.341,1.482.86,1.338.325a12.96,12.96,0,0,1-.088-1.384c-.023-1.094-.1-2.006-.883-1.148-.34.372-.751.375-1.52.07-.548-.218-.933-.365-1.357-.085a2.19,2.19,0,0,1-2.233.116,1.906,1.906,0,0,0-1.747.217,1.476,1.476,0,0,1-2.237-.682c-.337-.556-.5.236-1.126,1.884C2584.286,940.547,2584.187,941.2,2584.506,941.2Zm5.309-6.126c.6-.343,1.446-.446,2.058-.851,1.295-.9.081-1.646-.818-1.459a3.9,3.9,0,0,0-1.266.583c-1.621,1.082-2.519.924-2.672-.386-.166-1.416,2-2.054,1.8-2.712-.272-.428-1.324.161-1.976,1.049C2585.008,933.932,2587.136,936.594,2589.815,935.073Zm-8.4-7.429a17.371,17.371,0,0,0,7.171-2.573c1.306-1.023,1.663-1.28,1.11-1.687-.506-.373-.9-.386-.2-1.1a3.736,3.736,0,0,0,.667-.892c-.007-.513-3.109-2.035-4.89-2.273a11.435,11.435,0,0,0-4.79.512c-1.577.64-1.63,1.077-.14.637a11.366,11.366,0,0,1,3.95-.5,12.659,12.659,0,0,1,3.236.748c1.905.685,1.573,1.484-.351.8a9.615,9.615,0,0,0-7.64.209c-1.029.467-1.317.834-1.5.675a1.8,1.8,0,0,1-.177-.364c-.065-.17-.071.435-.162,1.4-.076.8-.15,1.865-.15,1.865a2.955,2.955,0,0,0,.15-.663c-.02-1.4.653-1.4,2.557-.334,2.237,1.236,3.325,1.116,5.452,1.1.931-.006.973.264-.337.7-.625.208-1.583.542-3.01,1C2581.181,927.283,2580.863,927.708,2581.419,927.644Zm16.866-2.814c-.811,0-1.536-.692-1.743-2.036l.806.059c.268,2,1.715,1.549,2.283.356l.709-.019A2.528,2.528,0,0,1,2598.285,924.83Zm-2.06-.124a4.717,4.717,0,0,1-1.947-.942c-.1-.251.479-.521.987-.671.585-.172.466-.2.65.151C2596.173,923.731,2596.626,924.686,2596.225,924.706Zm3.892-.1a1.792,1.792,0,0,1,.783-1.1.4.4,0,0,1,.381.675c-.291.152-1.1.738-1.164.43Zm-15.685-.1a2.255,2.255,0,0,1-2.059-2.23l.517.011c.478,2.563,2.437,1.983,2.877.156l.609.174c-.508,1.324-1.242,1.86-1.944,1.889Zm2.013-.183c-.28.019-.244-.21.093-.892.159-.321.272-.5.551-.492a1.054,1.054,0,0,1,.826.481c.132.3-.177.531-.833.74a3.236,3.236,0,0,1-.637.163Zm-4.307-.19a3.355,3.355,0,0,1-1.022-.345c-1.317-.583-1.472-.824-.783-1.155a6.656,6.656,0,0,1,.763-.326c.618-.207.6.14.764.57.094.242.208.463.328.721C2582.355,923.958,2582.362,924.134,2582.138,924.132Zm19.286-2.171a16.069,16.069,0,0,1-1.647-.632,6.823,6.823,0,0,0-4.566.271c-.749.24-1,.391-.709-.047a6.1,6.1,0,0,1,2.553-1.24c1.951-.487,4.53.436,4.531,1.442-.014.145-.063.205-.162.206Zm-6.46-1.656c-.2,0-.005-.3.409-.768a4.651,4.651,0,0,1,2.619-1.392c2.1-.374,3.84.2,3.856,1.384.013.852-.136.864-1.172.326a6.821,6.821,0,0,0-4.451-.05,8.031,8.031,0,0,0-1.153.484.412.412,0,0,1-.108.016Zm-16.143-1.144c1.594-.423,3.286-.849,4.832-1.148a9.877,9.877,0,0,1,5.334.6c.931.461,1.258.189.848-.706a2.832,2.832,0,0,0-1.866-1.617c-1.736-.609-5.8.38-8.828,1.951-1.757.785-1.42,1.261-.32.923Zm26.243-12.041-2.719,4.646c-18.418-3.586-38.344-.982-44.443-.133,0,0-6.659-11.079-9.053-14.968-.226-.414-.845-1.815-.845-1.815l62.884.05c-.88,1.781-1.716,4.082-1.716,4.082,1.921.774,3.412,3.661,4.334,6.1.81,2.138,2.212,7.358,4.057,9.9C2614.336,916.821,2606.221,912.714,2605.064,907.12Z" fill="#131f67"/>
            <path id="path3302-0-9-2" d="M2548.539,895.371h62.283l-8.115,16.311a144.738,144.738,0,0,0-44.821.33l-9.347-16.64Zm85.147,13.218.13,7.82-8.067-.179Zm-68.1,52.58L2565.5,984.9a101.821,101.821,0,0,0-9.744-6.383l.128-24.556Zm27.148,5.192c.572,13.421,2.516,18.66,3.777,25.464l-11.55,7.506-.033-27.55Zm31.576,23.542-.066,33.053c-10.617-15.354-17.324-30.949-19.174-52,2.886-1.17,5.7-2.463,8.662-3.507a136.915,136.915,0,0,0,10.578,22.457Zm-107.5-13.609c9.811,12.534,15.658,29.233,18.746,49.8l-8.982,4.385c-2.981-7.263-6.006-14.979-9.777-21.007Zm38.334,22.168-.036,27.638-7.668,5.006a128.691,128.691,0,0,0-3.782-25.524Zm20.182,14.554a48.884,48.884,0,0,0,9.065,5.621l-.478,24.52-8.656-6.7Zm-60.842,69.087s-5.4,5.513-7.4,7.3l-.044-7.486Zm67.983,3.569,10.066,17.273-63.1.533,8.107-17.393C2554.254,1089.157,2568.551,1087.769,2582.469,1085.672Z" fill="#d40000"/>
            <path id="path3300-3-9-0" d="M2553.55,930.3a7.971,7.971,0,0,0-3.107,3.236c-1.093,2.16-.1,4.282-.429,4.29-2.014-.6-1.434-4.464-.734-5.66a4.179,4.179,0,0,1,2.908-1.941c1.161-.2,1.362.075,1.362.075Zm-3.281,8.439a.943.943,0,0,1,.849.341,1.663,1.663,0,0,0,1.052.613c.319-.046.465.011.467.182,0,.14-.14.163-.663.116-.319-.028-.992.478-.992.478l-.007,36.483a43.505,43.505,0,0,0-10.393-2.265l-.22-32.518s-4.807,2.532-6.552,3.543l-.063,29.108-3.405.374,5.377,10.987c.755-.584,11.339.411,13.982,2.14l-9.658,6.059c.982,3.009,1.874,5.884,2.694,8.93.025.094.2.084.229.178.2.743.34,1.077.526,1.826.035.139-.022.366.018.505a110.952,110.952,0,0,1,3.789,25.308c-.03.081-.338.011-.338.011l.062,5.223.343-.229-.034,2.363-.349.347c-.007.458-.039,1.323-.039,1.323l.446.281-.231,3.96-.46.068-.253,6.27,12.231-7.961s7.981,5.747,11.472,8.728c-3.841,2.626-4.86,7.747-5.811,12a71.411,71.411,0,0,0-1.57,11.2,110.132,110.132,0,0,1-1.454,11.281c-.309,1.476-.3,1.638.135,1.663.15.009,0,.057-.343.109-7.842.315-16.263-.859-23.742-1.837,0,0-1.85,3.466-2.492,4.744a17.771,17.771,0,0,0-.777-1.988,12.951,12.951,0,0,0-4.759-4.553,13.5,13.5,0,0,0-3.856-1.3,6.287,6.287,0,0,0-2.881.477c-.31.13-.553.294-.555.458s.241.333.555.632a4.586,4.586,0,0,1,.794,1.1,28.006,28.006,0,0,1,1.836,4.712c1.3,3.464,2.271,7.645,5.267,9.487l-2.067,4.159,65.085-.018-10.071-17.056s-.305-.509-.405-.689c-.3-.539-.419-.462-.419-.462a176.339,176.339,0,0,1,2.822-17.6s.131.46,2.043.433c5.6-.081,7.558-6.337,2.877-9.106-.441-.263-1.192-.768-1.932-1.159-.213-.111-2.9-1.694-2.9-1.694l3.216,1.454.232-37.534s6.707,2.026,11.128,2.217l-.044,32.544,6.175-3.351.28-29.1,3.382-.22s-1.281-2.741-1.566-3.317c-.572-1.153-2.01-3.718-2.992-5.34-.349-.573-1.161-1.849-1.161-1.849a34.831,34.831,0,0,1-13.31-2.674l9.7-6.346c-4.051-11.479-9.1-28.276-6.289-55.386l-.679.433-.187,2.921-12.075,8.356-14.9-12.063s1.082.03,1.324.04c3.8.135,6.475-3.772,7.393-7.035,1.618-5.75,1.83-7.169,2.575-16.288a84.084,84.084,0,0,1,1.728-10.521,7.8,7.8,0,0,0,.325-1.9,90.793,90.793,0,0,0-21.425,1.881s-2.506,11.958-3.4,17.035a4.424,4.424,0,0,0-2.354-.683c-5.875.643-5.372,8.744-2.343,8.971Zm26.15,163.942-3.08-10.866,7.544-.7,6.263,11.477Zm-46.371.152,7.754-16.54c16.267,2.3,25.657,2.514,44.539-.175l9.815,16.492-2.583.023-7.4-13.168-10.991,1.1,3.038,12.05-2.9.09-3.006-11.825-17.013.091c-.55,3.962-1.618,11.71-1.618,11.71l-3.142-.035,2.093-11.972-10.048-1.267-5.807,13.383Zm21.818-.153.991-10.057,14.072-.109,2.251,10.173Zm-17.051.193,4.778-11.937,6.961.935-1.9,10.836Zm-8.583-11.7c-.309-1.019-.624-2.018-.7-2.222-1.136-3.095-1.6-4.117-2.345-5.146-.123-.17-.16-.15.02-.3,3.419-1.68,9.6,2.455,11.088,6.243-.187.366-1.014,1.9-1.014,1.9-.432-.847-.108-1.683-.392-2.443-.069-.324-.777,2.19-.777,2.19a7.245,7.245,0,0,1-.765-3.262c-.013-.331-.888,1.439-.888,1.439a7.8,7.8,0,0,1-1.038-4.072c-1.24,1.513-.467,2.38-2.382-1.476-.221.4-.114.827-.4.714a7.347,7.347,0,0,0-2.455-.8c.562.707,1.652,1.08,1.951,2.019a6.3,6.3,0,0,0-.921-.031,6.981,6.981,0,0,1,2.655,2.026c-.219.081-1.1-.071-1.066.023,1.325,1.2,3.314,2.177.438,1.905,1.869,1.322,3.953,2.236.705,2.137,2.317,1.1,2.942,1.779,2.51,1.966a5.414,5.414,0,0,0-2.04.041c1.861.764,2.628,1.113,2.7,1.364.09.305-.794.472-1.4,1.132,0,0,.749-.171,1.076.178,0,0-.364,1.054-.644,1.663-2.37-2.163-3.3-5.225-3.916-7.195Zm-19.965,4.2s10.471-11.344,15.656-16.973l-5.066-.075-.232-30.718c-1.765-.239-4.826-.005-5.985-1.187-.719-1.07,2.065-3.175,3.632-2.733a6.332,6.332,0,0,0,2.338.059l-.106-34.229c3.343,6.24,5.9,10.189,9.6,21.025-1.072.75-2.175,1.328-2.359,1.455,1.423,3.45,2.407,8.874.421,13.6l-1.369-.82a16.082,16.082,0,0,0-.268-11.094l-.376.4a11.048,11.048,0,0,1,.667,1.655,9.9,9.9,0,0,1,.571,2.808,15.269,15.269,0,0,1-.421,4.878c-.148.48-.359,1.2-.47,1.416a2.321,2.321,0,0,0-.216.485c4.028,1.641,6.916,4.041,10.389,5.758.132.065.242.12.33.17.44.246.324.33-.365.606-1.45.58-2.041,1.284-2.009,2.7.046,2.012,1.116,2.8,3.456,2.664.849-.048.905-.036,1.056.256.354.683,1.576,3.4,1.578,3.506a13.287,13.287,0,0,0,.566,1.357,16.84,16.84,0,0,1,1.263,3.348c.114.565.44.787.523.2a33.194,33.194,0,0,1,2.3-9.222,10.489,10.489,0,0,0,.556-1.45c-.107-.095-1.97-.965-2.843-1.326-3.4-1.408-4.948-2.277-4.423-2.486.365-.146.5-.4.59-1.128.244-1.908.217-2.883-.1-3.487-.333-.633-.325-.678.22-1.035.473-.31.371-.311.5-1.9a20.674,20.674,0,0,0,.049-3.093l-.848-1.094.863-1.078.2-4.953-1.164-.888,1.088-1.08-.388-4.516a2.225,2.225,0,0,1,.33-.625c-1.842-19.1-8.962-38.352-19.627-51.472l-.106-31.379-10.451-10.516Zm.818-2.019v-2.474l8.875-9.611-8.875-.155v-2.1l13.625.027Zm.137-4.2-.023-6.926,6.634-.009Zm60.867-3.491-1.383.058c.055-1.4.6-7.843,1.263-13.488.741-6.364,2.259-11.855,2.55-11.855l1.336.814c-2.213,7.3-2.8,16.7-3.766,24.471Zm-6.276.2c.2-3.941,1.016-6.7,1.267-11.356.311-5.691,1.284-12.776,3.83-18.653a8.719,8.719,0,0,1,4.665-4.714c3.9-1.537,7.206,3.321,4.571,6.893-2.082,2.824-5.343,2.788-6.332-.069-.818-2.362,1.809-5.326,3.906-4.406,1.458.641,1.086,3.28-.551,3.9-.678.258-1.253-.608-.918-1.384.264-.611.292-.993-.065-.734-1.48,1.05-.366,3.55,1.472,2.615,2.451-1.248,2.038-4.914-.431-5.075-3.125-.308-5.536,3.562-7.08,10.911-1.694,8.225-1.272,15.588-2.9,22.046Zm3.994-.138-1.643.05c.131-.611.155-1.262.267-2.009.647-4.315,1.03-10.613,1.694-15.549.936-6.965,2.614-11.2,2.657-10.682a7.4,7.4,0,0,0,1.125,2.2,52.8,52.8,0,0,0-2.812,12.814C2566.588,1077.191,2566.445,1081.492,2565.807,1085.732Zm7.022-.4-1.442.074a155.016,155.016,0,0,1,2.7-21.2c.246-1.083.328-1.553.532-1.643.227-.1.6.267,1.523.78C2574.748,1063.147,2573.626,1079.045,2572.829,1085.333Zm-2.248.132-1.565.155c.233-3.339.793-8.587,1.421-13.319.758-5.72,1.752-10.79,2.247-10.714l1.3.454C2573.116,1061.767,2570.966,1078.834,2570.581,1085.465Zm2.97-.162c1.022-6.991,1.12-15.158,3.237-21.685l1.465.685c-.4-.132-1.443,4.247-1.795,9.2-.307,4.313-1.082,9.005-1.311,11.6Zm2.416-.257c.583-2.468.582-6.106,1.019-9.14.541-3.756,1.117-11.387,1.981-11.212l1.5.763c-.785-.238-2.155,14.218-2.988,19.353Zm3.94-.612-1.519.207c.731-5.644,2.054-18.8,2.837-18.9l1.423.76A173.806,173.806,0,0,0,2579.907,1084.434Zm.944-.22c.63-6.2,1.22-12.486,2.535-17.311l1.558.707s-1.081,5.306-1.594,9.033c-.506,3.678-.583,4.2-.744,5.161a10.2,10.2,0,0,1-.454,2.193Zm-66.736-6.358.15-29.791,1.727.066-.071,29.771Zm-4.081-.236a1.188,1.188,0,1,1,1.181-1.187A1.183,1.183,0,0,1,2510.034,1077.62Zm27.825-10.932c-1.222-2.249-2.161-3.074-3.238-3.5a2.9,2.9,0,0,0-3.65,3.811c.513,1.407,1.815,1.616,3.466,1.336,0,0,.711.508,1.548,3.057a52.384,52.384,0,0,0,2.545,6.123C2538.628,1073.725,2539.514,1069.784,2537.859,1066.688Zm-29.571,8.167a1.186,1.186,0,1,1,1.18-1.187A1.186,1.186,0,0,1,2508.288,1074.855Zm3.239-.046a1.189,1.189,0,1,1,1.184-1.187A1.183,1.183,0,0,1,2511.527,1074.809Zm26.474.284c-1.1-2.284-1.327-4-2.39-6.074-.466-.9-.883-1.678-.883-1.678-3.471,1.641-4.806-2.492-1.991-3.812,2.771-1.3,5.89,3.637,5.587,8.952a19.8,19.8,0,0,1-.323,2.612Zm-28.028-3.084a1.189,1.189,0,1,1,1.18-1.187A1.183,1.183,0,0,1,2509.973,1072.009Zm-3.127-2.23v-2.539l6.17-6.02v2.456Zm81.123-1.955c-1.179-.015-1.744-.366-.963-.678,2.59-1.035,3.741-2.683,3.883-5.565.007-1.457-.166-1.648.725-.834C2593.891,1063.95,2590.61,1067.843,2587.969,1067.824Zm-2.165-1.042a2.5,2.5,0,0,1-.856-.116c-.694-.22-.44-.236.73-1.017,2.231-1.489,2.91-2.948,3.009-5.929.028-.449-.064-.822-.026-1.011.031-.142.2-.1.308-.091.426.071.688.525.811.907,1.414,2.84-1.2,7.151-3.976,7.257Zm-2.416-.986a1.081,1.081,0,0,1-.5-.1c-.545-.274-.344-.314.656-1.03a7.027,7.027,0,0,0,2.857-5.228c.132-1.339-.9-2.931.923-1.619,1.278,1.067,1.023,3.839-.333,5.741a5.661,5.661,0,0,1-3.6,2.233Zm-76.542.58v-2.89l6.17-5.894v2.959Zm74.56-1.507c-.7-.007-1.015-.459-.2-.977a6.952,6.952,0,0,0,3.081-6.185c-.113-1.519-.171-1.791.794-.787,1.554,1.616.459,6.005-2.553,7.647A2.41,2.41,0,0,1,2581.406,1064.869Zm-2.044-.841c-1.15.028-1.31-.557-.281-1.28a7.637,7.637,0,0,0,3.243-6.015c-.014-1.025.066-1.153.517-.806,2.268,1.741-.163,7.817-3.236,8.085C2579.52,1064.02,2579.439,1064.026,2579.362,1064.028Zm-40.574-.19c-.282-.02-.784-1.024-1.573-3.126a21.534,21.534,0,0,0-2.248-4.677,1.866,1.866,0,0,0-.768.272c-2.589,1.366-4.411-2.51-1.859-3.952,1.816-1.025,3.529.075,5.11,3.285,1.864,3.784,2.375,6.594,1.473,8.109a.146.146,0,0,1-.135.089Zm38.469-1.032a1.742,1.742,0,0,1-.9-.194c-.67-.348-.573-.607.455-1.213a5.237,5.237,0,0,0,2.087-1.943,5.431,5.431,0,0,0,1.11-3.863q0-2.275,1.35-.252c1.554,2.325-1.562,7.352-4.1,7.465Zm-2.584-1.361c-1.016.023-1.686-.394-.713-.911,3.094-1.644,4.394-4.006,3.8-6.911-.186-.91.849-.139,1.477,1.1.918,1.811-.775,5.314-3.085,6.383a3.806,3.806,0,0,1-1.481.337Zm-34.92-2.672c-.194-.014-.419-.531-.914-1.807-.323-.831-.756-1.826-.965-2.21a2.173,2.173,0,0,1-.32-.8c.175-.292,1.609.2,2.091.725a3.771,3.771,0,0,1,.478,3.63c-.148.3-.254.474-.37.465Zm-29.719-2.191a1.189,1.189,0,1,1,1.181-1.186A1.182,1.182,0,0,1,2510.034,1056.582Zm121.121-1.915a1.189,1.189,0,1,1,1.18-1.191A1.186,1.186,0,0,1,2631.155,1054.667Zm-48.8-.357c-1.29.045-1.688-.567-1.9-2.536-.149-1.352-.439-1.478-2.553-1.121-2.232.377-2.98-.232-3.139-2.556-.127-1.843-.111-1.828-2.65-1.846-2.5-.017-2.767-.271-3.054-2.846-.214-1.913-.142-1.86-2.6-1.826-2.723.036-2.967-.166-3.151-2.587-.15-1.962-.279-2.089-2-1.947a35.841,35.841,0,0,1-5.372.027c-1.448-.317-1.509-.258-1.82,1.707-.41,2.586-.919,2.91-4.08,2.59-1.555-.157-1.734-.125-1.955,1.25-.294,1.833-.659,2.37-.66.782,0-4.012.275-4.2,2.938-3.485,2,.536,2.032.124,2.241-1.812.184-1.707.471-2.407,1.1-2.68a6.684,6.684,0,0,1,2.772.156,30.583,30.583,0,0,0,3.641.09c4.429-.047,4.476-.058,4.472,3.071,0,1.317.286,1.6,2.6,1.53,2.908-.088,2.756-.167,3.25,3.345.173,1.217.269,1.264,2.677,1.229,2.623-.038,3.22-.076,3.066,2.148-.141,2.021.349,2.551,2.537,2.039,2.332-.546,2.778.449,3,2.257.211,1.673.352,1.255,1.465,1.342,1.233.1,1.089,1.492-.22,1.621-.224.022-.425.051-.609.058Zm-74.149-.609a1.187,1.187,0,1,1,1.18-1.187A1.183,1.183,0,0,1,2508.21,1053.7Zm3.325-.066a1.189,1.189,0,1,1,1.18-1.19A1.186,1.186,0,0,1,2511.535,1053.635Zm117.85-1.978a1.186,1.186,0,1,1,1.18-1.186A1.186,1.186,0,0,1,2629.385,1051.657Zm3.316-.027a1.187,1.187,0,1,1,1.181-1.186A1.183,1.183,0,0,1,2632.7,1051.63Zm-61.714-1.011-12.278-9.213-11.622,7.821.071-2.853,11.538-7.715s9.82,7.646,14.566,11.338Zm-61.107-.137a1.189,1.189,0,1,1,1.18-1.19A1.186,1.186,0,0,1,2509.88,1050.482Zm20.111-1.555-2.913-4.758,2.907-2.121-2.645-3.4,2.853-2.941-3.136-2,2.932-4.107,4.061-1.814-4.061,5.365,3.361,2.32-3.188,3.453,2.86,3.769-2.96,2.326,3.2,5.282-.209.254Zm53.83,1.051-21.574-16.229s-1.992-1.508-2.563-1.872c-1.212-.772-1.453-.463-2.662.371-2.726,1.628-9.324,6.143-9.324,6.143l.052-2.337s6.637-4.994,10.311-7.065a1.355,1.355,0,0,1,1.472.283c8.012,6.381,16.212,12.567,24.335,18.819Zm-49.573-.259c-.09-.163-.381-.222-.521-.441-.956-1.487-2.689-4.131-2.689-4.131l3.034-2.42-2.786-3.678,3.481-3.556-3.555-2.433a34.39,34.39,0,0,1,3.876-4.952l.041,2.64-1.426,1.728,1.636,1.132,0,3.63L2533.68,1039l1.524,1.548-.272,3.97-1.453,1.156,1.2,1.652Zm96.866-.809a1.187,1.187,0,1,1,1.18-1.187A1.186,1.186,0,0,1,2631.114,1048.91Zm-124.033-4.329,6-5.577v2.533l-6,5.923Zm120.6,2.724v-3.057l6.408-5.95v2.951Zm-120.6-3.505v-3.035l6-5.67v3Zm7.062-.477-.125-98.64-6.968-7.415-.005-2.46,8.819,9.187.2,99.246Zm113.541.294v-3.434l6.408-5.879v3.231Zm-43.845-.63-8.476-6.635.035-23.13a54.42,54.42,0,0,0,8.793,5.457Zm-73.966-7.481a1.187,1.187,0,1,1,1.184-1.187A1.183,1.183,0,0,1,2509.873,1035.506Zm62.938-1.131-.032-23.6,1.67,1.534.1,23.408Zm57.885-.227a1.188,1.188,0,1,1,1.184-1.186A1.182,1.182,0,0,1,2630.7,1034.148Zm-122.4-1.683a1.189,1.189,0,1,1,1.18-1.186A1.182,1.182,0,0,1,2508.295,1032.465Zm3.363-.147a1.187,1.187,0,1,1,1.18-1.187A1.183,1.183,0,0,1,2511.658,1032.318Zm60.206.115-5.17-4.861,5.326-5.081.043,2.345-2.964,2.874,2.979,3.106ZM2569.9,1032l-4.311-3.2.675-.823Zm59.053-.717a1.187,1.187,0,1,1,1.18-1.187A1.183,1.183,0,0,1,2628.949,1031.287Zm3.459-.059a1.189,1.189,0,1,1,1.18-1.19A1.186,1.186,0,0,1,2632.408,1031.228Zm-84.729-.43c-.83-9.443-1.406-15.978-3.832-24.882l11.152-7.17-.1,27.348Zm-30.735-21.606.044-32.43c10.525,15.06,16.2,32.663,18.026,49.345,0,0-5.65,2.618-8.393,4.224C2523.715,1023.483,2524.969,1023.491,2516.944,1009.192Zm-7.214,20.233a1.189,1.189,0,1,1,1.18-1.19A1.186,1.186,0,0,1,2509.73,1029.425Zm120.92-1.276a1.189,1.189,0,1,1,1.18-1.186A1.182,1.182,0,0,1,2630.65,1028.149Zm-65.8.11-4.1-3.144-.01-2.383,4.9,4.738Zm1.4-1.259-5.121-5.09,5.369-5.387,5.3,5.047Zm-38.56-.178,4.938-2.036c-1.89-17.209-6.79-30.109-13.4-40.566l-.15,24.138c3.411,5.429,5.994,11.969,8.61,18.464Zm-20.758-.356v-2.707l6.147-5.668v2.7Zm59.322-1.489,3.263-3.2-3.286-3.2-3.162,3.2Zm61.426.355v-2.879l6.1-5.926v3.061Zm-68.708-1.614-.05-27.543,1.358-.646-.095,28.775Zm7.344-.416-1.481-1.5,1.55-1.567,1.458,1.5Zm-59.384-.288v-3.122l6.147-5.771.1,2.977Zm68.007-11.707c-6.343-5.518-11.216-13.9-16.568-18.579a39.131,39.131,0,0,0-10.312-5.735,29.3,29.3,0,0,0-9.032-1.509c-2.572-.045-2.584-.061-2.584-.061l-1.089-1.947,1.8.025.118-6.874a32.447,32.447,0,0,0-5.618.243l-.666-1.252a45.277,45.277,0,0,1,33.657,9.6c3.517,2.908,6.376,6.458,9.855,11.627,6.7,10.5,18.493,15.575,29.478,15.693l.91,1.423-1.836-.062a31.022,31.022,0,0,0-.21,3.567c-.027,2.528-.012,2.972.186,3.045a24.727,24.727,0,0,0,5.224-.1l.826,1.485c-13.1,1.357-25.983-3.226-34.14-10.589Zm52.741,10.367v-2.824l6.1-5.788v2.828Zm-67.073-.24.161-2.524,2.909-2.893-3.095-3.022.073-2.109,5.458,5.09Zm39.858-.9c.281,0,.45-.024.482-.078.072-.122.032-1.206.27-5.13.087-1.438.186-1.444-1.013-1.589-1.007-.035-3.259-.615-4.757-.792-1.263-.169-1,.217-1.355,1.233-.388,1.109-.6,2.094-1.081,3.678-.441,1.451-.238,1.5,2.605,2.032A35.394,35.394,0,0,0,2600.469,1020.536Zm-28.384.24-4.939-4.955,4.863-4.967.085,2.4a33.623,33.623,0,0,0-2.88,2.742l2.866,2.942Zm24.768-1.606-.53-.877-1.272-.211.222-.891-.647-.92.8-.6-.027-1.11,1,.036.866-.623.685.874,1,.033-.054,1.244.647.55-.773.7.1,1.1-1.229-.208Zm8.021-1.494-.785-.517.8-.554.035-.848.489-.418,1.791,3.526-1.165-.475-.891.594Zm-14.378.815c.627-.01.709-1.175,1.387-3.379.948-3.076,1.016-2.791-.8-3.432-.809-.286-2.356-.811-3.174-1.2-1.995-.942-2-.939-2.75.342-.331.568-.957,1.962-1.4,2.685-1.095,1.805-1.124,1.718.887,2.691,1.183.574,1.9.808,4.387,1.822a4.625,4.625,0,0,0,1.461.469Zm-1.99-2.039-.872-.549-.979.41-.2-1.059-1.072-.417.305-1.042-.471-.781.912-.178.662-1.443,1,.706,1.062-.386.294.795,1.087.528-.394.875.543,1.18-1.245.095Zm-21.9-1.083-5.451-5.372,4.963-5,5.45,5.389Zm-56.872-.979a1.187,1.187,0,1,1,1.18-1.186A1.182,1.182,0,0,1,2509.734,1014.39Zm71.43-.26c.316-.005.5-.3.772-.861.115-.238.788-1.5,1.41-2.481,1.4-2.207,1.4-2.1,0-2.959a30.628,30.628,0,0,1-3.133-2.564c-1.087-.988-.969-.754-3.309,1.6-1.527,1.535-2.468,1.967-1.873,2.776,1.446,1.246,2.633,2.157,4.2,3.35,1.036.776,1.57,1.145,1.928,1.14Zm-14.813-.6,3.216-3.169-3.624-3.3-3.005,3.1Zm55.076,1.075-.035-24.781c-3.536-6.079-7.166-12.213-9.055-19.054l-5.186,2.555C2609.631,993.57,2615.4,1004.8,2621.427,1014.6Zm9.234-1.556a1.187,1.187,0,1,1,1.18-1.187A1.183,1.183,0,0,1,2630.661,1013.049Zm-64.349-1.323-1.55-1.431,1.427-1.559,1.565,1.629Zm-58.024-.232a1.187,1.187,0,1,1,1.18-1.187A1.186,1.186,0,0,1,2508.288,1011.494Zm3.17-.121a1.187,1.187,0,1,1,1.18-1.186A1.185,1.185,0,0,1,2511.458,1011.373Zm68.978.078-.9-.668-1.053.455-.076-1.247-.958-.475.6-.883-.364-1.162,1.037-.034.806-1.063.724.7,1.412-.1.224,1.211.611.481-.474.8.347,1.068-1.208.083Zm51.961-1.322a1.187,1.187,0,1,1,1.18-1.187A1.183,1.183,0,0,1,2632.4,1010.129Zm-3.4-.035a1.189,1.189,0,1,1,1.18-1.191A1.186,1.186,0,0,1,2629,1010.094Zm-68.351-2.832,2.815-2.643-2.775-2.908.084-2.23,4.923,4.936-5,4.939Zm27.833.574,10.565-7.047.642,1.763-9.417,6.2Zm-78.593.575a1.189,1.189,0,1,1,1.18-1.191A1.186,1.186,0,0,1,2509.888,1008.411Zm63.341-.717c.489-.034.988-.616,1.936-1.629.93-.994,2.027-2.161,2.262-2.327.733-.52.7-.645-.579-2.087-.388-.438-1.12-1.332-1.627-1.989s-1.316-1.481-1.476-1.65c-.519-.546-.8-.432-3.186,1.287-2.893,2.089-2.88,1.779-.22,5.232C2571.87,1006.518,2572.6,1007.739,2573.229,1007.694Zm57.467-.73a1.186,1.186,0,1,1,1.184-1.186A1.183,1.183,0,0,1,2630.7,1006.964Zm-61.966-.43-1.909-2.059.171-.206Zm-61.721-.459v-3.568l5.881-5.464v3.265Zm65.864-1.043-.715-.989-1.212.078.179-1.164-.644-.474.628-.882.051-1.113,1,.239.82-.992.806.951.95-.111-.032,1.157.97.553-.685.753-.021,1.3-1.412.052Zm-29.1-.074-.588-1.8,14.7-9.62,1.285,1.484Zm38.493-1.205-1.17-.886,15.433-9.979.465,1.3Zm45.141.383v-2.967l6.511-6.308v3.063Zm-61.115-.712-.188.156-5.046-4.872.953-1.02Zm13.938-1.43-.139-28.779,1.346.935-.1,27.3Zm-.829-.664-1.095-.97,1.049-1.031Zm-72.4.245v-2.918l5.881-5.617v3.052Zm120.4-1.4V997.43l6.511-6.257v2.771Zm-60.679-.373a1.1,1.1,0,0,0,.618-.318c.241-.191.834-.6,1.315-.919a26.355,26.355,0,0,0,3.339-2.4c.137-.331-1.64-2.663-4.108-5.459-.97-1.1-.943-1.312-1.916-.333-.774.883-3.609,3.3-3.527,3.949.156.741,1.131,1.583,3.551,4.874C2566.326,999.6,2566.516,999.8,2566.732,999.8Zm10.935-.3-3.871-5.57.515-.517,4.75,4.711Zm7.563-.657-.008-26.851,7.267-5.19c-.133-.07.892,16.133,3.67,24.774Zm-18.07-.946-.711-1.336-1.077.183.141-1.228-.912-.72.9-1.248-.118-.889,1.056.241.964-1,.66,1.274,1.389-.023-.194,1.224.968.819-1.057.628-.147,1.116-.911-.079Zm-6.3-.208-.119-1.1.648.566Zm18.576-1.949.011,1.569-4.633-4.495,4.731-4.459-.033,2.117-2.693,2.58Zm-38.285.868-.658-2,9.517-5.892,1.919,1Zm-31.354-3.309a1.189,1.189,0,1,1,1.18-1.186A1.185,1.185,0,0,1,2509.792,993.3Zm60.573-3.862,3.344,3.366-.42.457Zm-8.615,3.025c1.134-.974,3.552-3.784,3.548-4.248s-3.349-3.369-5.361-4.66c-.631-.4-.882-.417-1.126-.05-3.475,5.221-3.623,5.045-2.247,6.064a37.85,37.85,0,0,0,4.15,3.226c.47.232.552.088,1.036-.332Zm12.533-.254-5.512-5.315,5.111-4.957,5.306,5.628Zm56.282-.4a1.187,1.187,0,1,1,1.18-1.186A1.182,1.182,0,0,1,2630.565,991.8Zm-69.645-1.068-.928-.83-1.106.29-.248-1.1-1.067-.4.572-1.118-.079-1.408,1.074.2.745-1.155,1.091,1.1,1.25-.106-.069,1.232,1.1.537-.7.81.438,1.108-1.322-.209Zm-52.7-.494a1.187,1.187,0,1,1,1.184-1.187A1.183,1.183,0,0,1,2508.222,990.243Zm68.957-2.8-3.264-3.357-3,2.9,3.183,3.38Zm-65.7,2.755a1.189,1.189,0,1,1,1.18-1.187A1.183,1.183,0,0,1,2511.477,990.2Zm120.715-1.237a1.189,1.189,0,1,1,1.18-1.191A1.186,1.186,0,0,1,2632.192,988.959Zm-3.459-.012a1.189,1.189,0,1,1,1.18-1.19A1.186,1.186,0,0,1,2628.733,988.947Zm-54.652-.264-1.485-1.54,1.374-1.457,1.536,1.589Zm-20.166-1.056c.761-.548,2.826-4.482,3.18-5.347a5.983,5.983,0,0,0-2.24-1.427c-1.061-.5-4.5-1.886-4.818-1.963-.692-.169-.81.095-.926.548-.061.239-.335,1.154-.639,2.148-1.066,3.481-1.385,3.317.2,3.846.546.182,2.262.764,3.343,1.265S2553.571,987.634,2553.915,987.627Zm-44.027-.63a1.189,1.189,0,1,1,1.18-1.187A1.186,1.186,0,0,1,2509.888,987Zm56.379-1.629-.186-23.342,1.817,1.429.05,23.419Zm8.123-3.978,5.015-5.132.032,2.614-2.808,2.557,2.859,3.006-.059,2.021A62.475,62.475,0,0,1,2574.39,981.39Zm56.2,4.478a1.188,1.188,0,1,1,1.184-1.186A1.182,1.182,0,0,1,2630.588,985.868Zm-77.392.051-1.011-.849-.847.512-.488-.873-1.216-.17.545-1.334-.714-1.03,1.186-.221.3-1.422,1.163.7.883-.385.643,1.205,1.377.056-.752,1.309.708,1.035-1,.066Zm15.477-.093.009-2.058,2.182-2.224-2.19-2.4.011-2.394,4.536,4.643Zm-23.265-1.352c.456-.014.461-.5.811-2.077.076-.343.318-1.261.536-2.04.66-2.364.744-2.408-1.295-2.815-1.18-.177-6.29-1.373-6.394-.554-.129,1.391-.211,4.666-.229,5.779-.045.373.042.725.413.769,2.329.28,4.92.9,6.158.938Zm19.9-.1a101.445,101.445,0,0,0-9.044-5.839l-.084-24,9.149,6.851Zm-58.23-.069v-2.942l6.1-5.856v2.811Zm35.726-1.021-.528-1.139-1.111.372.007-1.36-.99-.628,1.194-.554.1-1.655,1.21.375,1-.62.881.931,1.08.021-.4,1.471.7.672-1.013.5-.082,1.314-1.085-.652Zm84.476.219v-2.837l6.639-6.145V977Zm-92.789-1.778L2533,979.192l.538-1.024,1,.491,1.1-.408-.168,1.354.847.677-.857.792.039.994Zm39.325-.836-5.091-5.3,5.186-5.385,5.09,5.38Zm-66.738-3.32,6.1-5.7v2.771l-6.1,5.815Zm120.2,2.317v-2.768l6.639-6.255v2.564Zm-53.477-.99,3.306-3.29-3.278-3.309-3.312,3.228Zm-.044-1.886-1.416-1.461,1.353-1.413,1.46,1.427Zm5.677-2.021-5.048-5.211.58-.688,4.472,3.493Zm-10.835-.423-.134-2.351,2.754-2.363-2.515-2.653-.07-2.444,4.785,4.953Zm-58.809-2.387a1.187,1.187,0,1,1,1.18-1.186A1.183,1.183,0,0,1,2509.795,972.179Zm120.65-1.435a1.189,1.189,0,1,1,1.18-1.186A1.182,1.182,0,0,1,2630.445,970.744Zm-24.164-.727,3.724-5.6-2.935-1.978,2.78-3.756-2.892-3.5,2.911-2.511-2.954-5.084a14.872,14.872,0,0,1,3.449,1.567l2.228,4.26-2.562,2.216,2.6,3.033-2.727,3.248,2.734,1.929-2.982,4.611Zm-97.9-.746a1.187,1.187,0,1,1,1.18-1.187A1.183,1.183,0,0,1,2508.384,969.271Zm73.243.092-25.7-19.921.1-2.643,25.709,19.866,10.916-7.749-.1,2.82Zm-70.1-.251a1.187,1.187,0,1,1,1.18-1.187A1.183,1.183,0,0,1,2511.531,969.112Zm59.827-2.544.27-.051,2.805,2.058-.612.693S2571.982,967.226,2571.358,966.568Zm57.34,1.148a1.189,1.189,0,1,1,1.181-1.191A1.189,1.189,0,0,1,2628.7,967.716Zm3.182-.016a1.187,1.187,0,1,1,1.18-1.186A1.186,1.186,0,0,1,2631.88,967.7Zm-122.085-1.567a1.189,1.189,0,1,1,1.181-1.19A1.186,1.186,0,0,1,2509.795,966.133Zm120.662-1.314a1.189,1.189,0,1,1,1.18-1.191A1.186,1.186,0,0,1,2630.457,964.819Zm-123.376-2.211v-2.621l5.764-5.617v2.53Zm77.8-.787c-.857.009-2.006-.036-3.552-.089-1.324-.046-2.787-.075-3.251-.062-1.833.05-2.431-.577-2.464-2.567-.03-1.77-.023-1.764-2.326-1.862-2.776-.117-3.51-.833-3.548-3.47-.014-1.027-.839-1.43-2.456-1.2-2.549.364-3.044.013-3.34-2.369-.246-1.988-.114-1.886-2.449-1.869-2.511.017-3.071-.406-3.1-2.35-.017-1.129-.291-1.467-1.261-1.555-1.038-.094-1.485-.629-.972-1.16a3.154,3.154,0,0,1,1.33-.167c1.6-.023,2.128.483,2.426,2.327.207,1.281.337,1.347,2.464,1.288,2.714-.076,2.926.089,3.22,2.47.252,2.044.594,2.254,2.927,1.811,1.7-.323,2.595.43,2.816,2.35.247,2.155.342,2.233,2.749,2.319s3.084.512,3.1,1.97c.032,2.258.316,2.463,3.282,2.373a32.759,32.759,0,0,1,3.76.07c1.8.187,1.787.2,1.967-1.539.268-2.594.646-2.832,4.057-2.579,1.424.105,1.526.039,1.623-1.051.122-1.365.625-2.206,1.011-1.691.2.269.2.294,0,2.292-.227,2.235-.252,2.252-3.151,2.028-1.964-.152-1.869-.223-2.079,1.571-.255,2.182-.216,2.685-2.788,2.71Zm42.3.205v-2.877l6.736-6.289v2.788Zm-20.927-3.381-1.466-2.013.475-3.744,1.246-.943-.883-1.78.283-2.187.349-.2,2.446,4.774-2.9,2.561,2.967,3.636-2.8,3.8,2.908,2.055-3.494,5.173c-.606.74-.641-2.2-.641-2.2l1.447-2.2-1.618-1.405h0l-.006-3.487Zm-1.85,1.7-.157,4.7,1.262.983-.974,1.628.067,4.159.293.2c2.429,29.771,16.922,47.362,19.191,51.352a1.633,1.633,0,0,1,.412,1.43c-.041.444-.061,3.068-.043,5.832.091,14.112-.027,23.78-.027,23.78l10.655,11.42-.062-4.179-.523-.379,0-19.025.443-.025s.137-5.115.1-8.629l-.634-.018.038-13.073.54-.065-.031-8.47-.587,0s-.138-8.881.073-13.2l.437-.026-.03-8.419-.5-.038-.032-12.043.611-.092-.166-7.949-.5-.028c-.18-4.912-.095-13.4-.095-13.4l.57-.026-.14-7.892-.408-.027.119-13.856.372-.044-.142-8.184-.4-.037.067-6.8.277-.048.066-2.545-.3-.674-.019-9.067.224-.1.066-4.554-16.524,16.8,6.083.184,0,5.429c0,8.96-.12,16.192.147,24.931a4.268,4.268,0,0,0,1.342.214c3.131.184,3.98.439,3.991,1.194.014.935-1.406,2.093-2.584,2.11a2.031,2.031,0,0,0-.713.27l.379,99.417,7.393,7.786-.032,2.472-9.109-9.7-.343-99.365-.346.161-.025,33.37c-4.669-7.02-7.287-13.979-9.884-20.937,0,0-.919.319-.956.338-.008.008.328.117.328.117a80.963,80.963,0,0,0,10.349,22.07l-.063,32.341c-11.132-15.813-16.514-30.033-18.75-50.529l5.634-2.83.546-.734,4.256-2.139.407.683,2.58-1.8c-1.992-3.5-1.919-8.522-.295-11.184l-.7-.437a13,13,0,0,0,.263,11.173l-1.922,1.19c-2.773-5.764-1.486-11.972-.18-13.572,0,0-2.008-1.286-3.449-2.073a26.8,26.8,0,0,0-4.841-2.248,1.9,1.9,0,0,0-1.89.1l-.563,3.218.9,1.226-1.042.844-.474,4.926,1.118,1.137Zm-97.328-1.315v-3.174l5.764-5.492v3.123Zm120.1-3.4,6.736-6.217V952l-6.736,6.358Zm-117.814-4.23a1.189,1.189,0,1,1,1.181-1.19A1.188,1.188,0,0,1,2509.372,951.4Zm115.125-1.922-.007-29.287,1.778,0-.082,29.647Zm5.948.266a1.187,1.187,0,1,1,1.18-1.186A1.182,1.182,0,0,1,2630.445,949.741Zm-119.392-1.132a1.189,1.189,0,1,1,1.184-1.187A1.182,1.182,0,0,1,2511.053,948.609Zm-3.182-.05a1.187,1.187,0,1,1,1.184-1.187A1.183,1.183,0,0,1,2507.871,948.559Zm120.731-1.784a1.189,1.189,0,1,1,1.18-1.191A1.19,1.19,0,0,1,2628.6,946.775Zm-60.809-.035c-6.153-.766-4.524-7.256-1.929-8.6,3.531-1.654,6.36,1.677,4.1,5.053-1.655,2.476-4.8.839-3.586-1.876.685-1.529,2.1-1.35,2.092.2-.507,1.469-.042.946.354.427,1.245-1.628-1.267-3.356-2.557-1.749a3.439,3.439,0,0,0-.688,3.094c.463,1.6,2.3,2.533,4.374,1.054,2.481-2.991,3.807-6.862,4.539-11.191,1.56-9.213,1.638-18.906,2.977-21.365l1.457.035c-2.118,10.545-2.129,19.57-4.39,27.883C2573.421,943.817,2570.565,946.749,2567.793,946.74Zm64.037-.05a1.189,1.189,0,1,1,1.18-1.191A1.187,1.187,0,0,1,2631.83,946.69Zm-24.967-.163a3.133,3.133,0,0,0,3.143-3.11c-.154-2.1-1.389-3.03-3.421-2.82-1.086.113-1.057.13-1.789-1.186a38.491,38.491,0,0,1-2.407-7.012c.835,1.114,2.783,3.181,4.582,3.1,1.931-.141,3.557-1.981,2.1-4.588a2.9,2.9,0,0,0-3.561-1.1c-2.1-3.287-2.5-6.578-3.165-10.4,0,0-.83,8.175-1.081,11.437-.477,5-1.156,8.235-3.08,12.2a35.766,35.766,0,0,0,5.048,2.33,9.426,9.426,0,0,1,2.088.717A2.642,2.642,0,0,0,2606.863,946.527Zm-97.62-.667a1.189,1.189,0,1,1,1.18-1.186A1.182,1.182,0,0,1,2509.243,945.86Zm94.3-2.622a17.431,17.431,0,0,1-2.506-6.66,24.3,24.3,0,0,1,.4-4.034c.1-.679.354-.017.815,1.448,1.912,6.082,2.418,7.246,3.747,6.943a3.094,3.094,0,0,1,2.06.083c1.685.935,1.84,4.068-.62,4.667-1.945.426-3.2-1.311-3.891-2.447Zm.044,1.512c-2.452-.971-4.017-2.435-3.571-4.817.2-.9.328-1.634.567-1.539.276.11.656,1.185,1.417,3.034C2602.169,942.026,2603.916,944.738,2603.583,944.75Zm-40.577-.1q-.194.027-.609-.365c-1.933-1.913-.884-6.227,1.69-7.47,1.06-.733,3.01-.613,3.021.1,0,.276-.059.35-.329.354-2.166-.016-4.468,3.01-3.831,6.233.079.485.225,1.128.058,1.152ZM2630.4,943.6a1.189,1.189,0,1,1,1.184-1.187A1.183,1.183,0,0,1,2630.4,943.6Zm-69.42-.365a1.5,1.5,0,0,1-.916-.559c-1.822-2.207-.343-5.966,2.52-7.255,1.093-.594,2.014-.184,1.782.428a5.856,5.856,0,0,0-3.6,5.8C2560.838,942.655,2561.173,943.2,2560.975,943.234Zm38.6-.4-.662-.316.274-.576A3.225,3.225,0,0,0,2599.576,942.833Zm-40.672-.239a.922.922,0,0,1-.777-.248c-1.178-1.15-1.364-4.376-.233-5.97a9.156,9.156,0,0,1,2.668-2.243,2.822,2.822,0,0,1,1.922.279c.319.011-.143.314-.744.662-2.132,1.238-3.546,3.446-3.176,5.518C2558.794,941.875,2559.181,942.588,2558.9,942.594Zm-2.16-1.04a1.878,1.878,0,0,1-1.271-.971c-1.4-2.021-.236-6.274,2.628-7.155,1.908-.587,2.618-.032,1.074.875-2.219,1.3-3.37,3.845-2.729,5.865.308.966.6,1.365.3,1.386Zm-2.31-1.48a1.669,1.669,0,0,1-1.419-1.054,5.379,5.379,0,0,1,.254-4.42,4.912,4.912,0,0,1,3.614-2.507,2.1,2.1,0,0,1,1.045.153c.67.29.44.333-.821,1a5.546,5.546,0,0,0-2.891,5.678C2554.33,939.829,2554.694,940.072,2554.434,940.074Zm72.752.442v-3.134l6.556-6.224v3.061Zm-55.707-.406a16.558,16.558,0,0,1-.958-2.275c1.535-2.221,1.969-5.866,2.207-8.627.866-7.826,1.767-17.276,2.16-17.363l1.707-.039c-.65-.436-1.484,12.978-2.808,21.476-.1.667-1.519,7.225-2.308,6.828Zm-19.835-1.388c-2.252-1.532-1.049-6.314,2.082-7.5,1.137-.44,1.554-.5,2.069.007.324.317.634.424-.192.718a4.725,4.725,0,0,0-3.559,5.306c.046.614.62,2.236-.4,1.466Zm18.216-1.324-1.024-.662a57.438,57.438,0,0,0,1.964-11c.547-4.573,1.028-9.28,1.69-13.77l1.568-.057c-.818,2.775-1.2,10.525-2.006,17.018-.472,3.286-.987,7.806-2.192,8.468Zm-1.778-1.082-1.313-.765a57.13,57.13,0,0,0,1.285-5.811c.6-4.309.839-9.535,2.227-17.578l1.42-.121c-.358,2.583-1.035,8.337-1.612,13.63C2569.419,931.817,2568.366,936.465,2568.082,936.316Zm59.1.208v-3.077l6.556-6.07v2.834Zm-61.325-1.18s-1.13-.64-1.273-.715a85.742,85.742,0,0,0,1.69-9.629c.567-4.151.987-8.19,1.77-12.753l1.514-.1c-.754,3.5-1.616,11.72-2.294,17.517C2566.874,933.034,2566.06,935.409,2565.861,935.344Zm36.094-6.911a51.22,51.22,0,0,1,.486-5.914c.2-.115.818,5.265,2.98,7.7a2.459,2.459,0,0,1,3.109,3.729C2605.025,936.977,2601.956,930.505,2601.955,928.433Zm-38.069,5.986-1.832-.85c.226.039.658-1.231,1.079-3.211,1.284-6.032,2.558-17.921,2.766-17.917l1.413-.117c-.458,3.194-1.087,8.239-1.745,12.7-.745,5.057-1.44,9.367-1.681,9.393Zm-2.546-1.157-1.392-.841a7.808,7.808,0,0,0,.869-2.452c1.253-6.017,1.819-11.294,2.594-17.13l1.518-.2c.115-.169-1.31,11.487-2.485,17.374a8.022,8.022,0,0,1-1.1,3.248Zm-2.17-1.046-1.493-.742c1.623-4.617,1.773-9.035,3.328-18.3l1.577-.286A167.427,167.427,0,0,1,2559.754,931,2.783,2.783,0,0,1,2559.17,932.216Zm-2.134-1.085-1.679-.677,3.515-17.016,1.417-.193c-.882,4.906-1.339,10.578-2.529,15.049a26.63,26.63,0,0,1-.724,2.837Zm73.109-2.7a1.187,1.187,0,1,1,1.18-1.186A1.186,1.186,0,0,1,2630.145,928.436Zm-1.543-2.784a1.189,1.189,0,1,1,1.18-1.191A1.19,1.19,0,0,1,2628.6,925.652Zm3.074-.074a1.189,1.189,0,1,1,1.18-1.187A1.186,1.186,0,0,1,2631.676,925.578Zm-1.474-2.738a1.189,1.189,0,1,1,1.184-1.19A1.186,1.186,0,0,1,2630.2,922.84Zm-10.68-3.965,14.162-14.425.044,2.883-9.707,9.585,9.781.149-.022,1.951Zm6.491-2.75,7.588-7.282.064,7.4Zm-8.1-.533s.041-.265-.671-1.52c-2.07-3.618-2.548-6.961-4.378-10.838a11.242,11.242,0,0,0-3.421-4.386l2.28-4.194-64.314.135L2557.7,912.86a123.258,123.258,0,0,1,44.821-.077,49.858,49.858,0,0,0,2.489-4.816C2607.07,913.543,2613.661,917.143,2617.908,915.592Zm-2.341-.484c-3.4.049-6.231-1.576-8.746-5.022-.8-1.1-1.111-1.594-1.109-2.055a12.393,12.393,0,0,1,1.139-2.237,22.286,22.286,0,0,1,.756,2.511c.914-3.384,1.278.537,1.629,1.572,1.116-3.269,1.716,1.224,1.66,2.436,1.517-2.1,1.42,1.347,2.159,1.987.018-1.817,1.081-.574,2.457-.187-.72-1.015-2.121-1.7-.331-1.921-1.786-1.24-2.68-1.05-.947-1.734-1.336-.741-3.534-1.633-1.1-2.12-1.486-.942-3.875-1.338-1.306-2.237-1.94-1.194-4.523-1.108-.89-2.066-1.317-.775-3.637-1.065-1.041-1.737a10.332,10.332,0,0,1-1.1-.65l1.122-1.782a1.169,1.169,0,0,1,.68.323c1.191,1.251,2.35,3.553,3.388,6.779a56.543,56.543,0,0,0,2.674,6.961c.541,1.1.491,1.156-1.1,1.179Zm-57.437-4.07-8.888-15.293,2.109-.033,7.847,13.094,10.588-1.2L2566.3,895.9l3.147-.086,3.123,11.515a140.51,140.51,0,0,1,16.466.091l1.666-11.681,3,.1-1.9,11.562,9.935,1.278,5.39-12.968,3.1-.06c-2,3.4-7.006,14.372-7.94,15.453-21.643-3.484-32.88-1.605-44.159-.063Zm2.077-3.545-6.73-11.765,10.811-.05,3.631,10.894Zm40.447-.345a27.654,27.654,0,0,0-6.739-.846l1.965-10.526,9.579.019Zm-26.963-1.239-2.542-10.222,18.032-.093-1.488,10.19C2582.961,905.5,2578.337,905.762,2573.691,905.909Z"/>
          </g>
        </g>
      </g>
      <path id="path147-0-8-1-3-6-4-3-4" d="M2611.562,1097.551c7.82-.17,11.326-8.974,5.535-15.81-.84-1-.927-1.57.612-.612,3.9,2.607,11.375.893,11.758-7.078.473-9.821-13.25-12.651-15.827-2.208-.136,1.1-1.031,1.077-.816-.487a32.506,32.506,0,0,1,3.383-12.082h-9.3a32.5,32.5,0,0,1,3.383,12.082c.216,1.564-.68,1.589-.816.487-2.576-10.443-16.3-7.613-15.826,2.208.382,7.971,7.859,9.685,11.758,7.078,1.538-.958,1.451-.386.611.612-5.791,6.836-2.285,15.64,5.535,15.81h.006Z"/>
      <path id="path147-0-8-1-0-3-83-9-4-0" d="M2529.106,901.045c7.819.17,11.326,8.974,5.534,15.811-.839,1-.926,1.569.612.611,3.9-2.607,11.375-.893,11.758,7.078.473,9.821-13.25,12.651-15.827,2.208-.136-1.1-1.031-1.077-.815.487a32.489,32.489,0,0,0,3.383,12.082h-9.3a32.5,32.5,0,0,0,3.382-12.082c.216-1.564-.679-1.589-.815-.487-2.577,10.443-16.3,7.613-15.827-2.208.383-7.971,7.859-9.685,11.758-7.078,1.538.958,1.452.386.612-.611-5.791-6.837-2.285-15.641,5.534-15.811h.007Z"/>
    </g>
  </g>
</svg>
