<svg xmlns="http://www.w3.org/2000/svg" xmlns:xlink="http://www.w3.org/1999/xlink" width="179.79" height="250.65" viewBox="0 0 179.79 250.65">
  <defs>
    <clipPath id="clip-jd">
      <rect width="179.79" height="250.65"/>
    </clipPath>
  </defs>
  <g id="jd" clip-path="url(#clip-jd)">
    <g id="jd-2" data-name="jd" transform="translate(-2479.438 -1718.32)">
      <rect id="rect7098-3" width="177.785" height="248.651" rx="8.504" transform="translate(2481.438 1719.32)" fill="#fff" stroke="#000" stroke-width="1.001"/>
      <path id="path7130-4" d="M2495.486,1775.12a44.982,44.982,0,0,0-5.794-7.974,45.025,45.025,0,0,0,5.794-7.975,45.024,45.024,0,0,0,5.794,7.975A44.981,44.981,0,0,0,2495.486,1775.12Z" fill="#d40000"/>
      <path id="path7134-0" d="M2645.176,1928.121a44.932,44.932,0,0,0-5.794-7.974,44.971,44.971,0,0,0,5.794-7.975,45.02,45.02,0,0,0,5.794,7.975A44.981,44.981,0,0,0,2645.176,1928.121Z" fill="#d40000"/>
      <path id="path7136-1" d="M2529.287,1783.67c-4.131-6.83-8.476-13.468-13.907-19.139,5.431-5.67,9.776-12.308,13.907-19.138,4.13,6.83,8.476,13.468,13.906,19.138C2537.762,1770.2,2533.417,1776.84,2529.287,1783.67Z" fill="#d40000"/>
      <path id="path7154-5" d="M2611.375,1941.909c-4.13-6.83-8.476-13.468-13.906-19.139,5.43-5.67,9.776-12.308,13.906-19.138,4.131,6.83,8.476,13.468,13.906,19.138C2619.851,1928.441,2615.506,1935.079,2611.375,1941.909Z" fill="#d40000"/>
      <path id="path6263-5" d="M2505.315,1948.572V1738.72h130.032v209.852Zm46.811-174.957c-4.649-1.27-4.537,3.357-1.132,3.529,3.815.329,5.448-6.185,3.627-8.752C2554.621,1768.392,2553.036,1773.3,2552.126,1773.615Zm-30.17,26.161-5.585,2.5-.022,4.176a22.9,22.9,0,0,0,5.606-6.672Zm38.114,125.494c-1.1-.556-2.424-1.749-2.221-1.959.1-.1.7.084,1.237.328,4.363,1.842,7.751,1.723,12.954-.169.394-.143.982.609.763,1.022-2.3,3.415-9.761,2.2-12.734.778Zm-2.3-5.124c-1-1.509.327-.365.773.062,3.229,3.008,7.6,4.028,11.358,1.193a.5.5,0,0,0,.147-.51c-.107-.278-.109.018-1.714.577-3.6,1.351-6.642.241-9.6-2.03-1.22-.943-1.787-1.406-1.787-1.653,0-.226.228-.367.638-.3.254.044.964.192,1.483.235.9.074.833.035,1.757-.392a9.352,9.352,0,0,1,5.857-.877,11.141,11.141,0,0,0,1.16.217c.463-.154-.219-.764-1.968-2.154a4.534,4.534,0,0,1-.914-.745c-.221-.368.019-.466.269-.463.719.009,3.95,2.715,5.058,4.322.337.488.57.54.571,1.049a2.013,2.013,0,0,0,.421,1.771,7.452,7.452,0,0,1,.808,1.424c.008.046-.081.313-.456.066-.17-.032-.253-.215-.565-.17a5.681,5.681,0,0,0-1.2.484c-4.528,2.918-8.7,1.494-12.092-2.109Zm9.918-.2a4.9,4.9,0,0,0-.768-2.162,2,2,0,0,0-3.1-.155,9.2,9.2,0,0,0-.979,2.127,6.5,6.5,0,0,0,.929.214,2.533,2.533,0,0,1,.752-1.906,1.405,1.405,0,0,1,1.416-.039c.591.291.841,1.467.848,1.924a2.017,2.017,0,0,0,.9,0Zm-5.474-2.416c-.638.286-1.468.478-1.658.906-.251.565.635.735,1.1.925.637.309.652.2.858-.3.129-.307.3-.708.461-1.077.477-.924,0-.8-.758-.457Zm6.908,1.606c.367-.369.437-.612.109-1.029a2.55,2.55,0,0,0-1.032-.538c-.592-.2-.85-.441-.479.362l.53,1.147c.273.549.512.4.872.058Zm-60.408-39.17a24.745,24.745,0,0,0,3.246-1.085c.786-.3.88-.293.567-.729a1.943,1.943,0,0,1-.155-1.128l.059-.7a4.835,4.835,0,0,0-4.129,1.444c-.5.615-.451,1.984.412,2.2Zm-.28,3.433c.418.418.533.433,1.785-.033a4.951,4.951,0,0,1,2-.7c1.509-.4,1.51-.243,1.082-1.211a2.106,2.106,0,0,1-.2-1.226c.073-.488.131-.555-.144-.641-.721-.226-4.078,1.032-4.68,2.01a1.32,1.32,0,0,0,.157,1.8Zm78.077,33.16c.063.773.08,1.973.082,2.618-.031,1.258.472,1.551,1.007.862.529-1.641.741-4.234,2-5.545.935-.272,2.085.207,2.754-.443a1.848,1.848,0,0,0-1.075-3.3c-2.884-.055-4.975,3.457-4.771,5.81Zm7.03-4.027a2.4,2.4,0,0,1-3.1,2.31c-.653-.165-.849-.015-1.287.919a33.532,33.532,0,0,0-1.579,6.813c-.108,1.512-.663,5.449-.261,6.7,4.593,5.688,9.428,11.612,14.723,17.465h31.584v-37.152l-9.051-8.667.018-13.739c-9.79,4.622-19.551,9.307-29.322,13.969,2.129,6.843-5.091,8.278-6.674,3.691-1.37,1.259-2.494,8.053-1.989,8.388,0,0,.182.246.486-.3a5.414,5.414,0,0,1,1.851-1.978C2590.978,1909.691,2593.4,1910.314,2593.54,1912.527Zm-25.063-.694a2.128,2.128,0,0,1,.567-3.67,4.321,4.321,0,0,1,2.974.167,4.278,4.278,0,0,0,2.767.284c.718-.08.585,1.426-.165,1.815-.528.274-1.74.144-3.213-.7-2.543-1.45-3.66.43-2.085,2.127.873.936-.622.186-.845-.026Zm-52.342-22.5a1.422,1.422,0,0,0-.472-2.681,1.452,1.452,0,0,0-.918,2.675c0,.238-.607.043-.934-.2-.509-.381-.045-1.873-.518-1.932a30.638,30.638,0,0,0-4.261,1.5c-1.582.9-.1,2.93.821,2.7,1.907-.482,4.5-.912,6.282-2.061Zm-7.87-2.9c.033.9.285,1.307.878,1.315a26.079,26.079,0,0,0,3.548-1.183c.9-.3,1.27-.63.582-1.2a1.382,1.382,0,0,1-.293-1.234c.237-.746.056-.784-.26-.82a11.89,11.89,0,0,0-2.878.975c-.971.374-1.158.535-1.409,1.07a3.126,3.126,0,0,0-.168,1.073Zm10.266,11.671a7.385,7.385,0,0,0,.686-2.217c-.1-.649-.577-.8-1-.376-.519.464-.379,1.167-.687,1.705a1.087,1.087,0,0,0-.19.552.733.733,0,0,0,1.194.336Zm4.039-8.58c15.78-16.839,25.556-40.14,8.455-72.277-1.047-1.03-2.51,2.3-2.694,2.433l-2.185,1.907c11.576,20,9.566,43.008-4.588,59.368l.015,1.038c.033,2.285.69,2.186,1.649,1.117,1.016-1.074.336-.2-.079.243-.358.38-.927,1.136-1.079,1.333.186,1.371,1.047,3.926.505,4.838Zm-1.047-5.06a13.24,13.24,0,0,1-.424-2.293c-.054-.521-.076-1.013-.1-1.522a18.649,18.649,0,0,0-.914-3.846,2.943,2.943,0,0,0-2.228-1.019c-.841-.054-.911-.039-1.09.236-.308.471-.1,2.849.216,3.721a3.643,3.643,0,0,1-.141,2.592c-.1.366-.135.392.045.418.787-.056,1.049-1.023,1.361-.735a3.959,3.959,0,0,1-.536,1.7,4.72,4.72,0,0,0-.042,3.447,1.943,1.943,0,0,1-.008,1.542,9.492,9.492,0,0,0-.293,2.3,2.63,2.63,0,0,1-.033,2.2,5.608,5.608,0,0,0-.58,3.273c.111.35.4.05.613-.55.331-1.187.718-1.451,1.69-1.451.708,0,.775.249,1.009-.069a14.151,14.151,0,0,0,1.855-3.985,8.844,8.844,0,0,0-.4-5.966Zm7.546,11.92a2.482,2.482,0,0,0,1.089-1.385c0-.345-2.646-2.923-3.748-3.635-.5-.322-.736-.093-1.618,1.1-.785,1.057-.887,1.066-.742,1.27a36.047,36.047,0,0,0,3.767,2.5,1.614,1.614,0,0,0,1.252.153Zm4.959-4.589c-.4-.3-3.561-3.821-4.5-3.995-.357-.067-1.5,1.24-1.5,1.536a25.31,25.31,0,0,0,3.378,3.446,2.827,2.827,0,0,0,.982.637C2532.83,1893.192,2533.972,1892.269,2534.028,1891.8Zm3.364-3.318c0-.208-.349-.637-1.2-1.476-2.172-2.137-3.382-3.116-3.763-3.112a3.5,3.5,0,0,0-1.213,1.847c.142.265,3.775,3.566,4.245,3.886.581.562,1.851-.747,1.932-1.145Zm3.407-3.408c.094-.314-.088-.582-.548-1.024-.326-.312-1.485-1.449-2.574-2.524-2.285-2.256-2.29-2.258-3.024-1.2-.755,1.085-.751,1.094,1.476,3.27,2.374,2.321,2.93,2.792,3.3,2.792A2.441,2.441,0,0,0,2540.8,1885.071Zm-25.461-2.036a1.123,1.123,0,0,0-1.076.2c-1.683,1.434.7,3.279,1.686,2.128a1.366,1.366,0,0,0-.61-2.329Zm28.957-1.5c0-.24-.49-.779-2.188-2.4-4.2-4.018-4.011-3.865-4.476-3.615a3.128,3.128,0,0,0-.855,1.637c0,.3.4.717,3.516,3.63,1.826,1.707,2.366,2.139,2.68,2.139.5-.247,1.3-.781,1.323-1.389Zm-28.85.151a1.233,1.233,0,1,0-1.654-1.077,1.221,1.221,0,0,0,1.654,1.077Zm32.3-3.524c0-.48-7.192-7.219-7.7-7.219-.347,0-.6.282-.923,1.045-.283.662-.254,1.054.1,1.4.52.5,1.906,1.781,3.224,2.977.78.707,1.676,1.551,1.992,1.876a4.591,4.591,0,0,0,1.866,1.35,3.159,3.159,0,0,0,1.443-1.427Zm-32.679-.869a1.038,1.038,0,0,0-.255-.753,1.007,1.007,0,0,0-1.642.448C2512.961,1878.628,2515,1878.7,2515.068,1877.292Zm5.327-52.448,1.406-4.309,4.3-.111.6-4.283,4.424-.638.071-4.426,4.231-.579-.262-4.739,3.924-.931-.2-4.388,3.566-1.095-.143-3.82.613-.481-1.542-1.571-1.328.432-.024,3.925-3.561,1.149.375,4.343-3.6.822-.046,4.723-4.135.465-.3,4.167-4.034.795-.6,4.082-3.915.266-1.2,3.588-2.586.03v2.4Zm46.76,77.095c-.135-.324.218-.276.832.113a4.839,4.839,0,0,0,2.245.748,16.2,16.2,0,0,0,2.2-.394,5.5,5.5,0,0,1,3.266-.184c.862.117,1.731.211,1.929.209a2.531,2.531,0,0,0,1.815-1.08c.709-1.215.54.992.543,1.245.013,1.131.154,2.43-.655,1.826a2,2,0,0,0-1.98-.022,1.632,1.632,0,0,1-2.013.071c-.646-.255-.986-.309-1.469.14-.538.5-1.844.323-2.543.093-1.2-.2-1.875-.375-2.681.263-.43.247-.54.063-.864-.891s-.579-2.019-.629-2.137Zm3.06-.8c-.076-.124.569-.757,1-.982a8.161,8.161,0,0,1,5.637.039c.947.35,1.093.95.172.824-1.917-.4-4.323-.734-6.175.149a.977.977,0,0,1-.638-.03Zm1.622-3c-1.311-.487-1.955-1.006-1.955-1.171s.282-.146,1.312.136a6.793,6.793,0,0,0,4.45.311c1-.369,1.494-.6,1.494-.38a2.021,2.021,0,0,1-1.1,1.2,6.373,6.373,0,0,1-4.2-.094Zm28.458-3.648.973-.134-.338-4.068,3.584-1.066-.251-4.046,3.82-1.317-.228-4.554,3.969-.783.517-3.985,3.748-.268.776-4.335,4.026-.139.829-3.6,2.678-.017-.012-2.024-4.172.013-.883,3.9-3.938.113-.835,4.285-4.129-.03-.528,4.618-3.882.638v4.973l-3.746.973.29,4.252-3.74,1.368.422,4.058Zm25.022-95.456a1.676,1.676,0,0,0-.572,1.756,1.386,1.386,0,0,0,2.6-.055,1.12,1.12,0,0,0-.688-1.249c-.089-.025-.4,0-.568-.165-.118-.123.62-.5,1.055-.358a1.7,1.7,0,0,1,.988,1.522c0,.242-.067.6.02.721a13.613,13.613,0,0,0,2.888-.785c1.627-.451,2.215-1.386,1.854-2.48-.3-.913-1.232-1.274-2.456-.813-1.681.634-3.654.937-5.123,1.906Zm-69.439,99.874c5.508-3.877,8.751-6.093,15.82-6.475-2.522-1.039-2.934-2.405-3.643-3.711a35.763,35.763,0,0,0-17.567,6.247,14.66,14.66,0,0,1,5.39,3.939Zm30.7-5.377a28.367,28.367,0,0,0-9.146-3.918l-2.527,2.624a52.072,52.072,0,0,1,11.673,1.294Zm25.644-24.886c-17.226-26.521-5.655-49.858,6.323-64.728.385-.488.478-.513.392-.9a28.6,28.6,0,0,1-.168-4.578c-22.141,21.985-22.708,50.627-8.821,73.358.993-.889,3-2.073,2.274-3.151Zm2.583-2.269c-2.828-4.717-17.889-30.264,5.115-58.764a12.609,12.609,0,0,0-.251-2,3.005,3.005,0,0,0-.789-1.374c-9.661,14.532-23.7,32.715-6.165,64.293Zm-13.171-48.081a3.386,3.386,0,0,0,.844-1.726c0-.376-.271-.69-2.866-3.328-3.459-3.517-4.056-4.055-4.5-4.055-.418,0-1.51,1.038-1.51,1.435,0,.191,1.018,1.29,3.421,3.693,4.458,4.459,4.248,4.277,4.61,3.981Zm3.186-6.477c0-.212-.32-.632-1.078-1.414a43.243,43.243,0,0,0-5.1-4.676,2.836,2.836,0,0,0-1.42,1.152.5.5,0,0,0,.031.679c.353.552,4.815,4.8,6.083,5.863.762.7,1.451-1.071,1.487-1.6Zm1.725-2.631a3.091,3.091,0,0,0,.943-1.766,26.869,26.869,0,0,0-2.516-2.712c-2.662-2.654-2.816-2.75-3.48-2.155-.6.538-.977,1.077-.9,1.294a66.64,66.64,0,0,0,4.89,4.98C2606.122,1809.35,2606.2,1809.375,2606.545,1809.189Zm20.312-.2a1.129,1.129,0,0,0-1.2-1.914,1.208,1.208,0,0,0-.564,1.257A1.282,1.282,0,0,0,2626.857,1808.992Zm2.478-.307c2.117-.557,3.131-.929,3.574-1.59.307-.458.342-.74,0-1.486-.318-.689-.69-.9-2.017-.171-.911.5-2.939.74-3.649,1.159-.283.245-.145.243.083.388.511.325.76.546.705.976-.122.935-.025,1.079,1.307.724Zm-2.242-3.326c1.028-.527.82-1.8-.328-2.3a1.331,1.331,0,0,0-1.251,2.319A1.972,1.972,0,0,0,2627.093,1805.359Zm3.417-.515c1.486-.51,2.058-.91,2.487-1.734a2.257,2.257,0,0,0,.15-1.574c-.069-.956-.548-.847-1.934-.347-.676.262-3.913,1.175-3.958,1.507,1.562.895,1.163,1.367,1.176,2.509.082.26.815.073,2.079-.361Zm-20.266-1.523c0-.431-4.154-4.508-4.594-4.508-.686,0-1.669,1.069-1.522,1.655a47.664,47.664,0,0,0,4.448,4.486C2609.257,1805.352,2610.2,1803.972,2610.244,1803.321Zm2.387-2.541a4.54,4.54,0,0,0,.707-.811c.447-.652.415-1.015-.12-1.359-.2-.126-1.067-.915-1.936-1.755a16.8,16.8,0,0,0-1.828-1.618c-.716-.1-2.011,1.054-1.876,1.642a31.335,31.335,0,0,0,3.971,3.919C2612.008,1801.1,2612.229,1801.1,2612.631,1800.78Zm5.625-6.072a7.086,7.086,0,0,0-1.88-1.212c-3.537-1.925-3.6-1.939-4.7-1.036-.379.309-.69.661-.69.783a11.269,11.269,0,0,0,1.745,1.874c2.028,1.923,2.527,2.338,2.81,2.338C2616.122,1797.025,2618.166,1795.242,2618.256,1794.708Zm4.952-1.81a4.356,4.356,0,0,0,.694-2.7.87.87,0,0,0-1.031.058,7.852,7.852,0,0,0-.842,2.8c.106.276.8.147,1.179-.152Zm-38.645,77.3a5.365,5.365,0,0,0,1.944-1.276c1.019-.877,4.247-2.828,4.6-3.613.157-.446.043-1.086-.294-1.134-.256-.037-.311.159-2.457,1.709-1.448,1.046-3.992,2.914-4.374,3.311A.805.805,0,0,0,2584.563,1870.2Zm-.3,12.492c2.21-1.537,4-3.128,6.881-4.906a1.171,1.171,0,0,0,.12-1.089c-.168-.443-.4-.268-1.271.339-2.123,1.433-4.307,3.121-6.136,4.373-.587.4-1.081.618-.957.842.164.3,1.071.387,1.363.441Zm2.149.942c1.453-1.191,3.192-2.328,4.744-3.48a1.259,1.259,0,0,0,.051-1.25c-.176-.237-.03-.193-.46.051-.628.358-4.387,2.925-5.087,3.505-.408.339-.748.508-.646.626a3.571,3.571,0,0,0,1.4.548Zm1.826.923c.3-.2,2.884-1.857,3.092-2.076.238-.252.169-1.378-.062-1.467-.653.52-4.1,2.623-4.1,2.961a1.942,1.942,0,0,0,1.075.582Zm2.763.23c.4-.364.475-.426.484-.834.015-.74-.168-.708-1.22.045-.735.476-1.182.811-1.05,1.1.522.819,1.263.173,1.786-.307Zm.284,1.51c.207-.076.208-.182.178-.441-.033-.287-.074-.275-.387-.275C2590.239,1885.609,2590.993,1886.369,2591.284,1886.294Zm-10.057-4.138a7.758,7.758,0,0,1,1.781-3.191c3.475-3.085,2.413-6.882.218-9.974,2.839-3.982,5.674-8.2,8.114-12.067l-.009-6.285.328.035c-.114,13.715.511,36.2.511,36.2l2.823,2.157-.38.189c.464-.073-8.218-5.519-13.386-7.067Zm2.551-1.566c2.4-1.817,4.741-3.246,7.125-5.181.253-.21.4-.221.41-.7.013-.906-.167-.915-1.058-.276-.394.283-1.84,1.3-3.211,2.223a31.191,31.191,0,0,0-3.024,2.139c-1.341,1.558-1.837,2.291-1.7,2.514s.415-.019,1.457-.723Zm2.621-4.4c1.235-.815,4.19-2.87,4.459-3.124.468-.44.55-1.143.127-1.224a28.831,28.831,0,0,0-4.426,2.957c-.941.714-1.15.879-1.15,1.553C2585.409,1876.756,2585.655,1876.677,2586.4,1876.186Zm1.232-3.2c3.786-2.7,3.689-2.47,3.607-3.475-.028-.339-.1-.493-.254-.522a8.233,8.233,0,0,0-1.54.991c-.753.531-1.652,1.244-2.1,1.558-1.316.915-1.752,1.161-1.752,1.685s.139.843.367.843A12.433,12.433,0,0,0,2587.631,1872.986Zm-.544-2.09a44.132,44.132,0,0,0,3.928-2.957c.318-.4.261-1.276-.145-1.276-1.75,1.172-3.857,2.712-5.337,3.929-.192.169-.435.331-.512.552a.848.848,0,0,0,.486.674c.289,0,.733-.322,1.58-.922Zm-1.135-4.177c1.331-.9,2.542-1.978,3.865-2.89.994-.681,1.275-.892,1.216-1.748-.034-.495-.468-.21-2.15.913a9.158,9.158,0,0,0-2.238,1.712c-.307.711-1.319,1.379-1.373,2.191,0,.3.2.159.68-.178Zm4.088-5.433c1.023-.679,1.12-.694,1.009-1.6-.139-1.128-.255-1.062-1.232.434-.643.984-.863,1.268-.765,1.451.167.313.351.134.988-.289Zm-3.725-8.3c-.109-.5-.262-.393-.777.06-.948.833-1.1,1.436-.507,1.753.314.168.556.149.743-.263A4.709,4.709,0,0,0,2586.315,1852.982Zm-5.307,7.89a2.6,2.6,0,0,0-1.107-1.3c-.422-.219-.678-.178-1.081.335-.372.474-.2.755.359,1.463.409.518.576.683.9.683.391-.154,1.014-.68.932-1.178Zm-20.539,19.784c-.27-.523-.845-1.076-1.108-.983a.985.985,0,0,0-.554.75,1.085,1.085,0,0,0,.882.872C2560.316,1881.206,2560.7,1881.1,2560.469,1880.656Zm2.505-.8a15.348,15.348,0,0,0-1.786-1.833c-.274,0-.927.687-.927.969a4.267,4.267,0,0,0,1.3,1.808C2562.378,1880.727,2563.882,1880.819,2562.974,1879.859Zm3.091.16a25.116,25.116,0,0,0-3.326-3.519c-.29,0-.864.638-.864.933a10.483,10.483,0,0,0,1.892,2.473c.452.473.493.541,1.047.455.6-.095,1.392.036,1.251-.342Zm5.38-.724c0-.654-.342-1.013-1.717-2.5-.5-.541-1.341-1.481-1.873-2.088-1.027-1.176-1.467-1.536-1.877-1.537a1.1,1.1,0,0,0-.819.86,61.612,61.612,0,0,0,4.823,5.589c.508.548.736.707,1.224.447.28-.192.239-.516.239-.767Zm-3.962-7.787c-.514.423-.706.6-.708.879,0,.431,4.364,5.239,4.753,5.239.229,0,.194-.031.329-.548.27-1.569-.155-2.03-1.287-3.065-.759-.694-2.29-3.083-3.087-2.5Zm7.7-3.217c-1.219-1.461-1.894-2.133-2.142-2.133a1.187,1.187,0,0,0-.7.467c-.455.432-.412.417-.124.931a7.475,7.475,0,0,0,.932,1.168c.672.694,1.016.915,1.34.582.286-.3.993-.643.69-1.015Zm-.637-3.645a1.126,1.126,0,0,0-.8.826,7.607,7.607,0,0,0,1.679,2.108c.558.5.821.636,1.209.306a1,1,0,0,0,.044-1.131c-.494-.564-1.574-2.084-2.135-2.109Zm3.427.358a5.515,5.515,0,0,0-1.65-2.213c-.329,0-1.026.766-1.026,1.12a2.776,2.776,0,0,0,.72,1.138c.891,1.035,1.119,1.263,1.313,1.1A1.676,1.676,0,0,0,2577.976,1865Zm1.408-1.83c.082-.357-.138-.725-.637-1.352-.623-.784-.928-.837-1.516-.229a.964.964,0,0,0-.317.528,5.622,5.622,0,0,0,1.549,1.963c.561-.07.732-.478.921-.91Zm-2.3,4.121a1.465,1.465,0,0,1-.86,1.137c-3.99,2.881-3.861,7.575-4.713,11.909-6.461-.065-16.675,2.59-16.612,2.73l34.336-34.706s.426.1.166.41c-2.779,2-2.606,5.893-4.434,7.842-3.053,3.7-5.891,6.905-7.883,10.678Zm-18.637,14.176c.056-.392-.3-.5-.619-.184s-.187.551.253.5c.231-.026.339-.119.366-.316Zm10.582-1.459c.127-.33-.174-.638-2.015-2.684-1.863-2.072-2.285-2.557-2.607-2.557a1.61,1.61,0,0,0-.941.956,2.763,2.763,0,0,0,.65.933c.358.386,1.038,1.143,1.51,1.683a11.856,11.856,0,0,0,1.511,1.6,1.515,1.515,0,0,0,1.021.2C2568.828,1880.14,2568.973,1880.162,2569.03,1880.012Zm3.183-6.512a7.72,7.72,0,0,0,.308-.921,17.517,17.517,0,0,0-2.747-2.944c-.476-.308-1.371.7-1.148,1.286a14.949,14.949,0,0,0,1.554,1.833c1.009,1.074,1.514,1.58,1.678,1.555s.19-.279.355-.809Zm.984-2.525a1.781,1.781,0,0,0,.312-.743,4.3,4.3,0,0,0-.956-1.288c-1.049-1.182-1.318-1.318-1.893-.767s-.378.8.628,1.944c1.259,1.429,1.4,1.6,1.909.854Zm8.992-11.281c.391-.466.4-.7.041-1.123-.152-.181-.374-.445-.492-.587-.323-.387-.749-.323-1.19.18a1.438,1.438,0,0,0-.349.564,2.633,2.633,0,0,0,.5.737c.62.726,1,.8,1.486.229Zm1.377-1.781c.267-.407.147-.854-.351-1.309-.472-.432-.706-.45-1.037-.081-.443.493-.371.657.1,1.185.538.6.97.686,1.284.2Zm1.1-1.477a.713.713,0,0,0,.031-1.1c-.309-.394-.629-.5-.954-.326-.566.3-.506.824.051,1.411.338.357.5.4.872.019Zm-26.273,74.03c7.032.789,14.587,1.341,27.905-.733l.067-4.528c-4.154,3.245-9.607,1.021-9.921-2.716a38.769,38.769,0,0,1,1.6-9.909c.557-2.035.716-2.82.195-3.217-1.149-.648-3.188-.73-3.709-2.083-.25-.714-.273-1.477.091-.933a6.736,6.736,0,0,0,2.53,1.1c1.8.4,2.094.538,2.3,1.28a9.928,9.928,0,0,1-.643,3.546,19.635,19.635,0,0,0-.737,3.046c0,.354.276.411.586.313a13.476,13.476,0,0,0,1.167-1.035c1.732-1.549,2.235-1.5.755.013-.589.6-1.4,1.434-1.4,1.5,0,.32.3.284.965.043a7.627,7.627,0,0,1,4.495.212c1.329.669,1.385.639,1.355-1.388a46.5,46.5,0,0,0-2.087-11.769c-1.879-5.335-5.782-10.286-11.547-10.063-7.027.367-11.268,3.171-16.049,6.53,2.888,6.418-1.285,11.334-2.8,11.984-.146.062,1.892,6.524,2.763,9.807.791,2.982,2.12,9,2.12,9Zm29.916-154.812c-.164-.422-4.073-13.186-5.166-18.525-10.569-.616-18.384-1.495-27.69,1.152,0,0-.2,3.6-.1,3.771.095.444.415.434.677.288,4.3-2.366,8.956-1.3,9.28,4.535.123,2.229-.624,3.8-.761,5.913-.119,1.847-1.568,4.307-.689,5.709a5.207,5.207,0,0,0,1.577.876c1.579.677,2.2,1.3,2.313,2.332.171.713-.264,1.193-.4.46-.084-.465-.165-.875-2.113-1.543-1.9-.651-2.411-1.407-2.6-1.8a2.242,2.242,0,0,1,.033-1.811,20.653,20.653,0,0,0,.985-4.654c-.017-.323-.373-.166-.829.223a24.19,24.19,0,0,1-3.124,2.057,5.166,5.166,0,0,1,1.1-1.355,13.3,13.3,0,0,0,1.887-1.961c0-.317-.123-.1-.938.146a6.628,6.628,0,0,1-4.16-.151c-.933-.412-1.588-.65-1.727-.425-.346,5.684.5,11.544,2.877,16.115,2.133,4.153,6.564,9.354,13.229,8.187,6.886-1.206,13.585-6.755,13.345-6.762-2.57-5.83.358-10.171,2.993-12.772Zm-54.587,155.19c-3.051-3.062-10.742-6.392-16.028-7.921-.423-.091-.84-.293-.843.209l-.062,10.508-9.506,8.87v4.228h20.268l13.305-19.541s.642-.115.713-.235a92.948,92.948,0,0,0-8.457-22.822,4.453,4.453,0,0,1-6.347-.606c-1.678-1.883-.648-5.191.943-6.4a24.024,24.024,0,0,0-5.947-3.3c-.38-.093-.945.676-1.13,1.372-.333,1.13-.887,2.141-1.259,3.281-.409.952-.8,1.1-1.413.829-.95-.283-1.2-.381-1.2-.381l.031,12.352a26.023,26.023,0,0,1,16.935,19.561Zm30.31-132.011,2.16-2.351a60.442,60.442,0,0,1-11.194-2.351A36.847,36.847,0,0,0,2564.037,1798.833Zm-11.873-6.613c3.81,1.273,8.63,4.241,14.65,3.123-5.487-2.181-9.654-7.277-11.429-17.651-.388,2.014-1.191,6.2-2.455,6.654-1.775-6.885-8.914-2.881-6.052,2.734-7.235,4.981-15.935,7.792-23.825,11.634,0,0-1.188,3.652-7.1,8.655-1.116-5.866.214-14.569-.478-20.462l-9.266-8.768a33.15,33.15,0,0,1,0,4.661,3,3,0,0,0,.962.732c.6,33.79-.206,67.193-.2,97.884-.092,18.809.4,38.406.13,56.164l-.347.642.015,4.245,9.461-9.026a80.8,80.8,0,0,1,.056-11.3c5.971,1.2,11.54,4.016,16.532,7.1.629.175-3.064-12.3-16.491-17.837,0,0-.018-3.9-.018-12.363,0-8.17-.127-9.034-.308-9.167-.544.592-7.415,2.911-7.763,2.519.183.062-1.938-14.46-.1-16.666l6.574.139c1.88,1.52,1.124-.331,2.216-.636.654-.177,3.7,1.01,3.7,1.01,12.528-14.818,11.276-39.186,2.285-52.9-2.3,1.874-4.752,4.414-7.062,5.5-.027-.079-.042-7.559-.042-7.559,11.971-7.7,24.993-30,24.162-30.076a59.227,59.227,0,0,1,5.146,5.663l-11.818,17.148c2.707,5.461,5.445,10.413,7.222,15.215.24.65.98.632,1.167,1.315.159.584-.552,1.4-.454,2.04,2.494,9.556,3.059,19.7.6,28.883-.519,2.067.431,3.744,1.7,5.3.1.135-1.184-1.118-1.3-1.187-.442-.266-1.179.667-1.334,1.843.1.722.492.849,1.01,1.433.912.76,4.535,4.334,6.131,5.967,1.417,1.45,1.784,1.515,2.739.487.269-.252.549-.595.81-.809.049.079.4-.289.522-.406l21.341-20.871c2.479-2.424-21.309,21.9-21.309,21.9s-11.536,11.347-14.366,14.144c-2.923,2.89-3.317,3.522-3.434,3.736-.209.384.943.373,1.466.3a4.1,4.1,0,0,1-.926.108c-3-.408-4.028,2.655-5.922,3.325-5.01,3.565-1.642,9.29,3.146,7.4l1.166-.562a107.928,107.928,0,0,1,9.05,23.785l-.791.366-12.623,18.973h71.586c-5.142-5.129-9.516-11.426-13.97-16.139-7.139,2.139-28.727,1.7-28.386.773,0,0-3.268-13.259-5.117-19.772,5.869-5.036,5.267-12.98-3.252-16.547a31.926,31.926,0,0,1,18.532-6.967c1.977,5.031,6.619,5.348,8.811.741.014-.051,8.231,2.531,11.26,5.326-4.492-.466-8.928-1.362-13.423-1.577a16.566,16.566,0,0,1,9.275,10.329c.632,1.669,1.6,7.181,1.854,7.2,0,0,1.5-6.366,2.661-6.016,2.965,6.2,8.077,1.536,5.924-3.4,7.551-3.611,16.047-7.645,22.993-10.992,2.028-3.063,7.012-8.88,7.34-8.905,0,0,9.168-52.629,9.167-70.223-.3-21.151.368-44.7-.542-64.479v-5.632H2614.3l-13.825,20.323a2.236,2.236,0,0,0-.1.463,97.524,97.524,0,0,0,8.106,22.806c5.242-3.967,9.659,2.565,5.728,6.358-.738.712-.54.891.2,1.387s5.7,3,5.934,3c.9-1.339,1.161-3.317,1.767-4.828.153-.575.587-.646,1.454-.544,1.114.131,1.108.6,1.071-6.508l-.032-6.1c-6.72-3.1-15.618-10.987-16.033-19.187,3.886,2.833,12.814,6.951,15.2,7.32,1.048.293.887-1.536.919-2.27.284.191.386,3.016.386,3.016-3.944-1.2-6.011-.951-15.856-6.667,1.689,8.066,9.751,14.427,15.6,17.329,0,0,.245,3.83.232,8.122-.037,13.087.093,13.664.093,13.664a38.712,38.712,0,0,0,4.11-1.266c1.6-1.28,4.151-.3,4.505.644.519,4.939.02,9.519-.09,14.236-2.724.194-4.217.769-5.561.824-.873-.117-1.4-.123-1.851-.621-1.3-2.816-1.217-1.03-1.375,1.085-.119.626-3.377-.464-3.7-.652-14.066,16.225-12.868,34.9-3.314,52.2a59.856,59.856,0,0,1,7.013-4.441c.065,2.2.1,6.731.1,6.731-11.012,8.095-24.2,29.542-23.754,29.6l-4.474-5.352s2.816-4.486,3.809-5.672a8.006,8.006,0,0,0,.19-1.527l6.837-9.906c-2.916-6.61-6.917-11.689-7.946-18.147-4.561-20.648.381-30.919.017-31.7,0,0-.061-.413-.158-.493-.149-.125.039-.244.207-.539.325-.572.844-1.745.667-2.092-.131-.257-3.83-3.963-7-7.014-1.669-1.6-1.6-1.789-2.464-.913-.319.325-1.1,1.251-1.1,1.251-11.458,10.621-20.551,20.293-32.049,31.6l-.552-.5c16.726-16.658,33.607-33.15,50.172-49.969l-2.914.05a.751.751,0,0,1,.373-.466,9.132,9.132,0,0,0,4.329-1.134c2.363-1.759,5.755-4.113,6.02-6.432-.17-4.464-3.928-5.111-6.641-2.929a83.461,83.461,0,0,1-8.358-22.579c-.075-.378-.607-1.031-.687-1.463.809-2.532,13.619-20.022,13.619-20.022h-71.939l13.691,16.335c0-.652,19.512-2.96,28.449-.234l5.442,19.369c-4.944,4.789-6.405,12.665,2.687,16.765.177.384-.862,1.015-.862,1.015.145-.236.4-.48.294-.7a20.076,20.076,0,0,1-5.074-3.791c-5.47,4.281-10.583,6.665-15.592,6.877,0,0,2.645,1.8,3.156,3.769,0,0-.246-.03-.31-.109-.543-.665-1.791-2.815-2.842-3.448a4.588,4.588,0,0,0-4.245.855l-1.9,1.843c-4.37-1.332-9.224-3.51-11.9-6.817Zm-.732,47.406,2-1.971a10.17,10.17,0,0,1,2.31-5.352c1.869-2.248,3.936-4.362,5.458-6.363,1.828-2.4,2.82-4.581,2.339-5.589,2.724-.492,5.225-2.9,5.305-7.273a18.247,18.247,0,0,1,1.222-5.6s19.014-.648,32.094-13.142c0,0,.916.2.7.366a45.5,45.5,0,0,1-16.457,10.975l-34.36,34.388Zm3.8-3.945c.514-.515.63-.684.339-.925-.443-.369-1.3.392-1.3,1.155,0,.486.384.344.957-.23Zm1.779-1.753c.409-.392.394-.677.056-1.015-.464-.465-1.14-.18-1.367.571s.67,1.061,1.312.444Zm1.566-1.586a1.969,1.969,0,0,0,.383-.547c0-.266-.656-.869-.945-.869a1.408,1.408,0,0,0-1.028.967c0,.29.661.885.983.885A1.264,1.264,0,0,0,2558.581,1832.342Zm1.476-2.955c-.468-.394-.775-.4-1.161-.011-.448.449-.4.943.134,1.413.406.425.58.384,1.13.044C2560.621,1830.361,2560.7,1829.92,2560.057,1829.387Zm1.732-.263c.506-.426.434-.776-.117-1.329-.58-.581-1.028-.585-1.441.03a1.062,1.062,0,0,0-.183.529,2.669,2.669,0,0,0,1.209,1.079,1.066,1.066,0,0,0,.532-.309Zm1.666-1.649c.43-.449.375-.77-.241-1.406-.518-.534-.879-.575-1.335-.151-.473.438-.374.9.158,1.435S2562.976,1827.976,2563.455,1827.475Zm1.888-1.914c.315-.334.23-.307.008-.67a4.347,4.347,0,0,0-1.642-1.488c-.361,0-.677.578-.674,1.148s.279.8,1,1.362c.477.376.331.41.7.2a2.486,2.486,0,0,0,.615-.547Zm1.5-1.371c.676-.771.548-.92-1.084-2.642-.553-.584-.668-.651-1.064-.617-.375.031-.4.124-.594.521-.357.731-.093,1.1.934,2.2C2566.088,1824.774,2566.244,1824.871,2566.84,1824.19Zm1.673-1.8a1.14,1.14,0,0,0,.436-.667,6.588,6.588,0,0,0-1.794-2.039c-.334-.192-.683-.083-1.116.29-.26.224-.254.278-.192.525a7.548,7.548,0,0,0,2.08,2.2A1.085,1.085,0,0,0,2568.513,1822.391Zm1.659-1.613a1.728,1.728,0,0,0,.5-.785,7.063,7.063,0,0,0-1.865-2.206c-.374-.2-.592-.115-.961.405-.426.6-.26.873.585,1.848.8.925,1.058,1.206,1.208,1.206A2.342,2.342,0,0,0,2570.172,1820.778Zm1.566-1.688c.359-.219.83-.681.639-1.057a29.448,29.448,0,0,0-2.964-3.178c-.526-.282-.511.125-.511,1.436v.681l1.148,1.125c1.672,1.641,1.3,1.241,1.688.993Zm2.028-1.864a1.418,1.418,0,0,0,.383-.658c-1.035-1.263-4.045-5.255-4.589-5.107-.056.015-.079.018-.118.132a4.957,4.957,0,0,0-.1,1.9c.95.915,3.19,3.893,3.7,4.078.3.116.436-.055.723-.342Zm1.617-1.7a1.093,1.093,0,0,0,.345-.55,3.8,3.8,0,0,0-.69-.959c-.356-.42-1.053-1.271-1.549-1.89-2.835-3.544-3.041-3.808-3.474-3.448a1.587,1.587,0,0,0-.21,1.383,50.086,50.086,0,0,0,4.341,5.246C2574.781,1815.922,2574.907,1815.983,2575.383,1815.526Zm1.631-1.566a1.376,1.376,0,0,0,.44-.674,5.586,5.586,0,0,0-.936-1.283c-.478-.563-1.276-1.524-1.772-2.136-1.272-1.568-1.283-1.624-2.232-1.722-1.439-.148-1.247.17.383,2.075.4.462,1.14,1.372,1.656,2.024,1.209,1.526,1.742,2.088,1.981,2.088.106,0,.238-.144.48-.372Zm1.663-1.633c.738-.622.592-.826-1.806-3.308-.787-.813-.843-.942-1.454-.942s-.812.127-.812.425a38.9,38.9,0,0,0,3.352,3.995c.307.123.343.148.72-.17Zm1.748-1.793a1.3,1.3,0,0,0,.358-.607,4.584,4.584,0,0,0-1.314-1.689,1.9,1.9,0,0,0-.914-.532,2.039,2.039,0,0,0-1.227.427,9.321,9.321,0,0,0,1.762,2.238c.6.637.84.693,1.335.163Zm1.534-1.525c.386-.387.383-.742-.012-1.26-.286-.376-.372-.413-.961-.413-1.116,0-1.148.286-.284,1.211C2581.344,1809.234,2581.521,1809.448,2581.959,1809.009Zm1.643-1.62c.434-.552.063-.856-.65-.531a.664.664,0,0,0-.294.371C2582.438,1807.8,2583.184,1807.921,2583.6,1807.389Zm-27.43,4.672c-1.586,1-4.252,2.908-6.064,4.18a5.722,5.722,0,0,0,0,1.509c1.027-.7,4.33-2.814,5.829-4.005.075-.447.185-1.234.234-1.684Zm2.91-4.611c-.053-.27-.231-.1-.7.3-.614.52-5.83,4.392-7.215,5.366a6.138,6.138,0,0,0-1.079.814,2.891,2.891,0,0,0,.095,1.439c1.13-.864,6.493-4.468,6.574-4.593.553-.886,1.79-2.432,2.326-3.325Zm-.6,11.67s-6.4,7.7-8.455,11.544c0,0-.014,4.39-.073,6.919l-.349.1s-.029-6.777-.116-14.132c-.216-18.379-.4-22.842-.4-22.842l-2.078-1.524-.086-.723s9.218,6.467,13.716,7.5c-3.286,5.16-6.325,7.15-2.163,13.161Zm-7.592,9.215c.128-.31.041-.295-.223-.283a.362.362,0,0,0-.313.385c-.01.225.01.278.185.244A.628.628,0,0,0,2550.892,1828.335Zm1.539-2.283c.92-1.136,1.682-1.873,1.818-2.708a18.5,18.5,0,0,0-4.037,2.733c.033,1.262-.255,1.414.781.857.455-.247.823-.552,1.438-.882Zm.29-2.815c.989-.824,4.6-2.768,5.01-3.726a.7.7,0,0,0-.435-.813c.065.058-5.166,3.2-7.074,4.846a.942.942,0,0,0-.013.874c.209.552.627.1,2.512-1.181Zm-1.2-1.515c1.075-.719,3.62-2.481,4.253-2.922,1.077-.75,1.291-1,.9-1.556a.522.522,0,0,0-.721-.2c-3.115,2.174-3.384,2.542-5.749,4.065a1.392,1.392,0,0,0,.127,1.292c.179.011.48-.21,1.187-.682Zm-.012-2.346a50.548,50.548,0,0,0,4.47-3.324c.111-.25.144-1.229-.042-1.333-1.056.805-3.879,2.536-5.809,4.1-.05.322-.109,1.045.047,1.2.392.163.509-.05,1.334-.648Zm-.339-7.425c2.066-1.536,3.975-2.872,6.126-4.312,1.823-1.212,2.127-1.482,1.428-1.844a1.608,1.608,0,0,0-1.037-.217c-2.422,1.959-5.113,3.833-7.679,5.736a8.409,8.409,0,0,0-.015,1.093c-.025.389.487.057,1.178-.456Zm-.284-2.191c.17-.149,1.252-.868,2.4-1.7,3.091-2.241,3.455-2.46,3.455-2.7,0-.65-.891-.788-1.7-.126-1.49,1.216-5.047,3.431-5.055,3.745-.013.463-.091.919.044,1.122.171.257.421.042.856-.34Zm.892-3.036c3.145-2.2,3.02-2.095,3.02-2.49,0-.344-.306-.189-.787-.224-.453-.033-.462.094-1.325.747-1.835,1.389-2.506,1.77-2.7,2.18-.06.129-.1.638.009.751C2550.217,1807.909,2550.472,1807.637,2551.778,1806.724Zm.208-2.186a9.756,9.756,0,0,0,1.151-1c.089-.234-.376-.651-.726-.651-.38,0-.675.2-1.615,1.008-.83.716-1,.565-.933.97a4.05,4.05,0,0,0,.12.845C2550.184,1805.955,2550.614,1805.683,2551.986,1804.538Zm-1.273-1.419c.665-.56.805-.676.32-1.161-.439-.44-.951-.549-1.221-.279a6.484,6.484,0,0,0-.019,1.589c-.027.372.467.233.92-.149Zm14.241-12.093a3.707,3.707,0,0,1,2.024-1.282,5.6,5.6,0,0,1,3.468.367c.838.42,1.746,1.427.4.814a8.079,8.079,0,0,0-4.844-.113c-.712.361-1.048.454-1.048.214Zm-.86-4.246a7.921,7.921,0,0,1,1.883.377,8.555,8.555,0,0,0,4.9-.332c.42-.121.629.17.37.383a6.772,6.772,0,0,1-3.1,1.093c-2.237.208-4.644-.936-4.048-1.521Zm-10.97-3.309c.954-.468,2.12-7.029,1.745-8.158-1.169,1.788-2.479,2.591-4.345,2.281-3.057-.508-3.17-4.276-.809-4.656.943-.151,2.1.472,2.287.326,1.006-.473,1.8-3.861,2.041-4.957.18-1.075.446-4.054.486-5,.085-2.016.008-4.991.008-4.991l-14.871-17.9h-32.374s-.077,24.9,0,37.673l9,8.869.116,14.334c10.306-4.506,20.281-9.238,30.046-14.357-1.133-1.356-1.1-4.772.964-6.064a3.639,3.639,0,0,1,5.712,2.6Zm8.164,3.038c.07-.808.669-1.472.711-2.294,0-.183.148-.4.633-.138.632.337.826.1,1.541-.23a2.543,2.543,0,0,1,2.608-.18,1.158,1.158,0,0,0,1.418.029,2.736,2.736,0,0,1,2.385-.46c1.063.371,1.433.576,2.04.282.3-.149.688-.7.755-.662.436.65.348,1.673.627,2.248.493.977.3,1.677-.281,1.2-1.223-1.01-2.175-1.035-3.929-.6a6.138,6.138,0,0,1-2.68.317c-3.525-.418-3.764-.312-4.48.167-.7.466-1.231.514-1.348.324Zm9.462-6.4c-1.018-.255-2.181-1.182-3.023-.933a1.2,1.2,0,0,1-1.1-1.83c.912-.889,2.327.008,2.877.425,1.194.909,1.365.981,1.847.981,1.982-.039,1.6-1.895.645-2.571-.568-.6-.625-.984-.5-1.13.2-.237.762-.037,1.382.616,1.186,1.117,1.214,3.342-.241,4.014A2.348,2.348,0,0,1,2570.75,1780.109Zm4.136-6.432a23.342,23.342,0,0,1-2.993-2.707,2.869,2.869,0,0,1-.924-2.21c.07-.565.156-.9-.206-1.089a1.83,1.83,0,0,1-.68-1.5c.02-.124.455-.05.718.28.333.054.264-.145.625-.385,3.769-2.534,6.794-2.046,10.369-.3,1.038.5,3.746,2.557,2.3,1.89-.087-.04-1.037-.452-2-.937-3.1-1.487-6.556-2.388-9.369-.476-.484.339-.776.6-.4.6,1.582-.308,3.145-.967,4.769-.864,2.422.031,3.887,1.229,5.7,2.056,1.971.882,2.352,1.184,1.633,1.912-.2.225-.366.218-1.318.145-1.023-.078-1.108-.049-1.684.321a8.7,8.7,0,0,1-5.211,1.351c-2.052-.173-2.272-.338-2.314-.042-.027.19.414.517,1.022,1.074a14.182,14.182,0,0,1,1.135,1.142C2576.232,1774.236,2575.451,1774.087,2574.886,1773.677Zm-.575-3.289a4.477,4.477,0,0,0-.727-1.574c-.259-.263-.462-.16-1.013.229-.415.292-.459.523-.077.862C2573.3,1770.627,2574.318,1770.808,2574.311,1770.388Zm3.089.145c.829-.4,1.671-1.825,1.288-2.287-.227-.275-.425-.014-.86.758a4.017,4.017,0,0,1-.719.946c-.677.474-1.57.031-1.945-1.016-.227-.633-.466-1.035-.73-.795-.478.434.063,2,1.012,2.4A2.54,2.54,0,0,0,2577.4,1770.533Zm2.576-.233c.84-.26,1.241-.639,1.171-1.006-.059-.3-.664-.662-1.074-.662-.184,0-.545-.008-.674.164a8.17,8.17,0,0,0-.76,1.663c.1.255.382.136,1.337-.159Zm2.9-6.272c-4.189-1.6-7.5-2.248-11.48-.547-1.276.556-2,.613-2.068.161-.054-.382.864-1.513,1.857-2.035a10.608,10.608,0,0,1,8.917-.05,22.887,22.887,0,0,1,3.98,2.793C2584.085,1764.558,2583.82,1764.4,2582.879,1764.028Zm49.022,47.021c1-.527,1.456-1.563.845-2.175a.84.84,0,0,0-.637-.179,19.856,19.856,0,0,0-3.477.976c-.332.178-.211.488.1.775a1.15,1.15,0,0,1,.277.727c.03.4-.05.759.213.7a11.592,11.592,0,0,0,2.674-.821Zm-3.724.961a1.216,1.216,0,0,0-.584-1.665c-.389-.2-.7-.094-1.009.354C2625.842,1812.054,2627.684,1812.636,2628.177,1812.01Zm-3.739.636c.161-1.732.083-6.85.083-6.85a3.756,3.756,0,0,1-1.517.815,10.637,10.637,0,0,1,.783-1.757,11.924,11.924,0,0,0,.244-2.937c-.059-.861-.664-.884-.04-2.43a3.214,3.214,0,0,0-.038-2.6,1.155,1.155,0,0,1,.229-1.372c.431-.569.261-.854.253-2.04-.011-1.644,0-1.911-.5-.585-.742,1.1-1.083.888-2.213.756-1.094,2.455-2.372,5.028-2.422,7.144-.032,1.327-.05,1.533.777,4.323a7.5,7.5,0,0,1,.431,2.64,7.467,7.467,0,0,0,.288,2.282c.324,1.178,1.641,3.125,3.641,2.611Zm-38.028,110.4.008-2.468s-3.94,1.217-5.94.468c-2.059-.558-2.052-.66-2.011-.437.072.4,1.6,1.207,3.015,1.539a10.156,10.156,0,0,0,3.965-.292c.555-.165.613-.01.392.16-2.416,1.892-5.48,1.021-7.405-.549-1.029-1.01-1.718-1.015-1.163.341,2.644,5.368,9.209,2.2,9.143,1.238Zm-2.659-3.668.9.017a5.351,5.351,0,0,0-.739-2.021,2.13,2.13,0,0,0-3.145.126,5.915,5.915,0,0,0-.688,1.905l.721.015c.267-.693,1.4-3.946,2.955-.042Zm-3.586-2.366a3.882,3.882,0,0,0-2.17.723c-.2.223-.2.255.036.572.522.688,1.32,1.018,1.377.76a8.347,8.347,0,0,0,.757-2.055Zm5.921,1.74a1.652,1.652,0,0,0-1.041-1.593c-.3-.075-.606-.137-.517.2a9.327,9.327,0,0,0,.507,1.409c.143.311.235.467.536.349.236-.079.435-.152.515-.365Zm38.452-32.719.008-4.181a55.16,55.16,0,0,0-5.695,7.074Zm-64.354-115.209c.893-.383,1.548-1.552,1.322-2.142-.14-.367-.511-.073-.886.47-.6.873-.756.968-1.286.968-.564,0-.788-.145-1.175-.906-.266-.719-.456-.831-.7-.518-.117.142-.108.344.044.868A1.79,1.79,0,0,0,2560.184,1770.828Zm2.433-.432c.99-.341,1.192-.45,1.145-.78-.049-.346-.837-.808-1.283-.722a4.34,4.34,0,0,0-1.111,1.758C2561.482,1770.837,2561.813,1770.673,2562.617,1770.4Zm-5.71-.578a1.818,1.818,0,0,0-.161-.708.576.576,0,0,0-.989.375c0,.37.527.789.953.789C2557.01,1770.274,2556.967,1770.348,2556.907,1769.818Zm5.594-2.5c1.409.531,2.123.59,1.356-.131-1.053-1.171-5.88-2.508-8.47-.6-.185.263-.147,1.272.055,1.217a7.724,7.724,0,0,1,7.06-.489Zm-4.821-4.037c-1.183.394-2.294,1.015-2.436,1.592-.23.93.186.939,1.733.452a7.435,7.435,0,0,1,5.922.625c1.29.94,1.672.629,1.454-.16-.721-2.614-4.754-3.085-6.673-2.509Z" fill="#131f67"/>
      <path id="path6265-7" d="M2633.645,1746.495l-8.7,8.641.122,10.226c.875,1.607-13.433-4.582-15.692-6.455.262,6.831,9.567,14.614,15.618,17.462l.166,21.866a23.5,23.5,0,0,1,7.785-2.259C2634.127,1781.107,2635.141,1761.761,2633.645,1746.495Zm-48.41,10.7c-.848.015-1.356.245-1.344.791-.255-.042,3.216,12.768,4.8,18.117-3.076,3.114-6.285,8.522-1.692,13.528a21.989,21.989,0,0,0,4.484,3c.761.74-9.341,7.265-18.332,7.268-2.882-6.332-6.909-2.831-9.13-.621-1.734-.153-8.209-4.017-11.521-6.23a6.641,6.641,0,0,1-.012-1.119c.23,1.509,12.976,4.766,13.552,3.254-.368,0-5.718-3.625-7.254-7.2a69.98,69.98,0,0,1-3.532-9.576c-.714,2.049-.47,4.889-2.435,5.905-.588-6.67-10.094-3.268-5.362,3.254-2.658.781-4.931,2.159-7.512,3.307a44.234,44.234,0,0,0,20.678,15.142c-1.035,2.209-7.147,7.183-2.126,13.045.226.181-4.8,5.671-7.269,9.966-1.86,3.232-1.3,5.713-1.086,5.793a103.5,103.5,0,0,0,10.632-14.427c-.058.909,8.079.417,7.943-6.924a20.9,20.9,0,0,1,1.3-5.967c12.416.585,23.092-3.847,32.115-13.154,0,0,1.838.526,3,.706a9.058,9.058,0,0,0,6.487-3.164c1.35-1.1,2.7-2.153,3.178-3.281,1.776-7.641-6.025-4.655-6.392-4.247-4.456-6.07-8.225-23.319-8.831-23.454-2.49-.5-11-3.766-14.331-3.709Zm-30.586,11.718c-.332.022-1.527,5.36-2.585,5.319-4.481-2.892-4.578,3.093-.724,2.821,3.255-.23,5.075-5.494,3.325-8.136a.04.04,0,0,0-.016,0Zm-47.9,10.155c.148,32.455.731,64.9,1.49,97.344,2.928-.725,5.057-1.277,7.928-.02.27-9.223-.54-32.5-.347-55.038,10.943-8.526,18.628-17.93,24.026-30.221l-16.706,7.839s-5.46,7.841-7.2,8.344c-.248-1.116-.527-14.389-.3-20.081Zm37.123,20.074-3.282,4.759s.076,16.344.265,24.219c.136,1.568,1.558,3.006.42,4.411.694,0,3.728,21.2.844,29.8-.517,1.539-.033,2.627.774,2.979,4.119,4.57,6.38,8.951,11.807,6.361,5.922-5.428,14.334-14.937,14.334-14.937l-22.239-21.062c-1.907-5.109-2.923-36.531-2.923-36.531Zm81.045,68.161c-10.1,9.041-19.327,18.319-23.107,29.594,5.4-2.175,10.536-4.832,15.788-7.278,2.544-3.063,4.5-6.02,7.415-8.935,0,0,.315,13.3.058,19.97,2.628,1.958,8.868,8.074,8.868,8.074s1.723-94.483-2-96.88c-3.611.7-5.423,2.022-6.77-2.174-.953,19.237-.256,57.629-.256,57.629Zm-34.966-53.175c-3.883,3.18-17.236,16.3-17.208,16.439,3.541,5.949,17.527,17.868,24.23,24.532l.971,33.945c.986-1.329,1.7-2.58,2.774-3.91,0,0-.175-17.187-.59-25.245-.122-2.383-.667-4.261-.5-4.478-1.887-9.78-2.67-20.584,0-31.071-6.333-5.464-8.345-9.1-9.682-10.212Zm1.04,38.771a.067.067,0,0,0-.031.023c-3.278,4.678-9.547,14.833-10,14.809-.132-.3-6.477-.02-7.677,3.98-1.007,2.977-1.084,5.717-1.818,8.788-12.731-.417-22.051,3.616-31.865,12.679-4.809-.031-8.381,1.083-10.05,3.115-2.491,1.808-3.166,3.352-3.043,5.241.221,3.423,6.258,3.91,6.567,1.5.306,0,5.908,12.821,6.453,15.006,1.321,3.532,2.736,10.14,2.9,10.151,2.255.145,14.916,3.7,14.962,2.412,1.193-.513-4.4-18.86-4.4-18.86,9.781-8.221-1-17.007-3.536-16.685a35.725,35.725,0,0,1,19.006-7c1.091,3.924,6.148,5.94,8.694.726,0,0,10.954,3.928,10.909,5.23-4.51-.682-8.218-1.038-12.735-1.471,8.654,4.706,8.919,10.908,10.686,17.083a63.744,63.744,0,0,1,2.523-5.871c2.935,6.522,8.517,2,6.214-3.269l6.945-3.226c.8-.407-10.381-13.009-20.551-14.794.512-.939.715-1.822,1.244-2.586,2.55-2.507,4.527-6.177.628-10.568,2.574-3.6,8.541-12.3,8.163-12.455,0,0,.116-4.065-.193-3.956Zm-83.617,40.084c-.1,0-.278,30.158-.067,45.129a27.934,27.934,0,0,0-.412,3.933l9.26-8.715.278-11.267c2.418-.579,17.489,7.086,16.283,7.044,1.15-.485-6.957-15.825-16.414-17.526-.176-8.691-.265-18.529-.513-21.174A69.538,69.538,0,0,0,2507.373,1892.986Zm82.219,18.142c-2.594.775-3.675,6.236-2.835,8.885.155.49.057.6.469.116,1.011-1.486.692-4.446,2.477-6.01C2594.418,1915.544,2593.95,1909.4,2589.592,1911.128Z" fill="#e2cf00"/>
      <path id="path6267-4" d="M2529.6,1946.7l12.259-18.556c14.636,4.9,29.578,4.99,44.678,2.572l13.5,15.984h-5.517l-8.494-12.153c-3.079.712-6.278,1.023-9.465,1.462l3.975,10.691H2576.2l-3.123-10.575a100.18,100.18,0,0,1-17.4-.966l-1.832,11.541h-4.4l2.972-11.917a85.86,85.86,0,0,1-9.852-2.138l-9,14.055Zm14.04-10.92,5.089,1.381-2.486,9.539h-9.31Zm13.143,10.92,1.439-8.427a66.021,66.021,0,0,0,12.58.763l2.211,7.664Zm24.09-7.813,4.015-1.066,6.019,8.879h-7.315Zm-58.568-53.623c19.583-22.819,16.978-46.774,6.16-66.1l2.3-2.37c12.51,20.6,15.172,49.883-7.882,72.58C2522.636,1888.007,2522.3,1885.263,2522.3,1885.263Zm78.089-25.592c2.813,4.8,4.533,9.655,7.506,14.479l-7.053,9.551Zm-84.251,15.114c-.183-15.057.045-45.565.045-45.565l6.607-5.064c7.906,9.615,12.22,34.959-1.977,51.826-1.032-.754-3.844-.44-4.676-1.2Zm93.808-3.038c-18.121-30.625-8.818-52.995,8.646-72.825.051,1.529.078,3.088.216,4.611-14.994,17.2-20.99,42.641-6.289,65.656Zm-32.814-4.449,8.253-11.267s1.564-4.482,2.882-5.806l1.513-1.341c.5.487,1.54,1.513,1.54,1.513l-.916,3.476q-4.579,7.07-9.651,14.14S2577.825,1867.5,2577.133,1867.3Zm43.9-54.689c.261-.3,3.537,1.074,3.537,1.074l.209,46.3-6.558,4.222c-1.9.968-16.772-29.418,2.812-51.6Zm-69.091,19.5c2.986-4.075,6.132-7.6,9.026-11.347a13.7,13.7,0,0,0,2.714.3c.207.112-.661,3.106-2.8,5.169-5.877,7.043-7.212,8.348-7.426,11.253-.069.934-2.142,2.007-2.142,2.007l-1.491-1.575a19.4,19.4,0,0,1,2.122-5.809Zm-18.624-17.76,6.746-8.841.481,22.995Zm21.509-57.571-13.011-16.294h6.3l7.749,11.531,9.281-1.061-3.266-10.47h3.845l2.716,10.3c5.692.136,11.256.579,16.658,1.122l2.776-11.423h3.916l-3.554,11.953,10.481,2.757,9.338-14.71h4.639l-13.234,18.991c-17.3-5.207-31.2-4.61-44.634-2.7Zm37.512-6.82,2.965-9.484,8.867.01-6.787,10.833Zm-21.46-2.307-1.874-7.167h15.633l-2.018,8.013a69.9,69.9,0,0,0-11.741-.846Zm-18.741-7.167h6.24l2.43,7.417-3.6.408Z" fill="#d40000"/>
      <path id="path6269-8" d="M2539.773,1739.438l15.067,18.061c3.139-1.125,18.962-2.934,28.454-.764,1.653,6.492,3.4,13.048,5.254,18.958,0,0-.593.694-1.021,1.135-6.061,7-1.771,13.759,3.776,15.964-1,2.082-11.63,7.264-18.1,6.648.011-.065-1.988-4.757-6.039-3.171-1.385.542-1.956,1.586-3.028,2.6-3.867-1.168-8.973-3.715-11.627-6.516,4.967,2.478,9.857,3.811,14.768,3.155a6.721,6.721,0,0,0-1.3-.826,21.653,21.653,0,0,1-2.222-1.34,15.308,15.308,0,0,1-5.363-6.576c-1.8-3.22-2.092-6.684-3.078-9.739-.522,1.566-.747,5.7-2.111,6.558-.353.232-.418.162-.682-.714-1.04-3.179-4.848-2.777-6.1-.513a5.177,5.177,0,0,0,.259,4.609l-2.309,1.285v.382l-1.421.679-.3-.2c-6.607,3.2-13.084,6.526-19.826,9.589,0,0-3.581,5.951-6.857,8.32l-.128-20.213-9.7-8.781-.046,4.81s.465.488.7.733c.133,33.836.021,67.123.042,97.842l.045,28.278-.593.035-.03,3.3.668.15-.094,4.657-.347.023-.05,2.949.529.083-.009,16.645-.524.675.012,4.752,10.131-9.646.226-10.97c7.991,1.512,16.344,7.266,16.344,7.266-1.406-9.189-11.126-16.76-16.709-18.272l.018-21.77a35.61,35.61,0,0,1-6.2,2c-1.015.145-1.406-.01-1.891-.744-.353-.535-.362-1.024-.042-2.131a1.431,1.431,0,0,0-.043-1.173,3.548,3.548,0,0,1-.008-2.351,2.211,2.211,0,0,0-.131-1.864c-.3-.751-.325-.891-.2-1.324.34-1.14.359-1.325.181-1.833a2.877,2.877,0,0,1-.038-2.358c1.494-2.512,4.843-1.893,6.66-1.8.921,1.027,1.471,1.6,1.556.112.645-1.776,3.146.042,4.314.8,9.941-13.347,14.845-31.417,2.374-54.033l-6.938,5.562.016-6.962c9.2-5.923,19.55-19.391,24.031-30.01,1.49,1.75,3.2,3.469,4.815,5.233l-1.055,1.768-.31-.177a127.328,127.328,0,0,1-10.729,15.669,156.24,156.24,0,0,1,7.595,16.148l.569-.256.508,1.64-1,.3c3.394,11.156,3.5,21.485.951,31.011l.6,2.531s3.591,3.485,4.56,4.51c2.53,2.454,5.351,5.2,5.351,5.2l3.278-3.215-.19-.273,28.734-28.585,1.793,1.716c-17.6,17.759-48.168,48.42-48.168,48.42l-1.06.155a11.14,11.14,0,0,1-2.061.088,2.564,2.564,0,0,0-1.8.313,7.234,7.234,0,0,0-2.476,2.119,2.526,2.526,0,0,1-1.2.9c-5.991,3.58-.575,10.788,4.521,6.994a95.084,95.084,0,0,1,8.642,23.713,3.182,3.182,0,0,1-.67.29l-13.429,19.95h5.166l.539-.918h-3.871l12.354-17.878a100.146,100.146,0,0,0,44.781,2.347l12.743,15.531h-5.054l.72.918,6.541.105-14.978-17.71c-5.363,1.436-19.509,2.591-28.382,1.086-1.358-6.6-3.595-13.782-5.251-19.495,8.469-6.641,2.11-15.408-3.116-16.631-.253-.48,10.6-7.089,18.329-6.631,2.214,5.327,7.061,4.538,8.8.574,3.206,1.18,7.366,2.357,10.669,4.989a72.646,72.646,0,0,0-13.708-1.56c7.989,3.1,10.23,9.643,11.214,15.812a13.383,13.383,0,0,0,.721,2.344,22,22,0,0,1,2.577-6.435c.615,2.182,2.883,3.876,5.169,2.578,1.326-.962,1.788-2.614,1.368-4.9-.117-.634-.176-.982-.176-.982l1.775-.963.232.2s1.945-.832,2.911-1.3c.151-.073-.178-.376-.178-.376l17.949-8.481a69.363,69.363,0,0,1,7.161-8.743c.08,7.528.061,10.621.057,19.559l1.013.992c.9.879,2.859,2.7,7.277,6.77a14.491,14.491,0,0,0,1.689,1.368l-.136-131.649h-.147V1775.6l.207-.011V1769l-.186-.108v-2.076l.247-.18.016-17.783-.284-.049-.018-4.265-10,10.6.075,10c-4.464-.578-9.988-3.441-13.79-5.751-1.229-.75-1.915-.95-1.876-.521.534,5.953,9.134,15.056,15.743,17.438l.012,22.393c0,.012,1.56-.782,2.513-1.183l.143.4,2.131-.884.173-.46,1.847-.234c.021.378.084.326.084.326,1.646.461,2.374,1.585,1.711,2.848-.232.424-.277,1.024-.085,1.181.713,1.128.9,2.121.038,3.188a1.144,1.144,0,0,0,.011,1.432c.891,1.8.385,1.681-.285,2.752-.151.81.735,1.338.443,2.1a3.073,3.073,0,0,1-1.024,1.359c-.421.305-.767-.263-.767-.263a14.076,14.076,0,0,1-2.292.757c-.943.306-2.566.854-3.128-.417-.322-.729-.063-1.394-.085-2.208l-1.383-.15-.05,3.7c-.791.422-3.937-1.189-3.937-1.189-13.5,17.528-13.119,36.969-3.108,53.256.1.261,7.053-4.767,7.053-4.767s-.014,4.122.046,6.357a92.2,92.2,0,0,0-23.49,29.341l-3.783-4.493a2.714,2.714,0,0,0,.663-2.181l2.746-4.1.023-1.066,7.142-9.995c.112.6-7.369-13.418-8.365-17.981l.5-.135c-3.357-12.726-2.668-21.637-.244-32.016l-.692-.67-9.422-9.428q-1.147,1.063-2.289,2.133c-.116.11-.691.044-.808.154-4.959,4.658-9.725,9.334-14.444,14.192-.121.126.084.644-.038.769-4.726,4.877-9.626,9.506-14.408,14.375l-1.746-1.669c16.935-16.964,48.84-48.474,48.84-48.474a.513.513,0,0,1,.359-.258,10.414,10.414,0,0,0,2.558-.49c1.052-.245,1.221-.322,1.664-.78a9.645,9.645,0,0,1,.986-.872q.693-.51,3.171-2.671a4.516,4.516,0,0,0,1.61-3.308,4,4,0,0,0-3.12-4.025,5.191,5.191,0,0,0-2.851.756c-.546.369-.8.538-1.037.373a100.858,100.858,0,0,1-8.246-23.145c-.077-.459-.035-.6.339-1.173.232-.359.738-1.152,1.128-1.764,4.312-6.726,8.723-12.366,12.5-18.555h-5.329l-.658,1.05h4.387l-13.049,18.818c-24.047-7.876-43.752-2.884-44.225-2.776l-13-16.042h5.945l-.72-1.05Zm11.7,0,.661,1.05h6.237l-.354-1.05Zm10.4,1.05h3.845l-.221-1.05h-3.944Zm6.88-1.05.244,1.05h15.634l.277-1.05Zm19.115,1.05h3.916l.295-1.05h-3.94Zm7.751-1.05-.335,1.05h8.88l.665-1.05Zm37.977,7.262.138,2.917-6.4,6.761.008,9.439-1.864-.433-.074-9.755Zm-1.8,6.218c.054,2.891-.413,5.663.35,8.611a25.011,25.011,0,0,1,1.233,4.867l-2.112-.05c-.268-.866-.372-1.821-.689-2.888a16.775,16.775,0,0,1-.836-8.182Zm-46.091,4.715c.076.144.329,1.365.562,2.5a109.751,109.751,0,0,0,4.11,15.532c1.927,5.917,4.779,13.367,7.55,16.82.368.43.548.921.417,1.135-.224.362-1.356-.144-2.115-.946a12.267,12.267,0,0,1-1.349-2.073c-.968-1.816-2.27-4.46-2.4-4.878-.053-.17-.564-1.476-1.137-2.9a73.748,73.748,0,0,1-2.434-6.978c-.665-2.2-1.277-4.505-2.019-6.824a84.2,84.2,0,0,1-2.589-10.3,5.138,5.138,0,0,1-.206-1.232A1.545,1.545,0,0,1,2585.713,1757.633Zm.678.237c-.12-.1,1.1-.12,1.49.208a6.326,6.326,0,0,1,.5,1.783,128.43,128.43,0,0,0,4.7,17.237,66.164,66.164,0,0,0,5.327,12.274,25.041,25.041,0,0,0,2.685,3.748c.636.752.688.858.517,1.065-.211.254-.578.221-1.287-.116a5.79,5.79,0,0,1-2.049-1.976c-.231-.333-.58-.833-.779-1.111a79.984,79.984,0,0,1-6.679-15.636,115.138,115.138,0,0,1-4.384-16.859c-.013-.206-.025-.412-.038-.617Zm3.889.806a4.168,4.168,0,0,1,.664,1.911c1.289,5.3,2.344,10.045,3.867,14.4.82,2.343,1.529,4.683,2.408,6.89a37.672,37.672,0,0,0,5.231,9.409,12.466,12.466,0,0,0,3.02,2.6c.735.438.846.549.8.8-.065.227-.782.322-1.017.3a6.731,6.731,0,0,1-3.367-1.768c-3.55-3.843-6.088-10.133-7.937-15.293-3.177-8.885-5.74-19.982-5.252-19.637-.033-.258,1.271.038,1.585.382Zm1.527.321a1.634,1.634,0,0,1,.389.061c.663.182.749.275.909,1.008,1.135,5.073,2.337,9.547,3.679,13.8a79.2,79.2,0,0,0,4.957,12.7,14.037,14.037,0,0,0,5.821,6.38,13.231,13.231,0,0,1,1.244.672c.057.056.041.219-.035.362-.115.217-.248.26-.782.251a4.681,4.681,0,0,1-2.75-1.042c-2.79-1.927-5.23-6.293-6.306-8.769a99.224,99.224,0,0,1-3.61-9.583,107.931,107.931,0,0,1-4.064-15.389c0-.3.2-.458.547-.451Zm41.811,8.29-.019,1.8c-7.026.467-14.229-2.509-20.018-5.187,4.361,5.8,9.017,10.939,20.017,12l.02,1.857c-14.328-.2-24.419-14.741-23.888-18.364,5.893,3.814,16.539,8.225,23.888,7.894Zm-39.543-7.615a1.775,1.775,0,0,1,.991.344c1.171,4.379,2.024,9.242,3.96,14.122,2.378,6,3.7,11.289,8.108,16.23,1.372,1.412,4.06,1.37,4.06,1.37s-.339.764-.8.892a4.9,4.9,0,0,1-2.319-.037c-2.555-1.082-4.507-3.816-5.516-5.668-.945-1.388-3.25-7.109-5.151-12.941-2.068-6.35-3.773-12.952-3.578-14.281A.522.522,0,0,1,2594.075,1759.672Zm2.362.737a1.654,1.654,0,0,1,.662.193c.288.138.413.223.563.764.1.354.081.9.254,1.788a81.427,81.427,0,0,0,3.733,11.9,72.132,72.132,0,0,0,4.4,9.861,21.193,21.193,0,0,0,2.265,3.516c1.476,1.479,3.98,1.552,4.719.085a2.485,2.485,0,0,0-.485-2.84c-.628-.6-2.05-.347-2.088.378,0,.192.354.107.866.046,1.432-.166,1.881,2.374.039,2.8-2.332.536-3.95-2.622-1.892-4.558,3.489-2.37,6.152.868,5.328,3.983a4.242,4.242,0,0,1-3.9,2.845c-2.275.073-3.217-.632-5.551-4.03-2.674-4.3-3.835-8.5-5.72-13.2a57.551,57.551,0,0,1-3.529-13.335.319.319,0,0,1,.332-.193Zm2.213.735a2.259,2.259,0,0,1,.83.234,2.215,2.215,0,0,1,.279.229c3.137,11.469,5.753,18.34,8.416,23.189a3.5,3.5,0,0,1-.22,1.145c-.318.454-.473.342-.886-.375-1.676-3.249-3.271-6.838-4.757-10.536a61.372,61.372,0,0,1-3.96-13.146c.034-.553-.09-.708.3-.74Zm21.162,6.556a.805.805,0,1,1-.8.8A.8.8,0,0,1,2619.812,1767.7Zm-65.186-.147c-.93,1.27-1.693,5.816-2.661,5.871-1.064-.017-2.359-.629-3.194.336-1.015,1.172-.392,2.467.859,3.18a4.346,4.346,0,0,0,2.542.139c3.044-1.023,4.2-5.972,2.454-9.526Zm68.229,1.193a1.164,1.164,0,1,1-1.159,1.166A1.162,1.162,0,0,1,2622.855,1768.746Zm-68.175.552a6.667,6.667,0,0,1-1.379,6.812,3.212,3.212,0,0,1-4.045.151,1.534,1.534,0,0,1,1.14-2.644,2.345,2.345,0,0,1,1.564,1.042c1.058.109,2.277-5.266,2.72-5.361Zm72.22.641a1.312,1.312,0,1,1-1.31,1.312A1.31,1.31,0,0,1,2626.9,1769.939Zm4.638.926a1.339,1.339,0,1,1-1.337,1.339A1.337,1.337,0,0,1,2631.538,1770.865Zm-43.164,6.091c.2,0,.34.19.47.575.272.8.266.892-.157,1.428-4.112,5.7-.364,11.532,5.593,12.165.5.036.755.6,1.021,1.262-.037.312-.039.312-1.391.336a8.044,8.044,0,0,1-2.034-.158,10.889,10.889,0,0,1-5.69-4.2c-1.2-2.018-1.405-4.1-.662-6.886a8.462,8.462,0,0,1,2.018-3.937C2587.916,1777.15,2588.175,1776.957,2588.374,1776.956Zm38.976.633.07,19.564-2.08.76.084-20.807Zm3.936.755q3.887,9.667.366,17.729l-2.363.342c3.242-7.572,1.863-12.993.032-18.227ZM2507,1779.418l8.413,7.955.293,88.621-1.341-.475-.535-87.167-6.83-6.275Zm82.158.255a.3.3,0,0,1,.043,0c.225.027.431.311.62.849a1.248,1.248,0,0,1-.031,1.281c-1.155,2.835-.213,5.533,2.638,6.384.677.214.79.325,1.187,1.166.258.546.374.743.274.864-.149.108-.511.159-1.584-.073a6.85,6.85,0,0,1-3.852-9.788c.241-.422.461-.651.663-.683a.15.15,0,0,1,.042,0Zm-33.775-.351a22.222,22.222,0,0,1,.8,3.848c-.224,1.374-2.174,3.571-3.879,4.373-1.582.606-3.97.3-4.969-.753-3.631-4.257,3.142-8.531,4.846-4.1,1.023,2.908-3.14,3.6-3.325,1.362,0-.576.185-.756.721-1.13.476-.334.421-.63.012-.63a1.807,1.807,0,0,0-.9,2.942c1.416,1.484,3.169.62,4.376-.469,1.627-1.467,1.946-3.573,2.318-5.444Zm35.126,3.235c.081,0,1.745,3.984,1.966,4.551-.055.4-.49.371-1.233-.148a2.926,2.926,0,0,1-1.3-2.123C2589.851,1784.4,2589.689,1782.82,2590.511,1782.557Zm-33.774,1.682c.366,0,.747,1.348.574,2.038-.3,1.2-3.425,3.214-5.62,3.632-.441.083-.913.172-1.048.2a1.853,1.853,0,0,1-1.537-.737c-.39-.4-.575-.793-.482-.887.077-.077,1.083.1,1.937.086,2.393.027,4.239-1.692,5.659-3.742.217-.322.449-.586.517-.586Zm-47.555,1s1.62,1.469,2.473,2.31c-.091,3.908-1.531,8.144-1.529,11.637.034,3.039,2,5.569,2.2,8.214a14.834,14.834,0,0,1-1.225,6.175,13.919,13.919,0,0,0-1.194,5.558c.1,4.317,3.194,9.037,2.107,13.308-1.022,4.012-2.184,6.329-1.876,8.46.594,4.111,2.776,7.754,2.2,11.174-.54,3.184-1.975,6.364-1.822,9.236.178,3.316,1.415,6.088,1.765,9.113a21.993,21.993,0,0,1-.328,5.034l-2.27.188c1.248-4.658-.611-8.87-1.324-13.347-.606-3.812,1.1-6.845,1.606-10.1a12.121,12.121,0,0,0-1.04-6.515c-1.973-4.749-1.264-7.845.158-11.98,1.758-4.4-.66-7.892-1.263-12.112a17.982,17.982,0,0,1,1.294-9.44c1.016-3.113,1.3-4.918-.212-7.905a10.1,10.1,0,0,1-1.21-5.488c.495-4.932,1.823-7.7,1.5-13.523Zm48.637,1.967c.353,0,.528.249.528.753,0,.92-1.369,2.085-3.791,3.226-1.255.592-1.984.68-2.719.332-.686-.325-.652-.61.1-.83A11.3,11.3,0,0,0,2556.7,1788a3.891,3.891,0,0,1,1.117-.8Zm-10.956.635c6.246,6.7,12.371,10.145,17.054,11.757l-.737,1.75c-6.152-2.387-12.429-5.709-17.745-12.848Zm12.035,1.094a2.179,2.179,0,0,1,.8,1.023,2.655,2.655,0,0,1-.516.9,4.9,4.9,0,0,1-1.811,1.37c-1.4.768-2.244.955-2.85.633s-.4-.587,1.105-1.474a17.129,17.129,0,0,0,2.3-1.64A8.43,8.43,0,0,1,2558.9,1788.932Zm-16.545.988a38.022,38.022,0,0,0,19.453,14.163l-1.218,1.649c-7.077-2.443-14-6.862-20.321-14.644Zm17.87.865c.257,0,.836.653.836.945a1.161,1.161,0,0,1-.251.571,12.169,12.169,0,0,1-2.311,1.741,1.3,1.3,0,0,1-1.352-.015c-.616-.308-.511-.565.493-1.212a13.33,13.33,0,0,0,1.653-1.3,3.609,3.609,0,0,1,.932-.725Zm-20.585.511c-.145.184-7.533,17.138-23.186,29.16l-.074-2.816c8.67-6.889,14.973-16.322,19.728-24.559Zm22.072,1.218c.237-.007.4.154.57.471.2.378-.018.715-.894,1.378a1.617,1.617,0,0,1-1.2.486c-1.165-.021-1.135-.3.143-1.448.663-.594,1.078-.879,1.383-.887Zm30.228.837,3.262.251c.879.613-12.753,9.552-22.2,8.75l.25-2.142C2581.544,1800.447,2592.164,1793.738,2591.938,1793.351Zm-27.988.837c.749.421,1.683.919,1.45,1.082a6.667,6.667,0,0,1-3.07-.2c-.382-.2-.36-.312.166-.9C2563.14,1793.445,2563.251,1793.8,2563.95,1794.188Zm-29.086-.532c-5.17,9.14-11.328,17.482-18.457,22.917l-.094-4.834c6.784-5.233,11.919-14.791,11.932-14.825Zm64.76.583,1.581.925c-9.859,9.143-20.508,13.084-30.74,12.1l.823-1.852c16.6,1.314,27.632-10.994,28.336-11.17Zm2.4.324s.53-.067.474.042a77.373,77.373,0,0,1-10.712,8.56c-13.94,14.344-25.874,25.663-38.017,38.44l-1.941-2.035,1.758-1.864c.008-3.681,4.5-7.809,7.172-10.988,1.114-1.257,3.2-4.489,2.967-5.847a3.374,3.374,0,0,1-.093-.429c4.219-.844,5.229-4.272,5.32-7.3a19.521,19.521,0,0,1,1.148-5.531C2589.191,1809.142,2601.5,1795.057,2602.02,1794.563Zm-33.276,2.115a3.847,3.847,0,0,1,3.8,4.146c-.018,1.018-.376,1.791-1.754,4.485-1.334,2.3-1.509,3.7-2.033,6.362l-1.357-1.222-2.469,2.229.034-3.248s.852-1.084,2.229-2.633c1.745-1.941,3.325-4.441,3.253-5.845a1.961,1.961,0,0,0-3.042-1.629c-1.316.921-1.923,2.588-2.7,7.572-.137.883-.266,1.923-.338,2.15a13.164,13.164,0,0,1-2.1,2.417,30.351,30.351,0,0,1-.913-3.659l-1.922.319a25.471,25.471,0,0,0,5.08-8.406c1.032-1.888,2.347-3.018,4.23-3.038Zm-41.838.776s-3.829,7.968-10.55,13.151l-.044-3.12a32.541,32.541,0,0,0,6.876-8.252Zm92.145.2c-13.289,13.788-30.634,39.175-9.108,74.841l2.843-3.288c-17.333-32.256-5.049-48.975,6.36-65.751Zm-71.86,1.137c3.891,2.772,7.953,5.524,13.205,7.273-.28.938-7.5,7.025-2.319,12.654.216.294-.335,1.011-1.178,2.027-2.475,3.389-4.946,5.8-7.015,9.618l-.085,7.168-2.068-1.83Zm71.35.66.088,4.088c-19.745,24.044-17.522,45.694-6.361,65.635l-2.138,2.173c-18.294-31.548-6.88-55.331,8.41-71.9Zm-48.713,2.418c-.871,2.3-4.68,6.252-4.68,6.252s.505-3.844.822-5.057a7.792,7.792,0,0,1,1.329-2.775C2568.837,1798.6,2570.371,1800.52,2569.828,1801.871Zm-26.2-2.161.37,32.214-2.776-2.8-.408-24.634Zm-3.749,6.3.552,21.873a130.988,130.988,0,0,0-6.742-13.657S2536.877,1809.994,2539.881,1806.014Zm21.92,6.844a11.13,11.13,0,0,0,1.088-1.119c1.439-1.458,1.57-1.468,1.437.5-.051.755-.008,1.725-.008,1.725.842-.49,2.829-2.841,3.39-2.417a3.587,3.587,0,0,1,.793,2.583,6.034,6.034,0,1,1-10.075-4.353c.441-.465,1.7-1.328,2.3-1.157.748,1.37.722,2.89,1.071,4.24Zm63.482-2.324a3.559,3.559,0,0,0,2.144,2.486c-.2,31.322-.05,86.775-.05,86.775l6.287,5.91-.041,2.583-8.332-7.642s-.447-65.4-.008-90.112Zm6.243,1.452c.224,3.029-.288,6.22.231,9.332.513,2.152,1.289,4.093,1.352,6.21a14.835,14.835,0,0,1-.893,5.744,13.183,13.183,0,0,0-.767,4.075c-.311,2.628.536,5.009,1.187,7.1.864,2.776.623,6.133-.759,10.56a8.683,8.683,0,0,0-.521,3.709c.191,3.031,1.273,5.913,1.823,8.889.3,1.7-.008,3.936-1.056,7.719a25.582,25.582,0,0,0-.8,4.786,13.93,13.93,0,0,0,.624,3.675c1.454,3.828,1.525,4.514,1.6,6.814a13.5,13.5,0,0,1-1.1,5c-1.019,2.429-.349,4.924,0,7.654l-2.506-2.145a9.311,9.311,0,0,1,.206-6.265c.975-2.73,1.219-2.983,1.206-4.552-.018-2.082-1.209-4.544-1.7-6.008a12.242,12.242,0,0,1-.008-7.9,41.4,41.4,0,0,0,1.183-5.072c.266-2.066.064-3.7-.971-7.843a17.026,17.026,0,0,1-.647-4.816,21.769,21.769,0,0,1,.836-6.052,14.053,14.053,0,0,0-.27-9.032,14.953,14.953,0,0,1-.928-6.777,10.679,10.679,0,0,1,1.059-3.636,11.319,11.319,0,0,0,.439-7.82,37.276,37.276,0,0,1-1.215-12.653Zm-7.042,1.717c-.218,21.465,0,46.04,0,46.04s-6.346,4.452-6.321,4.22c-8.177-13.51-11.294-33.413,2.99-51.364a18.708,18.708,0,0,0,3.328,1.1Zm-96.522,5.117c11.574,21.652,13.08,43.526-6.057,65.966a11.757,11.757,0,0,1,.209,5.643c3.731-2.911,33.649-32.851,8.452-74.54Zm58.979-1.763,5.685.335.383,4.9-1.838,1.826s-.033-1.013-.058-1.919a5.142,5.142,0,0,0-.289-2.041,14.006,14.006,0,0,0-.281,2.732l-.085,2.1-.636.636c-.847.849-1.019.782-1.051-.413-.071-2.6-.065-2.775-.254-2.585a8.562,8.562,0,0,0-.193,2.338,13.952,13.952,0,0,1-.166,2.27,3.76,3.76,0,0,1-1.5,1.339c-.264,0-.249-.376-.251-1.991,0-1.364-.143-2.112-.362-1.61a21.89,21.89,0,0,0-.161,2.575,12.909,12.909,0,0,1-.158,2.23c-.236.442-1.353,1.388-1.549,1.313-.282-.109-.352-.917-.343-2.27.008-.662.108-1.221-.146-1.4s-.3.587-.231,2.532l-.019,2.115-.713.78c-1.129,1.165-1.207,1.11-1.209-.9.05-1.593-.008-2.292-.32-2.166s-.189.9-.127,2.467a8.129,8.129,0,0,1-.058,2.285,6.307,6.307,0,0,1-.813.918,12.089,12.089,0,0,1-.882.865c-.086-1.691-.231-5.33-.231-5.33l-5.928-.263a11.516,11.516,0,0,1,1.729-1.721c.268-.144.686-.161,2.173-.1a15.939,15.939,0,0,0,2.5-.088c.445-.172-.483-.325-1.791-.41a20.131,20.131,0,0,1-2.069-.181l.863-.892.647-.644,1.891.062a9.971,9.971,0,0,0,2.127-.043c1.119-.221.071-.476-1.206-.478-1.245,0-1.949,0-1.949-.278a4.807,4.807,0,0,1,1.791-1.629c.2-.043,1.219-.085,2.254-.093,1.777-.014,2.422-.04,2.322-.336s-1.277-.208-2.06-.243c-2.177,0-2.277-.085-.79-1.389l.72-.633,1.364.038c2.058.058,3.055-.024,3.055-.22a5.673,5.673,0,0,0-2.477-.347c-.681,0-1.233.012-1.233.012a17.308,17.308,0,0,1,1.649-1.791l1.837-.035c1.341.02,2.165.072,2.188-.174s-.481-.243-1.1-.247a6.064,6.064,0,0,1-1.957-.208c-.14-.141.122-.534.705-1.058l.6-.544Zm-56.28.064c15.9,26.027,10.162,54.151-7.569,71.655l-.52-3.415c16.739-20.4,19.662-41.453,6.12-66.231Zm29.573,3.495c-2.855,4.3-7.219,8.544-8.867,12.056-.337.4-.447,1.286-.971,1.464-.261,0-.347-.5-.281-1.644a4.037,4.037,0,0,1,.547-2c2.253-4.122,4.864-7.083,7.747-11Zm.67.416,2.638.168a13.614,13.614,0,0,1-2.311,4.419c-1.2,1.557-2.638,3.126-4.316,5.041-2.43,2.773-3.648,5.6-3.535,6.838a20.239,20.239,0,0,1-1.8,1.742l-1.539-1.418c1.141-5.865,6.668-11.253,10.865-16.79Zm32.286,2.382.855.05a27.9,27.9,0,0,1,4.857.479,3.28,3.28,0,0,1,.193,1,8.641,8.641,0,0,1-.374,2.9,12.328,12.328,0,0,1-.616,2.208c-.337.343-.471,0-.628-1.59-.095-.961-.132-1.661-.258-1.583a6.569,6.569,0,0,0-.154,1.837c.1,2,.085,2.492-.536,3.1-1.087,1.057-1.147.95-1.229-.926a10.268,10.268,0,0,0-.273-1.969c-.236-.236-.314.843-.316,2.667v1.945l-.516.564c-.673.732-.892.843-1.14.594-.153-.153-.1-.486-.1-1.6,0-1.3-.227-2.052-.473-1.8-.047.047-.059,1.307-.062,2.405s-.017,2.068-.031,2.157a4.837,4.837,0,0,1-1.494,1.505c-.259,0-.467-1.433-.467-2.605,0-.782-.166-.92-.331-.49a20.788,20.788,0,0,0-.073,2.192v1.791l-.724.749c-.969,1-1.127.945-1.129-.429,0-1.183-.081-1.81-.32-1.81-.136,0-.169.561-.169,1.891a10.641,10.641,0,0,1-.131,2.007,3.89,3.89,0,0,1-.7.935,2.58,2.58,0,0,1-.721.586,3.281,3.281,0,0,1-.273-1.6c.01-.1.011-.809,0-1.571-.026-1.82.1-1.742-2.8-1.834-3.4-.107-3.45-.127-2.426-1.119.972-.942.834-.907,3.089-.756,1.81.12,2.029.113,2.211-.07.111-.111.173-.232.139-.266a10.932,10.932,0,0,0-1.533-.143c-2.24-.124-2.435-.286-1.487-1.235l.535-.54h2.292a10.715,10.715,0,0,0,2.657-.161c.148-.241-.465-.3-1.936-.388-.79-.046-1.534-.111-1.653-.146-.374-.111-.235-.489.4-1.081l.609-.571h2.022c1.878,0,2.8-.123,2.8-.371,0-.175-.374-.246-1.337-.258-1.364-.018-2.273-.15-2.335-.336a6.2,6.2,0,0,1,1.329-1.544l2.057.074c2.071.073,2.72,0,2.72-.363,0-.189-.886-.325-2.034-.255-.738.045-1.633-.132-1.633-.394a2.66,2.66,0,0,1,.662-.864l.667-.656,2.015.081a14.8,14.8,0,0,0,2.411-.027c.335-.23-.441-.409-1.706-.483-1.952-.113-2.079-.266-1.048-1.243Zm-70.248,1.081c10.437,18.727,8.873,36.369-2.242,51.383a10.084,10.084,0,0,0-4.091-1.3l-.281-45.216Zm74.65,7.318c.21-.033.206.312.147,1.038a7.962,7.962,0,0,1-.2,1.358c-.12.316-.215.331-1.229.186-1.155-.165-1.138-.374.131-1.625.614-.606.963-.929,1.148-.957Zm-56.037.841s1.375-.009,2.062.016c0,0,.107,3.5.388,5.525l4.473.215-1.736,1.81-3.393-.108s-1.031-4.974-1.794-7.458Zm53.31,2.119a7.453,7.453,0,0,1,2.477.467c.151.152.156.525.023,2.787-.048.815-.1,2.565-.108,3.89-.019,2.4-.02,2.408-.3,2.447-.365.052-.406-.076-.5-1.656a4.686,4.686,0,0,0-.281-1.7c-.119-.039-.108.745-.108,2.366v2.1a6.55,6.55,0,0,1-1.094.9c-.251,0-.385-.393-.508-1.489s-.244-1.856-.39-1.614a17.869,17.869,0,0,0,.051,2.216l.127,1.771-.786.792c-.806.814-.907.88-1.036.671-.3-.807.125-4.5-.6-4.971a19.022,19.022,0,0,0-2.2-.135c-1.889-.08-2.96-.111-3.224-.34-.159-.138.732-1.174,1.19-1.382.331-.149.7-.158,2.261-.054,1.8.121,2.713.108,2.474-.123a10.038,10.038,0,0,0-1.7-.266c-1.45-.144-1.961-.291-1.961-.56a7.006,7.006,0,0,1,1.248-1.467l.7.074c.386.038,1.3.136,2.027.22s2.2.1,1.606.046c.193-.193-.559-.392-1.6-.521-1.966-.244-2.145-.467-1.155-1.444l.608-.6c1.033.079,2.077.1,3.1.263.75.119,1.156.076,1.156-.178,0-.178-.374-.171-1.279-.351-.328-.066-2.021-.041-2.049-.541.4-.554,1.114-1.564,1.833-1.609Zm-45.84,4.249c.3-.016.315.716.346,2.652.034,2.12.069,2.485.251,2.667s.607.234,2.465.328c2.845.145,2.918.186,1.914,1.154-.7.673-.727.588-1.3.521a13.938,13.938,0,0,0-3.787,0c-.149.241.013.289,1.387.394,1.672.128,2.13.186,2.13.471a2.2,2.2,0,0,1-.632.818l-.632.59-1.76-.069c-1.853-.075-2.8-.1-2.8.151,0,.152,1.058.32,2.735.486.436.043.882.05.906.123.059.183-.787,1.235-1.31,1.625-.425.318-.569.141-2.427.1-1.9-.041-2.06.03-1.706.382.084.084.4.093,1.1.143,1.161.081,1.718.255,1.718.544a4.3,4.3,0,0,1-1.536,1.594c-.433.2-.619.215-1.576.081-.755-.106-.9-.264-.878-.973.009-.319.064-2.39.123-4.6.113-4.275.148-4.493.713-4.412.241.035.3.326.362,1.776.068,1.542.133,1.848.389,1.848.095,0,.11-.612.05-2.1-.094-2.308-.1-2.651.6-3.32.312-.3.561-.536.708-.32a12.852,12.852,0,0,1,.3,2.818c-.009.919.348,1.111.431.235-.041-1.388-.052-2.635-.061-4.118l.855-.849c.451-.449.737-.731.917-.741Zm-5.544,1.73a17.506,17.506,0,0,1,2.519.038,8.392,8.392,0,0,1-2.2,2.181A6.339,6.339,0,0,1,2543.481,1840.752Zm53.919,4.2.4,2.852-3.109-.212Zm-41.889.463a.131.131,0,0,1,.055.008c.224.086.288.637.377,3.285a11.538,11.538,0,0,0,.2,2.315c.09.109.478.163,1.2.163.585,0,1.688.037,2.45.081,1.663.1,1.707.166.717,1.146l-.671.664-2.084-.085c-2.136-.087-2.492-.052-2.492.243,0,.2.365.3,1.048.278.271-.007.951.029,1.51.081,1.248.116,1.273.211.343,1.216l-.67.721-.651-.088a16.1,16.1,0,0,0-3.956.05c-.257.257.077.367,1.329.444,1.941.118,2.28.176,2.28.4a2.442,2.442,0,0,1-.609.807l-.6.606-2.465-.127c-1.728-.03-2.319,0-2.358.111-.067.2.217.256,2,.44,1.711.178,1.96.355,1.309,1.166-.714.891-.983.991-2.33.861a11.314,11.314,0,0,0-3.217-.008c-.341.216.01.361,1.063.44,1.6.119,2.527.29,2.527.525a2.9,2.9,0,0,1-1.04,1.335l-.42.32-1.822-.193c-1.815-.193-2.743-.1-2.484.163a5.5,5.5,0,0,0,1.5.235c1.37.1,2.05.277,2.05.56a4,4,0,0,1-.775.922,5.181,5.181,0,0,1-.916.713l-5.609-.5a9.119,9.119,0,0,1,.277-3.729c.508-2.457.716-3.008.959-2.551a6.552,6.552,0,0,1,.178,1.131c.113.986.355,1.6.5,1.6.163,0,.162-.585-.05-1.964-.295-1.922-.329-2,.4-2.771.626-.663.98-.82,1.175-.518a15.111,15.111,0,0,1,.2,1.687c.13,1.285.207,1.58.373,1.413.108-.108.188-.476.07-2.382l-.151-1.852.821-.838c.75-.765.835-.818.986-.621a6.6,6.6,0,0,1,.274,1.879c.081,1.4.192,1.864.4,1.66a27.621,27.621,0,0,0-.054-4.018c-.067-.481-.033-.552.574-1.235.724-.814,1.1-1.15,1.3-1.154.261-.006.4.794.405,1.857a3.867,3.867,0,0,0,.2,1.725c.272.365.3-.915.239-2.181l-.074-2.308.748-.749c.707-.708.764-.739.963-.54.164.165.153.556.219,1.721.1,1.611.414,2.4.5,1.278a3.939,3.939,0,0,0-.015-1.1,14.065,14.065,0,0,1-.1-1.764,2.509,2.509,0,0,1,.277-1.567,4.185,4.185,0,0,1,1.618-1.409Zm32.4,1.756s1.252,1.072,1.252,1.378a5.536,5.536,0,0,1-1.168,1.386c-1.238,1.217-1.354,1.426-1.5,2.732a7.585,7.585,0,0,1-.871,2.285c-.438.883-1.07,1.915-1.07,1.915a110.584,110.584,0,0,0-7.3,9.526c-.2.459-.208.919-.41,1.3a1.593,1.593,0,0,1-.66.579,5.961,5.961,0,0,0-1.017.633,6.671,6.671,0,0,0-2.5,3.914c-.2.876-.324,1.663-.678,4.365-.145,1.11-.632,3.045-.632,3.045-7.443-.106-14.411,1.186-20.623,4.7Zm9.946,1.147,1.656,7.537-1.706-.034-.17-5.473-5.323-.51,1.9-1.845Zm-8.078.69c.456.466,1.024.977,1.437,1.483-1.424,4.767-5.931,10.953-10.409,17.09l-3.282-.359a94.457,94.457,0,0,1,6.749-9,16.893,16.893,0,0,0,2.159-3.484,21.115,21.115,0,0,0,1.108-3.414c.774-.935,2.243-2.3,2.238-2.312Zm1.768,1.672,2.481,2.52.606,35.688a45.779,45.779,0,0,0-13.145-6.934l.839-1.918.925-1c3.271-3.545,2.542-7.363.055-10.062,3.03-4.428,5.776-7.727,8.085-12.05l-.031-2.964a12.317,12.317,0,0,1,.185-3.284Zm-29.681,1.49c.26-.026.293.633.358,2.5a10.811,10.811,0,0,0,.251,2.76c.155.244.3.265,2.365.328,2.175.067,2.627.129,2.627.363a3.327,3.327,0,0,1-.62.745l-.62.621-1.938-.031c-1.032.033-2.252.013-2.284.043-.171.159.473.376,1.417.378a10.4,10.4,0,0,1,1.63.147c.367.141.2.5-.6,1.273l-.8.772-1.761-.034a18.054,18.054,0,0,0-2.3.061c-.535.178-.269.324.617.336,1.48.02,2.5.144,2.546.374a2.3,2.3,0,0,1-.617.915l-.658.706-2.589-.108c-2.447.019-2.778.2-.736.406.78.078,2.01.271,2.053.278s.114.1.155.2c.085.225-.9,1.337-1.426,1.61a1.149,1.149,0,0,1-.928.042,11.954,11.954,0,0,0-3.178.05c-.215.129.251.276.909.29.991.02,2.173.307,2.173.544a3.53,3.53,0,0,1-1.037,1.285c-.247.217-.835.023-2.473.077a5.773,5.773,0,0,0-1.868.216,2.468,2.468,0,0,0,1.271.34,8.152,8.152,0,0,1,1.745.286c.167.167-1.093,1.658-1.093,1.658l-5.383-.076-.5-5.712.459-.529c1.03-1.192,1.254-1.019,1.459,1.119.151,1.567.263,2.046.49,1.818a9.992,9.992,0,0,0-.035-2.292c-.07-1.082-.128-2.07-.128-2.193,0-.3,1.224-1.586,1.464-1.54s.367.579.493,2.042c.1,1.2.161,1.53.4,1.293a5.83,5.83,0,0,0,.015-2.262l-.146-1.987.52-.618c1.043-1.239,1.248-1.1,1.375.911.086,1.358.217,2.073.466,2.073a11.023,11.023,0,0,0,.035-2.548l-.078-2.3.651-.664a3.041,3.041,0,0,1,.809-.66c.254,0,.4.577.559,1.941.179,1.529.238,1.792.385,1.645a10.519,10.519,0,0,0-.035-2.177l-.181-2.277.794-.807a3.02,3.02,0,0,1,.974-.768c.239.046.394.735.412,1.71a3.727,3.727,0,0,0,.374,1.9c.1.1.129-.46.1-2.084-.039-2.5-.1-2.692,1.021-3.864.3-.313.5-.515.631-.529Zm29.06,1.021.024,3.49c-1.4,2.994-4.623,7.381-7.893,12.089l-1.707-.927a92.764,92.764,0,0,0,9.576-14.652Zm-46.718,1.1c.076,0,.162,0,.258.008.883.052.907.357.085,1.127a2.177,2.177,0,0,1-.886.579c-.254,0-.267-.038-.189-.7.1-.817.2-1.007.732-1.011Zm53.318,2.517,2.411,2.377.6,25.559-2.538,4.147Zm3.02,3.369A94.589,94.589,0,0,0,2607.48,1874l-6.446,9.12Zm-21.688,7.967c2.964-.042,5.693,2.309,6.036,4.7a5.756,5.756,0,0,1-3.075,6.6,4.844,4.844,0,0,1-1.278.309c-.282-1.654-.16-3.247-.535-4.925a20.838,20.838,0,0,1-2.168,2.475c-.405.224-.586.284-.533-.247.027-.928.1-2.989.1-2.989l-3.425,3.551a5.91,5.91,0,0,1-.608-1.27,6.184,6.184,0,0,1,2.527-7.283,5.452,5.452,0,0,1,2.962-.922Zm45.563-.216.065,3.124c-5.374,4.175-13.041,12.973-19.61,24.439l-2.894,1.222c4.458-10.672,13.867-21.541,22.439-28.785Zm.058,4.108.058,4.657a70.865,70.865,0,0,0-12.45,15.362c-2.093,1.007-5.971,2.921-5.971,2.921-.486-.118,10.564-17.354,18.364-22.94Zm-47.839,3.988c.217,0,.2.417.138,1.024a4.343,4.343,0,0,1-.817,2.543c-1.737,2.055-4.5,4.85-4.873,7.449-.19,1.389.892,2.689,1.955,2.556,3.3-.414,3.657-6.293,3.935-9.193a8.332,8.332,0,0,1,.289-1.549,12.92,12.92,0,0,1,2.382-2.46l.405,4.494,1.86-.622c-5.246,7.144-3.739,7.592-6.506,10.518-2.572,2.72-7.561-.378-6.284-4.513,1.109-2.782,2.827-5.574,3.29-8.554.126-.885.2-1.5.2-1.5l1.193,2.494c.607-.6,2.378-2.582,2.834-2.687Zm48.035,1.541-.012,3.208a66.975,66.975,0,0,0-7.056,8.694l-3.97,1.814c2.591-4.946,6.843-9.573,11.038-13.716Zm-48.5,2.831a12.231,12.231,0,0,1-.317,4.217c-.275,1.289-1.514,5.054-3.472,4.167-1.663-1.472.363-4.2,1.384-5.491.79-.927,1.646-1.928,2.405-2.894Zm-5.225.384-1.082,2.32c-9.726.035-19.171,3.52-27.578,10.637l-2.126-.7A43.107,43.107,0,0,1,2570.95,1880.772Zm10.224,1.783c10.96,3.677,16.021,9.042,20.167,14.67l-1.733.89c-4.345-5.633-9.706-10.788-19.69-13.769Zm-12.557,3.47-.466,1.988c-6.138.184-12.616,2.367-18.918,6.75l-2.273-.362A38.579,38.579,0,0,1,2568.617,1886.025Zm28.05,13.428-1.946.92c-5.809-7.55-11.061-9.7-17.029-11.623l.643-1.675a31.451,31.451,0,0,1,18.332,12.378Zm-81-8.9.168,20.149-1.4-.281-.2-19.486Zm-3.243,1.092c-2.67,10.023-.6,12.618.366,18.466l-2.211-.354a26.755,26.755,0,0,1-.558-17.607Zm67.178,1.539c.167.16-.135.652-.547.9s-.31.2-.947-.031c-.62-.224-1.41-.811-1.41-1.034a15.791,15.791,0,0,1,2.9.17Zm1.884.143c.366.044,1.424.024,1.49.355.025.2-.391.519-1.24,1.1-1.289.882-1.728,1.056-2.107.637-.358-.4-.253-.809.351-1.367a1.982,1.982,0,0,1,1.506-.725Zm-44.026.22a4.865,4.865,0,0,1,2.858,1.976c.808,1.268,1.738,2.57,2.489,3.852a53.949,53.949,0,0,1,4.125,8.9,119,119,0,0,1,5.99,21.116c-.026.585-.532.574-.947.436a.838.838,0,0,1-.474-.324c-.6-1.7-.8-3.436-1.26-5.141a111.487,111.487,0,0,0-3.744-12.721,87.641,87.641,0,0,0-4.592-10.8,25.06,25.06,0,0,0-4.226-5.867,12.884,12.884,0,0,1-1.028-.965c0-.3.288-.459.808-.459Zm46.838.231c.685.169,2.337.363,1.711.911a13.02,13.02,0,0,0-4.307,2.852,2.549,2.549,0,0,1-.921-1.134A14.632,14.632,0,0,1,2584.3,1893.775Zm-43.479.008c.971-.035,1.921,1.223,2.369,2.015,2.986,4.4,5.543,10.682,7.647,16.836a98.977,98.977,0,0,1,4.326,17.511c-.054.14-.335.192-.656.19-.611-.005-.7-.147-.854-.634a143.5,143.5,0,0,0-6.179-21.741,63.51,63.51,0,0,0-5.07-10.514c-1.479-2.172-2.318-3.312-2.253-3.481.043-.116.288-.174.574-.174.031,0,.065-.006.1-.008Zm-6.676.132c1.31,0,3.478,1.553,4.95,3.554,3.121,4.286,4.907,9.3,6.761,14.154a100.893,100.893,0,0,1,4.58,16.627c.156.7.411,1-.247,1.223-1-.285-.973-.257-1.256-1.47-.387-1.305-.506-2.623-.874-3.949-2.1-7.585-4.46-16-8.374-22.852-4.7-7.541-6.07-5.444-6.827-6.774.059-.3.582-.512,1.287-.513Zm11.314,1.841c4.041,7.044,5.822,11.369,7.051,15.623,1.863,6.448,4.068,11.6,5.037,19.125a5.506,5.506,0,0,1-1.487-.154,4.427,4.427,0,0,1-.474-1.544,125.489,125.489,0,0,0-4.229-16.562,70.294,70.294,0,0,0-7.146-15.832c-.834-1.365-.993-1.9-.482-1.926.912.062,1.313.765,1.73,1.27Zm42.1-.753a1.328,1.328,0,0,1,.6.093c.535.184.706.3.736.513.044.309-.288.41-1.321.652a10.813,10.813,0,0,0-3.5,1.957,7.159,7.159,0,0,1-1.075.884c-.253,0-.859-.668-.859-.946a8.642,8.642,0,0,1,5.416-3.153Zm-55.675.174c3.421.1,6.1,4.084,7.5,6.769.547,1.051,1.256,2.193,1.792,3.393a115.3,115.3,0,0,1,6.282,19c.554,2.4,1.193,4.155.967,4.624a1.2,1.2,0,0,1-1.151-.189,6.34,6.34,0,0,1-.582-1.7c-.8-2.568-2.119-9.907-5.563-17.62a54.814,54.814,0,0,0-4.622-9.68,7.826,7.826,0,0,0-4.8-3.454c-.87-.142-1.129-.039-1.075-.51.034-.3.128-.381.593-.528a2.344,2.344,0,0,1,.655-.108Zm21.38,15.905c-.235,0-.441-.447-.6-1.181-.076-.361-.181-.618.494-1.042,4.243-4.521.594-11.159-4.739-11.737-.494-.076-1.131-.077-1.317-.147a6.165,6.165,0,0,1-.983-1.5c7.37-1.79,15.192,8.781,7.142,15.608Zm36.714-14.771c.44.111,1.4,1,1.276,1.193-.144.232-.97.24-2.161.452-2.535.449-3.622,2.1-4.8,3.334-.262.08-.5-.1-.728-.5a2.254,2.254,0,0,1-.312-.788c1.317-1.922,4.845-3.865,6.726-3.69Zm-59.827.568a6.876,6.876,0,0,1,5.52,2.752c4.423,6.633,9.392,21.377,10.578,28.65-.12.234-.435.259-1.048.081-.342-.1-.3-.209-.516-.884a150.963,150.963,0,0,0-4.7-15.161c-.923-2.432-2.009-4.808-3.031-6.943-.647-1.351-1.949-3.755-2.442-4.489a4.007,4.007,0,0,0-4.995-2.124,2.237,2.237,0,0,0-.559,3.7,2.136,2.136,0,0,0,3.058-.484.984.984,0,0,0,.008-.949.248.248,0,0,0-.382.042c.08,1.29-1.561,1.373-2.278.865-1.144-.857-.382-3.57,2.736-2.478a2.251,2.251,0,0,1,1.037,3.107,2.858,2.858,0,0,1-2.886,1.887,3.538,3.538,0,0,1-3.632-3.365,4.409,4.409,0,0,1,2.13-3.821,2,2,0,0,1,1.406-.382Zm18.247.995c5.23.241,7.631,6.408,4.881,10.128-.7.889-1.145.727-1.444-.421-.148-.471-.311-.542.111-.907,2.449-2.35.438-6.921-3.6-7.1a5.894,5.894,0,0,1-.828-1.683,2.655,2.655,0,0,1,.879-.012Zm43.6.425c.4.1,1.236.905,1.236,1.189,0,.335-.164.271-1.094.112-2.2-.394-4.4.881-6.24,3.663-.892,1.67-1,1.512-1.472.073-.241-.738-.245-.722.69-2.084a7.491,7.491,0,0,1,6.88-2.953Zm2.045,2.829c1.84,1.675.982,5.363-1.505,5.744-2.193.254-4.14-2.121-2.759-3.737.9-.976,2.021-1.075,2.712-.235.714.866.412,2.047-.6,2.169-.119.042-.216.134-.216.2,0,.217.9.157,1.21-.092a1.962,1.962,0,0,0,.077-2.474,2.189,2.189,0,0,0-2.369-.846c-1.475.53-2.977,2.533-3.837,5.057-.241.709-.383,1.375-.485,1.532-.21.321-.195.313-.389.189a6.45,6.45,0,0,1-.486-2.242,8.363,8.363,0,0,1,.894-2.64c1.6-2.974,5.188-4.969,7.758-2.629Zm-44.836-.748c2.141.129,3.836,3.167,2.9,5.283-.288.39-.7.654-.9.409-.069-.088-.4-1.081-.855-2.134s-.876-2.082-1-2.339C2549.011,1900.869,2548.765,1900.372,2549.2,1900.38Zm-14.548,1.763a89.181,89.181,0,0,1,6.171,14.138,77.721,77.721,0,0,1,3.02,10.753c.059.331.141.5,0,.648-.239.24-1.4-.357-1.4-.357-2.04-7.041-3.687-14.1-8.544-23.07a2.87,2.87,0,0,1-.267-.588,2.363,2.363,0,0,1,.44-1.67c.138-.147.323-.157.588.146Zm-27.37,8.176c11.535.777,20.458,5.646,25.224,18.511a49.122,49.122,0,0,0-25.093-8.437l-.024-1.783c10.617-.087,20.973,5.449,20.757,5.369-3.949-8.159-13.873-11.464-20.9-11.68Zm80.029,2.6a6.683,6.683,0,0,0-1.044,2.081c.04.319.1,2.314.146,3.477a7.625,7.625,0,0,0,.22,2.27.529.529,0,0,0,.774.061,2.734,2.734,0,0,0,.27-.71c.952-3.6,1.4-4.953,1.783-5.4.253-.326.339-.3,1.383-.178a2.109,2.109,0,0,0,1.614-3.728c-2.056-1.146-4.237.775-5.146,2.126Zm2.481.766c-1.68,1.385-1.73,3.38-2.239,5.217-.273,1.236-.658,1.887-.813.023-.286-2.586.075-4.516,1.193-6.035a3.956,3.956,0,0,1,2.852-1.94c2.2-.155,2.425,1.592,1.814,2.53a2.012,2.012,0,0,1-2.807.205Zm-79.459.832a1.505,1.505,0,1,1-1.5,1.506A1.5,1.5,0,0,1,2510.337,1914.517Zm4.788,1.031a1.345,1.345,0,1,1-1.34,1.343A1.344,1.344,0,0,1,2515.125,1915.548Zm4.365,1.474a1.1,1.1,0,1,1-1.094,1.1A1.092,1.092,0,0,1,2519.49,1917.022Zm3.1,1.965a.847.847,0,1,1-.847.849A.848.848,0,0,1,2522.587,1918.987Zm-10.851,2.7a9.281,9.281,0,0,0,.3,4.466c.854,2.492.466,6.952.466,6.952l-2.5,2.512a52.807,52.807,0,0,0,.328-6.765c-.089-1.305-.678-2.524-.831-3.834a24.955,24.955,0,0,1,.072-3.637Zm4.057.752.087,10.638-8.571,8.322-.012-2.2,7.308-7.26-.155-9.858Zm21.135,24.259-.562.919h9.669l.2-.919Zm12.516,0-.227.919h4.476l.149-.919S2551.489,1946.7,2549.444,1946.7Zm7.334,0-.142.919h16.618l-.247-.919Zm19.423,0,.266.919h4.426l-.366-.919Zm7.4,0,.324.919h7.607l-.631-.919Z"/>
      <path id="path35-67-2-1-9" d="M2495.4,1730.355v2.755h2.671s.065,2.655.089,8.287c.02,5.47.132,8.183-.216,9.74-.936,3.59-6.132,3.61-7.164,1.029a10.462,10.462,0,0,1-.468-4.181h-2.872s.016.761.02,1.693c.017,4.036,1.352,5.967,4.476,6.728,3.212.869,6.968-.456,8.3-3.2.8-1.566.705-1.674.724-11.145.012-6.318.108-8.947.108-8.947h2.459v-2.755Z" fill="#d40000"/>
      <path id="path35-6-7-1-4" d="M2645.261,1956.937v-2.755h-2.671s-.065-2.655-.088-8.287c-.021-5.47-.133-8.182.216-9.74.935-3.59,6.131-3.61,7.163-1.029a10.451,10.451,0,0,1,.468,4.181h2.873s-.017-.761-.021-1.693c-.017-4.036-1.352-5.967-4.476-6.728-3.212-.869-6.968.456-8.3,3.2-.8,1.567-.705,1.674-.724,11.145-.012,6.318-.108,8.947-.108,8.947h-2.459v2.755Z" fill="#d40000"/>
    </g>
  </g>
</svg>
