<svg xmlns="http://www.w3.org/2000/svg" xmlns:xlink="http://www.w3.org/1999/xlink" width="179.79" height="250.65" viewBox="0 0 179.79 250.65">
  <defs>
    <clipPath id="clip-jh">
      <rect width="179.79" height="250.65"/>
    </clipPath>
  </defs>
  <g id="jh" clip-path="url(#clip-jh)">
    <g id="jh-2" data-name="jh" transform="translate(-2480.438 -1155.422)">
      <rect id="rect10346-5-7" width="177.785" height="248.651" rx="8.504" transform="translate(2481.438 1156.422)" fill="#fff" stroke="#000" stroke-width="0.997"/>
      <path id="path10378-7-1" d="M2495.151,1212.221s-1.772-2.543-4.162-5.534c-1.6-2-2.878-4.168-3-6.035a3.864,3.864,0,0,1,3.49-4.375c2.334-.1,3.282,1.644,3.668,3.085.386-1.441,1.333-3.189,3.668-3.085s3.626,2.243,3.49,4.375c-.119,1.867-1.4,4.034-3,6.035-2.391,2.991-4.162,5.534-4.162,5.534Z" fill="#d40000"/>
      <path id="path10380-5-9" d="M2645.512,1349.273s-1.772,2.544-4.162,5.535c-1.6,2-2.878,4.168-3,6.035a3.864,3.864,0,0,0,3.49,4.375c2.334.1,3.282-1.644,3.668-3.085.385,1.441,1.333,3.189,3.668,3.085s3.626-2.243,3.49-4.375c-.119-1.867-1.4-4.034-3-6.035C2647.283,1351.817,2645.512,1349.273,2645.512,1349.273Z" fill="#d40000"/>
      <path id="path35-67-2-8-6" d="M2495.064,1167.456v2.755h2.672s.065,2.655.088,8.288c.021,5.469.132,8.182-.216,9.74-.936,3.59-6.132,3.61-7.164,1.028a10.457,10.457,0,0,1-.468-4.181H2487.1s.017.762.021,1.693c.016,4.037,1.351,5.968,4.475,6.729,3.213.868,6.968-.457,8.3-3.205.795-1.566.7-1.674.724-11.144.011-6.319.107-8.948.107-8.948h2.46v-2.755Z" fill="#d40000"/>
      <path id="path35-6-7-4-8-8" d="M2645.6,1394.038v-2.754h-2.672s-.065-2.656-.088-8.288c-.021-5.469-.132-8.182.216-9.74.936-3.59,6.132-3.61,7.164-1.028a10.461,10.461,0,0,1,.468,4.18h2.872s-.017-.761-.021-1.692c-.016-4.037-1.351-5.968-4.475-6.729-3.213-.869-6.968.456-8.3,3.2-.8,1.566-.7,1.673-.724,11.144-.012,6.319-.107,8.948-.107,8.948h-2.46v2.754h8.131Z" fill="#d40000"/>
      <g id="g3347-7-8-1">
        <g id="g3498-4-3-9">
          <g id="g2997-9-2-6">
            <g id="g3884-5-1-3">
              <g id="g3000-2-1-2">
                <path id="path2993-7-5-1" d="M2633.909,1185.433l-9.168,5.994-.127,6.991c-5.437-2.617-7.8-6.9-8.656-11.923-1.538,1.945-1.232,11.768-1.232,11.768a11.039,11.039,0,0,0-2.8,2.53,30.122,30.122,0,0,0,3.359,3.925c-.017-.044-1.138,10.227.218,10.636,1.239-4.377,2.888-8.2,8.962-12.2,0,0,.092,16.306-.3,32.059-2.57-1.773-8-4.96-11.513-8.22,4.551-5.888-.089-13.562-6.881-8.465-4.4-2.39-5.078-13.678-6.167-19.591-.21-1.186-1.234-4.664-1.234-4.664s-14.506-4.024-20.735-3.7c5.231,13.674,4.216,30.338-18.938,33.46-11.094,5.089-23.91,10.761-36.367,21.358-2.295,15.778-10.408,23.546-16.137,27.843.041,6.394-.043,12.724.22,19.177-.006.04,5.229-3.446,6.051-2.8,4.374,28.517,20.393,34.171,18.791,34.961-.258.127-5.249,5.273-5.249,5.273l-19.551-12.918c-.67,19.717-.282,39.823,0,59.574,3.452-1.958,9.8-6.639,9.8-6.639l.1-6.708c-.029-.638,8.891,5.588,8.912,13,.7.474,2.217-10.672.831-11.878l3.656-3.784-3.938-3.8s1-6.312-1.041-9.947a14.15,14.15,0,0,1-8.211,10.918s-.135-30.423-.313-30.45l12.288,7.8c-6.654,9.09,5.059,12.041,6.43,7.617,7.557,7.064,4.648,15.509,7.953,25.53l21.444,3.946c-8.838-16.447.753-35.187,18.108-33.847a42,42,0,0,0,6.2-3.319,65.9,65.9,0,0,0-4.883-6.821l-37.146-.615,17.316-32.565-11.389-.367s9.255-19.689,7.256-21.276c-.7-.557-.409-6.9-.409-6.9l10.173.379c.4-4.544-4.92-21.861-12.429-33.185l41.751.375-23.5,32.88,12.623.363-7.532,15.521,1.207,12.1-11.2.364c1.931,16.782,14.36,34.464,18.729,39.924,7.223-1.717,20.709-12.069,29.078-18.506,1.085-11.262,4.95-20.849,15.058-28l.03-18.539s-5.768,3.735-5.767,3.477c.024-4.013-2.062-12.366-5.908-19.812-4.128-7.989-10.9-15.225-12.463-15.679,3.584-5.439,5.114-5.926,5.062-6.012l19.523,12.558Zm-98.4,39.531a22.781,22.781,0,0,1-7.1,1.405c-5.913.3-10.422.784-12.821,5.648-.487,1.481.581,2.026,1.366,2.414C2521.413,1228.88,2533.258,1236.212,2535.508,1224.964Zm-26.247,25.472c0,.784.874,2.065,1.312.735a5.035,5.035,0,0,0,.03-3.436C2509.416,1247.065,2509.276,1249.668,2509.261,1250.436Zm64.029,26.856-5.774.027-.034,6.8,5.811,0Zm56.716,33.839c-.127.675-.749,3.712.66,3.184C2632.328,1313.031,2630.913,1307.127,2630.006,1311.131Zm-5.435,17.064c-.682-1-2.791,1.481-4.522,1.574-7.693.412-13.36-.62-14.318,7.452,4.436-2.841,10.652-1.546,14.656-2.464C2623.282,1333.793,2626.6,1331.164,2624.571,1328.195Z" fill="#e2cf00"/>
                <path id="path3504-0-2-5" d="M2505.024,1386.01V1175.485h130.614V1386.01ZM2511,1249.573c.112-2.025-.718-2.863-1.438-1.471-.17.33-.729,3.849.6,3.966C2511.032,1252.145,2510.953,1250.442,2511,1249.573Zm-2.107,2.376c-.008-.478-.3-.686.348-4.846-1.241-.48-2.315-2.5-1.411-3.777.352-.5.249-.608.1-1.027a1.979,1.979,0,0,1,.789-2.536c.612-.421.639-.533.443-1.088a2.409,2.409,0,0,1,1.331-3.3c.944-.329.762-.376.862-.977.222-1.344.963-2.157,2.307-2.021,1.25.126,1.333.127,1.44-.486.3-1.695,2.345-3.546,5.02-4.8,1.328-.625,3.53-1.067,7.748-1.056,2.416-.042,5.429-.366,7.119-1.855.279-.261.666-.948.8-.854.315.217.239,1.905-.378,3.444-1.8,4.484-4.234,5.72-11.116,5.679-2.051-.1-5.074.18-6.356,1.489-.381.406-.636.789-.493,1,2.852.406,5.779,1.7,7.483,7.339a176.693,176.693,0,0,1,23.63-14.4c-1.228-6.743,4.6-7.783,7.872-6.442a2.474,2.474,0,0,0-.043-.95,5.28,5.28,0,0,0-.908-1.984c-.152-.305-1.07-.885-.889-1.343.3-.751.165-.958-.462-1.649-.406-.449-.136-1.409-.038-1.8.129-.723.6-1.754.184-2.142-.647-.6-2.853-1.618-3.989-2.427-1.256-.916-1.28-1.74.56-4.752.839-1.752,1.631-3.633,2.3-4.891,1.011-1.9,1.115-3.157.5-4.248a5.763,5.763,0,0,1-.65-3.072s-7.552-10.608-10.664-14.845h-35.485v80.742l6.1-5.827-1.652-1.96c-.233,1.138-.021,2.251-1.421,2.316A.868.868,0,0,1,2508.893,1251.949Zm21,108.037c.2-3.2-1.328-8.449-3.631-12.083a40,40,0,0,1-.255,8.831Zm55.756,8.361c-.278-.09-2.6-.232-4.054-.31a12.137,12.137,0,0,1-10.058-5.794c-.514-.79-.3-.754.84.14,3.206,2.513,6.207,4.015,8.842,3.638,3.736-.534,5.751.84,5.233,2.44C2586.359,1368.741,2586.328,1368.567,2585.646,1368.347ZM2573,1361.2c-.748-.65-.8-.942.084-.35,2.711,1.81,5.985,4.766,10.03,3.035.839-.54.067-.469-1.337-.319-2.147.229-4.762-.864-7.98-3.092-1.571-1.088-.879-2.007.89-1.154a4.619,4.619,0,0,0,1.453.479c1.741-1.16,5.4-1.146,5.316-1.14.417-.359-.95-.931-2.986-1.7-1.321-.5-1.641-.706-.657-.745a6.325,6.325,0,0,1,3.187,1.03,12.431,12.431,0,0,0,2.933,1.7c.8.064,1.613.179.243.816-.623.29-.568.364-.5,1.065a2.143,2.143,0,0,0,.681,1.7c.85.94,1.221,2.689.008,1.594-.261-.121-.288.112-1,.4-4.193,1.187-7.317-.665-10.367-3.319Zm7.738.313a5.458,5.458,0,0,0,.633-1.318c-.081-.511-.534-.351-.763-.063-.391.481-.939,1.19-.488,1.432C2580.329,1361.677,2580.537,1361.773,2580.734,1361.512Zm-1.431-.332.932-1.666c-.231-.108-3.387.546-2.892,1A5.754,5.754,0,0,0,2579.3,1361.18Zm3.554-5.59a2.205,2.205,0,0,1-.783-3.538c.9-.928,2.434-.849,4.265.281.645.4,1.041.6,1.482.437.739-.273,1.021.143.96.724-.133,1.278-2.118,1.591-3.37.132-1.656-1.929-3.455-.583-2.928.812.269.71.791.82,1.389,1.087C2583.872,1355.664,2583.275,1355.814,2582.857,1355.59ZM2576.3,1347c2.382-.644,5.924,1.883,7.844,1.539.833-.178.715,1.024-.149,1.46-1.011.509-2.447.167-5.494-1.427-2.509-1.36-4.54.894-2.863,2.576a2.036,2.036,0,0,0,1.528.514c.848-.04,1.1.193,0,.475a2.907,2.907,0,0,1-2.365-.668A2.611,2.611,0,0,1,2576.3,1347Zm-50.411-7.38a6.22,6.22,0,0,1,1.48-4.429l-10.706-7.285.16,29.1c5.3-3.377,7.045-7.635,7.35-13.13,10.473,11.766,7.2,26.088.663,34.245-.269-4.992-1.755-10.891-7.8-13.914l-.011,5.954-10.17,7.138v6.992h23.8l11.419-17.063c-2.066-7.585-1.755-13.9-3.153-17.367-1.048-2.853-3.039-6.539-4.325-5.967C2530.25,1347.342,2525.976,1343.311,2525.891,1339.617Zm9.009,3.358c3.709,2.678,4.7,7.055,5.458,10.945.026.033,1.947,13.188,2.008,13.365a1.714,1.714,0,0,1-.47,1.989c-3.424,4.711-10.119,14.816-10.119,14.816l65.616.387c-3.5-5.108-6.235-10.158-9.561-14.358a10.225,10.225,0,0,0-.814-4.02,2.134,2.134,0,0,1-.316-2.33c.96-2.152,1.944-4.485,2.832-6.461,1.7-3.784,1.891-3.815-.427-5.044-2.747-1.6-3.237-2.127-2.661-3.959.21-.666.237-.933-.614-1.107-.394-.081-1.352-.311-2-.49-1.854-.586-1.317-.222-2,.26-.517.255-.961-.727-1.567-1.888-.7-1.334-.872-1.366.28-.679,2.133,1.273,5.92.778,4.586-.695a3,3,0,0,1-1.185-2.714c.068-1.614.093-2.087-1-2.312a15.271,15.271,0,0,0-6.6.248c-6.193,1.551-11.162,6.94-13.046,10.944-.424.7.55.662.971.665,2.029-.182,3.469,3.062,2.141,4.517-.614.649-1.227.251-.571-.592a1.854,1.854,0,0,0-2-2.77c-2.057.591-2.115,3.258-2.37,5.116-.7,5.355,2.011,12.514,2.675,13.975,0,0,.145.218.095.217s-.375.3-.514.144c-.476-.542-1.678-4.923-2.33-8.052-1.263-8.656.97-16.615,8.15-21.136,6.36-4.6,9.563-3.611,13.174-3.824a45.817,45.817,0,0,0,4.24-1.757c11.326-5.925,21.648-11.719,31.146-19.415,6.943-5.254,10.255-9.516,16.206-14.885l-.6-30s-.6-.5-.6-.977c.39-2.008-3.122,1.339-5.376,2.461-1.419-13.764-8.84-27.3-17.835-35.214l.37-.506s3.008,1.992,4.51,2.94v-1.919l-3.622-2.276c-.162-.7-.071-.808.719-.811l2.9,2.146v-1.752l-2.346-1.5.751-.95,1.257.818c-.533-1.387.221-1.338,1-.419a5.857,5.857,0,0,1,.913,1.472c.067.195.268.673.268.673l2.058,1.536a4.167,4.167,0,0,1-.006-.978c.347-1.088,2.831,2.423,2.519,2.506l2.107,1.523c.5-.763,2.377.757,2.454,1.506.165.326,7.263,4.906,7.263,4.906l.077-2.53.765-1,.345-58.437-9.424,6.043-.1,7.074c-4.452-1.444-8.308-7.913-8.873-11.947-.289-.159-1.579,7.957-.9,11.509a31.9,31.9,0,0,0-3.143,2.944l3.57,3.918a73.1,73.1,0,0,0-.547,8.981c.145,1.414.173,1.558.595,1.56a.728.728,0,0,0,.651-.692c.839-3.569,3.593-9.138,8.359-11.034.315-.01-.026,31.836-.026,31.836l-11.827-8.093c-.589-.508.773-.475,1.6-3.171,2.143-6.951-5.291-9.407-8.163-5.382-.472,0-2.446-2.449-2.741-3.471-2.187-4.421-2.606-9.431-3.031-13.45a52.031,52.031,0,0,0-1.479-6.627,2.536,2.536,0,0,1,.312-2.556c2.748-5.681,8.043-9.589,10.047-15.326l-65.788-.213c4.167,3.45,7.784,13.075,11.582,14.312-1.82.236-1.2,1.831-.495,3.548.869,2.109.773,2.545-1.431,6.891-3.231,6.371-3.405,5.812-.181,7.783,1.99,1.278,2.352,1.558,2.059,3.293s-.374,1.2,1.269,1.341a6.593,6.593,0,0,1,1.975.415c.45.2.784.488,1.362.3.973-.32,1-.084,1.036.632a4.092,4.092,0,0,0,.618,1.168c.375.616.2.719-.487.285-2.115-1.337-5.652-.766-4.351.687a8.111,8.111,0,0,1,1.121,3.578c.082,1.77,1.229,2.4,3.635,2.033,4.624-.345,15.048-6.1,17.476-12.566-5.339,1.823-4.241-4.749-2.339-4.542a6.771,6.771,0,0,0-.528,1.831c-.058,2.35,1.905,2.532,3.257.867.589-.874,1.3-4.123.951-7.789-.425-4.441-2.219-9.409-2.544-10.642,7.635,18.281.624,26.32-10.1,31.566-4.11,1.721-4.673,1.711-7.095,1.824a21.011,21.011,0,0,0-4.742,1.485c-9.18,4.4-20.462,9.875-30.554,18.05a126.952,126.952,0,0,0-18.711,16.433l-.024,32.255c1.72-.268,4.511-1.948,6.164-2.914,1.894,12.047,8.071,26,18.3,34.342-.006,0-.242.455-.247.451-1.458-.971-2.914-1.936-4.326-2.68l-.073,1.535,3.443,2.374c.091.369-.59.884-.59.884l-2.842-1.97-.022,1.564,2.2,1.407c.595.6-.72.908-.72.908l-1.3-.947a5.5,5.5,0,0,1,.054.894c-.34,1.154-2.223-1.4-2.563-2.666l-1.852-1.1c.263.753-.4.858-.925.67-1.391-.708-1.314-1.9-1.6-2.6l-2.465-1.568c-.424,2.355-2.929-.962-2.533-1.756L2511,1316.9a2.289,2.289,0,0,1-1.672.046c-.537-.352-.726-1.789-.726-1.789l-1.9-1.177v2.06l19.492,13.651-.281.53-20.333-13.953.824,60.558,9.913-6.878c-.19-2.266.227-4.29.04-6.873,5.093,3.18,6.807,5.343,9.053,12.021a19.161,19.161,0,0,0,.546-10.823,9.711,9.711,0,0,0,3.224-3.719c-1.225-1.691-2.423-2.166-3.713-3.735-.1-1.913,1.016-7.611-.483-9.49,0,0-2.738,8.277-8.637,10.766-.179-8.74.024-30.712.024-30.712s6.063,4.2,9.154,5.9c1.453.778,2.466,1.266,2.485,1.819.01.282-.574.641-.83,1.038a10.291,10.291,0,0,0-.569,4.459,4.6,4.6,0,0,0,1.372,2.877C2529.928,1345.549,2533.49,1344.572,2534.9,1342.975Zm11.735-15.467,23.319-32.719a110.916,110.916,0,0,0,13.567,33.062Zm11.53-34.39s1.628-3.236,2.374-4.952h-2.856l1.708-1.922h4.253l-2.275,4.862h1.805l2.495-4.862h6.626l-2.317,4.862h1.526l2.479-4.862h6.161l-2.167,4.862h1.443l1.266-2.453.309,4.465h-6.12l2.419-4.952h-1.972l-2.733,4.952h-5.734l2.487-4.952h-2.18l-2.731,4.952Zm18.883-17.423,2.472-5.239h-1.956l-2.734,5.129h-6.111l2.4-5.07-1.522.005c-1.032,1.6-2.679,4.846-2.679,4.846h-6.481s1.833-3.444,2.556-5.129h-1.6l-1.3,2.081c-.459-.776-.157-2.84-.233-3.716h6.108l-2.454,5.027h1.949l2.676-5.027h6.45l-2.627,5.027h1.527l2.6-4.752h6.563l-2.3,4.752h2.026l-.893,2.066Zm-6.037-9.129-1.237.234c-1.584-13.576-9.073-27.416-12.244-33.13l37.266.525Zm43.756-78.382a22.43,22.43,0,0,0-3.791,12.274l3.385-2.712C2614.146,1189.943,2614.767,1188.184,2614.767,1188.184Zm-3.753,12.851a20.478,20.478,0,0,0,3.33,12.225,57.9,57.9,0,0,1,.62-8.394Zm-92.262,109.473-12.05-8.325v1.824l14.322,9.758Zm-2.171-4.468c-3.228-1.626-9.879-6.658-9.879-6.658v1.665l10.588,7.462a.344.344,0,0,0,.586-.077C2517.459,1307.727,2516.957,1306.767,2516.581,1306.04Zm-2.957-7.228-6.922-4.845v1.507c1.775,1.595,7.616,5.39,7.616,5.39Zm-6.922-5.947,6.512,4.222-.405-1.869-4.626-3.151Zm117.028-58.528.349-30.086c-6.786,3.218-8.131,12.6-7.905,12.9-6.755-6.982-9.3-22.036.174-32.16.712,3.247.951,7.957,7.653,12.261l.172-6.372,9.361-6.017v-7.526h-22.571c-3.494,4.439-6.986,9.6-10.442,14.311-1.3,1.766-1.621,2.6-1.372,3.52,2.272,8.191,1.817,18.275,6.587,23.044,6.4-6.035,12.392,3.05,7.418,8.652Zm-97.313,130.1c.866,2.74.27,8.267.215,8.267,1.033-.564,3.842-8.567,3.139-11.574m32.6-146.932c-1.593-.453-2.793-1.14-4.475-.979-1.324.138-1.774-.3-.966-1.025,1.056-.9,2.079-1.267,4.037-.24,5.888,3.089,6.07-1.423,3.418-1.742-.752-.091-.717-.573.033-.451C2568.529,1209.924,2567.275,1215.391,2562.368,1214.2Zm-6.886-4.506a6.761,6.761,0,0,0-2.065-.669c-.875.236-.905-.246-.8-.817.252-1.378,1.657-1.128,3.513.057,2.661,1.7,3.68-.743,1.259-2.061-.814-.443-.562-.566-.087-.586,1.261-.052,2.449,1.67,2.114,3.078C2558.567,1210.95,2556.508,1210.065,2555.482,1209.69Zm7.8-4.171c-1.721-.3-4.214-2.62-5.371-2.779-.65-.075-1.415.005-1.623-.257-.636-.8,1.165-.8,1.288-1.093,0-.676.046-1.1.019-1.33-.317-.432-1.57-2.159-1.526-3,.03-.052.657.463.979.464,3.073-1.625,5.174-.9,7.768.245a14.936,14.936,0,0,1,3.872,2.966c.059.577-1.173-.505-2.136-1.153-2.372-1.654-4.506-2.83-7.484-1.849-.464.159-.384.245,1.142.152,1.491-.091,2.712.367,4.616,1.613.473.31,1.044.838,1.385,1,2.4,1.146,2.918,2.271,1.393,1.966-.326-.065-.959-.406-1.58-.626-1.095-.389-.708-.271-1.762.221a7.568,7.568,0,0,1-1.991.624c-.561.094-2.378.079-1.574.849a10.194,10.194,0,0,0,3.241,1.879C2564.633,1205.729,2564.094,1205.662,2563.277,1205.519Zm.2-3.731c1.122-.416.245-1.36-1.185-1.568-.328-.048-1.027,1.5-1.042,1.828C2561.242,1202.291,2562.867,1202.017,2563.481,1201.788Zm-3.1.167a5.6,5.6,0,0,0,1.12-1.612c.005-.8-1.019-.579-1.256.257C2559.962,1201.615,2559.937,1202.24,2560.385,1201.955Zm-3.585-6.464c-.922-.409-2.176-2.2-.742-1.9a26.63,26.63,0,0,0,2.957.159,13.383,13.383,0,0,1,9.3,3.96c1.247,1.3,1.328,2.263.063,1.367C2563.9,1195.044,2561.144,1195.8,2556.8,1195.491Zm34.926,139.162-1.251.668c0,.7.253.588.807,1.08a7.131,7.131,0,0,1-1.329.088c-.915-.06-1.124-.045-.72.6.187.3.443.739.443.739a2.853,2.853,0,0,1-1.243-.1c-1.13-.311-1.71-.155-1.282.476.118.174.345.5.345.5a15.385,15.385,0,0,1-2.342-.928l-1.069.326c2.133,4.179,9.72,1.543,7.641-3.452Zm37-5.963c1.172-.987.6-2.2-1.11-3.084-.713-.37-.643-.375-1.8.306-1.424.839-1.525.883-.51,1.962C2626.535,1329.177,2627.867,1329.416,2628.729,1328.69Zm-4.353-2.79c1.079-.48.678-.4.6-1.529-.314-1.3.421-1.394.785-2.61.15-.665-.411-.42-1.5.6-.9.757-1.166.942-1.163.574.1-.308-.618-1.1-1.262-1.2-.544-.091-.492-.216.039-.906a3.915,3.915,0,0,0,.684-4.041c-.783-1.683-1.041-1.93-2.772-.46-.886.818-2.138,1.446-2.742,2.458-.433.745-.183,1.465.5,2.929,1.709,3.652,4.351,5.293,6.824,4.193Zm6.061.032c1.9-.748,1.134-2.807-1.838-4.882-1.791-1.251-2.3-1.238-.778.118.973.867,1.125,1.173.708,1.8-.347.52-.713,1.132-.367,1.608C2628.706,1325.322,2629.635,1326.247,2630.437,1325.932Zm-107.067-3.424-2.073-1.313v1.8l2.073,1.242Zm103.593,1.622a2.377,2.377,0,0,0,.767-1.465c.093-.835-1.263-.635-1.91.289C2625.091,1323.993,2625.953,1324.843,2626.963,1324.13Zm4.641-2.826c.945-.993.485-2.05-1.454-3.31-.749-.492-1.13-.813-1.038.162.028.3-.3.691-.507.926-.672.755-.373.89,1.542,2.108C2631.123,1321.81,2631.072,1321.864,2631.6,1321.3ZM2523.37,1319.4l-2.073-1.255v1.629l2.073,1.4Zm-4.532,1.627.027-1.635-2.685-1.79-.039,1.821Zm105.608-.661c-.346.935,1.046.511,1.126.416.241-.473.028-.517-.091-.567C2625.237,1320.106,2624.289,1320.27,2624.446,1320.361Zm.607-1.181c.477-.155.533-.1.467-.958-.1-1.3.095-1.407.958-1.98.689-.458.7-.389.683-1.188-.013-.964.053-1.379,1.318-1.576.517-.08.813-.208.856-.617.073-.689-1.031-1.852-2.4-2.523a36.57,36.57,0,0,0-4.126,3.6l-.523.565.626,1.176c.976,1.835.816,2.51.242,4.942-.118.652.383.557.514-.227C2623.836,1319.663,2623.936,1319.4,2625.053,1319.18Zm4.675-6.49c-.236,1.478.527,2.386,1.247,1.652a8.879,8.879,0,0,0,.45-4.179C2629.944,1308.574,2629.786,1312.335,2629.728,1312.69Zm-23.834,24.467c5.5-3.231,12.571-.59,16.554-3.24,1.858-2.053,3.725-3.362,2.672-4.778-.82-1.1-1.353-1.272-1.353-1.272a9.119,9.119,0,0,1-7.2,2C2609.409,1329.621,2606.025,1331.876,2605.894,1337.157Zm9.4-7.692c3.5.122,6.351-.489,7.653-1.508.809-.632.931-.743-.336-.846-2.721-.22-5.476-3.384-6.339-6.453-.176-.631-.383-1.317-.383-1.317-7.249,5.8-23.2,14.944-23.2,14.944,1.059,4.94-2.509,7.887-7.342,6.132-.841-.076-.731,1.009-.573,1.455a4.154,4.154,0,0,0,.962,1.441c.719.618.853,1.027.745,1.619s-.1.565.312.784c.726.39.689.946.293,2.092-.427,1.612-.457,2.018.7,2.786,1.487.958,4.405,2.006,3.974,3.447-.976,3.267-2.58,6.079-3.989,9.135a3.153,3.153,0,0,0,0,2.9c.512,1,.453,2.194,1.115,3.111,3.664,5.456,6.82,10.174,10.158,15.1h34.494V1303.9s-5.819,5.319-5.8,5.694c.02.448,1.264,1.148,1.8,1.237.022-.243,0-1.2.066-1.536.049-.486,1.6-.36,2.118.063.36.3.25,2.23-.115,3.8-.3,1.288-.257,1.3.294,2.049a3.628,3.628,0,0,1,.815,2.7,2.866,2.866,0,0,0,.115,1.376,3.131,3.131,0,0,1-.148,2.676c-.595.83-.6.957-.475,1.4.488,1.539.306,2.848-1.4,3.515a1.588,1.588,0,0,0-.6.792c-.745,2.461-2.144,2.458-4.057,1.749-1.354,5.3-6.863,6.625-10.831,6.469-4.134-.164-8.338.147-10.209,2.859.438-6.424,3.3-9.521,10.194-9.281Zm12.475-10.668a.8.8,0,0,0,.2-1.469c-.906-.724-1.947.013-1.522,1.06C2626.686,1318.975,2627.088,1319.053,2627.77,1318.8Zm-108.816-2.332-2.754-1.913.016,1.714,2.744,1.766Zm5.193,1.408-1.948-2.344c-5.743-3.523-10.721-7.463-15.5-10.636l-.037,2.172,1.366.691s.116-.478.209-.753c.176-.518,1.754.939,2.258,2.106.125.291.4.94.4.94l1.841,1.019s.027-.523.028-.669c.007-1.112,1.975.418,2.873,2.235.217.441.5.908.5.908l1.732,1.055c.684-.937,2.425.345,2.871,1.483.565,1.442,1.559,1.567,1.6,1.572Zm-10.366-.316,0-1.664-2.87-1.893-.037,1.687Zm118.167.136c.074-.436-.355-2.136-1-2.231-.4-.06-1.033.552-1.036.98C2629.91,1317,2631.866,1318.166,2631.948,1317.693Zm-2.335-2.019c.627-.687-.164-1.582-1.123-1.271-1.138.369-.744,1.4.53,1.426C2629.3,1315.833,2629.475,1315.825,2629.613,1315.674Zm-115.981-1.224.011-1.587-2.652-1.758-.055,1.551Zm-5.214-.56.026-1.527-1.742-1.218v1.829Zm.063-4.576-1.779-1.163v1.656l1.859,1.066Zm7.227-5.035c-.185-.489-.936-2.037-.936-2.037l-8.07-5.65v1.739l9.028,6.09Zm-3.777-13.426-.095-.708-.718.384Zm-1.71.176-1.129.613,3.41,2.224-.274-1.581Zm118.4-18.74.879-.639-1.553-1.055-.116,1.071Zm1.573-1.016,1.155-.957-3.864-2.732.274,1.7Zm2.738-1.43v-1.167l-6.266-4.244.434,2.133c1.1.64,2.454,1.576,3.865,2.57C2631.859,1269.768,2631.862,1270.012,2632.932,1269.843Zm0-2.162v-1.852l-7.248-4.828.589,2.174Zm0-2.782,0-1.941-8.775-5.815.961,2.568Zm0-4.877-11.061-7.425,1.415,2.846,9.646,6.466Zm0-2.836-13.882-9.263,1.559,2.593,12.323,8.357Zm0-3.012h-.519c-.041,1.327-1.475.364-2.014-1.1-.408-.977-.5-1.223-.5-1.223l-2.795-1.9c.058.386.22,1.486.22,1.486l-1.883-1.154s-.544-1.825-.562-1.837l-3.217-2.193c.068.373.122.99-.087,1.032a3.836,3.836,0,0,1-1.426-1.072,3.264,3.264,0,0,1-.536-1.363l-2.625-1.7-.654.07s-.354-.24-.687-.511a4.052,4.052,0,0,0-2.222-1.74s1.847,2.164,2.835,3.442a12.3,12.3,0,0,0,2.006,2.023l14.665,9.813Zm0-3.027-1.133-.683.083,1.792,1.05.716ZM2518.6,1247.2c.07-.113-.22-.242-.539-.945a5.073,5.073,0,0,1-.445-4.176c.2-.873-.589-1.247-.952-.317-.283.724-.722,1.131-1.142,1.079-.4-.05-.481.117-.309.666a1.849,1.849,0,0,1-.882,2.021c-.642.165-.759.573-.579,1.164.3.981-.756,1.811-1.585,1.763-1.281-.073-.779,1.1.766,2.211.571.413.827.636,1.277.427C2515.38,1249.99,2517.554,1248.405,2518.6,1247.2Zm111.184,3.59-.064-1.708-3.223-2.183.4,2.286Zm3.146-.716v-1.721l-1.326-.855.068,1.829Zm-121.317-2.666c.309.314.616.342,1.106.046.566-.3.349-.744-.242-1.036C2511.926,1246.13,2511.152,1247.018,2511.615,1247.412Zm-.962-.754a.936.936,0,0,1,.7-.864c.662-.04.545-.394-.212-.854-.356-.216-.985-.72-1.215-.887-1.132-.824-2.226.448-1.385,1.524C2509.242,1246.477,2510.281,1247.011,2510.653,1246.658Zm118.815,1.066-.25-1.9-2.911-1.941.23,2.094Zm-105.82-4.634a1.37,1.37,0,0,0,.191-.834,7.518,7.518,0,0,0-1.537-3.779,7.331,7.331,0,0,0-2.208-2.063c-2.226-1.149-5.2-.654-4.765.825.307,1,.236,1.837-.62,2.339-.581.342-.655.8-.04.8a3.077,3.077,0,0,0,2.124-1.189c.7-1.1,1.095-1.739.939.055-.066.751.028.7,1.188.635,1.574-.081,1.282.214.362.925a3.479,3.479,0,0,0-.929,4.276c.419.922.708,1.412,1.253,1.289A32.157,32.157,0,0,0,2523.648,1243.09Zm100.678,2.219-2.865-1.892.113,2.024,3.093,1.832Zm-109.957-1.851c-1.051-1.33-2.283.368-1.486,1.111C2513.461,1245.078,2514.92,1244.557,2514.369,1243.458Zm-2.483.185c-.131-.414.628-1.08.748-1.344.347-.77-2.762-2.913-3.73-1.643-.666.875-.2,1.75,1.593,2.947C2511.581,1244.326,2512.1,1244.325,2511.886,1243.643Zm112.161-1.283-2.648-1.654.046,1.747,2.813,1.7Zm-4.668,1.564v-1.785l-2.668-1.866-.044,1.848Zm-103.728-2.11c.485-.48.321-.636-.615-.588-.592.031-.773-.068-.813.2C2514.135,1242.031,2515.154,1242.307,2515.651,1241.814Zm-2.22-.675c.048-.124-.287-.368-.833-.827-1.042-.877-1.16-1.422-.158-2.1,1.429-.974-.069-2.36-1.728-1.8a1.554,1.554,0,0,0-.548,2.68C2511.256,1239.819,2513.235,1241.921,2513.431,1241.139Zm105.948-1.784-2.624-1.8v1.758l2.624,1.535Zm-105.454.115c1.169-.6,1.231-2.1.061-1.547-.483.226-1.115.839-1.117,1.117C2512.866,1239.58,2513.328,1239.775,2513.925,1239.47Zm.858-3.44c1.515-.816,1.283-1.574-.226-2.523-1.842-1.059-3.132.972-1.615,2.354C2513.736,1236.585,2513.921,1236.495,2514.783,1236.03Zm1.965-1.472c2.462-2.654,4.095-2.518,7.346-2.447,8.386.076,10.957-3.945,10.691-6.763-4.075,2.03-7.713.94-11.592,1.527-6.693,1.5-7.478,4.656-7.945,6.463Zm33.62-9.039c2.161.019,2.064.085,1.175-1.7,2.1.289,2.953,1.3,2.258-.8,1.116.4,1.784.706,2.937,1.086l.731-.425c-4.451-4.345-9.387-.663-8.087,3.72l1.654-.793Z" fill="#131f67"/>
                <path id="path3502-5-8-1" d="M2561.231,1384.336l1.035-5.031,9.238.451s1.073,3.157,1.507,4.58Zm-21.334-.123,4.9-8.119,6.96,1.894-1.6,6.347Zm13.538.122,2.109-8.667c-3.982-.879-7.738-1.457-12.132-2.646l-7.134,11.3-4.292-.114c3.7-4.942,10.451-14.92,10.451-14.92a91.546,91.546,0,0,0,46.83,3.423s5.792,7.665,7.868,11.822l-4.085-.2-5.075-8.525c-3.535.385-7.011.857-10.7,1.011l2.524,7.514h-4.056l-2.3-7.493c-4.423-.171-8.141.175-13.441-.657l-1.87,8.147Zm29.232,0-1.4-5.33,4.986-.584s2.312,4.064,3.578,5.91Zm-44.74-49.52c6.2-9.454,28.075-39.759,28.075-39.759l3.213.131s-19.59,27.367-29.037,41.167Zm-31.622-14.707,7.636,5.516.055,42.939-7.76,5.478Zm31.7-70.248,4.623,9.073c-19.64,18.665-15.787,40.567-5.265,56.19a30.871,30.871,0,0,1-4.325,7.206c-14.236-9.416-18.566-33.889-18.458-34.15C2530.269,1274.147,2532.384,1269.678,2538.006,1249.864Zm80.258,66.891c1.014-13.818,7.752-22.85,15.3-28.369l.386,14.055C2629.01,1307.2,2623.783,1312.113,2618.264,1316.755Zm-20.508-13.919c17.2-16.112,17.787-38.993,5.257-55.789l5.128-7.183c7.269,7.8,14.4,15.98,17.43,34.982-10.893,8.612-20.518,22.843-23.079,37.207Zm-23.7-18.747-.032-6.584,6.434-.033-.184,6.575Zm-13.6-.051-.092-6.562,6.361.046-.1,6.652Zm11.015-17.57s21.32-29.933,29.688-40.737l1.778,1.312-28.353,39.592Zm-49.8-20.932c-.021,11.81-7.568,21.168-15.277,27.273l.1-13.445Zm112.014-56.989.045,52.418-7.205-4.351.611-43.959Zm-34.341,3.1c-16.264-4.242-31.081-5.511-46.659-2.163-2.03-2.428-8.852-12.543-8.852-12.543l3.938.058,5.573,8.947,10.617-1.391-2.734-7.278,4.377.019,2.182,7.137c-.023-.056,8.637.086,13.45.658.765-2.65,2.188-7.917,2.188-7.917l4.822,0c-.619,2.531-2.283,8.552-2.283,8.552a112.239,112.239,0,0,1,11.341,2.5c2.57-3.643,4.959-7.287,7.284-10.93l4.7-.022C2607.9,1179.625,2599.6,1191.768,2599.344,1191.651Zm-3-6.283-7.186-1.681,1.877-6.351,10.043-.006Zm-41.261-2.3-3.341-5.895h6.428l2.129,5.192Zm14.593-1.2-.974-4.694h11.675l-1.193,5Z" fill="#d40000"/>
                <path id="path3500-9-6-1" d="M2542.982,1176.78l10.383,15.03a83.3,83.3,0,0,1,11.491-1.432,81.507,81.507,0,0,1,12.418.248s1.775,5.374,2.377,8.013a21.659,21.659,0,0,1-.128,10.274c-1.228,3.945-1.877,5.129-4.62,7.838a25.051,25.051,0,0,1-7.877,5.282c-4.11,1.721-4.528,1.711-6.949,1.824a4.565,4.565,0,0,0-2.64.594c-.27.095-.446.377-.687.458a1.5,1.5,0,0,1-.587-.009,164.136,164.136,0,0,0-31.708,18.264c-.092.068-.15.371-.239.444-.646.53-1.242.932-1.872,1.416-.087.067-.281-.052-.367.014a187.582,187.582,0,0,0-16.49,14.683l.19,33.433s4.23-2.181,6.4-3.51A53.912,53.912,0,0,0,2530.2,1323.9l-4.41,6.1-20.318-14.032.283,61.686,10.8-7.526v-6.506c3.22,2.175,6.362,3.022,8.648,12.925,1.827-3.478,1.667-8.659.848-12.121a16.593,16.593,0,0,0,3.58-3.995l-4.015-3.572s1.04-8.649-.853-10.391c-1.5,3.926-2.692,8.087-8.288,11.116l-.07-30.048c2.789,1.772,5.427,3.767,8.184,5.585l.381-.076,2.852,1.96s-.3.613-.579,1.033c-3.467,5.273,2.31,11.741,7.008,7.849,1.84-1.523,5.293,4.813,5.944,10.907.663,3.937,1.02,8.825,2.087,12.244a1.7,1.7,0,0,1-.5,2.163c-3.6,5.081-10.838,15.32-10.838,15.32h5.214l.377-.6h-3.843c3.311-4.419,6.469-9.568,9.9-13.881,12.8,4.831,33.762,5.948,46.422,3.018,2.615,3.678,5.157,7.534,7.672,11.281h-3.642l.5.785h4.925L2588.1,1369.8c-7.152,2.134-24.585,1.3-24.268,1.125,0,0-.049-.118-.652-1.856-2.994-9.692-3.271-18.294,4.238-25.246,3.988-3.558,8.444-5.9,13.419-5.459,2.224-.044,2.267-.165,3.194-.585a11.327,11.327,0,0,1,1.569-.472l5.04-2.8.665-.133,1.449-.766.3-.356,2.343-1.193.263.021,3.166-1.828.042-.257,1.246-.771.3.315a155.513,155.513,0,0,0,17.445-12.342l.312.117c5.877-4.77,13.867-12.29,16.237-15.146l-.127-14.31-.2-.175-.08-15.846h-.459l-.02-1.955c-2.6.966-5.458,3.386-5.65,3.285a55.8,55.8,0,0,0-17.876-34.847l4.285-5.936,19.9,13.428.054-3.922h.247c.244-15.043.378-54.034.378-54.034l-.2-.019,0-3.113-10.17,6.514-.143,6.58c-4.509-1.477-7.365-6.91-8.312-11.753-1.313.529-1.923,5.627-1.438,12.085a10.743,10.743,0,0,0-3.14,2.852,27.4,27.4,0,0,0,3.68,3.709c-.282.609-.878,9.227-.285,10.3.271.788,1.21.675,1.215-.154,1.371-6.721,7.726-11.131,8.083-10.725l-.155,30.989-11.29-7.938c2.37-2.685,2.869-7.213-.117-9.429a4.439,4.439,0,0,0-6.618,1.075c-3.666-2.4-4.9-11.275-5.435-14.751a42.764,42.764,0,0,0-1.066-6.059,20.42,20.42,0,0,1-.732-3.7,1.91,1.91,0,0,1,.54-1.471l10.977-15.621-5.6-.02-.055.1,4.408.013-9.9,14.1a96.152,96.152,0,0,0-46.858-2.852l-8.162-11.513,3.71-.015-.146-.248Zm8.613.132.157.282,6.415-.02-.1-.238Zm9.512.035.122.339,4.377.016-.134-.332-4.365-.023Zm22.345.12-.043.154,4.822.008.044-.154Zm-14.779,0,.046.2h11.635l.044-.186-11.725-.012Zm22.4.1-.046.164,10.043-.008.085-.156Zm42.376,8.593.031,2.121-6.746,4.3c-.169,9.068-.429,43.951-.429,43.951l-1.615-1.062.317-43.682s5.968-3.847,8.442-5.629Zm-17.7,1.706h.229l.068.491h-.393l.1-.491Zm.479,1.281.177.666-.986-.005.166-.642.643-.019Zm17.029.345v1.384l-5.821,3.648v-1.373Zm-17.966,1.151,1.523.021.254.765h-1.917Zm-37.381.412,1.017.152a47.164,47.164,0,0,1,3.341,15.364c.929,6.475,2.807,12.964,4.112,15.722l-1.493-.015a77.855,77.855,0,0,1-3.98-14.929,28.028,28.028,0,0,1-.162-3.129,47.868,47.868,0,0,0-2.835-13.165Zm1.912.224,1.3.134c.908,3.964,2.232,7.7,2.769,11.688.86,6.37,1.32,12.875,4.383,19.153l-1.215-.011a53.39,53.39,0,0,1-3.749-13.459c-.579-2.745-.585-4.807-.892-7.288a65.179,65.179,0,0,0-2.6-10.217Zm1.975.186,1.3.193c.855,3.936,2.323,8.268,2.711,11.826.792,7.246,1.925,14,4.2,18.791l-.91-.029c-3.521-6.839-3.577-12.932-4.563-19.342-.581-3.774-1.812-7.55-2.742-11.439Zm2.072.3,1.148.178c.8,3.916,2.232,8.349,2.565,12.321a50.7,50.7,0,0,0,4.444,18.032l-1.077.02c-3.15-5.529-3.572-12.316-4.554-19.189C2585.855,1198.942,2584.633,1195.123,2583.87,1191.377Zm49.388.008v1.714l-5.821,3.748v-1.691Zm-47.509.332,1.2.187c.773,3.777,2.21,7.807,2.549,11.485a58.942,58.942,0,0,0,4.316,18.48l-1.107.07a49.254,49.254,0,0,1-4.439-18.065C2587.977,1200.068,2586.517,1195.428,2585.749,1191.717Zm31.7.02.416,1.018-2.789.135.034-1.142,2.339-.011Zm-29.726.355,1.426.279c1.512,6.026,1.909,11.73,2.938,17.457,1.287,7.116,2.643,10.691,3.751,12.018l-1.181.039c-2.881-6.161-3.9-12.286-4.571-18.632-.394-3.743-1.618-7.432-2.363-11.161Zm2.175.407,1.088.22a105.8,105.8,0,0,1,2.451,13.988c1.038,8.465,3.85,14.9,4.448,15.2l-1.2-.054c-2.6-3.607-3.565-9.746-4.844-18.411-.562-3.809-1.122-7.392-1.944-10.944Zm1.751.352,1.218.3s1.1,4.333,1.93,10.083c.691,4.791,1.054,14.219,6.247,19.641,2.592,2.706,7.159,5.057,10.276,2.5a4.249,4.249,0,0,0,1.388-4.914c-1.345-3.266-5.9-2.706-4.385.72.169.822-.9.857-1.647.055a2.11,2.11,0,0,1-.033-2.734c1.172-1.894,4.308-2.089,6.149-.4,2.942,2.89,1.67,7.848-2.055,9.42-4.291,1.829-9.821-1.946-12.011-5.547-3.623-6.275-4.183-12.23-5.032-18.565-.432-3.421-1.264-7.013-2.045-10.566Zm1.837.507,1.236.3c0,.017,1.357,6.1,1.806,9.713.554,4.459,1.166,9.714,3.07,13.77a15.312,15.312,0,0,0,4.648,5.879c1.5,1.063,2.84,1.735,4.832,1.3,2.3-.5,2.4-4.072.205-4.081-1.121-.005-.39-1.087.54-1.118,3.308-.109,3.4,5.12.289,6.287-3.565,1.336-7.421-1.182-9.808-4.345-4.176-6.506-4.012-12.44-4.929-17.687A99.066,99.066,0,0,0,2593.486,1193.358Zm25.027.182.755,1.013-4.2-.019.019-.964,3.426-.03Zm-23.185.337,1.184.413a89.9,89.9,0,0,1,1.906,10.314c.852,5.387,1.13,9.87,3.911,13.761,1.157,1.618,3.341,3.777,4.717,4.034.852.185,1.734,0,1.951-.653.355-1.064,1.265-.575,1.285.391a1.769,1.769,0,0,1-1.335,1.621c-4.088.71-7.828-4.438-8.963-7.048-1.537-3.8-2.195-8.041-2.861-13.324C2596.84,1201.149,2595.49,1194.019,2595.328,1193.877Zm37.93.188-.02,1.707-5.8,3.668v-1.66Zm-36.148.334,1.327.363a80.018,80.018,0,0,1,1.766,9.292c.67,5.208,2.108,11.259,4.8,14.388a6.562,6.562,0,0,1,.517.689c.193.426-.037,1.145-.236,1.146-4.787-2.5-5.918-12.539-6.329-15.933A80.758,80.758,0,0,0,2597.11,1194.4Zm18.614.8,4.223.12,1.007.994-5.592-.05C2614.772,1195.656,2615.139,1195.726,2615.724,1195.2Zm17.534,1.385V1198l-5.821,3.7v-1.448Zm-17.388.449,6.179.108,2.167,1.293-9.441-.078,1.1-1.323Zm17.388,1.8v1.7l-5.821,3.659V1202.6Zm-19.675.321,10.5.113.026,1.14-11.387-.294Zm-1.369,1.953,11.876.031.03,1.262-10.8-.1-1.107-1.189Zm21.044.2v1.772l-5.821,3.616v-1.679Zm-18.811,1.856,9.1.043-.988,1.055-6.864-.068-1.251-1.03Zm18.811.623v1.671l-5.821,3.671v-1.647Zm-11.961,1.276-1.1,1.076-4.717-.066.162-.978Zm11.961,1.172v1.792l-5.821,3.567v-1.552Zm-17.846.655,3.892.085-.595.82-3.406.016.109-.921Zm-35,1.427c.587,4.506,3.847,13.59,3.846,13.587l-1.284.011a62.1,62.1,0,0,1-3.194-11.195c-.1-.522.251-2.284.632-2.4Zm34.744.259,3,.054-.653,1.161-2.44,0,.1-1.211Zm18.1.276v1.566l-5.821,3.59v-1.427Zm-18.2,1.584,1.985.063-.469,1.075-1.54-.045Zm18.2.845v1.671l-5.821,3.621v-1.613Zm-54.07.355a77.789,77.789,0,0,0,3.255,10.307l-1.1.014c-.05.151-2.58-5.909-2.85-8.5-.13-.543.157-1.618.7-1.819Zm35.852.7,1.178.055-.2.614-.954.023-.024-.692Zm.106,1.477.612.016-.146.584h-.382l-.084-.6Zm18.112.031v1.35l-5.821,3.7v-1.28Zm-55.529.147c.883,2.631,1.766,5.312,2.812,7.877l-1.3-.031a55.373,55.373,0,0,1-2.144-5.97,1.845,1.845,0,0,1,.636-1.876Zm-1.3,1.756,2.167,6.075h-1.23c-.506-1.222-1.076-2.587-1.475-3.845C2575.484,1216.663,2575.522,1216.619,2576.43,1215.737Zm56.828.38v1.6l-5.821,3.613v-1.381Zm-58.29,1.292c.283-.028.3.334.555,1.058l1.188,3.363-1.519-.037a10.429,10.429,0,0,1-.83-3.015c-.041-.5-.132-1,.216-1.21a1.124,1.124,0,0,1,.39-.159Zm-1.616,1.269c.256.008.355.47.556,1.165l.631,1.973-1.418-.036a4.3,4.3,0,0,1-.452-2.577c.32-.371.53-.53.683-.525Zm59.906.008v1.675l-5.821,3.509v-1.555Zm-61.365,1.2.595,1.942-1.281-.03a3.75,3.75,0,0,1-.084-1.524Zm-1.677.994a.059.059,0,0,1,.043.016c.183.859,0,.913.016.9l-1.79-.011a8.854,8.854,0,0,1,1.731-.91Zm63.042.5v1.339l-5.821,3.64v-1.357Zm-69.206,2.12,34.975.1,1.166,1.652s-3.4.093-14.548.023c-9.383.122-28.237-.2-28.237-.2l1.834-.866A21.993,21.993,0,0,0,2564.052,1223.506Zm69.206.2v1.474l-5.821,3.536v-1.428Zm-98.417,1.415a15.442,15.442,0,0,1-7.4,1.4c-4.223-.343-10.684,1.429-11.983,5.5-.408,1.437-.413,1.477.362,2.208a2.414,2.414,0,0,0,.83.611,9.106,9.106,0,0,1,2.544-2.054,13.76,13.76,0,0,1,4.038-.529c4.484-.2,5.5-.388,6.612-.685,2.455-.651,4.929-3.074,5.078-5.772A2.514,2.514,0,0,0,2534.841,1225.119Zm-.121.367c-.474,5.629-6.551,6.363-9.221,6.2-5.413-.325-7.546,1.3-8.4,2.3-.283.27-.448.205-.4-.041.629-3.116,5.65-3.233,8.177-3.2,6.194.283,7.763-2.712,7.588-2.741-.47.211-.818.4-1.294.623-.205.086-.162-.039-.7-.35-.008.04-.619,1.433-1.41.112.02.066-.564,1.173-1.644.138.007.112-.653,1.062-1.709.091-.993.853-1.466.383-1.892-.217-.313.189-1.233,1.435-2,.094-.818.522-1.159,1.088-1.863.746-1.641.295-3.061,1.984-3.64,3.531-.18.532-.546.616-.59.032-.2-1.615,2.455-4.412,5.114-5.185a20.166,20.166,0,0,1,8.023-.86A16.872,16.872,0,0,0,2534.72,1225.486Zm66.352.427,1.639,1.115-28.531,39.455-2.518-.065,29.41-40.505Zm-45.766.027h3.243v5.378h-2.8l-1-1.49a1.74,1.74,0,1,0-.861-1.5,1.7,1.7,0,0,0,.02.251l-1.045-1.555a16.31,16.31,0,0,1,1.5-.739C2554.646,1226.162,2555.306,1225.94,2555.306,1225.94Zm10,0h5.5v5.378h-5.5Zm12.041,0h5.689v5.412l-5.689-.034v-5.378Zm12.284,0h5.685v5.378h-5.685Zm43.545.128.085,1.678-5.821,3.548v-1.659Zm-40.91.556a1.844,1.844,0,1,0,1.839,1.842A1.844,1.844,0,0,0,2592.263,1226.624Zm-24.2.1a1.844,1.844,0,1,0,1.839,1.842A1.84,1.84,0,0,0,2568.064,1226.721Zm11.987.035a1.844,1.844,0,1,0,1.84,1.841A1.839,1.839,0,0,0,2580.051,1226.756Zm6.2.22a1.548,1.548,0,1,1-1.543,1.548A1.546,1.546,0,0,1,2586.246,1226.976Zm-24.387.024a1.547,1.547,0,1,1-1.543,1.547A1.544,1.544,0,0,1,2561.859,1227Zm36.555.054a1.415,1.415,0,0,1,.952.368l-1.681,2.289a1.431,1.431,0,0,1,.729-2.657Zm-24.151.008a1.547,1.547,0,1,1-1.543,1.548A1.545,1.545,0,0,1,2574.263,1227.062Zm-18.63.112a1.155,1.155,0,1,1-1.152,1.153A1.151,1.151,0,0,1,2555.633,1227.174Zm-3.529.063a83.491,83.491,0,0,1,17.3,39.045l-1.644-.078a85.389,85.389,0,0,0-17.17-38.362l1.512-.606Zm40.159.011a1.22,1.22,0,1,1-1.22,1.218A1.217,1.217,0,0,1,2592.263,1227.248Zm-24.2.1a1.221,1.221,0,1,1-1.218,1.219A1.219,1.219,0,0,1,2568.064,1227.344Zm11.987.034a1.221,1.221,0,1,1-1.219,1.219A1.219,1.219,0,0,1,2580.051,1227.378Zm30.5.876c.646,4.956-.629,8.154-4.4,8.672-4.8.662-5.428,1.025-5.454,5.587-.032,5.408-.829,6.97-4.647,7.4-4.3.48-5.295.991-4.91,6.348.281,3.909-1.255,5.572-4.563,6.3-2.586.568-4.826,1.436-5.785,4.051l-2.365.031c.614-4.118,4.741-6.085,7.386-6.221,2.851-.679,3.448-1.637,2.986-6.65-.348-3.774,1.033-4.92,5.453-5.783,3.534-.7,4.4-1.716,4.207-4.615-.412-6.217,0-7.151,3.519-7.907,1.8-.427,4.717-.619,5.831-1.994,1.267-1.564.945-2.9.83-4.816l1.909-.4Zm22.706.165v1.626l-5.821,3.6v-1.582Zm-85.543.963c-1.245,5.39,3.035,6.562,5.639,7.471,3.03,1.058,3.765,2.591,3.421,7.946-.26,4.051.185,4.947,2.8,6.338,4,2.07,5.075,5.012,3.3,9.319-1.095,2.655-.521,3.4.173,5.717l-1.939-.018a6.443,6.443,0,0,1-.382-6.051c1.656-3.744,1.608-5.623-2.084-7.307-2.856-1.3-3.733-2.534-3.91-5.216a19.685,19.685,0,0,1,.2-4.147c.332-3.095-.768-4.426-5.33-6.127-2.034-.758-3.416-2.523-3.832-5.321a7.525,7.525,0,0,1-.011-1.686l1.96-.917Zm68.236.585,17.352,11.58-.119,2.576-18.409-12.338Zm-11.181.255a1.524,1.524,0,1,1-1.52,1.524A1.524,1.524,0,0,1,2604.77,1230.222Zm-54.59.666a1.383,1.383,0,1,1-1.381,1.381A1.377,1.377,0,0,1,2550.18,1230.888Zm83.027.162-.058,1.552-5.712,3.544v-1.552l5.77-3.544Zm-76.847,1.017h39.532l-1.014,1.37-37.767-.386Zm-13.706.068c5.248,6.859,10.405,13.927,14.382,27.246l-1.7.654a79.727,79.727,0,0,0-14.29-26.993l1.6-.908Zm90.6,1.221v1.7l-4.378,2.672-1.288-.843Zm-92.925.183.776,1.02s-.84.662-1.79,1.344c-2.589,1.857-2.926,2.066-3.1,3.275-.41,2.871,2.534,4.287,5.489,2.628,1.059-.486,3.382-1.962,3.382-1.962l.667.986s-3.33,2.5-5.284,3.068c-4.287,1.25-7.487-4.2-4.319-7.436a16.279,16.279,0,0,1,2.321-1.686C2539.312,1234.235,2540.333,1233.539,2540.333,1233.539Zm17.645.676,36.424.217-23.26,31.889-1.034-.057c-1.8-11.928-6.276-22.35-12.13-32.049Zm-15.883,1.351,2.129,2.983a19.05,19.05,0,0,1-3.679,2.587c-1.838,1.007-3.825-.824-2.67-2.475C2539.062,1237.021,2542.095,1235.566,2542.095,1235.566Zm91.163.3v1.556l-2.523,1.55-1.153-.738Zm-91.429,1.2a5.2,5.2,0,0,0-3.254,2.192.9.9,0,0,0,.068,1.077c.344.445.753.419,1.964-.229,2.473-1.322,2.936-2.106,1.847-2.881a.932.932,0,0,0-.533-.159c-.031,0-.059,0-.092,0Zm-.08.637c.16-.015.344.034.5.02.427.177.3.71-.151.836-.1-.156-.84-.177-.791.579-.18.429-.173.4-.717.457a.588.588,0,0,0-.672.321c-.375.2-.835.138-.921-.089s.226-.855.486-.854c.126.01.349-.178.578-.333-.008-.414.478-.474.619-.473a.814.814,0,0,0,.825-.344A.341.341,0,0,1,2541.749,1237.7Zm91.509.372v2.4l-1.828-1.172Zm-101.067.3a67.558,67.558,0,0,1,14.452,27.793l-1.33.921c-2.01-8.114-5.1-16.688-14.259-27.835Zm77.612.133a54.56,54.56,0,0,1,17.657,34.8l-1.647,1.013a55.811,55.811,0,0,0-17.074-34.427Zm-5.935.715a1.524,1.524,0,1,1-1.521,1.524A1.521,1.521,0,0,1,2603.868,1239.225Zm-73.524.595s1.394,1.438,1.392,1.78c-.005.677-.542,1.062-3.746,2.233-.541.2-2.907.745-2.907.745l-.087-1.152c1.208-.436,4.45-1.216,4.687-1.907.116-.272-.46-.959-.338-.959Zm22.1.293a1.386,1.386,0,1,1-1.381,1.386A1.381,1.381,0,0,1,2552.445,1240.113Zm55.836.4a55.992,55.992,0,0,1,16.835,34.5c-11.678,9.526-19.612,21.5-22.764,36.484-1.558-2.6-2.883-5.6-4.324-8.526,15.583-13.735,18.862-38.47,5.385-55.809l4.868-6.651Zm-61.326,1.873.7,1.091s-.147.134-2.33,1.493c-3.194,1.988-3.72,3.285-2.654,5.32,1.09,2.08,2.306,2.191,5.736.525,1.211-.588,2.24-1.206,2.24-1.206l.549,1.141a16.847,16.847,0,0,1-4.493,2.34c-2.782,1.023-5.412-.72-5.906-3.942-.359-2.343.66-3.6,4.717-5.908C2545.973,1242.994,2546.955,1242.382,2546.955,1242.382Zm47.78.518a1.524,1.524,0,1,1-1.52,1.525A1.522,1.522,0,0,1,2594.735,1242.9Zm-61.966.059.918.868a9.9,9.9,0,0,1-2.657,1.948c-2.032,1.226-2.242,1.028-1.23,1.885,1.887,1.6,4.5,5.14,4.49,6.054-.014.882-.8,1.694-2.309,2.375-.826.373-4.095,1.542-4.575,1.626-.955.1-1.224.488-.269,1.359,1.622,1.866,3.006,5.86,2.45,7.078-.627,1.371-1.379,1.6-7.386,1.879-.684.031-1.011-.163-.64.715a21.438,21.438,0,0,1,1.087,4.225c.478,2.416.4,3.5-.539,4-.537.286-4.715.186-6.441-.154-1.975-.389-2.19-.416-1.87.874.414,1.782.672,6.557-.672,7.479-.559.365-1.16.275-3.613-.554-1.565-.528-2.921-1.134-2.921-1.134l.028-1.481c1.275.527,4.771,2.04,5.765,1.562,1.18-1.695-.458-7.637-1.084-8.909-.755-1.52.034-1.851,1.774-.909.913.646,8.779,3.756,8.332.973-.479-2.641-1.335-5.647-2.994-7.535-1.534-1.746-.769-2.459.939-1.694,3.022,1.355,9.266,1.023,8.955-.382-.412-2.283-2.479-5.377-5.309-7.777-.787-.668-.818-.953.11-1.118,2.644-.211,10.21-.99,9.153-2.772a18.224,18.224,0,0,0-3.153-3.939,13.9,13.9,0,0,0-4.162-2.341l.048-1.092c3.446-.287,5.238-1.327,7.775-3.109Zm-8.342,1.075c-1.235,12.992-6.654,23.7-17.838,31.162l-.062-1.455c9.832-7.408,14.553-17.937,15.833-28.125l2.067-1.582Zm9.5.614.92.827a9,9,0,0,1-1.562,1.422c-1.03.8-.67.481.032,1.427.624.751,1.735,2.26,1.735,2.26l-.331,2.007a33.653,33.653,0,0,0-3.858-4.65c-.877-.907-.827-.932.426-1.587.939-.52,1.7-1.152,2.638-1.706Zm14.332.2.008,0a38.9,38.9,0,0,1,1.8,3.54c-1.068.993-3.87,2.445-5.016,2.1-1.769-.565-2.047-2.458-.348-3.575a20.444,20.444,0,0,1,3.54-2.069.054.054,0,0,1,.02,0Zm10.776,1.09a1.383,1.383,0,1,1-1.381,1.381A1.378,1.378,0,0,1,2559.031,1245.941Zm-11.155.116a11.164,11.164,0,0,0-3.325,2.043c-.263.188-.055,1.136.2,1.461.324.419.923.35,1.639-.049.3-.168.843-.441,1.2-.608,1.01-.468,1.432-.816,1.4-1.206C2548.825,1247.173,2548.412,1246.019,2547.876,1246.057Zm-26.436.5c.283,1.458-.593,4.019-1.089,5.462-2.942,3.86-7.208,5.833-11.264,7.181a5.7,5.7,0,0,1-2.111.148A99.5,99.5,0,0,1,2521.44,1246.56Zm26.511.1a.624.624,0,0,1,.515.774c-.633.344-.984.052-.9.533,0,0,.063.749-.864.767a.811.811,0,0,0-.809.112c-.648.269-1.214-.3-.51-.623.191-.088.661-.236.791-.527.067-.361.365-.649.691-.449.174.013.56.041.685-.235-.048-.31.172-.337.328-.349a.472.472,0,0,1,.075,0Zm-38.03.648c-.158-.013-.276,0-.312.051-.273.257-.708,4.28-.424,4.569.394.4,1.481.514,1.585.035a37.245,37.245,0,0,0,.419-4.088c.03-.243-.794-.527-1.268-.567Zm.438.436c.14.032.257.225.344.56a11.916,11.916,0,0,1-.347,2.808c-.159.6-.62.462-.794-.089a5.524,5.524,0,0,1,.313-2.866C2510.057,1247.84,2510.22,1247.71,2510.359,1247.741Zm25.982.011.96,1.2c-2.035,19.384-15.838,36.154-30.577,42.8l-.044-1.285c16.861-8.883,27.008-23.671,29.661-42.713Zm66.706.081,1.827,2.522-2.618.081Zm-78.394.82c.9,0,5.706,2.965,5.064,4.441-.51,1.175-4.53,1.27-6.372,1.1l.276-1.131a7.854,7.854,0,0,0,2.7-.031c2.249-.151,2.083-.926-.494-2.562-1.109-.7-1.365-.868-1.365-.868l.188-.954Zm13.308,1.589a68.6,68.6,0,0,1,4.22,8.528c-18.157,17.184-16.747,40.587-5.3,55.947l-4.933,6.678a56.774,56.774,0,0,1-17.047-33.386c14.4-10.39,21.161-25.894,23.06-37.767Zm67.422.762,1.085,2.079-2.6-.043Zm-11.242,1.041a1.522,1.522,0,1,1-1.521,1.525A1.522,1.522,0,0,1,2594.141,1252.045Zm-42.246.41.518,1.182c.024.147-3.675,1.318-4.865,2.823a3.257,3.257,0,0,0-.377,3.842c1.054,1.426,1.8,1.626,3.579,1.079a23.258,23.258,0,0,0,3.954-1.784l.227.595c0-.031-2.065,1.218-3.642,2.109a3.826,3.826,0,0,1-1.92.461,4.261,4.261,0,0,1-2.529-7.471,21.285,21.285,0,0,1,3.13-1.845C2550.791,1253.021,2551.9,1252.455,2551.9,1252.455Zm47.483.733c11.842,17.132,3.736,35.905-3.91,42.547l-.205-2.016a32.388,32.388,0,0,0,3.031-39.523l1.084-1.008Zm7.621.77.931,2.116-2.75-.292Zm-47.73.691a1.383,1.383,0,1,1-1.378,1.386A1.383,1.383,0,0,1,2559.269,1254.649Zm38.7.272c10.379,15.124,4.592,39.24-15.207,46.586l-.1-1.691c20.187-8.464,22.17-31,14.059-43.716l1.249-1.179Zm-44.991.092,1.311,3.551a9.994,9.994,0,0,1-4.145,1.748c-1.457.334-2.593-2.192-1.474-3.16A11.8,11.8,0,0,1,2552.975,1255.013Zm-33.662.012c.244-.012-.014.595-.64,2.116-1.381,3.353-1.474,3.424-4.95,3.977a17.113,17.113,0,0,1-4.442.235c-1.94-.187-2.77-.737-1.513-1a31.3,31.3,0,0,0,10.294-4.53A4.952,4.952,0,0,1,2519.313,1255.025Zm65.97.413a1.712,1.712,0,1,1-1.705,1.713A1.711,1.711,0,0,1,2585.283,1255.438Zm-51.6.474-.146,1.318s-2.106,1.116-3.1,1.537c-.762.309-.814.378-.57,1.086a26.406,26.406,0,0,0,1.443,3.168l-.879,2a23.913,23.913,0,0,0-2.091-5.373c-.936-1.31-1.111-1.473.346-1.747A29.769,29.769,0,0,0,2533.687,1255.912Zm18.8.428c-1.03.045-3.181.914-3.394,1.744-.121.469.013,1.126.408,1.273a4.338,4.338,0,0,0,3.788-1.292c.177-.249-.092-.765-.281-1.087C2552.866,1256.732,2552.894,1256.323,2552.49,1256.34Zm.053.708a.258.258,0,0,1,.055,0c.174-.016.809.791.1.723a.8.8,0,0,0-.671.279c-.025.387-.579.534-.845.4a.426.426,0,0,0-.5.224c-.4.29-.907.276-.971.07-.136-.144.268-.737.62-.715a1.618,1.618,0,0,0,.559-.368c.112-.4.538-.334.806-.313.3.123.582-.275.856-.3Zm55.759.062.762,2.119-2.721-.243Zm-12.6.466a1.316,1.316,0,0,1,.916,1.976,1.857,1.857,0,0,1-1.9.689,2.021,2.021,0,0,1,.315,2.626c-1,1.017-2.915-.543-2.773-.686Zm-73.9.776s4.188,3.618,4.218,5.239a.832.832,0,0,1-.679.982c-1.645.547-6.224-.859-6.224-.859l.589-1.12c.721.2,4.269,1.12,4.574.667.316-.471-2.964-3.681-2.971-3.684Zm20.785,1.512.5,1.75-1.712-.427Zm66.876.313.447,2.418-2.742-.642Zm-52.276.039.408,1.419c-18.19,8.461-23.5,27.891-14.016,43.925l-1.072,1.479C2529.806,1286.4,2542.667,1265.455,2557.184,1260.216Zm-41.423,1.429c.36.005.429.2.428.413a16.271,16.271,0,0,1-2.433,3.171c-1.29.523-6.267-1.563-7.01-3.178-.147-.472.344-.265,1.446-.04,2.793.8,5.623-.3,7.569-.366Zm48.464.028a1.383,1.383,0,1,1-1.378,1.381A1.378,1.378,0,0,1,2564.225,1261.673Zm-23.43.029.247,2.154-2.113-.123Zm-33.871,1.674a11.813,11.813,0,0,0,5.224,2.64c1.123.248.8.364-.244,1.443-.975,1.021-.894,1.151-1.886.647-1.656-.842-3.457-2.756-3.384-3.8C2506.664,1263.876,2506.74,1263.374,2506.924,1263.376Zm103.324.234.343,2.3-2.593-.9Zm-72.029.827.845,2.057-2.3-.065,1.454-1.992Zm56.906.491a1.4,1.4,0,0,1,1.511,1.474,7.416,7.416,0,0,1-.07.773c1.352-.863,3.147-.154,3.094,1.241-.076,1.966-1.033,1.984-2.6,1.723.858,1.426-.16,2.8-1.772,2.274-1.47-.479-1.186-2.033-.5-2.955a3.578,3.578,0,0,0-.39,6.983c-.8-1.249-1-2.741.741-2.992,1.622-.233,2.309,1,1.608,2.484,1.524-.531,2.959.346,2.5,1.834-.554,1.8-2.147,1.673-3.087.579a1.572,1.572,0,0,1-2.065,2.17c-1.857-.995-.938-2.77.306-3.243-4.783-.494-5.893,6.141-2.367,7.088-.906-.57-1.008-3.182,1.059-2.824,2.03.41,1.546,2.3.244,3.16,1.571-.336,3.043,1.041,2.087,2.433-1.128,1.641-2.683.472-3.26-.645.182,1.5-.768,2.452-1.99,1.89-2.1-.964-.548-3.38,1.092-3.226-3.328-1.972-7.853,2.166-5.187,5.592-.1-1.556.669-2.834,1.735-2.657a1.76,1.76,0,0,1,1.494,2.021,2.535,2.535,0,0,1-1.918,1.443c2.545.283,2.762,2.089,1.707,2.979-1.791,1.512-2.622-.233-3.037-1.253-.364,2.536-3.346,1.673-3.449-.158-.1-2.008,2.208-1.966,2.635-1.853a6.859,6.859,0,0,0-3.752-2.157l.012-1.164a18.328,18.328,0,0,0,7.952-21.443l.466-.538c1.262.968,2.53,3.043,4.866,2.282a8.455,8.455,0,0,1-.813-.648c-1.2-1.189-.526-2.589,1.147-2.667Zm-51.032,1.47.8,1.181c-11.745,13.8-9.6,29.59-2.85,40.043l-.983,1.192c-5.977-7.686-10.858-26.322,3.031-42.416Zm-37.223.171a20.577,20.577,0,0,1,2.523,2.151c.7.568.69.67.112,1.211-1.3,1.258-2.031-.565-2.452-1.309-.515-1-.567-2.015-.183-2.053Zm45.8.08a1.639,1.639,0,0,1,1.426,1.656,4.279,4.279,0,0,0,.007.555,5.167,5.167,0,0,0,.458-.692c1-1.682,3.161-.714,2.806,1.217-.166.906-1.688,1.259-2.1,1,.394,1.079,1.462,1.332,2.762,1.8.455.088,1.234.311,1.234.311l.031.73c-7.045,4.452-11.033,12-8.45,22.322l-.779,1.057c-1.421-3.429-2.717-3.354-5.053-3.488a5.94,5.94,0,0,1,.915.807c.708.84.393,2.3-.588,2.456-2.271.353-2.293-1.261-1.993-2.356,0,0-.407.343-.606.472a1.39,1.39,0,0,1-2.128-1.187c-.1-1.1.274-1.806,1.4-1.942a4.326,4.326,0,0,1,.961.05s-.224-.431-.347-.673c-.538-1.06.643-1.967,1.728-1.738,1.712.414,1.577,1.9.586,3.061,2.655.2,4.048-1.542,3.852-3.271a3.617,3.617,0,0,0-3.3-3.617s.337.53.481.787a1.457,1.457,0,0,1-1.358,2.113,1.5,1.5,0,0,1-1.446-2.113c.108-.255.541-.574.475-.6-.045-.02-.639.164-.8.19a1.527,1.527,0,0,1-1.693-2.225,1.943,1.943,0,0,1,2.546-.674c.143.053.316.253.344.209a3.99,3.99,0,0,0-.128-.525c-.284-1.118.25-1.716,1.457-1.638,1.69.109,2.32,1.491,1.184,2.737-.293.321-.742.8-.742.8.056.245,2.409.422,3.612-.84,1.392-1.461,1.611-4.509.213-5.5l-.695-.491c.666,1.34-.56,2.881-1.642,2.593-2.163-.523-1.976-2.3-.553-2.859a5.323,5.323,0,0,1-1.858-1.124,1.456,1.456,0,0,1,.315-2.161,1.951,1.951,0,0,1,2.758.637c.367-1.124.886-1.883,2.419-1.272,1.071.513,1.062,1.948-.118,2.729a5.909,5.909,0,0,1-1.051.483,5.159,5.159,0,0,0,2.249.594,3.7,3.7,0,0,0,3.306-4.94,5.29,5.29,0,0,0-.682-1,3.951,3.951,0,0,1-.2,1.041,1.607,1.607,0,0,1-2.563.415,1.329,1.329,0,0,1,.046-2,3.552,3.552,0,0,1,1.319-.77c-.634-.215-1.34-.37-1.648-1.028a1.469,1.469,0,0,1,.674-1.878,1.7,1.7,0,0,1,.96-.21Zm58.182.268.161,2.434-2.7-1.041Zm-74.509.143.973,2.213-2.511-.011,1.538-2.2Zm52.466,0c2.36,8.748-.959,15.028-7.255,19.947l-.7-.916c4.921-4.194,8.6-9.137,6.977-17.943Zm-72.347.03s3.646,4.735,2.919,6.338c-.966,1.528-6.716-1.762-6.64-1.936l.721-.695c.913.372,3.755,1.944,4.384,1.7.22-1.432-1.457-3.285-2.088-4.518Zm43.42.009,27.681.511-.828,1.462-2.157.012-4.277,7.583-19.894,0-.525-9.564Zm-31.068.762-.957,1.736c-.9.276-3.6.325-3.817.505a27.2,27.2,0,0,1,.685,3.5l-1.065,1.367c-.285-1.681-.759-3.807-1.178-5.365-.359-1.323-.258-1.032,2.549-1.25a25,25,0,0,0,3.783-.5Zm5.677,2.093,1.139,2.027-2.307.024Zm-27.719.136c.125-.052.84.751.963.983-.053.527-.867.814-.993.626a6.39,6.39,0,0,1,.014-1.586C2506.764,1270.1,2506.768,1270.1,2506.777,1270.093Zm104.418.028-.023,2.537-2.742-1.219Zm21.773.572-.038,1.644c-9.944,4.871-24.778,17.95-29.009,41.409l-.867-.958a61.779,61.779,0,0,1,29.914-42.095Zm-100.028,2.262,1.236,1.869-2.232.244Zm78.31.717-.219,2.247-2.7-1.5Zm-51.949.468c.011.533.056.918.089,1.451-6.128,3.978-8.2,10.24-7.178,18.12l-.848,1.257A18.305,18.305,0,0,1,2559.3,1274.14Zm-50.161.308s2.334,5.272,1.412,6.514c-.9.734-2.966-.487-3.906-.985l-.026-1.26s.717.368,1.438.657c1.484.66,1.487-.126.675-2.328-.286-.774-.569-1.671-.569-1.671Zm121.205.156a19.43,19.43,0,0,0,2.649.966l-.022,1.495-4.17-1.5,1.543-.96Zm-98.86,1.629,1.6,1.675-2.225.511Zm96.859.188a2.419,2.419,0,0,1,.471.013,15.411,15.411,0,0,1,4.137,1.153l-.017,1.658a36.135,36.135,0,0,0-4.454-1.39c-1.156-.16-1.088.489-1.094,2.127a14.386,14.386,0,0,0,1.6,6.441c.876,1.837.419,2.328-1.011,1.508-2.575-1.772-8.061-3.108-8.906-2.077-.868,1.06.842,6.34,2.82,8.859.8,1.023.854,1.187.479,1.586-.3.323-.8.343-1.663.066-2.852-.911-6.98-1.116-8.169-.345s1.891,6.054,4.47,7.761c1.672,1.2,1.35,1.792-1.353,1.853-4.415.021-7.811,1.009-7.622,2.217.32,2.055,3.178,4.872,6.46,6.368,2.008.822,1.168,1.149-.167,1.625a43.589,43.589,0,0,0-6.478,3.1l-1.01-1.3s2.114-1.348,4.412-2.643c.539-.3.511-.414-.244-1.049-2.448-2.059-4.245-4.356-4.62-5.9-.365-1.5.382-2.452,2.607-3.3a18.107,18.107,0,0,1,3.093-.951c1.748-.393,1.777-.448,1.03-1.8-.335-.6-.883-1.6-1.218-2.218-2.6-4.466-1.231-6.077,4.813-6.169,1.484-.078,1.767-.083,1.686-.6-.322-2.1-1.25-4.52-1.119-6.3.277-2.689,3.035-3.339,7.88-2.126,1.122.281,1.2.223,1-.686-.879-3.838-.075-7.323,2.18-7.486Zm-17.31.3-.424,2.607-2.581-1.722Zm-96.5.616,7.117.467-1.131,1.331-4.3-.081-.162,3.683-1.376,1.184Zm46.122.282h5.859l-.047,6.213h-5.84l.028-6.213Zm6.981,0h5.453v6.213l-5.407.058-.046-6.271Zm6.53,0h5.846l-.053,6.213h-5.79l0-6.213Zm51.065.495a37.479,37.479,0,0,0,.331,5.726c-.094.369-.35.316-1.881-.031a22.44,22.44,0,0,0-4.005-.462l1.233-1.31c1.008.12,1.8.111,2.848.241-.015-1.046.029-3.043.029-3.043l1.445-1.121Zm-94.68,1.23,1.636,1.652-2.094.537Zm79.912.538-.651,2.658-2.37-2.136Zm19.16.073a4.528,4.528,0,0,1,3.269,1.338l.009,1.358-2.328-1.052a13.541,13.541,0,0,0,1.339,4.341l-1.108.522a9.389,9.389,0,0,1-1.679-4.752c.012-.641-.077-1.725.5-1.755Zm-99.871,2.682,1.945,1.159-2.156.874Zm79.966.595-.952,2.735-2.079-2.367Zm-103.087.871,5.245,1.783-.933.994-4.358-1.381Zm73.594.723.432,9.692-27.717-.23.965-1.369,1.8-.016,4.745-8.022Zm-50.842.754,2.06,1.459-2.141.948Zm103.635.856.005,1.585c-6.692,4.959-13.928,13.506-15.159,28.617l-1.8,1.548c.881-14.755,7.007-24.927,16.959-31.75Zm-24.413.058-.973,2.46-1.925-2.29Zm7.973.453a38.57,38.57,0,0,0,1.14,6,23.015,23.015,0,0,0-5.563.435l.927-1.66s.857-.09,1.608-.24c1.551-.309,1.39-.121,1.03-1.474a11.94,11.94,0,0,1-.357-1.537A13.7,13.7,0,0,1,2616.582,1286.946Zm5.11.309c1.818.014,4.548,1.65,5.773,2.583l-.645.724c-.182.06-2.734-1.31-4.74-1.632a24.8,24.8,0,0,0,2.422,4.34l-.937.929c-.282-.063-3.919-5.451-2.956-6.667A1.872,1.872,0,0,1,2621.692,1287.255Zm-107.4,1.26c2.394,14.55,8.117,24.54,17.144,33.53l-.918,1.2a56.137,56.137,0,0,1-17.92-33.8l1.694-.936Zm14.933.611,1.951,1.069-2,1.172Zm103.768.044-.013,2.133-1.222-1.235a7.429,7.429,0,0,1,1.235-.9Zm-25.727.436-1.33,2.45-1.737-2.32Zm23.834,1.057c1.77.247,2.338,3.793,1.75,4.483a23.586,23.586,0,0,0-3.816-2.588A7.641,7.641,0,0,1,2631.1,1290.663Zm-28.451,1.82,2.832.27-1.5,2.343Zm-73.4,0,2.206,1.08-2,1.414Zm99.6,1.041a2.813,2.813,0,0,1,1.3.445c2,1.114,3.041,2.335,2.93,3.419-.05.5-.328.6-.651.237a9.6,9.6,0,0,0-4.235-1.834c-1.281-.252-1.4-.361-1.014-.955C2627.769,1293.936,2628.248,1293.522,2628.86,1293.526Zm-34.114,1.028a64.809,64.809,0,0,0,15.227,27.991l-1.4,1.2c-5.14-5.914-10.793-12.835-15.409-27.8Zm6.122.623,2.834.43-1.659,2.12Zm-39.959.125c.329.011-.974,4.969-5.476,5.311-2.85.474-3.17.955-3.213,5.4-.058,6.031-1.029,7.443-5.944,7.815-3.255.247-3.683.911-3.132,5.6.524,4.461-1.156,6.736-5.3,6.732-3.591.3-5.076,1.978-5.072,5.315,0,1.352.023,1.679.023,1.679l-2.321.182a28.946,28.946,0,0,1,.18-3.265c.708-4.317,2.553-6.047,6.438-6.027,3-.23,3.471-.718,3.367-5.285-.116-4.645-.178-4.614,1.03-5.831a4.706,4.706,0,0,1,3.244-1.284c4.912-.464,5.3-.793,5.287-5.845-.456-4.2.7-6.767,3.36-6.979,5.379-.427,5.251-3.356,5.014-3.478l2.5-.039.015,0Zm11,0c3.155,17.066,13.136,33.046,18.614,38.945l-1.069.568c-7.985-9.947-15.241-21.368-18.83-39.487l1.285-.027Zm-5.7.006,2.5.028-28.747,40.578-1.515-1.145,27.765-39.461Zm3.488.028c2.7,9.837,4.825,19.456,13.317,32.324l-36.023-.237Zm9.946.039c.21-.1,1.057,4.977-.205,7.32-1.134,3.171-.579,4.956,1.888,6.112,4.236,1.984,5.3,3.964,4.766,8.836-.376,3.41.653,5.059,3.845,6.155,3.808,1.307,5.473,3.361,5.453,6.727a4.321,4.321,0,0,1-.2,1.107l-2.126,1.253s.026-.458.108-1.005c.553-3.732-.151-4.744-4.543-6.5-4.148-1.662-5.176-3.585-4.47-8.376a7.117,7.117,0,0,0-.733-4.333c-1.086-1.939-3.486-1.921-5.211-3.691-1.426-1.517-1.585-3.635-.37-7.261.753-2.247.867-3.1.281-4.971-.385-1.233-.536-1.343-.536-1.343Zm-50.031.541,2.444.678-1.84,1.915Zm97.053.508a9.218,9.218,0,0,1,3.789.935c3.047,1.522,3.6,2.771.931,2.1a12.747,12.747,0,0,0-5.76.224c-2.207.548-2.159.571-1.4-.767C2625.191,1297.22,2625.441,1296.458,2626.668,1296.424Zm-10.991.638a15.132,15.132,0,0,1,5.461,1.16l-.554.956a14.483,14.483,0,0,0-4.329-.65,14.985,14.985,0,0,0,2.856,3.481l-.449.96c-.108.13-3.512-2.719-4.2-4.634C2614.159,1297.47,2614.438,1297.093,2615.677,1297.062Zm-40.042.221a1.658,1.658,0,1,1-1.65,1.656A1.653,1.653,0,0,1,2575.635,1297.283Zm34.2.05s2.691,5.339,2.52,5.543c-1.668.737-3.489,1.118-5.321,1.789l.351-1.552a12.112,12.112,0,0,0,2.659-.826c.982-.375-1.07-3.112-1.07-3.112Zm-10.933.4,2.789.5-1.86,2.09Zm-52.156.02c.66-.053,1.679,1.23,1.676,1.233l-3.381,4.684a1.456,1.456,0,0,1,.208-2.844c.341,0,.962.061.962.061a2.59,2.59,0,0,1-.715-.6C2544.507,1299.094,2545.442,1297.856,2546.744,1297.752Zm44.473,1.159c3.927.033,3.976,4.866,3.224,6.464-.547,1.1-1.378,1.7-3.892,2.844a7.959,7.959,0,0,1-2.422.921l-.52-1.165s1.269-.561,2.635-1.115c2.823-1.143,3.509-2.017,3.2-4.065-.438-2.9-2.672-3.351-6.993-1.408-.5.226-1.134.452-1.134.452l-.3-.584a29.4,29.4,0,0,1,5.362-2.283A5.554,5.554,0,0,1,2591.217,1298.911Zm-60.731.525,2.222.736-1.62,1.6Zm98.964.624c1.964-.006,3.581.326,3.577,1.028,0,.333-.078.363-1.841.608-2.68.373-7.159,2.666-9.678,4.795-1.492,1.261-1.1.968-.477-.86s1.558-3.989,2.063-4.32C2624.357,1300.484,2627.225,1300.066,2629.45,1300.06Zm-32.1.251,1.89.414-1.229,1.2Zm-6.332,1.03c.677-.01,1.009.309,1.275.958.575,1.4.008,2.229-2.182,3.17a13.2,13.2,0,0,1-2.966,1.271l-1.377-3.7s.435-.16,1.868-.755A10.1,10.1,0,0,1,2591.017,1301.341Zm-6.387.449a82.025,82.025,0,0,0,15.381,27.133l-1.369.859a79.053,79.053,0,0,1-15.533-27.8Zm48.308.384c.19.02.285.09.252.225,0,.52-7.865,7.994-12.361,11.8-2.048,1.733-1.978,1.719-2.153,1.505a21.62,21.62,0,0,1,1.289-6.688,24.645,24.645,0,0,1,12.143-6.759A3.116,3.116,0,0,1,2632.938,1302.174Zm-42.246.057a9.228,9.228,0,0,0-2.383.746c-1.541.6-1.674,1.316-.983,2.208.3.389.612.3,2.094-.285,1.512-.6,2.165-.869,2.256-1.409C2591.808,1302.7,2591.373,1302.211,2590.692,1302.231Zm.14.417a.557.557,0,0,1,.524.569c0,.241-.35.474-.71.472a1,1,0,0,0-.636.274c-.194.283-.321.555-.671.488a1.067,1.067,0,0,0-.729.077c-.69.6-1.377.1-1.058-.5a.7.7,0,0,1,.588-.229c.2,0,.643-.045.708-.287.078-.289.519-.368.827-.358a.728.728,0,0,0,.689-.264.811.811,0,0,1,.409-.237c.019,0,.04,0,.059,0Zm-35.553.1a1.658,1.658,0,1,1-1.65,1.656A1.656,1.656,0,0,1,2555.279,1302.745Zm-23.9.034,2.5.341-1.577,2.028Zm49.966,1.278a1.657,1.657,0,1,1-1.651,1.656A1.653,1.653,0,0,1,2581.35,1304.057Zm-48.847,1.872,2.716.174-1.555,2.085Zm14.337.4a1.656,1.656,0,1,1-1.652,1.655A1.651,1.651,0,0,1,2546.84,1306.327Zm67.835,1.034c1.133-.019,2.446.1,2.446.1l-.319,1.273c-1.38.133-3.153-.252-4.634.37.55.9,3.773,2.178,4.129,2.5a10.634,10.634,0,0,1-.265,1.35c.086.31-5.455-2.256-5.638-4.421C2610.4,1307.79,2612.788,1307.391,2614.675,1307.361Zm-19.058,1.323c3.149.029,4.7,4.438,3.48,6.39a9.1,9.1,0,0,1-3.02,2.851c-.694.443-2.531,1.346-2.531,1.346l-.825-1.279a15.052,15.052,0,0,0,1.423-.674c1.735-.982,5.253-3.077,3.552-5.927-.955-1.543-2.384-1.844-5.352-.332a16.278,16.278,0,0,1-2.721,1.234l-.562-1.022C2589.208,1311.355,2593.485,1308.774,2595.617,1308.684Zm10.144.165a18.719,18.719,0,0,0,4.779,5.652s-2.562,1.65-4.093,2.7l-.9-1.06,2.2-1.892-2.475-3.463Zm-71.614.294,2.472.005-1.057,2.235-1.415-2.24Zm95.737.41a39.728,39.728,0,0,0-.44,4.653,2.119,2.119,0,0,0,1.456.717,11.7,11.7,0,0,0,.593-5A2.915,2.915,0,0,0,2629.884,1309.553Zm.745.433a.309.309,0,0,1,.206.013c.308.15.282.372.289.65a7.941,7.941,0,0,1-.282,3.053c-.23.521-.757.325-.775-.384-.025-.959.17-1.764.225-2.638C2630.316,1310.306,2630.443,1310.045,2630.629,1309.986Zm-35.2,1.316c1.624.121,2.249,1.483,1.65,2.46-1.467,1.88-2.967,2.221-4.891,3.309l-1.92-3.6S2594.006,1311.352,2595.429,1311.3Zm-.045.8a7.734,7.734,0,0,0-2.653,1.1c-1.106.543-1.465,1.383-.715,2.145.827.924,3.713-1.279,4.19-1.811a.821.821,0,0,0-.168-1.2A1.041,1.041,0,0,0,2595.384,1312.106Zm-59.21.153,2.419.026-1.308,1.853Zm59.157.285a.55.55,0,0,1,.274.093.512.512,0,0,1-.2.966c-.294.076-.8.079-.811.471-.008.293-.454.4-.708.36s-.7-.065-.785.262c-.222.444-.389.452-.7.142-.335-.339-.178-.767.475-.839a.815.815,0,0,0,.62-.449c-.015-.277.179-.439.486-.375a1.194,1.194,0,0,0,1.027-.572A.65.65,0,0,1,2595.331,1312.544Zm-13.875.142a1.657,1.657,0,1,1-1.65,1.654A1.651,1.651,0,0,1,2581.456,1312.686Zm-35.256,3.046a1.657,1.657,0,1,1-1.652,1.66A1.659,1.659,0,0,1,2546.2,1315.732Zm69.535,1.4.012,1.246c.042.056-2.571,1.212-4.1,1.908-.5.271-.3.8-.272,1.343l-.736.5s-1.02-.745-1.153-1.223c-.374-1.51,4.42-3.318,6.25-3.774Zm-109.042.067,18.911,12.971-1.293,1.892-17.564-11.98-.054-2.883Zm94.946.422c1.23,0,2.179.711,3.1,2.143,1.823,2.843.909,5.085-2.865,7.377-1.753,1.064-1.766,1.077-1.766,1.077l-.892-1.1s1.278-.754,1.806-1.087c3.1-1.966,3.975-3.705,2.611-5.663-1.314-1.888-2.7-1.738-6.527.707a13,13,0,0,1-1.7.882l-.84-1.145s2.169-1.118,2.908-1.59A8.279,8.279,0,0,1,2601.639,1317.624Zm-13.206.851a1.658,1.658,0,1,1-1.651,1.656A1.656,1.656,0,0,1,2588.433,1318.475Zm-51.23.464a1.656,1.656,0,1,1-1.652,1.657A1.653,1.653,0,0,1,2537.2,1318.939Zm64.366,1.323a1.421,1.421,0,0,1,1.353,1.013c.657,1.6-.235,2.789-3.466,4.6-.271.152-.845.463-.845.463l-2.38-3.3s.838-.578,1.628-1.052C2599.629,1320.834,2600.763,1320.291,2601.569,1320.262Zm-.317.789a1.157,1.157,0,0,0-.531.182,9.34,9.34,0,0,0-2.87,1.868c-.382.532-.209,1.06.516,1.741.615.408,3.786-1.934,3.865-2.615C2601.964,1321.507,2601.709,1321.038,2601.252,1321.051Zm-94.424.179.528.355-.528.418Zm94.455.4a.679.679,0,0,1,.474.179.54.54,0,0,1-.4.859.814.814,0,0,0-.741.483.852.852,0,0,1-.778.444.46.46,0,0,0-.616.318.6.6,0,0,1-.955.073c-.225-.24.178-.931.444-.921.048.023.339.088.693-.386a.778.778,0,0,1,.762-.544c.294.1.467-.225.585-.407A1.1,1.1,0,0,1,2601.283,1321.627Zm-93.2.43.76.515-2.017,1.435v-1.156Zm1.473.967,1.034.693-3.764,2.7v-1.467Zm1.929,1.234,1.091.724-5.75,3.9v-1.5Zm2.071,1.053v1.253l-6.73,4.713v-1.271Zm.76.9,1.45.994.363,42.477-9.068,6.249.008-1.857,7.614-5.52-.367-42.343Zm109.387,1.148c-2.033,2.329-4.762,2.485-7.14,2.422-6.41.09-10.389.434-11.213,8.1,2.612-1.958,5.379-2.212,8.585-2.119,4.061-.006,5.887-.273,7.537-1.1,2.651-1.326,4.329-3.7,4.008-5.368C2625.168,1328.936,2624.344,1327.449,2623.705,1327.36Zm-110.147.373v1.469l-6.73,4.523v-1.493Zm76.85.135a1.656,1.656,0,1,1-1.65,1.657A1.657,1.657,0,0,1,2590.408,1327.868Zm-43.935.17c11.892.371,37.146.228,37.146.228l1.347,1.946-39.708-.417Zm77.5.07c.364-.024.413.467-.339,1.207-1.423,1.4-2.9,2.084-7.575,2-4.941-.088-6.867.694-8.146,2.9-.371.641-.364.891.174.406.452-.538,1.478-1.576,1.9-.593.839-.551,1.566-1.39,2.005-.329.243-.055,1.666-1.486,2-.218.68-.763,1.264-1,1.583.081.967-.46,1.481-1.332,2.03-.128.78-.56,1.37-1.259,1.824-.193.665-.2,1.342-1.419,1.726-.445a8.564,8.564,0,0,0,3.154-2.859c.558-1.265,1.071-.426.437.866-1.629,3.164-4.414,4.32-10.807,4.329-3.881,0-5.487.386-6.706,1.1-1.957,1.145-.9-1.737.47-3.486,1.728-2.2,3.7-2.854,9.1-2.657,2.951.017,4.837-.392,5.635-1.038A3.689,3.689,0,0,1,2623.977,1328.108Zm-87.711.67a1.659,1.659,0,1,1-1.652,1.66A1.66,1.66,0,0,1,2536.266,1328.778Zm-22.708,1.228v1.495l-6.73,4.606v-1.527Zm32.541.717h5.222v5.528H2546.1Zm11.7,0h5.619v5.528H2557.8Zm12.508.178h5.422v5.35h-5.422Zm11.748.107,3.609.125s2,2.558,2.851,3.737l-2.669,1.373-3.791.008v-5.242Zm-33.448.376a1.844,1.844,0,1,0,1.84,1.842A1.84,1.84,0,0,0,2548.609,1331.384Zm12.008.182a1.844,1.844,0,1,0,1.84,1.842A1.84,1.84,0,0,0,2560.617,1331.566Zm12.282.049a1.844,1.844,0,1,0,1.839,1.84A1.839,1.839,0,0,0,2572.9,1331.615Zm-29.311.374a1.427,1.427,0,0,1-1.581,2.375Zm5.021.018a1.221,1.221,0,1,1-1.218,1.219A1.22,1.22,0,0,1,2548.609,1332.007Zm30.293.047a1.481,1.481,0,1,1-1.473,1.482A1.48,1.48,0,0,1,2578.9,1332.054Zm6.221,0a1.844,1.844,0,1,0,1.841,1.842A1.84,1.84,0,0,0,2585.123,1332.057Zm-30.554.055a1.482,1.482,0,1,1-1.474,1.482A1.479,1.479,0,0,1,2554.569,1332.112Zm6.048.078a1.22,1.22,0,1,1-1.218,1.218A1.219,1.219,0,0,1,2560.617,1332.19Zm-47.059.022v1.486l-6.73,4.716v-1.462Zm59.341.024a1.221,1.221,0,1,1-1.22,1.219A1.218,1.218,0,0,1,2572.9,1332.236Zm-6.157.155a1.481,1.481,0,1,1-1.478,1.482A1.48,1.48,0,0,1,2566.742,1332.391Zm18.381.29a1.22,1.22,0,1,1-1.219,1.218A1.218,1.218,0,0,1,2585.123,1332.681Zm-52.346,1.281a10.6,10.6,0,0,1,8.439,4.209c2.9,3.882,4.829,8.832,5.708,15.331.435,3.218,1.931,12.882,2.781,15.165l-1.169-.224c-.157.075-1.658-6.078-2.6-14.206a32.169,32.169,0,0,0-2.73-10.442c-1.99-4.049-5.369-8.341-9.875-8.682-2.628-.2-5.094,1.454-5.36,3.781a3.7,3.7,0,0,0,2.1,4.123c1.385.563,3.039.144,3.224-1.748a1.917,1.917,0,0,0-.115-.914,1.235,1.235,0,0,1,1.389.728c.136.017.006,2.744-2.133,3.28-2.58.848-5.559-1.713-5.79-4.324a6.029,6.029,0,0,1,3.595-5.652A7.928,7.928,0,0,1,2532.777,1333.962Zm-19.219.846v1.516l-6.73,4.658v-1.527Zm19.366.963c3.765-.108,7.43,4.1,8.982,6.875a33.173,33.173,0,0,1,3.345,11.816c.751,7.355,2.156,13.371,2.453,13.644l-1.027-.224c-.215.144-1.629-6.5-2.491-13.89a30.846,30.846,0,0,0-3.842-11.424c-1.684-2.923-3.954-5.106-6.642-5.423-1.684-.169-3.416.318-3.756,2.1a1.731,1.731,0,0,0,1.6,2.16c.291.021.57.044.622.053.654.117-.373,1.182-1.049,1.088a3.1,3.1,0,0,1-1.624-5.292A5.256,5.256,0,0,1,2532.924,1335.771Zm8.06,1.08,42.276.43s.036.759-2.595.634a13.377,13.377,0,0,0-5.166.684l-33.214-.073Zm-27.426.491v1.408l-6.73,4.724v-1.556Zm19.647.6a4.522,4.522,0,0,1,2.264.561c5.236,3.042,7.237,10.594,7.927,15.347.94,7.04,2.026,13.58,2.328,13.741l-1.142-.258a93.707,93.707,0,0,1-2.178-12.938c-.629-5.528-2.515-11.081-6.253-13.417-2.4-1.637-2.87-1.8-3.98-.846-.958.825-1.932-.417-1.13-1.428A3.216,3.216,0,0,1,2533.205,1337.938Zm-19.647,1.908V1341l-6.73,4.7v-1.37Zm30.77.029c.086-.08,3.638,5.967,4.76,15.5.591,5.019,2.281,13.576,2.553,13.645l-1.231-.131c-1.258-5.047-1.953-9.823-2.626-14.128-.76-4.87-1.371-9.2-4.4-14.845l.937-.031,0-.008Zm.806.052,1.1.015a46.13,46.13,0,0,1,4.571,14.759,72.858,72.858,0,0,0,2.922,14.856l-1.179-.326c-1.48-4.151-2.005-9.168-2.8-14.367-.88-5.748-2.26-10.753-4.613-14.937Zm6.785.008c1.923,5,3.174,7.379,4.053,13.528a89.73,89.73,0,0,0,3.837,17.064l-1.112-.049a67.559,67.559,0,0,1-3.438-15.823,48.24,48.24,0,0,0-4.22-14.7l.88-.019Zm-1.894.019c.1-.156,3.667,6.995,4.493,14.855a72.41,72.41,0,0,0,3.444,15.4l-1.137-.026c-1.314-1.524-2.3-8.746-3.382-15.488a50.672,50.672,0,0,0-4.4-14.731h.976a.021.021,0,0,1,0-.013Zm-2.873.008,1.01,0a47.748,47.748,0,0,1,4.555,14.844c1.03,7.085,2.018,13.477,3.112,15.142l-1.233-.081a75.7,75.7,0,0,1-3.075-15.317,44.206,44.206,0,0,0-4.369-14.592Zm5.576.046,1.2.019a44.792,44.792,0,0,1,4.392,15.153,73.042,73.042,0,0,0,3.286,15.532l-.96-.061a73.75,73.75,0,0,1-3.807-16.116,52.209,52.209,0,0,0-4.112-14.527Zm7.391.035a54.535,54.535,0,0,1,2.68,8.786l-.679,1.327a97.381,97.381,0,0,0-3.451-10.093Zm-5.474,0,1.462.035a68.609,68.609,0,0,1,4.155,14.1s.347,1.835.369,2.437c-.084,5.108.8,8.752,2.693,14.245l-.869-.062a69.493,69.493,0,0,1-3.354-15.25,44.522,44.522,0,0,0-4.456-15.506Zm3.376.046a113.65,113.65,0,0,1,3.675,10.975,4.091,4.091,0,0,1-.659,2.384c-1.22-4.422-2.249-9.018-4.134-13.352l1.118-.008Zm2.761.031,1.157.02,2.306,6.626-.9,1C2562.665,1345.578,2561.972,1343.166,2560.782,1340.124Zm6.754.047.845,1.993-.911.773a23.289,23.289,0,0,1-1.173-2.743Zm1.716,0,.424,1.148-.764.584-.593-1.709Zm-6.626.023,1.192.008c.481,1.392,1.762,4.8,1.762,4.8l-.856.9s-1.613-4.309-2.1-5.71Zm1.847,0,1.057.011c.318.9,1.308,3.409,1.308,3.409l-.73.695Zm5.527.047,1.045.049-.123.259-.652.326Zm-34.281,1.474c4.378,2.315,5.586,9.248,6.061,13.06a106.238,106.238,0,0,0,1.954,12.21l-.971-.156s-.718-3.418-1.215-6.67c-.413-2.705-.733-4.97-.845-6.007-.07-.648-.178-1.4-.239-1.675a18.51,18.51,0,0,0-1.6-5.021,11.052,11.052,0,0,0-2.283-3.421,8.412,8.412,0,0,1-1.118-1.3C2535.231,1342.24,2535.719,1341.715,2535.719,1341.715Zm-22.161.355v1.308l-6.73,4.767v-1.495Zm0,2.294v1.505l-6.73,4.453v-1.334Zm0,2.565v1.4l-6.73,4.705v-1.443Zm11.239,1.412h.594l.042.979-.917-.058.281-.921Zm-11.239,1.208v1.492l-6.73,4.457V1354.1Zm10.545.568,1.423.016-.016,1.025-1.828-.062.421-.979Zm-.825,1.644,2.336.042v.976l-2.9-.047.56-.971Zm-9.72.212v1.568l-6.73,4.488v-1.575Zm8.528,1.63,3.421.038-.02.816-4.084-.026Zm-8.528.909v1.532l-6.73,4.321v-1.378Zm7.1.728,4.7.065-.116.789-5.357-.024.775-.83Zm-7.1,1.667v1.473l-6.73,4.4v-1.417Zm5.339,0,6.181.142,1.3,1.189-9.623.058,2.138-1.389Zm-1.871,2.174,10.628.131.741.689-11.405.042.036-.862Zm-3.468.337v1.563l-6.73,4.421v-1.428Zm3.479,1.372,11.779.055-.853.948-10.942.031.016-1.033Zm-3.479,1.185v1.43l-6.73,4.582v-1.644Zm3.185.746,10.183.035-1.2.939-7.036.164-1.952-1.138Zm-3.185,1.767v1.367l-6.73,4.836v-1.532Zm6.164.175,5.978.026.112.806-5.141-.012Zm1.654,1.66,4.589.046.216,1.041-4.084-.054-.721-1.033Zm-7.818.727v1.269l-6.73,4.712v-1.4Zm12.724,1.041.053.99-2.737.1-.772-1.036,3.456-.058Zm-.023,1.757-.023,1.041-1.91.029-.428-1,2.361-.068Zm-1.7,1.852,1.5.011-.127.8-1.165.016-.213-.828Zm.452,1.923h.733l-.124.627h-.374Zm14.888,10.592-.351.452h10.521l.115-.452Zm13.565,0-.186.611h4.747l.133-.611Zm7.756.12-.146.577h12.137l-.2-.577Zm14.521,0,.247.7h4.085l-.271-.7Zm14.092,0-7.169,0,.258.782h7.414l-.5-.785Z"/>
              </g>
            </g>
          </g>
        </g>
      </g>
      <path id="path163-0-2-5-8-7-5-0-7-4" d="M2529.1,1220.771s-3.716-6.1-8.729-13.282c-3.354-4.8-6.035-10-6.285-14.484-.285-5.118,2.421-10.252,7.321-10.5s6.884,3.945,7.693,7.4c.809-3.458,2.8-7.652,7.694-7.4s7.606,5.382,7.32,10.5c-.249,4.48-2.93,9.681-6.284,14.484-5.013,7.177-8.73,13.282-8.73,13.282Z" fill="#d40000"/>
      <path id="path163-0-2-5-8-7-7-8-0-0-6" d="M2611.559,1340.724s-3.717,6.1-8.73,13.282c-3.353,4.8-6.035,10-6.284,14.484-.286,5.117,2.421,10.251,7.32,10.5s6.885-3.946,7.694-7.4c.809,3.458,2.8,7.653,7.694,7.4s7.606-5.383,7.32-10.5c-.249-4.48-2.931-9.681-6.284-14.484C2615.275,1346.828,2611.559,1340.724,2611.559,1340.724Z" fill="#d40000"/>
    </g>
  </g>
</svg>
