<svg xmlns="http://www.w3.org/2000/svg" xmlns:xlink="http://www.w3.org/1999/xlink" width="179.79" height="250.65" viewBox="0 0 179.79 250.65">
  <defs>
    <clipPath id="clip-js">
      <rect width="179.79" height="250.65"/>
    </clipPath>
  </defs>
  <g id="js" clip-path="url(#clip-js)">
    <g id="_10s" data-name="10s" transform="translate(-2268.855 -1436.871)">
      <g id="g8587-4-9">
        <rect id="rect7263-6-4" width="177.786" height="248.651" rx="8.504" transform="translate(2270.855 1437.871)" fill="#fff" stroke="#000" stroke-width="1.001"/>
        <path id="path7293-3-2" d="M2318.52,1463.943c-7.348,10.492-15.21,16.53-15.341,24.716-.044,2.65,1.388,7.156,5.871,8.018,2.908.557,6.913-1.8,7-6.589-.012-.953,1.009-.929,1,.378a27.2,27.2,0,0,1-3.338,11.755h9.625a27.2,27.2,0,0,1-3.338-11.755c-.009-1.307,1.012-1.331,1-.378.084,4.789,4.088,7.146,7,6.589,4.483-.862,5.914-5.368,5.87-8.018C2333.73,1480.473,2325.868,1474.435,2318.52,1463.943Z"/>
        <path id="path7295-4-8" d="M2284.568,1477.722c-3.433,4.372-7.107,6.887-7.168,10.3a3.31,3.31,0,0,0,2.743,3.341,2.848,2.848,0,0,0,3.269-2.745c-.008-.4.471-.387.466.157a10.421,10.421,0,0,1-1.559,4.9h4.5a10.423,10.423,0,0,1-1.56-4.9c-.008-.544.473-.555.467-.157a2.848,2.848,0,0,0,3.269,2.745,3.31,3.31,0,0,0,2.742-3.341c-.061-3.411-3.734-5.926-7.167-10.3Z"/>
        <path id="path7297-5-1" d="M2318.52,1607.707c-7.348-10.492-15.21-16.53-15.341-24.716-.044-2.65,1.388-7.155,5.871-8.018,2.908-.556,6.913,1.8,7,6.589-.012.954,1.009.929,1-.378a27.193,27.193,0,0,0-3.338-11.754h9.625a27.2,27.2,0,0,0-3.338,11.754c-.009,1.307,1.012,1.332,1,.378.084-4.788,4.088-7.145,7-6.589,4.483.863,5.914,5.368,5.87,8.018C2333.73,1591.177,2325.868,1597.215,2318.52,1607.707Z"/>
        <path id="path7299-3-5" d="M2434.929,1646.672c-3.433-4.372-7.106-6.888-7.167-10.3a3.309,3.309,0,0,1,2.742-3.34,2.848,2.848,0,0,1,3.269,2.745c-.008.4.471.387.467-.157a10.419,10.419,0,0,0-1.56-4.9h4.5a10.429,10.429,0,0,0-1.559,4.9c-.008.544.472.554.466.157a2.848,2.848,0,0,1,3.269-2.745,3.31,3.31,0,0,1,2.743,3.34c-.061,3.411-3.734,5.927-7.167,10.3Z"/>
        <path id="path7301-4-0" d="M2400.976,1463.943c-7.347,10.492-15.209,16.53-15.34,24.716-.044,2.65,1.387,7.156,5.87,8.018,2.909.557,6.914-1.8,7-6.589-.013-.953,1.008-.929,1,.378a27.2,27.2,0,0,1-3.338,11.755h9.625a27.2,27.2,0,0,1-3.338-11.755c-.009-1.307,1.012-1.331,1-.378.083,4.789,4.088,7.146,7,6.589,4.483-.862,5.914-5.368,5.87-8.018C2416.186,1480.473,2408.324,1474.435,2400.976,1463.943Z"/>
        <path id="path7303-7-8" d="M2318.52,1516.687c-7.348,10.492-15.21,16.529-15.341,24.715-.044,2.651,1.388,7.156,5.871,8.018,2.908.557,6.913-1.8,7-6.589-.012-.953,1.009-.928,1,.378a27.2,27.2,0,0,1-3.338,11.755h9.625a27.2,27.2,0,0,1-3.338-11.755c-.009-1.306,1.012-1.331,1-.378.084,4.789,4.088,7.146,7,6.589,4.483-.862,5.914-5.367,5.87-8.018C2333.73,1533.216,2325.868,1527.179,2318.52,1516.687Z"/>
        <path id="path7305-6-7" d="M2359.748,1497.947c-7.348,10.492-15.21,16.53-15.341,24.715-.043,2.651,1.388,7.156,5.871,8.018,2.909.557,6.913-1.8,7-6.589-.013-.953,1.008-.928,1,.378a27.2,27.2,0,0,1-3.338,11.755h9.626a27.2,27.2,0,0,1-3.338-11.755c-.01-1.306,1.011-1.331,1-.378.084,4.789,4.088,7.146,7,6.589,4.483-.862,5.914-5.367,5.871-8.018C2374.958,1514.476,2367.1,1508.439,2359.748,1497.947Z"/>
        <path id="path7309-8-5" d="M2400.976,1516.687c-7.347,10.492-15.209,16.529-15.34,24.715-.044,2.651,1.387,7.156,5.87,8.018,2.909.557,6.914-1.8,7-6.589-.013-.953,1.008-.928,1,.378a27.2,27.2,0,0,1-3.338,11.755h9.625a27.2,27.2,0,0,1-3.338-11.755c-.009-1.306,1.012-1.331,1-.378.083,4.789,4.088,7.146,7,6.589,4.483-.862,5.914-5.367,5.87-8.018C2416.186,1533.216,2408.324,1527.179,2400.976,1516.687Z"/>
        <path id="path7313-6-8" d="M2318.52,1660.45c-7.348-10.492-15.21-16.53-15.341-24.715-.044-2.651,1.388-7.156,5.871-8.019,2.908-.556,6.913,1.8,7,6.589-.012.954,1.009.929,1-.377a27.2,27.2,0,0,0-3.338-11.755h9.625a27.2,27.2,0,0,0-3.338,11.755c-.009,1.306,1.012,1.331,1,.377.084-4.788,4.088-7.145,7-6.588,4.483.862,5.914,5.367,5.87,8.018-.13,8.185-7.992,14.223-15.34,24.715Z"/>
        <path id="path7315-7-3" d="M2400.976,1660.45c-7.347-10.492-15.209-16.53-15.34-24.715-.044-2.651,1.387-7.156,5.87-8.019,2.909-.556,6.914,1.8,7,6.589-.013.954,1.008.929,1-.377a27.2,27.2,0,0,0-3.338-11.755h9.625a27.2,27.2,0,0,0-3.338,11.755c-.009,1.306,1.012,1.331,1,.377.083-4.788,4.088-7.145,7-6.588,4.483.862,5.914,5.367,5.87,8.018-.131,8.185-7.993,14.223-15.341,24.715Z"/>
        <path id="path7317-0-2" d="M2359.748,1626.447c-7.348-10.492-15.21-16.53-15.341-24.716-.043-2.65,1.388-7.155,5.871-8.018,2.909-.557,6.913,1.8,7,6.589-.013.954,1.008.929,1-.378a27.2,27.2,0,0,0-3.338-11.754h9.626a27.2,27.2,0,0,0-3.338,11.754c-.01,1.307,1.011,1.332,1,.378.084-4.789,4.088-7.146,7-6.589,4.483.863,5.914,5.368,5.871,8.018C2374.958,1609.917,2367.1,1615.955,2359.748,1626.447Z"/>
        <path id="path7319-5-6" d="M2400.976,1607.707c-7.347-10.492-15.209-16.53-15.34-24.716-.044-2.65,1.387-7.155,5.87-8.018,2.909-.556,6.914,1.8,7,6.589-.013.954,1.008.929,1-.378a27.2,27.2,0,0,0-3.338-11.754h9.625a27.193,27.193,0,0,0-3.338,11.754c-.009,1.307,1.012,1.332,1,.378.083-4.788,4.088-7.145,7-6.589,4.483.863,5.914,5.368,5.87,8.018C2416.186,1591.177,2408.324,1597.215,2400.976,1607.707Z"/>
        <path id="path31-5-4-7" d="M2276.587,1475.222v-26.315h2.548v26.315Z"/>
        <path id="path33-4-6-8" d="M2286.686,1448.906c-2.452,0-4.423,2.243-4.423,5.029v16.258c0,2.786,1.972,5.028,4.423,5.028h1.432c2.452,0,4.427-2.242,4.427-5.028v-16.258c0-2.786-1.976-5.029-4.427-5.029Zm.741,2.488a2.55,2.55,0,0,1,2.612,2.5v16.474a2.617,2.617,0,0,1-5.229,0V1453.9a2.555,2.555,0,0,1,2.617-2.5Z"/>
        <g id="g8583-6-9">
          <path id="path31-5-5-6-7" d="M2442.907,1649.172v26.315h-2.547v-26.315Z"/>
          <path id="path33-4-3-7-9" d="M2432.808,1675.487c2.453,0,4.424-2.242,4.424-5.028V1654.2c0-2.786-1.973-5.028-4.424-5.028h-1.431c-2.453,0-4.428,2.242-4.428,5.028v16.259c0,2.786,1.976,5.028,4.428,5.028Zm-.74-2.488a2.55,2.55,0,0,1-2.612-2.5v-16.473a2.616,2.616,0,0,1,5.228,0V1670.5a2.554,2.554,0,0,1-2.616,2.5Z"/>
        </g>
      </g>
    </g>
    <g id="js-2" data-name="js" transform="translate(-2480.438 -1436.871)">
      <rect id="rect7331-9-9" width="177.785" height="248.651" rx="8.504" transform="translate(2481.438 1437.871)" fill="#fff" stroke="#000" stroke-width="0.997"/>
      <path id="path7363-8-9" d="M2495.15,1477.722c-3.433,4.371-7.106,6.887-7.167,10.3a3.311,3.311,0,0,0,2.743,3.341,2.848,2.848,0,0,0,3.269-2.746c-.008-.4.471-.387.466.158a10.432,10.432,0,0,1-1.559,4.9h4.5a10.423,10.423,0,0,1-1.56-4.9c-.008-.545.473-.555.467-.158a2.848,2.848,0,0,0,3.269,2.746,3.313,3.313,0,0,0,2.743-3.341c-.062-3.411-3.735-5.927-7.168-10.3Z"/>
      <path id="path7367-3-1" d="M2645.512,1646.672c-3.433-4.372-7.107-6.888-7.168-10.3a3.311,3.311,0,0,1,2.743-3.341,2.848,2.848,0,0,1,3.269,2.745c-.008.4.471.387.467-.157a10.419,10.419,0,0,0-1.56-4.9h4.5a10.419,10.419,0,0,0-1.56,4.9c-.008.544.473.554.467.157a2.848,2.848,0,0,1,3.269-2.745,3.31,3.31,0,0,1,2.743,3.341c-.062,3.41-3.735,5.926-7.168,10.3Z"/>
      <path id="path35-7-9-2" d="M2495.064,1448.906v2.754h2.672s.065,2.656.088,8.288c.021,5.469.132,8.182-.216,9.74-.936,3.59-6.132,3.61-7.164,1.029a10.46,10.46,0,0,1-.468-4.181H2487.1s.017.761.021,1.692c.016,4.037,1.351,5.968,4.475,6.729,3.212.869,6.968-.456,8.3-3.205.795-1.566.7-1.673.723-11.144.012-6.318.108-8.948.108-8.948h2.46v-2.754Z"/>
      <path id="path35-7-8-1-4" d="M2645.6,1675.488v-2.755h-2.672s-.065-2.655-.088-8.288c-.021-5.469-.132-8.182.216-9.74.936-3.589,6.131-3.609,7.163-1.028a10.449,10.449,0,0,1,.468,4.181h2.873s-.017-.761-.021-1.693c-.017-4.037-1.352-5.967-4.476-6.729-3.212-.868-6.968.457-8.3,3.2-.8,1.566-.7,1.674-.724,11.145-.012,6.318-.107,8.947-.107,8.947h-2.46v2.755h8.131Z"/>
      <g id="g3851-4-2-7-4">
        <path id="path4037-8-0-2" d="M2505.024,1456.934v210.525h130.614V1456.934Zm41.492,1.156,59.169.216-9.172,14.022c-11.959-3.784-31.362-1.329-41.362.583-2.63-4.388-6.443-9.9-8.635-14.821Zm-39.774.538h37.986l8.922,16.2c.323.452.015,1.384-.179,1.908a41.234,41.234,0,0,1-4.3,8.574c-2.109,3.492-2.866,6.691-2.117,8.841a2.163,2.163,0,0,1,.17,1,5.037,5.037,0,0,1-2.253,3.163c-.835.134-2.569.24-3.573,1.231a5.264,5.264,0,0,0-1.454,4.362,10.872,10.872,0,0,0,.155,1.328c-11.346,4.711-19.478,10.229-19.209,10.432-.106-.049-10.039-4.581-14.146-5.7Zm101.053,0h26.074v74.435l-9.845-6.476c.822-.57,1.329-.909,2.192-1.494.154-.046.444-.051.632-.093,1.744-.388,2.96-1.689,2.355-3.038-.411-.916.15-.86.655-1.607a2.071,2.071,0,0,0,.09-2.295c-.18-.351-.081-.49.221-1.138a2.282,2.282,0,0,0-.811-3.2c-.108-.159.113-.4.163-.635a2.194,2.194,0,0,0-1.4-2.814c-.6-.154-.8-.257-.586-.79.374-.944-.119-1.3-.9-1.6-1.308-.516-.938-.6.679-1.324,3.308-1.484,4.087-5.9,1.811-9.9-.289-.509-1.062-1.7-1.586-2.5-.613-.936-1.207-1.742-1.207-1.742l4.38-6.092a49.015,49.015,0,0,1-4.135-5.6c.256-.983,3.308-4.073,3.7-7.072.621-4.7-2.957-7.711-6.342-7.358-2.348.245-5.236,1.744-5.019,6.1a10.149,10.149,0,0,0,1.555,4.439c.67,1.266,1.539,2.6,2.37,3.891l-4.406,6.011,4.453,5.628s-.059.091-.155.244a45.02,45.02,0,0,0-2.289,3.987c-1.642,3.24-2.224,6.8,1.148,9.305a7.907,7.907,0,0,1,1.3.918c.331.327.124.576-.407.7a10.763,10.763,0,0,0-1.924.383,21.13,21.13,0,0,0-5.741,3.229,16.635,16.635,0,0,0-3.041,4.6c-.9,1.908-1.156,2.33-1.156,2.33l-15.489-9.893s-.393-.31-.5-.43c-.288-.322-.185-.509.016-.867a4.392,4.392,0,0,0,.1-1.87,3.077,3.077,0,0,1,.737-2.493,1.766,1.766,0,0,0,.222-1.486c-.243-.727-.266-.5.2-.995.181-.222.4-.332.435-.573.047-.322.017-.885.023-1.935.011-2.1-.017-1.932,1.168-2.857,1.471-1.149,2.02-1.69,2.253-2.21.335-.745,0-1.307-.826-2.795-.378-.679-.962-1.6-1.245-2.109a17.771,17.771,0,0,1-1.656-3.294,3.71,3.71,0,0,1,.042-3.341c.64-1.138.818-1.825.795-4.126-.021-2.132-.175-1.934.369-2.648C2601.333,1468.752,2607.795,1458.628,2607.795,1458.628Zm16.579,7.993c.087,0,.176,0,.263.008a5.515,5.515,0,0,1,3.736,1.614c1.607,1.608,1.5,3.925.969,6.336a8.3,8.3,0,0,1-.919,2.145,5.232,5.232,0,0,0-.5.836,14.983,14.983,0,0,1-.881,1.417c-.473.713-1.016,1.707-1.016,1.707a25.768,25.768,0,0,0,2.1,3.05c1.013,1.5,1.669,2.809,1.746,2.733a5.465,5.465,0,0,1-.609,1.11,47.348,47.348,0,0,0-3.1,4.611c-.019.073-.221.147-.217.22.014.27.4.591.989,1.394,3.537,4.846,4.037,8.938,1.381,11.341a4.917,4.917,0,0,1-4.027,1.421,5.164,5.164,0,0,1-4.654-5.644,7.073,7.073,0,0,1,.911-3.6,21.647,21.647,0,0,1,1.858-3.425,15.468,15.468,0,0,0,1.059-1.44,50.434,50.434,0,0,0-3.572-4.653,4.742,4.742,0,0,1-.675-1.169l3.964-5.86a14.073,14.073,0,0,0-1.233-2.288c-1.586-2.359-2.608-4.868-2.6-6.28C2619.367,1468.687,2621.673,1466.626,2624.374,1466.621Zm9.871,83.721c-2.341,1.243-4.619,5.486-.165,2.527l.111,2.44c-2.317,3.281-6.846.875-5.694-2.522-3.128.4-3.616-2.764-3.457-4.271-4.114-.894-2.692-5.242-2.692-5.242-2.377-1.982-2.794-4.059-.869-6.248-1.946-1.209-2.5-1.982-4.634-2.86,1.64,14.558,9.513,22.119,17.8,28.857-.22,0-.243,4.688-.764,3.824-11.833-8.822-19.439-18.91-20.748-35.229-.1.256-5.61-4.256-6.521-4.017-1.909,26.425,19.172,43.8,27.939,47.218a30.36,30.36,0,0,1-.026,3.7c-13.287-5.784-28.061-22.758-30.907-42.954l-7.84,12.115-2.936-1.254,12.676-19.93-8.572-5.361L2582.99,1543.2s-.371,1.84.64,1.811c19.59,2.092,48.725,25.58,38.963,63.807-.847-.335-2.194-.989-2.261-.96,1.531-3.294,5.8-24.636-7.048-41.875-5.888-7.9-15.019-16.3-29.67-18.785,1.211,2.494.683,8.148.683,8.148l3.413.689a10.3,10.3,0,0,1-2.571-3.534c-.64-2.053.3-3.269,2.575-2.047.9.506,1.132.487,2.013-.167,1.835-1.36,3.928.041,3.445,2.3-.072.335.017.545.888.624a8.023,8.023,0,0,1,5.248,2.7c.631.807.774.688,1.335.2,1.376-1.193,3.657.46,3.25,2.307-.233,1.056-.1,1.308.384,1.513,2.691,1.129,3.352,1.841,4.189,4.192.307.862.559,1.145.718,1.1.111-.035.553-.182.942-.329,2.009-.759,3.185,1.665,1.761,3.565-.291.389-.075.763.443,1.045a6.794,6.794,0,0,1,3.006,5.365c.075.867.166.868,1.035.832,2.225-.093,3.284,2.9,1.474,4.006-.63.384-.512.88-.023,1.46a5.358,5.358,0,0,1,1.486,4.393c-.152,2.329,0,2.283.741,2.566,2.161.822,1.758,4.268-.362,4.257,1.527,3.548-.483,7.876-.417,7.956,4.072,2.286.4,4.716-.788,4.288,0,0-.6,1.595.081,2.416-3.572,4.717-8.249,5.5-13.429,7.842l-.163-16.606c2.155,1.731,4.29,3.346,6.424,4.955,0,0,.541-.162.048-.616-.949-.876-3.337-2.417-4.005-3.03a89.009,89.009,0,0,1-7.664-7.328c-.421-.8-1.057-.335-1.04-.287a37.206,37.206,0,0,0,1.921,3.491c1.767,2.444,3.482,5.16,3.3,7.847a10.185,10.185,0,0,1-.939,3.813c-.248,1.032-1.9-.176-1.481-1.045.732-2.382,1.339-4.333-1.281-8.16a54.109,54.109,0,0,1-2.932-5.252l-1.059.255.039,21.665c-.888.036-3.141.619-2.677.635,7.02-1.4,9.167,8.623,2.39,8.949-1.288.046-2.618,2.257-2.754,3.457.058,2.91.485,5.979-1.649,8.775a27.951,27.951,0,0,0-1.338,2.818c-2.6,4.6-3.768,7.242-3.5,8.43.069.306.132.709.132.709a95.129,95.129,0,0,1-22.881,2.794,100.555,100.555,0,0,1,4.914-12.394c1.558-3.072,2.361-5.172,1.924-5.806-6.629.332-5.358-9.368.985-9.027,0,0,1.592-5.588,3.371-8.109,1.686-.937,5.08.339,6.982-.917,4.482-1.372,7.417,3.917,7.417,3.917l1.206-5.032-39.635-.19s-3.856,1.6-5.943.736a19.053,19.053,0,0,1-3.235-2.005s15.286-24.449,17.51-27.952c.181-.284-.394-.9-.4-.9-.084-.8-18.143,28.259-18.143,28.259-10.2-6.516-23.011-14.76-34.37-22l-.031-10.885c8.25-5.188,7.5-7.307-.132-1.653-.106.09-.163-4.087-.163-4.087,5.819-5.189.98-3.564-.169-1.766.028-1.294-.273-3.05.557-3.824,2.543-2.339,5.54-.191,5.69,3.267,3.318.649,2.906,3.557,3.761,4.726,3.382,1.906,1.6,4.8,2.44,5.78,3.563,2.241,1.078,5.845.324,5.763.449.3,4.876,3.263,5.256,3.155-.384-15.527-15.93-28.057-17.995-29.573l.365-3.348s21.413,13.668,21.225,35.6l6.827,4.049c-.606-22.5-10.816-37.759-28.033-47.421l-.224-4.169c14.452,6.713,27.856,20.3,30.976,42.567l8-12.394,2.82,1.363-12.849,20.572,8.023,5.265c6.224-8.176,11.414-18.2,14.577-22.973-.083-.436-.256-1.061-.256-1.061-30.593-5.035-47.825-33.643-39.611-63.535l2.125.933c-6.379,22.138,4.024,54,37.3,60.52-.066-2.354-.481-8.144-.481-8.144s-4.372-1.312-3.728-.786c1.07.913,3.477,4.852,2.46,6.251a5.235,5.235,0,0,1-3.294-1.285c-.505-.369-.519-.29-1.086.314-1.572,1.675-3.858.715-3.879-1.587-.008-.973-.045-1.179-1.427-1.189-2.1-.015-3.037-.373-4.294-2.051-.891-1.19-.809-1.195-1.858-.836a2.152,2.152,0,0,1-2.983-2.7c.311-.774-.02-1.022-.935-1.173-1.779-.294-3.792-2.522-4.162-4.343-.075-.372-.262-.466-1.311-.429-2.058.071-3.2-1.175-2.385-2.919.439-.943.562-1.324-.26-1.963a5.914,5.914,0,0,1-2.025-2.276,9.112,9.112,0,0,1-.652-2.837c-.084-.557-.27-.648-1-.743-2.128-.277-2.968-2.45-1.405-3.859.478-.43.476-.42-.248-1.355-1.392-1.8-1.914-4.147-1.307-5.709a.768.768,0,0,0-.493-1.065c-1.94-.482-1.973-2.63-.116-3.836.539-.35.567-.582.159-1.289-.714-1.238-.679-4.479.012-6.031.446-1,.443-1.026-.248-1.467a2.257,2.257,0,0,1,.69-3.952c.847-.207.9-.317.675-1.343-.407-1.829-.476-2.3.6-3.027,2.974-1.928,10.593-5.612,10.593-5.612l2.518-1.2s.251,15.345.089,17.16c-.1.781.605,1.254,1.423,2.067,1.692,1.659,2.619,3.666,4.876,5.059,0,0,1.407-.781,2.277-1.339l.085-21.867c.179-.5.3-.551.881-.619.481-.092,1.687-.227,2.091-.344.972-.284,1.125-.676-.152-.546-.384.039-.961.2-1.6.333-3.99,1.194-6.94-5.005-3.9-8.129a9.514,9.514,0,0,1,3.751-1.49c.286,0,1.137-1.044,1.719-2.009a2.872,2.872,0,0,0,.492-2.663c-.7-2.046-.032-5.187,2.072-8.617a31.464,31.464,0,0,0,4.961-10.7c8.073-.971,14.921-2.974,22.218-2.531.285,2.461-7.978,16.971-6.253,17.821,6.5,1.554,4.282,9.247-.659,8.992-.74,0-.813.061-1.284,1.7-.9,2.386-1.476,4.206-2.44,6.426,0,.571-3.229.416-5.933.4-1.162.894-6.137,3.314-8.856-2.879l-.1,5.293s37.222-.59,43.842.239c.141-1.658,3.681,1.282,3.681,1.282l-18.168,28.52.85.829c2.621-3.175,18.433-28.623,18.433-28.623l34.2,22.027c-.282,3.275.046,10.617.046,10.617-9.387,4.974-6.519,7.509-.056,1.484Zm-56.674-78a135.181,135.181,0,0,1,14.546.855c4.254.681,4.035.556,4.018,3.639-.012,2.189-.015,2.14-.578,3.189-1.037,1.936-.861,3.843.78,6.515a31.263,31.263,0,0,1,2.758,4.877c0,.573-.1,1.271-1.478,2.234-1.628,1.135-1.939,1.928-1.916,3.081.018.933-.159,1.238-.718,1.235a9.424,9.424,0,0,0-1.866.766,4.5,4.5,0,0,1-2.893.693c-.7-.006-1.039-.27-1.234-.194-.375.175-.717,1.43-.706,1.8.04.13.24.052.652-.089,2.314-.79,5.757-.435,5.853-.089.467.422.468,1.074-.236,1.75a2.469,2.469,0,0,0-.474,2.195c.26,1.506.066,2.1-.706,2.624-2.353,1.588-5.5,1.788-10.519.824-5.295-1.015-8.916-3.03-11.928-6.638-1.345-1.612-1.677-2.176-1.012-2.288a10.565,10.565,0,0,0,2.572-.658c3.72-1.6,3.655-8.4-1.358-9.108C2569.083,1489.483,2575.351,1479.861,2577.571,1472.346Zm4.78,4.685c-1.8,1.005-2.74,2.232-2.744,2.9,0,.273.06.223.92-.341,2.494-1.637,9.066-4,11.411-2.636,1.691,1.013,2.348.683,1.368-.679C2591.008,1473.075,2584.81,1475.693,2582.351,1477.031Zm6.426,1.071a4.217,4.217,0,0,0-.819.089c-1.734.386-3.643,1.813-5.224,3.069a12.38,12.38,0,0,0-2.056,2.168c-.391.726.471,1.527,1.644.886a1.549,1.549,0,0,1,1.4-.2,13.933,13.933,0,0,0,5.911.937c.249.057.23.115.144.348a8.526,8.526,0,0,1-2.339,2.152c-.637.47-1.194.856-1.238.925-.2.314.654.338,1.587-.189a13.785,13.785,0,0,0,3.778-3.736,1.44,1.44,0,0,0,.252-.367c.091-.308-.466-.181-.764-.264-.129-.035-.1-.358-.136-.507a5.877,5.877,0,0,1,.136-1.591c.057-.448.54-.8.857-1.134,1.4-1.448,1.286-2.1-.59-.991a1.951,1.951,0,0,1-.872.326c-2.768.086-4.368-.021-6.676,1.919-1.026.826-1.643.906-.729.028,1.393-1.126,3.139-2.728,5.07-3.151,1.165-.29,2.274.6,2.785.371,0-.636-.97-1.1-2.122-1.091Zm-.4,4a2.8,2.8,0,0,1,.6,1.654c-.034.423-.764.248-.865.046l-.4-1.2C2587.542,1482.2,2588.066,1481.969,2588.376,1482.1Zm-1.411.245a4.54,4.54,0,0,1,.609,1.653c-.122.43-2.847-.151-3.189-.632a3.528,3.528,0,0,1,2.58-1.021Zm4.779,7.749a.975.975,0,0,0-.721.337,2.579,2.579,0,0,0,.644,4.08c.719.337,1.807.089,3.409-.4a7.61,7.61,0,0,1,1.459-.34.87.87,0,0,0,.527-1.409c-.507-.513-1.711-.438-3.006.561a2.667,2.667,0,0,1-1.652.743c-1.3-.016-1.925-1.347-.6-2.744.441-.465.284-.8-.058-.825Zm-9.078,9.188c1.528,1.23,4.429.585,6.379-.7,1.742-1.151,2.465-1.49,3.863-1.25,1.713.294,1.65-.378.908-1.223-.842-.959-2.92-.663-4.659.487-3.855,2.551-5.249,2.977-6.368,1.6-1.2-1.482.229-3.384,1.643-2.346,1.161.788,1.144.195.664-.345-2.8-2.352-4.814,1.863-2.43,3.783Zm-13.551,1.209a20.879,20.879,0,0,0,6.606,6l.031.465-9.046-.02A62.307,62.307,0,0,0,2569.115,1500.494Zm-30.628,6.414c-.192,3.711.475,5.891,2.653,8.485,2.315,2.757,2.143,7.056.654,9.711-.659,1.175-2-.27-1.368-1.021.9-1.128.953-3.881.528-5.6-.953-2.844-3.115-4.237-3.991-7.242a18,18,0,0,1-.2-3.589Zm2.832.314c.158-.025.41.138.783.46,1.28,1.1,1.062,4.269-.4,6.3-.449.616-.821.44-1.249-.131-.579-.571-.379-.628.108-1.63a6.847,6.847,0,0,0,.567-3.6C2541.054,1507.7,2541.087,1507.258,2541.319,1507.222Zm82.973,1.084c1.129-.017,2.54.222,2.669.63.122.5-.146.9-.776,1.162-1.652.7-3.836-.278-3.285-1.467C2623.037,1508.418,2623.615,1508.316,2624.292,1508.306Zm-2.863.271a1.729,1.729,0,0,1,.776.162c.542.279-.309,2.181,2.386,2.145.644.094,1.12-.054,1.032.236-.134.438-1.29,1.1-2.545,1.281-3.755.554-3.591.367-3.421,3.015a9.489,9.489,0,0,1-.237,3.36c-.407,1.818-.569,3.574-.295,3a14.486,14.486,0,0,0,1.3-4.6c-.009-2.046.723-2.451,1.016-.968.126.981-.315,1.535.345,2.535.375.562.546.553.295,1.425a1.284,1.284,0,0,0,.2,1.385c.271.394.544.484.314,1.034a1.691,1.691,0,0,0,1.408,2.4c.521.044.665.27.508.468a2.3,2.3,0,0,1-1.28.6l-11.927-7.606s.885-1.772,1.148-2.245c1.713-3.75,3.072-5.458,8.083-7.421A2.407,2.407,0,0,1,2621.429,1508.577Zm6.339,2.461a1.018,1.018,0,0,1,.849.515c.732.939.093,2.113-1.707,3.124-1.538.873-1.986.977-2.319-.4a1.836,1.836,0,0,0-.415-.673c-.356-.326-.275-.6.178-.837a13.077,13.077,0,0,0,1.463-.762A4.781,4.781,0,0,1,2627.768,1511.038Zm-5.078,2.725a2.036,2.036,0,0,1,1.051.283.858.858,0,0,1,0,1.4c-.957.39-2.47-.132-2.343-1.01C2621.463,1513.987,2622.063,1513.754,2622.69,1513.763Zm6.137.96a.892.892,0,0,1,.806.476c.562.866-.1,1.735-1.99,2.66-1.244.608-2.835.872-2.73.514a4.757,4.757,0,0,0-.559-1.935c-.076-.24.023-.024,1.594-.519a8.264,8.264,0,0,0,1.575-.673A2.819,2.819,0,0,1,2628.827,1514.723Zm-89.483,2.245a7.386,7.386,0,0,0-.6,5.234c.346,1.837.748,2.758,2.638,5.473,1.437,2.066,1.9,2.87,1.551,3.522-.244.352-.793.68-1.135.342-.7-.916-1.124-2.03-1.809-3.051-2.64-3.865-2.824-4.848-3.161-7.9-.155-1.4.649-4.364,1.336-4.808C2538.936,1515.479,2539.582,1516.486,2539.344,1516.968Zm61.008-.967a6.506,6.506,0,0,0-1.544,2.388c.078.553.532.192,1.722-1.552C2600.816,1516.418,2600.622,1515.967,2600.352,1516Zm22.726.948c1.057.032,1.431.977.958,1.471a1.142,1.142,0,0,1-1.932-.832C2622.1,1517.16,2622.3,1516.94,2623.078,1516.949Zm5.861,1.347c.606.026.686.627.365,1.5-.4.809-.887.946-2.339,1.4-1.74.541-2.024.462-2.285-1.134-.1-.613-.051-.477,1.552-.9a16.606,16.606,0,0,0,1.92-.685A1.942,1.942,0,0,1,2628.939,1518.3Zm-102.726.716.428,3.224.694-2.415Zm97.074,1.084c.856,0,1.315.768.881,1.227a1.177,1.177,0,0,1-1.156.112C2622.332,1520.94,2622.455,1520.093,2623.287,1520.1Zm-26.143,1.684,1.668,1.026-13.549,21.347-1.633-.035-.156-.34Zm30.744.2c1-.014,1.087.927-.124,1.792a2.968,2.968,0,0,1-1.486.414c-.6.027-1.008-.129-1.055-.545-.261-1.02-.41-1.273.52-1.212a2.812,2.812,0,0,0,1.1-.19A2.866,2.866,0,0,1,2627.888,1521.985Zm-4.143.933c.692,0,1.132.752.667,1.118-.573.453-1.287.174-1.284-.51C2623.131,1523.088,2623.25,1522.915,2623.745,1522.918Zm-97.492,1.509-3.686,3.259c1.351,1.595,2.485,3.188,3.655,4.861Zm74.537.209c1.6-.064,2.124.709,1.365,1.227a3.949,3.949,0,0,1-3.083.5c-1.548-.287-.316-1.524,1.38-1.7C2600.569,1524.648,2600.683,1524.641,2600.79,1524.636Zm-1.7,2.323a4.43,4.43,0,0,1,1.416.29c1.046.354,2.35,1.449,2.288,2.056-.1.982-1.952.475-3.444-.933C2598.416,1527.49,2598.38,1526.978,2599.091,1526.959Zm-1.416.015c.907.086,1.813,3.15,1.109,4.092-.689.923-1.9-1.064-1.683-2.625.087-.617.243-1.433.485-1.463A.531.531,0,0,1,2597.675,1526.974Zm-59.246.674c.511.122,1.165.827,1.024,1.362-.1.216-.318.153-.551.1a1.241,1.241,0,0,1-.663-1.246C2538.278,1527.73,2538.334,1527.656,2538.429,1527.648Zm68.749.526,2.665,1.8-2.665.1Zm-11.043,3.651c2.045.011,2.477.671.951,1.474a4.91,4.91,0,0,1-2.979.12C2592.838,1532.98,2594.36,1531.815,2596.135,1531.825Zm16.54,1.374.139,1.85-5.131.449-.264-1.928Zm-17.742.921a3.66,3.66,0,0,1,1.664.522c1.4.717,2.191,1.92,1.47,2.3-.653.344-1.816-.064-2.638-.925C2594.342,1534.877,2594.254,1534.163,2594.933,1534.12Zm-1.746,0c.933.056,1.739,2.6,1.125,3.867-.336.69-.762.539-1.373-.6-.591-1.1-.623-3.036.058-3.248A.518.518,0,0,1,2593.187,1534.124Zm-66.747.72-2.243,4.5,4.065,3.541Zm86.867,3.468.361,1.781-4.926,1.211-.481-1.939Zm-21.512.348a2.4,2.4,0,0,1,1.489.438c.45.394.352.571-.71,1-1.889.768-4.217.3-2.866-.844A3.329,3.329,0,0,1,2591.795,1538.66Zm32-.1c-1.881,1.259-.07,1.951,1.275,1A2.106,2.106,0,0,0,2623.8,1538.556Zm-33.382,2.524c1.345.044,3.986,1.886,3.421,2.767-.307.483-2.072.071-2.773-.6-.922-.881-1.41-2.06-.9-2.152A1.208,1.208,0,0,1,2590.414,1541.08Zm-1.7.085c.694-.129,1.8,3.1.966,3.929-.314.309-.4.291-.927-.175a2.9,2.9,0,0,1-.241-3.6A.318.318,0,0,1,2588.715,1541.165Zm41.351,1.7a1.989,1.989,0,0,0-.663-.689C2622.862,1544.686,2624.539,1547.076,2630.066,1542.867Zm-15.5.222.651,1.8-4.961,1.963-.729-1.974Zm-84.859,3.414-1.68,4.412a12.775,12.775,0,0,1,5.14,1.638Zm86.507,1.3,1.051,1.773-4.666,2.52-.931-1.87Zm-108.407,3.453,1.912,1.347-2.808,3.484-.256-.492.031-2.891Zm110.956,1.1,1.128,1.626-4.491,3.116-1.1-1.769Zm-106.139,2.091,2.064,1.587-3.262,3.929-1.975-1.506Zm22.707.971-.1,4.727,4.857.185Zm56.132,2.13,5.519,3.172-.831-4.841A46.805,46.805,0,0,0,2591.465,1557.539Zm30.317-.992,1.288,1.6-4.15,3.48-1.331-1.665Zm-104.943,1.4,1.924,1.784-3.39,3.654-1.781-1.676Zm108.489,2.593,1.493,1.513-3.782,3.925-1.493-1.513Zm-104.118,1.924,1.49,1.734-3.871,3.069-1.435-1.741Zm22.308.406,1.086,4.63c-.079-.337,4.819-1.381,5.458-1.03Zm57.026.392,4.622,4.871.52-4.693Zm28.589.766,1.672,1.3-3.1,4.413-1.893-1.483Zm-104.591,2.941,1.377,1.986-4.057,2.412-1.152-1.754Zm108.97.469.256.255,0,3.151-1.287,1.889-1.758-1.034Zm-26.153,3.539,4.089,7.419,1.154-5.533a11.885,11.885,0,0,1-5.243-1.886Zm-79.582.99.974,2.14-4.286,1.951-.978-2.129Zm2.316,5.109.784,2.148-4.558,1.51-.722-2.071Zm-20.376,3.891,1.419.992C2518.531,1578.083,2516.226,1576.937,2509.717,1580.969Zm41.791-2.467c.28-.029.6.357.862,1.208.392,1.287.184,2.882-.691,2.861-.589-.072-.808-1.58-.811-2.017-.006-1.291.281-2.014.64-2.052Zm4.054.771,1.761.189-.008.5-14.026,22.222-1.7-1.076Zm-7.552.515a3.294,3.294,0,0,1,2.1,1.157,3.744,3.744,0,0,1,.989,1.777c-.012.219-.388.136-.752.085a4.2,4.2,0,0,1-2.739-1.568c-.537-.974-.234-1.457.4-1.451Zm64.482.791,1.87,9.1c.579-2.278,1.8-3.592,2.709-5.381A12.715,12.715,0,0,1,2612.492,1580.579Zm-80.587,1.841.438,2.353-4.725,1.092-.488-2.284Zm17.621.816a1.436,1.436,0,0,1,.2.008c1.728.193,1.973.576.811,1.355-.7.472-2.611.538-2.925.035-.335-.537.912-1.388,1.916-1.4Zm-34.281,1.382,1.466.856C2519.223,1583.662,2516.48,1583.3,2515.245,1584.618Zm31.795.794c.528.006.846.947,1.032,1.811a2.645,2.645,0,0,1-.082,2.013c-.4.515-.783.606-1.1.1C2545.971,1587.84,2546,1585.4,2547.04,1585.412Zm-3.894,1.366a2.489,2.489,0,0,1,.919.19c1.226.462,2.851,2.335,2.164,2.593-1.013.382-3.229-.728-3.646-1.85-.21-.565.02-.914.563-.933Zm-10.109,1.51.113,2.326-4.969.2-.148-2.314Zm12.172,1.958a3.308,3.308,0,0,1,1.373.221c.712.307.194.863-1.028,1.285a3.183,3.183,0,0,1-2.358.031C2542.253,1591.041,2543.741,1590.288,2545.209,1590.246Zm-38.467.271c3.4,2.063,10.461,6.658,10.461,6.658a2.773,2.773,0,0,0-1.016.581,3.288,3.288,0,0,1-.768.5,5.447,5.447,0,0,1-1.039.244c-2.194.476-3.269,1.715-2.584,3.255.269.6.339.508-.128,1.018-1.308,1.246-1.148,1.619-.682,3.213.006.226-1.558,2.141-.175,3.584.765.666.8.249.524,1.762a1.558,1.558,0,0,0,1.478,1.916c.737.337.726.22.465.844a1.217,1.217,0,0,0,.706,1.59c.571.357.8.454.4.767-4.417,2.257-5.776,6.183-1.61,11.968.491.682,1.727,2.607,1.727,2.607-1.405,2.08-2.745,3.793-4.177,5.651l4.168,5.818a42.647,42.647,0,0,0-3.223,5.321c-1.457,3.182-.5,7.642,3.7,8.976a5.462,5.462,0,0,0,5.667-1.625,7.267,7.267,0,0,0,.767-7.111,28.288,28.288,0,0,0-3.624-5.787l4.463-5.591s-3.075-4.414-4.3-6.017c8.369-10.224,1.532-13.083.221-13.959-.2-.136-.155-.789-.155-.789,7.517-.86,10.084-4.982,12.3-10.2,4.484,2.882,10.9,6.758,15.4,9.79.433.4.718.649.651.87a8.447,8.447,0,0,0-.236,1.862c.209,1.356.109,1.97-.439,2.489-.515.489-.412.711-.329,1.239.143.917.283,1.009-.128,1.471-.507.569-.676.836-.582,2.218a4.366,4.366,0,0,1-.054,1.92c-.28.63-1.047.949-2.052,1.738-1.76,1.379-1.523,1.8.907,6.808,2.071,4.268,2.308,5.243,1.513,6.759a6.939,6.939,0,0,0-.83,4.056c.021.465.06.967.058,1.212,0,.589,0,.522-.337.89a12.5,12.5,0,0,0-.978,1.262c-2.89,4.326-10.492,15.439-10.492,15.439h-25.632Zm35.9,2.013c.3-.021.662.514,1.071,1.595a2.507,2.507,0,0,1-.171,2.125c-.761.83-1.809-1.115-1.478-2.655C2542.209,1592.9,2542.4,1592.547,2542.637,1592.53Zm71.9-1.169c0,3.942-.081,9.057-1.44,12.829l1.542.7c-.5-3.872.119-7.051,3.679-8.726a12.472,12.472,0,0,1-3.781-4.8Zm-75.733,2.485a1.343,1.343,0,0,1,.423.078,4.063,4.063,0,0,1,1.707.929c.731.743,1.486,1.637,1.295,1.722-1.209.53-4.277-1.088-3.875-2.353A.463.463,0,0,1,2538.8,1593.846Zm-5.376.167.031,1.931-2.971-1.9Zm67.854.929c.481.042,1.224.67,1.109,1.107-.207.472-.461.428-.792-.068C2601.186,1595.362,2601.018,1594.975,2601.283,1594.942Zm-60.205,2.388c.722-.019,1.344.14,1.412.515,0,.355-.55.814-1.226,1.022-1.689.519-2.956.184-2.494-.643C2539.06,1597.677,2540.151,1597.355,2541.078,1597.33Zm58.835,2.191c-.714,1.277-.8,5.362.458,7.029,1.958,2.158,3.765,4.967,3.557,8.706l-1.881.84c.1-3.075-.019-5.074-2.425-7.726-2.864-3.107-2.19-8.489-1.2-10.072C2599.269,1596.735,2600.491,1598.948,2599.913,1599.521Zm-82.419-1.7c.6-.036,1.338.319,2.669,1.2,3.405,2.405,5.251,3.333,8.627,5.713.493.461.469.4.384.759a12.459,12.459,0,0,1-10.593,9.557c-.643.083-.312-.319-.7-1.092a2.085,2.085,0,0,0-1.951-1.15c-2.293-.021-.332-1.305,2.467-1.672a5.177,5.177,0,0,0,2.63-.824c.128.06-.486-3.856.144-5.234.321-1.239.017-1.838-.33-1.076a13.387,13.387,0,0,0-.687,3.023c-.138,1.088-.368,1.237-.624.709a1.86,1.86,0,0,1,.07-1.262c.208-1.025-1.087-1.8-.827-2.737a1.649,1.649,0,0,0-.449-1.935,2.131,2.131,0,0,1-.179-1.231,2.011,2.011,0,0,0-1.358-1.978c-.387-.2-.271-.407.132-.608a1.456,1.456,0,0,1,.574-.158Zm-2.785,1.405a2.445,2.445,0,0,1,.648.073c.451.274.814,1.832.31,1.893a8.393,8.393,0,0,0-1.214.225c-1.522.446-2.244.386-2.215-.488C2512.269,1600.038,2513.518,1599.247,2514.709,1599.227Zm2.025.158c.6,0,1.083.7.706,1.076a.68.68,0,0,1-1.136-.452c0-.3.137-.625.43-.624Zm.407,2.427a1.248,1.248,0,0,1,.567.124c.557.257.878,1.214.523,1.564a1.3,1.3,0,0,1-1.454-.178C2516.039,1602.7,2516.4,1601.841,2517.141,1601.812Zm-1.889.14c.345.007.594.118.66.356.057.2-.039.393.054.685.146.459.437.811.182.995-1.167-.07-3.592,1.393-4.293,1.324-.585-.079-.651-.616-.144-1.487a4.987,4.987,0,0,1,3.541-1.873Zm.706,2.829c.255-.016.3.125.194.5a2.473,2.473,0,0,0,.167,1.3c.193.435.542.694.361.864a21.507,21.507,0,0,0-2.145.6c-1.088.6-4.144,2.41-3.375-.484.245-.967,1.369-1.638,3.332-2.323A8.249,8.249,0,0,1,2515.958,1604.781Zm1.6.035a1.236,1.236,0,0,1,1.253.778c.709,1.408-1.324,1.61-1.974.438-.385-.695.114-1.172.721-1.216Zm.388,3.279c1.057.005,1.876,1.312,1.11,1.807a2.541,2.541,0,0,1-1.924.116c-.979-.429-.527-1.931.814-1.923Zm101.146.027a77.679,77.679,0,0,0,14.775,5.473v52.138H2597.64l-9.922-17.274s-.329-.559-.434-.8a1.827,1.827,0,0,1,.007-1.335,29.013,29.013,0,0,1,2.242-5.1c2.4-4.391,5.8-9.206,3.957-13.424-.211-.482,1.9-3.1,1.9-3.1,3.258.265,5.951-1.854,4.987-6.857,6.8-2.774,12.4-5.03,18.713-9.716Zm-103.019.255c.092,0-.185,1.139.392,1.839.359.551.3.533-.92,1.014a6.739,6.739,0,0,0-1.171.852c-1.748,1.556-3.477-.479-1.788-2.114a6.28,6.28,0,0,1,3.464-1.575C2516.061,1608.382,2516.069,1608.377,2516.075,1608.377Zm83.088,1.076c.586.1,1.346.882,1.1,1.306a6.216,6.216,0,0,0-.938,3.556c-.083,1.6.191,1.832-.419,1.556-.4-.185-1.141-.5-1.308-.91C2597.217,1614.026,2598.2,1609.282,2599.163,1609.453Zm-83.658,4.007a2.116,2.116,0,0,1,1.714.692c.32.411.353.762.035.929-.756.4-3.26.192-3.386-.321C2513.673,1613.969,2514.556,1613.476,2515.5,1613.46Zm37.927,1.014a25.136,25.136,0,0,1,9.391,1.865,17.775,17.775,0,0,1,8.158,6.848c.237.489-.248.489-.668.534a5.079,5.079,0,0,0-2.284,9.247,4,4,0,0,0,2.234.689c1-.085-4.443,10.337-6.61,16.831-6.7-.274-11.769.756-18.324-1.495-.7-1.167-.537-3.746-.023-5.078.471-1.209,1.091-2.142.791-3.534-.521-2.424-2.735-5.581-3.475-7.583-.65-1.528-.608-2.1.524-2.973a8.793,8.793,0,0,0,2.028-1.769c.341-.485.2-.6.2-1.691.007-1.327-.025-1.121,1.074-1.316a8.446,8.446,0,0,0,1.979-.72,3.225,3.225,0,0,1,3.273-.26c.366.1.332-.28.485-.781a3.906,3.906,0,0,0,.21-.686c-.026-.224-.51-.159-1.044-.085a11.652,11.652,0,0,1-4.689.043c-.752-.279-.754-.784-.315-1.622a2.6,2.6,0,0,0,.509-2.292c-.2-1.954.071-2.366.985-3.007,1.14-.8,3.21-1.175,5.589-1.165Zm11.055,1.722h9.942a25.331,25.331,0,0,0-2.677,6.29c-.089.179-.2.355-.426.124A20.365,20.365,0,0,0,2564.487,1616.2Zm-8.242,6.987a10.51,10.51,0,0,0-4.543,1.672,5.093,5.093,0,0,1-3.654.929c-.77-.141-.869-.032-.969.217-.454,1.122,1.229,2.326,2.928,1.537.494-.207,4.283-2.167,4.492-2.334a7.636,7.636,0,0,1,2.211-.639,1.833,1.833,0,0,1,1.874,2.133c-.205,1.515-2.358,1.591-2.5.244-.109-1.038-.542-.577-.582-.066a2.649,2.649,0,0,0,.686,1.653c1.819,1.133,4.217-1.073,3.068-3.345A3.1,3.1,0,0,0,2556.245,1623.183Zm-8.159,5.281a27.9,27.9,0,0,1-3.366.823c-1.1.242-1.016,1.114-.329,1.568.527.349,1.191.138,3.111-1.08a1.628,1.628,0,0,1,1.993,2.572c-.949.8-.3,1.014.353.53,1.67-1.243.712-4.883-1.762-4.413Zm5.839,6.413a1.548,1.548,0,0,0-.679.182,7.945,7.945,0,0,0-3.177,2.233c-.116.2-.052.53-.108.79-.044.2-.208.464-.179.6.026.121.425.25.485.363a5.424,5.424,0,0,1-.054,2.485c-.068.407-.673.533-.915.779-.8.807-.6,1.054.252.739.592-.22.341-.628,1.807-.345a6.873,6.873,0,0,0,4.9-.975c1.66-.92,2.26-1.43,2.328-1.32.11.181.023.277-1.16,1.258-2.966,2.46-5.171,3.031-6.835,2.11-.5-.338-.9-.476-.52.247a2.75,2.75,0,0,0,.734.519c1.708.77,3.851.119,6.578-2.032.6-.472,1.127-1,1.819-1.579,2.263-1.89,1.668-2.755-.888-1.835-.806.29-1.033-.023-2.122-.445a8.061,8.061,0,0,0-3.626-.651c-1.466-.025-1.685.111-1.684-.135a4.183,4.183,0,0,1,2.1-1.9C2554.056,1635.5,2554.359,1634.907,2553.925,1634.877Zm2.7,4.664c.273.275-.118.451-1.175.952a8.541,8.541,0,0,1-1.226.515c-.094.17-1.091-2.073-.819-2.183A7.614,7.614,0,0,1,2556.621,1639.541Zm-3.836-.236a6.48,6.48,0,0,1,.527,1.533c.022.151.13.369-.108.367-.188.028-.5.043-.609-.131a4.292,4.292,0,0,1-.415-1.9C2552.363,1638.929,2552.686,1639.1,2552.785,1639.305Zm8.7,4.033a1.364,1.364,0,0,0-.516.221c-4.206,2.478-9.25,3.77-12.494,2.547-1.094-.413-1.294-.267-.9.48a2.74,2.74,0,0,0,1.657,1.355c2.649.727,6.917-.332,10.2-2.482,1.337-.874,2.432-2.123,2.048-2.121Zm24.755,6.643c.008,0,8.16,15.29,8.879,16.009l-60.48-.257,10.19-14.386c.09.808,24.58,4.164,41.411-1.366Z" fill="#131f67"/>
        <path id="path4035-6-4-6" d="M2535.017,1665.729l9.767-14.394c14.446,2.74,27.441,1.292,41.677-1.243l9.481,15.957Zm76.589-53.643-.062-8.545,2.983,1.107c-1.035-3.975,1.579-8.128,3.959-8.293-7.607-5.727-1.288-11.852-1.419-11.983-8.32-4.285-4.145-10.864-4.722-11.454-10.137-2.623-6.179-10.653-6.946-9.824-5.9,1.77-9.151-3.165-9.251-7.178-5.106,2.889-13-1.2-10.524-5.8,0,0,2.705,1.281,3.183,1.023,4.169-3.026,3.843,1.316,4.709,2.259,3.11-.449,4.946,1.926,5.72,3.08,4.587,0,4.4-1.093,4.439,3.346,3.455.876,3.318,2.741,5.32,5.288,4.357.048,3.624,1.463,2.638,3.869,3.14,2.495,3.394,4.448,3.912,6.717,3.426,1.24,4.041,1.744,1.805,4.626,3.023,4.524,1.568,7.143,2.028,7.39,3.77,2.715,1.886,3.7.239,4.74.572,3.606,1.03,4.137-.3,7.809,4.333,3.069-.688,4.453-.944,4.389l-.012,3.041Zm-104.93-22.28-.088-10.589,36.737,23.689-4.642,7.271Zm48.8,15.584,8.683-18.143-3.12-19.789,24.887.543c2.8,6.347,4.485,11.744,11.654,22.249l-7.574,2.356.263,12.718Zm21.284-4.772a2.188,2.188,0,0,1-.348-1.118c.093-.3.324-.288.621-.125,1.058.512,2.116.954,2.9-.016a1.387,1.387,0,0,0-.043-1.649c-.6-1.212-2.474-.334-3.1-.291-.586.013-.812-.479-.33-1.179a1.8,1.8,0,0,0,.514-1.038c.329-2.773-4.407-1.786-2.764.9.747,1,.312,1.595-.786.965a1.806,1.806,0,0,0-2.831,1.411,1.673,1.673,0,0,0,2.6,1.12c.27-.153.481-.32.672-.4.543-.236.934-.042.753.569-.486.763-1.057,1.86-.579,2.581a1.623,1.623,0,1,0,2.73-1.73Zm57.41-55.611-36.808-23.807a50.952,50.952,0,0,0,4.894-7.688l31.952,20.51Zm-57.549-8.048,3.77,19.22-25.7.365c-1.412-6.453-10.237-21.059-10.214-20.8l6.852-16.8,34.1-.04Zm-9.643-7.156c.651-.595.607-1.5-.111-2.526-.7-.99-.385-1.7.729-1.034a2.882,2.882,0,0,0,2.258.289,1.517,1.517,0,0,0,1.065-1.8c-.15-1.021-1.286-1.3-2.5-.856-.35.074-.564.36-.866.5-.654.287-.914-.5-.316-1.515a1.572,1.572,0,0,0-1.245-2.443,1.548,1.548,0,0,0-1.548,2.177c.763,1.165.211,1.976-.884,1.2-1.574-1.121-3.63.3-2.778,1.968.413.809,1.765,1.021,2.977.508,1.013-.428,1.314.065.7,1.1-1.261,2.129.811,4,2.518,2.439Zm-37.283-18.871-.272,10.241c-3.844-2.346-3.273-2.375-3.415-2.34a7.354,7.354,0,0,1-3.45,8.752c5.877,5.5,2.7,9.369,1.737,11.981a8.505,8.505,0,0,1,3.729,11.476c7.4.042,7.252,6.5,7.466,9.2,9.152-.574,7.925,6.724,9.132,7.351,4.437-1.981,9.619-1.3,10.993,4.649.89,3.376-2.373.123-3.794.265-5.059,3.144-4.086-1.654-4.371-2.322-4.189.4-4.753-1.6-6.589-3.011-4.525.869-4.152-.616-3.886-3.359-3.55-.718-4.321-2.929-5.736-5.093-4.9.158-2.9-3.3-2.884-3.976-.595-.531-3.41-3.295-3.548-6.459-5.032-1.419-1.872-3.953-1.691-4.822-1.9-2.367-2.4-4.112-1.766-7.094-4.467-2.084-.736-4.032-.42-5.217-1.456-3.885-.4-5.047.18-7.149-2.875-3.363-1.157-3.176.946-5.217.267-.368-.468-2.057-.428-3.05Zm25.809-37.958-8.055-14.39h57.537s-6.261,8.659-8.689,13.016C2581.951,1469.34,2568.523,1470.413,2555.507,1472.974Z" fill="#d40000"/>
        <path id="path4039-1-1-4" d="M2515.345,1656.382c-5.047-1.144-5.9-7.474-1.166-12.738a4.238,4.238,0,0,0,.644-1.085c-1.637-2.522-2.394-3.411-4.065-5.917,1.475-2.225,3.2-3.922,4.308-5.852-.067-.335-.559-.669-1.147-1.534-3.417-5.023-3.793-7.014-2.059-10a4.926,4.926,0,0,1,7.9-.657c2.563,2.675,2.444,5.106-.884,10.054-.731,1.086-1.258,2.067-1.258,2.067.919,1.85,2.481,3.57,4.072,5.9a54.225,54.225,0,0,0-4.277,5.634,2.315,2.315,0,0,0,.419.777c5.288,5.978,4.871,12.845-1.108,13.429A7.272,7.272,0,0,1,2515.345,1656.382Zm42.532-76.3c-.139-.227-19.029,30.28-19.029,30.28l2.156,1.38,18.071-28.2c.273.206.539.453.484.8,0,0-14.884,24.2-17.363,28.073a36.345,36.345,0,0,0,3.816,2.331c5.535-2.722,28.621-.366,43.951-1.3.06.047-.236,5.374-.236,5.374s-3.5-4.034-4.2-4.059c-3.485-.121-7.15,1.36-9.776,1.194-1.677.512-3.591,6.61-3.967,8.139-3.051-.353-6,2.832-5.293,5.8,1,3.3,2.711,3.048,4.565,3.1-.172,3.732-6.775,13.567-6.8,18.413,6.982-.551,14.537-.678,21.739-2.845a68.722,68.722,0,0,1,6.119-12.88,10.455,10.455,0,0,0,1.209-6.748c-.289-2.028.587-2.541,1.369-3.96.476-.888,2.236-.851,2.461-.916,4.581-1.324,2.944-7.236,1-8.287-2.432-1.312-5.869.721-7.19-1.939-1.4-2.815-.945-8.636-.945-8.636l-34.586.165s9.772-18.531,9.524-18.667c-2.672-1.464-7.037-6.552-7.069-6.6Zm-23.133,16.867c.161-1.874.461-32.328-28.375-47.467l.154-4c.177-.207,26.231,11.735,30.7,42.756l8.04-12.574,2.957,1.158c-4.369,6.554-13.062,22.459-13.476,20.13Zm-17.511-10.97c1.188-3.517-.761-1.651-2.537-1.8-1.215-.66-2.407-1.511-3.535-2.252,8.427-4.456,3.409-4.241-1.5-1.112-1.273-.689-2.883-2.2-2.984-2.069,9.509-6.1,5.942-6.228-.143-1.809.21-4.144.062-2.589.143-3.982,5.188-5.547.356-2.533,0-2.467-1.277-5.534,4.831-4.376,5.391-.192,1.075.8,3.188,1.785,3.811,5.218,2.933,1.864,2.625,3.408,2.489,5.641,1.148,1.131,4.109,3.518.655,5.722Zm-10.938-25.253.2-3.062c.4-1.248,22.636,14.585,21.033,34.931.263-.143-2.461-1.421-3.242-2.119C2524.293,1575.5,2508.367,1562.34,2506.295,1560.726Zm127.552,17.174c-14.839-6.787-28.929-23.05-29.669-44.2l-8.381,14.009-2.975-1.257c.278.229,6.628-11.534,13.167-19.664,1.844,26.689,12.332,39.1,28.221,48.115Zm-77.71-9.759c-14.378-1.781-35.168-21.316-28.955-47.8.882-2.689,14.748,12.21,14.749,12.209.087-.675,12.475,19.239,12.127,23.13,10.455,2.972,30.862.154,30.862.154,16.968,3.782,34.71,22.05,28.3,48.013a75.919,75.919,0,0,1-8.28-6.4c-11.451-11.047-15.085-20.124-19.143-30.138-14.661-1.325-28.407,1.3-29.664.825Zm77.848-22.054a32.978,32.978,0,0,1,.138,4.045c-3.822,4.153-4.218,4.229.572,2.894-.594,3.982-3.543,4.636-5.3,3.281-.646-.5-.652-3.244-.652-3.244-2.905-.726-3.9-1.6-3.491-4.717-3.346-.4-3.214-2.024-2.939-5.417-3.047-1.711-2.288-4.433-.485-5.6l1.507,1.036c-.484.432-.248,3.135,2.422,1.124,0,0,2.136,1.769,3.162,2.456-7.726,4.958-3.042,3.868,1.717.611.893.608,2.112,1.6,2.747,2.031C2627.117,1549.078,2625.06,1552.83,2633.985,1546.087Zm.375,16.857-.255,3.574c-15.255-9.314-19.384-21.6-20.518-34.68,0,0,2.048,1.5,2.984,2.129,1.361,16.877,16.848,28.273,17.789,28.977Zm-83.574-44.288,36.583.234-9.7,18.517,5.122,6.038s12.708-19.765,19.1-30.117l-2.211-1.319-18.238,28.6-.725-.8,17.981-28.582c-1.078-.7-3.119-1.836-3.119-1.836s-31.155.5-44.7.445a33.89,33.89,0,0,0,.534-5.171c2,2.861,4.137,5.416,8.793,2.6,0,0,5.507.185,5.709-.077a75.35,75.35,0,0,0,3.26-8.369c5.312-.355,4.783-2.918,5.387-3.759-.407-7.534-4.641-3.477-4.277-6.216,1.2-4.881,7.314-15.93,6.541-16.9-1.578-1.045-17.225,2.03-21.779,2.59-.421-.162-2.643,7.09-4.988,10.19-2.551,3.373-3.461,6.99-2.158,10.4-1.35,3.751-3.936,3.366-6.014,4.428-2.356,2.548-1.707,6.448.539,7.957,1.564,1.051,3.965,1,6.412-.987Zm72.7-26.192-4.28-5.737,4.15-6.035c-1.638-2.592-4.339-6.558-3.855-9.7,1.057-6.234,9.483-5.319,10.216.644.4,2.767-1.622,6.162-3.675,9.05,1.355,2.466,1.938,2.868,3.908,5.694-1.171,2.062-4.021,6.1-4.021,6.1,1.777,2.984,4.25,6.273,4.071,9.309-.188,2.607-3.034,5.249-5.691,4.694C2616.042,1504.753,2620.656,1495.936,2623.481,1492.464Z" fill="#e2cf00"/>
        <g id="g4049-4-4-2">
          <path id="path4033-2-3-3" d="M2546.086,1457.927c2.268,4.253,8.712,15.727,8.712,15.727,15.322-3.171,28.207-3.978,41.748-1.018L2606.22,1458Zm2,.863h2.77l5.434,11.16,9.376-1.87-1.6-9.266,2.654.015,1.342,8.911,13.774-.349,1.784-8.6,2.541.031-1.823,8.741,10.907,1.467,5.337-10.239h3.666l-8.115,12.642a96.276,96.276,0,0,0-40.779,1.084Zm5.225,0h8.088l1.939,7.533a18.237,18.237,0,0,1-5.942,1.277C2555.911,1465.01,2554.38,1461.264,2553.308,1458.79Zm15.6,0h12.308l-1.051,6.414-10.322.329Zm19.511,0h9.484l-3.743,7.788-7.153-.971Zm36.109,7.8a7.32,7.32,0,0,0-1.536.143c-2.46.515-3.75,2.4-3.77,5.481-.01,1.412,1.033,3.908,2.618,6.267a20.632,20.632,0,0,1,1.288,2.21l-4.128,6.054,4.391,5.725s-.684.8-1.09,1.374c-2.013,2.843-2.945,5.5-2.816,7.68a5.453,5.453,0,0,0,4.093,5.013,5.273,5.273,0,0,0,4.786-1.332,5.014,5.014,0,0,0,1.668-3.785c.033-2.158-1.011-4.771-3.091-7.622a8.825,8.825,0,0,1-.842-1.382s2.912-4.138,4.011-6.031l-3.98-5.7c3.164-4.745,3.8-5.8,3.89-8.713A5.452,5.452,0,0,0,2624.525,1466.586Zm-.4.348c.137,0,.275,0,.411.012,3.614.278,5.522,2.958,5.043,6.4-.491,3.28-3.454,6.337-3.929,7.393a67.045,67.045,0,0,0,4.111,5.6c-1.14,2.068-4.084,6.077-4.084,6.077a5.732,5.732,0,0,0,.357.6c3.074,4.347,3.919,6.4,3.708,9.007a4.822,4.822,0,0,1-3.821,4.262,5.213,5.213,0,0,1-6.171-4.757c-.2-2.689,1.539-5.3,2.89-7.343.572-.854,1.062-1.672,1.062-1.672l-4.375-5.733c1.334-2.11,3.018-4.18,4.255-5.961,0,0-.652-1.047-1.257-2-2.4-3.782-3.068-5.721-2.7-7.811A4.693,4.693,0,0,1,2624.129,1466.934Zm.326,1.94a3.56,3.56,0,0,0-3.119,2.438c-.733,2.664,2.076,6.7,3.356,7.781,2.4-2.75,3.922-5.834,3.037-7.994A3.7,3.7,0,0,0,2624.455,1468.874Zm.33.863c2.42.05,3.325,2.917,1.458,6.178a20.606,20.606,0,0,1-1.594,2.276s-.887-1.1-1.42-1.936c-2.163-3.378-1.6-6.016,1.051-6.487A3.4,3.4,0,0,1,2624.785,1469.737Zm-48.157,1.49A111.554,111.554,0,0,0,2554.39,1474a28.682,28.682,0,0,1-4.833,11.148c-2.1,3.429-2.864,6.415-2.16,8.461.659,1.916-1.14,4.775-3.115,4.955a4.122,4.122,0,0,0-3.987,4.358c-.07,3.892,2.621,6.278,6.276,4.955a.792.792,0,0,1,.612.193l-.213,22.277a14.9,14.9,0,0,0-5.178,1.7,56.033,56.033,0,0,0-8.452-8.148c-.072-4.958.132-9.944-.09-14.891a59.406,59.406,0,0,0-10.81,5.876c-1.082.723-1.19,1.125-.784,2.954.228,1.026.172,1.136-.675,1.343-1.743.426-2.289,3.2-.814,4.138.692.441.694.464.248,1.467a8.1,8.1,0,0,0,.051,5.756c.407.706.38.934-.159,1.285-1.858,1.206-1.732,3.787.209,4.269.5.123.626.336.462.759-.607,1.563-.054,3.938,1.338,5.736.723.935.721.925.244,1.355a2.428,2.428,0,0,0,1.412,4.212c.73.095.734.1.819.654a8.5,8.5,0,0,0,.709,2.8,6.063,6.063,0,0,0,1.994,2.373c.822.638.823.648.384,1.591-.811,1.744.479,3.473,2.537,3.4,1.049-.036,1.049-.039,1.125.333a6.279,6.279,0,0,0,4.317,4.25c.915.151,1.059.368.749,1.142a1.86,1.86,0,0,0,1.086,2.694,1.953,1.953,0,0,0,2.021.132c1.048-.359,1.059-.354,1.951.836a4.282,4.282,0,0,0,4.185,2.113c1.382.01,1.434.046,1.443,1.018a2.267,2.267,0,0,0,4.034,1.587c.567-.6.566-.6,1.071-.232,2.212,1.618,4.174,2.036,3.991.523a9.575,9.575,0,0,0-2.994-5.7l3.207.836c.141,3.739.275,8.248,1.055,11.365l-14.3,22.725s-.867-.529-1.781-1.157c-1.344-.925-2.989-2.013-4-2.644a15.265,15.265,0,0,1-1.7-1.153c-.5-.414.308-.96.477-1.4,3.293-5.866,8.445-12.917,12.2-19.772l-3.631-1.4c-2.778,4.364-4.823,7.876-7.409,11.9-2.575-18.855-15.761-35.407-31.714-42.378l.055,4.936a51.882,51.882,0,0,1,28.382,47,18.78,18.78,0,0,1-3.208-1.92c-.953-.633-2.869-1.883-3.107-2.005.775-23.047-22.129-36.674-22.168-36.03,0,0-.144,2.979-.21,4.359,9.76,6.525,17.428,18.4,18.2,28.961.009.087-4.581-2.856-4.581-2.856a3.286,3.286,0,0,0,.012-5.826c-.616-.276-.652-.409-.346-1.239.63-1.7-.524-4.265-2.114-4.7-.7-.188-.811-.371-.845-1.347a3.309,3.309,0,0,0-2.836-3.344c-.492-.109-.5-.113-.523-.728-.151-3.458-3.54-4.867-6.082-2.528a4.23,4.23,0,0,0-.582.759l-.02,3.751c.869-.477,2.186-2.107,2.727-2.04.6.07.308.471-1.035,1.63-.872.751-1.719,1.544-1.719,1.544l.055,4.939c1.448-.938,2.9-2,4.255-2.942,1.169-.814,1.768-1.079,1.912-.844.161.265-.1.61-.764,1.007-1.783,1.185-3.857,2.576-5.357,3.747l0,3.4.287.422.086,2.981-.268.065,0,3.755,35.224,22.455,17.925-28.218.294.3-17.928,28.1a9.16,9.16,0,0,0,1.435,1c.712.4,1.6.928,2.362,1.433a1.886,1.886,0,0,0,1.661,1.029c.617-.672,3.31-1.383,3.568-1.693,10.029-.147,38.816.048,38.816.048l.163,4.6c-1.293-4.456-5.467-5.375-8.747-3.379l-5.387.007c-.042,0-3.189,5.723-3.65,8.709-2.265-.307-5.278,1.9-5.431,4.131-.367,3.18,1.727,5.5,4.465,5.047a14.852,14.852,0,0,1-1.978,5.6,85.964,85.964,0,0,0-4.368,10.417c-.849,2.314-.559,2.725-.415,2.783a76.67,76.67,0,0,0,23.06-3.349s-.141-.542-.21-.847c-.275-1.233.763-3.755,3.7-8.965,2.266-4.024,2.915-5.56,3.142-7.459a7.637,7.637,0,0,0-.241-3c-.021-.167-.151-.408-.116-.588a9.394,9.394,0,0,1,2.122-3.279s.668-.124.935-.147c4.155-.291,5.443-5.927,1.935-8.469a4.875,4.875,0,0,0-4.527-.65l-.031-21.859,2.526.095,2.777-1.368c4.461,3.8,7.37,7.687,12.172,10.614l-.078.193-3.568-2.442.008,14.322a66.128,66.128,0,0,0,11.694-7.127l-.748-.646.031-2.048c3.489.275,3.825-4.158.958-4.687a4.021,4.021,0,0,1,.341-.921,6.632,6.632,0,0,0,.349-5.373c-.391-1.144-.374-1.431.09-1.428,2.119.011,1.924-3.743-.237-4.564-.744-.283-.691-.048-.539-2.377a5.631,5.631,0,0,0-1.61-4.471c-.489-.579-.448-.858.182-1.242,1.81-1.1.5-4.285-1.726-4.192-.869.036-.867.035-.942-.832a6.914,6.914,0,0,0-3.146-5.365c-.518-.282-.594-.513-.3-.9,1.424-1.9.093-4.5-1.916-3.739-.389.147-.8.294-.911.329-.159.049-.287-.173-.594-1.034-.835-2.345-1.577-3.08-4.236-4.2-.522-.219-.553-.374-.318-1.444.408-1.846-2.141-3.565-3.518-2.372-.56.485-.579.481-1.21-.326a8.331,8.331,0,0,0-5.124-2.639c-.871-.079-1-.146-.931-.48a2.225,2.225,0,0,0-3.557-2.377c-.881.653-1.109.673-2.013.166-1.9-1.064-2.734-1.1-2.933-.143a6.615,6.615,0,0,0,.311,2.338,5.878,5.878,0,0,0,2.374,3.3s-2.178-.6-2.727-.712c.054-.057-.159-7.544-1.587-11.783l13.922-22.11,7.975,5.249-12.754,20.132,3.712,1.506s4.957-8.218,7.552-12.248c1.7,20.012,17.2,37.559,31.245,42.765-.048.024.045-2.877.1-4.281-14.816-6.51-28.908-24.7-28.021-46.535l5.951,3.8c1.727,17.5,9.365,27.754,22.1,36.424v-5.361c-8.769-6.475-16.055-14.934-17.987-28.469,0,0,2.973,1.874,4.306,2.763a5.21,5.21,0,0,0-.57.376c-1.591,1.321-1.113,4.032.985,5.566.34.249.344.25.023,1.1a3.215,3.215,0,0,0,2,4.169c.95.246.944.234.962,1.32.033,2.108.885,3.08,3.141,3.584.309.069.32.1.315,1.046a2.981,2.981,0,0,0,4.185,2.922,26.314,26.314,0,0,0,2.537-1.912v-3.751s-.872.711-1.5,1.3c-1.1,1.025-1.45,1.152-1.447.526,0-.454.51-1.049,1.567-1.835a14.933,14.933,0,0,0,1.381-1.277v-4.37a3.365,3.365,0,0,1-.462-1.711,10.994,10.994,0,0,1,.159-1.277l.528.011-.008-5.059-.64-.5.027-3.352-34.829-22.49-18.141,28.791-.454-.53,18.161-28.609-4.825-3.077-2.913,1.432s-20.16-.317-39.821-.066c0,0-.047-.541-.039-2.071.01-1.922.1-2.192.454-1.382a5.083,5.083,0,0,0,5.062,2.811,4.9,4.9,0,0,0,2.913-.887c.535-.288.632-.3,3.153-.278,2.7.019,3.19-.08,3.193-.651a56.205,56.205,0,0,0,2.405-6.479c.258-.9.374-1.3.585-1.487.165-.143.294-.111.687-.135a4.1,4.1,0,0,0,3.456-1.436c2.5-2.505,1.065-7.6-2.552-7.618-.958-.005-.3-2.55,1.722-6.677a67.826,67.826,0,0,0,3.472-7.788,17.853,17.853,0,0,0,1.132-4.03C2577.037,1471.226,2576.833,1471.226,2576.628,1471.227Zm-.19,1.235c.5.419-.751,3.5-3.006,8.171a50.35,50.35,0,0,0-3.091,7.177c-.115.4-.278.983-.365,1.289a1.518,1.518,0,0,1-.71.948c-.3.217-.727.536-.943.708-.609.489-.754.333-.6-.65.278-1.825,1-3.793,2.677-7.219a74.683,74.683,0,0,0,3.634-8.628c.227-.7.333-1.4.71-1.661a2.422,2.422,0,0,1,1.7-.135Zm-2.715.178c.345.238-1.292,4.462-4.127,10.327-3.538,7.318-3.725,12.445-.543,13.7,2.508.989,5.035-1.77,3.487-3.782a1.8,1.8,0,0,0-2.905-.046c-.3.547.117,1.177.655.41.782-1.116,2.349.173,1.971,1.494a2.356,2.356,0,0,1-2.32,1.479c-3.476-.692-2.821-5.584.784-5.853,3.449-.257,5.017,4.365,2.513,7.01a4.068,4.068,0,0,1-3.344,1.282c-2.245,0-4.343-1.854-4.131-3.569a6.717,6.717,0,0,0-.19-4.076,2.992,2.992,0,0,1-.368-1.293c.032-1.391,1.179-3.55,3.739-8.884a50.228,50.228,0,0,0,2.6-7.315c.2-.612.1-.784.33-.869A2.873,2.873,0,0,1,2573.723,1472.64Zm-2.96.074c.526.022-.684,3.87-2.207,7.149-1.156,2.51-2.735,5.735-3.91,8.717-.376.632-.626.681-1.4.271-.848-.452-.6-1.172,1.4-5.144a61.593,61.593,0,0,0,3.976-9.867,1.357,1.357,0,0,1,.574-.968,3.316,3.316,0,0,1,1.559-.158Zm-2.816.433c.28.37-1.554,5.557-4.391,11.407-.606,1.242-1.016,2.378-1.625,3.647a5.76,5.76,0,0,1-1.986.557c-.582-.077-.03-1.168,1.629-4.517,1.353-2.73,1.737-3.5,2.448-5.164.518-1.216,1.271-3.305,1.978-5.256.057-.158.111-.508.264-.589A2.2,2.2,0,0,1,2567.947,1473.147Zm-2.769.325c.046.125-.059.383-.1.581a44.1,44.1,0,0,1-2.211,6.027c-.089.272-.906,1.971-1.816,3.774s-1.743,3.525-1.854,3.828-.412,1.108-.671,1.788c-1.632,3.495.123,6.25,2.285,6.442,3.373.279,3.691-4.439,1.312-4.893a1.506,1.506,0,0,0-1.89,1.371c-.063.538.6,1.163.591.39-.035-1.406,1.933-1.341,2.176-.147.472,2.327-2.178,3.464-3.756,1.637a2.754,2.754,0,0,1-.524-2.38,3.1,3.1,0,0,1,4.961-2.017,4.272,4.272,0,0,1-1.943,7.679,4.436,4.436,0,0,1-4.108-1.188,5.192,5.192,0,0,1-1.291-2.988,8.786,8.786,0,0,1-.024-2.319c.32-2.441,2.1-6.007,3.67-9.026,1.208-2.506,2.157-5.815,3.258-8.477.311-.227,1.978-.437,1.932-.082Zm-2.975.333c.179.055-.742,2.948-2.056,6.073-1.446,3.171-3.323,6.8-4.387,9.917-.335.766-.579.743-1.532-.143-.5-.467-.22-1.164,1.543-4.757a77.726,77.726,0,0,0,4.128-9.2c.191-.618.345-1.377.752-1.618a2.164,2.164,0,0,1,1.552-.271Zm-2.712.693a51.283,51.283,0,0,1-2.835,6.956c-1.009,2.062-2,4.347-2.991,6.476-.556,1.313-.572,1.312-1.52,1.509-1.6.333-1.6.316-.187-2.543.42-.849,1.227-2.409,1.8-3.464a57.158,57.158,0,0,0,3.259-7.618,3.233,3.233,0,0,1,.632-1.239C2557.809,1474.488,2559.068,1474.113,2559.491,1474.5Zm-3.495.348a.8.8,0,0,1,.664.2c.071.649-1.686,4.8-2.766,6.723-.33.59-.657,1.355-1.028,2.036a37.056,37.056,0,0,0-3.456,8.125c-.677,2.768,2.493,4.861,4.137,2.848,1.044-1.218-.042-3.409-1.546-2.8-.525.213-.311.447.407.507,1.184.1,1.273,1.921.019,2.321a1.927,1.927,0,0,1-2.417-2.017,2.736,2.736,0,0,1,4.528-2.081c1.734,1.442,2.011,4.869-.617,6.2-2.561,1.3-5.716-.46-6.35-3.53-.483-2.343.041-4.49,2.3-8.1a45.273,45.273,0,0,0,4.348-8.817,4.924,4.924,0,0,1,.566-1.2,2.039,2.039,0,0,1,1.21-.411Zm68.676,7.374-3.44,4.367c.992,1.431,3.351,4.246,3.351,4.246l3.262-4.2Zm.031,2.443,1.424,1.842-1.629,1.92-1.529-1.792Zm.128,9.491s-4.159,4.549-3.2,7.923c.854,3.007,5.386,3.738,6.49-.661a5.526,5.526,0,0,0-.031-1.413C2627.991,1498.211,2624.831,1494.154,2624.831,1494.154Zm0,.9s1.195,1.728,2.037,3.259c.942,1.456,1.189,5.526-2.157,5.4-1.814.187-3.545-2.2-2.1-5.117A40.32,40.32,0,0,1,2624.831,1495.052Zm-68.656.732c.231-.036.463.462.609.824a3.923,3.923,0,0,1-.966,2.617,19.088,19.088,0,0,0-2.013.762,8.1,8.1,0,0,1,.535-2.21c.774-.764,1.431-1.673,1.738-1.943A.186.186,0,0,1,2556.175,1495.784Zm-8.289.255c.511.578,1.013,1.079.993,1.436-.031.523-.647,1.17-1.114,1.63-.585.577-1.753.234-1.749-.515A10.3,10.3,0,0,1,2547.886,1496.039Zm17.606.751a2.821,2.821,0,0,1,1.059,1.571,33.891,33.891,0,0,1-3.313,8.466,5.232,5.232,0,0,1-2.339-.062,29.766,29.766,0,0,0,3.833-8.284C2565.083,1497.358,2565.244,1496.793,2565.492,1496.79Zm-1.521.546c.276-.016.383.206.152.809-1.061,4.3-3.445,8.823-5.318,9.646a4.572,4.572,0,0,1-5.958-1.665c-1.138-2-.936-5.157,2.855-5.848,2.229-.229,4.514,1.526,3.324,4.346-1.324,2.093-4.884.927-3.84-1.772.788-.989,2.439-.132,1.9.987-.273.567-.009.916.4.522,1.3-1.261-.837-3.425-2.277-2.342-2.348,1.767.552,5.649,3.285,3.983.834-.507,2.34-3.355,2.906-5.43a4.748,4.748,0,0,1,1.039-2.284A3.363,3.363,0,0,1,2563.971,1497.336Zm-6.225.17a1.4,1.4,0,0,1,.508.178c.274.135.6.38.558.7a2.841,2.841,0,0,1-.675,1.548c-.254-.087-.956-.367-1.435-.495-.3-.081.1-.727.283-1.084.3-.576.46-.817.7-.84A.379.379,0,0,1,2557.746,1497.506Zm-7.746.147c.353-.006.914.385,1.283.438.072.534-.609,1.677-1.718,3.026-.909,1.108-.905,1.11-1.509-.108-.393-.793-.4-.771.718-2.164.6-.748.893-1.091,1.156-1.184A.511.511,0,0,1,2550,1497.653Zm3.518.391a4.753,4.753,0,0,1-.252,1.281c-1.258,3.748-4.2,7.461-6.618,8.373-3.162,1.031-6.059-.631-6.132-4.463.08-4.515,5.467-5.767,7.094-1.649.735,1.859-1.267,4.654-3,4.188-1.747-.47-2.476-3.191-1.036-3.863a1.182,1.182,0,0,1,1.715,1.3c-.072.346-.052.394.151.356.9-.168.424-1.967-.636-2.416-2-.847-3.516,1.845-2.165,3.852,1.618,2.4,4.163,1.942,5.629-1.022a9.088,9.088,0,0,1,1.051-1.606,14.193,14.193,0,0,0,1.955-2.783,11.838,11.838,0,0,1,.884-1.464A5.471,5.471,0,0,0,2553.518,1498.044Zm7.094.2c.38,0,.672.25.664.775a10.335,10.335,0,0,1-.931,2.732c-.113.17-.376.765-.415.635a6.979,6.979,0,0,0-1.125-1.935c-.111-.379.223-.743.372-1.084A1.734,1.734,0,0,1,2560.612,1498.241Zm6.687.585c.459,0,1.108.206,1.242.546.418.733-2.414,7.558-2.518,7.579l-2.114-.093a66.218,66.218,0,0,0,3.208-8.017A1.288,1.288,0,0,1,2567.3,1498.826Zm28.363,10.8,2.688,1.595-17.719,28.1-2.575-1.966Zm-44.208.581c16.55.061,39.344.031,39.344.031l-.962,1.823s-24.9-.242-38.382-.217Zm-22.342,1.15-.035,9.235a63.6,63.6,0,0,0-6.921-4.706S2526.622,1512.911,2529.112,1511.36Zm70.863.917,1.664,1.049-18.618,29.573-1.036-2.028Zm-48.517.41h2.591v2.923h-2.591Zm5.935,0h3.146v2.923h-3.146Zm6.873.031h3.235v2.923h-3.235Zm6.746.012h3.269v2.922h-3.269Zm6.795.019h3.228v2.923h-3.228Zm6.8.062h3.3v2.059l-.5.864h-2.8Zm17.793.952,31.578,20.388-.02,2.814-32.873-21.2Zm-2.072,2.385.272.193-1.338,2.044-.276-.155Zm-48.781.3h35.446l-1.067,1.792-34.379-.05Zm-29.1.913a3.71,3.71,0,0,1,1.427.6c1.743.976,2.84,3.035,2.087,3.778-.67.661-2.239-.755-3.212-2.779C2522.234,1517.889,2522.1,1517.386,2522.448,1517.363Zm62.718,1.765-11.435,18.239c-2.585-3.535-5.483-6.589-11.812-4.521-3.3-2.545-6.787-2.938-10.5-.778l.043-12.878Zm-58.867.008.893.77a9.727,9.727,0,0,0-.555,1.878,10.24,10.24,0,0,0-.337-2.648Zm72.493.19,35.232,23.132v2.144l-36.461-23.442Zm-77.167.526a1.558,1.558,0,0,1,1.238.588,1.675,1.675,0,0,1-.435,2.311,1.558,1.558,0,0,1-2.094-2.26A1.789,1.789,0,0,1,2521.625,1519.852Zm5.834.275,1.924,1.537c-3.339,19.005,6.2,38.192,26.749,43.941l.233,2.435c.039.116-8.73-2.6-12.56-5.458a39.564,39.564,0,0,1-12.711-14.3,41.558,41.558,0,0,1-3.961-11.167A47.4,47.4,0,0,1,2527.459,1520.127Zm-2.184,2.578c.738.03.818.56.225,1.579a7.186,7.186,0,0,1-3.754,3c-1.02.428-1.286.234-1.168-.852.178-1.632,1.315-2.826,3.286-3.456a5.345,5.345,0,0,1,1.411-.271Zm5.664.205.764.646a1.6,1.6,0,1,0,2.1,1.785c.288.246.558.476.768.658a2.522,2.522,0,1,1-3.63-3.089Zm1.284,1.262a.878.878,0,0,1,.252.039l.558.476a.878.878,0,0,1,.089.383.9.9,0,1,1-.9-.9Zm-6.063.581a66.567,66.567,0,0,0-.066,7.579,6.861,6.861,0,0,0-3.293-4.595,15.27,15.27,0,0,0,3.359-2.984Zm9.259,1.923,1.71,1.475c-1.471,20.119,16.2,27.753,16.672,27.417l.745,2.276c-12.2-4.143-20.634-16.727-19.127-31.168Zm98.411,48.232-.089,2.534c-13.844-5.361-29.622-25.139-29.421-44.089-3.555,5.439-5.552,9.068-8.6,13.966l-2.429-1.154c3.995-5.938,7.792-12.29,11.8-18.124.456-.658.83-.96.851.48,0,6.52,2.024,33.344,27.894,46.387Zm-112.565-46.66a3.351,3.351,0,0,1,1.885.724c1.266.847,2.686,3.465,2.2,4.049-.441.525-2.319-.1-3.25-1.084C2520.248,1529.986,2520.127,1528.32,2521.265,1528.248Zm10.8.263a2.518,2.518,0,1,1-2.526,2.516A2.521,2.521,0,0,1,2532.06,1528.511Zm5.651.24,1.649,1.928c.322,16.885,13.677,22.091,13.553,22.133l.4,1.815C2552.572,1554.731,2536.792,1547.563,2537.711,1528.751Zm-5.651.674a1.6,1.6,0,1,0,1.606,1.6A1.6,1.6,0,0,0,2532.06,1529.425Zm0,.7a.9.9,0,1,1-.9.9A.9.9,0,0,1,2532.06,1530.129Zm8.533,1.529c.2,0,1.156,1.382,1.156,1.382s-1.046.366-1.5-.089S2540.045,1531.655,2540.593,1531.658Zm73.129.623,2.475,1.688c1.155,11.391,7.694,21.783,17.556,28.992l-.062,2.822C2621.68,1557.684,2615.011,1546.68,2613.722,1532.281Zm-92.721.194c.04,0,.081,0,.12,0a1.582,1.582,0,1,1-1.7,1.792,1.713,1.713,0,0,1,1.2-1.723A1.7,1.7,0,0,1,2521,1532.475Zm20.651,1.521a1.744,1.744,0,0,1,1.238.689c1.085,1.222,1.075,1.576-.07,2.04-1.611.652-2.95-.254-2.413-1.634C2540.689,1534.367,2541.142,1533.995,2541.652,1534Zm-16.489.058a.949.949,0,0,1,.365.058c1.187.462-1.387,5.167-3.088,5.644-1.081.3-1.307-.118-.954-1.769C2521.879,1536.152,2523.9,1534.08,2525.163,1534.054Zm7.572.108a2.518,2.518,0,1,1-2.526,2.516A2.521,2.521,0,0,1,2532.735,1534.162Zm0,.914a1.6,1.6,0,1,0,1.6,1.6A1.6,1.6,0,0,0,2532.735,1535.076Zm-6.311.135a27.983,27.983,0,0,0,1.64,7.355,10.84,10.84,0,0,0-3.688-3.2C2525.308,1537.98,2526.386,1536.6,2526.424,1535.211Zm6.311.569a.9.9,0,1,1-.9.9A.9.9,0,0,1,2532.735,1535.78Zm14.289.275a4.19,4.19,0,0,1,4.38,4.181,58.592,58.592,0,0,1-.035,6.94l-2.137-3.906c-.031-1.106.158-1.944.073-3.046a2.36,2.36,0,0,0-3.289-2.257l-.919-1.49A5.362,5.362,0,0,1,2547.024,1536.055Zm9.275.3a3.613,3.613,0,0,1,3.972,3.852c.144,4.724-.109,15.51-.109,15.51l-5.337,0-2.913-7.207a7,7,0,0,1-.093-1.2c.185-2.311.069-4.884.147-6.971A4.521,4.521,0,0,1,2556.3,1536.353Zm-12.351.747a1.21,1.21,0,0,1,.9.345c1.239,1.249,1.231,2.068-.023,2.632-1.659.746-2.522.6-3.088-.5C2541.186,1538.488,2542.722,1537.116,2543.948,1537.1Zm77.811.341,1.354.871s-.285.444-.438.708c-.769,1.32.537,2.094,2.346,1.394a3.818,3.818,0,0,0,.6-.306l1.118.759s-.806.434-1.684.863c-2.258,1.1-3.881.635-4.426-1.274a2.771,2.771,0,0,1,.423-2.26A9.4,9.4,0,0,1,2621.759,1537.441Zm-57.252.159a4.709,4.709,0,0,1,4.553,3.7c.2,1.014-.058,14.415-.058,14.415l-8.2,0,.144-14.059a3.6,3.6,0,0,1,.477-2.4A4.1,4.1,0,0,1,2564.507,1537.6Zm-8.511.615c-1.655.076-2.6,2.752-.892,4.014.712.527.726.626.345,2.408a9.533,9.533,0,0,0,1.032,6.383c.78,1.3.62.634.221-.523-.513-2.169-.261-3.762.993-6.282,1.121-2.123,2.208-5.387-1.357-5.977A1.658,1.658,0,0,0,2556,1538.215Zm68.021.612.741.5s-.111.092-.272.248c-.3.286-.886.332-1.067.112C2623.12,1539.322,2624.017,1538.827,2624.017,1538.827Zm-59.045,1.037c-1.779-.059-2.951,3.234-.675,4.03.517.333.6.769.283,1.385a9.508,9.508,0,0,0-.8,3.616,13.768,13.768,0,0,0,.636,3.251c.6,1.472.478.884.322-.817a8.319,8.319,0,0,1,1.432-5.086c1.315-2.177,3.127-5.718-1.028-6.363a1.5,1.5,0,0,0-.175-.016Zm-30.612.012a2.518,2.518,0,1,1-2.525,2.516A2.521,2.521,0,0,1,2534.36,1539.876Zm11.7.255c.435,0,.763.285,1.159.875,1.09,1.622.965,1.954-1.136,3.108-2.227,1.223-3.716-1.851-1.587-3.274a3.627,3.627,0,0,1,1.474-.7C2546,1540.132,2546.034,1540.131,2546.063,1540.131Zm-23.111.12c2.349.024,6.018,3.37,4.228,3.856a2.934,2.934,0,0,1-.714.108C2523.516,1544.035,2520.135,1540.222,2522.952,1540.251Zm11.408.538a1.6,1.6,0,1,0,1.606,1.6A1.6,1.6,0,0,0,2534.36,1540.789Zm93.016.473,1.171.793s-.716.329-1.559.778c-2.291,1.221-2.956,2.117-2.164,2.915a1,1,0,0,0,1.218.182,34.812,34.812,0,0,0,4.549-2.555l.881.6c-.02-.041-3.5,2.47-5.4,3.526-2.985,1.53-4.69-1.6-3.03-3.685C2624.32,1542.549,2625.693,1542.132,2627.376,1541.262Zm-93.016.232a.9.9,0,1,1-.9.9A.9.9,0,0,1,2534.36,1541.494Zm94.847.84.64.429s-.069.033-2.025,1.154c-2.128,1.22-2.221,1.241-2.339,1.049-.1-.058.041-.556.694-.995A28.95,28.95,0,0,1,2629.207,1542.334Zm-55.364.062a4.2,4.2,0,0,1,3.77,2.129,8.643,8.643,0,0,1,.462,3.325l-.035,7.869h-8.254a74.436,74.436,0,0,1,0-9.828A4.106,4.106,0,0,1,2573.843,1542.4Zm-25.635,1.165c.524-.039.91.475,1.408,1.587s.122,1.724-1.428,2.392a1.511,1.511,0,0,1-.5.139,1.756,1.756,0,0,1-1.083-3.046C2547.307,1543.955,2547.8,1543.591,2548.208,1543.561Zm83.892.8.718.445s-.368.332-3.033,2.272c-2.153,1.567-2.463,1.993-2.014,2.872.363.71,1.151.618,2.239-.216,1.508-1.157,3.882-3.116,3.882-3.116l.078,1.339c-1.563,1.253-3.448,3.39-4.949,4.2-2.9,1.423-4.975-2.487-2.328-4.413A61.631,61.631,0,0,1,2632.1,1544.366Zm-57.943,0c-2.157-.018-2.96,3.178-.64,3.855.668.357.612.541.167,2.133a7.124,7.124,0,0,0-.209,2.907c.173.963.387.94.3-.093a8.606,8.606,0,0,1,1.168-3.019c2.152-2.993,1.587-5.755-.784-5.783Zm-50.27.038a1.6,1.6,0,0,1,.985,2.842c-.875.6-2.705-.133-2.7-1.088a1.819,1.819,0,0,1,1.424-1.726,1.632,1.632,0,0,1,.291-.028Zm4.1.167c.448,0,.706.654.7,1.951a5.7,5.7,0,0,1-1.808,4.428c-1.651,1.371-2.02-2.367-.477-4.839C2527.043,1545.086,2527.587,1544.576,2527.983,1544.575Zm105.63.491c.407-.006.343.3-.128.631-.366.254-.987.762-2.909,2.381-.349.294-.849.677-1.109.852-.641.428-1.183.316-.873-.179A30.548,30.548,0,0,1,2633.613,1545.066Zm-96.732.086a2.518,2.518,0,1,1-2.525,2.516A2.52,2.52,0,0,1,2536.881,1545.152Zm0,.913a1.6,1.6,0,1,0,1.606,1.6A1.6,1.6,0,0,0,2536.881,1546.065Zm-30.2.047c17.078,8.616,27.725,24.737,30.352,43.1l8.3-13.134,2.242.844-12.09,19.664-.524-.163c-.05-19.21-9.645-37.383-28.316-47.355Zm30.2.658a.9.9,0,1,1-.9.9A.9.9,0,0,1,2536.881,1546.77Zm-7.048.1a30.95,30.95,0,0,0,3.061,5.353c-1.425-1.335-2.981-1.277-4.523-1.478Zm20.306.356a.843.843,0,0,1,.737.383c.7.958.828,1.847.342,2.327a1.374,1.374,0,0,1-2.2-.538A1.557,1.557,0,0,1,2550.139,1547.23Zm83.753,1.332.028,1.49a8.984,8.984,0,0,1-.656.7,13.624,13.624,0,0,0-2.347,2.667c-.3,1.175.862,1.606,2.01.743.4-.3.965-.751.965-.751v1.835c-.968.821-1.933,1.628-3.254,1.362a2.214,2.214,0,0,1-1.586-1.61c-.552-2.311,1.692-3.6,3.432-5.148C2633.046,1549.348,2633.892,1548.562,2633.892,1548.562Zm-93.454,1.3c.043,0,.085,0,.128,0a2.462,2.462,0,1,1-.128,0Zm50.705.566a1.662,1.662,0,0,1,1,2.891,1.8,1.8,0,0,1-1.974.317C2588.631,1552.57,2589.761,1550.5,2591.143,1550.428Zm-2.746,1.467c.8.842,1.4,3.291.931,3.754-1.038,1.069-4.054-2.487-3.874-4.811C2585.774,1549.444,2588.1,1551.583,2588.4,1551.9Zm-36.9-1.336a.576.576,0,0,1,.555.825c-.124.29-.576.313-.935.166C2550.5,1551.3,2550.788,1550.555,2551.493,1550.559Zm-10.927.217a1.6,1.6,0,1,0,1.606,1.6A1.6,1.6,0,0,0,2540.566,1550.776Zm-12.021.7c3.046,0,6.258,2.4,3.464,2.873a5.265,5.265,0,0,1-5.035-1.529c-.821-.749-.528-1.146.966-1.313a5.553,5.553,0,0,1,.6-.031Zm12.021,0a.9.9,0,1,1-.9.9A.9.9,0,0,1,2540.566,1551.48Zm4.216,2.28c.043,0,.089,0,.132,0a2.46,2.46,0,1,1-.132,0Zm49.623.128a2.531,2.531,0,0,1,1.719.457c.446.408-.225,1.191-1.595,1.858-1.6.778-4.391.67-4.387-.171C2590.148,1554.915,2592.564,1553.919,2594.405,1553.888Zm-60.79.662c1.4.007,1.779,4.339.563,6.414-.631,1.077-1.481.357-2.087-1.769C2531.593,1557.451,2532.548,1554.544,2533.615,1554.55Zm11.3.124a1.6,1.6,0,1,0,1.606,1.6A1.6,1.6,0,0,0,2544.914,1554.674Zm52.323.282a1.25,1.25,0,0,1,.469.159c1.528.749,2.639,4.244,1.843,5.8-.839,1.641-2.724-1.517-2.708-4.536,0-.987.07-1.385.345-1.421A.428.428,0,0,1,2597.237,1554.956Zm-67.59.225h.1c1.382.034,2.386,1.94,1.086,2.918a1.864,1.864,0,0,1-1.982.155,1.685,1.685,0,0,1,.1-2.88A1.656,1.656,0,0,1,2529.647,1555.181Zm15.267.2a.9.9,0,1,1-.9.9A.9.9,0,0,1,2544.914,1555.378Zm-9.433.3a33.06,33.06,0,0,0,4.243,4.343,9.289,9.289,0,0,0-4.138-.066A10.72,10.72,0,0,0,2535.481,1555.68Zm49.227.256c20.764,4.85,33.44,26.837,28.428,47.463a9.191,9.191,0,0,1-2.024-1.44,43.637,43.637,0,0,0,.267-14.906,36.806,36.806,0,0,0-26.551-28.644A12.371,12.371,0,0,1,2584.708,1555.936Zm11.189.151c.235,1.41.461,2.832.809,4.1a25.786,25.786,0,0,0-4.816-2.678A11.96,11.96,0,0,0,2595.9,1556.087Zm5.987.453a1.553,1.553,0,0,1,1.648,1.583,2.192,2.192,0,0,1-.857,1.44,1.582,1.582,0,0,1-2.188-2.067A1.522,1.522,0,0,1,2601.884,1556.54Zm-52.168.545a2.518,2.518,0,1,1-2.525,2.516A2.521,2.521,0,0,1,2549.716,1557.085Zm0,.914a1.6,1.6,0,1,0,1.606,1.6A1.6,1.6,0,0,0,2549.716,1558Zm-42.966.24c10.317,6.076,19.572,19,20.259,33.614l-2.5-1.63c-1.075-9.843-6.125-20.553-17.843-29.333C2506.668,1560.89,2506.7,1559.945,2506.75,1558.239Zm57.132,0h13.336v2.868l4-2.055v6.344l-4-2.415v2.767h-13.336v-2.911l-4.084,1.971.046-6.314,4.038,2.265Zm-14.166.464a.9.9,0,1,1-.9.9A.9.9,0,0,1,2549.716,1558.7Zm5.245.5a.4.4,0,0,1,.05,0l.159.913c-.026,0-.051,0-.077,0a1.6,1.6,0,1,0,.6,3.089l.155.917a2.519,2.519,0,1,1-.892-4.915Zm30.123.317c.044,0,.088,0,.132,0a2.514,2.514,0,0,1,.57,4.966l-.151-.906a1.6,1.6,0,0,0-.419-3.147c-.036,0-.073,0-.109,0l-.155-.905C2585,1559.531,2585.04,1559.526,2585.084,1559.524Zm17.707.852c3.114.016,4.407,1.8,1.854,2.558a6.413,6.413,0,0,1-4.259-.511C2599.112,1561.86,2600.867,1560.365,2602.791,1560.376Zm-65.091.17a4.846,4.846,0,0,1,2.02.368c1.3.615,1.272,1.033-.12,1.834-1.941,1.118-6.513-.013-5.132-1.269A5.254,5.254,0,0,1,2537.7,1560.546Zm17.393.275a.882.882,0,0,1,.2.023l.28,1.633a.9.9,0,1,1-.481-1.656Zm30.131.321a.9.9,0,0,1,.291,1.742Zm5.492.642a2.518,2.518,0,1,1-2.525,2.516A2.521,2.521,0,0,1,2590.716,1561.784Zm-49.157.635a.757.757,0,0,1,.5.209,5.863,5.863,0,0,1,1.672,5.791c-.568,1.854-2.927-1.438-2.913-4.064C2540.825,1563.144,2541.11,1562.444,2541.559,1562.419Zm65.379.221c.208,0,.43.16.648.522.94,1.562.9,4.787-.078,5.791-.553.57-.758.462-1.334-.7C2605.19,1566.265,2605.932,1562.632,2606.938,1562.64Zm-16.222.058a1.6,1.6,0,1,0,1.606,1.6A1.6,1.6,0,0,0,2590.716,1562.7Zm-47.152.43a48.246,48.246,0,0,0,5.889,3.209,6,6,0,0,0-4.752,1.045A5.764,5.764,0,0,0,2543.564,1563.128Zm57.292.339a13.056,13.056,0,0,0,4.476.123,13.878,13.878,0,0,0-.277,4.267,27.11,27.11,0,0,0-4.2-4.39Zm-10.14-.065a.9.9,0,1,1-.9.9A.9.9,0,0,1,2590.716,1563.4Zm-51.174.856a1.505,1.505,0,0,1,.066,2.725c-1.429.929-3.292-.7-2.4-2.1a1.766,1.766,0,0,1,2.335-.623Zm56.24.817a2.518,2.518,0,1,1-2.525,2.516A2.52,2.52,0,0,1,2595.782,1565.075Zm14.771.422a1.544,1.544,0,0,1,.749.181,1.5,1.5,0,1,1-2.029,2.06A1.5,1.5,0,0,1,2610.553,1565.5Zm-24.356.371c12.429,4.222,20.753,18.02,18.747,31.3l-1.551-1.463c1.181-7.527-2.962-21.911-16.8-27.815Zm9.585.12a1.6,1.6,0,1,0,1.606,1.6A1.6,1.6,0,0,0,2595.782,1565.988Zm0,.7a.9.9,0,1,1-.9.9A.9.9,0,0,1,2595.782,1566.693Zm-47.256.158c.634.056,1.7-.058,1.955.538.282.755-1.269,2.059-3.235,2.315-.8.048-2.517.251-2.879-.325C2544.028,1568.661,2546.343,1566.873,2548.526,1566.851Zm-39.457.442c1.68-.074,3.574,2.169,1.874,4a35.33,35.33,0,0,1-4.147,3.321v-1.231s2.729-1.992,2.774-2.887a1.1,1.1,0,0,0-1.812-1c-.189.124-.938.732-.938.732l.062-2.063a3.258,3.258,0,0,1,2.187-.867Zm42.92.526c1.246.048,4.134,4.491,3.4,5.4-.582.72-2.928-.877-3.809-2.594-.473-.921-.331-2.564.241-2.779A.433.433,0,0,1,2551.989,1567.819Zm19.209.538s.128,10.338-.454,11.314c-2.335,4.217-7.374,2.023-7.8-1.138-.31-1.906-.125-10.157-.125-10.157Zm.737,0h8.052s-.036,14.552-.36,15.387a5.462,5.462,0,0,1-2.169,2.171c-2.365,1.031-4.893-.432-5.519-3.193-.452-1.992,0-14.365,0-14.365Zm8.727,0h5.345s.184.772.4,1.4c.371,1.106,1.631,4.277,1.777,4.471.652.87.685,10.382.038,11.465-2.357,3.528-6.281,2.5-7.715-1.405C2580.144,1583.041,2580.662,1568.357,2580.662,1568.357Zm6.234.36c9.586,4.544,16.923,14.179,16,26.542l-1.761-1.753c.642-8.534-5.867-19.2-13.464-22.37Zm13.2.29a2.518,2.518,0,1,1-2.526,2.516A2.521,2.521,0,0,1,2600.1,1569.007Zm9.456.256a4.91,4.91,0,0,1,2.941,1.041c1.023.843,1.166,1.509.372,1.754a4.71,4.71,0,0,1-4.535-1.123C2607.256,1569.878,2608.182,1569.243,2609.552,1569.263Zm-9.456.658a1.6,1.6,0,1,0,1.6,1.6A1.6,1.6,0,0,0,2600.1,1569.921Zm-50.511.2a1.653,1.653,0,0,1,.93,2.853,2.144,2.144,0,0,1-2.079.151A1.673,1.673,0,0,1,2549.585,1570.122Zm17.777.48a21.628,21.628,0,0,1-1.754,3.7c-1.587,2.642-1.381,4.413.3,5.307a2.017,2.017,0,1,0,1.823-3.6c-.851-.485-.851-.491-.543-1.8C2567.567,1572.584,2567.634,1570.636,2567.362,1570.6Zm32.734.023a.9.9,0,1,1-.9.9A.9.9,0,0,1,2600.1,1570.625Zm-24.1.519c-.112-.007-.026.65-.035,1.815-.014,1.882-.171,2.455-1.377,4.978-1.539,3.223-1.334,5.425.574,6.139a2.219,2.219,0,0,0,2.933-2.3,1.575,1.575,0,0,0-.927-1.633c-.511-.033-1.076-.271-1.036-.515C2576.437,1577.7,2578.107,1574.076,2575.992,1571.144Zm31.846.259a8.616,8.616,0,0,0,4.383,1.618,13.54,13.54,0,0,0-.842,4.781,30.026,30.026,0,0,0-3.541-6.4Zm-95.08.3a1.868,1.868,0,0,1,.3.019,2.5,2.5,0,0,1,1.877,2.841c-.279.99-.366,1.157-4.2,3.712a20.092,20.092,0,0,1-2.35,1.479l-1.141-.767s.966-.642,2.5-1.668c2.942-1.973,3.374-2.443,3.072-3.325-.329-.958-1.43-.757-3.169.581-2.575,1.979-2.844,2.109-2.844,2.109v-1.18s1.129-.9,1.618-1.316C2509.608,1573.336,2511.257,1571.713,2512.758,1571.7Zm76.186.514a.4.4,0,0,1,.411.523c-.048.123-.218.2-.442.2a.361.361,0,0,1-.027-.72l.058,0Zm25.853,1.374c.544,1.863-.627,4.968-1.344,5.365-.763.754-1.241.035-1.407-1.916C2612.051,1575.453,2613.866,1570.508,2614.8,1573.586Zm-30.655-1.045c.233,2.684.318,4.912-.943,7.092-1.635,2.826-1.211,5.248.539,5.783a2.18,2.18,0,0,0,2.975-2.4,2.463,2.463,0,0,0-1.241-1.475c-.536-.137-.6-.469-.295-1.533a9.927,9.927,0,0,0-.5-6.557c-.082-.281-.41-.916-.535-.906Zm5.865.9a1.685,1.685,0,0,1,1.062,2.922c-.613.561-1,.306-1.644-1.068C2588.83,1574.014,2589.013,1573.43,2590.007,1573.436Zm13.692.391a2.518,2.518,0,1,1-2.525,2.516A2.52,2.52,0,0,1,2603.7,1573.827Zm0,.913a1.6,1.6,0,1,0,1.606,1.6A1.6,1.6,0,0,0,2603.7,1574.74Zm0,.7a.9.9,0,1,1-.9.9A.9.9,0,0,1,2603.7,1575.444Zm-10.834.662a1.231,1.231,0,0,1,.594.117c1.33.641,1.184,2.479-.283,3.576-.929.694-1.322.454-2.188-1.339C2590.518,1577.487,2591.751,1576.153,2592.865,1576.106Zm-77.1.209a1.63,1.63,0,0,1,.384.058,2.765,2.765,0,0,1,1.9,3.186c-.756,1.87-3.316,2.5-5.26,3.283l-1.008-.736s1.425-.808,2.808-1.444c1.3-.595,1.5-.832,1.408-1.583-.189-1.467-.9-1.414-4.119.318-1.31.7-2.273,1.327-2.273,1.327l-.714-.584c1.066-.7,1.706-1.088,2.87-1.881,1.945-1.329,3.054-1.9,3.868-1.94.047,0,.094-.005.139,0Zm102.424,1.087c.469,1.422-.487,2.668-1.928,2.11a1.608,1.608,0,0,1-.851-2.225C2616.061,1576.273,2617.877,1576.449,2618.192,1577.4Zm-28.9-.494,2.269,4.068s.03,1.132.051,1.761c.086,2.641.653,3.515,2.2,3.259.111-.018.663-.178.663-.178l.985,1.657s-1.065.465-1.342.523c-1.825.382-4.351-.986-4.744-2.815-.38-1.769-.085-8.275-.085-8.275Zm-74.335,1.672c.685.05.394.572.077.743-1.333.677-2.592,1.414-3.983,2.214l-.931-.577s.718-.4,1.214-.7A12.054,12.054,0,0,1,2514.954,1578.58Zm91.193.522a2.518,2.518,0,1,1-2.526,2.516A2.521,2.521,0,0,1,2606.147,1579.1Zm-10.683.345a1.485,1.485,0,0,1,1.381.755c.674,1.117-.04,2.481-1.676,3.209-.913.406-1.066.322-2.04-1.119-.659-.974-.655-1.149.074-1.769a3.893,3.893,0,0,1,2.261-1.076Zm-88.621.221,36.163,23.368-1.032,1.749-35.061-22.9Zm107.453.3c2.2.042,5.066,2.582,4.05,3.585a.7.7,0,0,1-.466.178C2614.743,1583.547,2611.28,1579.912,2614.3,1579.969Zm-8.149.047a1.6,1.6,0,1,0,1.6,1.6A1.6,1.6,0,0,0,2606.147,1580.016Zm-48.3.445.959,2.485-18,28.594-1.768-1.134Zm48.3.259a.9.9,0,1,1-.9.9A.9.9,0,0,1,2606.147,1580.72Zm6.609.3a7.683,7.683,0,0,0,4.019,3.341,5.839,5.839,0,0,0-2.308,4.742A44.042,44.042,0,0,0,2612.756,1581.018Zm-95.145.864a1.778,1.778,0,0,1,1.008.271c3.373,2.306.276,4.587-.011,4.408l-1.149-.723c.4-.654,1.292-1.539-.151-2.365a2.7,2.7,0,0,0-2.525.623l-1.206-.825a10.186,10.186,0,0,1,4.034-1.389Zm79.54,1.3a1.7,1.7,0,0,1,.373.027c1.9.367,1.772,2.383-.217,3.317-1.132.532-1.332.424-2.32-1.269C2594.523,1584.466,2595.924,1583.226,2597.151,1583.186Zm-80.149.739a.568.568,0,0,1,.492.349c.1.529-.884,1.06-.884,1.06l-1.129-.747A4.048,4.048,0,0,1,2517,1583.925Zm101.429.484a.5.5,0,0,1,.559.438c.385,1.566-1.358,4.471-2.968,4.943-.939.275-1.211-.166-.9-1.463.432-1.823,2.327-3.841,3.312-3.918Zm-58.331.12,2.929,2.121-17.572,27.715-3.041-1.8Zm47.815.225a2.518,2.518,0,1,1-2.525,2.516A2.521,2.521,0,0,1,2607.915,1584.754Zm0,.913a1.6,1.6,0,1,0,1.606,1.6A1.6,1.6,0,0,0,2607.915,1585.667Zm0,.7a.9.9,0,1,1-.9.9A.9.9,0,0,1,2607.915,1586.372Zm-40.375.093c1.906,2.145,4.049,6.943,11.528,4.679a8.839,8.839,0,0,0,10.4.953l.031,12.928-33.207.035Zm-60.651.329,32.7,21.479-1.024,1.8-31.71-20.225Zm91.81.019a.335.335,0,0,1,.082.008c1.671.408,1.86,2.075.306,2.713-.832.342-1,.257-1.8-.909-.317-.466-.5-.851-.45-.968a3.419,3.419,0,0,1,1.858-.844Zm20.985,1.765a1.662,1.662,0,0,1,.768,3.108,1.632,1.632,0,0,1-2.234-2.206,1.594,1.594,0,0,1,1.466-.9Zm-20.477,1.754c.771,0,1.419.738,1.044,1.184-.249.3-.569.211-.978-.259-.48-.552-.508-.928-.066-.925Zm9.376.321a2.518,2.518,0,1,1-2.526,2.516A2.52,2.52,0,0,1,2608.583,1590.653Zm7.113.139c1.9.011,4.541,3.183,4.093,4.924-.146.568-1.214.261-2.483-.712C2615.592,1593.688,2614.482,1590.786,2615.7,1590.792Zm-7.113.774a1.6,1.6,0,1,0,1.6,1.6A1.6,1.6,0,0,0,2608.583,1591.566Zm6.117.326a6.088,6.088,0,0,0,3.436,4.246c-3.682,1.712-4.385,4.6-3.832,8.291l-.861-.526a44.78,44.78,0,0,0,1.257-12.011Zm-6.117.379a.9.9,0,1,1-.9.9A.9.9,0,0,1,2608.583,1592.271Zm-.47,4.045a2.517,2.517,0,0,1,1.389,4.622l-.815-.608a1.6,1.6,0,1,0-2.172-1.622l-.818-.612A2.528,2.528,0,0,1,2608.113,1596.316Zm11.49.321c1.2.007-.667,3.332-2.382,4.239-1.306.69-2.5.744-2.5.112C2614.732,1599.335,2617.768,1596.627,2619.6,1596.637Zm-11.49,1.3a.9.9,0,1,1,0,1.8.974.974,0,0,1-.9-.9A.9.9,0,0,1,2608.113,1597.934Zm11.1,3.031a1.58,1.58,0,0,1,1.427.762,1.421,1.421,0,0,1-.392,1.8,1.545,1.545,0,0,1-2.478-1.846,1.564,1.564,0,0,1,1.443-.72Zm-4.643,1.351a3.708,3.708,0,0,1,3.188,3.994c-.321.377-2.549-1.31-2.789-1.482A7.117,7.117,0,0,1,2614.572,1602.316Zm-2.758,1.556a67.091,67.091,0,0,0,6.338,3.8l-6.323,4.052Zm-56.438,1.881,34.045.124,0,1.428-34.98.019.931-1.571Zm-1.389,2.233h2.289v2.783h-3.142v-1.536Zm32.715.066h2.754v2.783H2586.7Zm-27.025.019h3.135v2.784h-3.135Zm6.521.024h3.386v2.783H2566.2Zm6.928,0h3.258v2.783h-3.258Zm6.958.046h3.1v2.783h-3.1Zm-28.347,3.43,37.761.089v1.668l-38.839-.089Zm32.218,3.514c3.845-.042,6.085,4.24,3.08,7.246-2.762,2.764-7.37-.765-5.069-3.874,1.284-1.736,4.442-.337,3.653,1.513a1.147,1.147,0,0,1-2.168-.669c0-.531-.389-.168-.434.394a1.553,1.553,0,0,0,1.532,1.506c2.231.005,2.565-2.946.415-4.029-1.921-.968-3.944.267-4.41,2.717a8.355,8.355,0,0,1-.609,1.409,13.914,13.914,0,0,0-1.3,3.871,3.886,3.886,0,0,1-1.008.7c-1.1.547-1.051.317-.64-1.463,1.181-5.125,3.112-8.425,5.473-9.1a5.668,5.668,0,0,1,1.481-.225Zm11.369.267a4.674,4.674,0,0,1,4.474,3.408c1.363,4.587-4.738,7.4-6.865,3.241-1.188-2.376,1.273-5.21,3.528-4.1,1.846.9,1.727,3.714-.159,3.7-1.024.048-1.647-.87-1.082-1.606.293-.291.644-.064.791-.55.062-.2-.228-.366-.927-.225-1.158.235-1.04,2.564.3,3.027,2,.691,3.709-1.413,2.757-3.495-1.144-2.5-4.242-2.513-5.659.1a12.708,12.708,0,0,1-.706,1.166c-2.113,2.862-2.28,3.29-2.909,4.885a.34.34,0,0,1-.365.255,4.448,4.448,0,0,0-1.543.279c-.264-.07.087-1.074.112-1.15C2588.514,1619.854,2592.212,1615.46,2595.324,1615.352Zm-18.393,1.247a31.792,31.792,0,0,0-3.053,7.885,10.653,10.653,0,0,0-1.552-.666c-.2-.071-.037-.305-.05-.658a19.352,19.352,0,0,1,2.948-6.863c.286-.21,2.123-.276,1.707.3Zm2.153.836c-1.29,1.643-2.636,6.008-2.917,8.26a8.083,8.083,0,0,1-.14.836c-.2.674-1.465-.773-1.459-1.668.011-1.521,1.7-6.154,2.906-7.924.42-.616.47-.718,1.369-.751,1.444-.036.809.522.241,1.247Zm-63.052-1.084a4.527,4.527,0,0,0-.946.124c-1.868.462-4.094,2.437-4.31,4.533a5.2,5.2,0,0,0-.194,2.272c.617,2.812,2.262,4.72,4.275,7.509a50.789,50.789,0,0,1-4.263,5.717l4.1,5.926c-1.135,2.237-3.109,3.929-3.6,6.689-.774,3.634,1.133,7.175,5.19,7.5,3.028.091,5.012-1.951,5.388-5.044.153-2.056-.7-4.634-3.743-8.709-.151-.2-.446-.619-.446-.619s.342-.4.523-.67c1.072-1.448,3.868-4.986,3.868-4.986l-4.178-5.9a5.31,5.31,0,0,1,.5-.836c3.41-4.641,4.045-7,3.441-9.305a5.373,5.373,0,0,0-1.571-2.385,5.518,5.518,0,0,0-4.038-1.823Zm-.1.569a5.166,5.166,0,0,1,3.821,1.676c2.562,2.675,2.335,4.938-.993,9.886-.731,1.086-1.447,2.28-1.447,2.28l4.2,5.791c-1.378,1.944-2.945,3.667-4.383,5.717.727,1.115,1.91,2.306,2.653,3.646a11.388,11.388,0,0,1,1.59,4.417c.335,2.913-1.563,6.017-4.81,6.092a5.539,5.539,0,0,1-5.481-5.887,8.982,8.982,0,0,1,1.377-4.142c.756-1.343,2.526-3.956,2.526-3.956l-4.065-5.914,4.3-5.737s-3.131-3.826-4.092-6.584a5.862,5.862,0,0,1,.876-5.191,4.892,4.892,0,0,1,3.922-2.094Zm-2.664,8.31a11.416,11.416,0,0,0,2.793,3.989,18.186,18.186,0,0,0,2.911-4.444C2522.121,1617.252,2509.969,1616.639,2513.271,1625.23Zm2.747,3.249c-1.542-1.79-2.631-3.278-2.736-5.639a2.863,2.863,0,1,1,5.652.03C2518.593,1625.146,2517.394,1626.586,2516.018,1628.479Zm75.924-7.351c.118.658.761,1.773.706,2.036-.3.69-.733,1.034-1.338,2.171-.127.243-.068.292-.407.232a11.322,11.322,0,0,1-1.18-.305c-.171-.05-.368-.143-.287-.36.581-1.334,1.232-2.923,2.506-3.774Zm-10.155,2.012-.721,1.865c-.068.2-.075.234-.287.19a5.624,5.624,0,0,0-1.18-.053c-.893-.11.79-3.443,1.043-3.948.366.062.906,1.485,1.145,1.946Zm.679.43a.24.24,0,0,1,.046,0,5.724,5.724,0,0,1,1.319.422c.224.092.231.1.132.376-.206.41-.46,1.594-.733,2.008-.008.06-1.274-.751-1.634-.907C2581.582,1625.244,2582,1623.633,2582.466,1623.57Zm10.733.221a2.6,2.6,0,0,1,1.218.611c.133.263.011.526-.454,1.328-.412.709-.842,1.475-.946,1.393a5.772,5.772,0,0,1-1.18-.956c-.213-.293.193-1.044.47-1.455C2592.743,1624.064,2592.953,1623.83,2593.2,1623.791Zm-6.827-.095c.387.087-.226,2.076-.341,2.324a6.176,6.176,0,0,1-1.389,1.556c-.231.148-.943-.276-.927-.774a15.619,15.619,0,0,1,.915-2.609,6.369,6.369,0,0,1,1.742-.5Zm-15.791.761c.087,0,.173,0,.26,0a4.538,4.538,0,0,1,4.069,2.377c.466.791.471.825.364,1.564a7.012,7.012,0,0,0,.3,3.967c.523,1.212.444,1.628-.834,4.324-1.282,2.714-2.839,6.02-4.022,9.085a32.434,32.434,0,0,0-1.307,4.018c-.2.765-1.135.535-2.068.5-.474.1.685-3.082,2.4-6.89,1.374-3.048,3.244-6.481,3.989-9.892.608-2.781.414-3.924.08-5.092-1.286-3.4-5.763-2.565-5.752.565.1,2.028,2.447,3.115,3.309,1.127.143-.914-.309-.382-.687.062-.811.951-2.2-.107-1.982-1.51a2.164,2.164,0,0,1,3.824-.991c1.263,1.6.986,3.243-.837,4.479a2.953,2.953,0,0,1-4.527-.836,4.543,4.543,0,0,1,3.425-6.86Zm9.29,1.347c1.865.038,3.889,1.6,4.216,2.832.176.838-.094,1.824.206,2.633.25.649.49,1.022.31,1.6-1.534,4.928-5.157,10.183-6.947,16.017-.206.406-.4.457-.857.588-.716.2-1,.183-1.071-.189a6.767,6.767,0,0,1,.586-2.292,44.388,44.388,0,0,1,2.257-5.322c1.514-2.838,2.357-4.779,3.457-7.2.2-.453.263-.721.585-1.374,1.386-2.8-.179-5.566-3.049-5.581-2.273-.013-3.289,3.54-1.3,4.579,1.947,1.015,3.4-1.653,1.668-2.6-.418-.228-.525-.01-.19.391.771.924.079,2.167-.993,1.673-1.66-.766-.8-3.589,1.133-3.426,2.991.251,3.38,4.594.329,5.694-4.194,1.512-6.394-5.226-2.447-7.494a4.062,4.062,0,0,1,2.106-.526Zm8.836.135a4.461,4.461,0,0,1,3.216,1.277c2.345,2.248,1.72,5.717-2.242,12.426a45.085,45.085,0,0,0-3.255,6.921,1.444,1.444,0,0,1-.706.956c-.687.378-1.466.425-1.567.158-.257-.681,1.706-4.919,5.2-11.577.919-1.774,2.08-3.834,2.021-5.946a2.653,2.653,0,0,0-3.5-2.334,1.893,1.893,0,0,0-.846,3.035,1.693,1.693,0,0,0,1.172.538c.58.019,1.239-.554.116-.615a1.164,1.164,0,0,1-.589-2.168c1.441-.966,3.095.172,2.979,2.051-.241,3.779-5.769,3.215-5.916-.677a3.885,3.885,0,0,1,3.914-4.045Zm-15.62,6.05c.835-.064-.6,4.428-3.115,9.468a88.94,88.94,0,0,0-3.476,8.709c-.289.391-2.02.462-2.017.058,3.073-9.822,5.242-11.513,6.292-15.254.183-.647.316-1.581.341-1.661C2571.888,1633.086,2572.543,1632.159,2573.087,1631.989Zm-56.865.662-3.254,4.235,3.177,4.5,3.3-4.3Zm70.472,1.308a21.891,21.891,0,0,1-1.707,4.417c-3.188,6.42-3.98,8.151-4.53,9.863a.866.866,0,0,1-.462.588c-.4.148-1.5.36-1.594.209.674-3.752,5.834-12.289,6.834-16.029.4-.018,1.425.591,1.459.952Zm2.552-.391c.216-.015.3.073.241.36a24.675,24.675,0,0,1-1.626,3.461c-2.685,5.267-4.093,8.387-4.542,9.99-.1.376-.169.671-.349.767-.369.2-1.66.715-1.722.155.4-2.381,1.975-3.93,6.039-13.858.19-.326.357-.485.536-.515.5-.082.933-.319,1.423-.36Zm-11.016,1.631a29.11,29.11,0,0,1-1.97,4.268,60.664,60.664,0,0,0-3.949,9.5,2.272,2.272,0,0,1-.458.983,5.23,5.23,0,0,1-1.726.151c-.214-1.079,1.489-5.1,3.386-9.333,1.032-2.3,2.229-4.594,3.031-6.658C2577.094,1634.188,2578.154,1634.715,2578.23,1635.2Zm2.873-1.017c.574-.005.129.958-1.248,3.671a58.985,58.985,0,0,0-4.045,8.837c-.3.782-.653,1.753-.784,2.16-.168.526-.326.786-.543.894a2.056,2.056,0,0,1-1.594-.019c-.28-.341,1.206-4.334,2.653-7.4,1.278-2.577,2.178-4.647,3.282-7.029.3-.474.315-.506.622-.567a9.59,9.59,0,0,0,1.657-.546Zm-64.827.513,1.676,2.237-1.967,2.443-1.636-2.377Zm-.252,9.65a14.016,14.016,0,0,0-1.443,2.113c-2.141,3.557-2.2,6.183.326,7.742a3.085,3.085,0,0,0,3.332-.341c2.86-2.49.734-5.91-1.113-8.229A11.561,11.561,0,0,0,2516.024,1644.345Zm.1.909a14.776,14.776,0,0,1,2.572,3.8c.822,2.131.3,3.807-1.3,4.594-2.514,1.245-4.8-1.55-3.607-4.532A14.961,14.961,0,0,1,2516.129,1645.254Zm70.39,4.212c.236.448-23.925,6.025-41.748,1.238l-10.846,15.662,62.614-.109Zm-.915,1.111s5.82,10.053,8.677,14.976h-4.015l-5.721-12.224a63.808,63.808,0,0,1-9.139,1.854l2.037,10.37h-3.006l-1.7-9.909a127.453,127.453,0,0,1-13.414.336l-1.966,9.573h-3.146l2.017-9.507c-3.462-.466-6.909-.905-10.426-1.482l-5.9,10.989h-4.442l9.259-13.792c13.823,2.768,26.569,2.117,40.884-1.184Zm-2.188,5.4,4.539,9.58h-8.6l-1.583-8.547Zm-36.8.7,7.514.972-1.94,7.912h-10.147Zm24.53,1.181,1.032,7.7h-12.948l1.439-7.552Z"/>
        </g>
      </g>
      <path id="path153-6-3-1-9-5-1-4" d="M2529.1,1463.943c-7.348,10.492-15.21,16.53-15.341,24.716-.044,2.65,1.388,7.155,5.871,8.018,2.908.557,6.913-1.8,7-6.589-.012-.954,1.009-.929,1,.378a27.2,27.2,0,0,1-3.338,11.755h9.626a27.206,27.206,0,0,1-3.339-11.755c-.009-1.307,1.012-1.332,1-.378.084,4.789,4.088,7.146,7,6.589,4.483-.863,5.914-5.368,5.87-8.018C2544.313,1480.473,2536.45,1474.435,2529.1,1463.943Z"/>
      <path id="path153-6-3-1-8-6-9-9-4" d="M2611.559,1660.45c-7.348-10.492-15.21-16.53-15.341-24.715-.043-2.651,1.388-7.156,5.871-8.018,2.909-.557,6.913,1.8,7,6.588-.013.954,1.008.929,1-.377a27.2,27.2,0,0,0-3.338-11.755h9.626a27.2,27.2,0,0,0-3.338,11.755c-.01,1.306,1.011,1.331,1,.377.084-4.788,4.088-7.145,7-6.588,4.483.862,5.914,5.367,5.871,8.018C2626.769,1643.92,2618.907,1649.958,2611.559,1660.45Z"/>
    </g>
  </g>
</svg>
