<svg xmlns="http://www.w3.org/2000/svg" xmlns:xlink="http://www.w3.org/1999/xlink" width="179.79" height="250.65" viewBox="0 0 179.79 250.65">
  <defs>
    <clipPath id="clip-kc">
      <rect width="179.79" height="250.65"/>
    </clipPath>
  </defs>
  <g id="kc" clip-path="url(#clip-kc)">
    <g id="kc-2" data-name="kc" transform="translate(-2901.604 -873.972)">
      <rect id="rect6355-6-85-3-64-3-5" width="177.785" height="248.651" rx="8.504" transform="translate(2902.604 874.972)" fill="#fff" stroke="#000" stroke-width="0.997"/>
      <path id="path147-6-9-8-7-0-5-6-9-6-3" d="M3066.678,1083.773c3.128-.071,4.531-3.739,2.214-6.588-.336-.415-.371-.654.245-.255,1.559,1.087,4.55.373,4.7-2.949.189-4.092-5.3-5.271-6.331-.92-.054.46-.412.449-.326-.2a13.977,13.977,0,0,1,1.353-5.034h-3.718a13.977,13.977,0,0,1,1.353,5.034c.087.652-.272.663-.326.2-1.031-4.351-6.52-3.172-6.331.92.153,3.322,3.144,4.036,4.7,2.949.615-.4.58-.16.244.255-2.316,2.849-.914,6.517,2.214,6.588h0Z"/>
      <path id="path147-6-9-8-7-4-5-62-08-0-2" d="M2916.315,914.823c-3.128.07-4.531,3.739-2.214,6.588.336.415.371.654-.245.255-1.56-1.087-4.55-.373-4.7,2.949-.189,4.092,5.3,5.271,6.331.92.054-.459.412-.449.326.2a13.971,13.971,0,0,1-1.353,5.034h3.718a13.971,13.971,0,0,1-1.353-5.034c-.086-.652.272-.662.326-.2,1.031,4.351,6.52,3.172,6.331-.92-.153-3.322-3.144-4.036-4.7-2.949-.615.4-.581.16-.245-.255,2.316-2.849.914-6.517-2.214-6.588h0Z"/>
      <path id="path39-7-2-1" d="M2916.95,909.424h2.644l-3.884-9.717-2.968,4.105.021,5.612h2.084v2.895H2907.5v-2.895h2.419v-20.9l-2.419.009v-2.53h7.451v2.616H2912.9l-.044,10.184,6.5-10.27h-2.295v-2.53h7.927v2.53H2922.9l-5.355,8.393,5.244,12.5h2.327l.012,2.894h-8.152l-.025-2.9Z"/>
      <path id="path39-3-8-1-1" d="M3066.041,1089.172H3063.4l3.884,9.717,2.967-4.1-.021-5.612h-2.083v-2.894h7.344v2.894h-2.42v20.9l2.42-.01v2.53h-7.452v-2.616h2.056l.044-10.184-6.5,10.27h2.295v2.53H3058v-2.53h2.092l5.355-8.393-5.244-12.5h-2.327l-.012-2.9h8.152l.025,2.9Z"/>
      <g id="g5429-3-1-8">
        <g id="layer1-6-4-4-1">
          <g id="KC-7-1-9">
            <g id="g3440-6-4-8">
              <g id="g3454-7-1-1">
                <path id="path3450-5-0-3" d="M3030.8,895.662l-65.364.321,8.3,15.872c16.989-1.542,31.876-.171,47.386.34Zm-44.641,55.806c-.068.092-2.72.783-2.45,1.391,6.922,14.956,10.014,27.126,12.905,42.5a6.705,6.705,0,0,1,3.825-1.149c-1.166-5.708,5.964-6.42,6.01-.448,1.369.321,2.777.325,4.013,1.721A96.032,96.032,0,0,1,3024.7,949.26c-8.79,3.51-21.687,12.261-21.687,12.261s-10.732-4.473-16.857-10.053Zm53.427,1.789c-11.7,11.207-16.276,42.316-15.437,42.745-15.08-.507-19.65,16.268-6.579,25.313-.516,1.755-1.793,3.182-2.782,4.732a10.554,10.554,0,0,0,4.29,1.109c1.116,1.334,2.213,2.874,3.425,3a22.363,22.363,0,0,0,3.345-3.117,23.386,23.386,0,0,0,4.018-1.337c-1.148-1.617-2.51-3.252-2.545-4.766,11.365-8.085,9.8-19.079-.44-24.707,3.052-18.514,7.5-30.341,12.671-38.751Zm-80.568,14.3c-1.486.732-2.3,2.277-3.375,3.489a11.984,11.984,0,0,0-4.317,1.212s3.39,4.725,3.18,4.98c-10.992,7.264-10.9,17.882-.348,24.876,1.788,15.111-10.938,39.026-11.581,38.331l-.022,4.944c9.056-9.988,14.229-28.028,14.745-42.595,18.086-1.215,18.727-18.847,6.276-25.479-.957-.886,3.13-4.983,3.13-4.983-1.037-1.031-2.773-1.148-4.294-1.275A18.2,18.2,0,0,0,2959.017,967.56Zm76.5,12.2c2.557,5.74,11.9-1.254,13.52,1.8,1.316,1.732,4.182,1.91,4.026-1.008-.538-2.89-2.424-3.53-9.9-2.271-2.838.477-4,.76-3.984-.545C3037.209,975.348,3035.526,978.6,3035.514,979.763Zm8.676,8.376c-2.1,0-2.454,8.272-2.423,10.756-6.072,9.676,12.456,8.576,4.443-1.964.279-1.378-1.021-3.623-.985-4.616C3044.568,992.23,3044.28,988.494,3044.19,988.139Zm-108.448,12.479c-.193,2.5,1.625,10.1,2.3,9.841,2.374-3.859,2.092-7.159,1.846-10.927C2945.544,988.553,2926.229,993.059,2935.742,1000.618Zm35.253,1.766c-.844,16.161-4.768,32.017-13.659,45.768,7.654-3.6,15.082-8.244,22.27-12.22l16.8,10.491a6.623,6.623,0,0,0,2.292-1.278c-7.741-11.424-10.137-27.867-13.509-42.742a11.648,11.648,0,0,1-3.7,1.379c-.173,5.159-5.536,6.831-6.631.1Zm-40.542,12.608c-1.792.114-3.139,4.59,1.936,5.253,3.582.511,8.169-1.268,10.444-.444,2.645,4.258,5.02-2.01,1.485-3.032-3.8-1.1-11.532,1.767-12.388-.669C2931.49,1015.269,2930.954,1014.96,2930.453,1014.992Zm30.466,70-10.134,18.063,64.79-.394-8.469-17.228C3007.251,1085.243,2978.809,1088.846,2960.919,1084.993Z" fill="#e2cf00"/>
                <path id="path3446-6-3-4" d="M2974.748,913.583l1.284,2.351c15.175-2.524,27.126-2.918,42.826.144l1.433-2.449C3005.961,911.023,2991.345,909.947,2974.748,913.583Zm14.314,35.4,13.244,8.645s6.342-4.522,9.045-6.436l-1.641-2.432c-5.6,12.461-15.446,2.606-19.137-3.257C2990.573,945.508,2989.57,947.779,2989.062,948.988Zm35.57,4.182a1.842,1.842,0,0,1,1.888,1.28c.521,1.065.719.8.385-.525-.528-2.093,1.674-3.455,3.749-2.058,1.5,1.009,1.433,3.451-.2,3.9-1.323.365-1.357.715-.2.658,2.084-.1,2.638,2.7,1.155,4.076a2.358,2.358,0,0,1-4.077-1.519c-.091-.56-.208-.552-.392-.235a5.445,5.445,0,0,0-.472,3.175L3023.39,960a7.9,7.9,0,0,0,2.557-1.709c.1-.109.181-.188.18-.235,0-.085-.343.028-.97.094-1.861.2-3.292-1.021-2.911-2.789.325-1.5,1.1-2.16,2.386-2.189Zm-13.579,48.772c3.35-3.867,7.509-6.349,13.291-6,.735-16.205,6.3-30.615,15.22-43.6l-9.81-5.952-3.936,2.4C3016.753,962.394,3010.559,979.531,3011.053,1001.942Zm-73.529-37.866s-6.641,5.02-9.726,7.444l.149,44.684.858.3c.061.1-.075-.662.319-1.009a4.452,4.452,0,0,1,1.134-.716c.853-.313.891-.887.095-1.384a1.88,1.88,0,0,1-.783-1.97,1.676,1.676,0,0,0-.268-1.325,2.338,2.338,0,0,1-.084-2.108c.142-.36.128-.456-.124-.941a2.469,2.469,0,0,1-.121-2,4.958,4.958,0,0,0,.15-1.335c-.033-1.779,1.423-2.96,4.112-3.332,1.051-.145,1.083-.189.6-1.079-2.723-5.019,3.394-7.635,3.852-6.831Zm83.781,2.492a4.541,4.541,0,1,1-4.434,4.6A4.519,4.519,0,0,1,3021.3,966.568Zm.043.811a3.637,3.637,0,1,0,3.657,3.582A3.618,3.618,0,0,0,3021.348,967.379Zm.093,1.154a2.466,2.466,0,1,1-2.406,2.5A2.453,2.453,0,0,1,3021.441,968.533Zm-89.323,1.866a1.754,1.754,0,0,1,.576.088,1.459,1.459,0,0,1,.905,2.3c-.477.741-.422.8.413.492a1.175,1.175,0,0,1,1.509.349c1.553,1.551-.758,4.159-2.278,2.579-.753-.783-.824-.552-.3.792.169.436.448,1.112.448,1.112l-2.229-.033s.347-.9.506-1.319c.386-1.019.4-1.168-.405-.527a1.721,1.721,0,1,1-2.2-2.645c.34-.329.884-.344,1.642-.043q.827.328.2-.459A1.641,1.641,0,0,1,2932.118,970.4Zm46.182,4c-.906,5.988-.116,14.391-.135,18.882,2.416.465,2.443,2.126,2.814,4.19,1.175-.413,3.742,1.338,4.094,1.184C2985.34,992.583,2982.21,974.947,2978.3,974.4Zm40.086,6c3.43.278,2.773,2.951,1.751,4.05-.483.563-.394.816.138.492,1.448-.883,2.6-.245,3.065,1.277.8,2.6-2.588,4.838-4.1,2.505-.511-.791-.825-.612-.7.215a11.314,11.314,0,0,0,.849,2.449l-3.366-.3s1.028-1.727,1.209-2.191c.375-.965.177-1.222-.542-.445-2.105,1.944-5.021-.544-3.662-3.121a1.982,1.982,0,0,1,3.24-.67c.9.593,1.093.336.289-.383-1.5-1.343-.193-4.037,1.826-3.874Zm-86.1,2.123c.039,0,.076,0,.115,0a1.879,1.879,0,0,1,.892.257,1.51,1.51,0,0,1,.541,2.225c-.3.469-.214.764.137.458a1.448,1.448,0,0,1,1.909.5c1.038,1.641-.99,3.787-2.285,2.421-.571-.6-.79-.627-.723-.231.186.743.67,2.011.67,2.011l-2.33.041a15.315,15.315,0,0,0,.615-2.01c.085-.535-.126-.458-.681.175a1.125,1.125,0,0,1-1.719.218c-1.7-1.136-.339-4.053,1.433-3.073.61.338.7.143.218-.493a1.545,1.545,0,0,1,1.208-2.5Zm121-1.042c-3.772,3.934-2.589,1.608-.84,4.607.006,1.978,1.15,3.526.244,6.647a1.805,1.805,0,0,0-.157,1.513c-.277,3.448-3.013,3.4-5.674,3.939.442-.03,4.216,7.009-2.826,7.559l.08,28.612,11.041-8.216-.048-44.661Zm-82.854,15.106c-3.13,2.036-7.528,7.124-13.058,6.019a78.738,78.738,0,0,1-14.753,43.548,93.755,93.755,0,0,0,8.928,5.066,28.1,28.1,0,0,0,6.286-3.838C2967.781,1031.867,2970.937,1014.9,2970.425,996.591Zm25.991,3.265c.559,9.168,2.037,17.85,6.762,24.815l.319-19.484c-1.683-.407-3.063-1.505-3.554-4.62Zm-34.148,5.408,3.158.076s-.717,1.44-1.027,2.246c-.376.984-.2,1.184.522.5a2.376,2.376,0,0,1,3.217-.178c2.086,2.11-.1,5.548-2.564,4.04-1.057-.646-1.233-.43-.4.484,1.631,1.528-.072,3.727-1.978,3.737a2.442,2.442,0,0,1-2.379-2.343,2.059,2.059,0,0,1,.993-1.92c.691-.392.2-.647-.555-.239-2.451,1.331-4.091-2.087-2.241-4.032,1.066-1.122,2.2-1.017,3.279.053q1.135,1.122.814-.2a11.137,11.137,0,0,0-.844-2.221Zm85.226,2.683,2.262,0c-.222.565-.51,1.141-.69,1.7-.195.608-.052.685.547.1,1.559-1.056,3.222,0,2.884,1.674a1.556,1.556,0,0,1-2.3,1.22c-.976-.442-.663-.253-.108.421a1.52,1.52,0,0,1-.38,2.356,1.765,1.765,0,0,1-2.561-2.313c.6-.944.326-.842-.222-.385-.823.608-2.067-.253-2.091-1.445-.095-1.716,1.62-2.681,2.83-1.467.576.489.719.43.459-.282A12.449,12.449,0,0,0,3047.494,1007.947Zm.121,12.477,2.371-.027a4.267,4.267,0,0,1-.4.875c-.429.814-.364,1.656.084,1.084a1.732,1.732,0,0,1,2.889.484c.614,1.373-.582,2.89-1.823,2.313-.806-.375-.862-.294-.326.488a1.544,1.544,0,0,1-.557,2.241c-1.665,1.073-3.661-1.069-2.274-2.439.371-.367.255-.546-.2-.3-1.838,1.009-3.193-1.5-1.6-2.966.677-.625,1.194-.582,2.307.194.346.242.413-.007.163-.621A7.157,7.157,0,0,0,3047.615,1020.424Zm-88.01,1.5a4.823,4.823,0,1,1-4.71,4.89A4.795,4.795,0,0,1,2959.6,1021.925Zm.055.861a3.961,3.961,0,1,0,3.983,3.9A3.942,3.942,0,0,0,2959.66,1022.786Zm.045,1.521a2.439,2.439,0,1,1-2.384,2.473A2.424,2.424,0,0,1,2959.705,1024.307Zm-6.006,11.685,2.758,1.361s-1.3,1.071-1.823,1.623c-.664.711-.618,1.044.278.7a2.4,2.4,0,0,1,3.451,2.113c.043,2.388-2.756,3.538-4.1,1.729-.4-.537-.877-.761-.69-.322a2.551,2.551,0,0,1-.615,2.968,2.725,2.725,0,0,1-2.381.267c-2.013-1.053-2.118-3.4-.192-4.32.968-.465,1-.9.048-.661-1.983.5-3.139-1.924-1.709-3.587,1.518-1.766,3.992-1.4,4.266,1.212.048.465.362.128.5-.584A16.428,16.428,0,0,0,2953.7,1035.992Zm25.71,3.928s-10.1,5.8-9.793,6.046c.06.035,2.239,3.13,2.239,3.13,5.011-11.46,17.011-1.969,18.933,3.882a5.46,5.46,0,0,0,.942.39c.043-.413.875-4.477.875-4.477Zm-16.556,42.317-1.627,2.339c-.562.241,25.179,4.641,45.483.171l-1.405-2.691c-16.535,4.257-42.707.481-42.451.181Z" fill="#d40000"/>
                <path id="path3444-9-5-7" d="M2926.189,894.036v210.525H3056.8V894.036Zm39.161,1.627,65.578-.255-12.121,20.945c.117-1.1-23.565-4.488-42.919-.359Zm-37.315.49H2963.7l12.025,21.731a4.122,4.122,0,0,1,.284,2.778,14.043,14.043,0,0,1-1.27,3.03c.041-.452-3.465-.9-3.172,2.131a2.791,2.791,0,0,0,4.686,1.615c.306-.026.3.261.236.761-.177,1.176-1.413,4.905-2.261,5.152-4.316-3.573-5.857,2.952-2.946,4.253a4.538,4.538,0,0,0,5.487-1.914c.927-1.564.824-1.306,1.116.592.109.706.262,1.524.341,1.892.247,1.151,0,1.374-1.918,1.9a30.191,30.191,0,0,1-4.7,1.29,5.219,5.219,0,0,0-4.469,5.392c-.015.583,0,.853-.119,1.026a136.52,136.52,0,0,0-38.981,22.582Zm81.863,51.68a42.292,42.292,0,0,1-2.366-6.425c-1.068-8.083-1.271-17.679-2.413-25.2l1.5.17a63.415,63.415,0,0,1,1.174,8.065c.3,2.918.616,8.984.868,11.772.38,4.144,2.235,10.769,3.384,12.442,1.874,2.728,5.64.963,4.381-2.276-.654-1.68-3.185-1.408-2.834.336.006.311.24-.222.611-.55a1.443,1.443,0,0,1,1.682,2.114c-.8,1.767-3.157.96-3.94-1.266-.935-2.66,2.215-4.653,4.572-3.031,2.625,1.807,2.631,6.387.517,7.833-3.559,1.31-5.978-1.307-7.14-3.98Zm8.8,3.37c-.144-.086,0-.364.18-1.025a6.226,6.226,0,0,0-1.341-6.22c-.883-1.013-1.215-1.191-.752-1.374.98-.39,3.146,1.2,3.741,2.758a5.82,5.82,0,0,1-.093,4.85C3019.856,950.563,3018.961,951.309,3018.7,951.2Zm2.681-1.647c0-.289.19-1.2.235-1.647a6.057,6.057,0,0,0-2.042-4.846c-1.187-1.149-1.3-1.267-.172-1.286,2.9-.05,4.743,4.677,3.407,7.006C3022.46,949.152,3021.411,949.907,3021.377,949.556Zm2.452-1.6c.853-4.03-3.008-6.715-3.086-6.59.193-.9,1.726-.384,2.249-.032,1.952,1.322,3.074,4.78,1.876,6.745a1.281,1.281,0,0,1-.5.51c-.4.255-.64.461-.722.282-.062-.136.162-.722.185-.915Zm-33.97-13.073c.4-.4.525-.411,1.3-.116,2.43.926,4.37-.833,3.8-2.683a2.5,2.5,0,0,0-1.678-1.455c-.915-.1-.934.392.053.765a1.239,1.239,0,0,1,.268,2.341c-1.254.854-3.307-1.314-4.812-1.131a1.168,1.168,0,0,0-.77,1.726C2988.337,934.913,2989.42,935.266,2989.859,934.884Zm-2.694-.265c-.843-.4-1.164-.387-1-1.315.106-.611.969-4.721,1.379-6.31,1.229-4.757.075-7.4-3.4-8.458a8.245,8.245,0,0,0-6.789.934l-.433-1.345c10.07-2.659,27.255-2.069,27.194-1.967a28.046,28.046,0,0,1,.6,4.1,49.03,49.03,0,0,0-4.9-2.125c-2.588-.8-6.678.077-7.4,1.576-.411.85-.2,1.417,1.542.472,2.846-1.547,8.657-.368,10.705,1.272.472.378.449.46.458.9.013.676.053.715-.879.212-4.884-2.52-9.058-2.227-10.5,1.081-.332-.1-1.6-.321-1.6-.321l1.359,2.03.259,2.124s2.222,1.244,3.447,1.771c1.2.516.511-.033-.968-1.073-1.087-.763-.223-1.007.494-.715a7.3,7.3,0,0,0,6.124-.824,2.935,2.935,0,0,1,2.576.159s.236,1.858.471,5.734c.11,1.834.334,4.229.461,5.213.384,2.97.494,3.139-1.054,1.715a17.951,17.951,0,0,0-1.4-1.224c-.2.922,2.088,2.54,2.62,3.1.808.843,1.456,3,1.132,3.128-.2.081-2.375-1.777-4.083-3.448a16.769,16.769,0,0,0-1.621-1.436c-.353.237,1.082,1.871,2.425,3.093,1.568,1.426,1.749,1.554,1.222,1.769-.973.4-1.849-.1-4.211-2.069a6.993,6.993,0,0,0-1.167-.786c-.216.29,1.964,2.373,2.459,2.552.919.333,1.184,1.229.459,1.581-.484.235-2.288-.763-3.734-2.027a3.071,3.071,0,0,0-1.026-.561c-.287.186,1.33,1.6,2.872,2.535,1.511.918,1.752,1.144,1.367,1.908-.358.785-3.673-1.034-5.331-2.909-.353-.4-.631-.57-.561-.436.722,2.021,3.1,3.468,4.866,4.044a3.823,3.823,0,0,1,.979.4c.5.4.392.823-.154,1.06-1.885.534-4.857-1.771-6.984-4.185-.246-.1-.1.213-.034.318,1.773,2.857,5.17,5.031,7.215,4.625,1.2-.237,2.157.126,2.166.531.008.332-.651.861-1.938.953-2.909.21-7.455-3-10.114-7.095-.083-.127-.181-.174-.187-.1-.073.867,1.581,2.994,2.849,4.211,3.768,3.615,7.329,4.837,10.108,2.8,1.566-1.225,3.08-3.9.747-4.8-1.236-.474-2.018,1.243-.961.753,1.389-.168,1.7.575,1.523,1.274a1.625,1.625,0,0,1-2.489.886c-1.667-.911-1.313-4.034.845-4.58a3.318,3.318,0,0,1,3.864,2.768c.347,2.452-2.394,5.105-4.591,5.765-7.5,2.252-13.351-8.262-13.385-8.5-.376-.731-.829-1.118-1.114-.266-.307,1.233-2,4.849-2.9,4.827.282-1.276,1.468-3.42,1.18-5.3-.5,1.542-1.555,4.834-3.573,6.587-.523.481-2.058,1.047-1-.19,1.276-1.811,2.945-4.286,2.6-6.61-.339.522-.523,1.845-.91,2.718-.969,2.186-3.086,4.78-4.484,5.2-1.032.31-.936-.042.121-1.165,1.133-1.2,3.139-4.739,3.006-6.264-.057-.673-2.08,5.822-5.884,7.6a1.666,1.666,0,0,1-1.611-.1c1.5-.868,5.625-4.978,5.235-9.646,0,0-.22.691-.545,1.728-1.4,4.456-4.409,7.385-6.754,7.628-1.871.193-3.178-.569-2.714-.905a6.54,6.54,0,0,0,5.98-3.217c1.583-2.426,2.174-6.325,1.214-10.452a71.042,71.042,0,0,1-1.358-10.646c2.659.917,5.335,1.527,7.924.505-.26,1.066-.692,1.2-1.375,2-.5.588-.327.728,1.608-.651.563-.4.766-.723.867-.615.165.174-.091,1.271-.654,3.459-.841,3.271-.623,3.506,2.491,4.738a2.146,2.146,0,0,1,1,.7c.095.114.606,1.043.655,1.075.114.077.084-.946.021-1.2a2.38,2.38,0,0,0-.857-1.407,6.346,6.346,0,0,0-2.058-.879Zm58.784,42.67.031-3.4,3.269,2.341-.04,1.121Zm-5.588.739-.12-62.827s2.51-1.683,3.764-2.516c.783,2.49.778,7.832.484,10.21-.491,1.549-.71,8.443-.153,11.951a35.8,35.8,0,0,1-.056,9.634,61.55,61.55,0,0,0,.27,8.667,25.959,25.959,0,0,1-.175,6.962,28.724,28.724,0,0,0,.131,7,59.826,59.826,0,0,1,.328,10.425C3044.295,978.151,3040.079,978.238,3040.361,978.028Zm4.972-65.748s2.527,1.685,3.746,2.527l.017,2.707-3.653-2.407Zm-37.724,4.373,1.563.1a92.032,92.032,0,0,1,1.14,10.719c.08,5.749.783,11.813,2.12,15.787l-1.149,1.216c-1.957-4.554-2.111-11.738-2.547-16.6a92.765,92.765,0,0,0-1.127-11.219Zm38.027-.573,3.4,2.322.035,2.944-3.424-2.293Zm-35.772.789,1.373.151c.418,3.884,1.058,6.52,1.3,10.8.315,5.534,1.266,10.079,1.857,14.4l-1.028.345c-.688.32-1.829-4.788-2.337-15.144-.154-3.134-.68-6.659-1.166-10.552Zm2.077.146,1.639.3a189.955,189.955,0,0,0,3.07,24.357l-1.426.1c-1.767-7.563-1.882-16.313-3.283-24.75Zm2.368.349,1.506.264c1.812,22.485,2.93,22.2,3.28,23.079l-1.631.667c-1.762-6.461-2.118-15.57-3.155-24.01Zm6.839,22.086c-.257.757-.868.687-1.535.764a33.932,33.932,0,0,1-1.5-6.941c-.687-5.3-.935-10.265-1.652-15.492l1.8.185c-.058.04,1.276,18.438,2.885,21.484Zm-38.664-19.764c2.368.115,4.333,1.188,4.523,2.759.042.353-.235.181-.556-.067a7.011,7.011,0,0,0-7.155-1.05c-.61.222-1.109.571-1.382.523a.638.638,0,0,1-.133-.857C2978.434,919.892,2981.311,919.629,2982.484,919.686Zm-5.493,3.154c.051,2.476-.546,3.841-1.834,4.414-1.553.69-3.546-.789-2.578-2.443.732-1.251,1.991-.874,2.23.44l1.974-4.437s.2,1.4.208,2.026Zm72.109-.4-.022,2.553-3.643-2.458.243-2.454Zm-64.626-.332c1.795.717,2.454,1.594,2.521,1.983-.1.291-.283.092-1.594-.622a6.234,6.234,0,0,0-6.96.133c-.576.115-.635-.214-.058-.841A6.212,6.212,0,0,1,2984.474,922.11Zm13.63-.478a10.95,10.95,0,0,1,5.061,1.162,8.494,8.494,0,0,1,1.8.99c.367.193.4,1.035.127,1.1-.24.034-.633-.155-1.221-.57-3.789-2.483-6.515-2.177-8.7-.649a1.509,1.509,0,0,1-.647.161c-.418-.032-.44-.205-.265-.433a5.458,5.458,0,0,1,3.852-1.76Zm47.342,1.787,3.651,2.575,0,2.532-3.881-2.724Zm-65.9,1.029.533.016c1.243,3.038,2.8,1.472,3.449.255l.649.107c-1.016,4.07-5.152,1.941-4.631-.378Zm-.907.405c.6.073.582.763.771,1.264.422,1.121-1.179.172-1.453-.1C2977.492,925.523,2978.152,924.9,2978.639,924.853Zm18.07-.118c1.573,2.417,2.481.986,3.378-.067l.428.138c-.113,1.735-3.007,3.585-4.381-.029Zm4.84.273a3.163,3.163,0,0,1,.817.251c.861.352.816.609-.138,1.037-1.524.684-2.054.773-1.6-.194.263-.442.437-1.028.919-1.094Zm-5.981.369a1.46,1.46,0,0,1,.68,1.111c.031.361-1.159-.055-1.157-.63C2995.129,925.493,2995.325,925.2,2995.568,925.377Zm-10.548.137c.782.293.688.669.144,1.01-.979.55-1.4.442-.765-.424C2984.691,925.7,2984.754,925.522,2985.02,925.514Zm60.181,1.274,3.954,2.8-.035,2.575-3.95-2.717a10.294,10.294,0,0,1,.031-2.663Zm-68.326,3.986c.188.005.262.631.306,1.545.073,1.52-1.461,3.638-3.011,4.367-1.866.878-3.865-.353-3.531-2.179.309-1.682,2.677-1.752,2.766-.2-.23.409.093.751.225.715a5.831,5.831,0,0,0,2.629-2.928,5.8,5.8,0,0,1,.529-1.287A.144.144,0,0,1,2976.875,930.774Zm68.22-.474,3.951,2.909.018,2.559-3.918-2.72a13.491,13.491,0,0,1-.051-2.748Zm-47.939,4.052c-.3.506-.053,1.413.559.641a1.634,1.634,0,0,1,2.634,1.935c-1.107,1.335-2.469.905-5.346-.2-2.095-.807-2.426-.532-2.942.051-.426.481-.209,1.448.342,1.436,1.7.389,3.169.768,4.927,1.137,3.715.77,5.982-4.061,2.587-5.836A2.456,2.456,0,0,0,2997.156,934.352Zm-16.4.556c-1.449,1.311-.261,4.757,1.872,5.065a4.582,4.582,0,0,0,1.871-.174c1.492-.435,3.137-1.326,3.2-1.845.306-2.359-3.173-.244-3.634.036a2.068,2.068,0,0,1-2.843-.214c-1.317-1.8,1.045-3.864,2.48-1.662.362.555.234-.386-.161-1.026A1.944,1.944,0,0,0,2980.758,934.908Zm64.6-.743,3.713,2.649-.021,2.464-3.6-2.62Zm.278,3.607,3.517,2.553.06,2.561-3.691-2.452c.072-.922.089-1.788.114-2.662Zm-19.717,1.471c3.092.051,4.836,4.662,3.206,6.581-.485.571-.873.724-1.092.511a7.729,7.729,0,0,1,.062-1.145,5.42,5.42,0,0,0-1.638-4.542C3025.445,939.589,3025.063,939.261,3025.918,939.243Zm-38.075.735c-.584.21-1.2.636-1.68.531s-.7.132-.884.506c-.708,1.431-.489,1.893.914,1.081.666-.386.9-.247,2.681.092a6.654,6.654,0,0,0,3.26-.075c1.392-.364,2.223-.393,2.927,0s1.187.925,1.205.488c-.078-.51-.52-1.817-.621-2.251-.049-.208-.4-.025-.724,0-1.154.084-2.532-.964-3.423-.41-.714.443-.809.56-1.788-.02C2988.981,939.484,2988.475,939.751,2987.843,939.978Zm37.243.321c2.094,1.764,2.631,3.33,2.427,4.615-.1.934-.172,1.967-1.08,2.529a2.433,2.433,0,0,1-.648.165c.7-2.655-.126-5.032-3.086-7.568A2.119,2.119,0,0,1,3025.086,940.3Zm-47.224-.005a.941.941,0,0,1,.3.05c.364.121.421,1.08.135,1.381s-.517.053-.848-.71C2977.2,940.6,2977.459,940.295,2977.862,940.294Zm-1.933.747c.764-.016,1.054.691,1.185,1.254.112.48-.029,1.912-.435,1.412a4.517,4.517,0,0,0-.845-1.536C2975.094,941.6,2975.167,941.057,2975.929,941.041Zm-2.153.712a2.2,2.2,0,0,1,.43.04c1.193.2,2.107,2.119,1.829,3.206-.631,1.17-.865.382-1.074-.679a6.441,6.441,0,0,0-.951-1.485C2973.388,942.1,2973.292,941.766,2973.776,941.753Zm71.757-.558,3.634,2.629.005,2.814-3.8-2.58c.085-.985.128-1.928.164-2.863Zm-74.117,1.141c1.779-.031,3.3,2.091,2.738,4.1-.7,2.1-4.16,1.652-3.585-.442a.956.956,0,0,1,1.41-.666c.879.545.782-.342.224-.656a1.55,1.55,0,0,0-2.308.791c-.919,3.425,3.443,4.593,5.818,1.054.867-1.293,1.812-2.677,2.333-3.267.469-.531.569-.475.493.209-.3,3.182-2.5,7.16-6.625,6.942-4.007-.384-5.26-4.675-2.233-7.353A2.938,2.938,0,0,1,2971.416,942.336Zm21.235.173a4.736,4.736,0,0,1-4.239.354c-1.067-.469-1.051.04-.587.458,1.341,1.152,3.779.631,4.823-.018.339-.21.451-.82,0-.794Zm56.527,5.088.012,2.559-4.057-2.743a11.694,11.694,0,0,1,.137-2.5Zm-3.911.854,3.864,2.568.1,2.536-3.753-2.349Zm.27,3.557,3.69,2.576.053,2.769-3.656-2.428Zm-89.984,2.911-2.259,6.886,1.479.091,1,1.816,1.026-1.861,1.556-.12Zm90.138.919,3.556,2.466.054,2.557-3.7-2.578Zm-.145,3.13,3.646,2.658.073,2.717-4.132-2.779Zm-81.573,1.537-2.237,7.373,1.261-.173,1.18,1.973,1.192-1.772,1.13.065Zm-16.833.548-2.129,7.329,1.427-.005,1.205,1.848,1.058-1.785,1.618-.043Zm97.931,1.35,4.279,3.029.036,2.885-4.148-2.8Zm4.23,6.851.048,2.526-3.6-2.586-.391-2.806Zm-76.382.434-2.614,7.448,1.753.017,1.063,1.789.851-1.8,1.408.015Zm73.067.743,3.34,2.31-.026,2.594-3.288-2.223Zm-63.3,30.138-1.9-1.846a2.731,2.731,0,0,1,2.529-.431,2.463,2.463,0,1,1-2.42,4.26Zm-1.694-3.044a3.9,3.9,0,0,0-2.685-4.161s-.205-18.07-.178-18.61c0,.079-.316-1.957-.352-2.077h0l-.295-.076c.052,1.832.17,20.608.141,20.73-2.3.268-2.946,1.841-3.154,3.954a3.471,3.471,0,0,0-3,1.136c-.664-.919-.169-2.274-.693-3.234-1.592,5.619,1.5,8.981,4.206,8.668.434,5.394,6.32,6.37,6.12-.174C2988.219,1003.259,2985.806,996.65,2980.988,997.525Zm-33.462-22.686-2.578,7.3,1.807-.208.659,1.346c2.9-2.574,4.357,1.4,2.884-2.008Zm98.016,12.984a.908.908,0,0,1,.858.69c.063,1.232-1.578.955-1.63.177A.842.842,0,0,1,3045.542,987.823Zm1.072,8.011a1.091,1.091,0,0,1,1.851.628c.016.782-.873,1.04-1.568.6a.807.807,0,0,1-.283-1.229Zm.1,2.171c3.877.3,6.762-2.36,5.526-4.268,1.041-1.321.192-2.08.477-2.838a2.394,2.394,0,0,0-.072-2.69c-.169-2.458-.876-2.773-1.929-4.082-.316-.38.737-.751,1.142-1.4-1.239.331-1.9-.3-2.574-1.141-7.18.338-13.628.843-13.384,10.67-1.033,4.171.717,7.886,5.728,6.738,1.1-.989.375-2.423.24-3.112a8.574,8.574,0,0,1,.2-4.015c.427-2.747,2.421-5.3,2.638-.991.35-.541.185-.621.761-.845,1.377-.5,1.375.9,1.093,1.469-.181.292-.454.267-.734.234-.4-.048-.923-.2-.932-.346-.108.447.728,1.279.64,1.7-.11.4-.181.366.185.1,1.727-1.247,2.808,1.539.309,1.221C3047.263,995.068,3045.441,997.011,3046.714,998.005Zm-2.557-15c1.362-.07,1.688-.082,1.625.639.258,1.331.588,1.948,2.307,1.809,1.733-.228,2.282-.337.539.72a3.4,3.4,0,0,1-2.211.372c-1.052-.095-.971-.2-1.572.16a3.711,3.711,0,0,1-.975.5c-.405.074-1.117.231-1.117.231a7.915,7.915,0,0,1-1.87,4.089c-1.2,1.377-1.809,1.618-.337,1.515.544.034.262-.241.5,1.986a11.847,11.847,0,0,0,.342,1.989c.383,1.015.434,1.52-1.021,1.592-3.63.277-4.478-3.29-3.995-5.112.042-.287.208-1.235.243-1.988.02-.411-.062-.76-.052-1.18.083-3.4.881-4.294,3.87-6.5A7.038,7.038,0,0,1,3044.157,983.008Zm3.189.183c1.676-.034,3.3.778,2.488,1.306a4.155,4.155,0,0,1-2.931-.177C3046.227,983.835,3046.481,983.21,3047.346,983.191Zm-74.738,2.886-.665,1.188a12.378,12.378,0,0,1-.57,6.653l1.372,1.814,1.084-1.881,1.707.03Zm78.365-.551a1.232,1.232,0,0,1,.852,1.834c-.606,1.354-4.667,2.009-4.667,2.01a3.122,3.122,0,0,0-.375-1.8,13.851,13.851,0,0,0,3.276-1.24c.382-.352.614-.8.914-.808Zm.8,3.079c.393.006.6.293.709.878a1.19,1.19,0,0,1-.32.924,6.982,6.982,0,0,1-4.975,1.627,10.091,10.091,0,0,1,.18-1.819C3048.764,990.258,3051.11,989.01,3051.776,988.6Zm-41.306,6.962c-1.385-2.016-4.456-1.72-4.127-1.579.022-1.726-.271-4.1-2.866-4.35-2.619-.2-3.964,3.286-2.971,4.762-1.616-.677-4.039,1.02-4.039,1.179-.207.007-2.059,4.947,3.545,5.2a5.7,5.7,0,0,0,3.176,4.42l.044,19.033.633.864.055-19.946c2.868-.129,3.222-3.441,3.009-4.205a5.026,5.026,0,0,0,3.406-.952l.335,3.251s.673-1.147.524-1.756c-1.247-18.692,5.452-38.914,14.247-52.022.471-.55.614-1.207.847-1.212,2.145-1.166,3.5-1.951,3.5-1.951,3.537,1.715,9.852,5.856,9.852,5.856l.1,26.637c-.1-.262,11.768-1.336,11.59-1.013,0,0-1.04-.41-1.056-1.111l-.309-62.332-5.191-3.422s-4.269,2.815-5.462,3.777l.13,36.7-9.2-5.437s.147-1.3.161-1.719c-.147-5.007-2.584-6.688-7.221-5.2-.621.2-1.053.373-1.358.117-1.952-5.761-2.83-20.9-2.828-20.9l13.087-22.377,22.2-.123.383,85.5.8,44.814-11.331,8.329-.165-28.707a14.36,14.36,0,0,0-2.048-.836.292.292,0,0,0-.078.534,10.506,10.506,0,0,0,1.441.643l.241,28.453s-4.405,2.992-6.375,4.239c-3.683,2.035-7.306,3.972-11.108,5.674-3.747,1.625-12.006,5.092-12.006,5.092-.718-2.389-7.8-7.972-15.767-4.026a10.471,10.471,0,0,0-2.241.936c-3.035.56-4.035,3.835-4.494,7.019-.016.126.24.1.249.11.033.046.723-3.056,1-3.643a4.2,4.2,0,0,1,1.712-2.121c.179-.031.334.248.092.69a13.584,13.584,0,0,0-.987,3.584c-.1.776-.125,1.4.019,1.426.025.025.705-2.35,1.011-3.188.8-2.186,1.3-3.091,2.068-3.557.788-.478.975-.411.82.1a16.312,16.312,0,0,0-1.885,6.509c-.036.49.21.5.4-.308.642-2.579,1.523-6.068,3.6-7.11.888-.405,1.283-.386,1.188-.1a14.135,14.135,0,0,0-3.07,7.8c.01.378.162.3.48-.515.839-3.115,2.084-5.765,3.561-7.065a3.3,3.3,0,0,1,1.844-.714c1.751-.219,1.81.436.286,1.332-1.735,1.02-3.743,4.732-3.966,7.519-.077.964.261,1.069.5-.217,1.029-5.54,5.735-9.2,9.506-7.506,1.7.764,2.005,1.824.528,1.352-2.99-.954-6.31,1.184-7.679,4.168-1.238,2.7-1.212,4.115-.342,7.728.594,3.337,1.75,7.6,1.369,10.869-.411.636-1.71-.261-3.243-.451a5.691,5.691,0,0,0-3.02.154c-.842.325-1.32.406-1.476-.051-.05-.147.65-.867.961-1.265.5-.636.213-.737-.489-.046a8,8,0,0,1-1.285,1.17c-.443.09-.461-.414-.1-1.7,1.255-4.985.919-5.07-1.234-6.08-2.134-.82-1.459-1.234-2.4-2.05-.666.526.869,2.935,2.607,3.462,1.422.43,1.248,1.164.626,3.137-.631,2.762-1.709,6.418-1.086,8.871,1.31,5.153,6.494,5.048,10.465,2.965l.484,1.314c-3.357,1.372-21.051,2.544-27.014,1.853a16.889,16.889,0,0,1-.694-3.96,31.591,31.591,0,0,0,5.523,1.97c2.295.364,5.831.381,6.736-1.753.277-.625-.007-1.154-.8-.792a12.973,12.973,0,0,1-11.09-.387,1.179,1.179,0,0,1-.524-1.626c.343-.077.794.306,1.061.444,3.046,1.551,4.716,1.852,6.7,1.257,1.507-.451,3.537-2.091,3.036-2.557-.509.179-2.2,1.61-3.362,1.922-2.4.642-4.95-.341-7.44-1.969-.768-.672-.417-1.163.524-.625,3.728,1.894,5.283,3.151,8.851.492.8-.6,1.241-.52,1.709-.158,1.853,1.674,1.847.734.49-1.006a5.011,5.011,0,0,1-.772-1.537,3.3,3.3,0,0,0-.414-1.159,5.932,5.932,0,0,0-2.045-1.109c-1.251-.555-1.666-.288-.743.166,1.616.795,2.4,1.648.4,1.188a7.634,7.634,0,0,0-6.585.844c-1.351.665-1.946,1.376-2.265-.128-.669-3.139-.017-7.4-.913-12.877-.171-1.045-.379-1.707-.163-1.85.278-.183.972.493,1.832,1.712.392.555,1.17,1.624,1.166,1.4.029-1.16-1.758-3.337-3.234-4.195-.811-.471-1.361-2.649-.434-2.17a27.424,27.424,0,0,1,5.15,4.835c.33.548.608.2.26-.445a14.384,14.384,0,0,0-1.936-2.359c-1.509-1.487-1.684-1.417-1.394-1.722.573-.6,1.8.174,3.988,2.172.561.715,1.3,1.36,1.212,1.005.224-.556-1.966-2.933-3.265-3.569-.243-.154-.276-.316-.254-.611.124-1.123,2.638.526,4.724,2.45.782.721.134-.635-.771-1.557a9.6,9.6,0,0,0-2.636-1.934c-.773-.321-.821-1-.215-1.286,2.091-.089,4.25,2.068,5.537,3.764.356.465.681.824.312-.057a7.893,7.893,0,0,0-5.389-4.455c-1.4-.246-1.364-1.517-.053-1.373,1.442.158,3.8,1.472,5.806,3.505.583.592,1.563,1.935,1.361,1.147a7.054,7.054,0,0,0-1.33-1.866,11.993,11.993,0,0,0-5.56-3.525c-.944-.269-3.745.276-3.762-.214-.007-.362.293-.579,1.185-.879,3.462-1.163,8.53,1.84,11.3,6.455.2.331.574.471.6.4-1.337-3.772-5.5-7.191-8.8-7.777-2.25-.365-4.518.215-5.6,1.745-1.214,1.721-.739,4.025,1.083,3.84.956-.089.88-.637.862-.655-.064-.064-.62.2-.964.131a1.2,1.2,0,0,1,.708-2.3c2.1.258,2.394,3.6.05,4.3-2.163.648-2.956-.349-3.548-1.532-.867-1.733.064-4.527,1.592-5.6,4.277-3,9.687-.485,12.744,2.488a13.709,13.709,0,0,1,3.312,5.1c.178.438.559.393.384-.058-4.3-11.091-17.154-12.384-19.034-3.773-3.111-4.922-5.833-5.266-10-3.118-4.251,1.775-6.344,3.222-10.276,5.083l-8.915-4.831c-.526-8.941-.226-17.909-.19-26.86.025-.209-1.933.141-5.192.657-8.669,1.747-7.925-2.942-9.057-3.178-.606-.123-.562.14-.727-16.363-.048-4.793-.142-13.219-.212-18.725s-.088-10.094-.039-10.191a6.364,6.364,0,0,1,1.1-.92c2.112-1.511,3.3-2.425,7.92-5.984a12.669,12.669,0,0,1,1.311-.943c.531,9.915.055,20.327.316,28.85l.39,0-.152-28.62c-.8-.211,18.226-11.447,28.651-15.092.2-.068.683.151.683.151,5.984,7.4,21.727,5.16,23-3.85,2.609,5.492,14.068,16.166,19.3,3.3,0,0,1.9,3.7,3.526,3.94,3.659.49,4.065-.093,12.119-4.036a88.72,88.72,0,0,0-14.937,47.117Zm-4.9-3.516a3.872,3.872,0,0,1,.1,2.063c-.235.5-.586.49-.586.49l-1.783-1.538-1.745,1.632a2.441,2.441,0,1,1,4.017-2.647Zm46.083-.248c1.142-.073.552,1.253-1.137,2.151a3.047,3.047,0,0,1-2.32.519,1.929,1.929,0,0,1,.1-1.443,29.978,29.978,0,0,1,3.358-1.227Zm-73.712,2.5a2.349,2.349,0,0,1,2.407,2.495,3.131,3.131,0,0,1-.318,1.31l-2.118-1.576-1.618,1.741c-.276.1-1.267-1.15-.586-2.508A2.53,2.53,0,0,1,2977.946,994.3Zm30.628.741a2.423,2.423,0,0,1,.358,4.3c-.824.46-2.12.717-2.726-.215l1.751-1.927-2.011-1.708a3,3,0,0,1,2.628-.449Zm42.771-.661c.307,0,.386.118.474.407.25.822-.385,1.648-1.482,1.91-1.014.241-.918.361-1.4-.553-.376-.717-.476-.687.112-.913C3049.763,995,3050.524,994.727,3051.345,994.381Zm-50.68,1.233s-1.264,1.3-1.817,1.839l1.9,2c.092.244-2.2,1.288-3.4-.288a2.754,2.754,0,0,1,.768-3.636C2999.253,994.851,3000.876,995.417,3000.665,995.614Zm2.726-.226a2.053,2.053,0,1,1-2.006,2.081A2.039,2.039,0,0,1,3003.391,995.388Zm-27.8,3.454-1.824,1.928,1.973,2.167a10,10,0,0,1-2.115.153c-2.686-.507-2.423-3.686-.346-4.527A2.4,2.4,0,0,1,2975.588,998.842Zm-35.809.655s.359,4.084.687,5.479c-.216,1.591-1.236,2.675-1.7,4.309-.245.727-1.164,1.7-1.341.68-.664-1.266-.03-2.83-.578-3.731-.42-.85-.2-1.327-.38-2.208-.516-.729-.761-1.058-.676-1.706-.108-2.886-.823-2.314-2.092-2.078-4.925.428-4.923,3.291-4.62,6.925-.7,3.407.59,2.6.548,3.214-.067.971.09,2.332.38,2.482,1.757,2.032,1.843,3.441,4.128,3.092,3.867.3,10.012-.275,11.34-5.034C2946.308,1004.211,2946.564,997.837,2939.779,999.5Zm38.443-.657a1.982,1.982,0,1,1-1.934,2.01A1.972,1.972,0,0,1,2978.222,998.84Zm-36.75,1.041a3.13,3.13,0,0,1,2.3.831c1.518,1.469,1.584,2.8.91,8.451a5.441,5.441,0,0,1-1.48,3.5,13.3,13.3,0,0,1-4.777,2.364,7.7,7.7,0,0,1-2,.2c-.574-.005-.91-.273-.952-.759.126-1.316-1.205-1.444-1.976-1.369-1.374.055-1.514.2-.657-.47.978-.765,3.234-.776,3.662-.328a4.261,4.261,0,0,1,2.919-1.124,2.5,2.5,0,0,1-.3-1.865c.581-1.032,1.559-2.852,2.586-3.535,1.016-1.34.153-.734-.477-.711-.36.013-.33-.107-.388-.35a22.5,22.5,0,0,1-.615-4.159C2940.221,999.995,2940.741,999.89,2941.472,999.881Zm-6.471,1.447a.766.766,0,0,1-.025,1.223.875.875,0,0,1-1.447-.607A.9.9,0,0,1,2935,1001.328Zm68.524,2.829a2.567,2.567,0,0,1-2.383-3.47c.34-.48.487-.411.487-.411l1.876,1.691,1.8-1.9A2.444,2.444,0,0,1,3003.525,1004.157Zm-70.531-2.755a3.222,3.222,0,0,0,.065,1.289c-.327.234-1.718.645-2.464,1.015a.646.646,0,0,1-.821-.76c.2-.836,1.414-1.382,2.3-1.641A1.129,1.129,0,0,1,2932.994,1001.4Zm.305,2.392c.5-.061.354,1.042.166,1.606-.187.4-.74.386-1.236.415-.878.052-1.984,1.073-2.459.909-.157-.074-.269-.494-.286-.761.1-1.472,2.526-2.012,3.815-2.169Zm2.652,1.534a1.172,1.172,0,0,1-1.157.241.914.914,0,0,1-.2-1.639C2935.733,1003.548,2936.42,1004.63,2935.951,1005.328Zm72.822-2.432-1,1.537-1.52-.028,2.456,7.606,1.136-2.972c.153-1.367.332-2.731.473-4.1Zm-32.326.642,1.943,1.6,1.666-1.719c1.24,2.789-.188,4.066-1.708,4.033C2976.671,1007.414,2974.883,1005.81,2976.447,1003.538Zm-42.658,2.884c.615-.118.352,1.561.266,1.609a8.855,8.855,0,0,0-2.8.978c-1.52,1.2-2.169.468-1.465-.972C2930.456,1007.2,2932.906,1006.438,2933.789,1006.422Zm1.934.079a.885.885,0,0,1,.739,1.413.919.919,0,0,1-1.543-.6A.819.819,0,0,1,2935.723,1006.5Zm-1,4.261c.093.392-.043.271-.755.482a11.2,11.2,0,0,0-1.651.708c-.941.48-1.206.738-1.54.683-.266-.058-.572-.174-.654-.446-.328-1.085.548-2.191,2.588-2.951a7.914,7.914,0,0,1,1.442-.314C2934.847,1008.926,2934.107,1010,2934.724,1010.762Zm1.2-1.633c.986-.014,1.171,1.307.433,1.539C2934.635,1011.119,2934.781,1009.128,2935.929,1009.129Zm-1.216,4.866a.61.61,0,0,1,.006.939c-.57.284-2.757.042-2.772-.577-.008-.409.723-.548,1.4-.561S2934.491,1013.781,2934.713,1013.995Zm98.751.678-1.8,2.433,2.419,6.111,2.209-7.4-1.735.694Zm-101.969,6.278c.417,18.82.346,61.947.346,61.947l5.307,3.641,5.587-4.053c-.057-13.574-.111-22.938-.165-35.506l8.187,4.539a4.327,4.327,0,0,1,.214,2.064c-.566,4.69,3.927,7.734,6.909,5.883,1.15-.488,1.244-.575,1.487-.208.67,1.009,1.426,5.329,1.552,8.086.191,4.153,1.273,12.62,1.534,12.677l-13.325,22.675h-21.093v-84.538a7.216,7.216,0,0,0,3.46,2.793Zm77.32-1.814-1,1.54h-1.206l2.115,7.877,2.561-7.7-1.411-.176Zm-66.721,62.812s-2.593,1.879-3.421,2.419c-.436.164-.647.195-.75-.225a13.972,13.972,0,0,1,.258-3.11,11.343,11.343,0,0,0-.081-3.707,19.235,19.235,0,0,1-.079-5.253,48.093,48.093,0,0,0,.02-8.422,55.741,55.741,0,0,1-.053-8.522,30.438,30.438,0,0,0-.224-7.592c-.675-3.772-.786-5.072-.083-7.91a9.951,9.951,0,0,0,.339-3.406,42.494,42.494,0,0,0-.8-7c-.4-2.521-.435-2.867-.057-6.856.077-.8.1-1.343.406-1.6.355-.3,4.054-.515,4.054-.515Zm-9.726-60.927,4.029-.044a14.613,14.613,0,0,0-.413,3.163l-3.578-2.374Zm.059,1.627,3.543,2.334a20.639,20.639,0,0,0,.072,2.909l-3.59-2.4Zm.007,3.7,3.791,2.616c.148,1.018.457,2.048.575,2.964l-4.3-2.935Zm122.591,1.031.2,75.312h-37.736l-11.961-23.189a21.353,21.353,0,0,1,.417-3.222c.358-1.316.453-1.6.955-1.665a2.51,2.51,0,0,0,3.3-1.259c.564-1.265-.578-3.179-2.331-3.594a3.039,3.039,0,0,0-2.471.823c-.5.417-.607.464-.706.1-.222-.819.5-3.044,1.786-4.954.716-1.063.909-1.368,1.141-.964a2.3,2.3,0,0,0,3.71.373,2.849,2.849,0,0,0-1.36-4.341c-4.091-1.321-5.968,2.822-5.917,2.811l-.875-4.966c4.923-1.218,7.765-1.648,9.329-3.155a6.529,6.529,0,0,0,1.665-5.059s13.678-5.608,20.079-9.09a153.853,153.853,0,0,0,20.779-13.962Zm-20.827.544-1.011,1.8-1.435,0,2.9,7.583,2.217-7.917-1.384.124Zm-101.586,2.177,4.343,3.023a12.866,12.866,0,0,1,.09,2.968l-4.573-3.053Zm84.745-.929-1.081,1.449-1.246-.133,2.442,7.509c.743-2.17,1.419-5.117,2.154-7.29l-1.155.055Zm-84.822,4.789,4.5,3.005a5.638,5.638,0,0,1-.259,2.458l-4.242-2.747Zm93.245.434-1.091,2.117-1.454-.2,2.6,7.2,2.841-7.13-1.759.095Zm-93.236,3.066,3.9,2.889c.056.041-.218,1.317-.156,2.04l-3.707-2.306Zm.1,3.572,3.634,2.52a15.587,15.587,0,0,0,.222,2.666l-3.945-2.584Zm-.063,3.64,4.2,3.019.222,2.426-4.45-2.825Zm34.583,1.012c4.032,1.517,7.812,9.255,7.7,19.273-.081,6.955,2,16.883,1.963,16.768,0,0-1.17.158-1.5-.1a65.541,65.541,0,0,1-2.264-14.954,81.152,81.152,0,0,0-.641-8.2c-.662-2.993-1.38-6.485-3.275-8.76-1.477-1.716-3.161-2.015-4.167-.088-.824,1.578.911,4.189,2.352,3.321.348-.2.556-.532.1-.523a1.8,1.8,0,0,1-1.553-2.859c1.666-1.752,4.582,2.152,3.23,4.3-.6.929-2.154,1.093-3.4.751a5.428,5.428,0,0,1-2.541-6.85,3.2,3.2,0,0,1,4-2.072Zm-4.877.994c.328.016.1.626-.2,1.577-.713,2.279.625,5.82,2.477,6.526.556.382.526.527.155.737-1.209.686-3.4-1.371-3.984-3.663-.419-1.658-.316-3.616.474-4.446a2.2,2.2,0,0,1,1.007-.726.436.436,0,0,1,.069-.005Zm-29.749,1.344,4.486,2.96a8.111,8.111,0,0,1-.024,2.9l-4.49-3.158Zm27.07-.037c.333-.011.209.552.116,1.579a6.039,6.039,0,0,0,2.18,5.543c.7.606.894.795.592,1.113-.429.451-1.658-.153-2.623-1.168-1.766-1.858-2.351-5.365-.975-6.636a1.334,1.334,0,0,1,.71-.431Zm49.9.412c1.917-.075,3.535.676,3.713,3.04.261,3.461-2.935,5.354-5.164,3.367-2-1.995.027-5.119,2.343-3.655,1.164.741-.225,2.431-1.167,1.558-.425-.4-.612-.15-.31.3.912,1.374,2.707.232,2.579-.978-.253-2.379-3.149-2.348-4.239-1.417a25.7,25.7,0,0,0-3.788,4.52c-.8,1.187-.975,1.155-.856-.311a7.318,7.318,0,0,1,6.889-6.429Zm-52.2.757c.306-.011.185.431.208,1.57a6.82,6.82,0,0,0,2.894,5.764c.519.579-.146.989-1.123.709-2.225-.692-4.5-5.518-2.611-7.593C2956.939,1049.318,2957.147,1049.165,2957.306,1049.159Zm-2.163.959c.308-.019.134.627.163,1.847a6.2,6.2,0,0,0,2.74,5.367c.616.511.693.454.449.737-.647.753-2.842-.313-3.778-1.851-1.114-1.83-1.277-4.591-.241-5.634.289-.292.5-.455.667-.466Zm-2.153,1.237c.256,0,.113.465.152,1.574.1,2.689.7,4.019,2.394,5.263,1.062.782,1.321.547,1,.856-.569.542-2.125.077-3.292-.918-1.75-1.49-2.241-5.167-.819-6.427C2952.675,1051.479,2952.856,1051.354,2952.99,1051.355Zm-20.371.38,4.311,3.016-.122,2.546-4.289-2.93Zm75.372,4.775a2.566,2.566,0,0,1-2.206-3.09c.071-.484.351-.76.652-.128.258,1,.922,2.4,1.829,2.666.365.109.06.621-.276.552Zm-37.74-3.007c1.979,5.029,1.944,10.523,2.272,15.715.436,6.9,1.645,11.548,2.041,12.331,0,0-1.933.023-2.031-.26,0,0-1.823-9.151-1.549-13.676a42.672,42.672,0,0,0-1.554-11.516c-.63-1.773-.658-.6.821-2.594Zm-37.656,1.964,4.147,2.736c-.058.937-.067,1.873-.055,2.81l-4.065-2.9Zm55.766-.234c0,.152.6.281,1.535.052a5.847,5.847,0,0,1,2.87.013c.848.235.941-.041.174-.379a3.915,3.915,0,0,0-1.86-.523C2990.189,1054.412,2988.354,1054.9,2988.361,1055.233Zm16.8-.106a7.5,7.5,0,0,0,.7.94c.534.625.684.63.441.885-.559.588-1.733-.264-1.859-1.351C3004.33,1054.807,3004.723,1054.305,3005.16,1055.127Zm-37.134.214c1.937,2.786,2.222,9.32,2.262,13.965a70.589,70.589,0,0,0,1.551,11.813,1.686,1.686,0,0,1-1.44-.042c-.5-.655-.8-2.491-1.381-7.461-.149-1.283-.442-5.362-.508-8.647-.058-2.9-1.662-9.169-1.662-9.169a2.576,2.576,0,0,1,1.178-.459Zm-2.156.7c1.766,3.975,2.053,7.923,2.132,12.713a88.409,88.409,0,0,0,1.449,12.182c-.6.063-1.224.113-1.474-.158a2.5,2.5,0,0,1-.363-1.008,87.285,87.285,0,0,1-1.226-11.784c-.345-5.586-.434-6.968-1.218-9.752-.445-1.58-.6-1.547-.266-1.851a1.687,1.687,0,0,1,.966-.342Zm19.846.914c.049,1.85.285,1.1.932.8.487-.042.886.227,1.792.563,1.154.427,1.05.571,1.861.169.5-.248.9-.333,1.138-.137a2.2,2.2,0,0,0,2.86-.29,2.66,2.66,0,0,1,1.579-.087c.657.061.486-.361.567-1.2.071-.743-.21-.808-.971-.557a3.68,3.68,0,0,1-2.229.084,7.443,7.443,0,0,0-3.852-.05c-2.024.321-2.132.115-2.591-.178a4.018,4.018,0,0,0-1.1-.609c-.2.012-.13.682.017,1.488Zm17.962-.85c.192-.1.281.165.549.518.449.589.58.867.2.922-.994.145-1.242.04-1.207-.584.028-.5.136-.692.454-.856Zm-39.888.878c1.459,1.484,1.829,9.81,1.995,11.6.527,9.712,1.44,11.107.971,11.836-.553-.009-.746.2-1.106-.29-1.249-3.558-1.177-7.214-1.379-10.926a44.141,44.141,0,0,0-1.454-10.014c-.456-1.62-.45-1.647.371-2.092a1.581,1.581,0,0,1,.6-.117Zm-1.967,1.171a45.873,45.873,0,0,1,1.687,11.171,88.013,88.013,0,0,0,1.142,10.9,1.543,1.543,0,0,1-1.426-.466c-1.592-7.085-1.085-13.953-2.925-21.078a1.079,1.079,0,0,1,1.522-.528Zm-29.168.873,4.3,3.113.091,2.656-4.389-3.143Zm63.924-.335c-2.428.951-3.056,1.732-2.674,2.418.321.578,1.288.375,3.874-.715,1.933-.814,2.54-.458,2.932.771-.019,1.815-1.763,2.026-2.747,1.776-.424-.016-.361.023.09.592,2,1.585,4.457-1.514,3.234-3.48C3000.33,1058.256,2998.673,1057.745,2996.579,1058.689Zm-15.242.737c-2,1.587-1.287,4.446.38,4.875a1.663,1.663,0,0,0,1.427-.056c.25-.167.248-.439-.264-.525-1.548-.26-2.427-1.406-1.679-2.568.726-1.128,2.071-.911,4.657.214,2.236.972,3.216.672,3.48-.495.116-.516-.026-1-1.1-1.039C2985.256,1059.72,2983.278,1057.888,2981.337,1059.426Zm26.815,4.377c-.133-.823-1.458.021-2.337,1.479-.864,1.434-.953,1.639-1.129.15-.262-2.221,2.021-3.958,3.446-4.014,1.716-.2,2.843.769,2.887,1.886a1.455,1.455,0,1,1-2.867.5Zm-75.593-1.312,4.555,3.157a17.891,17.891,0,0,1,.056,2.6l-4.574-2.954Zm54.689,1.06a2.291,2.291,0,0,0,.569,4.109c1.461.294,1.563-.735.111-1.039a1.145,1.145,0,0,1-.672-1.63c.693-1.143,1.973-.4,2.718-.046,1.653.793,2.509,1.084,3.031.535.928-.976.1-2.714-1.124-2.1a1.478,1.478,0,0,1-1.283.147,5.348,5.348,0,0,0-3.35.025Zm-54.65,2.693,4.48,3.1-.136,2.737-4.207-3.115Zm.092,3.763,4.214,3.031a16.481,16.481,0,0,0,.013,2.354l-4.262-2.777Zm74.52.583c3.379.333,2.259,4.251-.1,3.194-.629-.478-.819-.44-1.518,1.279-.894,2.2-1.112,2.019-.99-.52C3004.692,1072.056,3005.824,1070.609,3007.21,1070.59Zm-26.624.6a.311.311,0,0,1,.184.048c.229.258-.457,1.281-1.038,1.881-.428.284-1.469-.482-1.216-.856a4.743,4.743,0,0,1,2.07-1.073Zm4.509,2.018-.6.087c-.912-2.05-2.807-1.58-3.392.324l-.833-.1c.841-2.335,3.842-3.766,4.829-.315Zm17.014.468-1.022.062c-.917-2.225-2.215-2.557-3.316-.359l-.792-.231c1.363-2.809,3.641-3.035,5.13.528Zm-5.11-2.537c.523-.032.456.211-.089.962-.473.653-.588.755-1.063.4C2995.067,1071.912,2996.363,1071.178,2997,1071.135Zm4.843.065a1.852,1.852,0,0,1,.349.049c1.054.263,1.537.767,1.02,1.413-.322.4-.635.561-.848.291-.71-1.183-1.1-1.788-.521-1.753Zm-15.915.7c.11.441-.235.754-.62.387a.835.835,0,0,1-.274-.591.656.656,0,0,1,.894.2Zm-53.28,1.513,4.333,3.141a18.987,18.987,0,0,1,.165,2.7l-4.46-2.983Zm63.155.952c2.5,1.726,5.422,1.7,7.253.187.409-.339.766-.354.773-.028-.261,1.21-3.443,2.762-5.929,1.882a6.093,6.093,0,0,1-3.384-2.249C2993.983,1073.318,2995.079,1073.859,2995.8,1074.365Zm-1.056.841c3.648,3.176,6.548,2.294,8.746.692.324-.081.329.213.4.762.092.7-.486,1.049-2.066,1.527-3.055.923-6.64-.088-7.285-2.156-.076-.407-.231-.935.2-.825Zm-62.114,1.9,4.393,3.042-.14,2.324-4.279-2.92Zm.07,3.561,4.147,2.837-.014,1.924-4.033-2.9Zm30.119.9c17.691,4.04,30.228,2.121,42.532-.067l10.9,21.578-65.689.089C2954.855,1096.159,2958.424,1088.491,2962.821,1081.572Z" fill="#131f67"/>
                <path id="path3442-2-7-0" d="M2964.474,894.948c1.893,3.283,3.386,6.675,5.09,10.033l.273.177.408.777.046.378,1.01,1.631-.007.35,4.286,8.046c3.535-1.332,32.57-3.73,43.321.193l1.566-2.679.374,0,2.762-4.89-.044-.411.929-1.069.135-.487,3.047-4.813.01-.776,3.812-6.412Zm65.743.923s-1.987,3.857-3.012,5.415c-.828-.659-3.231-.211-3.088,2.345-3.917-1.5-4.862,3.218-1.833,4.28-1.554,1.37-3.04-.179-4.218-1.23-1.153.288-3.545,1.143-4.9-1.372,0,0,.566.308,1.131.644,3.2.983,3.463-3.38,1.079-4.1a5.794,5.794,0,0,0-.865-.112c.8-3.355-4.342-4.527-4.439-.494a3.776,3.776,0,0,0-1.075-.016c-2.726.5-2.1,4.559.685,4.365a3.024,3.024,0,0,1,.727.043c-.045.649-3.418,1.891-5.848-.344-1.152.886-2.976,2-5.353-.213,1.563-.064,3.063-.513,3.046-2.3a2.457,2.457,0,0,0-2.545-2.26,2.751,2.751,0,0,0-2.292-2.638,2.477,2.477,0,0,0-2.312,2.638,2.362,2.362,0,0,0-2.227,2.608c.38,1.8,1.755,2.024,3.325,1.68-1.91,3.1-5.019,1.483-5.977.495-1.142,1.075-3.132,2.53-5.584.54,1.307-.225,2.76-1,2.515-2.839a2.338,2.338,0,0,0-2.507-1.8,2.284,2.284,0,0,0-2.411-2.375c-1.847.178-1.736,2.534-1.715,2.553a2.275,2.275,0,0,0-2.2,2.839c.529,1.407,1.637,1.844,3.674,1.464-2.376,2.25-3.885,1.377-5.182.9a3.066,3.066,0,0,1-4.252.529c3.515.169,2.956-6.1-1.213-3.828-2.965-3.52-2.911-1.956-5.568-7.134Zm-32.755,6.18a1.061,1.061,0,0,1,.529.12c.549.282.652.775.317,1.5a1.732,1.732,0,0,0-.26.819c3.87,7.2,12.4,3.984,13.207.637a1.06,1.06,0,0,0-.157-.672.977.977,0,0,1,.141-1.379,1.055,1.055,0,0,1,1.684,1.228,1.335,1.335,0,0,0-.18.981c2.191,5.021,6.554,5.4,10.214,3.411-1.686,3.047-8.223,4.916-10.968-2.422-4.381,5.978-11.333,5.865-14.488-.884-2.838,6.9-11.4,7.067-14.516,1.332-2.836,6.561-9.415,5.072-11.278.966,6.111,4.463,10.137-.2,10.861-2.183a2.584,2.584,0,0,0-.337-.424c-.782-.775-.76-1.686.05-2.048a1.106,1.106,0,0,1,1.477,1.53c-.149.276-.281.337-.184.575,1.9,4.474,11.268,5.774,13.165-.5a1.376,1.376,0,0,0-.134-.962A1.074,1.074,0,0,1,2997.462,902.051Zm-27.339,2.534c1.477.085,1.065,1.367.769,1.464Zm54.855.8c.01.024-.911,1.661-.911,1.661C3023.58,906.26,3023.706,905.281,3024.978,905.385Zm-4.994,8.27a11.965,11.965,0,0,1-1.255,2.283c-17.5-4.524-41.913-.59-42.514-.155l-1.075-2.043C2990.482,910.646,3005.78,911.307,3019.984,913.655Zm-29.559,31.3c-1.69,6.578-5.78,7.247-10.72,8.047-6.118.991-10.106-1.259-11.97-4.7,0,0-8.751,3.337-11.944,5.276,6.639,3.07,15.411,9.868,20.4,17.587,1.777,2.354,1.687,1.822,1.684,6.984-.007,11.2.019,15.359.019,15.359,2.74.414,2.89,2.315,2.741,4.451,2.2-.98,4.314.219,4.3,2.313-.017,3.85-3.764,2.8-4.542,2.38,1.219,3.392-.212,4.8-1.672,4.964-1.8.205-3.865-.668-3.264-4.551a3.684,3.684,0,0,1-4.792-2.967l-.1-3.96c4.855-9.218-1.239-16.713-6.961-19.178,0,0,1.619-3.378,3.712-4.327.213-.065-1.269-2.259-3.762-1.78-1.147.023-.88.016-1.959-1.4-2.133-2.8-3.138-2.987-5.216,0-.915,1.317-1.134,1.353-2.216,1.375-1.192.025-3.022.889-3.413,1.661-.09.177.377.357,1,1.09.894,1.053,2.273,2.5,2.055,3.974-4.711,1.935-12.528,10.425-4.309,21.3l-5.943.077-.283-38.7-4.133,2.321.183,30.312-1.178-.394c.09-9.669-.054-19.331-.356-28.995l-10.9,8.016.486,45.449,1.159.248c.86,6.192,13.014,1.861,13.724,2.4l.145,25.255-.532,1.252,9.671,5.335,8.871-4.644a8.441,8.441,0,0,0,1.645-.455c3.679-1.957,6.42-1.518,8.42,1.352,1.233,1.77,1.442,2.031,1.442,2.031.748-5.107,5.235-6.989,9.587-5.655,3.2.982,7.574,4.2,8.913,8.132a3.825,3.825,0,0,0,.478.857l.184.081c-.012-.1-.211-.592-.287-.83-4.489-10.4-17.138-12-19.089-3.5l-1.791-2.534,9.418-5.829,12.87,8.548s-.6,3.005-.673,4.3l.221.1a11.627,11.627,0,0,1,1.294-4.7,4.728,4.728,0,0,1,1.052-1.329c.769-.451,1.482-.4,2.262-1.143l-1.879-1.418-.042-4.55,3.777,5.338c1.188-.277,5.814-1.67,8.557-.127.31.1,4.334-1.061,6.839,4.6l12.062-5.056s.769-.438.777-.553c-12.028-4.48-24.172-20.341-23-20.6,0,0-.036-1.628.057-5.621.1-4.45.044-8.994.119-13.459-4.094-1.32-3.076-4.649-3.076-4.649-2.461.544-2.853.062-3.476-.375l-.425-4.214a3.93,3.93,0,0,1,4.187-.982,4.123,4.123,0,0,1-.081-3.337,2.965,2.965,0,0,1,3.923-1.1c1.862,1.281,1.269,3.963,1,4.338a3.579,3.579,0,0,1,4.883,2.032,107.106,107.106,0,0,1,1.917-17.089,97.5,97.5,0,0,1,9.816-25.815c.7-1.237,1.6-2.477,2.323-3.635a16.537,16.537,0,0,0,.991-1.7,10.068,10.068,0,0,1-1.89.784,11.477,11.477,0,0,0-2.61.908,14.286,14.286,0,0,1-3.46,1.993c-3.863,1.518-6.46-.745-8.064-4.2-.893,4.389-4.878,8.1-10.756,5.795-3.321-1.779-4.365-2.916-7.471-7.558a4.619,4.619,0,0,0-.934-1.02Zm.128.718c2.2,4.385,5.487,7.493,8.685,8.735a7.986,7.986,0,0,0,10.539-5.191l1.1,1.884-8.645,6.2-13.046-8.371a22.983,22.983,0,0,0,1.365-3.252Zm39.258.3-3.872,2.3s-2.573,4.189-3.437,5.767a89.193,89.193,0,0,0-9.678,25.51,118.062,118.062,0,0,0-1.726,11.793,70.623,70.623,0,0,0-.268,10.379l.3.332s-.474.841-.815,1.549a9.541,9.541,0,0,0-1.094,5.246,13.849,13.849,0,0,0,7.592,12.056c.246.113.574.259.574.259a11.665,11.665,0,0,1-2.108,3.484c-.907.96-1.1,1.007-.781,1.479.446.657,1.885,1.228,3.674,1.2.633-.01.629-.011,1.8,1.274,2.284,2.51,2.97,2.459,5.048-.386a1.965,1.965,0,0,1,1.872-1.07c1.327-.032,3.749-1.113,3.738-1.619-1.634-.73-3.527-4.5-3.226-4.534,8.936-4.773,10.829-14.664,4.3-21.937l6.233-.1.23,39.459c1.22-.818,3.98-2.577,3.98-2.577l-.092-30.705a15.173,15.173,0,0,0,1.7.529L3044,1034.9s8.008-5.7,11.817-8.672l-.233-44.743h-.911l.146,44.719-10.582,7.8-.069-27.792s.836-.126,1.148-.17c3.1-.438,4.532-4.424,2.476-7.027-.729-.924-.212-.858,1.34-1.159,2.751-.244,4.275-2.343,3.475-3.839-.344-.642.1-.573.394-1.182a2.977,2.977,0,0,0,.072-1.545,1.947,1.947,0,0,1,.3-1.287,2.067,2.067,0,0,0-.4-1.9,2.6,2.6,0,0,1-.314-1.677c-.018-.908-.344-1.038-1.3-1.916-.721-.664-.143-.808.918-1.359,1.669-.867,1.784-3.936-.436-5.242-1.187-.7-3.346-.642-8.025.1-1.774.283-3.858.471-3.858.471s-.015-17.493-.137-26.51Zm0,.618s9.5,5.61,9.426,5.767c-3.191,4.411-15.091,21.988-15.177,43.241-8.727-1.106-12.3,5.781-12.725,5.755a87.131,87.131,0,0,1,14.673-52.526Zm-5.992,3.423-.031.637-1.883,2.839-.05-2.839Zm-2.909.989.069,4.573-3.858,2.975-.225-4.771Zm-35.755,1.046,1.982,1.383-.069,4.539-2.985-5.481Zm54.266,1.53.015,3.284c-7.6,10.828-11.6,23.2-12.816,38.859l-1.852-.062A74.55,74.55,0,0,1,3039.421,953.577Zm-51.511.336,4.692,3.094-.2,5.176-4.259-2.758-.4-1.058Zm28.4.22-.019,4.813-3.624,2.716-.169-4.778Zm-43.926,1.26c.538.006.967.4,1.068,1.151.4,3.2,2.809,2.275,3.383,3.237.217.328-.3.613-1.948.479-3.026-.229-5.232-2.7-3.685-4.327A1.766,1.766,0,0,1,2972.388,955.393Zm20.915,2.062,4.006,2.577-.011,5.315-3.927-2.418Zm18.281.016.31,4.7-4.386,2.943-.157-4.67Zm8.346.019-2.518,5.412-14.691,10.669-12.193-7.969-2.262-5.222,14.225,9.367Zm-39.62,2.148c3.9-.048,6.9,4.134,7.926,7.8.745,2.423.859,3.295.937,7.142.081,3.919.2,4.6.93,5.149.448.341.579.249.635-.444.127-1.54,1.951-.591,1.983,1.031.035,1.8-1.93,2.381-3.383,1-.774-.737-.784-.73-1.026.719-.161.97-1.281,7.044,1.581,8.556.539.051.668-.385.268-.893-.8-1.018.8-2.193,2.108-1.545,1.581.784,1.421,3.355-.268,4.269-1.931,1.045-4.428-.143-5.595-2.662-.856-1.849-.852-4.412.016-8.22a24.953,24.953,0,0,0,.666-4.218,10.534,10.534,0,0,1,.114-1.07c.094-.41-.107-.43-.8-.077-1.89.961-3.951.278-4.459-1.48-.607-2.1,1.714-4.272,3.146-2.943.544.5.478,1.005-.172,1.329-1.127.56-.742,2.033.455,1.742,3.947-1.193.338-12.371-4.106-13.145-2.939-.512-5.246,2.866-3.119,4.674.833.708,1.678.328,1.5-.673-.254-1.395,1.583-1.244,2.262.186,1.1,2.327-1.748,4.22-4.413,2.932C2972.711,965.926,2975.98,959.726,2980.31,959.638Zm17.7.888,3.938,2.669.034,5.188-3.911-2.341Zm8.675.448.019,4.763-3.8,2.789v-5.068Zm10.237,3.122-1.944,5.465-12.265,8.468-10.118-6.4-1.742-5.056,11.921,7.795Zm-79.6.4,0,27.67c-3.974.17-6.256,4.138-3.279,7.887l-1.125.155c-2.689.372-4.49,1.811-4.133,3.554a2.122,2.122,0,0,1-.153,1.34,2.194,2.194,0,0,0,.145,1.881,1,1,0,0,1,.069,1.039,2.028,2.028,0,0,0,.126,1.959c.443.437.32.79.26,1.491-.071.99.106,1.388.724,1.773.8.5,1.093,1.311.187,1.244-.45-.033-2.032,1.506-2.032,1.506l-.149-44.4Zm21.55,3.55c.711,0,1.443.9,2.5,2.422.636,1.09.647.942,2.1.885a4.123,4.123,0,0,1,2.778.958c.147.171-.243.216-1.182,1.178A9.369,9.369,0,0,0,2963.3,976a.563.563,0,0,1-.98.073c-.192-.3.3-1.263,1.225-2.4,1.3-1.271,1.03-1.4-.865-1.2-1.331.141-1.473.074-1.978-.742-1.507-3.024-2.308-2.921-3.751.093-.393.844-.237.79-1.944.657-1.344-.105-1.676.238-.918.95a5.988,5.988,0,0,1,1.58,3.268l-.914.085a8.966,8.966,0,0,1-.4-.85,8.879,8.879,0,0,0-1.638-2.453c-1.025-1.117-.462-1.728,1.825-1.977,1.275-.139,1.3-.157,1.891-1.024C2957.467,968.95,2958.157,968.045,2958.868,968.043ZM3014.5,970.8l-1.321,4.721-10.462,7.4-8.511-5.733-1.129-4.438,9.777,6.25Zm-36.073,3.74a72.081,72.081,0,0,1,4.122,9.8c.954,3.352,2.281,13.057,1.932,13.655-.743-1.03-3.2-.8-3.234-.788a3.75,3.75,0,0,0-2.8-3.883Zm34.423,2.174-1.044,4.647-8.91,6.5-7.351-5.068-.964-4.492,8.136,5.485Zm-51.793.259,1.155.406.218,8.394,8.913,1.495.2,1.437-10.321-1.681C2961.121,983.442,2961.061,976.97,2961.061,976.97Zm-4.524.251.249,9.762c-.1-.033-7.43,1.022-10.237,1.765l.164-1.337s5.1-1.119,8.791-1.549c0-2.729-.021-5.6-.027-8.382Zm82.922,1.8a16.137,16.137,0,0,0,3.808-.348c6.69-1.182,8.5-.7,9.357,1.379.934,3.228-2.572,3.306-3.2,1.257-.4-1.328-1.834-1.037-6.631.11-4.1.982-6.7.2-6.652-2.15C3036.2,976.854,3038.918,976.641,3039.459,979.018Zm-54.978-1.766a1.513,1.513,0,1,1-1.473,1.538A1.509,1.509,0,0,1,2984.481,977.252Zm-21.733.267,1.056.32s.156,6.368.188,6.378c2.273.506,7.045,1.41,7.045,1.41l.253,1.259c-2-.473-8.366-1.526-8.366-1.526C2962.726,982.6,2962.748,977.519,2962.748,977.519Zm-7.711.12s0,5.08-.08,7.81c.035-.024-5.4.874-8.167,1.452l.214-1.019c2.185-.5,4.563-1,6.969-1.507-.048-2-.046-6.381-.046-6.381Zm3.884,1.093a1.215,1.215,0,0,1,.035,2.429,1.215,1.215,0,0,1-.035-2.429Zm90.515,3.171a1.779,1.779,0,0,0,2.09.966c-.184.054-1.045.568-.995.738.024.084-.364,1.483.225,1.541,2.22.216,1.1,2.543,1.363,2.9.6.69,1.039,1.128.627,1.989-.365.764-.889.74-.482,1.395.885,1.342-.337,1.62-.229,2.534a3.754,3.754,0,0,1,.065,1.734c-.608,1.294-2.754,2.031-5.14,2.132-.34.016-.082-.545-.241-.9-.59-.376-.267-1.01-.069-1.425.2-.551.2-.551-.168-.831-1.018-.638-.966-.933-.884-1.394.223-1.364.013-1.5-.4-1.7-.522-.259-.45-.834-.218-1.572.161-.51.047-.638-.2-1.1a1.247,1.247,0,0,1-.191-.595c.073-.7-.552-.7-1.428-.011a33.059,33.059,0,0,0-1.461,4.056c-.36.822-.417,1.681.011,3.577.822,2.9.212,3.38-3.019,2.761-2.43-.6-3.148-3.22-2.473-6.423a4.355,4.355,0,0,0,.031-1.426,6.671,6.671,0,0,1,1.826-5.771c2.545-2.416,3.8-2.784,9.066-2.445a7.881,7.881,0,0,1,2.215.278,5.4,5.4,0,0,1,.073-1.008Zm-37.9.664-.612,4.493-4.941,3.519c-2.326-1.854-4.123-1.236-5.76.749-1.3-.663-3.888-2.472-3.888-2.472l-.662-5.1,7.183,5.029Zm-52.51,1.067a1.215,1.215,0,1,1-1.19,1.236A1.205,1.205,0,0,1,2959.028,983.634Zm51.683,4.6-.271,4.326-1.757,1.333-1.768-.181-.417-2.681Zm-51.713.035a1.215,1.215,0,1,1-1.183,1.236A1.215,1.215,0,0,1,2959,988.269Zm4.845.135a1.213,1.213,0,1,1-1.187,1.228A1.2,1.2,0,0,1,2963.843,988.4Zm-9.633.232a1.215,1.215,0,1,1-1.186,1.232A1.208,1.208,0,0,1,2954.21,988.636Zm89.47.2c.339-.028.841.48.6,1.24-.326.867-.1,1.162.448,1.866.461.595.38.677.31,1.058-.106,2.5,1.488,1.418.8,3.233a3.216,3.216,0,0,0,.119,1.426c-.156-.428-3.088-.389-3.337.046-.418-.063-.946-2.843-.525-3.21a3.736,3.736,0,0,1,.517.745c.394.675.479.65.356-.131C3042.474,992.006,3042.765,988.852,3043.68,988.833Zm-74.981.216a1.213,1.213,0,1,1-1.182,1.232A1.21,1.21,0,0,1,2968.7,989.049Zm-19.487.224a1.213,1.213,0,1,1-1.19,1.232A1.206,1.206,0,0,1,2949.212,989.273Zm47.179.352,3.6,2.36a7.189,7.189,0,0,0,.206,2.171,4.271,4.271,0,0,0-3.543,1.132Zm-25.679,3.774-.279,1.282a44.819,44.819,0,0,0-22.629.085l-.589-1.348A39.571,39.571,0,0,1,2970.712,993.4Zm-33.631-.081a3.477,3.477,0,0,1,1.584,6.659,3.573,3.573,0,0,1-4.783-4.662A3.457,3.457,0,0,1,2937.081,993.318Zm73.213.374-.046,1.287-.9-.758Zm-18.825.058a2.386,2.386,0,1,1-2.326,2.422A2.375,2.375,0,0,1,2991.469,993.75Zm-54.323.077a1.923,1.923,0,0,0-1.087.36c-.629.586,0,.6.834.757,1.477.274,1.884,1.557,1.749,2.943-.122,1.26.3,1.241.636.773A3.037,3.037,0,0,0,2937.146,993.827Zm68.529.634c-.03.016-.065.039-.065.039C3005.627,994.514,3005.649,994.5,3005.675,994.461Zm-46.666.749c1.767-.036,1.953,2.9.391,6.173-.47.985-.71.863-1.225-.626C2956.905,997.089,2957.181,995.248,2959.009,995.21Zm4.088.085a1.144,1.144,0,0,1,.941.425c.95,1.093.219,2.863-2.312,5.586-.615.662-.933.915-1.159.919-.634.013-.631-.093.088-2.457.317-1.042.63-2.186.7-2.541A2.176,2.176,0,0,1,2963.1,995.295Zm-6.4,2.623c.172.813.475,1.942.669,2.511a4.323,4.323,0,0,1,.291,1.2c-.156.438-1.284-.157-2.089-1.1-1.622-1.9-2.269-3.553-1.933-4.441a1.65,1.65,0,0,1,2.329-.405A4.6,4.6,0,0,1,2956.7,997.918Zm11.178-1.893c1.71,1.018-.26,3.342-4.091,5.269-1.639.825-1.522.454-.279-1.174a17.374,17.374,0,0,0,1.423-2.256C2965.621,996.495,2966.31,995.126,2967.88,996.025Zm-17.068.008c.543,0,1.1.582,2.128,2.086a23.416,23.416,0,0,0,1.657,2.121,3.59,3.59,0,0,1,.792,1.1c-.177,1.055-5.51-2.287-5.893-3.693A1.381,1.381,0,0,1,2950.812,996.033Zm76.332,3.059c.962,2,1.045,3.238.249,3.689a1.855,1.855,0,0,1-2.614-1.757,14.858,14.858,0,0,0-.941-3.226c-.367-.89-.417-1.44-.116-1.484A6.611,6.611,0,0,1,3027.144,999.092Zm-6.383-1.514a17.484,17.484,0,0,0-.762,3.442,2.69,2.69,0,0,1-.268.927c-.976,2.03-3.287.374-2.437-1.746.766-1.912,2.717-3.9,3.485-3.967C3021.3,996.189,3020.814,997.411,3020.761,997.578Zm1.557-1.1c.385-.039.708.811,1.206,2.243.672,1.933.644,3.441-.081,4.083-1.553,1.375-3.184-.622-2.556-3.133C3021.389,997.669,3021.881,996.526,3022.318,996.483Zm-52.134.354c1.934,28.734-12.659,50.84-13.7,51.443l-4.965,2.741-8.711-4.789a75.746,75.746,0,0,0,14.83-43.439A13.486,13.486,0,0,0,2970.184,996.837Zm47.853.091c.609-.169.184.368-.42,1.248-.645.938-1.482,3.489-2.146,3.9-1.489.723-3.174-.654-2.271-1.851A12.031,12.031,0,0,1,3018.037,996.928Zm8.858.194a3.752,3.752,0,0,1,1.3.468c3.1,1.528,4.63,3.544,3.3,4.508-.932.677-1.928.152-2.859-1.63a16.12,16.12,0,0,0-1.278-2C3026.668,997.566,3026.506,997.124,3026.9,997.122Zm17.432,1.024a3.641,3.641,0,1,1-3.555,3.689A3.62,3.62,0,0,1,3044.327,998.146Zm-1.1.945c-2.344,1.049-1.638,4.764.382,5.3.854.241,1.892-.117,1.464-.531-2.669-.846-2.686-2.832-1.611-4.286C3043.637,999.342,3043.405,999.013,3043.229,999.091Zm-97.664,5.111c-.092,2.1.359,4.535-.635,6.815-1.506,3.5-6.344,5.1-8.928,4.794a2.266,2.266,0,0,0-1.7-.208,1.313,1.313,0,0,1-1.06-.041c-.331-.155-.648.049-.968-.068-.374-.255-.986-.835-.914-1.267.116-.609.07-1.06-.636-1.259-.978-.277-1.175-.81-.888-2.372.063-.338.138-.49-.08-.637a1.744,1.744,0,0,1-.52-2.337c.308-.547.546-.933-.008-1.368-.219-.5-.181-.69.291-1.329.5-.606.59-.675.268-1.193-.724-1.165.1-2.024,1.071-2.5a13.585,13.585,0,0,1,3.827-.982c.513.03.491.485.8.924.454.712-.186,1.743.184,2.109a1.2,1.2,0,0,1,.734,1.17,2.691,2.691,0,0,0,.307,1.742,2.154,2.154,0,0,1,.13,1.874c-.245.51-.218.476.1.776a3.007,3.007,0,0,1,.362,1.761l1.341-.124a13.152,13.152,0,0,1,2.032-5.062c-.084-1.781-.756-3.418-.7-5.769,3.312-1.2,5.7,1.645,5.578,4.554Zm51.453-4a10.23,10.23,0,0,0,2.94.97,4.211,4.211,0,0,0,3.092,4.121c.03,3.2,0,17.966,0,17.966-3.446-5.829-5.583-13.355-6.035-23.057Zm-57.656.522a9.32,9.32,0,0,1,.252,1.247c.212,1.68-.016,1.909-.459.761-.518-1.344-.545-.3.038,2.781a2.074,2.074,0,0,1-.045,1.422c-.114.315-.317,1.048-.475,1.622-.466,1.69-.739,2.176-1.217.831-.244-.686-.448-.793-.274-1.33a1.872,1.872,0,0,0-.273-1.83,1.841,1.841,0,0,1-.257-1.047c.135-1.56-.553-1.575-.688-1.978.023-.611-.26-2.09.156-2.051a6.741,6.741,0,0,0,2.17-.15c.26-.1,1.072-.278,1.072-.278Zm51.38.193a2.339,2.339,0,1,1-2.288,2.375A2.328,2.328,0,0,1,2990.742,1000.916Zm-35.789,1.425,1.756.336c.392.132.106,24.577-13.953,42.221l-.122-4.087C2949.324,1031.038,2954.141,1019.053,2954.953,1002.341Zm29.785.514.321,5.84c-.989-.849-3.5-2.438-3.482-2.472l.011-2.159s2.159.167,3.15-1.209Zm-13.54.081a5.464,5.464,0,0,1,1.156.892l-1.148.781Zm40.244.294a43.524,43.524,0,0,0,22.438.544l.505,1.429a41.017,41.017,0,0,1-23.888-.482Zm-36.731,1.093.406,2.518-4.28,2.8.208-3.824,2.231-1.46Zm37.891,2.1a1.265,1.265,0,1,1-1.233,1.283A1.26,1.26,0,0,1,3012.6,1006.42Zm19.487.105a1.265,1.265,0,1,1-1.233,1.282A1.258,1.258,0,0,1,3032.089,1006.525Zm-36.5,3.929c.561,1.995.439,6.505-.283,9.563a40.73,40.73,0,0,0-.348,4.179c-.134.171,4.295-3.7,5.72,1.376.49,1.745-1.5,3.4-2.833,2.916-.259-.1-.181-.959.067-1.467.739-1.518-1.368-2.308-2.568-.962-2.773,3.108.08,10.978,4.428,11.743,3.609.634,6.5-2.992,4.095-5.153-1.054-.945-2.739.357-1.967,1.56.823,1.285-.694,1.8-1.841.607-2-2.078.245-5.205,3.268-4.481,4.832,1.109,3.838,8.733-1.228,9.162a7.835,7.835,0,0,1-8.121-4.395c-1.539-2.9-1.654-5.216-.949-10.306.418-3.022.074-5.569-.758-5.551a.825.825,0,0,0-.884.772c-.148,1.107-.273,1.314-.961.912a1.968,1.968,0,0,1,.069-3.268c1.463-1.141,3.357.639,3.28.946a5.413,5.413,0,0,0,.379-1.641c.639-4.217-.78-8.671-2.534-7.958-.384.157-.338.333.165.618,1.168.663.139,2.362-1.328,2.191-2.077-.244-2.549-3.168-.719-4.462,2.881-1.568,5.229.887,5.851,3.1Zm-14.179-3.512s3.685,2.268,3.881,2.85c.125.374.275,3.628.275,3.628l-6.4-4.041-9.167,5.721c.15-1.256.809-4.489.809-4.489l4.876-3.113C2975.715,1007.685,2979.064,1009.916,2981.412,1006.942Zm45.782.216a1.265,1.265,0,1,1-1.232,1.286A1.259,1.259,0,0,1,3027.194,1007.158Zm-9.759.019a1.265,1.265,0,1,1-1.232,1.283A1.261,1.261,0,0,1,3017.435,1007.177Zm4.906.286a1.265,1.265,0,1,1-1.232,1.283A1.264,1.264,0,0,1,3022.341,1007.463Zm-12.284,1.793c3.32.7,6.648,1.414,9.831,1.765l.13,9.862-.93-.055-.134-8.811a47.967,47.967,0,0,1-8.7-1.6Zm24.687.32-.172,1.159s-5.744,1-8.744,1.394c-.048,1.986-.042,8.618-.042,8.618l-1.149.213,0-10.04c3.406-.373,6.808-.76,10.11-1.344Zm-55.582.556,6.762,4.512.8,4.782-7.883-5.288s-7.147,4.855-9.82,6.656l.815-4.508Zm31.216.893a67.49,67.49,0,0,0,8.167,1.421l.115,7.934-1.252-.336-.1-6.439a54.329,54.329,0,0,1-6.506-1.07Zm24.083.235-.229,1.078s-4.358.663-6.606,1.07c-.2.046-.126,6.984-.126,6.984l-1.075.166-.127-8.1Zm-12.2.889a1.265,1.265,0,1,1-1.236,1.286A1.256,1.256,0,0,1,3022.257,1012.149Zm-43.2,2.862,7.994,5.447a32.741,32.741,0,0,1,1.125,4.407l-9.2-5.995-11.511,7.7,1.332-4.759Zm-48.457.166a1.333,1.333,0,0,1,1.194,1.062c.347,1.036.994,1.342,2.7,1.31,3.345-.18,6.85-1.766,10.007-.576,1.535.571,2.081,2.855.8,3.45-1.394.645-1.988.24-2.472-.865-.446-.47-1-.4-4,.123-1.322.217-2.876.411-4.183.518-3.341.272-5.186-.79-5.6-2.8A1.817,1.817,0,0,1,2930.6,1015.177Zm91.586,1.843a1.265,1.265,0,1,1-1.236,1.282A1.256,1.256,0,0,1,3022.188,1017.02Zm-24.492,1.541a1.646,1.646,0,1,1-1.6,1.669A1.639,1.639,0,0,1,2997.7,1018.561Zm-18.626,1.151s6.579,4.437,9.625,6.486l1.684,4.882-11.206-7.354-13.711,9,1.645-5.021Zm47.5,1.526a12.719,12.719,0,0,0,2.824,4.114s-.637,1.219-2.912,1.147c-1.243-.039-1.309.158-1.734,1.008a9.156,9.156,0,0,1-1.714,2.133c-.8.619-2.29-.306-3.521-2.187-.448-.685-.634-.847-1.986-.819-2.076.044-2.827-.538-1.749-1.479.94-1.156,1.616-2.428,2.457-3.643l.934.108a7.83,7.83,0,0,1-1.8,3.423c-.546.622.219.848,1.554.564.847-.258,1.064-.157,1.692,1.151,1.306,2.494,1.986,2.374,3.536-.155.541-1.128.52-1.24,2.009-.915,1.6.162,2.08-.04,1.423-.6a9.33,9.33,0,0,1-2.059-3.816Zm-47.442,3.341s11.9,7.866,11.867,7.7l2.384,5.671-13.964-9.375-17.061,11.2,2.553-5.613Zm.459,5.165,4.148,2.754-.011,4.956-4.237-2.874Zm-1.064.143.076,4.89-3.719,2.237-.207-4.589Zm-4.719,3.152-.034.189.088.046.03,0,.134,4.408-4.278,2.993.015-4.979Zm10.957.054,3.9,2.627.161,5.245-4.232-2.8Zm4.814,3.2,3.911,2.743.138,5.238-4-2.716Zm-20.7.019-.019,4.841-3.892,2.742-.184-4.944Zm41.163,6.247c-.773.812-1.058.711-1.719-.63a3.239,3.239,0,0,0-3.207-2.016c-1.881.033-.651-1.213,1.344-1.36C3009.905,1038.4,3011.655,1040.737,3010.038,1042.561Zm-46.134-2.84.1,4.856-3.873,2.032-.118-2.3,1.994-3.519Zm-4.994,6.49.134.884-.716.279Zm46.608,35c-16.3,3.52-31.924,2.276-43.137.181l-5.124,8.839-.352-.016-1.321,2.287.142.263s-4.258,8.246-6.051,10.846c20.947-.2,66.922-.305,66.922-.305l-2.8-5.686.153-.154-2.767-5.938-.9-1.027a21.121,21.121,0,0,1-.961-2.225c-.378-1.06-2-3.963-2-3.963l-.23.019Zm-42.548,1.244c.216.173,20.877,4.1,42.292.065l1.171,1.978c-18.743,4.354-45.861.195-44.791-.208Zm.356,3.89a6.284,6.284,0,0,1,5.094,2.665,15.232,15.232,0,0,1,1.083,2.148,11.239,11.239,0,0,1,1.791-2.268,7.805,7.805,0,0,1,5.6-2.009c2.317.084,4.869,1.35,7.171,5.011.581-2.112,8.2-9.289,14.47-.34.717-2.378,4.074-7.128,9.51-3.809.371.8.754,1.684.754,1.684-3.208-2.268-8.5-.747-9.747,2.793a1.486,1.486,0,0,0,.2,1.074c1.653,2.385-2.648,2.327-1.374.4a1.157,1.157,0,0,0-.123-1.376,8.972,8.972,0,0,0-6.272-3.376,8.621,8.621,0,0,0-6.376,3.346,1.535,1.535,0,0,0-.122,1.661.971.971,0,0,1-.23,1.247,1,1,0,0,1-1.573-1.2c.281-.478.238-1.064-.336-1.878a8.4,8.4,0,0,0-6.185-3.306c-3.35.078-6.735,2.514-6.521,4.519.094.882-.144,1.21-.857,1.109-.867-.123-.965-.95-.352-1.622a1.2,1.2,0,0,0-.042-1.121c-3.538-4.829-8.836-3.422-10.05-2.34a5.407,5.407,0,0,1,4.493-3.013Zm-3.149,3.352a4.274,4.274,0,0,1,3.21,1.816c.328-.343,3.332-1.789,4.792.278-3.824-.291-3.87,3.805-1.045,4.2-1.288,3.951,4.488,4.189,4.122.479,4.315.644,3.783-4.878-.28-4.295,2.128-1.565,3.577-1.06,6.135.733.86-1.13,4.366-2.186,5.227-.212-4.019-.25-3.334,4.448-.333,4.489-.891,3.255,5.013,4.453,4.1-.41,3.748.265,3.205-4.845-.387-4.423.267-.93,3.912-1.332,5.523.444,1.48-1.363,3.114-2.3,6.065-.347-4.024-.677-4.074,4.6-.336,4.28-.349,3.492,4.935,3.551,4.052-.483,4.024-1.1,1.811-5.442-1.144-4.245,1.316-1.579,3.549-.834,4.435-.514,2.739-3.164,5.125-.518,5.125-.518-4.766-.5-3.729,6.354.914,3.867a2.54,2.54,0,0,0,2.492,2.831l2.254,4.709-63.875.425,3.525-6.257a2.315,2.315,0,0,0,2.831-2.11c4.2,1.344,4.479-3.589,1.343-4.369a2.122,2.122,0,0,1,1.252-.367Zm-2.492,1.785c.418.677.068,1.118-.65,1.136A8.112,8.112,0,0,0,2957.685,1091.479Zm52.548.873.413.877C3010.2,1093.046,3010.144,1092.852,3010.233,1092.352Z"/>
              </g>
            </g>
          </g>
        </g>
      </g>
      <path id="path147-0-8-1-3-6-2-4-7" d="M3032.728,1097.551c7.819-.169,11.326-8.973,5.534-15.81-.84-1-.926-1.57.612-.612,3.9,2.608,11.375.893,11.758-7.078.473-9.821-13.25-12.651-15.827-2.207-.136,1.1-1.031,1.076-.815-.488a32.487,32.487,0,0,1,3.383-12.082h-9.3a32.5,32.5,0,0,1,3.382,12.082c.216,1.564-.679,1.589-.815.488-2.577-10.444-16.3-7.614-15.827,2.207.383,7.971,7.859,9.686,11.758,7.078,1.538-.958,1.452-.385.612.612-5.791,6.837-2.285,15.641,5.534,15.81h.007Z"/>
      <path id="path147-0-8-1-0-3-83-7-5-7" d="M2950.271,901.045c7.82.169,11.326,8.973,5.535,15.81-.84,1-.927,1.57.611.612,3.9-2.607,11.376-.893,11.759,7.078.473,9.821-13.251,12.651-15.827,2.207-.136-1.1-1.032-1.076-.816.488a32.507,32.507,0,0,0,3.383,12.082h-9.3A32.507,32.507,0,0,0,2949,927.24c.216-1.564-.68-1.589-.816-.488-2.576,10.444-16.3,7.614-15.827-2.207.383-7.971,7.86-9.685,11.759-7.078,1.538.958,1.451.386.611-.612-5.791-6.837-2.285-15.641,5.535-15.81h.006Z"/>
    </g>
  </g>
</svg>
