<svg xmlns="http://www.w3.org/2000/svg" xmlns:xlink="http://www.w3.org/1999/xlink" width="179.79" height="250.65" viewBox="0 0 179.79 250.65">
  <defs>
    <clipPath id="clip-kd">
      <rect width="179.79" height="250.65"/>
    </clipPath>
  </defs>
  <g id="kd" clip-path="url(#clip-kd)">
    <g id="kd-2" data-name="kd" transform="translate(-2900.604 -1718.32)">
      <rect id="rect7234-2" width="177.785" height="248.651" rx="8.504" transform="translate(2902.604 1719.32)" fill="#fff" stroke="#000" stroke-width="1.001"/>
      <path id="path6351-0" d="M2926.492,1738.72c.067,63.3-.046,140.914,0,209.852h130.02V1738.72Zm38.054,1.191c22.44.614,45.018-.049,67.624.128,0,0-8.213,14.405-10.7,18.939-.545,1-.6,1.7-.307,2.116a2.089,2.089,0,0,1-.092,2.347,1.234,1.234,0,0,0-.333.6c-.017.16.126.335.241.625.4,1.381-.635,2.337-1.721,2.78a10.394,10.394,0,0,1-3.547.436c-7.5-.358-22.214-6.742-28.277-7.239-4.206-1.183-9.642-.769-14.122-.514-.846.051-.7-1.934-.7-1.934C2971.905,1751.64,2967.292,1745.93,2964.546,1739.911Zm68.843.723h21.462v3.347l-9.084,9.209c-.84.861-1.5,1.575-1.5,1.575l-.053,8.309c-6.083-3.29-7.295-7.223-8.406-11.548-10.167,7.553-10.643,24.082.457,32.592.09-3.7,2.888-10.96,7.845-11.5l.069,28.793-6.1-6-13.256.174c2.185-3.57,2.235-6.406.821-9.753-2.384-5.468-6.061-17.95-5.779-17.908a.6.6,0,0,1,.407-.336,2.04,2.04,0,0,0,1.484-2.6c-.06-.413-.058-.316.222-.853a4.01,4.01,0,0,0-.207-3.865Zm-70.331,0,7.957,14.533a5.251,5.251,0,0,0-.061,1.054,3.77,3.77,0,0,0,.567,1.583,3.219,3.219,0,0,1,.415,1.255c.079.719.079.719,1.123,1.668.22.2.262.322.18.529-.345.88-.143,2.679.541,4.826.864,2.713,1.087,2.677-.521,6.306-.336.757-.742,1.769-1.178,2.7-1.986,4.106-2.292,5.22,1.116,7.409a1.9,1.9,0,0,1,1,2.379c-.189.965-.227,1.582.234,2.127.3.353.569.411.5.683a4.943,4.943,0,0,0-.2,1.665c.2,1.82-1.887,4.5-3.792,5.44-.381.272-.49-.06-.706-.44-1.974-3.48-6.887-2.07-7.213,2.081-.086,1.1-.052,1.574-.333,1.807a4.308,4.308,0,0,1-.384.243s-7.352,4.815-12.029,7.29a5.059,5.059,0,0,1-.794.471.59.59,0,0,1-.586-.15c-1.726-3.306-.77-7.211-.622-8.6-.037-.491-.453-.58-1.081-.587a3.655,3.655,0,0,0-2.926,2.085c-.283.86-.464,1.417-.721,1.413s-.383-.351-1.024-1.591a17.667,17.667,0,0,0-2.784-4.405c-.993-1.2-1.841-1.354-2.814-.464-.677.619-.655.081-1.231-.231-1-.682-2.49-.072-2.527.888-.031.805-.038,1.41-.848,1.463-.9.059-1.293,1.232-1.039,2.9.134.88.16,1.021-.107,1.343a2.829,2.829,0,0,0-.506,3.247c1.368,4.187,3.349,7.005,5.211,10.812,0,0-4.6,2.7-7.405,4.274v-78.014Zm91.935,4.189.111,67.663-10.154-10.051s-.2-12.966-.187-18.267.086-10.6.065-11.587.052-5.181.084-9.487c.067-9.022-.753-7.907.913-9.638Zm-19.844,8.112.56,1.633c-4.256,2.457-9.461,16.136.1,26.179l-.192,2.07C3025.6,1773.668,3027.45,1760.548,3035.149,1752.935Zm.729,1.931c1.46,3.035,3.122,5.722,5.387,7.367a11.9,11.9,0,0,0,.322,10.529c-1.449.8-3.464,2.927-5.548,7.282C3028.5,1772.373,3030.176,1761.252,3035.878,1754.866Zm-56.1,5.734a44.131,44.131,0,0,1,12.543,1.907c2.522,12.837,6.952,21.468,6.933,26.495a3.163,3.163,0,0,1-1.093-.6,4,4,0,0,0-5.5,1.1c-1.214,1.6.009,3.821-.613,4.753-1.178,1.738-4.209,4.952-4.717,4.846-.369-.077-.31-.24.99-2.247,1.353-2.091,2.39-3.985,1.944-4.448-.19-.2-.29.218-1.3,1.984-2.37,4.145-4.455,6.708-5.28,6.375-.387-.156-.187-.5,1.568-2.834,1.982-2.637,2.532-4.286,2.335-5.016-.151-.56-.458.346-1.281,1.966a54.817,54.817,0,0,1-3.742,5.459,3.364,3.364,0,0,1-1.595,1.352,4.367,4.367,0,0,1-1.741.509c-.235-.03-.073-.169.249-.486a30.243,30.243,0,0,0,5.936-8.352c.191-.368-.083-.892-.4-.506-1.892,3.352-4.525,7.534-7.385,9.379a4.066,4.066,0,0,1-2.37.66c-1.408-.04-.91-.356.372-1.185,2.744-1.775,6.595-6.879,7.216-8.684.147-.426-.016-.67-.287-.641-2.258,3.637-5.241,7.639-8.708,9.313-1.869.9-4.225,1.081-5.384.51-.849-.418-.637-.562.87-.66,3.626-.36,7.874-3.787,9.978-7.414,1.231-2.007.367-1.546-1.039.39-2.4,3.306-7.168,6.475-10.124,6.225-2.989-.179-4.709-2.511-4.325-4.51a3.45,3.45,0,0,1,2.757-2.8c2.863-.605,4.737,3.962,2.117,4.823-.893.293-1.232.071-.909-.29a1.8,1.8,0,0,0-.56-3.448,2.033,2.033,0,0,0-2.278,2.159c.031,1.2,1.012,2.373,2.98,2.4,2.334.033,5.914-1.658,8.087-4.772,1.542-2.38.122-1.577-1.027.011a13.667,13.667,0,0,1-4.541,3.29l.112-1.614c.05.279,5.043-3.164,4.751-5.726-.187-1.86.082-2.429,2-2.405,1.438.017,3.266.525,3.8,1.189.547.657,1.161.864.889-.243-.441-1.8.087-2.094-.947-1.753-.714.235-1.347-.342-2.063-.854a4.688,4.688,0,0,0-2.972-.76c-.888.032-1.288-.022-1.146-.865a2.957,2.957,0,0,0,.042-1.525c-.279-.634-1.39-1.289-2.646-2.22-1.483-1.1-1.208-1.165,1.952-8.5,1.326-3.079,1.332-3.711.536-5.985-1.257-3.592-1.455-5.031.9-5.533a35.2,35.2,0,0,1,4.1-.227Zm13.379,2.081,1.223.351c.01,0,3.82,13.131,6,19.541a27.743,27.743,0,0,1,1.3,7.082c-.059,3.418-1.971,5.871-4.3,6.139a4.151,4.151,0,0,1-4.26-2.521,3.32,3.32,0,0,1,1.821-4.549c3.448-1.239,5.974,3.192,2.592,4.556-1.748.706-3.41-.566-2.622-2.046a1.363,1.363,0,0,1,2.473.147c.3,1.14.8.6.583-.17a2.043,2.043,0,0,0-4.034.386c0,2.809,3.055,3.469,4.877,1.892,1.412-1.261,1.561-3.54,1.208-5.518-.485-4.107-2.793-9.434-4.433-15.514a83.77,83.77,0,0,1-2.427-9.776Zm48.673.146,2.3.915-.053,7.622-1.948.676c-2.549-3.922-.429-9.209-.3-9.213Zm-46.556.495,1.683.652c.922,5.38,5.269,15.665,6.8,23.341.427,4.613.5,5.967-2.607,8.425v-.035h-1.68s-.008-.1.729-.656c4.064-3.061,1.638-9.806.1-14.989-2.674-8.279-5.064-16.749-5.031-16.738Zm-15.733.536c-.214,0-.43.012-.649.023-2.539.138-2.956.3-2.964.858-.015,1.047.411,1.512,2.773,1.255a15.57,15.57,0,0,1,7.044.98c2.327,1.008,2.88,1.246,3.716,1.68,2.1,1.088,1.733.005-.165-1.251-3.877-2.567-6.556-3.583-9.755-3.545Zm18.317.371,1.58.606s.418,1.24.568,1.95c1.537,6.868,5.719,14.592,6.208,22.626.11,2.633-.338,5.088-2.255,6.275h-1.445c1.545-1.548,2.575-1.995,2.143-7.375C3003.968,1781.4,2999.442,1772.768,2997.853,1764.229Zm2.8,1.116,1.458.54c1.677,9.275,10,23.133,4.7,29.82h-1.323a8.875,8.875,0,0,0,1.491-5.989c-.515-8.427-4.784-16.606-6.327-24.371Zm2.443.853,1.568.483c2.13,9.4,10.312,24.8,4.479,29.055l-1.15-.031C3012.391,1787.433,3005.728,1778.873,3003.1,1766.2Zm2.734.877a8.647,8.647,0,0,0,1.7.552c1.65,7.105,4.667,14.093,6.039,20.711.462,3.623-.327,6.336-2.588,7.367h-.483c2.029-3.084,1.646-6.974.564-11.178C3009.6,1778.874,3006.776,1772.654,3005.833,1767.075Zm-24.71.123a7.256,7.256,0,0,0-2.3.363c-.826.314-.724.97.042.834l1.024-.181c1.881-.331,4.2.352,7.01,2.065.678.414,1.416.813,1.6.95.516.388,1.067.386.878-.108a8.6,8.6,0,0,0-2.117-1.583c-2.049-1.247-3.953-2.319-6.139-2.34Zm27.375.618,1.58.243c2.972,13.752,9.5,22.3,3.915,27.4h-1.4a7.8,7.8,0,0,0,1.71-6.935c-.516-2.966-2.039-7.674-3.3-11.815-1.464-4.8-2.642-8.858-2.508-8.892Zm2.266.386,1.339.251c1.567,5.59,4.229,12.519,5.832,18.29.986,3.55.59,7.921-1.611,8.727l-1.131.019c1.868-2.513,2.134-5.13,1.281-8.514C3014.723,1780.028,3012.073,1773.966,3010.764,1768.2Zm8.26.008a169.664,169.664,0,0,0,5.763,17.688c1.552,3.117,1.087,7.733-1.246,9.56l-1.1.023c1.334-1.256,1.792-3.371,1.58-5.564-.6-6.2-4.957-14.79-6.534-21.391Zm-5.871.274,1.381.127c1.382,6.062,4.071,11.954,5.817,18.017a14.755,14.755,0,0,1,.495,4.27c-.239,2.579-1.3,4.614-2.232,4.614h-.951c1.942-2.33,1.847-5.508,1.016-8.923C3017.3,1780.944,3013.981,1774.139,3013.153,1768.484Zm-35.941.031c-.576,0-.586.533.333,1.344.562.495.519.33.487.644-.137,1.343.073,2.572.621,1.19.147-.369.361-.786.576-.734.405.126.2.876.394,1.255.331.669-.02.832-.824.625-.578-.149-.611.167-.97.568-.629.7-.526,1.122.441.9a.874.874,0,0,1,.418.039,3.867,3.867,0,0,1,1.3.815,9.456,9.456,0,0,0,3.079,1.8c1.359.231,1.055-.424-.057-.853a4.55,4.55,0,0,1-2.132-1.672c0-.217.3-.088,2.02-.564a17.554,17.554,0,0,0,2.236-.872,2.9,2.9,0,0,1,1.906-.3c1.945.059,2.242-.008.878-1.027-2.756-2.058-6.433-3.4-8.382-2.544-.591.259-.578.1-1-.147a2.887,2.887,0,0,0-1.315-.467Zm39.442.185c1.91,7.409,5.6,14.047,6.5,21.074a6.652,6.652,0,0,1-1.791,5.672l-1.12.02c-.164,0,1.563-2.687,1.415-4.989a13.137,13.137,0,0,0-.437-3.846c-2.17-6.248-4.307-11.91-5.966-17.865Zm-34.371,2.449c.435.08.439.291.3.547-.225.4-.621,1.182-.621,1.182s-.528.1-.637-.031c-.179-.262.43-1.518.78-1.7a.262.262,0,0,1,.181,0Zm1.2.223a.751.751,0,0,1,.241.073c.5.2,1.369.608.994.923a3.441,3.441,0,0,1-2.083.386l.576-1.069C2983.335,1771.458,2983.389,1771.374,2983.485,1771.372Zm-5.273,6.475a.251.251,0,0,0-.111.031c-.1.06.126.463.456.919,1.524,2.069-.585,2.683-2.078,1.575-1.417-1.109-3.606-1.005-3.29.159.111.41,0,.61.794.621a2.064,2.064,0,0,1,1.518.487c2.424,1.669,5.557-.565,4.027-2.962a2.023,2.023,0,0,0-1.316-.83Zm5.982,3.232c-.88,0-1.436.661-.333.859,3.937.712,1.3,4.823-1.48,2.7-2.5-2.275-5.85-2.259-5.89-.645-.008.406.012.42.6.533a21.5,21.5,0,0,1,4.276,1.309,9.288,9.288,0,0,0,1.1.494c1.667.61,3.806-.183,4.23-1.6.387-1.3.075-3.658-2.5-3.658Zm-49.393,13.228a2.022,2.022,0,0,1,1.488,1.151c.924,1.571,2.048,4.212,2.764,5.668a1.719,1.719,0,0,1,.177.869c.056.853.34,1.176.843.791s1.181-1.01.376-1.112c-.81-.614-1.26-1.516-.759-2.065.369-.405.224-.667-.073-.684-1.134-.017-2.825-3.415-2.028-4.147,1.075-.987,2.265.236,4.8,5.294,1.115,2.234,1.167,4.678.211,3.467-.325-.3-.259-.147-.641.815a5.25,5.25,0,0,1-1.614,2.124,10.867,10.867,0,0,0-2.167,2.529c-.057.426.719.028,1.285-.715,1.264-1.243,1.311-1.574,1.3.074-.011,1.49-.087,1.763.18,1.753.416-.016.638-1.2.832-2.618a3.716,3.716,0,0,1,1.994-2.641c.3-.2.307-.331.249-.9-.2-1.81.82-5.186,1.285-4.351.065.187.268.627.376.934.087.476.385,1.014.839,1.05.566.426.564.656.76,2.217a8.678,8.678,0,0,0,.445,1.679c.292.756.553,1.2.391,1.425-.1.111-.322.32-.322.32l-9.219,5.5s-.723.4-.985.514a1.076,1.076,0,0,1-1.534-.463,63.456,63.456,0,0,1-4.667-9.255c-.824-1.8-.017-2.994,1.047-1.541.414.564.2.924,0,2.015-.037.2.145.122.487.178.538-.058.8.426.778,1.247-.339,1.177.131.542.353.483.426.006.521.264.76.753.149.689.45.489.889.035.364-.376.365-.367-.368-1.248a18.566,18.566,0,0,1-3.474-6.394,2.218,2.218,0,0,1,.015-1.22c.572-1.3,1.368-1.3,2.236.51a9.9,9.9,0,0,0,.644,1.1,2.544,2.544,0,0,1,.529,1.676c-.257.647-.3.66-.077.749a3,3,0,0,1,1.573,2.116c.044.91.2,1.393.909.853.81-.615.465-.863-.334-1.652-.838-1-.888-1.874-.391-2.6.081-.243.047-.312-.261-.282a1.376,1.376,0,0,1-1.243-2.089c.312-.552.275-.695-.164-.71a2.1,2.1,0,0,1-.794-.07,5.025,5.025,0,0,1-.882-1.923c.284-.873.723-1.225,1.189-1.22Zm57.776.047a18.76,18.76,0,0,0,4.977,2.482,27.473,27.473,0,0,1-16.454,13.171,3.347,3.347,0,0,0,1.254,2.521,10.918,10.918,0,0,1-.353-2.212c7.715-1.984,14.506-9.594,16.243-13.518l33.906-.371c-25.135,24.278-26.137,58.448-5.63,87.088l-2.358,1.386c-15.8-23.834-15.641-46.8-10.9-62.176a61.774,61.774,0,0,1,13.974-23.993s-18.383-.254-27.533.085a39.239,39.239,0,0,1-4.352,5.653s4.649-4.521,4.529-5.3c8.479-.005,17.223-.5,25.691.1-9.909,11.942-14.793,24.269-15.641,35.866-.032,1.509-.122.666-.617,1.221l-1.565,2.444-1.254-2.541c-.852-.277-2.528.17-3.24-.089-3.486,15.661.037,34.563,4.625,46.9a4.993,4.993,0,0,1-2.569.54c-1.552-.347-1.931.084-3.275.359-1.546.3-2.085.294-2.428.688a3.608,3.608,0,0,1-.924.737c-3.765,1.377-8.183,6.541-8.183,6.468l-4.145-1.873c3.819-7.553,8.3-10.271,16.182-13.622l-.732-3.375c-8.393,3.148-13.734,6.917-17.946,14.24-5.111-.073-25.813-.22-25.834-.154,8.444-9.669,15.1-24.253,15.829-35.623.179-2.215-.129-1.15.844-1.811l1.53-1.834,1.2,1.807s.869,1.114,1.419.185c1.54-15.856-.089-33.936-7.677-46.538a6.473,6.473,0,0,1,3.976.641,80.916,80.916,0,0,1,5.476,21.394,103.238,103.238,0,0,1-.153,24.476l.506.07a102.836,102.836,0,0,0-.38-29.554,75.769,75.769,0,0,0-4.482-15.734c-.426-.955-.757-1.2-.353-1.344,9.247-.783,13.5-3.89,16.819-8.849Zm-25.638.834a1.29,1.29,0,1,1-1.281,1.289A1.284,1.284,0,0,1,2966.939,1795.188Zm69.5.656a76.655,76.655,0,0,0-7.167,7.749c6.762,9.364,14.277,19.514,20.6,27.623a16.505,16.505,0,0,0,2.178-1.467c-.008-.086-.175-.517-.215-.421a10.978,10.978,0,0,1-1.771,1.17l-20-26.426s1.084-1.307,1.419-1.718c1.554-.514,5.878-5.907,6.09-5.8,3.387,2.613,13.6,13.69,17.539,17.086l.05,30.746c-.407,1.23-11.3,5.971-18.992,23.658-3.869,2.182-8.155,3.356-12.141,5.255a15.135,15.135,0,0,0,1.511,2.046c-.609-1.325-.717-1.578.663-2.143l28.787-11.815-.053,2.386c-2.887,2.248-21.977,16.153-27.848,19.438-27.543-38.667-9.986-71.732,6.067-87.193Zm-89.7,2.089c.751.012.562,1.768.283,2.375-.555.439-1.108.049-1.1-.773a.947.947,0,0,0-.115-.563C2945.4,1798.7,2946.094,1797.923,2946.742,1797.933Zm16.822,1.1a3.5,3.5,0,0,1,1.1,1.772c-.854-.135-3.139-.8-2.067-1.309Zm-4.16,2.281c19.865,30.252,18.976,62.382-3.2,86.737l28.05-.042c3.571-7.094,9.519-11.418,17.13-14.082l.663,2.228c-8.747,2.827-13.172,7.514-16.692,14.008h-33.453c12.853-13.925,18.741-25.687,19.668-41.6.882-15.154-2.947-28.994-14.576-45.646Zm5.6.348,4.686,2.228-.694,4.842-4.909-2.278Zm-8.448,1.359c25.055,38.163,14.309,65.007-5.694,87.347l-3.685.062-8.59-8.035.158,48.824s-8.375,8.261-9.338,9.251c-.95.922-1.664-.494-1.664-.494l.023-64.724.372-2.537.115-13.947,5.338-2.834,20.017,26.418a7.3,7.3,0,0,1-1.177,1.406c.427.962,1.846-1.436,1.967-1.823-7.261-9.057-20.761-26.792-20.761-26.792l-5.621,2.954s.163-11.579.061-16.024c.216-1.049,1-.768,1.522-1.236,7.311-4.783,13.338-11.651,18.464-23.371,3.9-1.277,7.983-3.09,11.9-4.719l-5.633-8.513Zm-15.353.487a3.025,3.025,0,0,0-1.476.907c-1.343,1.227-3.112,3.242-3.118,3.626.36.13.679-.078.967-.371,1.123-1.669,2.859-2.322,3.877-3.784.158-.27-.009-.382-.25-.378Zm12.62,1.772s3.887,5.7,4.881,7.216c-10.243,4.084-20.961,9.478-30.454,12.966v-2.286S2946.077,1809.713,2953.821,1805.277Zm15.238,3.768,3.831,1.993-1.081,4.351-3.865-2.178Zm3.16,7.24,3.148,2.309-1.438,3.691-3.171-2.2Zm-25.688,2.707a18.883,18.883,0,0,1-1.3,3.243c-3.9,6.816-7.708,12.873-15.584,18.132a14.194,14.194,0,0,1-1.158-1.78l-.076-2.019c4.175-3.378,7.779-5.857,13.31-15.769l1.6-.657,1.365.6.924-1.66Zm16.385.015c-3.629,7.754-7.2,15.751-12.984,21.792l15.826,22.244C2970.965,1847.338,2969.032,1832.618,2962.916,1819.007ZM2943,1820.7l-.759,1.325,1.315.764.76-1.324Zm-2.147.143a33.271,33.271,0,0,1-12.819,14.993l-.219-9.471Zm1.008,1.927-.759,1.324,1.316.765.759-1.325Zm32.345.278,2.853,2.726-1.7,3.008-2.925-2.437Zm43.707,1.34-.008.008c-5.014,15.692-3.508,30.68,3.371,43.727a91.189,91.189,0,0,1,12.734-23.12c-4.057-5.35-15.689-20.784-16.1-20.615Zm-77.171.251-.8,1.3,1.292.8.8-1.3Zm21.876,1.83a43.153,43.153,0,0,1,1.718,29.19l-11.289-14.36A103.936,103.936,0,0,0,2962.621,1826.467Zm-23.042.038-.855,1.263,1.254.865.855-1.267Zm-1.262,1.807-.935,1.209,1.2.942.936-1.208Zm37.192,1.286,2.558,2.444-1.615,3.17-2.595-2.39Zm-38.668.595-.982,1.162,1.155.988.981-1.162Zm82.459.343,11.389,14.8a77.584,77.584,0,0,0-9.8,15.742C3017.711,1851.063,3016.279,1841.226,3019.3,1830.536Zm-84.058,1.5-1.051,1.1,1.1,1.058,1.051-1.1Zm26.6,1.478-5.212,7.588,5.975,7.679A37.327,37.327,0,0,0,2961.847,1833.513Zm-28.3.248-1.119,1.034,1.027,1.128,1.12-1.035Zm-1.645,1.478-1.181.966.959,1.189,1.177-.965Zm44.509.784,2.139,2.518-2.17,2.59-2.032-2.3Zm27.2.452,1.454.054c-2.384,23.673,2.3,35.651,6.446,46.067,0,0-.01.418-.15.541a3.142,3.142,0,0,1-3.137-.483c-5.576-14.432-6.792-32.209-4.613-46.179Zm-73.624.305-1.231.9.89,1.239,1.23-.9Zm91.087.842c-.37,0-.691,9.739.7,14.494l5.242-7.15Zm-13.551,1.606,1.752,2.371-1.86,2.552-1.9-2.417Zm-78.959.645c.088-.014.232.232.514.428.262.276.224.255-.069.491-.459.368-.595.308-.587-.267.039-.473.073-.641.142-.652Zm47.948,1.78,1.936,2.791-2.143,2.776-1.833-2.922Zm30.857,3.537,2.04,2.5-1.752,2.745-2.228-2.622Zm47.235.528.18,2.885-.706-1.054-1.3,1,.905,1.208,1.132-.888.069,1.162c-7.185,5.229-10.284,11.234-13.2,15.738l-1.3.553-1.476-.472-.721,1.286-1.254.3a59.624,59.624,0,0,1,6.891-11.132,77.972,77.972,0,0,1,10.771-10.584Zm.832,4.514.061,10.255-12.857,5C3045.975,1859.763,3049.91,1854.45,3055.434,1850.232Zm-3.194-1.247-1.174.969,1.013,1.17,1.169-.969Zm-1.806,1.544-1.132,1.016,1.055,1.131,1.131-1.023Zm-42.937.568,2.424,2.6-1.776,3.069-2.523-2.436Zm41.111,1.093-1.062,1.092,1.162,1.124,1.062-1.093Zm-1.672,1.726-1.02,1.135,1.235,1.077,1.02-1.135Zm-1.679,1.934-.947,1.2,1.284,1,.947-1.2Zm-36.928,1.838,3.03,1.981-1.48,3.629-3.026-2.32Zm35.463.016-.89,1.243,1.369.942.9-1.286Zm-1.369,1.961-.825,1.286,1.385.9.82-1.329Zm-1.223,1.942-.76,1.325,1.434.822.76-1.34Zm-1.1,2.008-.759,1.324,1.587.691.629-1.262Zm-30.124.818,3.1,2.116-1.373,3.8-3.275-2.332Zm44.88,3.742v78.387h-33.9s-1.6-2.839-4.939-9.377c-1.415-2.767-2.612-3.943-2.734-6.135a3.541,3.541,0,0,0-1.511-3.336c-.352-.2-.941.041-.744-.51.216-.606-.448-1.539-.629-1.737-.207-.351-.078-.437-.1-1.742a8.946,8.946,0,0,0-.356-2.741c-.679-2.407-.83-3.609-.441-4.857a69.539,69.539,0,0,1,3.42-8.545c.791-1.727.67-2.4-1.756-3.657-1.817-.939-2.058-.929-1.829-2.3a2.7,2.7,0,0,0,.072-1.359,2.4,2.4,0,0,0-.559-.606c-.237-.2-.166-.625.076-.938s.24-.747,0-1.479c-.5-1.541.627-3.582,2.749-4.993.939-.623.912-.494,1.891.541,2.86,3.024,7.109,1.124,7.117-3.139,0-1.329-.447-1.25.8-1.877,4.231-2.711,12.914-7.641,12.857-7.506a19.068,19.068,0,0,1,1.112,3.4c.309,1.071.268,1.153.153,3.239-.1,1.885-.16,2.324.28,2.444,2.506.278,3.078-.614,3.559-2.243.207-.72.607-.573.855-.27.953,1.747,2.16,3.565,2.953,4.807.99,1.586,2.658,2.375,3.531,1.625.184-.616.335-.635,1.442-.382a1.669,1.669,0,0,0,2.235-1.444c.052-.4-.235-.38.484-.772,1.782-1.329,1.1-3.143.835-4.236a1.616,1.616,0,0,0,.779-1.475c.085-5.31-4.486-12.958-4.383-12.761Zm-43.021,3.058,3.628,1.765-.855,4.363-3.728-1.688Zm35.3,1.622c2.089,2.439,3.6,6.505,4.379,9.154.385,1.32.432,2.826.088,3.035s-.5-.014-.433-.8c.053-.657.072-1.165-.207-1.158-.811.211-.843-1.026-.76-1.317a2.883,2.883,0,0,1,.2-.436c.2-.479-.322-.414-.863-.421-.478.012-.6-.281-.579-.737-.014-.507-.68-.408-1.058-.024-.347.351-.274.765.2,1.054.674.416,1.311,1.437,2.88,4.958.911,2.044.641,3.495-.445,3.479-.753-.022-1.63-2.1-2.339-3.629-.183-.4.276-.838.437-1.051.417-.55.354-.724-.265-.733-.578-.009-.824.043-1.173-.676a1.824,1.824,0,0,1-.18-.946c.3-.793-.315-.984-.909-.68-.749.315-.744.988.4,2.089.736,1.216.543,1.131-.154,1.95-.145.289-.058.467.25.471.884-.271,1.846,1.332,1.583,1.881-.271.236-1.011,1.091-.3.926,1.456-.4,2.341,1.748,1.484,2.475-1.278.646-1.581.444-3.551-3.517-.611-1.23-1.347-2.552-1.438-2.688a1.8,1.8,0,0,1-.126-.791c.086-.717-.218-.879-.836-.595-.464.112-.883.5-.3.861.686,1.193.929,1.385.552,1.688-.859.688-.486.66.475.853a1.218,1.218,0,0,1,.84.68c.5,1.123,1.378,2.708,1.465,3.031.291.824-.235,1.194-.955,1.158-.753.018-1.1-.581-1.465-1.093-1.37-1.917-2.356-3.815-3.754-5.992l.188-2.035a1.114,1.114,0,0,0,.571-.019c.4-.195.642-.831.871-1.676.368-.735,2.537-2.407,3.367-3.305a.613.613,0,0,0,.283-.371c-.008-.329-.941-.109-1.556.6-.905.809-1.291.532-1.262-.5-.089-1.276-.862-.636-.9.61a2.829,2.829,0,0,1-1.124,2.136c-1.291,1.039-1.076.776-1.016,2.22.1,2.518-.86,4.588-1.491,3.216-.225-.487-.487-1.041-1.051-1.065-.4-.018-.6-.412-.817-1.387-.327-1.576-.783-2.591-1.2-4.042Zm-32.153,5.425,4.18,1.675-.783,4.4-4.141-1.6Zm31.869.405a.326.326,0,0,0-.1.023,40.035,40.035,0,0,1-3.547,2.672,2.806,2.806,0,0,0-1.047,1.224c0,.193.572.188,1.132-.058a20.864,20.864,0,0,0,3.566-3.363c.209-.232.189-.511-.008-.5Zm-38.38,5.344c.988,0,.411.293-1.745,1.8-2.1,1.471-5.575,6.121-5.978,7.846-.183.783.311.844.866-.232,2.557-4.947,7.392-9.467,11.819-9.266,2.168.1,3.34.687,1.545.946-4.921.608-8.6,3.433-11.818,9.065,0,.127.292.12.629-.1,2.946-3.627,6.266-8.432,12.1-8.043,4.207.255,5.4,5.293,1.91,7.012-3.045,1.5-5.852-2.151-3.329-4.317.819-.7,1.331-.394.545.325-1.689,1.542.381,4.29,2.438,3.247a2.359,2.359,0,0,0,.656-3.695c-2.455-3.031-7.742-.727-11.427,4.17-.386.515-.721,1.634-.4,1.513a2.856,2.856,0,0,0,1.254-1.2,11.106,11.106,0,0,1,4.107-3.745c1.376-.763,1.46-.62.947.7a1.866,1.866,0,0,1-.924,1.089c-2.244,1.543-3.637,3.61-3.693,4.926-.041.962.658,2.218-.1,2.475-1.285.612-4.79.113-5.736-1.1-.681-.875-.945-.368-.434,1.054.338.94.323,1.471.832,1.375.644-.343,1.087-.263,2.336.425a10.788,10.788,0,0,0,2.32.791c1.185.275,1.433.159,1.407.676-.008.158.046.6.011.884-.193,1.556,1.1,2.085,2.857,3.108,1.027.6.622,1.213-.568,4.174-.618,1.34-1.146,3.142-1.91,4.5a7.525,7.525,0,0,0-.314,5.109c.853,3.539,1.467,5.337-.053,5.656-3.914.6-12.56.572-17.279-1.255-1.207-9.122-7.6-22.656-6.783-26.155,1.637,2.485,8.5,1.828,6.434-5.12a15.254,15.254,0,0,1,1.68-1.989c2.881-2.943,3.592-3.429,2.224-.837a35.372,35.372,0,0,0-2.424,5.1c-.024.4.287.495.529.174a8.01,8.01,0,0,0,.579-1.255c1.717-4.048,4.653-7.7,6.676-8.575.521-.227.5.014.135.459a31.516,31.516,0,0,0-5.492,9.34.332.332,0,0,0,.633.174c2.233-4.712,2.9-5.781,5.645-9.1,1.078-1.305,2.082-1.963,2.883-1.892.694.062.488.177-.153.865a35.877,35.877,0,0,0-2.385,2.742c-2.066,2.617-4.144,6.875-3.379,6.652.132.355.784-.777,1.335-1.857,1.509-2.552,3.112-5.924,6.7-8.142a6.323,6.323,0,0,1,2.29-.5Zm-69.338.822,6.385,6.425,12.842-.166c-2.118,3.314-.987,8.45.18,11.452,2.288,5.885,5.642,15.6,5.4,15.742,0,0-1.868.484-2.037,1.676-.25,1.767.511,1.636-.586,3.232a1.789,1.789,0,0,0,.176,1.575,1.5,1.5,0,0,1,.015,1.452l-11.327,20.323h-21.7v-3.94l10.97-10.974-.13-8.073c5.871,1.757,7.887,7.856,8.39,12.375,10.6-9.745,10.343-24.416.322-33.619-1.953,9.727-8.95,11.749-8.8,11.556Zm79.864,1.155a5.991,5.991,0,0,1,2.243.5,4.36,4.36,0,0,0-1.012.876A6.248,6.248,0,0,0,3018.99,1886.006Zm17.8.069c.572,0,1.273,1.683.87,2.078a1.374,1.374,0,0,1-1.227.139C3036.1,1888.04,3036.268,1886.077,3036.79,1886.075ZM3016.536,1889a1.344,1.344,0,1,1-1.335,1.344A1.339,1.339,0,0,1,3016.536,1889Zm-56.48,1.915.962.023c-1.749,2.356-1.985,4.383-1.365,7.321.7,3.306,6.018,15.733,6.362,19.155.015.155.031.591.031.591l-1.308.089s-.1-.354-.138-.49c-1.83-6.2-3.651-10.922-4.923-14.534-1.269-3.9-3.21-9.67.379-12.155Zm7.032.023a.063.063,0,0,1,.024,0l.924.008a16.349,16.349,0,0,0-1.477,4.688,18.771,18.771,0,0,0,1.028,6.321c1.553,4.645,3.826,9.82,5.088,15.684.015.068.154.637.154.637l-1.369-.186s-.135-.6-.15-.683c-.945-5.158-3.581-10.515-5.154-15.591a17.35,17.35,0,0,1-1.077-7.313,6.743,6.743,0,0,1,2.009-3.568Zm11.178.012a11.232,11.232,0,0,0-1.932,4.939,22.228,22.228,0,0,0,1.557,7.61,141.352,141.352,0,0,1,4.927,17.68l-1.319-.568s-.051-.341-.081-.44c-.7-3.811-.749-3.479-4.889-16.3-.97-3.076-1.894-5.774-1.714-8.336.042-1.459,1.306-4.349,2.638-4.579Zm1.584,0h1.231s-.678.723-.874.992c-2.151,3-1.528,6.225-.461,10.066,1.469,5.286,4.186,11.2,5.607,19.252.026.149,0,.927,0,.927l-1.465-.6c-1.331-7.386-4.615-15.045-6.2-21.688-.93-3.9-.666-6.366,1.484-8.491a3.367,3.367,0,0,1,.675-.463Zm-15.02.043h.92s-1.539,2.544-1.538,4.042c-.257,2.682.707,5.645,1.814,8.75,1.7,4.772,3.949,10.542,4.64,13.579.027.12.119.664.119.664l-1.607-.085a9.607,9.607,0,0,0-.18-1.073c-1.855-6.531-3.661-10.756-5.79-16.719a15.544,15.544,0,0,1-.23-6.784,3.525,3.525,0,0,1,1.852-2.374Zm-2.466,0,.993.027s-.149.271-.529.926c-1.812,3.3-1,6.32.123,9.68,1.5,4.484,3.85,9.959,5.318,15.14.083.292.2,1.174.2,1.174l-1.434-.02s-.292-1.055-.311-1.17c-.807-4.8-5.166-12.808-6.3-18.9-.622-3.268-.088-5.292,1.944-6.857Zm13.3,0a15.3,15.3,0,0,0-1.71,4.258c-.281,2.988.66,5.461,1.737,8.831,1.858,5.813,4.479,12.635,4.713,15.753.008.1.046.483.046.483l-1.614-.579s-.073-.326-.1-.44c-1.407-5.643-3.07-11.262-5.307-17.6-.551-2.136-1.275-4.286-1.211-6.123a6.169,6.169,0,0,1,2.193-4.568Zm7.1,0,1.3.027a6.664,6.664,0,0,0-1.315,1.2c-5.129,4.719,3.192,18.041,5.111,30.171.021.13.081.587.081.587l-1.43-.517c-.136-.6-.237-1.34-.4-2-1.555-6.2-3.63-12.577-5.533-18.36-1.069-4.214-1.459-7.925.46-10a4.593,4.593,0,0,1,1.729-1.112Zm-13.371.008,1.384.038a8.918,8.918,0,0,0-1.641,4.981,18.968,18.968,0,0,0,1.173,6.213c1.389,4.367,3.371,9.114,4.732,15.008.077.39.141.64.176.811a7.017,7.017,0,0,0,.211.7l-1.461-.294s-.15-.382-.249-.583a6.338,6.338,0,0,1-.4-1.147c-.707-3.074-3.311-10.05-4.9-14.942-1.258-3.083-1.6-8.471.974-10.784Zm17.282.054a4.044,4.044,0,0,1,3.751,2.868,3.468,3.468,0,0,1-1.753,4.055c-2.674,1.364-5.554-2.265-3.443-4.263,1.6-1.514,3.966-.394,3.451,1.544a1.328,1.328,0,0,1-2.546.07c-.086-.424-.3-.847-.449-.614-.984,2.326,2.323,3.415,3.7,1.251a2.625,2.625,0,0,0-3.018-3.545c-3.129.583-3.489,4.581-2.19,9.244,1.812,7.371,6.136,17.284,6.128,21.835,0,.06.015.247.015.247l-1.373-.413s-.009-.077-.019-.143c-.823-6.356-5.511-16.878-6.856-24.966-.583-3.688.844-6.365,4.053-7.1a2.848,2.848,0,0,1,.552-.073Zm-13.574.057a8.976,8.976,0,0,0-1.622,4.634,22.034,22.034,0,0,0,1.3,6.139c1.517,5.236,5.061,14.9,4.932,16.715.036.194.134.8.134.8l-1.369-.409a2.5,2.5,0,0,1-.158-.336c-.456-1.8-2.626-9.5-5.057-16.155a18.405,18.405,0,0,1-1.327-6.537,7.642,7.642,0,0,1,1.959-4.834Zm26.068,8.68c-3.549.2-3.207,4.56-1.009,5.3.787.218,1.248.029,1.373-.143.142-.2-.017-.5-.533-.571-1.492-.494-2.025-2.262-.678-3,.736-.388,1.911-.138,3.328.918,2.532,1.888,5.635,2.007,5.23.1-.1-.463-.3-.526-2.151-.78a6.9,6.9,0,0,1-2.842-1.042A5.454,5.454,0,0,0,2999.173,1899.8Zm-50.8,4.051c9.167,9.014,7.808,23.143-.023,30.217-.162-.571-.5-1.97-.541-1.931,5.89-6.17,8.663-16.285.138-26.653a16.466,16.466,0,0,0,.426-1.633Zm57.454.239a.759.759,0,0,0-.23.035c-2.374.654-2.867,3.016-1.327,3.989.944.6,1.668.23.494-.491a1.219,1.219,0,0,1,.71-2.224c.533.008.9.241,2.251,1.247,1.115.828,2.166.894,2.4-.228.142-.669-.08-.966-.79-.791-.314.077-.5-.108-.924-.405a5.473,5.473,0,0,0-2.588-1.132Zm-58.4,1.769c8.264,9.657,5.611,19.729.039,25.63a17.146,17.146,0,0,0-5.28-7.383c1.413-3.157,2.255-6.454-.388-10.618A20.5,20.5,0,0,0,2947.424,1905.857Zm53.689,3.525c-.388-.007-.262.369.652,1.011,2.178,1.492,2.364,1.761.253,1.726a6.18,6.18,0,0,0-1.848.51c-2.756.926-2.889.852-4.207.541-.439-.1-.885-.289-1.077-.112-.3.273-.632.453-.257.861a6.729,6.729,0,0,0,1.4.88c3.2,1.845,3.49,2.287,7.252,2.386.43.012.652-.213.905-.216a1.95,1.95,0,0,1,1.556.714c1.137,1.045,1.19.286.514-1.085-.355-.718-.664-.89-.491-1.436.4-1.246-.168-1.494-.908-.39-.555.864-.618.844-1.143-.266-.7-1.388-.369-2.028.686-1.124.8.685,1,.176,1.315-.367.41-.713.347-1.353-.383-1.3a1.4,1.4,0,0,1-1.143-.525A6.125,6.125,0,0,0,3001.113,1909.382Zm.905,3.753a.174.174,0,0,1,.176.131,5.32,5.32,0,0,1-.56,1.881c-.081.218-.221.245-.418.285-.659.123-.705-.083-.586-.494.241-.635.441-1.539,1.292-1.8a.536.536,0,0,1,.1,0Zm-1.676.316c.267-.019.276.093.169.336a6.333,6.333,0,0,1-.775,1.124c-.528.344-1.389-.708-1.008-.981a4.61,4.61,0,0,1,1.484-.463c.049-.008.092-.013.13-.016Zm-59.2.688a1.1,1.1,0,0,1,.437.092,8.54,8.54,0,0,1,.311,9.144.318.318,0,0,1-.43.135,11.834,11.834,0,0,0-2.151-.776v-7.958c.653-.139,1.216-.639,1.833-.637Zm52.7.648c-.153.008-.216.112-.023.313,2.916,2.125,6.928,4.587,10.63,3.634.339-.075.613-.262.548-.614-.041-.22-.417-.41-.825-.3a10.193,10.193,0,0,1-3.144.147c-2.545-.42-4.793-2.059-6.749-3.019a.725.725,0,0,0-.437-.159Zm-.851,2.028c-.13-.007-.12.124-.038.37.41,1.231,4.536,4.1,7.8,5.047,2.8.814,6.818.013,6.585-1.325-.123-.7-.631-.864-2.416-.637-3.932.77-7.716-.849-10.588-2.648a6.965,6.965,0,0,0-1.338-.807Zm-25.746,1.683a29.2,29.2,0,0,1,5.262.429,46.119,46.119,0,0,1,11.246,3.37c5.97,2.257,13.475,4,19.845,3.761a28.23,28.23,0,0,0,4.908-.27c1.42-.321,1.812-.017,2.151,1.757.06.386.178.5.671.834.754.514.629,1.023.537,2.158-.077.955.5,1.492,2.795,5.765,2.617,4.863,5.169,10.514,5.169,10.514-22.937-.016-44.821-.873-68.29-.139,2.11-5.039,7.866-14.127,11.472-21.421-.872-2.244.205-2.626-.247-3.158a2.281,2.281,0,0,1,1.341-3.391A30.1,30.1,0,0,1,2967.245,1918.5Z" fill="#131f67"/>
      <path id="path6353-8" d="M2951.807,1946.833s7.517-15.3,10.684-19.885c4.557-5.816,25.123,2.528,35.352,4.612,4.157.807,13.793.429,13.793.429l8.056,14.619Zm-15.608-17.385-.319-47.634,2.354,1.479.539,47.846-10.172,9.807-.056-2.873Zm6.156-5.436c2.423-4.91-.282-10.906-.281-10.9,1.405.349,5.321-7.133,5.669-6.917,5.994,7.4,7.032,18.428-.291,25.262a19.405,19.405,0,0,0-5.1-7.441Zm4.474-33.689c4.554-4.686,8.165-8.336,11.775-13.58.295-.426-19.213-25.377-18.91-25.814,3.009-3.349,7.044-5.81,10.182-9.854,0,0,16,21.088,16.367,20.9,1.621-6.6,2.808-12.574,2.5-19.472-.987-17.649-8.478-28.453-8.536-28.241-2.532,16.216-27.425,40.776-32.326,39.026l-.028-11.331c.3.567,15.77-10.025,19.85-24.023.293-1.005,12.3-4.874,12.216-5.022-.508-1.314-5.761-8.8-5.761-8.8a23.09,23.09,0,0,1,2.358-.992,68.534,68.534,0,0,1,13.694,30.448c2.121,11.518,3.493,33.171-19.445,56.818Zm68.763-29.8a63.993,63.993,0,0,1-1.841-30.939c2.518-14.693,11.741-25.214,19.137-33.236l3.209,0-5.232,5.452a81.66,81.66,0,0,0-5.866,8.539l19.142,25.194,10.911-2.375s-.329,11.271.009,11.271c-8.479,7.067-14.573,13.464-18.948,23.761-2.681,1-11.57,4.857-11.57,4.857-4.226-1.04,12.574-27.561,9.378-28.011-1.315-1.093-15.887-20.886-16.172-20.845-6.717,20.708-.164,42.455,11.654,57.644a8.329,8.329,0,0,1-2.444,1.351c-5.062-7.071-9.5-15.514-11.366-22.665Zm-34.969-10.383c.757,1.181,4.162-25.272-4.788-46.447.851-.65,8.235-2.072,8.235-2.072l1.988,6.34-5.037,2.148.929,2.972c3.911-1.91,12.379-4.73,17.588-13.442,0,0,25.311-.219,25.85-.174s-5.162,5.533-10.556,16.642a50.569,50.569,0,0,0-4.833,19.344c-.08,1.522-5.791-7.156-5.791-7.156,1.424-7.333,5.23-14.552,9.024-21.772,0,0-5.821-.333-9.887-.213-6.324,6.958-10.289,10.625-19.823,13.948,3.477,11.215,24.746,16.606,20.016,15.581-.966-.23-2.191,10.309-1.168,22.185.2,9.495,5.272,25.324,5.45,25.2,0,0-3.382.767-3.653.22.57-.137-5.032,1.29-5.032,1.29l-2-5.9,5.422-2.512-.877-3.329c-.022,0-11.963,3.638-17.813,14.128l-26.159.03c10.088-11.022,14.2-21.924,16.394-36.337,2.141.386,6.524-.672,6.524-.672Zm64.334-95.161c3.289-2.771,9.891-9.988,9.891-9.988l.086,3.7-7.492,7.846.075,48.437-2.535-2.446Zm-3.463,17.728c-1.349.648-4.038,3.831-5.32,7.409-8.68-7.809-5.106-22.159-.354-25.146,1.379,3.134,5.371,7.287,5.279,7.2C3040.181,1765.454,3039.478,1768.782,3041.494,1772.71Zm-76.85-32.517,66.942.119c-3.818,7.57-7.322,13.69-11.38,21.142-2.112,2.566-47.826-8.283-48.041-7.2Z" fill="#e2cf00"/>
      <path id="path6355-9" d="M2928.459,1937.191l-.447-63.6,7.61,7.443.451,48.842Zm34.915-12.325c-1.575.242-.683-1.226-.4-2.621.16-.778-.587-1.509-.584-1.747.02-1.38,1.047-1.963,5.7-1.909,10.974.767,16.647,4.3,22.942,5.949,6.028,1.575,12,1.543,18.656,1.388.486.283,2.27,4.907,1.938,5.37-15.047,2.986-34.249-8.138-48.259-6.43Zm27.121-32.933a9.641,9.641,0,0,0-4.544-1.622c2.581-4.571,5.706-8.736,10.925-11.343l2.429,6.051a25.376,25.376,0,0,0-8.81,6.914Zm-31.7-15.713a27.946,27.946,0,0,1-4.378,5.51c-6.319-8.532-20.45-26.7-20.45-26.7l-6,3.057a36.667,36.667,0,0,1,.112-3.763c16.2-8.4,27.308-24.286,32.2-39.159,0,0,2.607,2.68,2.264,3.813a74.951,74.951,0,0,1-22.879,32.32Zm20.2-17.308,20.447.029.905,7.157c-7.829,2.641-14.29,8.038-20.332,14.279l-9.7-.17c3.179-7.014,7.6-14.13,8.678-21.3Zm75.7-30.152c.661,2.018-.008,4.194.249,4.1-24.491,12.2-31.489,38.963-31.489,38.963s-2.325-3.706-2.219-4.28c12.676-28.369,21.157-29.214,22.787-32.294l-19.28-25.124,4.361-5.972,20.679,27.095C3051.835,1830.3,3053.007,1829.5,3054.692,1828.76Zm-12.076,36.7c4.153-7.52,8.438-11.892,12.706-14.9l-.208,9.926Zm-114.5-29.517.107-9.629,12.615-5.466C2937.351,1828.5,2932.616,1832.607,2928.117,1835.944Zm56.2-8.657-.746-6.773a56.267,56.267,0,0,0,19.886-14.019c5.868-.283,9.875.117,9.843.037a80.959,80.959,0,0,0-9.284,21.247Zm63.449-71.141,6.97-7.092.22,63.414-7-6.833Zm-61.263,51.535-2.212-6.275c3.479-1.313,6.113-4.172,8.567-7a12.719,12.719,0,0,0,4.555,2.315C2998.435,1796.957,2990.362,1806.717,2986.5,1807.681Zm-13.068-47.522s-.87-.507-.775-1.221c.288-.925-.929-3.02-.929-3.02,14.844-4.534,36.46,8.226,49.29,5.542a10.433,10.433,0,0,1-.323,2.829c.4,1.807.689,1.865-1.064,2.969-9.013,2.568-18.512-2.908-27.316-5.525-7.183-2.278-13.017-1.7-18.883-1.574Z" fill="#d40000"/>
      <path id="path6357-5" d="M2963.879,1739.3l2.711,5.142-.468.32c.738,1.238,1.365,2.632,2.12,3.86l.545-.063c.891,1.718,1.251,2.354,2.417,4.39l-.526,0c.27.905.965,1.507.98,2.156.008.808-.2,1.628.293,2.175.584.648.654.828.534,1.208a1.592,1.592,0,0,0,1.51,2.024,46.238,46.238,0,0,1,19.713,1.879c4.754,1.51,8.974,3.2,12.969,4.389a31.806,31.806,0,0,0,6,1.138c6.079.448,9.49-.8,8.466-3.344-.081-.2-.264-.354-.28-.459-.029-.193,0-.4.346-.688,1-1.025.44-1.772-.168-2.907,0,0,7.807-14.042,11.706-21.039Zm67.592,1.262-5.7,9.9a3.049,3.049,0,0,0-3.807,2.387c-3.956-1.021-3.348,4.143-1.364,4.492.128.749-3.252,1.68-5.032-.075,2.737.369,3.706-3.277.363-4.088,4.407-3.3-3.862-8.238-3.96-1.413-3.888-.69-3.383,4.484-.917,4.886-1.261,1.4-4.971,1.439-6.91-1.513,3.3,1.725,5.083-2.727,1.657-3.973,4.229-3.734-4.051-7.176-3.858-1.143-3.121-1.862-5.267,2.886-1.1,3.614-.238.855-5.694.861-7.079-1.347,3.869.889,4.047-3.854.633-4.24,3.427-4.379-5.272-6.594-3.812-.618-3.361-1.338-4.63,2.881-1.357,4.236.182.671-5.3,1.243-7.219-1.179,4.213-.637,2.739-4.748.009-4.42,0,0,.04-.118.194-.518,1.288-4.127-5.64-4.472-4.68-.1.154.4.323.94.323.94-1.909-.392-3.077.392-2.938,2.2.475,2.4,1.732,2.218,3.34,1.741.674.71-3.879,3.081-6.738.964,3.5-1.013,1.728-5.144-1.2-4.586-.121-1.319-1.544-3.168-3.4-2.266l-1.964-3.888Zm5.726,55.025-4.113.061c-2.889,2.97-23.807,22.372-20.284,51.679,1.506,12.535,4.983,23.38,14.277,36.191l2.484-1.468.38.256,25.756-14.919.013-4.53-29.9,12.629a13.708,13.708,0,0,1-1.441-2.127l11.981-5.127s.287-.733.38-1.07c3.938-10.035,11.94-17.3,18.907-22.911-.037-9.88-.083-30.563-.083-30.563l-18.014-18.064a79.767,79.767,0,0,0-6.407,6.687l20.682,27.411-1.834,1.2-20.464-27.269a105.61,105.61,0,0,1,7.676-8.068Zm18.374,17.823s-.1-47.063-.236-69.788h0l-10.733,11.088.041,47.7Zm-.913-65.308-7.584,7.879.085,48.489-1.949-1.935v-47.183l9.474-9.995Zm-73.8-1.167a1.3,1.3,0,0,1-.236,1.415c-1.551,1.938,3.32,5.3,6.826,4.719,2.667-.445,4.942-2.059,3.961-3.286-.8-1-.278-2.011.682-2,.987.007,1.78.8.924,1.88-1.9,2.409,1,5.236,5.438,5.294,3.138.041,4.184-.737,4.015-2.988-.08-1.055.126-1.346.855-1.506,1.164-.256,1.751,1.087.786,2.112-2.084,2.212.284,5.466,4.226,5.676,1.442.076,1.727,0,3.336-.915,1.258-.715,1.7-1.8,1.085-2.634a1.214,1.214,0,0,1,1.511-1.838c.882.38,1.317,1.062.341,2.217-1.282,1.517-.675,2.769,1.8,3.614,1.924.658,3.256.576,4.157-.251.28-.258.9-.8.894-.631-.6,1.053-1.141,2.03-1.141,2.03a6.036,6.036,0,0,1-7.072-1.7c-4.151,2.412-7.832,1.9-10.943-2.149a10.506,10.506,0,0,1-10.779-3.106c-4.218,2.131-8.139,1.238-11.623-1.145-2.575,2.447-5.289,2.834-8.109,1.659l-.836-1.692c.211-.08,1.12,1.7,5.534.869,1.481-.278,4.031-2.786,2.6-4.008-.653-.931-.673-1.351-.1-1.915a1.258,1.258,0,0,1,1.866.287Zm-10.812,2.219c.246.48.279,1.278.008.8-.143-.253-.89-1.383-.855-1.417.348-.029.693.332.847.618Zm84.616.385.05,62.574-6.458-6.451-.311-49.02Zm-74.789,3.03,2.034,1.288-3.641-.022Zm11.432,1.077,1.708,1.67-3.59-.758Zm31.988.867-.763,1.575C3022.089,1755.594,3021.961,1754.542,3023.292,1754.514Zm12.905,26.013c1.3-2.93,3.03-6.661,5.837-7.848-2.09-4.181-1.818-8.36-.335-10.651a21.274,21.274,0,0,1-5.647-7.791C3029.353,1760.193,3028.277,1772.425,3036.2,1780.527Zm-.2-25.146.461,1.144c-5.965,7.351-4.124,17,.2,22.152l-.621,1.3C3030.753,1774.366,3028.441,1762.512,3036,1755.381Zm-35.663,4.159c6.913,2.042,12.449,5.226,20.441,2.389l.038,1.567c-5.087,3.288-15.221-.186-22.067-2.73a57,57,0,0,0-25.686-3.384c-.538-.106-.966-1.522-.1-1.532C2984.4,1755.723,2982.548,1754.285,3000.333,1759.54Zm1.562-2.771,2.27,2.425a36.9,36.9,0,0,1-4.9-1.881Zm34.649.6.444.618c.193.267-1.255.406-1.012.092Zm-39,4.438c8.251,3.12,17.337,6.233,23.3,3.441,0,0,.038,1.189-.644,1.525a6.1,6.1,0,0,1-2.733.8c-9.648.8-15.91-3.225-23.7-5.6a52.914,52.914,0,0,0-12.573-2.2,66.584,66.584,0,0,0-7.32.285c-.964-.08-.95-.654-.959-1.216A48.227,48.227,0,0,1,2997.54,1761.805Zm39.9-2.991a1.589,1.589,0,0,1,.322.019l.844,1.085-1,1.6a8.075,8.075,0,0,1-1.331-1.621C3036.028,1759.379,3036.7,1758.849,3037.441,1758.814Zm-24.312.305,2.613,1.986a14.658,14.658,0,0,1-6.364-.7Zm22.132,1.011c.206-.005.422.214.675.649.487.836.422,1-.521,1.3-1.24.4-1.337.313-.936-.807C3034.752,1760.51,3035,1760.137,3035.261,1760.13Zm3.969.513,1.767,1.492a12.987,12.987,0,0,0,.345,10.457c-.217.014-1.487,1.276-1.885,1.491-1.119-.472-3.583-9.7-.227-13.44Zm-2.009,1.955-.449,2.826c-.036.232-1.954-1.338-1.775-2.124.341-.932,1.509-.733,2.224-.7Zm-3.17.992c.232,0,.6.566,1.043,1.305.349.576.277.794-.495,1.494-1.136,1.157-1.36.78-1.108-1.189.124-.973.3-1.612.56-1.61Zm2.351,2.561a.63.63,0,0,1,.387.12l.13,2.753c.012.248-2.133-.1-2.415-1.147-.357-.672,1.065-1.743,1.9-1.726Zm-2.833,2.327a3.968,3.968,0,0,1,1.089.571c.79.472.807.68.127,1.56-.8,1.035-1.2.869-1.319-.93C3033.421,1769.018,3033.372,1768.506,3033.569,1768.478Zm3.15,1.053a.271.271,0,0,1,.184.066,6.691,6.691,0,0,1,.717,3.374c-.349.41-2.18-.135-2.589-.784C3034.642,1771.57,3036.051,1769.531,3036.719,1769.531Zm-2.242,3.248a3.073,3.073,0,0,1,1.162.41,2.674,2.674,0,0,1,1.046.749c.223.472-.148,1.172-.629,1.753-.317.384-.615.1-1.23-1.19C3034.33,1773.466,3034.126,1772.8,3034.477,1772.779Zm3.7,1.235a.212.212,0,0,1,.115.027c.624.348.519,1.382-.218,2.146-.886.918-1.655.227-1.044-.938.388-.738.852-1.228,1.147-1.235Zm-51.46,25.671a2.916,2.916,0,0,0-1.749.993,1.253,1.253,0,0,1-1.384.479,6.583,6.583,0,0,0-2.807.706,4.525,4.525,0,0,1-2.09.456,6.335,6.335,0,0,0-1.522.208,8.549,8.549,0,0,1-1.093.386c-.916.27-.59.532-.065,1.721a89.291,89.291,0,0,1,5.287,21.49,101.206,101.206,0,0,1-.5,23.582c-2.559.017-4.166-.115-6.86-.069-1.838,15.046-6.826,26.994-16.794,37.74l26.946.069c3.087-8.291,17.175-14.615,17.638-14.148l.743,3.025s-10.135,1.459-16.96,14.408c.7-.425,3.24-.13,4.918,1.624a27.892,27.892,0,0,1,8.886-7.01l.184-.516a16.565,16.565,0,0,1,1.894-.515,9.883,9.883,0,0,0,1.254-.3,3.318,3.318,0,0,1,1.818-.355,10.759,10.759,0,0,0,3.808-.387c-5.72-15.884-7.071-30.222-4.837-46.879,2.107.017,6.728.1,6.728.1a65.994,65.994,0,0,1,2.481-13.781,53.452,53.452,0,0,1,7.6-15.769c2.009-3.028,3.765-5.183,5.842-8.022l-26.377.062c-3.491,5.907-10.216,10.841-15.621,12.9-1.84.7-2.1.593-2.4-.278-.544-1.556-.518-1.49.921-1.9.48-.138,2.018-.954,4.417-2.085,5.092-2.6,8.593-7.368,10.653-10.584.819-1.27.269-.983-1.132-1a4.324,4.324,0,0,1-3.021-1.583c-.425-.4-.608-.683-.8-.66-1.5,2.177-4.033,5.049-6,5.9Zm6.19-5.029a7.007,7.007,0,0,0,4.444,2.269,29.619,29.619,0,0,1-10.727,10.555l-2.112-5.982C2989.686,1799.071,2991.07,1796.64,2992.9,1794.656Zm42.994,1.9c-27.9,25.969-26.255,58.707-6.72,85.3l-2.047,1.239c-18.347-24.756-21.667-61.377,6.366-86.65Zm-17.587,3.167,6.839-.014-4.656,6.076-6.246-.023Zm-1.071.051-3.8,6.038-10.259.132a43.123,43.123,0,0,1-19.445,13.875l-1.31-6.507a31.5,31.5,0,0,0,17.511-13.621Zm-10.425.5-2.377,2.649,2.469,2.529,2.255-2.568Zm5.384-.062-2.408,2.522,1.879,2.537,2.5-2.464Zm-11.876.46-.41,3.965,3.1,1.024.453-3.391Zm18.849.148-2.249,3.539,3.386.054,2.368-3.524Zm-35.4.9,2.194,6.125-1.927.936-1.954-6.4Zm-2.6.983,2.263,6.336-1.9.629-2.078-6.595Zm2.711,25.016c.253,8.812.378,14.124-1.085,21.87-.076.405-1.648.046-1.648.046.2.067.885-8.753.831-14.293a87.089,87.089,0,0,0-5.992-31.442,9.511,9.511,0,0,1,2.717-.729c2.595,7.928,4.9,16.457,5.177,24.548Zm-27.388-24.432c9,12.031,15.442,28.353,14.365,44.457-1.031,18.727-8.082,29.519-20.465,42.487l-3.195.074c14.658-14.152,21.144-26.263,21.656-42.243.588-18.378-4.986-30.6-14.375-43.627Zm-28.806,16.538.032,4.383,30.681-13.25-4.425-6.564Zm71.908-14.354-3.34.17.112,3.394,3.482-.085Zm29.772-.645,19.883,26.252-4.92,3.68-18.954-24.669Zm-15.583,1.793,5.951.093-2.3,3.844-5.752-.046Zm-1.1.095c-2.736,5.124-6.511,10.967-8.63,20.409l-19.591.017a50.143,50.143,0,0,0-.633-6.467c8.442-3.111,14.981-7.762,19.791-13.908Zm3.623.271-2.554,1.482,1.561,1.807,2.814-1.085Zm-23.32,1.888-.843,3.344,3.175,1.231.587-3.973Zm18.269,2.5,5.709.035-2.4,4.834-5.656-.085Zm13.594-.633,18.814,24.557-1.763,1.406-18.387-24.005Zm-11.428,1.023-2.573,2.158,1.937,2.251,2.373-1.907C3015.217,1814.229,3013.43,1811.767,3013.43,1811.767Zm-24.971.178-.79,3.251,3.3.884.59-3.487Zm-4.567,2.162-.671,3.2,3.11.845.656-3.085Zm-25.676-.321c.159-.032-.52,3.809-1.52,4.5-.478.331-.726.258-1.14-.193-.286-.31-1.579-2.435-1.579-2.435l1.1-.559c1.341,2.159,1.339,1.115,1.847-.725Zm-5.157,2.213c.438,0,.969.544,1.569,1.606.867,1.535.838,1.635-.587,2.077-2.566.684-3.519.848-2.73-.857.849-1.835,1.185-2.822,1.748-2.826Zm7.637-.305,1.756,3.026q-10.56,27.072-34.024,38.829l-.035-3C2946.819,1843.989,2954.375,1831.514,2960.7,1815.694ZM3008.56,1817l5.541.1-1.48,4.267-5.89-.043Zm-57.165-.186c-4.51,10.822-10.673,20.264-22.994,28.235l-.05-2.875c13.837-8.4,19.819-24.124,19.818-24.129Zm70.034-.019c3.281.091,6.731,3.692,6.381,6.661-.247,2.092.151,3.644.717,2.787,1.25-1.892,4.932-.634,4.9,1.639-.018,1.209-.82,1.408-1.281.316-.68-1.613-2.592-1.653-2.874.038-.265,1.584,1.07,2.749,4.636,4.046,4.179.987,6.694,4.759,5.208,6.927-.516.573-.827.714-.924.417-.028-.085-.131-.533-.227-.992-.474-2.273-1.555-3.227-2.869-2.447-.659.391-.575.909-.191,1.592.512.909.192,1.262-.724.8-1.447-.731-1.925-2.465-.523-3.265,1.668-.671,1.1-.816-1.027-1.54-4.535-1.56-6.48-4.422-6.718-9.873.087-2.485-.251-3.371-1.411-3.711-1.063-.311-2.266,1.049-1.5,1.765.415.389.753.742.533.957-.7.689-2.467-.429-2.45-1.629.011-.785.306-.946,1.473-1.869.323-.256.047-.738-.426-.745C3020.344,1819.245,3020.47,1816.872,3021.429,1816.794Zm-10.272.629-2.77,1.6,1.443,2.03,3.067-1.45Zm-53.9,1.576a.581.581,0,1,1-.575.579A.579.579,0,0,1,2957.262,1819Zm5.678.251a61.471,61.471,0,0,1,3.169,42.22l-15.789-20.683a68.474,68.474,0,0,0,12.62-21.537Zm-21.352.943-14.088,5.96-.078,10.636C2935.293,1831.381,2938.631,1825.844,2941.588,1820.193Zm13.541-.088c1.388-.044.7,3.729-1.1,5.017-.661.511-1.107.449-1.325-.574a8.087,8.087,0,0,0-1.365-2.555c-.813-1.05-.8-1.076.383-1.15,1.31.02,2.384-.614,3.406-.738Zm-1.372,1.6c-1.024-.015-1.331.467-.721,1.128.514.555.921.436,1.265-.367C2954.511,1821.979,2954.324,1821.717,2953.757,1821.708Zm-25.409,13.8.034-9.027,12.048-5.108a36.857,36.857,0,0,1-12.082,14.135Zm107.026,7.293-1.606,1.625-15.552-20.415.974-2.577Zm-85.237-20.65c.522.008,1.7,1.829,2.036,3.136.246.969-.014,1.174-1.84,1.447-.757.209-2.8.008-2.635-.54a23.492,23.492,0,0,1,2.439-4.043Zm56.344.209,5.676.061-1.3,4.688-5.944-.089Zm2.508.285-2.642,1.842,2.09,2.074,2.8-1.742Zm8.9,2.017,15.734,20.561c-4.7,6.012-9.376,12.918-12.454,22.046C3015.57,1854.074,3013.519,1841.232,3017.892,1824.659Zm-63.9,1.749a.582.582,0,1,1-.575.58A.58.58,0,0,1,2953.992,1826.408Zm-1.81.784c.983.07.055,3.22-1.423,4.369-1.166.9-1.666.485-1.936-1.172a8.082,8.082,0,0,0-1.273-2.419c-.615-.9-.361-1.041,1.2-.68A14.888,14.888,0,0,0,2952.182,1827.192Zm52.582.77,5.95.036-.916,7.118Zm-57.977.329c.938.881,2.122,3.969,1.515,4.191a9.315,9.315,0,0,1-4.264-.487c-.247-.255-.248-.257.276-.961.287-.387.835-1.16,1.219-1.718C2945.879,1828.908,2946.262,1827.8,2946.787,1828.291Zm3.313.106c-.906.03-.967.155-.537,1.139.351.8.594.874,1.2.347C2951.6,1829.151,2951.246,1828.358,2950.1,1828.4Zm104.445.618.214,3.51c-22.873,11.424-31.439,38.4-31.562,38.4l-1.661-3.112c10.5-26.043,24.455-33.584,33.009-38.793Zm-107.783,4.15c1.362-.028,1.76-.122,1.752.387a5.182,5.182,0,0,1-2.8,4.038c-1.044.493-1.067.505-1.185-.733a9.538,9.538,0,0,0-.889-3.155c-.154-.362-.746-1.192,0-.956a12.52,12.52,0,0,0,3.127.419Zm3.055-.317a.579.579,0,1,1-.575.579A.577.577,0,0,1,2949.817,1832.848Zm-7.289.8c.247-.007.482.5.763,1.255.611,1.634.8,2.519.617,2.9-.278.592-4.032.209-4.67-.452A38.756,38.756,0,0,1,2942.528,1833.648Zm2.7.406c-.538.037-.253.363.146,1.308.276.655.65.76,1.078.3.571-.614.649-1.1.288-1.364A3.613,3.613,0,0,0,2945.231,1834.054Zm109.474,3.55.02,1.176c-.891-.268-1.443-.648-2.459-.988-.622-.211-.99-.36-.44-1.02a10.624,10.624,0,0,1,2.835-2.322l.008,1.332c-1.678.749-1.515,1.44.038,1.822Zm-66.12-1.195h6.32v4.2h4.943l-.384,4.788h-4.559v4.2h-6.319v-4.2h-4.514l.365-4.788h4.149Zm14.273.014c-3.2,15.966-.265,32.917,4.672,46.726l-2.491.277c-3.848-11.044-6.908-26.767-3.8-46.994,0,0,1.115-.02,1.615-.009Zm46.905.31a.579.579,0,1,1-.575.579A.576.576,0,0,1,3049.763,1836.733Zm-111.169,1.34a13.366,13.366,0,0,1,1.422.432,8.721,8.721,0,0,0,2.316.36c1.571.03,1.777.016,1.1,1.316a6.951,6.951,0,0,1-2.351,2.552c-1.086.584-1.5.505-1.438-.571a8.228,8.228,0,0,0-.717-2.9C2938.608,1838.555,2938.245,1838.084,2938.594,1838.073Zm6.645.513a.581.581,0,1,1-.575.579A.579.579,0,0,1,2945.239,1838.586Zm106.33-.077a5.144,5.144,0,0,1,1.905.607c1.848.9,1.8,1.111-.705,2.9-1.818,1.389-2.248,1.544-2.313-.645-.065-1.844.133-2.84,1.113-2.861Zm-113.923.529c.734.011,1.545,3.855.886,4.2-1.026.534-4.2-.506-4.191-1.382a14.693,14.693,0,0,1,3.306-2.815Zm111.714-.158c.438-.019.5.327.456,1.552a21.47,21.47,0,0,0,.135,2.2c.093,1.024.008,1.095-.8.637a7.057,7.057,0,0,0-2.692-.873c-.927-.08-.995-.464-.708-1.08A5.069,5.069,0,0,1,3049.36,1838.88Zm-108.991.579c-.64-.005-.481.338-.084,1.3.281.683.768.748,1.269.166.7-.814.563-1.245-.456-1.4a6.872,6.872,0,0,0-.729-.066Zm108.144.915a2.182,2.182,0,0,0-.806.352c-.6.379-.845.652.028.953.776.268,1.189.385,1.127-.289-.038-.406-.008-.995-.349-1.016Zm-59.314.5v4.186h5.031v-4.186Zm54.82.363a.58.58,0,1,1-.576.579A.577.577,0,0,1,3044.019,1841.235Zm-94.178.653,15.871,20.512-1.054,2.674-16.347-21.653Zm104.964-.1.035,2.681c-1.793,1.321-13.18,9.629-19.071,23.614l-3.083,1.322a57.106,57.106,0,0,1,22.119-27.617Zm-120.736,1.136a22.585,22.585,0,0,0,2.995,1.169c1.121.138,1.507.066,1.2.649a6.554,6.554,0,0,1-3.316,3.12c-.969.319-1.426.2-1.273-.406a10.382,10.382,0,0,0,.295-3.1c.153-.563-.324-1.352.1-1.437Zm-1.212.239c.659.567.528,4.151-.207,4.923-.384.4-1.5.035-3.171-.919-1.093-.624-1.3-1-.752-1.386.925-.565,3.633-2.752,4.13-2.618Zm113.389.077a5.387,5.387,0,0,1,1.277.17c1.978.447,2.419.9.733,2.251a13.07,13.07,0,0,0-1.477,1.355c-.907,1.12-1.538.308-1.737-1.726-.139-1.423.074-2.234,1.2-2.05Zm-2.477.193c.322,0,.527.169.522.572a19.98,19.98,0,0,0,.563,3.351c.357,1.042.1,1.277-.759.822a7.778,7.778,0,0,0-3.171-.525c-1.018.081-.988-.193-.691-1.054.528-1.524,2.572-3.165,3.536-3.166Zm-108.734.741c-.386,0-.4.524-.138,1.726.084.383.411.359,1.028-.077.729-.516.7-.84-.123-1.336a1.76,1.76,0,0,0-.767-.313Zm4.5.132a.579.579,0,1,1-.575.579A.576.576,0,0,1,2939.533,1844.309Zm102.357,2.251a1.773,1.773,0,0,0,1.473.1,1.7,1.7,0,0,0-.081-1.552C3042.707,1844.907,3041.546,1846.131,3041.89,1846.56Zm-95.259,2.212c.347,1.657,2.661,1.566,2.4-.162-.152-1.009-.188-.988.315-.965,2.39.118,1.976,3.911-.778,3.618-.575.069-.652.306-.165.509a16.479,16.479,0,0,0,2.619.68c3-.01,7.319,4.628,7.213,8.745-.07,2.693.837,4.631,1.764,4.85.736.174,1.806-.5,1.714-1.324-.128-1.138.79-.783,1.319.034.806,1.129-.234,2.757-2.155,2.63-.818.16.6.683,1.651.989.953.054.148,1.236-.03,1.447-.538.63-2.3.149-3.688-.977-1.7-1.382-2.43-3.234-2.631-6.873-.129-2.339-.3-2.814-.978-1.849-1.215,2.151-4.123,1.1-4.486-1.174-.2-1.2.849-2.071,1.188-.981.9,2.267,3.109,1.723,2.75-.529-.237-1.485-1.713-2.3-4.629-3.131-3.5-.994-4.547-2.2-5.23-5.1-.3-1.281-.255-1.951.418-2.621.332-.332.755-.668.755-.668s.468,1.947.664,2.849Zm91.687-1.837a.579.579,0,1,1-.575.579A.577.577,0,0,1,3038.318,1846.935Zm-110.016.55c1.043.381,1.94.945,3.016,1.313.7.239.508.8-.215,1.6a7.228,7.228,0,0,1-2.717,1.965l.012-1.621c1.358-.477,2.223-1.617-.059-1.982Zm112.732.905a8.1,8.1,0,0,1,1.612.154c1.663.346,1.858.495.859,1.672-.371.437-.922,1.094-1.224,1.464-.983,1.379-1.513.906-1.971-.877C3039.742,1848.942,3039.612,1848.228,3041.034,1848.39Zm-107.517.664a.579.579,0,1,1-.575.579A.577.577,0,0,1,2933.517,1849.054Zm105.84,1.261c.159.588.4,1.337.584,1.868.9,2,.331,1.229-1.286,1.052-1.087-.119-2.818.064-3.246-.239-.187-.244-.014-.888.334-1.614a5.794,5.794,0,0,1,2.049-2.288c1.686-.785,1.293.212,1.565,1.221Zm-97.172-.713,18.129,24.135-1.421,2.041-18.647-24.815Zm113.614.09a46.426,46.426,0,0,0-13.777,16.267l13.816-5.367Zm-17.992.787c-.517.143-1.259,1.108-.94,1.486a1.737,1.737,0,0,0,1.315.089c.561-.207.178-1.578-.375-1.575Zm-79.446,26.1-3.861,4.9-20.12-26.206,5.077-3.691Zm96.434-25.47.142,9.007-11.817,4.961A48.716,48.716,0,0,1,3054.795,1851.11Zm-80.8.764,4.733,6.2-5.783-.133Zm59.847.508a.579.579,0,1,1-.575.579A.576.576,0,0,1,3033.839,1852.382Zm3.469,1.468c2.165.03,2.887.148,2.258,1.219-.84,1.045-1.336,2.039-2.253,3.006-.528.542-1.19-.576-1.742-2.364-.446-1.444-.22-1.808.627-1.82S3037.19,1853.848,3037.308,1853.85Zm-2.5,1.953a12.461,12.461,0,0,0,.92,2.081,6.551,6.551,0,0,1,.675,1.32c-.055.269-.308.29-.878.074-1.233-.56-4.132.032-4.209-.245-.431-.617.215-2.3,1.432-3.469a3.025,3.025,0,0,1,1.454-.946c.315-.006.372.433.606,1.185Zm-101.123-.443,20.473,26.771-1.417,1.736-20.7-27.288s-3.269,1.613-4.23,2.151l.129,13.846-.559-.027.083,70.133,11.424-11.47-.149-47.588c2.425,2.3,4.5,4.746,7.273,7l4.751-.037c12.4-12.7,19.2-23.573,20.686-43.04,1-13.023-3.3-29.4-14.7-45.27l-2.783,1.7,5.5,8.344-11.648,5.2c-4.639,9.848-10.138,18.937-20.2,24.142l-.057,12.746-.176.263.133,4Zm100.1.914c-.543.041-1.394,1.222-1,1.626a1.267,1.267,0,0,0,1.462-.192A1.072,1.072,0,0,0,3033.781,1856.274Zm-61.072,2.757,6.012.035-1.572,5.193-5.855-.111Zm57.114-.023a.579.579,0,1,1-.575.579A.576.576,0,0,1,3029.823,1859.008Zm-30.631.158.777,6.745a45.3,45.3,0,0,0-19.813,13.963c-1.057-.07-9.49.074-9.49.074.211.03,7.814-14.415,8.689-20.685Zm-23.813.629-2.757,1.907,2.155,2.313,2.853-1.946Zm57.381.028a12.184,12.184,0,0,1,2,.181c1.017.2,1.166.218.824,1.062a16.363,16.363,0,0,1-1.749,3.3c-.931.581-3-3.587-2.295-4.307a2.156,2.156,0,0,1,1.218-.238Zm-2.636,1.281c.266-.023.621.5.726.948a9.532,9.532,0,0,0,1.658,2.581c.744.829.7.945-.361,1.031a13.668,13.668,0,0,0-3.222.614c-1.107.405-1.258.316-1.116-.988.214-1.962,1.516-4.116,2.314-4.186Zm-.972,4.059c.138.38,1.855-.318,1.951-.774-.016-.2-.69-1.388-1.1-1.441-.687.108-.975,1.677-.855,2.215Zm-58.018-.267,5.683.054-1.864,4.715-5.618-.016Zm2.544.632-2.723,1.734,2.121,2.066,2.607-1.811Zm57.79.855c.482-.005.993.042,1.1.22.3.5-.928,3.3-.928,3.3l-2,.8a12.37,12.37,0,0,1-1.345-2.787c-.071-.423.141-.577.6-.839a5.989,5.989,0,0,1,2.571-.692Zm-5.366.228a.58.58,0,1,1-.575.58A.577.577,0,0,1,3026.1,1866.611Zm-25.915.081s1.229,6.986,1.295,6.216c-9.478,3.594-15.021,8.9-17.647,14.072l-17.782-.013,3.969-6.2,10.527-.054a43.08,43.08,0,0,1,19.638-14.02Zm-2.276,1.645-.878,2.822,2.657,1.707,1-3.031Zm29.127.054c.226-.021.449.361.905,1.178.338.6.782,1.48.782,1.48l-.8.3c-.641-2.206-1.229-1.386-1.3.562l-1.09.437a8.511,8.511,0,0,1,.741-2.974c.358-.63.556-.962.755-.981Zm-57.959,1.93,5.51.07-2.305,4.807-5.6-.155Zm24.035.386-.437,3.568,2.968.633.406-3.39Zm-21.692.043-2.723,1.772,1.787,2.367,2.619-1.772Zm17.436,3.124-.564,3.285,2.784.638.633-3.306Zm-60.5.193,6.967,6.953.384,48.516-6.929,7Zm37.907,1.776c-.024.039,5.559.161,5.559.161l-2.235,4.06-1.908-.086,2.511-1.726-1.61-2.073-2.581,1.7,1.438,2.1-3.77-.081Zm35.942,1.2,1.891,6.3-2.274.4-1.709-5.923a13.009,13.009,0,0,1,2.091-.77Zm-17.875.393.038,3.777,3.037.258.119-3.54Zm15.1.6,1.731,5.981-1.444.414-2.068-5.678A5.864,5.864,0,0,1,2999.426,1878.04Zm-2.635,1.234,2.224,5.856a25.952,25.952,0,0,0-8.657,6.62,9.237,9.237,0,0,0-3.921-1.751,24.77,24.77,0,0,1,10.354-10.725Zm-33.571,1.469,5.844.177-4.064,6.112-6.611-.008Zm17.4.227-.38,3.576,3.129,1.861.476-3.672Zm-3.769.5-2.224,2.367,2.362,2.715,2.166-2.835Zm-4.974.124-2.642,2.44,2.1,2.761,2.416-2.776Zm-33.662,2.276.259,47.4-9.707,9.473-.073-2.549,7.717-8.115q.014-24.048-.095-48.095Zm25.828-1.531-2.68,3.68,3.179.008,2.3-3.564Zm-16.531,22.935c-1.057,3.83-5.93,7.983-6.017,7.913,2.413,3.482,2.331,8.445.2,10.891.01-.055,3.878,3.178,4.421,4.857a22.437,22.437,0,0,0,.817,2.147c.1.176.43.613.43.613C2956.813,1922.049,2952.313,1910.742,2947.509,1905.276Zm.142,1c9.174,11.462,3.126,21.952-.075,24.879l-.611-1.017c6.817-7.978,3.928-17.779-.044-22.419Zm-.993,2.231c.061.186.418.726.153.691l-.46-.092Zm-.069,1.278a.516.516,0,0,1,.456.2c.187.313-.761,2.948-1.347,2.334-.177-.348-.385-.65-.547-1.01-.191-.43-.066-.638.371-1.065a1.643,1.643,0,0,1,1.066-.46Zm1.319.714c.464.037,1.123,1.506,1.185,2.557a3.612,3.612,0,0,1-1.991-.738A4.04,4.04,0,0,1,2947.908,1910.5Zm-3.589,1.2c2.762,5.593,2.589,9.961.157,13.977l-1.905-1.641a11.278,11.278,0,0,0-.242-10.465Zm1.863,1.4a4.627,4.627,0,0,1,1.3.239c1.849.595,1.918,1.813.138,2.707-.737.37-.967.206-1.392-1.656-.21-.922-.369-1.262-.05-1.29Zm3.57,2.143c.357,0,.52.676.564,1.846.041,1.11-.193,1.2-1.082.405-.96-.856-1.125-1.06-.245-1.765.258-.206.6-.485.763-.486Zm-2.519,1.834a3.3,3.3,0,0,1,1.185.695c1.264.97.983,1.635-.453,2.1-1,.325-.946.366-.92-1.367C2947.058,1917.652,2947.007,1917.1,2947.233,1917.076Zm16.734,1.578a2.218,2.218,0,0,0-1.679,3.027c.233.567.587.572.172.918-.464.538-.71,1.785-.2,2.238.6.347.756-.251.123.92l-11.623,21.5,69.764-.131-8.385-15.812c.019-.023.67-2.609-.671-2.921a1.111,1.111,0,0,1-.765-.889,2.651,2.651,0,0,0-.8-2.136,47.172,47.172,0,0,1-17.151-.6c-6.855-1.552-11.754-4.24-14.94-5.084a36.171,36.171,0,0,0-13.841-1.022Zm3.758.148a41.59,41.59,0,0,1,15.691,3.479,58.421,58.421,0,0,0,13.751,3.888,55.609,55.609,0,0,0,11.464-.052,1.225,1.225,0,0,1,1.129.318c.769.861.245,1.4-1.68,1.58a47.053,47.053,0,0,1-10.322-.367,61.316,61.316,0,0,1-16.014-4.317c-6.153-2.325-11.8-3.1-16.27-2.417-2.452.377-2.813.436-2.8-.228.019-1.294,1.082-1.885,5.054-1.884Zm-17.712,3.752c-.237.549-1.919-1.246-1.9-1.752a9.971,9.971,0,0,1,1.937-1.481c.261-.2.244-.1.247.14A12.983,12.983,0,0,1,2950.013,1922.554Zm-2.588-1.323c.775.105,2.051,2.214.928,2.54-1,.289-1.9.476-2.021-.2.512-1.65.705-2.3,1-2.341a.719.719,0,0,1,.092,0Zm45.113,7.2a72.023,72.023,0,0,0,15.7,1.045c2.435-.247,2.948-.168,2.933.854-.009.641.061.625-3.083.622a60.778,60.778,0,0,1-7.493-.238,50.961,50.961,0,0,1-14.379-2.7c-4.874-1.273-9.1-3.72-13.866-4.224-4.375-.432-8.309.347-9.134.809-.275,0-.419-.415-.4-.794a1.132,1.132,0,0,1,.461-.905c12.536-3.184,19.249,3.636,29.264,5.531Zm-43.476-4.217c.418.005.285.627-.4,1.946-.581,1.121-.81,1.116-1.139-.035-.351-1.228-.317-1.364.38-1.544a11.677,11.677,0,0,1,1.158-.367Zm-2.926.626c.49.007,1.185,2.24.829,2.66-.282.332-1.3.107-1.6-.285C2944.888,1926.585,2945.5,1924.831,2946.136,1924.841Zm21.918.6a31.646,31.646,0,0,1,5.664.5,19,19,0,0,0-3.112,1.354A18.741,18.741,0,0,0,2968.054,1925.444Zm2.527,2.71c6.872-3.858,9.774,1.469,10.767,2.328,6.009-1.339,7.185-.68,10.537,2.967,6.016-2.962,8.933-.444,11.444,1.149,2.947-2.773,6.682-2.849,8.629-1.458a11.9,11.9,0,0,1,.912,1.624c.032.181-.243-.03-.92-.518-3.534-2.545-9.4.625-7.831,3.981.422.9.355,1.294-.276,1.657a1.008,1.008,0,0,1-1.373-1.437c1.043-1.726.258-3.171-2.278-4.506-3.573-1.881-9.411.227-8.209,3,.768.885.055,1.51-.959,1.478-1.149-.036-1.538-.809-.8-1.637.919-1.056.677-2.127-.393-3.347-3.209-4.6-9.7-2.777-8.841,1.255.377,1-.7,1.406-1.81.961-.709-.283-.6-1.387.172-1.776.893-.091,1.02-1.392.913-2.228-.155-1.216-1.936-2.414-3.7-3.049a7.948,7.948,0,0,0-3.393-.472,2.836,2.836,0,0,0-2.749,3.552c.191,1.193-.14,2.429-1.53,1.773-.761-.359-.57-1.225.207-2.024,2.731-2.686-2.769-5.955-6.09-3.7a2.481,2.481,0,0,1-.973.547c2.082-5.22,8.6-.331,8.542-.118Zm9.051-.7,4.15,1.574a12.145,12.145,0,0,0-2.309.732Zm-10.838,1.7c-3.83-.73-4.038,3.579-1.542,4.282-3.434,4.75,5.557,6.593,3.908.732,4.556.827,3.732-4.394.344-4.346.792-1.945,7.046-.471,6.777.974-4.229.452-2.539,4.33-.71,4.334-4.421,4.215,4.427,8.1,4.191,1.747,3.55.751,3.968-3.993.556-4.3,1.249-1.77,5.712-.654,6.95,1.37-3.523.471-3.3,3.586-.546,4.089-3.493,4.479,5.1,6.134,4.211.928,3.081,1.066,4.771-3.073.78-4.256,4.088-2.452,8.528,1.2,8.047,1.278-4.666-.278-3.737,4.43-.36,4.174-2.148,4.889,6.365,5.161,4.206.091,3.829.071,3.493-4.4-.175-4.695,2.309-1.7,4.914-1.845,6.59-.258-3.491.925-2.041,5.011,1.471,3.879.325,3.419,3.086,2.694,3.148,2.591l2.47,4.64-66.938.109,5.713-10.617a2.723,2.723,0,0,0,3.108-3.179c2.246,1.614,4.661-2.4,1.376-3.549,2.683-2.828,6.663-.216,6.425-.013Zm-21.791-.3c-.14.144-.176.231-.407.016C2946.013,1928.2,2947.6,1928.139,2947,1928.852Zm13.841,1.779c.295.243.092.908-.147,1.136-.6.651-.807.6-.276-.524.157-.34.305-.616.423-.612Zm29.327.3,3.48.847-1.653.938A21.04,21.04,0,0,0,2990.171,1930.932Zm10.877,1.411,3.785.243a9.384,9.384,0,0,0-1.6,1.286A12.621,12.621,0,0,0,3001.048,1932.343Zm12.61,3.886a18.69,18.69,0,0,1,.967,2.02C3013.4,1938.464,3013.073,1936.63,3013.658,1936.229Z" fill="#100f08"/>
      <path id="path12536" d="M2950.452,1783.67c-4.131-6.83-8.476-13.468-13.907-19.139,5.431-5.67,9.776-12.308,13.907-19.138,4.13,6.83,8.476,13.468,13.906,19.138C2958.928,1770.2,2954.582,1776.84,2950.452,1783.67Z" fill="#d40000"/>
      <path id="path12538" d="M2916.651,1775.12a44.92,44.92,0,0,0-5.794-7.974,44.963,44.963,0,0,0,5.794-7.975,45.038,45.038,0,0,0,5.794,7.975A45,45,0,0,0,2916.651,1775.12Z" fill="#d40000"/>
      <path id="path12540" d="M3032.54,1903.632c-4.13,6.83-8.476,13.468-13.906,19.138,5.43,5.671,9.776,12.309,13.906,19.139,4.131-6.83,8.476-13.468,13.907-19.139C3041.016,1917.1,3036.671,1910.462,3032.54,1903.632Z" fill="#d40000"/>
      <path id="path12542" d="M3066.342,1912.172a44.976,44.976,0,0,1-5.795,7.975,44.937,44.937,0,0,1,5.795,7.974,44.884,44.884,0,0,1,5.794-7.974A44.922,44.922,0,0,1,3066.342,1912.172Z" fill="#d40000"/>
      <path id="path12544" d="M2917.286,1753.772h2.644l-3.884-9.717-2.967,4.1.02,5.612h2.084v2.894h-7.344v-2.894h2.42v-20.9l-2.42.01v-2.53h7.452v2.616h-2.057l-.043,10.184,6.5-10.27h-2.3v-2.53h7.928v2.53h-2.092l-5.355,8.393,5.243,12.5h2.328l.012,2.9h-8.152l-.025-2.9Z" fill="#d40000"/>
      <path id="path12546" d="M3065.706,1933.52h-2.644l3.884,9.717,2.968-4.105-.021-5.612h-2.083v-2.894h7.344v2.894h-2.42v20.9l2.42-.01v2.53H3067.7v-2.616h2.056l.044-10.184-6.5,10.27h2.295v2.53h-7.927v-2.53h2.092l5.355-8.393-5.244-12.5h-2.327l-.012-2.9h8.152l.024,2.9Z" fill="#d40000"/>
    </g>
  </g>
</svg>
