<svg xmlns="http://www.w3.org/2000/svg" xmlns:xlink="http://www.w3.org/1999/xlink" width="179.79" height="250.65" viewBox="0 0 179.79 250.65">
  <defs>
    <clipPath id="clip-kh">
      <rect width="179.79" height="250.65"/>
    </clipPath>
  </defs>
  <g id="kh" clip-path="url(#clip-kh)">
    <g id="kh-2" data-name="kh" transform="translate(-2901.604 -1155.422)">
      <rect id="rect6355-6-85-90-3-5" width="177.785" height="248.651" rx="8.504" transform="translate(2902.604 1156.422)" fill="#fff" stroke="#000" stroke-width="0.997"/>
      <path id="path163-0-2-7-7-1-8-7-00-1-2" d="M2916.316,1212.221s-1.772-2.543-4.162-5.534c-1.6-2-2.877-4.168-3-6.035a3.864,3.864,0,0,1,3.49-4.375c2.334-.1,3.282,1.644,3.668,3.085.386-1.441,1.333-3.189,3.668-3.085s3.626,2.243,3.49,4.375c-.119,1.867-1.4,4.034-3,6.035C2918.087,1209.678,2916.316,1212.221,2916.316,1212.221Z" fill="#d40000"/>
      <path id="path163-0-2-7-7-1-8-1-9-4-6-8" d="M3066.677,1349.274s-1.772,2.543-4.162,5.534c-1.6,2-2.877,4.168-3,6.035-.136,2.132,1.154,4.271,3.49,4.375s3.282-1.644,3.668-3.085c.386,1.441,1.334,3.189,3.668,3.085a3.864,3.864,0,0,0,3.49-4.375c-.118-1.867-1.4-4.034-3-6.035-2.39-2.991-4.162-5.534-4.162-5.534Z" fill="#d40000"/>
      <path id="path39-51-8-0-0" d="M2918.245,1191.879h2.644l-3.884-9.717-2.967,4.1.02,5.613h2.084v2.894H2908.8v-2.894h2.42v-20.9l-2.42.01v-2.53h7.452v2.615h-2.056l-.044,10.185,6.5-10.27h-2.3v-2.53h7.928v2.53h-2.092l-5.356,8.393,5.244,12.5h2.328l.012,2.894h-8.152l-.025-2.9Z" fill="#d40000"/>
      <path id="path39-3-9-6-0-8" d="M3066.041,1370.621H3063.4l3.884,9.717,2.968-4.1-.021-5.613h-2.084v-2.894h7.344v2.894h-2.42v20.9l2.42-.01v2.53h-7.451v-2.615h2.056l.044-10.185-6.5,10.27h2.3v2.53H3058v-2.53h2.092l5.355-8.392-5.244-12.5h-2.327l-.012-2.894h8.152l.025,2.9Z" fill="#d40000"/>
      <path id="path3876-2-1-7" d="M2967.144,1367.362a227.754,227.754,0,0,0,42.974.93c3.806,5.3,11.449,16.12,11.449,16.12l-69.253.566Zm-17.984,3.692c1.856-3.779,2.216-7.421,1.863-12.669-.28-4.028,2.218-7.165,4.8-5.963,1.993.93,1.073,4.741-.987,3.934-.789-.308-1.48-.028-1.375,1.782.184,4.46,1.361,9.485.349,13.761C2953.1,1376.054,2947.436,1374.14,2949.16,1371.054Zm-17.4-5.827a3.316,3.316,0,0,1,4.187-4.885c1.164.549,1,1.744-.467,1.107-2.047-.889-4.252,2.257-2.47,3.521.82.583,1.133.5.509-.224-1.66-1.948,2.587-2.809,2.464-1.526a23.5,23.5,0,0,1-.468,2.528c-.865,1.365-2.528.668-3.755-.521Zm6.1-13.924a3.654,3.654,0,0,1,.311-5.231c.7-.767-5.631-12.675-4.831-12.752,8-.859,16.079-.211,24.092.041,0,0-4.273,7.753-5.976,11.589-.686,1.546.918,3.365.254,4.514-2.063,2.275-.78,4.794-2.066,4.908a26.213,26.213,0,0,0-11.068-.047c-.324-.028-.273-2.012-.716-3.022Zm34.614-82.737c4.043,20.766-1.918,42.778-15.584,57.3-1.929-1.87-3.408-5.419-5.332-7.735-5.341-1.618-9.184.287-12.928,2.152a21.1,21.1,0,0,0-10.729-3.024l-.118-3.212c3.7-.08,7.6.264,10.892,2.319l5.15-2.109-16.059-16.81.218-2.873,19.486,19.84,2.51.09c-5.515-14.793-.691-38.289,22.494-45.938Zm27.172,26.048,2.817,13.56s-15.8,15.8-24.1,23.874l-6.939-.637c3.465-5.2,5.438-10.463,7.74-15.711Zm55.992,18.6c-6.615,7.474-14.518,12.226-23.3,17.463-3.509-3.956-7.768-8.307-10.227-12.207,7.657-4.129,14.957-7.328,22.455-14.555-.411.466-9.565,3.6-9.535,3.24-.331,1.543-.132,2.494-1.621,2.9-1.764-2.486-3.469-4.5-6.249-5.614a6.3,6.3,0,0,1-2.715-.671c.779-.161.436-9.7,0-9.808.854-.28,1.717-.942,2.893.371.544.368,5.82-4.993,7.617-6.825,7.052-.586,13.3.115,20.246-.074-.053,8.489.432,17.29.429,25.779Zm-44.783-21.5c-.177-.36-1.957-14.426-.266-23.247,4.642-14.844,3.459-18.979,15.458-33.578.789-.78,3.548,1.733,5.61,6.078,5.989,3.809,13.667-1.106,13.667-1.106s2.98,2.456,9.72,3.8l-.116,2.643c-.033.768-7.58-.819-9.2-2.352,0,0-5.652,1.9-5.652,2.249,0,1.481,15.054,15.522,15.054,15.522l-.085,3.294c.1,0-20.64-21.712-20.909-19.439,5.87,25.5-4.117,38.423-23.277,46.138Zm-24.937-4.484-.335-13.49,12.7.153.522,13.631Zm-58.118-14.581c.34-.479-.494-25.143-.441-25.143,8.083-8.122,15.989-12.661,23.915-17.6,3.585,3.586,6.631,6.611,9.271,10.954l-10.935,6.8c.415,1.658-.663,2.255,6.386,8.71.119-.442,2.442-1.756,2.847.21-.955,4.149.424,7.676.6,9.907-.962,1.307-3.114-.1-3.114-.1-1.393-1.466-6.85,5.772-8.408,6.581-6.8-.256-20.507.21-20.126-.328Zm76.407-43.854c.047.084,6.994.012,6.928.174-1.263,3.128-4.142,9.352-7.029,16.24-2.41,4.01-19.656,20.707-19.656,20.707-.817-4.844-2.046-9.569-3.326-14.28Zm29.969-23.252c2.5,1.077,9.523.513,10.638.029,1.428.979.536,2.285.356,3.01,1.466,1.875,2.269,2.54.6,5.563-.381,0,5.118,12.511,5.266,12.52,0,0-5.811-2.787-7.861-4.669l-4.008,5.386-4.657-6.082c-.017.549-8.973,6.554-9.082,6.264-.281-.286,8.179-9.489,6.5-14.892-.405-1.3.521-2.626,1.153-3.773.435-.787-.149-2.309,1.09-3.356Zm-4.649-1.121c.38-.44-2.172-11.753.594-16.318,1.171-1.661,3.29-1.746,4.175-.387.677,1.891-1.339,4.522-1.744,5.808-1.311,3.58.636,8.3-.314,11.688-2.847,7.391-7.888-.728-2.711-.791Zm18.95-5.024c-1.5.066-.453-4.465-.206-5.763-.008-.257,2.746-.906,3.738.876,1.6,2.663-.323,6.023-3.532,4.887Zm-17.893-22.844-14.134,17.371c-14.291-1.663-28.632-2.718-43.245-.458l-11.753-16.569Z" fill="#e2cf00"/>
      <path id="path3874-3-1-4" d="M3056.8,1175.485H2926.189V1386.01H3056.8Zm-26.352,1.093-15.655,19.464-.385.131a91.317,91.317,0,0,0,3.954,9.863c2.265,4.726,7.957,13.412,4.406,20.36-.348.595-.672.885-1.107.883-.6,0-.592-.361-.233-1.058a15.1,15.1,0,0,0,1.011-7.1,27.792,27.792,0,0,0-2.16-5.987c-5.95-11.1-7.809-17.023-7.471-17.023a1.4,1.4,0,0,0-.428-.171l-.584-.2c2.062,7.02,5.412,12.922,8.063,18.386,2.175,5.078,2.408,7.049,1.271,10.746-.44,1.431-1.236,2.348-2.019,2.344-.587,0-.553-.122-.153-.849,2.084-3.781,1.6-7.908-.989-12.71-3.762-7.93-6.019-12.947-7.36-18.034-.033,0-.686-.224-.921-.281,1.116,5.3,4.234,11.4,7.136,17.653,2.4,4.812,3.091,8.32,2.226,11.09-.284,1.2-1.189,2.989-2.333,3.042-.447,0-.518-.238-.095-.856,1.778-3.083,2.094-5.925-1.088-12.4-2.926-5.95-5.861-12.608-6.864-18.426-.063-.477-1.335-1.043-1.061-.252,1.57,6.871,4.7,13.907,8.02,20.767,1.87,4.258,2.064,6.983.661,9.366-.785,1.332-.985,1.635-1.573,1.648-.7.015-.683.041-.3-.769,1.7-3.581,1.418-6.736-.85-11.912-3.111-7.1-5.73-12.97-6.849-19.216-.2-.058-1.254-.471-1.1-.159a102.046,102.046,0,0,0,6.112,17.058,57.242,57.242,0,0,1,2.809,7.595c.887,3.6-1.113,8.532-3.729,8.781-.976.093-.854-.4.232-1.422,1.872-1.762,2.235-4.571,1.6-7.831a41.284,41.284,0,0,0-2.428-7.94c-2.283-5.535-4.768-11.326-5.554-16.435.025-.457-1.021-.459-.726.02a58.719,58.719,0,0,0,3.39,11.481c1.616,4.157,4.02,8.815,4.808,13.916.644,4.174-1.93,8.115-5.054,8.35-3.762.284-4.5-3.484-3.6-5.25,1.476-2.637,5.764-1.131,4.49,1.565a1.483,1.483,0,0,1-2.879-.558c-.025-.154.215-.621.172-.647-.077-.045-.406.259-.511.45-.762,1.378,1.525,3.227,3.115,2.12,5.326-2.92,1.729-11.824-.592-17.264a56.42,56.42,0,0,1-4.611-14.338c-.2-.136-1.074-.362-.951-.2.645,2.5.943,4.615,1.584,6.719,1.007,3.3,2.811,6.992,4.284,10.692,1.337,3.64,2.68,6.732,2.068,10.528a2.074,2.074,0,0,1-.435,1.027c-.239.254-.437.215-.507-.752-.025-.131-.193-.3-.218-.472a11.848,11.848,0,0,0-.328-4.182,20.4,20.4,0,0,0-2.157-4.452c-.494-.813-1.786-3.3-1.333-1.58a23.576,23.576,0,0,0,2.07,4.692,9.684,9.684,0,0,1,1,4.13c-.188.5-.625.529-.829.357-.183-.155-.182-.864-.229-1.3a13.677,13.677,0,0,0-3.275-6.173c-.907-1.025,2.136,4.355,2.359,5.789.095.607.281,1.1.076,1.4-.135.2-.408.2-.675.128s-.247-.247-.52-1.17a9.273,9.273,0,0,0-2.24-3.8c-.411-.488-.685.123-.031.915a9.154,9.154,0,0,1,1.813,4.227c-.585.843-.874.679-2.1-1.453-.81-1.408-1.3-1.769-1.508-1.759-.537.026-.031.7,1.477,3.1.781,1.283.8,2.081-.088,2.077a9.535,9.535,0,0,1-2.408-2.693c-.351-.676-.785-1.194-.787-.368a10.765,10.765,0,0,0,1.76,2.894c1.129,1.323,1.452,1.589,1.6,2.174.069.28.205.768.3,1.085.289.952.142,1.224-.443.721-.265-.7-.48-.778-1.207-1.321a12.129,12.129,0,0,1-2.019-2.48c-.21-.316-.391-.717-.606-1.039-.547-1.034-1.274-1.124-.748-.08a15.712,15.712,0,0,0,1.075,1.867c.709,1.021.562,1.554-.279,1.55-.359,0-1.367-1.339-2-2.384-.411-.681-1.052-1.163-.974-.488a7.935,7.935,0,0,0,1.26,2.3c.809,1.017.915,1.558.13,1.554-.536,0-1-.52-1.68-1.573-.649-1-1.053-1.354-1.237-1.241-.232.145.931,2.129,1.886,3.213.9,1.025.241,1.609-.8.7a11.645,11.645,0,0,1-2.008-2.67c-.565-1.253-.93-.911-.565.082a9.086,9.086,0,0,0,1.791,3.069c.4.407,1.218.727,1.618,1.077,1.135.993,1.853,1.909,1.76,2.073-3.234.185-5.889-3.307-6.615-5.421-.516-1.39-1.1-1.595-.546.368,1.577,4.877,6.492,7.41,9.891,5.224,2.051-1.319.239-4.754-1.44-3.647-.456.3-.476,1.154.1.7,1.091-.857,2.187,1.257,1,1.883-1.673.88-3.528-.842-2.39-2.929,1.124-2.144,5.63-.917,4.749,2.546a6.174,6.174,0,0,1-4.879,3.534c-3.726.071-6.3-2.82-7.734-5.673-.184-.368-.513-1.089-.786-1.678a7.413,7.413,0,0,0-.441-.883c.415,3.465,3.687,7.75,6.617,8.458,4.869,1.158,6.2-1.778,9.387-4.812,0,0,2.328.306,2.409.255a28.787,28.787,0,0,1,4.657-.2,106.381,106.381,0,0,0-1.114,98.741c.991,2.108,1.164,1.708-.478,1.278-1.7-.447-3.233.241-4.611-.081-2.85-.589-3.457,1.379-5.646,2.43-2.731,1.043-2.113,2.964-2.764,4.82-.205.288-.354.523-.242.485a1.732,1.732,0,0,0,.807-1.085,4.485,4.485,0,0,1,1.038-2.69c.471-.466.8-.7.913-.5a1.7,1.7,0,0,1-.21,1.151c-.663,1.267.216,5.5.271,2.487a7.533,7.533,0,0,1,3.481-6.151c1.6-.794,2.1-.713.8.51a8.658,8.658,0,0,0-2.554,5.788c-.025.963.353,1.766.489.9-.057-4.421,4.309-9.345,8.991-6.9.233.171.43.492.361.672-4.534-.769-8.48,1.737-7.9,7.671a19.423,19.423,0,0,0,.635-2.323c.715-3.634,4.778-5.224,7.628-4.228.535.228.957.994.881,1.1-3.485-1.107-7.31,2.225-7.531,5.835-.073,1.175-.045,2.181.549.062,2.251-8.021,9.194-4.385,8.34-3.728-5.373-.648-7.318,3.01-7.195,7.239.077.387.274.516.436.876a13.229,13.229,0,0,1,1.1,5.851c-.054.745.554,5.488-.059,5.288-1.952-.73-3.435-1.593-6.817-.054-.3.017-.4-.153-.3-.42a10.23,10.23,0,0,1,1.591-2.117c2.078-2.241.884-1.64-.824-.086-1.1,1-.863.317.176-3.109.421-1.39.159-1.558-1.653-2.489-1.866-.959-3.157-1.1-1.573-.1a13.344,13.344,0,0,0,1.987,1.071c.826.457.732.648.122,2.651-1.184,3.889-1.595,5.31-1.533,7.926.151,6.363,6.145,5.732,9.557,4.3l.142,4.19,12.851,18.309s-44.922-.047-68.955.353c1.373-3.334,15.9-17.454,16.766-19.98.083.012-1.61-5.162-2.5-7.413-4.2-10.629-9.725-15.1-6.527-22.08.689-1.384.808-1.851,1.331-1.849.71,0,.937.481.139,1.835-3.434,5.826,3.893,15.878,6.369,22.289a73.12,73.12,0,0,1,2.346,7.458c.028.495,1.191.664.866.085-.913-3.276-2.059-6.853-2.591-8.141-1.957-4.734-4.015-7.964-5.922-12.59-1.066-2.924-1.633-6.3.02-9.331.6-1.1.773-1.717,1.171-1.775.342,0,.543.119.565.4a3.349,3.349,0,0,1-.615,1.593c-2.887,4.971,2.245,13,4.787,18.732a45.453,45.453,0,0,1,3.653,11.2.584.584,0,0,0,.964.45c-1.1-6.616-4.333-13.031-7.165-19.212-2.418-4.829-3.326-9.038-.093-13.014.281-.274.884-.229.927.178a5.219,5.219,0,0,1-.691,1.86c-2.848,6.025,1.562,10.918,3.631,16.663,2.018,4.8,3.9,8.837,4.649,13.954.571.219.854.494.915-.231-1.476-7.231-4.659-13.731-7.42-19.993-1.275-2.72-1.726-4.025-1.813-5.847-.119-2.506,1.128-5.677,2.246-6.513.29-.217.471-.255.735-.11.363.2.29.333-.427,1.705a9.968,9.968,0,0,0-.218,8.684c2.2,4.785,4.044,8.713,5.354,12.23a42.32,42.32,0,0,1,2.565,10.206s.976.438.831-.218a55.5,55.5,0,0,0-3.474-12.3c-1.4-3.5-3.163-6.862-4.589-10.329a8.852,8.852,0,0,1,3.249-10.973l1.631.036c-.095-.043-3.72,1.413-3.91,6.655-.181,4.995,2.157,8.065,3.848,12.3,2.062,5.1,3.906,9.578,4.345,15.032a1.53,1.53,0,0,0,1.039.15,52.979,52.979,0,0,0-3.009-11.442c-1.607-4.555-3.2-6.575-4.7-11.358-1.009-3.236-.873-7.619,1.374-9.622,3.363-3.437,8.056-.99,6.879,2.945-.907,2.77-4.656,2.219-4.635-.376a1.459,1.459,0,0,1,2.708-.864c.157.246.262,1.324.332,1.364a3,3,0,0,0,.282-1.046,2.3,2.3,0,0,0-3.214-1.837c-1.882.957-3.1,3.158-2.981,6.1.131,3.134.693,5.161,3.226,10.074,2.953,5.725,3.932,11.924,4.562,16.1.273-.116.6.032.706,0a48,48,0,0,0-4.587-16.406c-2.794-5.89-3.576-9.493-2.644-12.132.137-.388.267-.68.435-.705.313-.048.409.458.7,1.515a3.418,3.418,0,0,1-.088,1.228c-.243,2.416,1.43,7.439,2.986,9.672.455.637,1.037.615.534-.515a19.226,19.226,0,0,1-2.707-9.114c-.037-1.043,1.163-.575,1.19-.052a12.19,12.19,0,0,0,1.055,5.113c1.625,2.811,2.529,2.934.867-.206-.369-.728-1.426-3.808-1-4.867.237-.216.525-.254.668-.039a12.117,12.117,0,0,0,2.271,4.806c.6.7.7.382.386-.489-.53-1.008-2.188-4.378-1.424-5.138.246-.206.1-.094.771,1.011a12.486,12.486,0,0,0,1.893,2.593c.6.6.749.2.126-.857-1.243-2.1-1.951-3.847-1.514-4.287s.536-.233,1.518,1.459c.437.752,1.07,1.861,1.287,2.123s.411.328.416.113a8.273,8.273,0,0,0-2.661-4.775,11.587,11.587,0,0,1-.065-1.8c2.6,1.356,2.711,2.886,4.436,5.242.178.176.431-.038.355-.364a14.19,14.19,0,0,0-1.721-3.263c-.5-.676-.527-1.064-.1-1.259.69-.315,1.654.722,2.68,2.573.477.859,1.113,1.358,1.115.907a10.28,10.28,0,0,0-1.5-3.1c-1.018-1.066-.515-1.812.665-.825a5.325,5.325,0,0,1,2.008,2.414c.436.951.811,1.073.813.314a6.5,6.5,0,0,0-2.371-3.515c-.739-.447-1.158-.946-.951-1.279.648-.962,3.267,1.492,4.162,3.774.263.674.726,1.018.839.721.2-.151-.329-1.8-.874-2.557-.9-1.742-3.024-3.424-4.283-3.221-.243.04-.912-1.387-.912-1.387,3.212-.524,6.331,3.363,6.886,4.817,1.054,2.76,1.589,2.436.668.015-1.8-4.73-7.391-7.38-10.494-5.091-1.767,1.3-.71,4.42,1.107,3.891.723-.274,1.423-1.018.152-.773a1.263,1.263,0,0,1-.423-2.467c2.319-.7,2.85,3.031.977,3.863a2.526,2.526,0,0,1-3.7-2.569c.344-4.075,5.3-5.253,10.189-1.957,1.375.927,3.068,3.949,3.649,5.863.193.633.84.854.92.774.186-.187-1.358-3.55-1.866-4.405-2.13-4.927-9.829-5.17-9.829-4.916a28.371,28.371,0,0,0-5.694,5.077l-6.881-.64c17.532-28.447,18.91-70.272.927-99.882.23.151,3.457.994,4.569.109a1.911,1.911,0,0,1,1.963-.2,3.081,3.081,0,0,0,3.206-.985c.837-.773.854-1.012,1.394-.941,1.6.209,2.656-.735,2.985-3.062.129-.914.218-1.863.088-1.724a8.993,8.993,0,0,0-.378,1.368,3.7,3.7,0,0,1-1.149,2.313c-.869.735-1.371.324-1.008-.79a4.891,4.891,0,0,0,.156-3.41c-.082-.152-.1.421-.221.879-.948,3.645-1.941,5.5-3.659,5.923-.806.2-1.179.077-.918-.393,3.03-3.262,2.828-6.877,2.6-6.568-.644,2.092-1.84,5.209-3.806,6.491a5.5,5.5,0,0,1-5.566.282c-.785-.527.4-.683,2.179-.708,2.993-.04,5.791-4.079,5.326-7.483-.109-.63-.279.046-.523,1.081-1.1,3.687-3,6.275-7.325,5.5a1.815,1.815,0,0,1-.748-.414c-.705-.494-.445-.832.954-.647,3.13.412,5.854-2.552,5.837-6.135-.008-1.719-.252-1.7-.523-.418-.381,1.8-1.772,7.342-6.833,5.533-.912-.5-1.409-1.138-1.085-1.232,2.953.6,5.658-.054,6.71-3.972a8.246,8.246,0,0,0-.117-4.727c-.147-.941-.459-1.657-.565-2.612a53.634,53.634,0,0,1-.565-8.184c.242-.244.284-.191,1.134.379,1.668,1.12,2.93.862,4.627.2,2.182-.8,1.984-.652-.3,1.953a13.141,13.141,0,0,0-1.012,1.31c-.581,1.1.509.292,1.325-.744,1.134-1.44,1.372-1.772,1.6-1.771a18.987,18.987,0,0,1-.768,4.724c-.377,1.414-.372,1.741.519,2.1.387.157,1.132.466,1.547.666,1.866.9,1.694.168.206-.682-2.01-1.147-2.027-1.089-1.451-2.995a47.969,47.969,0,0,0,1.371-6.382c.9-5.47-3.181-8.479-8.6-6.569-.31.158-.669-2.875-.618-3.677.048-.29-.82-.226-1.531-1.108.217-.2-8-10.6-11.823-16.9,23.81.059,47.27-.438,68.81-.38Zm-17.64,19.534a.7.7,0,0,1,.084.062C3012.86,1196.132,3012.831,1196.112,3012.811,1196.112Zm18.591-19.046h23.634v50.3l-2.336.051s-3.841-6.677-4.852-9.831c-.253-.788-.695-1.873-.867-2.3-.39-.965-.664-1.085-.145-1.674a4.014,4.014,0,0,0-.176-4.72c-.312-.374-.473-.247-.458-1.155a3.831,3.831,0,0,0-.118-1.682c-.341-.672-.572-.72-.084-1.461a12.81,12.81,0,0,0,1.477-3.022c.463-1.6.137-1.894,1.168-1.519a3.525,3.525,0,0,0,4.689-3.673,3.7,3.7,0,0,0-4.5-3.593c-.551.14-.66.092-1.508-.446a6.161,6.161,0,0,0-.928-.6c-.393-.152-.718-.139-.882-.423a3.016,3.016,0,0,0-2.538-1.387,5.084,5.084,0,0,1-1.966-.372c-.424-.224-1.616-.042-3.131-.271a5.552,5.552,0,0,0-1.542.166c-.932.012-.552-.1-.729-.821-1.169-3.734-4.582-3.289-6.146-.481a14.052,14.052,0,0,0-1.206,4.426l-9.193-.14Zm-71.142.108c3.434,4.416,6.72,9.365,10.181,13.873,4.26,5.46,4.4,6.088,3.256,11.583-.64,3.1-.914,3.823-2.21,3.588a2.148,2.148,0,0,0-2.413,1.972c-.311,2.3,1.882,3.716,4.085,2.566,1.162-.607,1.2-.672.813,1.333-.555,2.873-1.667,5.347-2.382,5.266-1.847-3.963-6.341-1.143-4.849,2.977-.467.719.147,1.631.382,2.384a12.832,12.832,0,0,1-2.557.948c-12.6,3.771-27.99,13.617-36.512,22.859v-69.159Zm72.318,9.436a2.05,2.05,0,0,1,1.458.539c1.1,1,.841,2.392-.68,5.018-1.594,3.658-1.159,6.54-.794,10.381-.01,2.231-.755,4.35-1.943,5.267a2.114,2.114,0,0,1-3.3-2.519c.511-1,1.6-.418,1.852-1.364.352-3.492-.507-7.055-.566-10.482a12.818,12.818,0,0,1,1.207-4.91,3.461,3.461,0,0,1,2.764-1.93Zm3.03,5.969c-.436.367-1.163.375-1.249-.084a5.2,5.2,0,0,1,.631-2.184C3036.566,1189.938,3036.064,1192.182,3035.608,1192.579Zm2.356-2.392c1.3-.052,2.161,3.318,1.031,5.289-.215.041-1.794.031-1.8.062a9.229,9.229,0,0,1,.195-1.728,3.311,3.311,0,0,0-.011-1.631c-.428-1.544-.706-1.834.588-1.992Zm2.482.046h.152c1.323.007,2.075,2.591,1.661,5.414-.059.405-.094.831-.241.926a6.218,6.218,0,0,0-2.114.4,2.957,2.957,0,0,1,.11-1.677,5.672,5.672,0,0,0,.039-3.615c-.306-1.2-.317-1.425.393-1.446Zm3.294.744c1.453.247,1.547,4.32.951,5.643-.143.195-.691.148-.886.22-1.235.359-.96.545-.817-1.445a13.769,13.769,0,0,0-.08-3.553c-.1-.495-.138-.84.218-.872a1.491,1.491,0,0,1,.614.008Zm-7.249,1.593c.578.8.113,2.66-.329,3.349-.5.761-.706.824-.431,1.158a1.642,1.642,0,0,1,.21,1.162c-.277.559.434.66,1.08,1,1.048.555,1.557,1.578,2.339,3.441.273.649.832.444.561-.254-.232-.6-.323-1.479-.483-2.067-.168-.6.016-.906.7-.729,1.034.267.891.017,1.269-.124.83-.465,1.387.194.886.558a6.293,6.293,0,0,1-1.581.526c-.577.16-.443.723.138.721a17.683,17.683,0,0,0,3.073-.747c2.872-.88,2.968-1.349,2.7.306a5.034,5.034,0,0,1-3.481,4.387,17.428,17.428,0,0,1-7.357-.174c-1.656-.761-1.766-1.292-2.267-2.771-.686-2.023-1.09-5.449-.3-7.44.694-1.681.625-1.505,1.291-1.42a1.421,1.421,0,0,0,1.565-.391c.089-.176.315-.5.416-.491Zm11,1.213a4.484,4.484,0,0,1-.13,2.523c-.179.326-1.184.309-1.573.313-.23.055-.212-3.042.035-3.379.584-.889,1.34-.174,1.668.543Zm-29.139-.535,2.844.035v.7l-3.355-.023Zm9.952.12v.911l-4.283.008v5.7l4.791.016.026,1.185-6.413-.023.019-7.8,5.856,0Zm21.771-.182c4.391.979,2.432,5.9.787,6.2-2.052.372-3.791.138-3.222-1.693.57-1.241.174-2.786.336-3.914A2.857,2.857,0,0,1,3050.073,1193.186Zm-33.1,1.728,4.226.043v.942l-4.829-.012Zm9.387.868a1.241,1.241,0,1,1-1.221,1.24A1.231,1.231,0,0,1,3026.355,1195.782Zm11.922.493c.786.087.854,1.307.534,1.664a.879.879,0,0,1-1.416-.4A.968.968,0,0,1,3038.277,1196.275Zm-22.488.531,5.405.015v.763l-5.459.047-.145-.492Zm30.428.329c.75-.018,1.209.622.741,1.166C3046.252,1199.1,3044.813,1197.88,3046.217,1197.135Zm-57.6,1.667c-1.21,1.036-.24,2.055,1.366,1.074,3.457-2.111,8.556-.438,11.879,1.32.651.338.741-.451.1-1-3.069-2.743-9.614-4.316-13.344-1.4ZM3041,1197.36c.844,0,.833,1.072.29,1.453a.936.936,0,0,1-1,.03c-.494-.2-.125-1.478.706-1.483Zm2.991.016c1,.05.889,2.094-.623,1.357A.778.778,0,0,1,3043.987,1197.376Zm-27.939,1.053,5.253.047v.868l-4.913-.051Zm-33.948,2.042c1.435,1.156.99,1.227-1.39.376a7.222,7.222,0,0,0-4.077.264c-1.152.462-1.419.329-.92-.454,1.34-1.525,5.032-1.217,6.387-.186Zm6.9,1.915c-.145.36-.636-.289-1.3-.163-.95.179-.676.225.328,1.383s1.333,1.434,1.271,1.88c-.09.657.092,1.018.737.945.31-.035.678.329,1.153.767a16.683,16.683,0,0,0,3.008,2.5c2.177.953,1.2-.123-.2-1.1-2.318-1.624-3.124-2.707-1.477-2.127a8.181,8.181,0,0,0,5.906-.573c.675-.413,1.1-1.046,2.053-.737,1.337.434,1.849-.366,1.478-.814-.607-.4-1.992-.866-3.306-1.763a8.16,8.16,0,0,0-7.742-.24c-1.161.687-1.566.2-.427-.477,4.567-2.5,8.181-.1,11.1,1.69.506.312.861.286.862.065-.077-.725-1.378-1.17-1.9-1.495-4.074-2.517-8.356-3.319-11.548.252Zm27.733-2.213,4.566,0v.914l-4.23-.019Zm-37.148,1.166c1.265-.006,4.016,1.146,3.971,2.1-.053.362-.742.037-1.34-.334a6.771,6.771,0,0,0-4.6-.593c-1.283.243-1.692.458-1.875.3C2975.3,1201.8,2978.414,1201.345,2979.587,1201.339Zm49.368.682.008,1.639c-2.479.184-2.989,2.979-1.4,4.536,1.3,1.276,3.458.773,4.541-1.036.189-.322.212-.516.328-.357a2.619,2.619,0,0,1,.195.7c.171.86-.073,1.08-.634,1.817a3.633,3.633,0,0,0-.462,3.809c.157.308.484.747.427.95.318-.01-2.814,8.885-7.388,13.367-.766.517-1.321-.091-.926-.925,3.726-8.643-3.4-16.673-6.169-24.4l11.479-.1Zm-33.124,1.492.653.058c-.526,3.983-4.332,3.341-4.482.1l.55-.019c.741,3.018,3.287,1.782,3.279-.136Zm-21.5.082a1.926,1.926,0,0,1,.275.693c0,.927-.015,2.268-.039,2.674-.22,3.832-5.01,4.542-4.646,1.263a1.258,1.258,0,0,1,2.444-.286c.621,1.584.732-.382.74-1a18.05,18.05,0,0,0,1.226-3.348Zm23.08.271a1.407,1.407,0,0,1,.825.48c.315.344.2.515-.538.9-.8.416-1.157.38-.871-.461C2997,1204.262,2997.155,1203.859,2997.407,1203.866Zm35.831.2c.108.005.385.15.321.566-.109.695-.7,1.09-.855.926C3032.8,1205.193,3032.921,1204.212,3033.238,1204.067Zm-41.549,1.345c-.094.281-.258.159-.676-.2-.461-.4-.437-.651.039-.937.682-.418.724.88.637,1.139Zm-14.5-1.039c.8,2.564,2.429,2.239,3.157.125l.7-.012c-.154,3.3-4.271,3.242-4.306.05Zm-1.443.318c.244-.039.069.818.069.818s-.676-.354-.279-.729A.567.567,0,0,1,2975.743,1204.691Zm6.047.217a.852.852,0,0,1,.413.175c.4.269.331.427-.126.813-.7.6-1.022.265-.642-.534C2981.577,1205.064,2981.683,1204.915,2981.79,1204.908Zm52.578.558a6.72,6.72,0,0,1,1.6.357,17,17,0,0,0,8.47-.144c.877-.245,1.527,1.315,1.054,2.449-.209.5-.172.564.466,1.237a3.433,3.433,0,0,1,.363,3.894c-.5,1.02-.467.929.125,2.67a61.766,61.766,0,0,0,5.114,10.767l-2.625-.993s-11.851,10.341-20.209,10.733l3.027,4.789a14.18,14.18,0,0,0,13.67-1.333c-.107.4,5.3,3.084,9.739,3.376l.026,3.224c-3.294-.375-6.632-.452-9.692-2.407,0,0-2.813,1.194-5.631,2.089l15.782,16.571.008,2.769s-6.737-6.382-13.67-13.578l.149,35.383,13.655.272c-.429,9.209-.256,15.063-.164,25.61a90.223,90.223,0,0,1-23.535,17.481,68.524,68.524,0,0,1-9.868-12.284c-.059-.093.282-.27.223-.363-.085-.135-.57-.186-.658-.319-1.706-2.579-5.671-9.73-5.043-9.9,1.213.085,6.836-.621,7.955-4.042a5.635,5.635,0,0,1,.031-1.542,13.243,13.243,0,0,0-.073-6.46c-1.208-3.226,2.427-2.192,2.55-1.976v-12.188c-4.73,3.85-9.5,7.639-15.827,9.223-3.933-20.125,2.3-45.155,20.087-62.129l-.975-.084c-18.271,19.189-23.062,40.291-19.944,62.515,0,0,.115.7.133.93.043.553-.088.764-.573,1.163-.461.308-.881.639-.839,1.019.078.714-.6.737-1.481.732-.408-.361-.955.095-1.283.26-.458.069-.687-1.83-1.271-.438-.224.879-.646.945-1.623.508-.614-.182-.628.127-.038.848.815.89,1.5,2.221,1.37,2.62a1.672,1.672,0,0,0,1.077,2.31c-.072.005-.753,2.729,1.179,2.65a18.045,18.045,0,0,1,2.172.326,1.026,1.026,0,0,1-.305,1.046l-1.344-.682-.351,1.623-1.79-.127,4.355,5.46.508-4.259,5.092.655c.818,2.153,5.963,14.09,15.8,23-.108.292-6.765,3.08-6.765,3.08l-1.053-3.315-.844,1.232-1.5-.391-.176,1.4-1.339.438,2.414,1.591-6.122,1.773c-17.155-28.086-24.878-66.82-3.515-108.077l5.4.07-1.054,1.829,1.535-.248.433,1.333,1.127-.54,1.133,1.442,1.289-3.851s3.825.088,4.3.039c.374-.043,8.083-6.608,7.917-6.859-.12-.181-8.4,5.959-8.673,5.724,0,0-.831.2-.183-.585a29.779,29.779,0,0,0,3.161-4.511,21.609,21.609,0,0,0,3.283-8.2,1.607,1.607,0,0,0-.081-.775c-.743-1.5-.579-2.473.756-4.239.467-.618.5-.771.363-1.151a1.939,1.939,0,0,1,.6-2.166.993.993,0,0,1,.634-.353Zm-45.484,5.976c3.388,1.412.667,4.54-1.849,1.813-1.318-1.429-2.359-1.338-3.077-.294-.323.47.147,1.3.565,1.034.388-.243.787-.532,1.352,0,4.284,4.005,7.36-1.6,3.668-2.995-.456-.214-1.106.259-.659.446Zm-13.954-.136a.219.219,0,0,1,.119.046,4.522,4.522,0,0,1,.011,2.112c-.535,3.015-2.653,10.021-7,6.592-1.725-1.362-.156-4.781,1.909-3.619,1.612.907.524,3.071-1.222,1.829-.847-.6-.578.64.138,1,1.213.644,3.41-.46,4.44-2.426a18.868,18.868,0,0,0,1.229-4.166c.218-1,.236-1.357.374-1.364Zm.367,5.22c.357,2.179-1.277,6-3.6,6.56-1.781.431-3.983-.746-3.825-1.837.045-.316.173.1,1.786.372,2.254.378,3.688-.856,4.986-3.7a9.437,9.437,0,0,1,.656-1.4Zm5.607,1.042a8.492,8.492,0,0,1-.217,1.325c-.24,1.022-.391,1.41.71.9a3.047,3.047,0,0,1,2.894-.058,3.964,3.964,0,0,0,3.806-.058c1.242-.42,1.848-.424,2.542-.019,1.267.739.832.267.668-1.6-.113-1.312-.466-1.139-.92-.643a1.284,1.284,0,0,1-1.573.031,2.41,2.41,0,0,0-2.29.081c-.375.31-.918.353-1.653-.151-.487-.333-.759-.159-1.355.113a1.481,1.481,0,0,1-1.894-.214c-.485-.359-.712-.246-.718.287Zm-4.878,1.566c.128,0,.142.5.053,1.515-.409,3.738-3.293,5.82-6.688,4.01-1.486-.861-1.285-1.468.18-.93,2.334.859,4.691-.342,5.844-3.413C2975.711,1219.528,2975.913,1219.135,2976.026,1219.134Zm8.284,2.666c1.678.7,3.539.481,4.013-.144.531-.7-.285-.586-.711-.48a4.845,4.845,0,0,1-3.073-.043C2982.8,1220.451,2982.909,1221.191,2984.31,1221.8Zm-17.511,2.1a42.722,42.722,0,0,1,4.337,6.305c13.7,23.609,18.09,53.447,9.082,80.535a97.651,97.651,0,0,1-9.869,21.213l-4.691.05,1.611-1.864-2.184.163-.133-1.232-1.657.542-.8-1.86-1.5,4.259-8.7.023c20.367-20.091,24.379-44.439,20.58-63.985,0,0,1.7-1.081,1.939-1.713a4.076,4.076,0,0,1,.3-.9c.758-.5,1.261-.991,1.634-.895a.758.758,0,0,1,.481.387c.718,1.068.873,1.234,1.264.159.281-.771.16-1.05,1.084-.9.541.292,1.26.284,1.2.175-.049-.081-.816-1-1.18-1.515-.859-1.228-1.106-1.45-1.027-1.988a2.2,2.2,0,0,0-.924-1.926c.116-2.208-.719-2.428-3.084-2.922a2.074,2.074,0,0,1,.217-1.031l1.39,1.124.5-2.085,1.886.1-5.467-5.371a41.431,41.431,0,0,1-.038,4.507c-2.563-.142-5.091-.981-5.13-.822a69.55,69.55,0,0,0-15.55-22.533l6.047-2.949,1.714,3.317.42-1.88,1.5.268.252-1.2,1.656-.237-1.828-1.763Zm36.01,3.879c.231.295.417.316.725.585l-.618.446a2.754,2.754,0,0,0-.107-1.031Zm-40.232,1.108a.944.944,0,1,0,.928.946A.94.94,0,0,0,2962.577,1228.883Zm5.045.15a.946.946,0,1,0,.932.946A.938.938,0,0,0,2967.622,1229.033Zm-16.253.691c2.994,2.526,5.746,5.818,9.085,10.967l-.068.693,1.019.384s5.554,7.421,5.26,10.718c-1.906.405-3.648-.121-7.058,3.116-1.609-.879-2.563-.6-4.23-.105a1.179,1.179,0,0,0,.6.981,2.155,2.155,0,0,1,2.974-.38c-.235.1-.837,7.474.332,9.044.881,2.5-1.433,2.028-3.038,1.411l.461,11.706c5.283-6.117,16.44-10.2,15.648-9.753,5.6,30.025-7.713,50.055-21.649,64.737l7.3.042s-6.3,10.252-6.764,13.087c.357.941,1.348,2.893-.325,4.262-.566.63-.626,3.488-.626,3.488-3.84.134-7.169-1.22-11.6.356-.458.157-.558-2.447-.581-2.918-2.474-2.226-.208-6.052.128-5.77a91.313,91.313,0,0,0-6.013-13.063s-2.421-.131-3.9-.217c-.307-.261-.506-7.2-.195-7.37,10.946.881,28.074-.128,28.074-.128l-4.6-6.518c-5.662-2.24-13.441,1.585-13.067,1.787.019.023-6.217-3.452-10.543-2.958l.142-3.4a19.846,19.846,0,0,1,10.483,2.564l5.258-1.988-16.117-17.162.187-2.829c5.253,4.933,13.869,14.477,13.869,14.477l.011-36.03-13.858-.035-.37-7.274-.359-.635-.164-5.22.386-.531-.134-2.232-.13-.318-.175-5.332.3-.449.045-3.356c6.7-6.654,23.985-17.845,23.985-17.845Zm11.838,1.012,1.615,7.184,1.084-1.364,1.664.531.115-1.655,1.515-.535Zm55.068,1.194a.946.946,0,1,0,.931.946A.939.939,0,0,0,3018.275,1231.93Zm-4.36.592a.946.946,0,1,0,.932.945A.938.938,0,0,0,3013.915,1232.522Zm-53.4.837a.946.946,0,1,0,.932.945A.938.938,0,0,0,2960.519,1233.359Zm56.739.57-6.482,6.188,1.817-.077.325,1.8,1.627-.756,1.316,1.233Zm2.758,2.079a.946.946,0,1,0,.932.946A.939.939,0,0,0,3020.016,1236.008Zm-51.549,1.218a.946.946,0,1,0,.931.946A.939.939,0,0,0,2968.467,1237.226Zm4.031.791a.946.946,0,1,0,.932.945A.938.938,0,0,0,2972.5,1238.017Zm-3.657,1.406c.179,2.529.47,5.527.535,8.061l1.229-1.229,1.42.585.5-1.554,1.546-.077Zm39.912,2.11a.946.946,0,1,0,.931.945A.938.938,0,0,0,3008.753,1241.533Zm-42.584.165a.946.946,0,1,0,.932.946A.938.938,0,0,0,2966.169,1241.7Zm46.276.23a.938.938,0,0,0-.931.945.932.932,0,1,0,1.863,0A.938.938,0,0,0,3012.445,1241.928Zm-.552,2.042-5.373,5.61,1.759.167.554,1.592,1.126-.968,1.367,1.015Zm2.951,1.2a.946.946,0,1,0,.931.945A.938.938,0,0,0,3014.844,1245.173Zm-42.368,1.749a.946.946,0,0,0,0,1.891.946.946,0,0,0,0-1.891Zm-22.958.767-1.358,1.053a4.117,4.117,0,0,1,1.748,1.393,22.434,22.434,0,0,1-.39-2.446Zm27.363.635a.946.946,0,1,0,.931.946A.939.939,0,0,0,2976.881,1248.324Zm-6.673,1.349a.946.946,0,1,0,.931.945A.939.939,0,0,0,2970.208,1249.673Zm38.48,1.905a.946.946,0,1,0,.931.946A.939.939,0,0,0,3008.688,1251.578Zm-3.677,1.387a.946.946,0,1,0,.932.946A.939.939,0,0,0,3005.011,1252.965Zm37.526.234,1.935,2.135v31.241l-1.889.039Zm-75.345.221c1.577,0,3.335.233,3.894,1.2.87,1.091-.981.669-2.539.907-1.439.179-.6.477,1.428.6,2.8.168,3.9.242,4.318.9a5.017,5.017,0,0,1,.114,1.68l-3.18-.151a18.47,18.47,0,0,0-3.107.1c-.39.1-.278.418-.146.554a24.016,24.016,0,0,0,2.814.128c3.979.106,4.859.242,5.142,1.542.213,1.191-.744,1.01-4.833.558a5.75,5.75,0,0,0-3.061.415c-.449.223,1.3.443,1.87.348a29.415,29.415,0,0,1,3.947.415c.813.125.1.1-.313.6-.271.416-.186.894-.611,1.128-.521.28-1.554.275-3.408.275-2.12,0-3.109.523-.2.651,1.88.083,1.986.05,2.146.6.424,1.358-.481,1.6-2.4,1.906a15.5,15.5,0,0,1-3.3,0c-4.055-.292-5.461-1.274-6.009-3.088-2.045-6.769.48-10.9,6.387-11.234.328-.018.682-.031,1.046-.031Zm40.989.3-4.579,6.762,1.765-.7.839,1.833,1.413-1.023,1.411.883Zm-34.263.822c.238.294.133.515-.259.732a1.646,1.646,0,0,1-1.271-.116c-.493-.216-.543-1.109-.138-1.205a1.875,1.875,0,0,1,1.668.589Zm-33.169-.345-2.1,2.325s1.935-.7,2.972-1.116Zm70.288,1.039a.946.946,0,1,0,.931.945A.938.938,0,0,0,3011.037,1255.238Zm34.1.817s2.333,2.339,3.291,3.321l-.867,0,.023,1.845,2.76.031,1.516,1.507-4.215-.019v1.883l5.219,0-.027-.806,2.062,1.9.244,20.949-9.944-.031c-.037-10.315-.009-20.26-.061-30.575Zm-68.222,2.271c-.143.453-.462.454-1.007.229-.808-.334-.693-1.238-.081-1.333,1.155-.134,1.368.406,1.089,1.1Zm3.131.395a.946.946,0,1,0,.931.946A.939.939,0,0,0,2980.042,1258.721Zm-3.28.725a1.544,1.544,0,0,1,.932.418c.509.522.329,1.009-.241,1.31-.639.338-1.088-.122-1.275-.891A.612.612,0,0,1,2976.762,1259.446Zm29.241,2.48a.949.949,0,1,0,.935.949A.943.943,0,0,0,3006,1261.926Zm-30.783,1.151a.784.784,0,0,1,.626,1.306.99.99,0,0,1-1.668-.233A1.007,1.007,0,0,1,2975.22,1263.077Zm27.445.383a.946.946,0,1,0,.931.946A.939.939,0,0,0,3002.665,1263.46Zm3.308.628-4.168,7.1,1.687-.678,1.023,1.368,1.053-.934,1.592.791Zm-32.711,1.186c.745,0,.954.6.412,1.143a.818.818,0,0,1-1.21.039C2971.819,1265.936,2972.313,1265.269,2973.262,1265.274Zm35.631.088a.946.946,0,1,0,.932.945A.938.938,0,0,0,3008.893,1265.362Zm-30.348.745a.906.906,0,0,0-.893.946.931.931,0,1,0,1.862,0,.971.971,0,0,0-.969-.946Zm69.061.209v2.008l5.253,0v-2.008Zm-68.992,1.783-2.012,7.459,1.683-.972,1.05,1.089.977-1.221,1.757.465Zm3.577.81a.946.946,0,1,0,.931.945A.938.938,0,0,0,2982.191,1268.909Zm-6.559.379a.946.946,0,1,0,.932.946A.939.939,0,0,0,2975.632,1269.288Zm71.971.589v1.8h5.252v-1.79Zm-43.227,2.356a.946.946,0,1,0,.932.946A.939.939,0,0,0,3004.376,1272.233Zm43.231,1.008v1.941h5.252v-1.941Zm-108.309.236,1.847.035.031,33.841-1.8-1.933Zm-.771.066-.092,30.931-3.5-3.735.932-.012v-2.108l-3.031-.023-1.294-1.279,4.321,0v-2.069l-5.127-.02v1.252l-2.519-2.728.042-20.2Zm65.987.945-2.8,7.36,1.764-1.02.912.911.943-.864,1.6.794Zm-73.767.353-.027,1.981h5.177v-1.981Zm76.943.4a.946.946,0,1,0,.932.946A.939.939,0,0,0,3007.69,1275.24Zm-6.339.106a.946.946,0,1,0,.931.946A.939.939,0,0,0,3001.351,1275.346Zm-21.92.352a.946.946,0,1,0,.931.945A.938.938,0,0,0,2979.431,1275.7Zm68.176.763v2.081h5.253v-2.081Zm-68.291,1.174-.778,1.221-1.783-.616,2.432,7.467,3.05-7.789-1.752,1.016Zm-48.569.543v1.976h5.15v-1.976Zm116.86,1.771v2.061h5.249v-2.061h-5.249Zm-116.86,1.724v1.98h5.15v-1.98Zm73.7.372a.95.95,0,1,0,.935.95A.943.943,0,0,0,3004.447,1282.045Zm-28.043.988a.95.95,0,1,0,.935.95A.943.943,0,0,0,2976.4,1283.033Zm5.978.179a.949.949,0,1,0,.935.949A.943.943,0,0,0,2982.382,1283.212Zm65.225.131v1.86h5.249v-1.86h-5.249Zm-43.168.868-1.115,1.19-1.6-.461,3.626,6.866,1.833-7.385-1.6,1.034Zm-73.692.7v2.247h5.15v-2.247Zm48.6,1.019a.95.95,0,1,0,.935.949A.943.943,0,0,0,2979.351,1285.928Zm-.061,1.957c-.4.287-.573.79-.989,1.05l-1.7-.736,1.023,9.35,4.726-8.835-2.161.368Zm-48.543.306v2.337h5.15v-2.337Zm77.347,1.084a.95.95,0,1,0,.935.949A.943.943,0,0,0,3008.094,1289.275Zm-6.047.108a.95.95,0,1,0,.935.95A.943.943,0,0,0,3002.047,1289.383Zm-71.3,2.2v2.34h5.15v-2.34Zm74.673.521a.95.95,0,1,0,.935.95A.943.943,0,0,0,3005.42,1292.1Zm13.2.075c5.009.163,5.742,1.8,5.771,7.444.024,4.507-1.3,6.268-4.53,7.137a21.885,21.885,0,0,1-6.829-.383c-.021-.386-.643-1.281-.784-1.97a18.86,18.86,0,0,1,3.229.235c1.544.149,1.942-.1,1.454-.411-2.906-.7-4.884-.507-7.677-1.05a4.381,4.381,0,0,0-.714-1.835c.152-.061,4.3.393,6.5.322.965-.04.384-.5-.008-.585-2.555-.371-4.215-.311-6.917-.657a2.611,2.611,0,0,0-.713-1.876s1.367-.013,4.183.031c1.483.023,2.774.086,3.422.063,1.089,0,.989-.517.045-.587-1.151-.13-5.681-.158-5.681-.158a3.972,3.972,0,0,0,.6-2.24s1.174.025,1.921,0c3.63-.138,4.257-.079,4.325-.217.477-.442-.811-.615-2.153-.612-.579,0-1.423.13-1.416-.19a3.347,3.347,0,0,0-.3-1.517,15.219,15.219,0,0,1,6.275-.94Zm-43.181,1.159a.95.95,0,1,0,.935.95A.942.942,0,0,0,2975.442,1293.337Zm35.728.2c.617,0,.812,1.13.232,1.306-.889.269-1.375.057-1.343-.477.017-.3.711-.831,1.111-.829Zm-29.62.98a.95.95,0,1,0,.935.949A.942.942,0,0,0,2981.55,1294.515Zm26.634,1.066c2.117-.019,1.022,2.9-.607,1.848C3006.77,1296.907,3007.338,1295.587,3008.184,1295.581Zm-33.471,2.336c-.043,0-.066.04-.061.148l.489,8.881,5.093-8.3-2.024.763-.87-1.341-1.092.872c-.45.359-1.3-1.005-1.534-1.027Zm31.509.91c.95.134,1.583,1.1.924,1.563C3005.662,1301.05,3004.867,1298.891,3006.222,1298.827Zm-2.28,1.949a.95.95,0,1,0,.935.949A.942.942,0,0,0,3003.942,1300.776Zm3.6.8a.828.828,0,0,1,.39,1.554,1.145,1.145,0,0,1-.9-.031c-.944-.707-.455-1.448.511-1.523Zm-35.018,1.465a.95.95,0,1,0,.935.949A.943.943,0,0,0,2972.521,1303.044Zm71.441,1.19-3.466,1.182v1.664c1.513-.489,2.377-1.737,3.466-2.846Zm-32.483.8c.6.256.764,1.083.247,1.36a1.919,1.919,0,0,1-1.781-.176c-.7-1.139.806-1.463,1.534-1.184Zm-32.677.328a.95.95,0,1,0,.935.95A.943.943,0,0,0,2978.8,1305.365Zm-3.832,1.641a.837.837,0,1,0,.825.837A.83.83,0,0,0,2974.97,1307.006Zm38.878,1.411a.95.95,0,1,0,.936.95A.943.943,0,0,0,3013.848,1308.417Zm-41.891.052-.045,8.39,5.512-6.867-1.913.422-.817-1.7-1.179.779Zm34.99,1.932a.95.95,0,1,0,.935.95A.943.943,0,0,0,3006.947,1310.4Zm27.586.033-.905,1.565,2.565-1.445Zm-23.853,1.115a.949.949,0,1,0,.935.949A.942.942,0,0,0,3010.68,1311.549Zm3.151,1.024-1.119,1.62-1.473-.481-.435,1.542-1.768-.065,5.745,5.076Zm-44.78.648a.95.95,0,1,0,.935.95A.942.942,0,0,0,2969.051,1313.221Zm85.985,2.28v68.985H3023l-13.449-18.909a25.084,25.084,0,0,1,1.144-10.229c1.315.924,4.2.42,4.1-3.164-.064-2.348-3.628-3.548-5.4-1.783.091-2.268,1-5.677,2.305-6.683.9.827,1.1,2.052,3.125,1.71a2.8,2.8,0,0,0,1.959-3.784,5.12,5.12,0,0,1-.245-1.465,9.686,9.686,0,0,0-.038-1.484,10.2,10.2,0,0,1-.138-1.078c14.974-3.458,28.027-12.659,38.679-22.116Zm-79.437.278a.95.95,0,1,0,.935.949A.942.942,0,0,0,2975.6,1315.779Zm-4.41.927a.95.95,0,1,0,.935.95A.943.943,0,0,0,2971.189,1316.706Zm46.28.457a.95.95,0,1,0,.935.95A.943.943,0,0,0,3017.469,1317.163Zm-49.635,1.013-1.458,8.839,6.368-6.607-1.73-.038-.343-1.508-1.619.531Zm43.294,1.886a.95.95,0,1,0,.935.949A.942.942,0,0,0,3011.128,1320.062Zm4.127,1.031a.95.95,0,1,0,.935.949A.942.942,0,0,0,3015.255,1321.093Zm-51.387,1.152a.95.95,0,1,0,.936.949A.942.942,0,0,0,2963.868,1322.245Zm55.109.717-1.523,1.174-1.4-.869-.329,1.877-1.194.635,5.012,3.565Zm3.7,2.528a.95.95,0,1,0,.935.949A.942.942,0,0,0,3022.681,1325.49Zm-52.888.32a.95.95,0,1,0,.935.949A.943.943,0,0,0,2969.793,1325.81Zm-4.154,1.24a.95.95,0,1,0,.936.95A.942.942,0,0,0,2965.639,1327.05Zm54.646,2.51a.95.95,0,1,0,.935.949A.942.942,0,0,0,3020.285,1329.56Zm-3.921.85a.95.95,0,1,0,.936.949A.942.942,0,0,0,3016.364,1330.41Zm-36.208,1.351a.017.017,0,0,1,.015.008,1.638,1.638,0,0,1,.141,1.418c-.149-.071-.821-.706-.649-.922.08-.1.406-.5.493-.5Zm-21.224,1.489a6.407,6.407,0,0,1,1.1.136,5.249,5.249,0,0,1-.462,1.321,11.866,11.866,0,0,0-.167,9.184c1.945,4.207,7.439,14.16,7.031,15.07l-12.139.051.052-1.874c3.411-.136,3.948-2.253,3.1-4a2.935,2.935,0,0,0-3.753-1.269c-2.181.919-2.316,2.013-3.095,3.71l-.347-.448a3.908,3.908,0,0,0,.82-2.7c-.053-.95-.081-.687.247-1.208a4.588,4.588,0,0,0,.655-4.77c-.226-1.657,5.686-12.226,6.958-13.2Zm-27.76.272c3.452,2.788,6.441,12.181,6.26,12.326a4.105,4.105,0,0,0,.042,5.952,5.518,5.518,0,0,0,.37,2.67c-1.247,2.627-1.467,2.825-1.573,4.983-.024-.008-.216-.025-1.374-.03-5.721-.028-5.988,7.356-.271,7.761.783.056,1.051-.124,1.523.349.479.6.908,1.208,1.726.9a1.579,1.579,0,0,1,.836.5,2.4,2.4,0,0,0,2.485,1.085,5.149,5.149,0,0,1,1.252.318,2.147,2.147,0,0,0,2.05.4,1.213,1.213,0,0,1,.909.027,2.081,2.081,0,0,0,1.977-.1c.767-.4.937.244.9.841a2.648,2.648,0,0,0,1.771,3.151c2.747.861,4.132-.854,4.722-4.255.146-.746.275-1.632.275-1.632l9.2.244-13.2,15.477h-22.991V1333.5c.988-.059,2.128.024,3.117.024Zm82.69,2.77c1.677.656,1.811,1.859.141,1.337a4.994,4.994,0,0,0-6.242,3.24,3.331,3.331,0,0,1-.3.864c-.38.466-.361.041-.249-1.294a4.658,4.658,0,0,1,4.379-4.546,7.218,7.218,0,0,1,2.271.4Zm-.833,1.833a3.023,3.023,0,0,1,2,.7c.629.7.442,1.166-.041,1.142-2.273-.964-5.162.2-6.294,3.114-.694,1.787-.82.829-.512-.554a5.249,5.249,0,0,1,4.848-4.4Zm-15.8.69a3.7,3.7,0,0,0-2.413.662c-.91.874-.153.888,1.5.307a6.119,6.119,0,0,1,3.333.193c.827.291,1.119.413,1.072.152-.043-.786-1.836-1.321-3.489-1.314Zm18.526,2.923c.418.971.148,2.683-1.313,2.856-1.722.2-2.612-2.726.533-2.213-.408-1.172-1.819-.848-2.514-.551-1.42.629-2.387,2.045-3.257,4.646-.258.771-.446,1.174-.545,1.1a4.773,4.773,0,0,1,.137-2.77c.684-2.6,2.352-4.174,4.119-4.224a2.747,2.747,0,0,1,2.84,1.16Zm-24.64-1.129c-.153.035.116.581.534,1.43a4.473,4.473,0,0,1,.39,1.2c0,.461.346.575.858.279.592-.341.686-.6,1.524-.221a2.265,2.265,0,0,0,2.286.26c.391-.231.649-.221,1.405-.019.9.241,1.022.278,1.7-.008a2.3,2.3,0,0,1,2.1.13c.206.234.086-.09.554-1.19.217-.51.527-1.13.442-1.3-.115-.235-.9.024-1.752.252a3.157,3.157,0,0,1-1.787-.167,5.4,5.4,0,0,0-4.21.182c-.653.315-2.29-.119-3.943-.8a.185.185,0,0,0-.1-.019Zm3.671,5.072a2.181,2.181,0,0,0-1.955,1.264c-.4,1.025.285,2.875,1.337,3.034.935.141.9-.439.429-.6-.713-.237-1.552-1.274-1.01-2.174.373-.619,1.5-.615,2.284.148,1.578,1.537,3.387,1.639,3.73.3.1-.533-.3-1.243-.914-1.05a3.138,3.138,0,0,1-2.5-.441,2.54,2.54,0,0,0-1.4-.489Zm16.671,4.883c4.03-.245,2.3,5.342-.03,3.907-.831-.512-.462-2.394,1.746-2.359-2.166-1.713-3.642.373-3.113,2.712a19.031,19.031,0,0,0-.939,3.043c-.491.94-.876-1.523-.381-3.9.479-2.3,1.29-3.313,2.716-3.4Zm-22.794.194c-.832.01.023.919.152,1.027,2.511,2,3.737,3.235,1.718,2.577-3.28-.793-4.125.149-6.623,1.267-.459.223-.589.084-1.141-.082-2.195-.659-2.034.739.259,2,3.463,1.9,6.322,2.334,9.013.907,1.73-.917,1.818-.317.21.7-2.753,1.63-5.651,1.382-10.1-1.43-1.437-.908-1.638-.3-.168.655,3.36,2.06,7.884,3.928,11.579.888.727-.656.872-1,1.431-.713,1.477.748.992-.555-.015-1.783-.356-.434-.619-.784-.6-1.081.084-1.065-.5-1.061-1.026-1.035-.634.032-.564-.184-1.34-1.05-1.134-1.265-2.519-2.618-3.352-2.844Zm-33.536,5.665c-1.4.112-1.715.176-1.375,3.077.064.546.3,2.18.37,2.794.827,7.6.158,10.958-1.928,11.889a2.565,2.565,0,0,1-2.038-.012c-1.32-.536-1.863-2.163-.905-4.1a11.824,11.824,0,0,0,.695-1.794c.125-.466.406-1.487.622-2.271a21.59,21.59,0,0,0,.5-7.572,5.129,5.129,0,0,1,.3-3.3c1.013-1.874,1.668-2.833,3.8-2.857,2.386.255,3.053,3.919-.041,4.151Zm51.279-.166-.652.031c-.786-2.656-2.428-1.8-2.7.067l-.554-.005c.095-3.546,4.465-2.585,3.908-.093Zm-61.3-1.983c4.454.447,5.266,1.57,5.617,7.032.032,2.643-.14,4.238-.54,4.84-.667.325-1.305-.283-2.256.329-.523.324-.423.358-.648.006a5.918,5.918,0,0,1,.378-2.839c.325-1.062-.233-1.68-1.708-3.042a5.326,5.326,0,0,1-1.107-1.612c-.767-2.089-1.156-1.17-.518.632.317.777.39,1.16-.57.825a1.792,1.792,0,0,0-1.493.271c-1.223.316-2.277-.362-1.216-.77a10.155,10.155,0,0,1,2.161-.605c.259,0,.385-.059.385-.182,0-.523-2.356-.466-4.154.162-2.209,1.032-2.336.849-2.132-.757.517-4.071,4.251-4.568,7.8-4.291Zm43.564.355a2.138,2.138,0,0,1,1.978,2.4l-.542-.035c-.255-2.118-2.228-2.208-2.753.163l-.782.019c.5-1.83,1.32-2.511,2.1-2.546Zm13.244.043c.45.27.138,1-.342,1.15-.181.046-.754-.359-.616-.607a2.009,2.009,0,0,1,.958-.543Zm5.1.359a.728.728,0,0,1,.775.59c.018.626-.451.5-.607.441-.311-.293-.428-1.008-.168-1.031Zm-15.616.5c.835.1,1.138,1.165.191,1.232C2991.172,1356.853,2991.152,1355.787,2991.4,1355.532Zm-5.081.116c.1,0-.054.875-.263,1-.413.254-.939-.023-.92-.287.047-.63.8-.721,1.184-.717Zm14.572,2.124a8.189,8.189,0,0,0,5.6.515c.71-.272,1.277-.6,1.276-.289s-.564.806-1.581,1.095a5.225,5.225,0,0,1-5.05-.731c-.407-.31-.548-.6-.249-.59Zm-.657.912c2.58,1.528,4.909,1.68,7.006.566.849-.3.876-.025.874.527-3.778,3.37-8.5-.128-7.88-1.093Zm-63.331,2.327c-.64,1.31-.984,4.536-2.028,5.492C2927.749,1366.088,2932.334,1356.544,2936.906,1361.011Zm44.175-1.069c-.4.215-.046,1.242.588,1.519,5.452,2.381,8.248,2.665,11.349,1.569a3.118,3.118,0,0,0,2.05-2.038c.075-.616-.754-.677-2.206-.023-4.421,1.759-7.2.387-10.765-.976a1.439,1.439,0,0,0-1.016-.051Zm-20.878.073-.019,8.068-5.192-.093.061-1.193,3.886.116-.06-5.762-4.509-.043-.008-1.069,5.841-.024Zm1.207.02,5.18.008.259.821h-5.439v-.829Zm-20.9,2.562a.957.957,0,0,1-1.18.128c-.548-.562.008-1.6.882-1.589s.951.866.3,1.461Zm2.386-1.312c.784,0,1.043.745.447,1.345-.4.373-.61.4-.973.124A.88.88,0,0,1,2942.9,1361.285Zm-5.112.2a.51.51,0,0,1,.519.22c.477.99-1.086,1.674-1.412.938C2936.65,1362.046,2937.257,1361.5,2937.783,1361.485Zm29.295.107.3,1.039-5.971.027v-1.038Zm-21.371.3c.89.109.753,1.018.34,1.422-.71.667-1.4.451-1.218-.445.113-.561.471-.966.878-.977Zm-4.8,2.976c-.314,1.136.356,3.434.156,3.675-.436.524-1.136.255-1.446.076-1.079-.7-1.147-4.826-.1-5.073.671.342,1.122-.269,1.428-.358s.1.473-.034,1.68Zm15.781-1.693a1.081,1.081,0,1,1-1.065,1.081A1.073,1.073,0,0,1,2956.687,1363.174Zm4.722.139h6.108a1.255,1.255,0,0,1,.226,1.225l-6.334.008v-1.233Zm-17.937.141c.279,0,.419.6.232,1.294a8.19,8.19,0,0,0-.088,3.688c.155.509.308.859.218,1-.316.507-1.284.161-1.7-.507-1-1.889-.843-5.412.355-5.138C2942.944,1364.023,2943.2,1363.664,2943.472,1363.454Zm-5.383.475c-.3.478-.085,3.162-.115,3.383-.038.28-.793.135-1.214-.058-1.037-.494-.755-1.747-.553-2.759.226-.8.725-.854,1.34-.927.339-.039.788-.009.542.361Zm8.308.148c.329-.012.375.235.3,1.228a8.56,8.56,0,0,0,.037,2.174c.266,1.558.3,1.981-.087,2.286a1.187,1.187,0,0,1-1.554-.174c-.98-.789-1.045-4.657-.274-4.991.715.18,1.166-.394,1.578-.523Zm21.093,1.17-.877,1.224h-5.207v-1.22l6.081,0Zm-18.567,1.638c.812.009.678,1.468.241,2.383-.371.553-.642.61-1.2.091C2947.333,1368.769,2948.084,1366.881,2948.923,1366.885Zm17.048.408-.733.682-3.817,0v-.678l4.55-.008Z" fill="#131f67"/>
      <path id="path3872-3-7-5" d="M2940.412,1338.183l-6.33-5.038c7.529-.167,15.054.009,22.581.14l-7.517,5.437c-1.539-1.707-2.448-4-4.633-5.107C2942.887,1334.3,2941.775,1336.647,2940.412,1338.183Zm55.209-1.835c-.173-.11-.285-.356-.411-1.165-1.879-8.9-11.114-8.265-11.052-8-.069-.351,11.477-10.934,18.265-19.238,2.052,6.346,8.27,20.844,8.011,20.791,0,0-1.8.015-6.464-.1-4.246,1.946-7.2,3.841-7.061,6.585-.024.966-.254,1.368-.571,1.285A6.874,6.874,0,0,1,2995.621,1336.348Zm21.045-28.549c6.007-.1,7.14-3.074,7.824-3.433,3.946-.659,6.384,1.948,8.113,4.738,2.208,1.349,1.932.1,2.39-2l5.5-1.636-.008,1.778a28.1,28.1,0,0,0-4.217,3.305l-1.673-.1-.96,1.3c-3.819,2.1-7.564,4.6-11.593,6.217,0,0-4.825-6.334-5.376-10.168Zm-74.847.558-.063-35.165c2.485-.178,7.06-.155,7.06-.155,1.913-3.427,4.521-5.038,7.21-7.029a118.352,118.352,0,0,1,.435,12.812c-7.119,8.82-11.074,19.676-6.684,35.9l-2.634-.3Zm39.338,1.971a123.269,123.269,0,0,0,4.254-22.461l13.553-.2.271,4.711Zm46.149-16.013-.252-13.157c9.891-11.995,10.476-22.455,6.808-35.681,3.267.764,4.949,3.349,8.062,6.913V1286.7c-2.163.327-7.526.647-7.526.647-.163,1.608-4.7,5.451-7.094,6.97Zm-41.881-20.736-.6-5.8,17.611-17.075c-1.453,7.4-3.212,15-3.724,22.872Zm-29.22-18.121c-1.257.837-5.89-4.05-6.648-7.336,1.162-1.593,11.358-6.664,11.358-6.664s5.959,7.764,5.716,11c-2.647.714-4.942.918-6.952,3.108C2958.53,1255.672,2958.126,1254.359,2956.205,1255.458Zm-8.042-6.565c1.418.232.509,2.174.291,3.6l-7.494,2.255c2.577-2.232,4.4-4.13,7.2-5.852Zm24.4-17.166c1.541-.047,3.147.6,4.334.112a4.245,4.245,0,0,1,2.3-.261c2.241.7,3.026-1.8,4.454-1.812,1.848,0,2.873-1.308,2.885-3.936.008-1.136.1-1.264.31-1.377a.961.961,0,0,1,1.387.76c1.325,4.84,4.671,9.192,9.948,8.846-4.2,4.347-16.983,17.711-16.983,17.711a130.183,130.183,0,0,0-8.639-20.043Zm54.376-4.171,7.7-5.671,4.608,5.693,3.984-5.42c2.342,1.7,7.667,5.5,7.667,5.5s-15.968.24-23.958-.1Z" fill="#d40000"/>
      <path id="path3870-4-7-1" d="M3031.306,1176.14l-70.775.461,13.754,18.647c14.612-3.02,27.332-1.058,40.534,1.282Zm-1.809.945-4.711,5.941c-1.3-1.2-4.212-.765-3.8,1.853-3.61-1.905-4.375,3.325-1.31,3.111-.385,1.027-3.479,1.3-4.352-.566-3.178,1.807-4.148.054-4.99-1.085,4.038,2.783,6-2.937,1.558-3.259,1.746-3.586-4.482-5.213-4.115-.546-4.108-.946-3.166,4.922-.149,3.72-1.96,2.991-5.175.981-5.826.4-1.652,1.258-4.778,1.3-5.653-.713,4.572.933,4.071-5.178.011-3.771,2.164-4.693-5.036-4.061-3.287-.217-4.1-.158-3.189,4.969.408,4.1-3.2,3.058-5.59.209-6.1.148-1.892,2.119-5.216.958-5.673-.3,3.261,1.308,4.33-4.253.219-3.919,1.053-3.582-4.861-4.016-3.556.052-3.259-.749-3.436,4.548.215,3.724.226,1.45-2.646,2.84-4.413,1.437-1.3.721-2.715,1.842-4.4.183,2.57-.42,2.992-4.828-1.156-3.876.2-2.7-1.333-2.853-3.224-2.166l-3.03-4.165Zm-48.825,6.646c-.225.5-.605.848-.517,1.232a4.782,4.782,0,0,0,.837,1.345c3.542,4.685,10.721,4.528,12.88-.3.441-.9.351-1.1-.179-1.864a1.118,1.118,0,1,1,1.676.073c-1.222,1.562,2.134,5.1,5.486,5.65,4.295.712,8.369-2.355,7.8-5.1-.033-.157-.112-.3-.145-.469-.457-2.3,3.138-1.2,1.844.267-.486.531-.748.689-.683,1.271,1.043,4.87,6.876,5.38,9.654,3.879-3.584,5.934-9.262,1.361-10.261-2.786-5.033,7.376-11.079,5.843-14.449-.639.4.4-6.638,11.619-14.625.12-3.381,9.255-9.545,3-9.123,2.619,2.832,1.6,7.975,1.022,8.47-3.929.068-.611-.388-.649-.652-1.131-1.339-2.447,2.981-2.465,1.985-.233Zm-13.308.608c.641.061.748.332.641.992Zm54.922,1.74-.928,1.182C3021.137,1186.683,3021.131,1186.152,3022.286,1186.079Zm10.089.392c-2.2.094-3.9,3.182-3.79,7.3.053,2,.4,7.009.534,7.754.188,1.042-.017,2.455-.378,2.6-.953.394-1.311.647-1.569,1.109a2.211,2.211,0,0,0,1.294,3.162c1.007.433,2.282-.165,3.146-1.473a7.017,7.017,0,0,0,1.015-2.875,10,10,0,0,0-.045-3.515c-.507-2.909-.131-6.532.855-8.234,1.767-3.052,1.734-5.051-.092-5.681a2.591,2.591,0,0,0-.969-.151Zm-.114.465a1.806,1.806,0,0,1,1.072,3.4,1.877,1.877,0,0,1-1.9-.139c-.756-.444-.653.062.13.639.919.677,1.311.636.817,2.224a19.353,19.353,0,0,0-.451,6.495c.69,4.971.107,7.449-1.954,8.312a1.827,1.827,0,0,1-2.4-1c-.441-1.3.345-2.409,2.285-2.1,0,0,.137-.413-.367-4.728-.7-6-.426-10.192.66-11.656A3,3,0,0,1,3032.261,1186.936Zm17.381,6.188a3.876,3.876,0,0,0-1.9.547s-.071,2.7-.148,3.107c-.436,2.284-.308,2.556.74,2.88,2.544.786,4.632-.927,4.539-3.612A3.175,3.175,0,0,0,3049.642,1193.124Zm.343.361c1.39-.043,2.652,1.607,2.516,3.162a2.768,2.768,0,0,1-3.4,2.549c-.465-.071-.946-.16-1.095-.515-.315-.493.191-.671,1.248-.666,1.157.005,1.372-.156,1.756-.814.761-1.3-.213-2.957-1.455-2.647-.423.106-.485.3.012.442,1.521.7.955,1.668.427,2.061-.627.469-1.666-.173-1.844-.561l.107-2.519a2.623,2.623,0,0,1,1.726-.492Zm-15.674,11.671a4.408,4.408,0,0,0-.859.543,2.1,2.1,0,0,0-.443,2.305c.133.38.112.444-.355,1.062-1.331,1.761-1.5,2.64-.821,4.228.31.721.312.721.019,1.674a37.517,37.517,0,0,1-6.375,11.931,3.415,3.415,0,0,0-.573,1,3.057,3.057,0,0,0,.962-.2c2.732-1.38,5.617-4.053,8.3-5.805-4.241,3.493-8.761,6.618-8.761,6.618l5.772.314c-1.449,1.509-26.759,23.278-20.037,62.323,7.9-1.995,11.577-5.3,15.789-9.13.039,3.147.107,11.614.133,11.614.08-.139-3.656-1.429-2.768,1.693a16.749,16.749,0,0,1-.141,8.494c-.04.1.4.268.359.365s-.6.112-.6.112c-1.435,2.716-5.13,3.311-6.951,3.229-.672-.064-.4.87-.312,1.208.339,1.4,1.927,4.394,4.892,9.2l.779.1-.451.422a20.3,20.3,0,0,0,1.286,1.866l.041.413s1.627,2.3,2.5,3.377c.059.074.2-.1.256-.028.484.591,1.065,1.253,1.557,1.842.039.046-.076.214-.037.257.927,1.026,2.75,3.1,2.75,3.1l.362-.089,1.433,1.639c11.891-5.488,24.317-17.63,24.187-17.6l.1-26.132-14.078-.043-.06-34.617,14.063,14.113-.091-4.05c-3.19-3.078-16.011-16.209-16.011-16.209a14.939,14.939,0,0,1,15.5.384l-.015-3.841a12.345,12.345,0,0,1-8.8-3.166l-2.627-.089c-4.851,3.745-8.281,2.008-11.971,1.271l-2.55-3.727,26.123-.136-.187-9.048-3.967.089-2.577-1.934,2.989,1.283a3.825,3.825,0,0,0-.645-1.446,61.311,61.311,0,0,1-4.878-10.028c-.593-1.742-.592-1.67-.092-2.69a3.694,3.694,0,0,0-.366-4.053c-.638-.673-.618-.817-.409-1.318a1.769,1.769,0,0,0-1.206-2.588c-4.375,1.712-10.245-.051-10.139-.1Zm10.177.721c.873-.008.969.382.966,1.042-.075,1.211-1.627,1.65-2.329,1.818-3.357.78-9.209.318-9.589-1.271-.28-1.168.437-1.816,2.821-1.236C3040.188,1207.065,3042.558,1206.167,3044.488,1205.877Zm-10.834,3.371a1.07,1.07,0,0,1,.886.946,3.761,3.761,0,0,1-.844,2.321c-1.066.843-2.03-.468-1.317-1.9.411-.822.827-1.369,1.275-1.372Zm11.452.167a1.211,1.211,0,0,1,.63.171c.845.606.924,2.707.134,3.01-.806.31-1.553-.542-1.546-1.879,0-.819.3-1.314.782-1.3Zm-2.683.434a1.133,1.133,0,0,1,.542.116c.7.33,1.046,2.533.347,3.236a1.222,1.222,0,0,1-2.046-.616c-.406-1.352.228-2.689,1.157-2.736Zm-5.952.062c1.031.007,1.266,2.335.256,3.294-.844.8-2.134.012-1.729-1.577C3035.2,1210.833,3035.663,1209.967,3036.471,1209.911Zm2.932.372c1.51.262,1.382,4.013-.595,3.639C3037.682,1213.124,3037.712,1210.339,3039.4,1210.283Zm-6.6,4.018,2.134.2c-.056-.033-3.4,7.166-6.382,9.072a57.528,57.528,0,0,0,4.248-9.273Zm12.792.039a104.643,104.643,0,0,0,4.226,10.246c-2.584-2.529-4.875-6.418-6.986-10.068Zm-10.032.326,1.412.015a10.837,10.837,0,0,0,2.241,4.774,21.569,21.569,0,0,0,1.859-4.642l1.123-.016c.429.26-1.321,6.845-3.035,7.646C3037.347,1220.947,3035.817,1216.9,3035.563,1214.666Zm-.6,1.557c-.118.158,2.194,5.8,4.15,7.607a15.357,15.357,0,0,0,3.81-7.06l6.066,8.641-5.914-4.107a30.236,30.236,0,0,1-3.939,5.471,71.309,71.309,0,0,1-4.5-5.905c-2.282,1.716-3.882,3.549-6.845,5.15C3027.808,1226.087,3033.6,1219.679,3034.967,1216.223Zm-.568,6.142,4.126,5.119-10.986-.158Zm8.936.082,6.933,4.844-10.33.108Zm-55.234,2.383a3.926,3.926,0,0,0,.126.492c1.23,5.095,4.624,9.331,9.73,8.828l-16.785,17.031a99.389,99.389,0,0,0-8.387-19.333s1.025.214,1.825.372a4.362,4.362,0,0,0,1.882-.07c.429-.064.758-.35,1.141-.434a3.862,3.862,0,0,1,1.89.252c1.153.221,1.938-.434,3.382-1.728.384-.345.531-.261,1.015-.26,1.81.005,2.964-1.571,2.761-4.015l-.092-1.085-.229,1.221c-.432,2.3-.734,3.293-2.978,3.391-.543.023-.748.394-1.607,1.143-1.2,1.048-2.053,1.138-2.9.728-.87-.418-.95-.172-1.771.225a5.256,5.256,0,0,1-3.543.043c-1.722-.5-1.511-.333-1.511-.333,9.974,18.02,13.478,35.305,13.258,50.658a99.3,99.3,0,0,1-14.469,50.179s1.135-.117,2.146-.268a2.053,2.053,0,0,1,1.344.167,2.457,2.457,0,0,0,1.229.1,9.071,9.071,0,0,1,1.726.085c1.227.179,1.308.015,2.645-1.3,3.793-3.74,3.546-3.6,6.295-3.511,4.124.136,7.421,2.9,8.8,7.374.173.566.4,1.361.432,1.361l-.268-1.186c-1.207-6-6.264-8.2-10.487-8.119l17.82-18.135c-.091.017,4.13,13.8,7.807,19.941a7.075,7.075,0,0,0-3.165-.22,10.945,10.945,0,0,1-3.062-.124c-.9-.023-1.45.246-2.572,1.185a5.991,5.991,0,0,1-1.8,1.24c-2.168.929-3.032,1.89-3.043,4.3,0,.439-.068,1-.061,1.217a.544.544,0,0,0,.011.161c.037,0,.088-.09.13-.153a4.248,4.248,0,0,0,.495-1.607c.3-1.8.674-2.435,2.357-3.235a14.014,14.014,0,0,0,2.04-1.275c1.551-1.255,2.068-1.542,3.327-1.245a5.831,5.831,0,0,0,2.287.139,4.415,4.415,0,0,1,2.433.12c.829.217,1.856.428,1.856.428-17.271-35.2-16.7-67.843.345-100.955,0,0-5.046.06-5.26.194a4.815,4.815,0,0,1-1.363-.128c-1.373-.252-1.072-.083-4.314,3.224-4.006,4.088-10.415.827-12.345-6.034a3.078,3.078,0,0,0-.34-.829,1.915,1.915,0,0,0-.175-.217Zm16.327,4.026c.742.08,1.295.279,1.2.984l-23.787,23.642-.37-1.523Zm5.016.144c-.293.587-1.087,1.322-1.435,1.875l1.294,1.635-.718,1.318-1.989-1.7-3.787,3.793,3.157,3.6-2.989,3.062-1-1.143,1.58-1.678-2.454-2.333-4.325,4.266,3.523,3.635-2.584,2.515-1.031-.992,1.355-1.519-2.3-2.41-4.027,4.169,3.188,3.6-2.463,2.48-1.092-1.123,1.184-1.252-2.279-2.422-4.1,4.108,3.329,3.665-2.447,2.221-.863-.926,1.183-1.291-2.237-2.429-2.546,2.344-.424-1.608,25.188-25.4Zm1.451.375-1.062,2.163-.82-.915,1.069-1.116Zm-59.408.14c-.653.162-15.65,8.641-24.187,17.949l-.026,3.468-.317.415.153,5.367.213.287.073,2.189-.34.578v6.01l.454.077.073,7.355,14.026.039-.016,35.139s-8.235-9.189-14.166-14.613l.023,4.108,15.69,16.453a12.12,12.12,0,0,0-4.6,1.6,17.258,17.258,0,0,0-10.975-2.24l.023,4.185a15.406,15.406,0,0,1,11.052,2.84c3.237-2.227,7.139-3.582,12.956-1.813a39.425,39.425,0,0,0,3.84,5.56l-27.779.21.034,8.475c1.232.025,4.314,0,4.314,0,1.562,3.107,4.633,7.349,5.908,12.686-1.75,2.134-1.61,3.852.092,6-.015.969-.3,2.04.771,3.12,3.534-1.754,7.525-.976,10.5-.08,1.006.3,1.386-.86,1.351-2.325-.089-.838-.085-1.2.55-1.755,1.511-1.33.573-4.063.336-4.123-.088-2.4,7.477-14.4,7.482-14.178l-1.508.554-6.467.03c17.01-16.647,24.119-35.637,22.63-57.08a34.344,34.344,0,0,0-1.16-7.878c-5.991,2.7-10.915,4.667-15.7,9.866l-.317-11.176a2.378,2.378,0,0,0,2.837.341c.544-.361.6-.747.1-2.1-.731-1.969-.9-6.191-.359-7.626a6.161,6.161,0,0,0,.164-1.05c.063-.588-.065-.622-.118-.612.139-.035.724.085.794.023a10.857,10.857,0,0,1,6.925-3.085l.068-1.333c-1.994-5.112-3.683-7.116-5.489-9.974a2.047,2.047,0,0,0-.836-.1l.416-.445c-2.534-4.082-6.14-7.8-9.456-11.323.01-.013,0-.017-.019-.012Zm-.11.694,1.8,1.685a95.467,95.467,0,0,0-25.382,18.639l.114-3.057a107.966,107.966,0,0,1,23.47-17.267Zm55.1,3.057,1.08,1.093-1.5,1.763.974,1.008-.542,1.344-2.489-2.623Zm-53.567.14a1.039,1.039,0,1,1-1.023,1.038A1.031,1.031,0,0,1,2952.915,1233.406Zm73.425,1.433c17.491,19.761,8.509,48.48-14.839,55.379l-.259-1.624c23.556-8.054,29.081-35,13.8-51.937Zm-70.394.132,1.115,1.31c-9.972,4.832-19.7,12.075-29.1,22.526l-.091-2.639a100.012,100.012,0,0,1,28.077-21.2Zm-6.432.4a1.039,1.039,0,1,1-1.023,1.039A1.031,1.031,0,0,1,2949.514,1235.374Zm-3.115,1.953a1.039,1.039,0,1,1-1.023,1.039A1.031,1.031,0,0,1,2946.4,1237.327Zm10.372.682a1.039,1.039,0,1,1-1.023,1.039A1.031,1.031,0,0,1,2956.771,1238.009Zm44.431.717,1.023,1.1-1.622,1.651,2.309,2.449,2.222-2.17-1.115,3.231-19.587,19.872-.408-2.085,1.542-1.573-2.363-2.4-.416-1.6,2.324-2.208.974,1.015-1.359,1.592,2.187,2.186,3.974-3.712-3.279-3.655,2.707-2.658.935.926-1.294,1.353,2.279,2.507,4.077-3.964-3.348-3.593,2.691-2.693,1.02.988-1.356,1.651,2.317,2.275,3.994-4-3.283-3.5Zm-57.857.7a1.039,1.039,0,1,1-1.023,1.038A1.031,1.031,0,0,1,2943.345,1239.424Zm16.132.2.779,1.314c-11.871,6.087-20.081,12.185-32.231,26.2v-1.763a95.014,95.014,0,0,1,31.452-25.746Zm-5.962.155a1.039,1.039,0,1,1-1.024,1.039A1.031,1.031,0,0,1,2953.515,1239.78Zm91.851.4c2.094,1.892,6.492,3.777,9.326,3.577l.076,2.275c-4.943.476-9.261-2.736-9.261-2.736a14.456,14.456,0,0,1-11.723,1.631l-1.554-3.379c5.992,2.819,11.611.129,13.136-1.368Zm-23.657.616a3.519,3.519,0,0,0,.959.888c4.612-1.219,6.048,3.606,3.9,6.363l.615,2.022a5.376,5.376,0,0,1,2.13.857,3.908,3.908,0,0,1,1.6,3.592c.156,1.555-2.136,3-2.26,2.9l-.031,2.224a8.884,8.884,0,0,1,1.917,1.844,3.509,3.509,0,0,1-1.035,4.961,3.573,3.573,0,0,1-2.153.713l-1.065,2.526a2.966,2.966,0,0,1,1.347,2.1,4.036,4.036,0,0,1-1.889,3.941,5.1,5.1,0,0,1-3.665.1l-1.512,1.535a5.253,5.253,0,0,1,.29,2.9,3.758,3.758,0,0,1-4.1,2.542,4.042,4.042,0,0,1-2.2-1.046l-1.676.651c.047,0,.025,2.154-.821,2.813a11.068,11.068,0,0,1-1.21.9l-.221-1.484a2.918,2.918,0,0,0,.943-2.523l3.619-1.8a3.553,3.553,0,0,0,1.668,1.248,2.384,2.384,0,0,0,2.844-2.108,8.1,8.1,0,0,0-.55-1.879l3.073-3.228c1.272.443,2.164.519,2.733.186a2.553,2.553,0,0,0,1.157-2.709,3.693,3.693,0,0,0-1.111-1.608l1.714-4.4a3.089,3.089,0,0,0,1.916-.543,2.4,2.4,0,0,0,.565-3.274,2.475,2.475,0,0,0-1.691-1.1l.126-4.568c0,.037,1.734-.846,1.921-1.864.274-1.5-.349-2.455-2.165-2.88-1.007-.235-.954-.038-.954-.038l-1.436-4.135c2.275-1.408,1.554-3.647.4-4.4a3.538,3.538,0,0,0-2.932-.058s-.782-.788-1.374-1.422Zm-60.873.837a48.544,48.544,0,0,1,5.44,9.785,5.433,5.433,0,0,1,.031.969c-4.036.356-5.422,1.962-6.857,3.092-1.112-.58-1.58-1.259-3.592.019-.008.06-5.128-3.144-6.108-7.494a114.9,114.9,0,0,1,11.086-6.371Zm-20.488.027a1.039,1.039,0,1,1-1.023,1.039A1.031,1.031,0,0,1,2940.348,1241.659Zm9.7.206a1.039,1.039,0,1,1-1.023,1.038A1.031,1.031,0,0,1,2950.048,1241.865Zm70.012,1.275c1.764,2.356,4.422,6.811,5.055,10.757.889,5.549.3,11.371-2.211,15.442-4.548,8.7-12.436,10.548-12.441,10.85l-.08-1.782c.075.4,6.029-2.146,10.082-7.894a23.008,23.008,0,0,0,3.439-13.807c-.3-6.26-4.678-12.034-4.714-12.055Zm-82.9.848a1.039,1.039,0,1,1-1.023,1.039A1.031,1.031,0,0,1,2937.157,1243.988Zm9.688.016a1.039,1.039,0,1,1-1.023,1.038A1.031,1.031,0,0,1,2946.845,1244Zm87.352,1.751c2.27.25,5.046,4.428,7.573,6.813l.027,34.062-7.547.155c-.983,2.4-3.263,4.764-6.9,7.1v-12.765c12.385-13.467,9.015-28.208,6.845-35.368Zm-99.819.388a1.039,1.039,0,1,1-1.023,1.038A1.031,1.031,0,0,1,2934.378,1246.143Zm9.326.186a1.039,1.039,0,1,1-1.023,1.038A1.031,1.031,0,0,1,2943.7,1246.329Zm95.814.081,15.43,15.791-.054,2.317-17.388-17.933Zm-90.157,1.484.409,1.984c-.5-.8-.518-1.089-1.382-1.228Zm-8.353.578a1.039,1.039,0,1,1-1.023,1.038A1.031,1.031,0,0,1,2941.008,1248.472Zm-9.241.29a1.039,1.039,0,1,1-1.024,1.039A1.031,1.031,0,0,1,2931.767,1248.762Zm86.812,0,3.046,2.19-.992,3.949-3.119-2.845Zm-70.4.322.542.326-.63,2.7-7.013,2.57a52.851,52.851,0,0,1,7.1-5.6Zm1.149,1.256a36.306,36.306,0,0,0,2.905,7.469c-.9.472-4.136,2.33-4.127,3.2.456,1.566,3.875,3,3.875,3a39.553,39.553,0,0,0-3.535,7.537c-.584-1.01-.652-4.99.607-6.646a16.02,16.02,0,0,1-4.23-2.8c.832-2.99,4.38-4.775,4.535-4.8-.062.151-1.047-6.244-.03-6.955Zm-11.384.5a1.039,1.039,0,1,1-1.023,1.039A1.031,1.031,0,0,1,2937.947,1250.843Zm78.1.086c4.552,8.608,1.845,16.086-5.417,21.444l.168-2.03c5.01-3.69,8.255-10.954,4.6-17.88Zm-86.748.248a1.039,1.039,0,1,1-1.023,1.038A1.031,1.031,0,0,1,2929.3,1251.177Zm72.818.054a105.33,105.33,0,0,0-3.646,21.859l-12.967.112-.5-4.557Zm-51.807.349s2.813,2.65,5.337,4.964l-.3.6-2.455.333A48.781,48.781,0,0,1,2950.315,1251.58Zm-2.328,1.387.019,0,.156,1.883c-.842-.032-9.962,3.835-16.968,10.009a21.989,21.989,0,0,1,4.508-5.184c3.623-3.61,12.285-6.712,12.285-6.712Zm-12.964.43a1.039,1.039,0,1,1-1.023,1.039A1.031,1.031,0,0,1,2935.023,1253.4Zm5.741,1.182.519.542-2.42,1.271Zm16.873.554a.6.6,0,0,1,.1,0,1.264,1.264,0,0,1,.745.411,5.352,5.352,0,0,0-1.382-.132.756.756,0,0,1,.534-.283Zm-9.261.391.222,1.407c-5.248,3.028-11.49,5.89-20.572,14.606v-2.9a65.334,65.334,0,0,1,20.35-13.114Zm7.059.132a1.826,1.826,0,0,0,.916.012s-.19.382-.416.391-.5-.4-.5-.4Zm2.225.082c.66-.042,1.111.571.978,1.36a16.775,16.775,0,0,0,.057,7.273c.425,1.475.532,1.994.18,2.24-3.093,2.165-4.789-7.6-2.207-10.366a1.626,1.626,0,0,1,.993-.507Zm-25.26.341a1.039,1.039,0,1,1-1.023,1.038A1.031,1.031,0,0,1,2932.4,1256.079Zm88.9.24,1.924,3.274-2.68,3.046-1.63-3.538Zm-66.21,1.778-.1,1.131a9.867,9.867,0,0,0-3.622,1.923c-.2.174,3.2,1.732,3.558,1.372l-.008,1.205c-.047.4-5.624-1.4-6-2.744.632-.892,4.16-2.967,6.173-2.887Zm-25.378.6a1.039,1.039,0,1,1-1.023,1.039A1.031,1.031,0,0,1,2929.709,1258.7Zm15.21,1.193a8.252,8.252,0,0,0-1.095,2.885c-3.826,2.355-7.749,4.555-12.523,9.958l-2.573-.016-.058-.686a70.55,70.55,0,0,1,16.248-12.141Zm9.855.326.027,1.422a3.823,3.823,0,0,1-2.039-.624,3.719,3.719,0,0,1,2.012-.8Zm28.788.151.717.764-.446.426Zm-38.763,2.957,1.417.9a39.31,39.31,0,0,0-10.807,8.514H2932.6c3.543-3.9,7.36-7.4,12.2-9.409Zm75.555,1.027.283,3.867-3.558,1.98.069-4.08Zm-67.66.015,2.447.272.252,1.05a38.592,38.592,0,0,0-5.547,4.495,22.09,22.09,0,0,1,2.848-5.817Zm-5.868.415,1.05.492-.416,1.818a27.468,27.468,0,0,0-7.944,5.642h-2.878a41.065,41.065,0,0,1,10.189-7.952Zm9.1,1.709c.009,0,.012,0,.011,0l.382,11.92c-10.569,12.559-9.995,24.7-6.913,35.72l-2.016-.093a71.965,71.965,0,0,0-5.459-5.964l-.008-34.674,7.287.027c1.719-4.035,6.445-6.908,6.715-6.94Zm-8.6,1.674.087,1.589a21.108,21.108,0,0,0-3.886,2.98h-2.737C2942.683,1270.946,2944.561,1269.147,2947.327,1268.165Zm24.847.779.4,1.875c-24.532,9.008-28.965,35.194-14.487,53.17l-.985,1.116C2940.478,1306.983,2947.775,1277.381,2972.174,1268.944Zm-24.653,1.875s.134,1.437.176,1.915h-2.749A4.812,4.812,0,0,1,2947.521,1270.819Zm69.035.6-1.58,3.74-4.219.065,1.917-3.739Zm-26.7,2.561h3.844v3.728h-3.844Zm-16.636.369.064,1.639c-1.707.882-1.277,2.285-1.706,2.263a29.145,29.145,0,0,0-3.818,1.759,2.4,2.4,0,0,0-2.92-.236,2.9,2.9,0,0,0-.8,3l-2.935,3.484c-1.418-.615-2.8-.577-3.49.383-.776,1.083-.482,2.427.8,3.933l-1.6,4.166c-.185-.249-2.861.548-2.9,2.162-.038,1.709,2.213,2.823,2.211,2.953l-.107,4.6c-.1-.221-2.3.689-2,2.891.274,2.027,2.994,1.78,3.051,1.949l1.477,4.4c-.1-.134-2,1.757-.836,3.546.972,1.491,3.795.526,3.771.43l.783,1.12-.867.953s-.374-.455-.584-.414a4.207,4.207,0,0,1-4.359-1.4c-1.2-1.879.139-4.814.565-4.79l-1.016-2.534a3.736,3.736,0,0,1-3.5-3.12,4.382,4.382,0,0,1,2.21-4.154l.069-2.743a3.989,3.989,0,0,1-2.3-3.248,4.482,4.482,0,0,1,2.5-3.53c.394-.188,1.008-.484,1.008-.484l.92-2.248a5.98,5.98,0,0,1-.966-3.836c.627-2.916,4.371-2.716,4.963-2.434l1.737-2.209a3.592,3.592,0,0,1,2.554-4.735,13.824,13.824,0,0,1,3.263.438l2.226-1.166c-.038-1.235,1.289-2.039,2.52-2.79Zm12.654,4.08h3.295v3.728h-3.295Zm8.777,0h3.714v3.728h-3.714Zm-21.164.934-.043,1.426c-21.268,10.468-12.57,32.141-9.536,34.662l-.683,1.531c-3.732-2.3-13.353-27.313,10.261-37.619Zm16.369,3.774h4l.034,3.833h-4ZM2972.56,1285l-1.267,3.492-3.906.333,1.443-3.484Zm79.8,2.554,2.672.015c-5,5.932-10.387,9.974-15.709,12.187a2.755,2.755,0,0,1,.146-.945,2.908,2.908,0,0,0-.081-1.166,38.032,38.032,0,0,0,12.972-10.091Zm-13.694.05a8.642,8.642,0,0,1-2.446,2.126l-.386-2.161C3036.651,1287.562,3038.666,1287.606,3038.666,1287.606Zm4.7-.046c.27.69-7.014,4.682-7.04,4.342l.02-1.327,3.93-2.961Zm1.573,0h.015l2.05.011c-1.852,2.965-11.645,8.348-11.238,7.59l.4-2.168a44.313,44.313,0,0,0,8.778-5.433Zm3.454,0,2.7.011c-4.058,5.232-8.175,7.141-12.124,9.392a1.839,1.839,0,0,0-.87-.1l-1.35-1.069C3037,1296.025,3045.826,1290.774,3048.4,1287.56Zm-75.475.186-.091,1.581c-5.677,4.956-7.955,11.288-5,18.639l-.7,1.569c-3.177-7.843-2.239-15.464,5.794-21.789Zm25.852.248.3,4.266-17.625,17.415a128.8,128.8,0,0,0,4.145-21.658Zm56.441,1,.008,2.368c-6.948,7.77-13.952,11.252-20,12.66l-.138-.911,2.8-1.751c9.029-3.992,12.983-8.012,17.331-12.366Zm-21.089.064c.122,1.711-1.379,4.941-3.094,6.764l-2.94-.008-.324-1.294a18.922,18.922,0,0,0,6.358-5.462Zm.887.51c1.08,1.763-.54,6.327-.607,6.146-.129.314,9.234,2.324-.385,7.025.209,1.382,1.111,4.331.416,6.154-.217-.7-1.891-5.431-3.184-6.642,3-.869,5.166-2.734,4.932-3.348-.488-.874-1.833-1.949-4.1-2.736a16.831,16.831,0,0,0,2.924-6.6Zm-68.771.864.3,3.6-3.42,2.089-.264-3.949Zm59.506,3.34a.917.917,0,0,1,.642.21c1.689.694,1.811,9.06.278,9.912a1.212,1.212,0,0,1-1.859-.636,25.227,25.227,0,0,0-.03-8.92c.032-.391.524-.572.969-.566Zm29.467.124v2.976c-9.933,10.452-20.636,18.69-31.563,23.317l-1-1.717A99.273,99.273,0,0,0,3055.215,1293.9Zm-1.745.272c-4.6,6.5-10.206,10.745-17.884,12.671l-.145-1.844C3045,1302.792,3053.719,1294.171,3053.47,1294.171Zm-125.212,1.054c5.992,6.217,12.132,12.381,18.232,18.763l-2.424.128-15.881-16.725Zm71.333.31.214,1.534-1.745,1.942,2.756,3.007.142.709-2.367,2.511-1.069-1.074,1.309-1.492-2.221-2.371-4.119,4.022,3.393,3.74-2.561,2.472-1.008-1.058,1.309-1.534-2.275-2.438-4.2,4.239,3.176,3.562-2.119,2.379-1-1.073,1.089-1.268-2.3-2.406-4.035,3.945,3.321,3.728-2.7,2.728-1.046-1.031,1.515-1.674-2.489-2.406-2,1.914s.753-1.9.863-2.221c.161-.472.822-.845,5.02-5.049,5.01-5.062,10.148-9.806,15.147-15.337Zm28.738,1.023a14.136,14.136,0,0,1,5.165,1.03c2.244,1.2,1.538,2.147.08,2.852a11.651,11.651,0,0,1-5.142,1.314l.057-.98a13.247,13.247,0,0,0,3.341-1.132,2.34,2.34,0,0,0,.874-.7,5.15,5.15,0,0,0-1.756-1.1,13.74,13.74,0,0,0-2.531-.391Zm-65.538,1.294,1.843,2.8-2.183,3.717-2.1-3.205Zm37.193.3c.065.529.724,2.584.378,2.186l-1.225-1.4Zm28.459.275a8.627,8.627,0,0,1,2.837.485,5.836,5.836,0,0,1-2.818,1Zm25.581,1.4a1.132,1.132,0,1,1-1.115,1.132A1.124,1.124,0,0,1,3054.024,1299.832Zm-57.529,1.961.95.934-1.229,1.453,2.23,2.383,2.76-2.623.366,1.666-25.86,25.827-1.435-.1,1.645-1.973-1.87-1.941.767-1.4,2.207,1.992,4.042-3.926-3.275-3.5,2.8-2.918,1.057.926-1.607,1.767,2.34,2.426,4.23-4.224-3.31-3.654,2.642-2.558.969.934-1.229,1.322,2.413,2.549,3.565-3.766-3.245-3.627,2.882-2.848.886.9-1.328,1.5,2.424,2.546,3.89-4.057-3.2-3.526Zm54.941.674a1.132,1.132,0,1,1-1.115,1.132A1.123,1.123,0,0,1,3051.436,1302.467Zm-21.019.051a12.327,12.327,0,0,1,3.023,6.928,20.956,20.956,0,0,0-5.527-5.743l.4-1.05Zm24.8.17v2.527a84.954,84.954,0,0,1-27.108,20.526l-1.66-2.05C3038,1318.458,3046.351,1311.959,3055.215,1302.688Zm-11.525,1.763-3.176,2.5v-1.085l3.18-1.419Zm-16.369.186a12.925,12.925,0,0,1,6.322,6.96,119.56,119.56,0,0,1-11.6,6.153,54.243,54.243,0,0,1-5.184-9.771c5.955-.045,7.589-3.347,7.63-3.373,1.436.551,1.736.617,2.837.031Zm21.4.492a1.146,1.146,0,0,1,1.13,1.089,1.115,1.115,0,1,1-2.229,0c.12-.78.609-1.1,1.1-1.089Zm-8.242.744.008,1.093c-1.521,1.353-4.474,3.542-4.474,3.542l-1.222-.066.4-3.1a47.449,47.449,0,0,0,5.291-1.469Zm-77.788.128,2.916,2.434-.893,3.774L2961.84,1310Zm39.167.713.271,1.093-23.963,24.045-1.362-.225Zm44.206.93a1.132,1.132,0,1,1-1.115,1.132A1.123,1.123,0,0,1,3046.061,1307.644Zm8.849-.008c.131,0,.286-.009.286.117v2.08a1.083,1.083,0,0,1-.374.066,1.052,1.052,0,0,1-1.027-1.131A1.124,1.124,0,0,1,3054.91,1307.636Zm-2.7,2.523a1.132,1.132,0,1,1-1.114,1.131A1.123,1.123,0,0,1,3052.205,1310.159Zm-9.366.012a1.132,1.132,0,1,1-1.115,1.131A1.122,1.122,0,0,1,3042.839,1310.171Zm-8.059.348,1.145.039-2.13,1.287a9,9,0,0,0,.985-1.326Zm20.431.53.015,2.326a89.294,89.294,0,0,1-22.985,16.892l-1.349-1.386a86.341,86.341,0,0,0,24.319-17.832Zm-15.564,1.268a1.132,1.132,0,1,1-1.115,1.132A1.124,1.124,0,0,1,3039.647,1312.317Zm9.91.086a1.132,1.132,0,1,1-1.114,1.131A1.123,1.123,0,0,1,3049.557,1312.4Zm-111.011,4.541c3.781-2.228,6.822-2.489,11.154-1.817l1.294,2.592c-4.218-.759-8.663-.691-12.464,2.286-3.938-2.526-6.93-3.255-10.164-2.844l-.059-2.733a14.344,14.344,0,0,1,10.239,2.516Zm98.028-2.464a1.132,1.132,0,1,1-1.115,1.131A1.123,1.123,0,0,1,3036.574,1314.48Zm10.193.465a1.132,1.132,0,1,1-1.115,1.131A1.123,1.123,0,0,1,3046.767,1314.945Zm-13.545,1.689a1.132,1.132,0,1,1-1.114,1.132A1.124,1.124,0,0,1,3033.222,1316.634Zm10.393.656a1.132,1.132,0,1,1-1.115,1.132A1.123,1.123,0,0,1,3043.615,1317.29Zm-13.828,1.344a1.147,1.147,0,1,1-1.131,1.147A1.138,1.138,0,0,1,3029.787,1318.634Zm10.849.949a1.132,1.132,0,1,1-1.115,1.131A1.123,1.123,0,0,1,3040.636,1319.583Zm-14.152.783a1.132,1.132,0,1,1-1.114,1.131A1.123,1.123,0,0,1,3026.484,1320.366Zm-49.279,1.023,2.771,2.577-2.867,2.921-1.049-1.023,1.595-1.693-1.08-1.476Zm60.355.25a1.132,1.132,0,1,1-1.115,1.132A1.124,1.124,0,0,1,3037.56,1321.639Zm-3.209,1.916a1.132,1.132,0,1,1-1.115,1.131A1.123,1.123,0,0,1,3034.351,1323.555Zm-3.488,1.922a1.132,1.132,0,1,1-1.115,1.131A1.123,1.123,0,0,1,3030.863,1325.477Zm-57.327,3.2.905.748-1.42,1.736-1.084-.016Zm-17.511,4.681a27.369,27.369,0,0,0-6.863,4.538l-3.157-4.445Zm-21.5.031,8.414.12-2.8,4.019A17,17,0,0,0,2934.529,1333.39Zm10.021.438c.912.294,3.3,3.746,4.421,5.63,2.393-1.931,4.736-4.09,7.291-5.25a57.349,57.349,0,0,0-7.6,9.885c-.539-1.469-2.036-5.675-3.932-7.5a17.524,17.524,0,0,0-4.173,6.254,54.238,54.238,0,0,0-5.787-8.176c-.371-.508,2.727,1.446,5.795,4.475.864-2.208,3.175-5.229,3.989-5.316Zm-10.1,2.17c1.445,1.165,5.374,6.281,5.826,9.358l-1.882.12c-1-3.16-2.682-6.318-3.943-9.478Zm20.924.523c-1.423,2.962-3.188,5.987-4.455,9.265l-1.859-.081C2951.091,1341.188,2951.833,1340.361,2955.369,1336.521Zm-10.662,1.318a.061.061,0,0,1,.045.011,17.8,17.8,0,0,1,3.127,7.723l-1.367-.054a26.484,26.484,0,0,0-1.607-3.933c-.423-.627-.763-.547-1.061-.027a17.1,17.1,0,0,0-1.306,3.8l-1.573-.116c-.29-2.194,3.19-7.345,3.742-7.4Zm-.249,8.436c.64.009,1.308.711,1.3,1.946.05.579-.394,1.863-.874,1.929-.891.479-1.945-1.012-1.68-2.256.227-1.06.689-1.626,1.253-1.619Zm-3.094.233c1.263.114,1.534,2.989,1.023,3.577a1.5,1.5,0,0,1-2.289-.853c-.507-1.3.417-2.711,1.266-2.724Zm6.225-.016c1.375.2,1.029,3.351.318,3.815-1.107.594-1.949-.4-1.576-1.882C2946.632,1347.23,2947.08,1346.52,2947.589,1346.492Zm3.18.523c1.575.178.665,2.957-.023,3.523-1,.79-1.965-.391-1.485-1.8.371-1.094.989-1.728,1.508-1.72Zm-12.715.085c1.146.186,1.81,2.818,1.128,3.57-.356.431-1.392-.2-1.866-.919C2936.748,1348.885,2937.28,1347.1,2938.054,1347.1Zm12.2,5.733c.136,1.382-.891,1.381-3.85.707a17.128,17.128,0,0,0-5.5.124c-2.279.42-2.6.26-2.6-.682.008-1.092,1.282-1.712,4.237-1.8C2944.66,1351.112,2949.924,1351.091,2950.252,1352.833Zm4.6-.812c-3.525.337-4.462,4.82-4.074,6.476a21.936,21.936,0,0,1-.347,7.571,23.581,23.581,0,0,1-1.317,4.065c-.927,1.874-.688,3.264.687,4.011a2.778,2.778,0,0,0,3.39-.546c1.574-1.718,1.762-5.363.8-13.633-.34-2.918-.158-3.5,1.237-3.336,2.927-.023,2.81-4.6-.374-4.608Zm-.424,3.767c-.788-.309-1.323.417-1.218,2.228a24.259,24.259,0,0,0,.267,2.426c1.14,7.935.714,13.25-1.687,13.512-2.09.34-3.5-1.221-2.485-2.836.577-.915,1.075-1.039,2.2-.558,1.544.972,1.157-.444-.233-1.488-.892-.641-.96-.641-.481-2.643a23.307,23.307,0,0,0,.626-8.045c-.333-2.416.462-5.622,3.493-5.811a1.693,1.693,0,1,1-.481,3.215Zm-21.634,10.451a3.367,3.367,0,0,0,2.917.008,18.648,18.648,0,0,1,1.511-5.384,3.7,3.7,0,0,0-5.881.834,3.337,3.337,0,0,0,1.453,4.542Zm2.989-5.856c1.13.243.96,1.447-.1,1.055-2.533-1.211-4.6,2.433-2.554,3.805,1.044.593,1.505.252.47-.562-.424-.495-.317-.7-.061-1.193.531-1,2.461-.84,2.325-.113-.439,2.309-.729,2.975-1.412,2.98-3.935.206-4.676-7.27,1.336-5.972Zm33.422,4.151s-11.72,13.451-17.365,20.34l70.756-.333-13.464-18.856C2997.584,1368.391,2984.013,1367.61,2969.207,1364.534Zm-.351,4.3c1.767.02,3.778,1.323,5.516,5.666.094.041,7.782-11.85,14.438.461,1.086-2.764,7.355-9.973,14.6-.721,2.574-6.191,8.51-4.1,9.066-1.937-.125-.465-5.656-1.8-8.051,2.3a1.817,1.817,0,0,0,.042,2.182,1.186,1.186,0,1,1-1.66.176c1.2-.911-1.261-3.742-3.287-4.76-2.78-1.4-6.659-.781-8.523,1.225a6.482,6.482,0,0,0-1.763,2.822.764.764,0,0,0,.181.788c.809.99.275,2.346-.819,2.181-1.434-.215-1.242-1.576-.284-2.319.294-.147.183-.322.095-.576-2.618-7.481-12.373-6.056-13.427-.875a1.4,1.4,0,0,0-.08.579c.109.495.4.913.285,1.3a1.263,1.263,0,0,1-2.5-.184c-.04-.6.6-.78.909-1.327a1.263,1.263,0,0,0,.094-1.144c-2.644-5.621-7.181-4.445-9.433-3.175-.047.027,2.013-2.7,4.6-2.67Zm-2.932,3.259a3.35,3.35,0,0,1,2.669,1.415c2.77-1.487,4.74,1.088,4.412,1.337-3.923-2.585-5.2,3.437-1.331,3.209-1.7,3.567,4.369,5.095,3.687.537,3.744,1.326,4.362-3.892.569-3.814,1.226-2.153,4.407-1.561,5.752-.211,1.582-1.961,5.467-.091,5.853,1.585-4.357-2.266-4.8,4.658-.577,3.185-1.249,4.407,5.458,3.78,3.6-.02,4.178,1.4,3.609-4.943-.5-3.658-.249-.328,3.246-3.992,5.788-.55.343-.606,4.311-2.592,6.482.527-4.7-1.615-3.814,4.812-.443,3.534-.9,4.258,5.18,3.567,3.626-.062,4.713,1.21,2.626-6.077-.686-3.387.54-2.929,4.5-1.715,4.458-1.263,0,0,2.1-2.309,4.459-.62-3.681.314-2.428,5.352,1.049,3.918a2.314,2.314,0,0,0,3.257,2.263l2.974,4.22-67.829.434,5.418-6.556c1.813,1.52,3.691.8,3.923-1.583,3.945,2.455,4.969-3.377,1.268-3.63a4.027,4.027,0,0,1,2.115-.81Zm-3.791,1.9c.235.168-.084.979-.6.744Zm52.887,1.694c.2.292.345.482.546.775C3015.663,1376.715,3014.509,1376.315,3015.02,1375.679Z"/>
      <path id="path163-0-2-5-8-7-5-6-5-5" d="M2950.268,1220.771s-3.716-6.1-8.73-13.282c-3.353-4.8-6.035-10-6.284-14.484-.286-5.118,2.421-10.252,7.32-10.5s6.885,3.946,7.694,7.4c.809-3.458,2.8-7.652,7.694-7.4s7.606,5.383,7.32,10.5c-.249,4.48-2.931,9.681-6.284,14.484-5.014,7.177-8.73,13.282-8.73,13.282Z" fill="#d40000"/>
      <path id="path163-0-2-5-8-7-7-8-9-1-8" d="M3032.724,1340.724s-3.716,6.1-8.729,13.282c-3.354,4.8-6.035,10-6.285,14.484-.286,5.117,2.421,10.251,7.321,10.5s6.884-3.946,7.693-7.4c.809,3.458,2.8,7.653,7.694,7.4s7.606-5.383,7.32-10.5c-.249-4.48-2.93-9.681-6.284-14.484-5.013-7.178-8.73-13.282-8.73-13.282Z" fill="#d40000"/>
    </g>
  </g>
</svg>
