<svg xmlns="http://www.w3.org/2000/svg" xmlns:xlink="http://www.w3.org/1999/xlink" width="179.79" height="250.65" viewBox="0 0 179.79 250.65">
  <defs>
    <clipPath id="clip-ks">
      <rect width="179.79" height="250.65"/>
    </clipPath>
  </defs>
  <g id="ks" clip-path="url(#clip-ks)">
    <g id="ac" transform="translate(-374.611 -873.972)">
      <rect id="rect6355-6-85-9-3-2" width="177.785" height="248.651" rx="8.504" transform="translate(375.611 874.972)" fill="#fff" stroke="#000" stroke-width="0.997"/>
      <path id="path147-0-8-1-6-1-1-0-9-1-8" d="M464.5,980.491c-7.82.17-11.326,8.974-5.535,15.811.84,1,.926,1.569-.612.611-3.9-2.607-11.375-.893-11.758,7.078-.473,9.822,13.25,12.652,15.827,2.208.136-1.1,1.031-1.077.816.487a32.5,32.5,0,0,1-3.383,12.082h9.3a32.5,32.5,0,0,1-3.383-12.082c-.216-1.564.679-1.589.816-.487,2.576,10.444,16.3,7.614,15.826-2.208-.382-7.971-7.859-9.685-11.758-7.078-1.538.958-1.451.386-.611-.611,5.791-6.837,2.284-15.641-5.535-15.811H464.5Z"/>
      <path id="path147-6-9-8-7-0-5-0-8-3" d="M539.686,1083.773c3.128-.071,4.53-3.739,2.214-6.588-.336-.415-.371-.654.245-.255,1.559,1.087,4.55.373,4.7-2.949.189-4.092-5.3-5.271-6.331-.92-.054.46-.413.449-.326-.2a13.977,13.977,0,0,1,1.353-5.034h-3.718a13.977,13.977,0,0,1,1.353,5.034c.086.652-.272.663-.326.2-1.031-4.351-6.52-3.172-6.331.92.153,3.322,3.143,4.036,4.7,2.949.615-.4.581-.16.245.255-2.317,2.849-.914,6.517,2.214,6.588h0Z"/>
      <path id="path41-6-3-5-1" d="M381.285,912.323v-2.251h2.144L388,886.007h2.6l5.032,24.065h1.731v2.251h-5.9v-2.251h1.592l-.636-3.687h-5.952l-.46,3.687H387.6v2.251Zm10.624-8.565-2.588-12.881L386.9,903.758Z"/>
      <path id="path41-6-4-0-2-8" d="M531.646,1086.273v2.251h2.144l4.568,24.065h2.6l5.032-24.065h1.731v-2.251h-5.9v2.251h1.593l-.636,3.687h-5.953l-.459-3.687h1.592v-2.251Zm10.624,8.565-2.588,12.881-2.424-12.881Z"/>
      <path id="path147-6-9-8-7-4-5-6-8-9" d="M389.322,914.823c-3.127.07-4.53,3.739-2.213,6.588.336.415.37.654-.245.255-1.56-1.087-4.55-.373-4.7,2.949-.19,4.092,5.3,5.271,6.33.92.055-.459.413-.449.327.2a13.973,13.973,0,0,1-1.354,5.034h3.719a13.972,13.972,0,0,1-1.353-5.034c-.087-.652.271-.662.326-.2,1.031,4.351,6.52,3.172,6.331-.92-.153-3.322-3.144-4.036-4.7-2.949-.615.4-.58.16-.244-.255,2.316-2.849.914-6.517-2.214-6.588h0Z"/>
    </g>
    <g id="ks-2" data-name="ks" transform="translate(-2901.604 -1436.871)">
      <rect id="rect7467-2-2" width="177.785" height="248.651" rx="8.504" transform="translate(2902.604 1437.871)" fill="#fff" stroke="#000" stroke-width="0.997"/>
      <path id="path7499-2-5" d="M2916.316,1477.722c-3.433,4.371-7.106,6.887-7.167,10.3a3.311,3.311,0,0,0,2.742,3.341,2.848,2.848,0,0,0,3.269-2.746c-.008-.4.471-.387.467.158a10.423,10.423,0,0,1-1.56,4.9h4.5a10.435,10.435,0,0,1-1.559-4.9c-.008-.545.472-.555.466-.158a2.849,2.849,0,0,0,3.269,2.746,3.312,3.312,0,0,0,2.743-3.341c-.062-3.411-3.734-5.927-7.167-10.3Z"/>
      <path id="path7503-7-0" d="M3066.677,1646.672c-3.433-4.372-7.106-6.888-7.167-10.3a3.309,3.309,0,0,1,2.742-3.341,2.848,2.848,0,0,1,3.269,2.745c-.008.4.472.387.467-.157a10.419,10.419,0,0,0-1.56-4.9h4.5a10.419,10.419,0,0,0-1.56,4.9c-.008.544.472.554.467.157a2.848,2.848,0,0,1,3.268-2.745,3.309,3.309,0,0,1,2.743,3.341c-.061,3.41-3.734,5.926-7.167,10.3Z"/>
      <path id="path39-5-1-0" d="M2916.95,1472.323h2.644l-3.884-9.717-2.968,4.1.021,5.613h2.084v2.894H2907.5v-2.894h2.419v-20.9l-2.419.01v-2.53h7.451v2.615H2912.9l-.044,10.185,6.5-10.27h-2.3v-2.53h7.928v2.53H2922.9l-5.355,8.393,5.243,12.5h2.328l.012,2.894h-8.152l-.025-2.9Z"/>
      <path id="path39-5-7-0-0" d="M3066.041,1652.071H3063.4l3.884,9.717,2.967-4.1-.021-5.612h-2.084v-2.9h7.345v2.9h-2.42v20.9l2.42-.009v2.53h-7.452v-2.616h2.056l.044-10.184-6.5,10.27h2.3v2.53H3058v-2.53h2.092l5.355-8.393-5.243-12.5h-2.328l-.012-2.894h8.152l.025,2.9Z"/>
      <path id="path4096-2-4-0" d="M2926.189,1456.934H3056.8v210.525H2926.189Zm92.707,209.184c-4.857-8.857-12.535-23.284-12.762-23.4-2.839,1.521-31.784,5.418-45.706,1.644-4.762,7.194-9.437,14.319-13.582,21.45Zm-44.454-26.491c-.728.017-1.54.463-1.391.075.087-.225.293-2.5.383-3.309.217-.361.524.586.489,1.466-.02.505.221.145,1.87.232a23.245,23.245,0,0,1,3.848.561c2.109.459,6.188.13,7.936-1.149.947-.692,1.305.055.329.8-4.405,3.354-7.9,2.075-11.726,1.513a10.447,10.447,0,0,0-1.738-.187Zm1.873-3.182a.687.687,0,0,0-.8-.034c-1.352.635-1-.275-.025-1.191.444-.419.432-.632.094-1.072-.171-.222-.457-.25-.389-.583.293-1.438,2.3-3.612,4.547-4.584.934-.4,1.082.038-.1.735-1.817,1.073-2.4,1.988-1.377,1.615,1.992-.721,3.809-.212,6.358,1.065a2.539,2.539,0,0,0,1.681.37c.457-.381.867.077,1.151.317.178.144.216.213.419.165,1.451-.342.581.586-1.4,2.039-3.55,2.521-7.423,3.709-10.155,1.158Zm5.462.62a12.768,12.768,0,0,0,4.306-2.314c1.319-1.163.573-.986-.943-.253a11.844,11.844,0,0,1-6.2,1.311c-2.066-.048-2-.132-2.076.127-.264.907,2.579,1.834,4.911,1.129Zm-4.008-3.544a1.931,1.931,0,0,0,.1-1.081c-.191-.307-.6-.08-1.124.582-.323.411-.279.466.038.79.159.108.281.189.377.245.441.189.512-.222.607-.536Zm.9.536c.636-2.172,2.058-2.129,3.073-.052l.715,0c-1.471-4.042-4.32-1.995-4.415.016a1.183,1.183,0,0,0,.627.032Zm5.314-.366c.671-.376.573-.632-.283-1.075-.608-.314-.929-.378-1.04-.175a2.788,2.788,0,0,0,.285,1.444C2983.216,1634.048,2983.585,1633.887,2983.986,1633.691Zm-9.413-6.184c-.123-.2-.1-.577.365-.794,2.881-1.338.782-4.163-1.442-2.045a2.622,2.622,0,0,1-2.564.505c-.762-.333-.776-1.268.236-1.467a5.462,5.462,0,0,0,1.5-.466c3.866-2.077,5.919,2.438,3.176,3.94-.564.331-1.162.515-1.271.327Zm-10.831-4.1a2.469,2.469,0,0,1-.313-4.155c.936-.643,1.893-.818,4.471.462,1.821.905,2.863-.069,2.816.983-.028.64-.066,1.285-1.125,1.439-1.721.251-2.9-2.092-5.106-1.871a1.257,1.257,0,0,0-.24,2.462c1.535.519.6,1.133-.5.68Zm28.85.36c-.289.135-.423-.5-.3-.834.784-1.866,1.506-3.35,2.217-5.1.567-1.393.947-1.992,1.2-1.991s.381.206-.054,1.064c-.657,1.73-3.062,7.007-3.065,6.859Zm-12.882-.484c-.694-.5-.577-1.231.213-.674,1.015.716,2.679-.595,2.339-1.831-.41-1.495-2.389-1.857-4.045-.518-2.613,2.111-5.481,2.218-5.481.568.008-.472-.06-.579,1.027-.653a8.492,8.492,0,0,0,3.4-1.1c3.179-1.944,6.561-.6,5.861,2.642A2.332,2.332,0,0,1,2979.71,1623.284Zm-11.657-4.788c-.258-.008-.73.253-.865.152-.264-.2-.226-.774-.444-1.39-.386-1.094-.009-.752.67-.457a3.636,3.636,0,0,0,2.577.018,8.184,8.184,0,0,1,3.544.005,7.082,7.082,0,0,0,3.35-.227c1.337-.421.983-.269.76.558a5.314,5.314,0,0,1-.5,1.446,2.04,2.04,0,0,0-2.233.035,3.339,3.339,0,0,1-2.522.271,1.535,1.535,0,0,0-1.842-.024c-1.064.517-1.536-.338-2.5-.387Zm19.931-2.273c.187-.331.459-.785.715-1.3,2.064-4.117,2.205-5.261.748-6.648-1.959-1.864-3.628-1.056-5.505,2.666-.455.9-.728,1.582-.912,1.861-.212.321-.46.074-.582-.051-.231-.237,1.851-4.188,2.667-5.05a3.443,3.443,0,0,1,5.854,2.618c-.128,1.546-.42,2.394-1.829,5.228-.349.7-.651,1.3-.836,1.583-.661.444-.51-.575-.321-.912Zm-19.464-.164c.326-1.467,5.009-2.145,6.243-.222.12.187.049.18-.48.034-2.381-.79-2.853-.747-5.134.158-.343.133-.587.188-.628.03Zm17.866-.279a4.408,4.408,0,0,1,.439-1.2c1.561-3.1,1.991-3.845,1.515-4.424-.928-1.129-2.174-.148-3.319,3.087-.428,1.209-.72.951-.929.76-.4-.365,1.371-4.129,2.225-4.69,1.935-1.235,3.458.2,2.6,2.722-.667,1.141-1.218,2.9-1.842,3.821-.295.414-.694.291-.692-.072Zm-7-5.031c-.095-.156.088-.366.759-1.808.922-1.983,1.208-2.719.833-3.851a2.929,2.929,0,0,0-4.713-1.188,4.332,4.332,0,0,0-1.075,1.55,26.192,26.192,0,0,1-1.341,3.154c-.286.289-.685.348-.659-.157a16.752,16.752,0,0,1,1.394-3.47c2.142-4.673,8.317-2.51,6.872,2.41a12.914,12.914,0,0,1-1.521,3.577A.318.318,0,0,1,2979.385,1610.749Zm-1.433-.858a8.535,8.535,0,0,1,.478-1.2c1.044-2.593,1.051-3.388-.471-3.421-.91.117-1.046.492-1.845,2.538a8.355,8.355,0,0,1-.557,1.341c-.165.217-.476.088-.6-.042-.327-.334,1.1-3.689,1.851-4.322,1.733-1.514,3.977.636,2.926,2.565a13.876,13.876,0,0,1-1.207,2.682c-.255.369-.575.317-.572-.138Zm-36.875-30.234-5.261-.362a47.476,47.476,0,0,1,.037,16.291,31.979,31.979,0,0,0-.574,9.825c.28,3.807,1.884,7.035,2.288,11.076a30.972,30.972,0,0,1-.929,8.894c-.962,4.864-.764,5.372-.622,11.08.131,5.293-.36,5.1-.662,4.794a13.527,13.527,0,0,1-.081-2.1c.008-1.113-.061-3.835-.124-5.725a38.774,38.774,0,0,1,.594-8.484c.616-2.794,1.308-5.656.881-8.749-.866-3.9-2.086-7.8-2.515-11.563-.528-4.639.77-9.294,1.2-12.663.415-3.253-.024-8.881-.872-11.223a6.107,6.107,0,0,0-.839-1.795,16.519,16.519,0,0,0-2.7-.219c-.063,22.339,0,44.688.016,67.031l4.907,4.578,5.041-4.819Zm.354,25.627s7.486,4.334,15.741,8.594c-.786-4.874,1.707-5.608,4.047-6.174-.561-9.415,8.016-7.483,9.331.7l.845,0c1.486-4.078,2.956-6.893,6.34-7.565,2.622-.52,5.208,1.15,5.864,5.084-.115-.277,8.695-5.2,8.938,5.2,4-2.5,6.856-.341,8.01,2.831,1.69-2.589,5.918-2.7,7.27-2.891.471-.546,1.3-.857,2.811-.848,1.294-.066,3.032-1.041,3.927.147,1.361.215,2.4-.032,3.56.872.925.707,1.957,2.284,3.5,1.2,2.936-1.423,6.237-2.064,8.863-3.78,0,0-.7-.9-.493-.772a2.934,2.934,0,0,0,.894.672,9.365,9.365,0,0,0,1.79-.9c-10.939-12.675-19.937-37.419-13.995-60.313.164-.39-.5-.539-.821-.677.1-.176,1.706.06,1.024,1.515-.687,4.386-1.465,9.139-1.638,12.776,0,.443.037.84.037.84,24.527,11.378,21.52,36.023,15.219,44.6l.993,1.331c.439.3,19.295-10.763,18.673-11.216l3.568-1.787-.578-48.327-14.111-1.085s.15-.406.329-.511c.129-2.95-.133-7.314.008-10.966.055-10.438.159-13.987.025-14.276-4.353-2.882-10.842-7.1-16.3-9.141a18.434,18.434,0,0,1-.255,4.568c-5.11,1.64-2.738,3.736-4.626,5.987a4.053,4.053,0,0,1-5.672-.013c-1.713-1.667-2.517-5.492-2.517-5.492-2.7,2.907-2.148,6.419-5.767,7.742-5.819,2.9-7.666-5.776-7.328-5.575-2.23,2.162-8.486,3.92-9.162-5.209-2.813,2.6-5.966,1.312-7.3-1.893-1.717.061-3.642,1.414-5.38,2.146a13.3,13.3,0,0,1-5.208,1.107,12.131,12.131,0,0,1-5.219-.293,3.435,3.435,0,0,1-3.2-1.661,2.193,2.193,0,0,0-2.436-.9c-2.8,1.481-5.793,1.839-9.092,3.389-.206.144.29.415.123.362-.07-.023-1.733.821-1.733.821,16.714,22.1,17.623,44.416,14.12,60.232a1.351,1.351,0,0,0,.148,1.378c-.53-.092-.539.064-.638-.278l1.738-13.275c.051-1.6.251-1.485-1.15-2.083a26.978,26.978,0,0,1-3.589-1.748c-4.076-3.037-8.682-6.775-10.927-11.441-6.405-10.026-4.292-21.99.506-31.469l-1.194-1.247a106.5,106.5,0,0,0-22.28,14.672l.06,47.421,14.4,1.67Zm-6.945-31.666a1.858,1.858,0,0,0-2.127-.213c-.113.1-.355.6-.426.58-.652-.168-1.1-.3-1.19-.858l.692-1.052c.548-.833,1.338-1.129,2.668-1.442.473-.111,1.185-.212,1.437-.32,1-.435,1.349-1.376.336-.954-.74.2-1.774.137-1.911-.543a.918.918,0,0,0-1.114-.713,10.066,10.066,0,0,0-2.729,1.264c-.383.232-1.11.758-1.11.758-.114.18-.537-1.137-.143-1.522a2.637,2.637,0,0,0,1.388-.127c1.19-.477,2.336-1.053,3.537-1.515.765-.3.835-.276.633-.822a2.134,2.134,0,0,1-.056-1.221c.14-.372.125-.559-.113-.719-.541-.362-1.837-.024-3.66.856a6.291,6.291,0,0,0-1.272.662c.226-.581.094-.688.088-1.3a3.391,3.391,0,0,0,2.009-.519,6.163,6.163,0,0,1,2.386-.685c.368-.047.2-1.4-.218-1.794a2.46,2.46,0,0,0-2.237-.079,3.816,3.816,0,0,0-2.637,1.39c-.781.743.019-1.232,1.442-2.021a16.985,16.985,0,0,0,2.325-.383c.55-.122.638-1.419-.161-1.974-.5-.439,1.817-.45,1.772-.317-.03.077-.051.631.126.772a1.545,1.545,0,0,1,1.076,1.469c1.146,1.891,1.71.7,2.5.053-.167,4.119,1.266,4.588,1.455,4.849-1.967,3.691-.484,3.782,1.361,4.631a3.441,3.441,0,0,1-1.168.257,5.719,5.719,0,0,0-2.753,1.345c-.339.285-.349.048-1.7.008a3.13,3.13,0,0,0-1.953.318c-1.148.512-1.142,1-.02.805a2.107,2.107,0,0,1,2.5,1.521.7.7,0,0,1-.009.509c-.249-.047-.811.047-.8-.072a1.561,1.561,0,0,0-.22-.887Zm1.744-4.992a.714.714,0,0,0,.1-1.041,1.983,1.983,0,0,0-1.656.177c-.7.552.577,1.475,1.558.864Zm.7-2.48a1.153,1.153,0,0,0,.1-1.511,1.335,1.335,0,0,0-2.212.641c-.089,1,1.271,1.528,2.109.87Zm-.5-3.4a.98.98,0,0,0-1.479-.952c-.926.485-.364,1.508.8,1.448.643-.033.643-.033.683-.5Zm-2.711-3.333a.6.6,0,0,0-.045,1.055C2935.3,1561.368,2934.8,1558.95,2933.716,1559.41Zm113.489,4.91c-.713-2.644-2.679-.022-2.682.014-.07-2.71.44-3.916-1.58-4.842,2.027-3.09,1.6-3.516-.545-4.7.2.017,2.853-.581,3.308-2.107.1.071,4.167,1.079,4.674-1.154-1.227.562-3.64.646-3.668-1.755.229-.069.8.05.753.126-.321,1.54,2.467,1.921,2.923.7a6.861,6.861,0,0,0,1.348.729,5.413,5.413,0,0,1-2.466,2.141c-2.16.719-2.905.913-2.907,1.345,0,.168.352.195.994.327,1.341.093,1.313.383,1.489.83.156.4.307.475.755.435a7.015,7.015,0,0,0,3.366-1.856c.13-.026.281,1.129.363,1.169.013-.184-1.084.137-2.768,1.129-1.375.809-1.913.927-2.087,1.145-.13.162.2.673.239,1.227.03.466-.282.693-.053.838a1.613,1.613,0,0,0,1.214,0,10.111,10.111,0,0,0,3.131-1.423c-.227.433.153,1.529.153,1.529a1.133,1.133,0,0,0-.961-.179,24.666,24.666,0,0,1-2.552.959,1.409,1.409,0,0,0-.645.247c-.17.145-.142.494-.145,1.007,0,.36-.1.691.12.8a4.572,4.572,0,0,0,2.532-.25c.437-.192,1.365-.7,1.365-.7l-.29,1.517c-.39-.442-1.506-.117-2.254.18a.842.842,0,0,0-.586.689.934.934,0,0,0,.6,1.142,1.588,1.588,0,0,0,.7.073c-1.937.742-1.551,1.015-2.682.453a4.507,4.507,0,0,1-1.154-1.785Zm2.028,0a1.2,1.2,0,0,0-1.207-.44c-.29.155-.186.479-.093.727.245.687,1.947.465,1.3-.287Zm-1.13-1.891c.454-.6-.046-1.4-.885-1.41a.8.8,0,0,0-.888.821c.012.87,1.393,1.09,1.772.589Zm-.933-2.282a.951.951,0,0,0,.518-1.646,1.912,1.912,0,0,0-2.058-.093c-.886.977.107,2.131,1.54,1.739Zm.7-3c.494-.254.589-.678.153-1.159-.793-.679-2.175-.15-1.729.84a1.162,1.162,0,0,0,1.576.319Zm-101.254-22.79a15.726,15.726,0,0,0,2.061-1.3c.527-.29.369-.244-.306-.641-.531-.246-1.6-1.33-1.7-1.071A7.959,7.959,0,0,0,2946.616,1534.355Zm18.784,26.46c.031-.516.092-1.293.078-1.862.1-1.086-.094-.768-.677-.414-.432.281-1.125.706-1.4.843-1.072.537-.943.566.564,1.3,1.266.57,1.409.514,1.431.137Zm-1.47-2.541c1.024-.649,1.364-.984,1.413-1.712.008-.838-.092-1.143-.822-.563-2.491,1.98-5.055-1.905-2.775-4.062a4.766,4.766,0,0,0,1.061-1.3c.038-1.251-1.363-.036-2.507,1.683-1.266,1.562-2.055,3.517-.944,5.4.889,1.373,2.868,1.645,4.574.563Zm-5.66-2.528a4.163,4.163,0,0,1,.205-1.5c.28-.717.268-.806-1-.21a5.86,5.86,0,0,1-1.343.3c-1.037-.006-.778.322.708,1.568s1.543,1.367,1.431-.161Zm3.531-6c.158-.377-.171-.522-.486-.451-.025.006-.568.414-1.207.92-1.936,1.534-3.356,1.713-4.317.544-.974-1.185-.567-2.59,1.61-4.2.961-.709,1.191-.758.729-1.068-.351-.235-.373-.2-1.753.741-2.782,1.9-3.615,3.189-3.336,5.075a1.935,1.935,0,0,0,.85,1.482c2.653,2.364,6.333-.9,7.91-3.044Zm2.808,1.119-.168-2.609a22.69,22.69,0,0,1-6.438-10.115c-.946-3.087-.192-9.526-.05-9.048l-1.528-2.912a19.053,19.053,0,0,0-.464,12.606c1.228,4.077,3.687,9.014,8.648,12.078Zm-11.914-1.52c.9-1.736.926-1.549-.81-1.564-1.981-.017-1.76-.26-.643,1.443C2952.139,1550.592,2951.988,1550.711,2952.7,1549.345Zm1.19-2.379a6.435,6.435,0,0,0,2.4-1.276c1.739-1.137,1.812-1.759.066-.883-2.241,1.126-4.21.838-4.94-.631-.651-1.309.708-2.942,2.945-3.581.765-.218,1.168-.4,1.17-.739.008-1.027-3.8.343-5.372,1.893-3.03,2.994-.379,6.545,3.735,5.217Zm-4.9-4.661c.1-.156.374-.53.626-.918,1.072-1.254.17-.879-.782-1.222a3.462,3.462,0,0,0-1.314-.328c-.57.087.191,1.194.375,1.909C2948.405,1543.338,2948.346,1543.289,2948.987,1542.305Zm4.056-2.868c1.92-.189,2.116-.376,2.119-.776s-.235-.321-1.2-.186c-2.554.356-4.244-.3-4.609-1.666-.377-1.414,1.352-2.752,3.657-2.673,1.248.043,2.079-.391,1.319-.809a16.121,16.121,0,0,0-4.611.058c-2.284.669-3.215,1.947-3.006,3.716.316,2.185,1.5,2.812,4.393,2.656.554-.029,1.26-.253,1.937-.32Zm1.486-7.117c0-.341-.547-.391-2.359-.661-2.414-.361-3.492-2.608-2.037-3.96a3.661,3.661,0,0,1,2.6-.6c1.591.292,2.564.621,2.579.078,0-.485-.458-.52-3.446-1.154-4.513-.961-6.991,3.5-3.382,5.676,1.371.828,6.042,1.3,6.047.619Zm1.119-6.377c0-.171-.146-.3-.488-.437a6.7,6.7,0,0,1-1.95-.991c-1.49-1.01-1.942-2.98-.948-4.077.965-1.025-.772-2.235-2.155-1.079-1.438,1.2-1.317,3.088.339,4.581C2951.97,1525.315,2955.642,1526.745,2955.648,1525.943Zm-7.313-.267c1.568-.74,2.7-.314,1.5-1.336-.674-.628-1.249-2.414-1.718-.9a14.223,14.223,0,0,0-.631,2.652C2947.586,1526.2,2947.562,1526.016,2948.335,1525.676Zm55.487-3.843a3.835,3.835,0,0,1-2.552-4.541,19.513,19.513,0,0,1,1.526-3.971c.788-.629.68.208-.044,1.662-.659,1.484-1.174,2.677-.969,3.56a2.879,2.879,0,0,0,2.095,2.535,2.932,2.932,0,0,0,2.356-.573c.771-.548,1.5-1.952,2.371-3.9.279-.547.653-2.227,1.117-1.2.223.531-1.636,4.061-2.331,4.955A3.671,3.671,0,0,1,3003.822,1521.833Zm10.772-1.181a3.722,3.722,0,0,0,3.3.96c2.356-.835,3.427-3.075,2.535-6.676-.451-2.018-.838-3.273-1.229-3.523-.189-.121-.4.1-.582.386-.164.251.087.6.355,1.553,1.126,4,.831,5.81-.543,6.575-1.994,1.109-3.7-.168-4.281-3.023-.093-.441-.366-1.341-.366-1.341-.153-.4-1.388-.309-.939,1.02A9.93,9.93,0,0,0,3014.594,1520.652Zm10.109-10.479c-.031-1.408-2.974-7.516-3.174-6.868a14.675,14.675,0,0,0,.1,1.989,2.565,2.565,0,0,0,.322.635c2.558,4.588,2.163,7.821-.055,8.529-.755.345-.92.684-.582,1.04.684.748,2.4-.731,2.732-1.267C3024.887,1513.027,3024.77,1510.83,3024.7,1510.173Zm-42.832-1.039a28.693,28.693,0,0,0,3.73-6.78c2-5.836,4.113-12.547,4.695-18.751.065-.783.106-1.975.144-2.077a2.269,2.269,0,0,0-1.486.091c-.16.209-.052.674-.11,1.279a85.234,85.234,0,0,1-5.01,19.8,31.387,31.387,0,0,1-3.366,6.614c-.226.341-.514.692-.627.891-.327.475-.086.785.293.584a8.125,8.125,0,0,0,1.737-1.648Zm-3.287,1.7a48.229,48.229,0,0,0,6.96-15.4,94.667,94.667,0,0,0,2.586-11.882c.116-.859.21-1.435.043-1.692a2.206,2.206,0,0,0-1.459.166c-.165.251-.055.752-.207,1.91a83.855,83.855,0,0,1-1.977,9.944c-2.624,8.717-5.036,13.6-8.2,17.868-.256.359-.484.592-.461.745.033.223.341.2.844-.112a12.048,12.048,0,0,0,1.875-1.546Zm-4.684,2.263c1.5-.859,4.153-4.6,6.024-8.624a93.805,93.805,0,0,0,5.008-14.772,53.393,53.393,0,0,0,1.107-7.461c-.12-.4-1.59-.067-1.386.208a109.379,109.379,0,0,1-3.033,12.689c-2.918,8.37-5.441,14.049-8.157,16.78l-1.057,1.058s.015.312.242.36a1.786,1.786,0,0,0,1.251-.238Zm-2.3-.334c3.394-1.912,7.37-10.841,10.615-22.054.556-1.918,1.57-8.341,1.57-8.341s-1.352.051-1.613.337c-.262.388-.22,1.377-.6,3.723a75.76,75.76,0,0,1-6.969,19.955c-1.431,2.833-3.809,5.5-5.31,6.261-.839.425-1.085.894-.47.927,1.035.038,1.127.256,1.879-.151Zm46.515,99.867c-2.546-.009-4.708,2.452-6.634,5.544-4.1,6.337-6.853,16.927-7.523,22.555l1.546-.294c-.232.107,2.89-14.98,7.646-21.44,2.571-4.076,2.463-4.137,3.907-4.511,1.825-.473,3.288,1.517,2.383,2.716-.328.406-.687.108-.586-.471.324-1.845-2.348-2.2-3.094-.387-.858,2.085,1.424,3.945,3.654,3.125,1.993-.709,2.828-3.517,1.429-5.591a3.842,3.842,0,0,0-2.728-1.246Zm-13.4-.258c-3.048,3.857-4.558,7.821-6.43,13.233a70.519,70.519,0,0,0-3.8,16.765l1.645-.214c-.06-3.9,4.183-22.478,10.145-29.437a2.835,2.835,0,0,0,.575-.909C3006.519,1610.868,3005.106,1612,3004.711,1612.369Zm6.734-1.441c-3.95,3.262-7.106,10.389-9.187,16.976-2.25,7.121-3.259,13.646-3.09,13.646l1.57-.232c-.117-.414,4.409-25.505,12.81-30.073.728-.366.881-.735.267-.9a3.5,3.5,0,0,0-2.37.578Zm4.423.017c-8.626,1.145-14.263,27.817-14.451,30.031,0,.034-.032.206-.032.206l1.718-.357s.014-.085.022-.127a70.048,70.048,0,0,1,5.024-17.752c2.1-4.565,4.987-10.4,9.307-10.968.351-.046.684.1.561-.316-.263-.654-1.555-.737-2.148-.717Zm-51.41-8.4c-3.118.808-3.219,4.575-1.143,9.389.157.363.129.562.288.7.354.313.633-.123.673-.412a4.342,4.342,0,0,0-.456-1.881c-1.284-3.332-.976-5.252.3-6.1,3.261-1.694,4.139,1.784,4.632,3.385.121.39.162.926.375.955a1.293,1.293,0,0,0,.951-.143,43.4,43.4,0,0,0-1.39-4.121,3.5,3.5,0,0,0-4.226-1.773Zm-22.62,3.556-.032,39.707-5.968,5.653c-2.562-2.214-5.926-5.681-5.926-5.681l.106-67.126-1.921-.155c-.47,28.84-.008,58.263-.031,87.16h17.521l14.6-23.03a3.376,3.376,0,0,0,.244-.419c.179-.444.158-1.107.07-3.553a8.991,8.991,0,0,0-.07-1.991c-.147-.236-.459-.068-.75.064s-.472.086-.313-.266c.09-.2.383-.638.635-1.056.82-1.358,1.021-1.792.744-3.3a3.709,3.709,0,0,0-.7-1.119c-2.458-3.661-3.459-9.087-2.239-13.06a3.492,3.492,0,0,0-.591-3.482Zm77.252-42.694c-1.6-.831-1.574-.813-1.584.76.009,1.177.032,1.461.469,1.3.632-.325,1.406-.622,1.99-.872,1.114-.387-.3-.882-.875-1.191Zm6.352,4.089c-1.246-1-.786-.887-1.138,1.374-.213,1.366-.488,1.4.912.95.8-.278,2.43-.1,1.7-1.044C3026.921,1568.793,3025.686,1567.707,3025.442,1567.5Zm-50.034,34.716c-1.911,1.167-3.862,6.819-3.862,6.819-6.675.8-9.47,7.428-9.768,12.953-.236,4.361-.529,9.454-.093,9.9,4.377-1.986,6.063.306,6.478-.312.19-.27-.97-1.164-2.428-1.967a8.992,8.992,0,0,1-1.061-.688c-.531-.444,1.061-.062,2.067.629,1.284.883,1.5.7.943-1.878-.606-2.8-.705-3.145,1.428-4.256a5.951,5.951,0,0,0,1.95-1.513c.489-.553.614-.688.434.125-.312,1.409-1.553,2.023-2.67,2.595a1.523,1.523,0,0,0-.789,1.363,31.176,31.176,0,0,0,.84,4.119c.248.832.339,1.665.53,2.512a8.407,8.407,0,0,1,.28,4.226,8.1,8.1,0,0,0-.172,2.035c.047.514.117,1.213.117,1.213,0-.024-1.192-1.236-3.806-.2a4.963,4.963,0,0,1-4.429-.586,9.418,9.418,0,0,0-.158,2.8,95.375,95.375,0,0,0,27.963.911,91.075,91.075,0,0,1,3.257-16.437,43.541,43.541,0,0,1,2.933-7.675,8.387,8.387,0,0,1,1.782-2.389c.084-.052.092-.079.09-.115v-.209a2.072,2.072,0,0,0-.5-1.4c-.9-.727-2.34.208-2.813,1.828a52.977,52.977,0,0,1-2.441,5.1c-.112-.07-.374-.076-.279-.4.724-1.7,1.719-3.5,2.279-5.027.774-2.2,2.457-3.36,3.714-1.973.431.475.6.913.8,1.064.149.114.35.036.474-.152.474-.721-.625-2.359-1.8-2.688-1.7-.474-2.97.779-4.9,4.845-1.114,2.347-1.314,2.936-1.49,2.756-.039.016-.335.015-.228-.44a33.2,33.2,0,0,1,2.78-5.618c1.586-2.667,4.53-2.883,5.769-.569.189.316.2.728.409,1.01.38.5,1.005.4,1.16-.417-.169-.54-1.2-2.487-1.923-2.827a4.142,4.142,0,0,0-5.357.6c-.383.346-.783,1.049-1.905,3.348-1.653,3.687-1.7,3.7-2.148,3.107.664-1.793,2.412-4.707,3.118-6.5a1.676,1.676,0,0,0,.151-.828c-.041-1.3.169-3.6-2.554-5.231a4.773,4.773,0,0,0-6.431,2.553c-.8,1.905-1.384,3.213-1.787,3.483-.566.379-.46-.149-.4-.341.805-1.724,1.936-3.466,2.116-5.2a4.688,4.688,0,0,0-7.659-4.061Zm-24.326-87.966a62.851,62.851,0,0,1,9.941-3.711c.506-.224.586-.276.049-1.35-2.374-4.747,4.14-8.531,6.354-3.871.295.621.363.964.654.667a29.793,29.793,0,0,0,1.864-2.913c2.491-3.9,3.619-8.349,4.948-12.275a50.063,50.063,0,0,0,1.538-7.192c-4.943-8.692-13.634-24.623-13.634-24.623h-34.73v69.678c9.675-8.155,16.259-11.1,23.016-14.41Zm38.951-2.568c.42-.447.783-1.19,2.288-4.309.269-.557.7-1.42.872-1.822.226-.734,1.071-1.193.659.122a8.983,8.983,0,0,1-.51,1.175c-.5.909-.976,2.022-1.332,2.75-1.924,3.9-1.833,6.165.317,7.855a4.606,4.606,0,0,0,6.774-.778,7.32,7.32,0,0,0,.586-1.113,16.864,16.864,0,0,1,1.5-3.057c.8-1.024.927.244-.266,2.2a5.8,5.8,0,0,0-.209,6.369,4.626,4.626,0,0,0,7.166.572h0a14.886,14.886,0,0,0,2.642-5.01c.154-.463.313-.807.426-1.078.174-.419.424-.575,1.073-.7,4.444-.86,8.174-5.468,8.7-10.5.07-.68.262-1.885.332-2.6.139-1.426.142-8.812,0-9.252a.45.45,0,0,0-.5-.36,3.3,3.3,0,0,0-.988.244,4.279,4.279,0,0,1-3.555.154,2.581,2.581,0,0,0-.978-.209c-.621.054.2.954,2.015,1.948.776.426,1.389,1,.76.958a29.072,29.072,0,0,1-2.669-1.34c-1-.617-.736.16-.223,2.2.689,2.743.292,3.513-1.852,4.587a5.633,5.633,0,0,0-1.2.888c-1.137,1.7-.843.447-.27-.457.977-1.034.377-1.387-1.627-.67-2.287.818-3.321.221-3.96-1.063-.723-1.452.637-3.32,1.772-3.283.368.011.3.145-.24.518a2.031,2.031,0,0,0-1.032,1.657c-.138,1.57.974,2.237,2.528,1.184a5.953,5.953,0,0,1,1.867-.969c.551-.126,1.378.081,1.375.526a4.424,4.424,0,0,0,.013.733c.146.5.933-.207,1.276-.457,1.17-.884,1.132-1.058.813-2.491-.523-2.007-.787-3.841-1.285-5.875a8.861,8.861,0,0,1-.149-3.356c.081-.544.291-1.663.333-2.429s-.008-1.86.024-1.86c1.162.9,1.634,1.056,2.768.621a4.616,4.616,0,0,1,4.343.063c.547.265,1.045.451,1.045.451l.068-2.3s-1.369-.285-3.9-.621c-7.615-1.01-23.242-1.224-23.823-.295-.148.236-.3,1.881-.711,4.169-.922,4.753-1.954,9.491-3.336,14.129-.284.945-.554,1.326-.41,1.354.059.011.342-.355.474-.508.74-.863.173,1.187-.946,3.657a2.179,2.179,0,0,0-.184.543,27.765,27.765,0,0,1-1.188,2.912c-.3.647-.551.842-.548.428.34-1.423,1.238-3.264,1.368-4.532-.787,1.148-1.934,3.044-2.8,4.175-.16.3.009.4.149.776.521,1.406,1.784,1.531,2.514.258.406-.71,1.67-3.384,2.11-4.555a5.916,5.916,0,0,1,.921-1.918c.3-.158.36.527-.176,1.666-1.627,3.456-2.325,5.394-3.121,6.108a1.472,1.472,0,0,1-2.283-.468c-1.007-1.673-1.868-1.119-.943.6a2.453,2.453,0,0,0,4.278.342,51.457,51.457,0,0,0,2.7-5.33,4.627,4.627,0,0,1,.754-1.422c.594-.231-.084,1.539-1.792,5.082-.553,1.368-1.441,2.8-2.644,3.248-2.923.647-3.318-.915-4.335-2.694-.494-.442-.942.266-.752,1.048a3.673,3.673,0,0,0,1.766,2.4,4.189,4.189,0,0,0,5.353-.985Zm13.039,7.414a2.663,2.663,0,0,1-.092-1.756,14.5,14.5,0,0,1,1.407-3.56c.959-.458.226,1.366.106,1.637-1.157,2.438-1.267,3.381-.186,3.662.925.241,1.423-.331,2.3-2.516.449-1.122.628-1.619.787-1.683.337-.137.5,0,.48.342a16.013,16.013,0,0,1-1.982,4.136c-.93.787-2.332.791-2.818-.262Zm-8.682-1.873a4.583,4.583,0,0,1-1.573-1.049c-1.636-1.512-1.366-3.6.662-7.534.158-.3.748-1.494.937-1.884.339-.7.674-.426.671.037a18.267,18.267,0,0,1-1.019,2.223c-2.24,4.421-2.163,6.225.013,7.277,2.124,1.026,3.076.435,4.77-2.939.979-2.534,1.462-2.576,1.409-1.613a18.2,18.2,0,0,1-1.953,3.917c-1.11,1.638-2.07,1.929-3.917,1.565Zm.161-2.134a2.32,2.32,0,0,1-.681-2.878c.448-.875,1.6-4.229,2.136-4.418.868-.03.4.7-.67,2.766-1.272,2.733-1.226,3.463-.245,3.882.909.387,1.34-.407,2.68-3.6.21-.5.5-1.023.676-.913.213-.017.583.145-.121,1.593-.167.347-.451,1.073-.765,1.749-.916,1.978-1.955,2.482-3.01,1.822Zm15.052-5.8c-.367-.19-2.087-.872-1.832-1.438.032-.053.132-.011.183.023a4.554,4.554,0,0,0,5.575-.143c.344-.305.6-.1.409.285C3013.319,1509.252,3010.566,1509.782,3009.6,1509.286Zm-5.058-1.8a8.084,8.084,0,0,0,.314-.949c.189-.715.145-1.242.312-1.151a3.085,3.085,0,0,0,2.614.014,3.156,3.156,0,0,1,2.58-.218,1.128,1.128,0,0,0,1.6-.145c.572-.45.583-.258,1.616.1.763.267,1.063.45,1.387.391.124-.023.376-.309.457-.294.248.045.276.756.5,1.567.2.718.087.891-.551.461a4.546,4.546,0,0,0-3.253-.032,3.222,3.222,0,0,1-2.062.063c-1.919-.328-3.3-.581-4.735.255-.764.447-1.042.679-.782-.066Zm-4.776-3.546c-.93-1.883,1.21-4.377,3.09-3.5.624.292,1.179,1.4.256.891-4.277-.871-3.209,5.451,1.384,2.111,3.053-2.045,5.213-2.361,5.393-.382-.085.727-.725.611-1.21.677a10.065,10.065,0,0,0-3.2,1.02c-2.231.709-4.411,1.289-5.714-.82Zm16.737.871c-1.043-.271-1.95-.687-3.038-.886s-1.564-.757-1.37-1.521c.2-.795,1.282-.878,2.9.121,1.8,1.108,3.1,1.377,3.76.959,1.331-.845.613-2.221-.657-2.573-.953-.267-.252-.641.773-.333,1.654.633,1.688,3.648-.012,4.275a4.7,4.7,0,0,1-2.36-.042Zm-14.569-9.983a19.164,19.164,0,0,0,2.8-1.887c.22-.237.829-1.034.356-.79-2.477,1.5-5.352.254-7.435-.773-1-.473-.754-.264-1.522-.212-.522.035-.94.145-1.033-.23-.042-.166-.333-.1-.519-.115-.77-.077-.283-1.1,1.333-2.239a14.82,14.82,0,0,1,5.222-2.569,5.03,5.03,0,0,1,4.748,1.084c.493.479.449.8.9.5,1.028-.671,1.036.22.169,1.044-.595.566-.377.72.351,1.259.348.257.062.5-.131.876a4.154,4.154,0,0,0-.051.654c-.162.805-3.793,3.65-5.108,4.135-.9.171-.43-.517-.084-.741Zm2.522-5.227-.6.008c-.686,2.115-1.953,2.835-3.007.3l-.481.049C3000.347,1492.109,3004.007,1493.458,3004.459,1489.6Zm-3.965,1.983c-.249-.421-.528-1.387-.788-1.4-.708-.031-1.687.1-1.455.54C2998.617,1491.428,3000.783,1492.076,3000.494,1491.588Zm4.852-.377c.653-.4.792-.67.366-1.106-.55-.563-.837-.275-1.01.623C3004.554,1491.5,3004.662,1491.627,3005.346,1491.211Zm-8.848-1.487c4.371-2,6.029-2.254,7.8-1.76a5.783,5.783,0,0,0,1.006.333c.85-.052.308-1.013-1.218-1.564-1.744-.629-2.849-.343-6.2,1.42-1.962,1.032-3.556,2.559-1.392,1.571Zm12.669-2.423c-.062-.119-.326-.913-.4-1.2s-.143-.589-.225-.591a11.458,11.458,0,0,1-4.291-.17,14.056,14.056,0,0,0-8.244.285,8.961,8.961,0,0,0-1.274.62c-.175.165-.434-.022-.432-.228a6.665,6.665,0,0,1,2.215-1.754,11.34,11.34,0,0,1,8.368-.7,5.333,5.333,0,0,0,4.488.082c.617-.272.179.4-.016,1.3a4.443,4.443,0,0,0,.038,1.5c.078.846-.018,1.269-.226.869Zm45.681,178.359V1595.8c-17.426,12.113-25.048,14.522-33.237,17.49,2.739,5.632-3.3,10.451-6.756,4.732-3.562,4.036-8.468,18.168-8.642,22.861,0,0,9.474,16.539,14.1,24.779Zm-63.33-22.9a71.767,71.767,0,0,1,3.381-16.411,55.162,55.162,0,0,1,3.806-9.236c.662-1.044.707-1.448,0-1.072a16.256,16.256,0,0,0-2.747,3.125c-3.11,6.62-4.549,14.573-5.687,20.646a25.852,25.852,0,0,0-.334,3.062Zm2.275-.289c.74-8.54,3.854-20.069,8.533-27.584.439-.716.981-1.337.96-1.585-.06-.73-1.862.532-3.26,2.688a72.972,72.972,0,0,0-4.319,10.139,65.65,65.65,0,0,0-3.4,16.538Zm4.5-.713c.469-4.921,1.983-9.436,3.252-13.958a45.553,45.553,0,0,1,6.037-13.265c.774-1.176,1.688-2.276,2.556-3.4a.8.8,0,0,0,.2-.478,2.047,2.047,0,0,0-1.432.32,8.252,8.252,0,0,0-1.944,1.835c-3.438,4.424-5.288,9.589-7.005,14.807a56.088,56.088,0,0,0-3.068,14.37Zm-30.88-3.772c.692-.055,1.137.077,1.338-.109s.134-.679.2-1.313c.134-1.354-.008-1.28-.844-.405-1.388,1.449-3.922,2.007-5.429,1.132-.761-.442-1.289-.748-1.361-.381a.9.9,0,0,0,.357.986C2963.493,1638.734,2965.226,1638.157,2967.409,1637.985Zm-1.632-1.037a4.9,4.9,0,0,0,2.489-1.631c.525-.755.516-.863.119-.719-1.955.969-3.239,1.462-4.986,1.194-2.365-.363-2.463-.058-.9.929A3.437,3.437,0,0,0,2965.777,1636.948Zm-3.472-3.026c.366-.273.46-1.383.165-1.446s-.735.487-.841.936c-.12.595.318.747.676.51Zm3.661-.048.629-.058c-.321-2.783-3.317-2.9-3.87.279l.474.071c.619-2.537,2.431-2.467,2.767-.292Zm1.976-.449c.916-.515.6-1.154-.637-1.4-.812-.192-.767.477-.346,1.385.209.451.355.366.982.013Zm-7.056-3.411a3.243,3.243,0,0,0-.28-1.112,16.451,16.451,0,0,1-1.519-7.966c.086-2.3.114-3.007-.359-3.01-.661.321-1.052,4.595-.21,8.153C2959.112,1628.59,2960.93,1631.706,2960.886,1630.014Zm-.025-3.479c-.065-1.2.2-3.889.067-4.476a3.3,3.3,0,0,0-.88-1.654c-.4-.288-.5.264-.359,1.706.322,3.383.861,5.944,1.172,4.424Zm.334-6.157c.261-.475.159-.978-.416-2.109-2.265-4.456-2.559-7.5-.193-8.608.265-.124.432-.147.608-.246.746-.417.462-1.174-.654-.861-3.082.863-3.689,3.772-1.091,9.156,1.323,2.686,1.528,3.062,1.745,2.668Zm.561-2.527c.041-.187.12-.915.151-1.064a12.253,12.253,0,0,0-.614-1.438c-.871-2.243-.889-3.174.059-3.824.307-.182.624-.191.672-.4.074-.326.069-.861-.125-1.016a2.171,2.171,0,0,0-2.225,1.57c-.36,1.2.015,2.964,1.082,5.148.517.68.788,1.925,1,1.024Zm1.039-2.9c.727-1.48.037-3.4-.963-2.743-.649.424-.682.873-.284,2.105.485,1.5.772,1.6,1.247.638Zm2.549-3.959c.291-.29.033-.707-.5-2.342-.461-1.4-.25-2.357.627-2.633,1.259-.313,1.7,1.762,1.969,2.637.137.676.577.862.968.392.109-.131.141-.241-.046-.978-.812-3.217-1.875-4.24-3.585-3.439-1.586.743-1.378,2.405-.228,5.9.154.468.256.815.367.863C2965,1611.428,2965.182,1611.15,2965.344,1610.989Zm1.405-1.092c.375-.375.353-.206-.077-1.548-.491-1.531-.748-1.85-1.275-1.324-.324.323-.161.679.209,1.931.429,1.455.544,1.538,1.142.941Zm65.74-5.241c2.5-1.74,1.47-4.863-1.824-6.021-.388-.137-.817-.3-.951-.367-1.513-.734-2.691-.961-2.694-.387,0,.337.452.507,1.9,1.22,2.146,1.054,2.631,2.272,1.572,3.807-.764,1.107.667,2.375,1.994,1.749Zm2.27-3.8c.218-.893.541-1.659.7-2.18.213-.814-.061-.625-.6-.5-1.38.722-2.367.33-1.7,1.322C3033.905,1600.819,3034.52,1601.838,3034.759,1600.856Zm-.171-3.122a3.183,3.183,0,0,0,.5-5.029,5.758,5.758,0,0,0-1.847-.961,11.4,11.4,0,0,0-4.839-.465c-.185.22-.192.566-.008.666a6.276,6.276,0,0,0,1.3.213c2.393.245,3.573.963,3.458,2.674-.118,1.764-1.517,2.441-4.042,1.884-1.358-.3-1.99-.155-1.446.165a12.789,12.789,0,0,0,3.414,1.153,5.271,5.271,0,0,0,3.509-.3Zm-8.251-.445c1.935-4.376,2.954-15.856-8.1-24.155l.366,2.3a20.19,20.19,0,0,1,6.73,19.8Zm9.872-7.846a14.522,14.522,0,0,1-2.16,1.321c-.532.24-.546.3.177.7a5.746,5.746,0,0,1,1.146.786c.383.416.834.575,1,.424C3036.357,1592.019,3036.578,1589.865,3036.209,1589.443Zm-3.273.829c2.24-.713,3.438-1.8,3.183-3.615-.374-2.665-2.586-3.228-6.729-2.187-1.992.5-2.17,1.444-.279.958,2.388-.614,4.263.314,4.009,2.075-.148,1.52-1.361,2.406-3.49,2.406-1.124,0-1.472.1-1.32.509C3028.414,1590.695,3032.013,1590.566,3032.936,1590.272Zm-3.7-6.33c3.661-1.264,5.363-3.229,4.527-5.431-.985-2.593-4.18-2.619-7.391-.206-1.5,1.106-1.269,1.516.184.953,1.883-.872,3.095-1.007,3.867-.314,1.393,1.252.453,3.436-1.66,4.219-1.023.429-1.351.665-1.353.974,0,.49.183.372,1.826-.195Zm6.175-.041c.095-.767-.766-3.428-1.138-2.815a5.289,5.289,0,0,1-.872,1.3c-1.259,1.137-1.021.707.229,1.055C3034.329,1583.637,3035.311,1584.13,3035.414,1583.9Zm-9.683-5.686c3.7-2.161,5.114-5.246,3.2-7.3-1.724-1.843-4.582-.77-7.237,2.581-1.217,1.536-.3,1.343,1.338-.118,1.912-1.7,4.343-.88,4.33,1.244-.008.908-1.28,2.434-2.485,3.143a.568.568,0,0,0-.3.778c.143.237.443.084,1.155-.332Zm6.488-2.254c-.193-.581-1.585-3.074-1.884-2.989-.316.639-.339,1.48-.718,2.158-.516,1.019-.451.859,1.193.854,1.223,0,1.371.169,1.409-.023Zm-10.878-2.819c3.11-3.251,3.384-7.058.471-7.934-1.614-.485-4.194.69-4.2,1.9-.008.756.136.893.79.621,2.748-1.029,4.926,1.632,2.4,4.692-.614.886-.7,1.108-.518,1.291.21.214.38.134,1.057-.574Zm33.508-27.8v-86.363h-18.213l-14.454,22.945-.022,5.63c0,.194.328.315.541.071.821-.64.5.032-.44,1.48-.955,1.465-.663,2.672.381,4.236,2.214,3.315,3.368,9.4,2.426,12.617a3.52,3.52,0,0,0-.2,2.384,2.623,2.623,0,0,0,1.2,1.693,130.976,130.976,0,0,1,15.021,8.365l-.043-40.482,5.579-5.388,5.894,5.682.207,66.834c0,.707,2.129,1.343,2.129.3Zm-3.208-66.939-4.935-4.631-4.879,4.562c-.025,21.77.124,66.45.124,66.45l4.849.351a8.328,8.328,0,0,0-.1-3.654c-.682-3.954-.639-8.783.455-16.128a30.489,30.489,0,0,0-1.029-12.527,19.754,19.754,0,0,1-.767-7.732c.345-3.91,1.413-6.863,1.544-12.489.074-3.207-.078-6.348.039-10.3.048-.53.27-.465.31.082.148,3.581.286,6.982.318,10.479-.106,4.547-1.21,9.226-1.331,13.388a15.677,15.677,0,0,0,1.071,7.392c1.9,5.517.65,13.993.627,14.143-.8,5.43-1.391,12.377,1.326,17.574l2.634.237Zm-33.954,41.068c1.456-.675,1.745-1.865.961-4.731-.14-.512-.3-1.12-.355-1.352-.168-.708-.484-.785-.905-.222-.251.336-.019.414.367,1.99.585,2.383.245,3.17-.634,3.165-.779-.005-1.386-.652-1.609-2.2a3.133,3.133,0,0,0-.313-1.1c-.212-.354-.467-.29-.673.1-.266.506.234,2.591.9,3.6.72,1.019,1.217,1.228,2.262.745Zm-.4-2.14c.31-.587-.075-2.031-.275-2.976-.185-.528-.4-.657-.742-.571-.516.127-.491.7-.3,1.633C3016.351,1517.324,3016.557,1517.565,3017.291,1517.331Zm4.426-3.441c1.666-.957,1.825-2.607.706-5.609-.459-1.231-1.031-2.1-1.346-2.106-.123.783-.238,1.2-.1,1.507.13.285.348.722.5,1.087.948,2.214.692,3.491-.223,4.183-.854.646-.314,1.189.457.938Zm-54.526-1.154c3.907-.842,7.432-7.169,9.651-12.812,2.022-5.684,4.172-11.93,4.512-17.139,0,0-1.478.069-1.659.377a8.433,8.433,0,0,0-.4,1.887,74.458,74.458,0,0,1-3.605,12.934,48.411,48.411,0,0,1-5.921,11.419,6.1,6.1,0,0,1-3.932,2.373,6.159,6.159,0,0,0-1.248.1c-.3.213-.03.7.743.891a4.275,4.275,0,0,0,1.857-.032Zm53.84-.74c.6-.638.655-1.4-.014-3-.187-.45-.273-.7-.5-.642-.472.132-1.022,1.38-.7,2.436.425,1.377.672,1.78,1.206,1.207Zm-55.2-1.005a5.994,5.994,0,0,0,3.642-2.508,42.01,42.01,0,0,0,4.741-8.575c.882-2.022,2.475-6.388,2.908-7.969a80.646,80.646,0,0,0,1.841-7.929,1.539,1.539,0,0,0,.01-.688,2.4,2.4,0,0,0-1.752.258,80.2,80.2,0,0,1-2.757,10.938c-1.572,5.469-6.054,14.218-8.5,14.631-1.314.222-2.819-.929-2.577-2.11.149-.725.247-1,.6-1.182.852-.3,1.347.282.413.663-1.083.948.866,2.4,2.063,1.385,2.028-1.717-.952-5.005-3.392-3.494-2.7,1.674-2.008,4.574-.308,5.952a3.733,3.733,0,0,0,3.065.628Zm19.139-3.926a17.13,17.13,0,0,0,3.836-6.755,105.257,105.257,0,0,0,4.21-19.1s-1.427-.149-1.744.155c-.224.214-.009.418-.616,4.537a80.281,80.281,0,0,1-4.653,17.126,21.026,21.026,0,0,1-1.751,3.426c-.868,1.531-.547,1.921.718.614Zm37.046-13.081c-.155-.081-.141-.028-.207.018-.228.158-.08.96.438,2.2,1.361,2.213,1.52,6.508,1.431,8.122a2.741,2.741,0,0,0,.069,1.194c.145.423.4.914.806.091a17.131,17.131,0,0,0-1.114-9.206,7.459,7.459,0,0,0-1.423-2.417Zm1.048,9.378a13.83,13.83,0,0,0-.748-5.441c-.221-.481-.619-.518-.571.028.008,1.176-.122,3.412,0,4.074.595,1.382,1.058,2.263,1.315,1.339Zm-3.082-13.709h-.642c.022,2.219-1.932,2.836-2.653.171l-.578.135c.769,3.761,4.244,2.037,3.873-.307Zm-3.906,1.673c-.333-.984-.2-1.344-1.042-.9-.647.339-1.035.7-.124,1.141.81.346,1.377.384,1.166-.239Zm4.894-.567c.268-.546.237-1.039-.168-1.041-.312,0-.4.248-.487.778-.158.947.234,1.121.655.263Zm.34-3.687c.248-.079.177-.431.111-.878-1.059-1.483-3.678-1.029-4.619-.734a2.175,2.175,0,0,1-2.1-.118c-.611-.115-.7.035-.845.329a5.1,5.1,0,0,0-.2,1.608c-.036.724-.01,1.061.24.835a6.035,6.035,0,0,1,3.73-2.041,7.447,7.447,0,0,1,3.679,1Zm-7.211,2.007c0,.3.251.113.9-.3a5.769,5.769,0,0,1,5.725-.537c.448.149.725-.323.24-.725C3018.566,1485.542,3015.622,1486.8,3014.095,1489.079Zm8.518-9.114,12.753-21.248-71.049-.053,12.064,22.559a107.36,107.36,0,0,1,46.232-1.258Z" fill="#131f67"/>
      <path id="path4098-7-2-7" d="M2959.6,1646.18c1.5-2.262,8.957,1.769,9.351,3.365,4.411-3.5,9.766-3.753,14.076.626,4.431-4.881,9.175-4.547,14.11-1.72-.551-1.1,6.31-5.973,10.48-2.878l11.279,20.24-72.251.234C2950.916,1659.591,2954.7,1651.881,2959.6,1646.18Zm-31.559-105.566c-.393-1.1-1.978-12.339,2.044-12.62,6.5,2.9,14.8,13.293,18.645,19.642,4.765,7.866,9.579,25.956,6.921,25.166-.384-.114,8.206,8.552,8.8,9.4.973,1.392-14.481,27.327-17.033,26.4-.772-.281-5.918-3.377-5.918-3.377l.147-8.653.125-17.461-14.163-1.243.5-3.8c4.75.394,9.624,1.291,14.023.265,2.895-5.341,1.789-13.309-1.692-16.52-1.841-1.13-3.58-.769-5.449-.529C2927.407,1556,2931.336,1543.122,2928.044,1540.614Zm126.819,5.776.046,3.192c-4.993,1.1-13.816-3.165-16.488,3.7.332,7.415,1.98,10.74,3.131,12.98.865,2.011,6.936-.284,9.074,1.745,6.135,7.61,4.687,17.743,4.742,26.874l-2.662,1.355c-18.393-10.933-32.517-44.9-34.474-54.564-.125-6.207,16.874-26.156,16.874-26.156.039-.043,6.194,3.776,6.194,3.776.148.061-.131,26.181-.13,26.06C3046.031,1545.6,3050.743,1546.082,3054.863,1546.39Zm-36.47-23.875c-21.451,37.822-12.678,65.8,3.106,89.949,0,0-1.365.314-1.515.179-3.457-3.1-5.871-2.556-7.639-2.584-3.379-.054-4.313.962-6.252,1.155-4.95.495-4.548.621-8.747-.973a56.521,56.521,0,0,0-18.044-9.45c-4.528.411-11.432,2.566-14.043.821,18.162-33.783,15.442-55.409-3.361-90.818,1.559.463,1.8,1.93,2.969,2.292,3.865,1.5,9.19.934,12.382-.469,5.071-2.328,10.491,3.925,26.07,10.807,1.27.66,2.875-.383,4.278-.669,2.873-.586,5.335-1.825,7.479-1.1.688.233,3.317.86,3.317.86Zm-43.3-44.208c-.925-1.734-10.382-19.868-10.382-19.868l70.345.427-10.553,17.495c-1,.949-5.954,3.6-11.011-2.4-.1.861-7.5,6.187-13.872-.227-3.832,3.511-7.741,5.544-14.19,1.593-.143,1.1-5.172,6.044-10.337,2.977Z" fill="#e2cf00"/>
      <path id="path4094-0-9-9" d="M2982.792,1649.766c-6.815-6.441-13.911-.627-13.748-.259-2.7-2.765-5.336-5.029-8.892-3.917,0,0,0-.97.027-.992,10.6,1.958,26.84,2.465,45.82-1.542l.975,2.056c-5.091-1.825-7.714.637-9.97,3.511C2988.834,1643.481,2986.841,1647.992,2982.792,1649.766Zm15.9-74.912,4.822-.095c.908,14.155,12.623,35.814,12.905,35.814-.816-1.144-8.55-.242-8.493-.1C3003.67,1599.023,2999,1587.581,2998.689,1574.854Zm-28.123,33.578s-1.551-4.057-2.479-5.793c5.062-8.726,9.214-17.758,11.345-27.8l3.448.031C2981.858,1588.734,2970.864,1609.792,2970.566,1608.432Zm62.031-1.856c7.594-13.832,6.283-33.769-15.262-44.787,0,0,.561-14.614,2.163-14.647.362.113,9.752-.122,9.752-.122,2.461-6.094,6.42-13.465,11.952-18.442l.138,16.335c-4.094.408-6.591,1.727-7.831,4.959l-5.673,1.275c.417,16.409,6.535,31.571,24.677,45.189-4.335,3.761-19.154,11.4-19.1,11.262Zm-90.908-10.31.161-17.01c2.752-.6,4.92.205,7.192-4.773,0,0,3.812,1.827,5.078,2.5C2950.557,1583.419,2947.481,1590.3,2941.689,1596.266Zm36.12-30.116.187-8.636,8.123.236a16.272,16.272,0,0,0,.016,8.785Zm18.532-.1c.554-2.826.951-5.668-.2-8.666l8.8.151-.208,8.6Zm-16.727-16.887c-1.463-16.938-12.961-36.109-13.122-35.7,1.354.219,3.74.9,5.053.269a6.078,6.078,0,0,0,3.042-.064c.106-.592,10.688,24.593,9.275,35.457-.168.368-3.9.392-4.248.039Zm20.329.149c1.241-7.825,4.445-22.138,12.012-33.746a43.192,43.192,0,0,0,2.762,6.107c-5.705,8.379-9.221,17.956-11.354,27.732Zm-52.593-4.218c-3.462-7.13-17.864-18.354-17.127-17.22,5.961-5.4,12.611-8.821,19.248-12.283,0,0,1.18,1.131,1,1.415-4.08,6.493-6.059,20.248-2.108,28.131,3.8,8.421,10.532,13.4,17.4,17.306a93.288,93.288,0,0,1-2.073,14.305s-4.315-2.291-7.851-3.765c-.562-9.942-2.6-18.835-8.487-27.889Zm38.146-69.864c5.076,3.124,9.623,2.8,14.03-1.445a10.231,10.231,0,0,0,14.046.423,9.628,9.628,0,0,0,9.847,3.258l-1.1,2.34c.264-1.243-30.747-3.273-45.752.968a13.166,13.166,0,0,1-.779-1.78c1.305-.08,5.652,1.545,9.712-3.764Z" fill="#d40000"/>
      <path id="path4092-7-7-9" d="M2963.682,1457.877l12.535,23.575s.367-.068.551-.1c17.374-3.429,31.135-3.9,45.914-1.273l13.139-21.948C3011.909,1457.852,2963.682,1457.877,2963.682,1457.877Zm1.4,1,69.706.078-3.921,6.493c-2.348-.732-3.657.355-3.985,2.627a3.176,3.176,0,0,0-.835-.186,2.4,2.4,0,1,0-.663,4.748c.819.141.958-.023.958-.023-2.861,2.427-4.485.79-5.832-.011a3.393,3.393,0,0,1-4.946-.093c3.413.344,3.944-3.109,2.312-4.423a7.864,7.864,0,0,0-.689-.6,2.117,2.117,0,0,0,.463-2.72c-1.035-2.162-4.278-2.036-4.774.325a10.061,10.061,0,0,0-.2,1.08,2.632,2.632,0,0,0-2.251,4.055,2.928,2.928,0,0,0,2.676.9c-1.4,2-4.607,1.322-6.034-.329-2.269,2.693-4.855,2.365-6.145.921a2.8,2.8,0,0,0,2.285-.774,2.529,2.529,0,0,0-1.244-4.2,3.219,3.219,0,0,0-.67-.151,4.128,4.128,0,0,0,.134-.832c.484-3.975-5.413-3.582-4.843.329a2.526,2.526,0,0,0,.187.7,2.58,2.58,0,0,0-.984.131c-3.275,1.525-1.018,5.724,1.513,4.644a9.026,9.026,0,0,1,.987-.422c-3.134,3.925-5.766,1.143-6.459.716-2.116,3.171-5.793,1.008-5.869.785a3.024,3.024,0,0,0,1.573-.418,2.523,2.523,0,0,0-.13-4.508,4.376,4.376,0,0,0-1.765-.139,4.735,4.735,0,0,0-.015-.956,2.4,2.4,0,1,0-4.568,1.316,1.984,1.984,0,0,0,.375.569,8.284,8.284,0,0,0-.922.65,2.413,2.413,0,0,0,2.665,4.009c.338-.181.667-.561.761-.538-1.235,2.279-3.109,3.074-5.781,1.188a2.921,2.921,0,0,1-5.1.22c2.513.233,4.145-4.632-.685-4.79-.376-1.321-.357-3.334-3.419-2.987Zm34.041,8.347a1.014,1.014,0,1,1-1,1.014A1.006,1.006,0,0,1,2999.12,1467.228Zm15.576.12a1.074,1.074,0,1,1-1.061,1.076A1.069,1.069,0,0,1,3014.7,1467.348Zm-30.531,1.172a1.036,1.036,0,1,1-1.026,1.034A1.027,1.027,0,0,1,2984.165,1468.52Zm43.736,1.273-.888,1.595C3026.033,1470.52,3026.708,1469.382,3027.9,1469.793Zm-55.93,2.2-.883-1.648C2972.669,1470.451,2972.2,1471.595,2971.971,1471.991Zm27.019-.9c5.982,6.888,11.347,4.851,14.855.27,1.505,3.9,4.858,6.6,10.629,3.978a18.16,18.16,0,0,1-1.225,1.726c-5.1,1.389-7.631-1.037-9.6-3.347-5.188,4.353-10.074,3.3-14.1-.542-3.441,4.378-9.012,5.319-14.17,1.745-2.358,3.517-5.74,4.937-9.993,3.177,0,0-.9-1.433-.98-1.524.616.522,8.449,3.808,10.361-4.094,2.726,4.676,11.666,4.924,14.227-1.389Zm.6,2.832c6.729,6.359,13.791.86,13.971.472.106.354,3.946,4.988,9.484,3.247l-.9,1.559c-10.42-1.781-20-2.926-41.955.337a10.459,10.459,0,0,0,5.276-3.874C2986.453,1476.315,2994.068,1480.611,2999.591,1473.926Zm-23.585,5.27s2.929.348,3.159.407c.257.2-2.466.957-2.477.9Zm5.939,30.342c-.178.005-.4.207-.766.572-.795.791-.975.9-1.746,1.006a6.642,6.642,0,0,0-2.554,1.486,2.183,2.183,0,0,1-1.045.422l-1.222.213a2.559,2.559,0,0,0-.658.19,2.4,2.4,0,0,1-1.742.1,2.1,2.1,0,0,0-1.558.074,2.782,2.782,0,0,1-2.374,0,2.612,2.612,0,0,0-1.957-.295c-.811.265-2.91-1.005-2.906-1.756a3.659,3.659,0,0,0-1.493-1.076c-1.064-.16-10.416,3.572-10.368,3.788,11.483,14.334,21.149,36.172,13.867,62.9l-1.286-.623a97.112,97.112,0,0,0,1.842-14.712c-21.554-9.4-23.409-31.274-15.043-45.08l-1.421-1.529c-5.069,2.734-10.22,4.286-22.75,14.91l.034,17.2c.032,15.546.024,30.693.024,30.693,4.534.508,9.528.922,14.453,1.351,0,0-.063,15.374-.176,21.387-.1,5.086.092,4.767.092,4.767l16.31,8.691c-1.146-4.578,1.683-6.4,4.051-6.206-1.047-4.413,1.551-6.434,4.518-5.867,2,.383,2.7,1.5,3.852,5.189.186.6.442,1.4.442,1.4l1.143-.043c1.431-3.1,2.387-7.057,5.754-7.569,4.406-.671,6.047,2.389,6.045,5.448,4.27-3.8,9.384-.859,9.051,4.821,2.148-1.4,5.788-2.658,8.081,2.724.862-.183,1.3-1.154,2.514-1.458a8.781,8.781,0,0,0,1.482-.654l.013-.187a14.872,14.872,0,0,1,2.231-.545c1.1.414.777.4,1.368-.337a5.185,5.185,0,0,1,2.549-.491,3.244,3.244,0,0,0,1.754-.081c.788-.348,1.524-.437,1.991.089.335.377.819.195,1.34.174a3.1,3.1,0,0,1,2.86,1.335,8.96,8.96,0,0,0,2.033,1.323l1.129-.263.13-.421,9.239-3.564c-18.839-20.848-18.347-48.505-13.91-62.505l1.7.828a56.121,56.121,0,0,0-1.8,14.6c16.965,7.644,25.405,27.4,15.12,44.651l1.087,1.42c4.279-1.815,15.042-7.922,18.761-11.241l.793.065s2.255-1.476,3.25-2.263l.134-45.769-.788.209-.142-2.674-13.986-1.122c.178-.135.312-.189.352-.457l-.081-25.338c-.519-.8-12.233-7.738-16.59-9.36-.174,0-.054.3.008,1.021.214,2.486-1.446,4.7-3.369,4.7-.692,0-.812.3-.777,1.726a3.82,3.82,0,0,1-2.791,4.163c-2.507.914-4.2-.411-5.6-5.622-.366-1.369-1.083-1.027-1.769.843a44.99,44.99,0,0,1-2.1,4.369,4.457,4.457,0,0,1-2.4,1.8,5.082,5.082,0,0,1-3.753-.193c-1.923-.988-2.669-2.174-3.223-5.112-.073-.384-.322-.351-.946.124-3.4,2.586-8.172-.088-8.144-4.558.008-1.313-.045-1.365-.808-.736-2.3,1.9-5.432.937-6.685-2.058-.293-.7-.449-1.014-.677-1.006Zm-19.519,1.586c.24-.01.988.995.988.995a10.187,10.187,0,0,0,2.58,1.733c.09-.136,11.243,14.993,13.14,35.852l5.188.027c-.967-20.268-6.5-30.01-9.036-36.262l1.861-.6c4.172,8.08,9.258,24.478,9.089,38.835h-8.568a79.2,79.2,0,0,0-14.481-39.036c-.539-.817-.96-1.387-.8-1.532a.065.065,0,0,1,.043-.016Zm-3.282,2.14.87,2.755a1.918,1.918,0,0,1,.371-.886c1.693-1.542,3.313.488,2.55,3.243-.175.848-.513,2.519-.513,2.519a25.443,25.443,0,0,0-2.558-1.165c-2.361-1.014-3.148-3.012-1.344-3.239.3-.038.923-.066.923-.066-.75-.6-2.4-1.958-2.4-1.958Zm7.926.31a5.353,5.353,0,0,0,3.61.448,4.83,4.83,0,0,1,2.393-.069,7.111,7.111,0,0,0,1.524-.182,97.589,97.589,0,0,1,9.143,35.286l-3.989.024a84.979,84.979,0,0,0-12.31-34.432c-.267-.408-.622-1.06-.371-1.075Zm16.666.185c1.545.019,3.161,1.575,4.04,4.121.489,1.418.68,1.332,1.336,1.1,1.685-.583,3.48,1.287,1.222,1.6-2.217.371-.952,4.753-1.141,5.139-.9.159-2.587-3.566-2.543-4.674.108-2.717-2.416-4.988-3.985-3.847-.744.541-.663.923-.892.728a2.487,2.487,0,0,1-.024-3.189,2.59,2.59,0,0,1,1.987-.979Zm45.892.937s.087,3.572-.046,4.361c-.263,2.381-3.341,2.631-3.461.727a8.177,8.177,0,0,0-1.049,2.558l-2.182-1.517a11.461,11.461,0,0,0,2.232-1.873c-1.618.124-2.522-1.291-1.44-2.5,1.2-1.379,4.528-1.528,5.946-1.76Zm-80.243,1.13.965,1.1c-8.6,15.4-5.567,35.1,15.188,45.444a65.509,65.509,0,0,1-1.853,13.942l-7.657-3.754c.051-17.417-9.707-34.022-25.285-44.937a91.6,91.6,0,0,1,18.642-11.794Zm62.7.131c.366,2.034,2.271,5.717,2.409,5.507-.02-.121-7.93,10.239-11.368,27.566l-2.937.012a97.5,97.5,0,0,1,11.9-33.085Zm24.378.484,1.562.956c-8.2,6.935-13.594,15.728-17.558,25.21l-2.072-.991c6.147-13.754,12.22-19.863,18.068-25.175Zm2.186,1.536c.429.028.938.576,1.727,1.014.771.428.579.655-.873,1.78-1.718,1.331-1.879,1.272-1.865-.627.01-1.259.325-2.1.927-2.163a.473.473,0,0,1,.084,0Zm-1.887,1.958a.214.214,0,0,1,.21.1,8.274,8.274,0,0,1-.088,2.79c-.162.748-2.365,2.627-3.151,3.37-.315.209-.459.133-.517-.24.025-.59.082-1.375.092-2.175,0-.246-.048-.5.173-.692,1.079-1.288,2.65-3.12,3.281-3.154Zm4.093.612a.048.048,0,0,1,.03.008,8,8,0,0,1,.027,2.875,6.286,6.286,0,0,1-2.8-.345c-.1-.3,2.329-2.555,2.741-2.538Zm-76.778.835.6,2.531s.171-.339.215-.406c1.187-1.835,2.631-.759,2.607,1.787a40.066,40.066,0,0,1-.731,4.021s-4.455-2.162-4.8-3.111a1.262,1.262,0,0,1,.965-1.83,3.313,3.313,0,0,1,.98,0l-1.915-1.978Zm51.007.337,2.021.755c-4.216,6.93-8.566,13.776-11.735,29.389H2996.9a91.956,91.956,0,0,1,7.872-28.051s1.664-.516,2.6-.824c0,0-7,16.195-7.818,26.607l4.093.089C3005.83,1539.538,3009.918,1529.022,3015.083,1521.719Zm-16.043.251c1.138-.042,1.978.767,1.914,2.2-.014,1.313-.133,1.5-1.053.979a2.657,2.657,0,0,0-3.242.078c-.6.43-1.18.785-1.18.785a7.793,7.793,0,0,1,1.321-3A3.672,3.672,0,0,1,2999.04,1521.97Zm-4.346,3.375a7.879,7.879,0,0,1-.509,1.784s.663-.261.98-.411a2.216,2.216,0,0,1,3.052,2.144,2.414,2.414,0,0,1-2.351,2.268,2.289,2.289,0,0,1-1.413-.5c.34,1.882.408,2.752-.953,3.7a2.347,2.347,0,0,1-3.4-2.214l.084-1.3-1.152.151a2.277,2.277,0,0,1-.678-4.5,3.041,3.041,0,0,1,2.163.611,3.63,3.63,0,0,1,.161-3.451c1.635-1.921,4.221-.175,4.02,1.714Zm28.107-2.5c.176,1.5.765,3.133.6,4.531-.25,1.788-1.754,2.846-2.936,1.687-.146-.143-.41-.441-.41-.441a8.29,8.29,0,0,0-.865,2.612l-2.087-1.3a10.789,10.789,0,0,0,1.849-1.614,1.483,1.483,0,0,0,.165-.472,1.51,1.51,0,0,1-1.83-1.892c.628-1.735,3.751-2.377,5.517-3.111Zm14.584,1.083a27.111,27.111,0,0,1,2.944.3c.735.13.327.548-1.317,2.167-1.51,1.487-1.463,1.347-2.627,1.327-2.718-.046-3.194.016-1.612-1.71a10.335,10.335,0,0,1,2.148-2.024,1.969,1.969,0,0,1,.464-.062Zm-4.9.314a.132.132,0,0,1,.088.039c.18.169.119.944.1,2.089-.021,1.219-.008,1.22-.513,1.858-.644.814-1.178,1.646-1.85,2.43-.581.637-.563.569-.911-.964-.337-1.487-.149-1.95,1.746-4.1C3031.785,1524.757,3032.242,1524.231,3032.484,1524.242Zm8.488.847.024,3.015a50.944,50.944,0,0,0-12.011,18.647l-1.953-.785a57.113,57.113,0,0,1,13.94-20.877Zm-48.617,1.823a1.7,1.7,0,1,0,1.681,1.7A1.685,1.685,0,0,0,2992.355,1526.912Zm-.011.534a1.173,1.173,0,1,1-1.157,1.172A1.167,1.167,0,0,1,2992.344,1527.446Zm-62.309.716c17.494,11.343,25.339,28.928,25.3,44.035l-.988-.449c-1.024-21.346-12.5-34.47-24.914-42.963Zm103.575.162c.4,0,.935.064,1.715.155,1.448.078,1.626.171.628,1.327-.273.317-.8.98-1.168,1.478a4.169,4.169,0,0,1-1.026,1.092,21.89,21.89,0,0,1-3.572-.116c-.238-.034.074-.279,1.313-2.067.949-1.37,1.05-1.824,1.949-1.865.051,0,.1,0,.161,0Zm7.286.581s.347,9.73.1,15.935c-3.991-.15-6.335,1.381-7.31,4.279l-4.192-2.1A55.1,55.1,0,0,1,3040.9,1528.905Zm-12.352.224c.227,0,.357.478.422,1.413.264,1.672.235,1.867-.456,2.94-.344.535-.815,1.29-1.045,1.68-.4.68-.685.883-.785.553-.546-1.8-.719-2.921-.525-3.285.319-.6,1.808-2.737,2.018-3.015.146-.192.268-.287.371-.286Zm-99.8.182c14.063,8.8,24.351,23.828,24.776,41.985,0,0-3-1.422-4.847-2.461l-.1-1.765.976-.031.314,1.989,2.148-.07-.571-4.964-3.361.321-.678-2.813,1.019-.221.562,1.815,2.187-.584-1.164-4.423-3.377.932-1.08-2.987,1.122-.406.907,1.788,2.056-.724-1.941-4.435-3.1,1.482-1.577-2.894,1.214-.654.976,1.722,1.922-1.006-2.378-4.079-2.948,1.664-1.482-2.244.915-.646,1.011,1.18,1.689-1.207-2.589-3.518-2.821,2.233-2.087-2.442.961-.824,1.436,1.3,1.6-1.416-3.074-3.39-2.688,2.477-2-1.757.98-1.1,1.248.963,1.329-1.59-3.347-2.786-2.508,2.507-2.4-1.605v-1.2a21.736,21.736,0,0,1,2.347,1.056l1.244-1.9-3.591-2.449Zm39.164.751.533,3.1c.5-.844.906-1.425,2-1.1,1.312.54,1.33,2.536.218,5.592a10.157,10.157,0,0,1-.459,1.056,6.248,6.248,0,0,1-.957-.507,9,9,0,0,1-2.845-2.283c-.723-1.153-.739-2.765.59-2.627a4.817,4.817,0,0,1,.785.127l-1.995-2.569Zm-39.937.925,2.435,1.586-.506.929-1.929-.879Zm61.049.731c.705,1-1.777,3.934,1.47,5.108a1.175,1.175,0,0,1-.6,1.087c-1.589,1.168-3.87-.964-3.162-3.158C2987.187,1533.352,2988.5,1531.726,2989.024,1531.718Zm6.739.093s.979.723,1.175.913c1.808,1.752,1.825,4.264.188,5.143a2.021,2.021,0,0,1-2.749-.736.565.565,0,0,1,.543-.8c.781.005,1.376-1.505,1.145-3.095C2995.974,1532.6,2995.763,1531.811,2995.763,1531.811Zm21.333.584a21.381,21.381,0,0,0,.525,3.1c.949,2.669-.264,4.3-2.037,3.4a3.557,3.557,0,0,1-.7-.708l-.176,3.068-2.523-.743c.546-.886,1.331-1.517,1.918-2.515,0,0-.378-.013-.708-.015-1.507.052-2.063-1.636-.483-3.026a29.132,29.132,0,0,1,4.185-2.562Zm13.19.712c.306,0,.686.023,1.21.023,1.6,0,2.011-.217,1.306.79-.275.392-.946,1.485-1.145,1.857-.4.755-.484.993-1.156,1.142a23.111,23.111,0,0,1-3.189.112c-.242-.012.255-.85.532-1.37.679-1.275,1.093-2.151,1.677-2.419a1.773,1.773,0,0,1,.766-.135Zm-4.946.987c.193-.011.336.34.52,1.064.43,1.69.541,1.732-.153,3.119-.35.7-.945,1.885-1.19,2.376-.629,1.258-.665,1.246-1.061.12-.76-2.161-.826-1.938.429-4.365C3024.669,1534.892,3025.057,1534.109,3025.34,1534.094Zm-92.281.592,2.263,1.834-.643.631-1.252-.933-1.849,2,3.04,2.8,2.573-2.561,2.205,2.329-.674.577-1.294-1.262-1.937,1.672,2.891,3.451,2.913-2.244,1.827,2.419-.747.472-1.191-1.169-1.9,1.327,2.359,3.359,2.971-1.722,1.688,2.806-.938.456-.957-1.54-2.133,1.242,2.014,3.928,3.208-1.354,1.291,3-.98.4-.824-1.8-2.159.863,1.447,4.124,3.255-.944.788,3.065-1,.283-.494-1.7-2.071.5.865,4.14,3.312-.213.4,3.348-1.03.046-.257-2-2.11.027c.012.7.092,2.14.092,2.14l-1.275-.6a46.032,46.032,0,0,0-18.715-30.72l-.053-1.521,2.45,1.571s2.247-2.023,2.634-2.538Zm96.672,2.968c.7-.006.392.545-.463,2.19-.954,1.836-1.123,1.874-2.91,2.314-2.173.536-2.109.655-.934-1.877a6.971,6.971,0,0,1,1.2-2.155c.545-.426,1.6-.263,2.745-.437a2.638,2.638,0,0,1,.364-.035Zm-101.638.542c10.453,6.815,17.06,20.912,17.881,29.458a6.8,6.8,0,0,0-.854-.456c-.792-.368-.987-.608-1.218-1.772a43.579,43.579,0,0,0-15.762-25.582Zm94.26,1.745c.443-.093,1.248,3.115,1.007,3.788-.173.484-1.728-.658-2.293-.9-.283-.121.988-2.823,1.287-2.886Zm-50.405.147-.05,3.328a5.518,5.518,0,0,1,.6-.627c.778-.573,1.966.221,2.011,1.2.062,1.362-.142,1.915-1.222,3.808-.334.585-.838,1.331-.838,1.331a24.021,24.021,0,0,1-2.669-2.322c-1.506-1.516-1.218-3.541.1-3.548a3.412,3.412,0,0,1,1.091.244,20.284,20.284,0,0,0-1.344-2.883Zm40.857,2.492a12.534,12.534,0,0,1,1.466,3.3c.749,2.281-.4,4-1.968,3.138a2.682,2.682,0,0,1-.574-.488,17.231,17.231,0,0,0,.111,3.111l-2.523-.445a18.982,18.982,0,0,0,1.485-2.774s-.156.124-.85.124c-2.535,0-2.009-3.05.919-4.74.44-.254,1.933-1.223,1.933-1.223Zm14.534.038c.548-.024.289.512-.318,1.765-.672,1.385-.5,1.265-1.922.534-1.984-.98-1.867-1.133.647-1.819A6.87,6.87,0,0,1,3027.339,1542.618Zm-35.983.407c1.987.012,3.453,1.993,3.159,4.81-.5,4.834-.215,4.536.306,5.018.949.879-.336,1.407-1.466.569-.787-.583-1.044-1.159-1.007-3.827.042-3.066-.122-3.847-1.206-3.579-.677.167-.891.749-.816,2.817.1,2.9-.085,3.633-1.175,4.562-1.176.92-2.445.1-1.371-.507.491-.558.584-1.268.394-3.022-.207-1.494-1.069-6.867,3.182-6.841Zm49.881,2.445c3.824.145,13.492.941,13.492.941l.085,2.886c-.432.269-7.648-.843-12.957-.743-1.241.024-2.119.578-3.017.113.862.361.783,4.715-3.013,3.66-3.219-1.17-1.651-5.569,2.465-6.679a18.725,18.725,0,0,1,2.945-.178Zm-22.031,1.927,8.263,4.118c1.156,15.676,6.511,32.239,24.749,44.794a100.9,100.9,0,0,1-18.838,10.977l-.693-.75c10.058-17.287,2.46-36.314-15.154-44.926A69.3,69.3,0,0,1,3019.206,1547.4Zm29.064,2.628c1.585-.063,2,.121,2.133.847.128.686.632.847,1.229.627,1.454-.536,2.342,2.071,1.137,3.227-.748.718-.617.995,0,1,1.519.009,1.474,2.018-.069,3.157-.64.473-.631.687.039,1.022,1.122.56.9,1.666-.528,2.577-.775.5-.8.617-.161.793,1.611.444-.033,2.764-1.8,2.353a2.6,2.6,0,0,0-2.1.445c-1.888.795-2.2.952-4.242.7-1.79-.331-2.589-.927-3.052-2.515-1.049-3.229-2.181-6.806-2.194-10.332-.158-2.164,3.432-4.121,5.132-4.206,1.385-.21,2.974.3,4.479.31Zm-113.013.054a3.475,3.475,0,1,1-3.438,3.475A3.457,3.457,0,0,1,2935.257,1550.079Zm38.211,1.022-.31,3.037s.505-.4.624-.5a1.238,1.238,0,0,1,1.987,1.265,13.808,13.808,0,0,1-2.581,4.764s-2.839-3.127-3.143-3.738c-.675-1.359.247-2.776,1.474-2.175a8.018,8.018,0,0,1,.682.464l-.9-2.882Zm-37.981.243c-1.215.042-2.369.8-2.213,1.8.1.428.751-.19,1.39-.6a1.708,1.708,0,0,1,1.635-.116c.494.178.7.638.991.994.243.3.509.546.659.4a.626.626,0,0,0,.042-.538,2.352,2.352,0,0,0-2.5-1.943Zm92.59.472,1.229.635c1.655,22.154,12.739,35.179,24.386,42.937l-.927.565a54.808,54.808,0,0,1-24.687-44.137Zm1.861.91s3.086,1.6,4.7,2.333l.061,2-1.079.039-.368-1.884-2.244.162.7,4.636,3.618-.449.506,2.8-1.226.259-.628-1.722-2.075.511,1.344,4.5,3.262-1.064,1.023,2.945-1.095.4-.7-1.726-2.148.759,1.662,4.395,3.4-1.1,1.371,2.751-1.03.46-.984-1.706-2.037,1.052,2.389,4.106,3.067-1.625,1.431,2.194-1.125.762-1.022-1.343-1.651,1.1,2.642,3.645,2.642-2,1.976,2.3-.873.782-1.348-1.382-1.6,1.44,3.148,3.49,2.733-2.4,1.942,1.827-.575.611-1.3-.824-1.731,1.857,3.3,2.906,2.623-2.906,2.224,1.656v1.223l-1.987-1.018-1.332,2.028,3.319,2.538-.023,1c-18.95-11.426-23.936-29.148-24.9-42.329Zm-38.8.22c.819-.025,1.684.754,3.112,2.427,3.994,4.675,2.928,11.907-2.293,15.679-.761.55-1.066.5-1.995-.306-5.355-4.65-5.663-10.868-.9-16.329.825-.944,1.435-1.451,2.072-1.471Zm19.139.643c.985,1.525,2.228,3.095,2.37,4.949-.07,1.832-1.293,2.169-2.557,1.1a8.977,8.977,0,0,0,.382,2.836l-2.289-.248a7.75,7.75,0,0,0,.934-2.577,1.576,1.576,0,0,1-2.588-1.517c.454-2,2.082-3.351,3.748-4.546Zm-19.071,1.2a1.4,1.4,0,0,0-.681.387,10,10,0,0,0-3.059,4,8.509,8.509,0,0,0,2.289,9.252c1.375,1.369,1.859,1.275,3.967-1.556a8.282,8.282,0,0,0,1.045-8.095,8.925,8.925,0,0,0-2.645-3.483c-.444-.352-.674-.522-.916-.5Zm44.046.569,1.777.882c2.266,15.109,9.613,24.326,17.845,30.682l-.015,1.4-2.209-1.73-2.646,2.8-2.144-1.776.8-.79,1.222.786,1.562-1.769-3.075-2.77-2.68,2.349-2.232-2.322.678-.573,1.543,1.362,1.726-1.547-2.986-3.386-2.672,2.047-1.865-2.5.812-.488.976,1.355,2.06-1.3-2.179-3.385-3.105,1.609-1.589-2.894.9-.437,1.03,1.625,1.933-.94-1.945-3.994-3.174,1.06-1.167-3.142.907-.336.8,1.857,2.148-.7-1.459-4.3-3.281.937-.812-3.162,1.015-.22.532,1.706,2.255-.456-.827-4.094-3.357.429a30.477,30.477,0,0,1-.6-3.277l1.034-.085.326,1.8,2.259-.077Zm-43.927.329c1.231.171,2.735,2.566,3.074,3.436a7.682,7.682,0,0,1,.112,5.259,11.857,11.857,0,0,1-2.853,4.137c-.742.406-1.363.1-2.423-1.351-2.095-2.877-2.5-6.336-.846-8.706,1.262-1.811,2.2-2.777,2.936-2.775Zm46.309.747.892.426c1.095,8.754,6.229,20.769,16.333,27.957v1.1c-7.858-5.7-15.072-15.531-17.225-29.482Zm-46.466.6c-3.519,2.681-2.955,6.877-.29,9.7C2993.753,1564.809,2994.769,1559.622,2991.172,1557.025Zm-53.7.178c1.985-.047,3.243.652,3.848,2.043a12.935,12.935,0,0,1,1.26,3.7c.11.648.28,1.625.375,2.171,1.03,5.869.272,8.081-3.255,9a8.145,8.145,0,0,1-3.545.112c-.269-.066-1.255-.072-2.029-.1a3.686,3.686,0,0,1-2.78-.847,1.857,1.857,0,0,0-.881-.465c-1.759-.281-2.285-1.91-.949-3.115.76-.686.836-.776.766-.894a1.433,1.433,0,0,0-.724-.123c-1.774-.012-1.756-1.856.03-3.173.849-.627,1.232-1.217.67-1.072-1.617.385-2.188-2-.5-2.745.9-.509,1.546-.934.677-.982-.729.064-1.322-.48-1.1-1.121a2.538,2.538,0,0,1,2.6-1.22c.667.207,1.317.4,1.734.093a4.729,4.729,0,0,1,2.336-1.184,10.859,10.859,0,0,1,1.459-.081Zm58.99.449,8.155.158-.241,8.084-7.681-.147a10.546,10.546,0,0,0-.233-8.095Zm-18.275.185,7.811.1a12.478,12.478,0,0,0-.334,7.94l-7.646-.119Zm13.045.012c2.1,1.236,2.676,5.736-.24,8.049C2988.22,1563.017,2988.775,1559.508,2991.234,1557.849Zm-19.271,3.514,2.1.2-.747,3.03a2.519,2.519,0,0,1,.448-.4c2.69-1.277,2.884,1.617.146,4.229-.606.576-1.578,1.366-1.578,1.366s-.762-1.164-1.366-2.217a4.922,4.922,0,0,1-1.038-2.794c.171-.873,1.21-1.45,1.872-.917a8.848,8.848,0,0,1,.705.662Zm37.392,2.221s.878.91,1.413,1.5c1.849,2.045,2.167,3.958,1.229,4.539a1.621,1.621,0,0,1-1.953-.414,12.706,12.706,0,0,0,1.107,3.142l-2.761.449a17.974,17.974,0,0,0,.624-3.5,6.244,6.244,0,0,1-.819.549c-1.8.665-2.7-1.4-1.214-3.467a21.484,21.484,0,0,1,2.374-2.8Zm37.709,3.831a3.39,3.39,0,1,1-3.354,3.389A3.371,3.371,0,0,1,3047.064,1567.415Zm1.654,1.551c-.144.033-.263.369-.279,1.111a1.767,1.767,0,0,1-2.787,1.428c-.554-.285-1.025-.707-1.027-.383a3.933,3.933,0,0,0,.758,1.389c1.161,1.054,3.986.8,3.921-1.653-.03-1.156-.345-1.946-.586-1.892Zm-60.9,1.273a1.5,1.5,0,0,1,1.122.438c.917.633,1.091,1.441,1.149,4.492.051,2.692,0,2.757.436,3.084,1.076.8,1.724-.419,1.417-3.146-.3-2.625.64-4.533,2.209-4.523.772.005.916.463.329,1.048-.619.618-.768,1.373-.574,2.891.5,3.89.067,5.8-1.551,6.59a2.986,2.986,0,0,1-4.238-2.276,18.109,18.109,0,0,1-.073-4.744c.03-1.687-.008-1.88-.59-2.848-.411-.649-.1-.974.364-1.006Zm-42.438,1.262a2.78,2.78,0,0,1,2.482,1.753c1.4,2.916-1.63,5.314-4.407,5.5a110.5,110.5,0,0,1-15.388-1.281l.077-2.755c4.44.26,9.446.624,14.84.879-.614-2.562.842-4.095,2.4-4.1Zm25.354.565,2.684.6-1.707,2.82a1.635,1.635,0,0,1,1.363-.189c1.093.4,1.108,1.8.306,3.107a12.655,12.655,0,0,1-3.633,2.782c-.684-1.483-2.194-4.08-1.593-5.5a1.448,1.448,0,0,1,2.025-.708c.272.164.793.433.793.433Zm6.345.077,8.178.1c-1.189,8.357-3.515,19.515-8.1,28.611l-1.926.5a94.977,94.977,0,0,0,7.987-26.99h-4.089c-2.352,10.17-5.832,19.595-11.184,27.784l-2.377-.782c5.717-9.162,10.249-19.387,11.509-29.223Zm18.653.147h9.117c1.677,17.016,7.365,28.629,15.831,40.116a1.723,1.723,0,0,1-.85-.016,5.279,5.279,0,0,0-3-2.124c-7.116-10.354-11.89-24.829-13.041-35.9h-5.421c.617,13.908,4.429,25.311,9.5,36.355l-2.752.51c-4.075-9.883-8.541-18.484-9.388-38.939Zm14.186,2.1c.75.587,1.561,1.163,2.324,1.722,2.053,1.456,2.026,4.208.03,4.195-.212,0-.7-.031-.7-.031s.815,1.8,1.328,2.716c-.831.224-2.569.554-2.569.554a22.262,22.262,0,0,0,.2-3.239,2.556,2.556,0,0,1-.609.507c-1.324.559-2.443-.609-2.278-1.989.223-1.863,2.278-4.435,2.278-4.435Zm-60.9.333,4.487,2.252c-3.058,7.035-6.559,13.621-11.624,18.628l.13-16.256C2944.776,1579.267,2947.612,1579.242,2949.018,1574.724Zm30.684.255h2.76c-1.225,12.979-9.709,30.535-11.3,32.652l-.525.4c.032-.017-1.087-3.979-2.358-5.405C2973.063,1596.1,2978.079,1583.559,2979.7,1574.979Zm19.411,0h4.17c1.3,10.342,4.462,21.513,12.478,35.082a2.614,2.614,0,0,1-1.425-.294c-1.366-.856-2.315.277-3.131.233a6.953,6.953,0,0,0-2.8.169A96.135,96.135,0,0,1,2999.113,1574.979Zm-45.037,2.322,1.489.708c-3.2,7.486-6.071,13.435-13.657,20.737l-.027-2.174c5.329-5.217,8.92-12.092,12.194-19.271Zm2.167,1.045a19.116,19.116,0,0,1,2.171,1.072c.223.09.162.292.164.5-.281.711-1.524,1.023-1.994,1.161-.568.163-1.128.278-1.229.3-.649.153-.444-.5.26-1.943.317-.648.442-1.081.628-1.1Zm2.975,1.587a7.805,7.805,0,0,1,2.63,1.338c.137.427-.251,1.1-.819,2.341-.874,1.911-1.048,1.953-1.31.384-.045-.271-.3-1.164-.463-1.757-.365-1.376-.4-2.167-.038-2.306Zm3.258,1.543s1.046.514,1.386.74c-4.672,14.139-17.112,25.827-17.046,25.558l-1.941-1.153a66.908,66.908,0,0,0,17.6-25.145Zm-4.939.2c.452.009.058.571-.551,1.931-.579,1.331-.769,1.8-1.31,2.016a20.124,20.124,0,0,1-2.879.468c-.423.074-.246-.253.406-1.591.764-1.569.807-1.895,2.006-2.221a17,17,0,0,1,2.328-.6Zm1.639,2.809c.481,1.751.471,2.1.149,2.7-.6,1.14-1.394,2.472-1.612,2.832-.544.9-.7.714-1.022-1.478a7.531,7.531,0,0,1-.228-2.563c.272-.669,1.082-2.248,1.54-3.172C2958.658,1580.841,2959.01,1584.313,2959.176,1584.487Zm8.6-1.529,2.45.813-1.922,2.345a5.476,5.476,0,0,1,.9-.108c1.928.129,1.608,2.066.115,3.239a26.864,26.864,0,0,1-3.668,1.973c-.327-1.733-1-2.841-.838-4.62.113-.958.2-1.823,1.359-1.85.611-.033.858.6,1.256,1.107Zm44.421,2.1a21.275,21.275,0,0,1,2.845,1.834c1.785,1.388,2.09,3.02.306,3.649a3.262,3.262,0,0,1-.792.042,16.451,16.451,0,0,0,1.657,2.152,8.671,8.671,0,0,1-2.324,1.025s-.226-2.152-.444-2.983a1.956,1.956,0,0,1-.528.654c-1.719,1.081-3.068-.956-2.144-3.533a14.318,14.318,0,0,1,1.424-2.84Zm-18.9.36c4.292-.106,1.778,7-.367,6.539-.037-.064,1.771-4.2-.663-4.86-1.116-.3-.154-1.694,1.031-1.679Zm-7.037.5c1.334-.009,2.3.942,1.03,1.54-2,.941-.811,3.195-.766,4.473.028.781-1.785-.681-2.171-2.268-.5-2.051-.267-3.57,1.907-3.745Zm-31.744.746a1.259,1.259,0,0,1,.593.082c.126.335-.473,1.382-1.348,2.724a2.9,2.9,0,0,1-.949,1.083,5.9,5.9,0,0,1-2.416.341c-1.179.015-.972-.009.333-2.063a9.073,9.073,0,0,1,1.3-1.907,15.53,15.53,0,0,1,2.489-.26Zm1.547,1.482c0,2.57.864,3.412.23,4.222a35.927,35.927,0,0,1-2.125,3.08c-.606.736-.539.6-.7-1.327a8.757,8.757,0,0,1-.062-2.763c.519-1.259,1.135-1.861,1.777-3.2.5-1.079.877-.9.877-.012Zm33.877,1.289c1.246.017,2.016,1.356,1.96,2.585l-.054,1.176c1.611-.624,3.61-.017,3.7,1.579.15,2.707-1.823,2.393-3.492,2.279.169.064.415,2.447-.578,3.359-1.558,1.762-4.463-.038-3.733-2.624a5.469,5.469,0,0,0,.184-.874,6.449,6.449,0,0,1-1.409.364c-3.16-.137-2.918-4.653.256-4.121a6.792,6.792,0,0,1,1.088.267s-.069-.286-.177-.689c-.461-1.738.508-3.325,2.256-3.3Zm63.216.805,1.7.99v1.92l-2.424-1.811Zm-102.132,1.285c.672-.007,1.2.046,1.095.209a14.7,14.7,0,0,1-2.339,3.351c-.741.8-.846.689-2.657.6-.711-.035-1.176-.04-1.157-.232.835-1.106,1.985-2.53,2.78-3.718A12.177,12.177,0,0,1,2951.028,1591.53Zm1.658.9c.125,0,.164.273.161.871,0,.451.061,1.847.126,2.453.118,1.1.118,1.1-.348,1.757-.569.618-1.15,1.528-1.884,2.236-1.1,1.235-.989,1.3-.973-1.334.013-2.063-.14-2.062.272-2.547.227-.266.928-1.132,1.39-1.811.7-1.029,1.073-1.622,1.256-1.625Zm10.506.364,2.267,1.223-2.271,2.325a6.546,6.546,0,0,1,.758.035c1.459.286,1.35,1.848-.118,3.014a35.121,35.121,0,0,1-4,1.715,31.4,31.4,0,0,1-.329-3.932,2.9,2.9,0,0,1,.574-1.919,1.207,1.207,0,0,1,1.712-.081,3.134,3.134,0,0,1,.639.8Zm26.748.793a1.626,1.626,0,1,0,1.608,1.625A1.617,1.617,0,0,0,2989.94,1593.588Zm25.338.383a16.991,16.991,0,0,1,4.3,2.365c1.248,1.052.661,2.785-.578,2.82-.09,0-.617-.077-.617-.077.42.645,1.827,2.229,1.827,2.229l-2.294.94s-.367-1.784-.651-2.786c-.8,1.866-2.771.652-2.9-.511-.318-1.7.4-3.367.911-4.98Zm-25.338.143a1.13,1.13,0,1,1-1.118,1.13A1.125,1.125,0,0,1,2989.94,1594.114Zm-43.786,2.311c.8-.008,1.8.029,2.244.058.34.264-.371,1.084-1.746,2.542-1.1,1.169-1.265,1.007-2.6,1.018-2.24.018-2.3.033-1.267-1.15a12.65,12.65,0,0,1,2.305-2.4,5.879,5.879,0,0,1,1.064-.069Zm2.73,1.137c.237-.048.173.563.134,1.947l-.065,2.345-1.742,1.694c-2.016,1.824-1.775,1.938-1.761.233a7.957,7.957,0,0,1,.287-2.91c.881-1.073,1.8-2.022,2.8-3.046a.937.937,0,0,1,.348-.263Zm44.287.585c.485-.041,1.723,2.1,2.033,3.892.708,4.1,3.135,6.037,4.844,4.392.694-.966.772.088.738.592-.358,5.189-6.176,3.029-6.838-2.124-2.041,1.339-3.946-1.366-2.729-1.324,2.878-.924,2.091-3.595,1.952-5.428Zm-6.738.038c.285,1.795-2.917,4.869-4.717,2.713-.917-1.1-.082-3.359,1.083-1.966,1.288.963,2.536-.154,3.634-.747Zm-43.985,2.461c.658-.014,1.61.112,2.025.054.588.06.168.347-1.1,1.517-1.094,1.009-1.407,1.458-1.532,1.018-.061-.682-.034-1.492-.03-2.453a1.1,1.1,0,0,1,.639-.136Zm14.924,1.192,1.953,1.44-1.937,1.8c1.737-.087,1.892,1.559,1.233,2.476-.427.644-2.075,1.321-3.722,1.591-.991.162-1.8.282-1.8.282s-.037-.772-.064-2.055c-.057-2.623.12-3.656,1.118-4.167a1.911,1.911,0,0,1,2.22.878,5.768,5.768,0,0,0,.356.608Zm-12.566.143c.008,0,.013,0,.016,0,.11.151-.288,4.419-.288,4.419l-2.829-1.609s2.864-2.763,3.1-2.814Zm74.883.5c2.015.96,3.526.773,4.882,1.962a1.6,1.6,0,0,1-.031,2.728,3.313,3.313,0,0,1-1.033.054,14.63,14.63,0,0,0,2.274,2.013l-2.481,1.048s-.34-1.691-.655-2.612a1.781,1.781,0,0,1-2.852.693c-.618-.478-.873-2.079-.578-3.467.077-.367.474-2.419.474-2.419Zm-13.251,39.737c-24.465,5.859-44.337,2.236-46.309,1.544l-1.558,2.349c-.19.4-.307,1.591-1.364,1.915l-1.585,2.391.31.333-1.4,1.238.341.414-1.022,1.5-.4-.043-2.366,3.634.36.406L2946,1666.5l73.5.024c-4.272-8.145-8.843-16.131-13.068-24.3Zm-.445,1.056.437,1.227c-1.215-.151-2.635-.225-4.078-.29C3003.62,1643.949,3004.891,1643.625,3005.993,1643.277Zm-4.269,1.068a12.416,12.416,0,0,0-4.812,3.761,12.725,12.725,0,0,0-5.07-2.259Zm-41.3.6,1.041.12s-.349.274-.6.217A1.24,1.24,0,0,1,2960.42,1644.941Zm46.822.611.662,1.324c-1.592-.853-8.4-2.806-10.334,4.036-2.033-2.778-10.416-6.8-14.668,1.757-1.209-2.32-8.248-8.993-14.668-.488-2.529-5.286-4.644-5.729-9.288-5.007,3.3-3.206,7.945.131,9.913,2.859,5.538-4.642,10.17-3.247,14.216.531,5.221-5.746,10.427-4.361,14.09-1.479,2.573-3.826,5.086-4.98,10.077-3.533Zm-42.763.035c3.291.449,6.582.653,9.874.817a15.512,15.512,0,0,0-5.41,2.736,12.653,12.653,0,0,0-4.464-3.553Zm23.745.53a24.492,24.492,0,0,0-5.283,3.491,16.461,16.461,0,0,0-5.276-3.169,72.427,72.427,0,0,0,10.56-.322Zm21.074,2.717s-.664.113-.877.17a2.5,2.5,0,0,0,.716,4.918,9.97,9.97,0,0,0,.992-.112c-.057,2.8.785,3.486,3.618,3.328l4.8,8.675-71.023-.309,4.51-7.29c2.268.268,3.7-1.007,3.189-2.953a12.327,12.327,0,0,0,1.789.434c2.567.016,3.231-3.966.769-4.656-.274-.076-.961-.153-1.045-.178,1.125-2.841,4.218-1.164,5.1.016a3.1,3.1,0,0,1,5.142,1.23s-.371-.209-.486-.294c-2.335-1.726-4.507,1.85-2.221,3.5a2.99,2.99,0,0,0,.7.3,2.693,2.693,0,0,0-.532.662,2.643,2.643,0,0,0,3.032,3.842c1.772-.7,1.8-2.047,1.8-3.529,0,0,.612.048,1.16.055,2.126.025,2.736-2.727,1.434-4.007a3.34,3.34,0,0,0-2.077-.726c2.451-2.432,4.113-.754,5.843.368.261-.007,3-3.333,6.26-.066a2.485,2.485,0,0,0-3.222,2.281c.031,1.071.788,2.017,2.426,2.093a4.679,4.679,0,0,0-.3,1.461,2.464,2.464,0,0,0,3.017,2.566,2.5,2.5,0,0,0,1.972-3.2,1.859,1.859,0,0,0-.544-.844,2.4,2.4,0,1,0,.787-4.727,2.453,2.453,0,0,0-1.966.9c1.755-3.627,4.966-2.9,6.168-1.416,1.649-1.211,3.923-2.865,6.643.081a3.7,3.7,0,0,0-1.627.029,2.254,2.254,0,0,0-.456,4.187,3.567,3.567,0,0,0,1.7.35,2.591,2.591,0,0,0,3.795,2.873c1.3-.8,1.635-2.682.233-4.4,2.359-.107,2.592-3.079,1.229-4.121-1.069-.818-2.327-.429-3.239.65-.294-.854,2.039-3.82,5.333-1.684,1.745-1.478,3.476-1.933,5.456-.456Zm1.03,2.322.922,1.694A1.067,1.067,0,0,1,3010.328,1651.156Zm-11.908,1.721a1.057,1.057,0,1,1-1.045,1.057A1.05,1.05,0,0,1,2998.42,1652.877Zm-43.108.062c.14.567.2,1.133-.819,1.243Zm12.007,1.022a.968.968,0,1,1-.957.967A.963.963,0,0,1,2967.319,1653.961Zm15.932.3a1.026,1.026,0,1,1-1.015,1.025A1.02,1.02,0,0,1,2983.251,1654.263Z"/>
      <path id="path153-6-3-1-9-0-4-7" d="M2950.268,1463.943c-7.348,10.492-15.21,16.53-15.341,24.716-.043,2.65,1.388,7.155,5.871,8.018,2.909.557,6.913-1.8,7-6.589-.013-.954,1.008-.929,1,.378a27.2,27.2,0,0,1-3.338,11.755h9.626a27.2,27.2,0,0,1-3.338-11.755c-.01-1.307,1.011-1.332,1-.378.084,4.789,4.088,7.146,7,6.589,4.483-.863,5.914-5.368,5.87-8.018-.13-8.186-7.992-14.224-15.34-24.716Z"/>
      <path id="path153-6-3-1-8-6-4-8-4" d="M3032.724,1660.45c-7.347-10.492-15.209-16.53-15.34-24.715-.044-2.651,1.387-7.156,5.87-8.018,2.909-.557,6.913,1.8,7,6.589-.013.953,1.008.928,1-.378a27.2,27.2,0,0,0-3.338-11.755h9.625a27.2,27.2,0,0,0-3.338,11.755c-.01,1.306,1.011,1.331,1,.378.083-4.789,4.088-7.146,7-6.589,4.484.862,5.915,5.367,5.871,8.018-.131,8.185-7.993,14.223-15.341,24.715Z"/>
    </g>
  </g>
</svg>
