<svg xmlns="http://www.w3.org/2000/svg" xmlns:xlink="http://www.w3.org/1999/xlink" width="179.79" height="250.65" viewBox="0 0 179.79 250.65">
  <defs>
    <clipPath id="clip-qc">
      <rect width="179.79" height="250.65"/>
    </clipPath>
  </defs>
  <g id="qc" clip-path="url(#clip-qc)">
    <g id="qc-2" data-name="qc" transform="translate(-2691.021 -873.972)">
      <rect id="rect6355-6-85-3-5-0-1" width="177.785" height="248.651" rx="8.504" transform="translate(2692.021 874.972)" fill="#fff" stroke="#000" stroke-width="0.997"/>
      <path id="path147-6-9-8-7-0-5-6-46-4-5" d="M2856.1,1083.773c3.127-.071,4.53-3.739,2.213-6.588-.336-.415-.37-.654.245-.255,1.56,1.087,4.55.373,4.7-2.949.19-4.092-5.3-5.271-6.33-.92-.055.46-.413.449-.327-.2a13.979,13.979,0,0,1,1.354-5.034h-3.719a13.979,13.979,0,0,1,1.354,5.034c.086.652-.272.663-.327.2-1.03-4.351-6.52-3.172-6.33.92.153,3.322,3.143,4.036,4.7,2.949.615-.4.58-.16.245.255-2.317,2.849-.914,6.517,2.213,6.588h0Z"/>
      <path id="path147-6-9-8-7-4-5-62-9-4-5" d="M2705.732,914.823c-3.128.071-4.53,3.739-2.214,6.588.336.415.371.654-.245.255-1.559-1.087-4.55-.372-4.7,2.949-.189,4.092,5.3,5.271,6.331.92.054-.459.412-.449.326.2a13.971,13.971,0,0,1-1.353,5.034h3.718a13.971,13.971,0,0,1-1.353-5.034c-.087-.652.272-.662.326-.2,1.031,4.351,6.52,3.172,6.331-.92-.153-3.321-3.144-4.036-4.7-2.949-.616.4-.581.16-.245-.255,2.317-2.849.914-6.517-2.214-6.588h0Z"/>
      <path id="path37-5-2-4" d="M2699.943,903.615h-2.2v-3h2.2s.017-1.616.08-4.465c.136-6.075.288-7.018,2.044-8.69,3.468-3.3,9.276-.612,9.207,4.357-.1,7.012-.028,13.7-.232,14.644-.364,1.668-.4,1.762-.252,2.067.3.612,2.927.877,2.927.706v2.953a5.418,5.418,0,0,1-4.439-1.179,6.582,6.582,0,0,1-6.472.8c-1.843-.869-3.24-3.113-2.863-8.191Zm7.424,5.234c-1.089-1.575-2.921-3.724-4.644-4.487-.108,1.81.049,3.329.684,4.145a2.528,2.528,0,0,0,3.959.342h0Zm.9-17.32c-.808-2.291-2.884-3.068-4.4-1.635-.948.892-1.1,1.831-1.12,6.93-.012,3.145-.012,4.467-.012,4.467,2.952.959,5.711,4.4,5.688,4.36l.072-9.512a26.683,26.683,0,0,0-.227-4.61h0Z"/>
      <path id="path37-3-2-7-4" d="M2861.882,1094.981h2.2v3h-2.2s-.017,1.616-.08,4.466c-.136,6.074-.287,7.017-2.044,8.689-3.468,3.3-9.276.612-9.207-4.357.1-7.012.028-13.7.232-14.644.364-1.668.4-1.762.252-2.067-.3-.612-2.927-.877-2.927-.706v-2.953a5.423,5.423,0,0,1,4.44,1.179,6.578,6.578,0,0,1,6.471-.8c1.843.869,3.24,3.113,2.863,8.191Zm-7.423-5.233c1.088,1.574,2.92,3.723,4.643,4.487.108-1.811-.049-3.329-.684-4.146a2.527,2.527,0,0,0-3.959-.341Zm-.9,17.319c.808,2.291,2.883,3.068,4.4,1.635.948-.892,1.1-1.831,1.12-6.93.012-3.145.012-4.467.012-4.467-2.953-.959-5.712-4.405-5.689-4.36l-.072,9.512a26.781,26.781,0,0,0,.228,4.61h0Z"/>
      <g id="g5457-6-3-6">
        <g id="g3405-1-0-4">
          <path id="path3391-4-8-9-0" d="M2787.172,1103c.44-6.509.062-13.5.358-18.795-.2-.374.522-1.4.56-1.4a7.19,7.19,0,0,1-.032-4.592c4.244-16.233,11.929-28.866,19.844-40.647,6.437,19.469-13.775,33.129-18.025,50.141-1.418,5.89-1.206,10-1.749,15.325Zm-33.605.248-24.045-37.293,5.222-2.552,24.715,39.714Zm31.1-69.086c.212,1.071,1.051,1.646,1.941,1.156.873-.48.973-.512.431.332a1.737,1.737,0,0,0,2.786,2.069,1.427,1.427,0,0,0,.143-1.964c-.567-.53-.691-.8.147-.4,2.1.855,3.263-2.2,1.224-3.228a2.021,2.021,0,0,0-1.934.374c-.466.487-.531.315-.407-.062a9.367,9.367,0,0,1,.3-1.019,5.8,5.8,0,0,0,.237-.8l-2.15.023s.174.494.35.91c.165.392.228.685.308.848.29.586-.058.369-.639-.065a1.674,1.674,0,0,0-2.435.366A2.471,2.471,0,0,0,2784.669,1034.164Zm3.1-30.34,4.622-.138,5.083,14.083c-4.068,6.781-5.165,14.429-.432,22.181l-14.658.023C2785.826,1028.293,2786.358,1015.9,2787.773,1003.824Zm4.833,18.324a1.633,1.633,0,0,0,.134-2.24c-.711-.847-.548-.89.406-.337,1.375.8,2.692-.928,1.88-2.454a1.809,1.809,0,0,0-2.821-.323c-.531.719-.472.061-.063-.894.15-.351.366-1.01.366-1.01l-2.24.046s.289.637.443,1.046c.409,1.085.425,1.428-.2.731a1.729,1.729,0,0,0-2.985,1.338,1.493,1.493,0,0,0,2.17,1.5c.612-.362.886-.448.2.382a1.758,1.758,0,0,0,.323,2.274A1.976,1.976,0,0,0,2792.606,1022.148Zm-30.964,4.388c.179-.133.246-.045.136.134a6.651,6.651,0,0,1-.542.6c-1.045,1.167.307,2.651,1.993,2.421,1.147-.156,1.82-1.967.972-2.682-.274-.184-.49-.22-.7-.471-.016-.1.031-.169.132-.129.15.062.455.31.609.352a1.644,1.644,0,0,0,2.142-.907,2.2,2.2,0,0,0-.705-2.3,1.632,1.632,0,0,0-2.208.442c-.584.778-.664.038-.187-1.035a5.976,5.976,0,0,0,.3-.974l-2.059.109s.109.445.29.957c.458,1.168.786,1.5.2.9-2.515-1.487-3.351.535-3.392,1.34a1.788,1.788,0,0,0,3.014,1.246Zm10.07-22.84,3.715.013c-2.8,14.956-8.543,27.484-18.2,36.106l-18.178-.056-8.76-6.149,3.383-4.411C2756.747,1031.586,2766.576,1020.1,2771.712,1003.7Zm-16.725,34.672a1.647,1.647,0,0,0,.82-2.548c-.65-.751-.717-.985.283-.4,1.337.782,2.629-.779,1.974-2.306a1.752,1.752,0,0,0-2.62-.6c-.813.61-.8.337-.373-.625a7.815,7.815,0,0,0,.372-1.239l-2.277.032a9.671,9.671,0,0,0,.33.917c.38.855.518,1.248.341,1.25-.085,0-.367-.26-.531-.412a1.963,1.963,0,0,0-2.154-.056c-1.363,1.306-.6,3.59,1.139,3.168,1.12-.272,1.376-.7.448.358C2751.6,1037.211,2753.367,1039.085,2754.987,1038.368Zm-14.368-.454a1.526,1.526,0,0,0,.73-2.24c-.531-.709-.793-1.166.151-.527,1.255.634,2.351-.208,2.335-1.641a1.775,1.775,0,0,0-2.93-1.3,2.062,2.062,0,0,1-.511.291c-.151,0,.123-.811.424-1.342.13-.231.359-.7.359-.7l-2.278-.088a8.861,8.861,0,0,0,.307,1.1c.362.974.451,1.3-.185.746-1.713-1.607-3.54.439-2.819,2.206a1.439,1.439,0,0,0,2.241.5c.626-.487.306.159-.124.673C2737.149,1037,2738.865,1038.738,2740.619,1037.914Zm104.019-37.5.12,2.767-29.434,24.627-1.235-1.9Zm-109.477,5.18c4.238-3.028,8.952-8.464,13.605-11.3C2752.165,1002.142,2744.192,1009.832,2735.161,1005.595Zm77.38-1.441c-3-16.581,14.749-13.126,13.813-11.646Zm-95.284-10.142,29.138-23.85,1.324,2.005-30.74,25.283Zm79.82-24.058c.082.249.963,1.2.965,1.286-.252-.189-1.749-1.031-2.48-.213a2.794,2.794,0,0,0-.544,1.758,1.725,1.725,0,0,0,2.882.888c.308-.262.572-.579.635-.468a2.5,2.5,0,0,1-.251.916c-.158.371-.745,1.151-.319,1.151l2.069,0a4.328,4.328,0,0,0-.324-1.025c-.463-1.006-.443-1.553.115-.828,1.087,1.412,3.194.235,2.974-1.458a1.577,1.577,0,0,0-2.3-1.338c-.1.064-.39.353-.432.355-.111.005.193-.461.394-.848.668-1.285-.329-2.474-1.854-2.346a2.118,2.118,0,0,0-1.035.4A1.692,1.692,0,0,0,2797.077,969.954Zm25.157-11.965a50.067,50.067,0,0,0,8.746,6.39l-2.751,4.36c-18.645-1.733-32.2,5.668-37.861,25.732l-3.074.594c1.156-12.516,5.334-24.928,17.684-37.056Zm-17.869,2.995c.005.593,1.091,1.3.849,1.462-.111.06-.757-.505-1.054-.537-2.153-.229-2.6,3.131-.466,3.508a2.721,2.721,0,0,0,1.543-.4c.342-.282.578-.513.649-.488.13.048-.168.647-.4,1.091a13.274,13.274,0,0,0-.521,1.272l2.448.011s-.222-.754-.442-1.289c-.282-.684-.341-1.117-.152-1.071.081.02.173.233.345.381a1.822,1.822,0,0,0,3.024-.9c.384-1.342-1.215-2.723-2.329-1.972-.39.262-.39.065,0-.524a1.783,1.783,0,0,0-.054-1.835A2.019,2.019,0,0,0,2804.365,960.984Zm17.573,3.98c-.059-.3.017-.214.33.113a1.8,1.8,0,0,0,3.1-.493c.429-1.356-.883-2.908-2.026-2.375-.594.277-.6.179-.265-.265a1.692,1.692,0,0,0-1.594-2.637,1.647,1.647,0,0,0-1.515,2.484c.274.467.185.567-.3.332-1.406-.684-2.717,1.549-1.687,2.874a1.979,1.979,0,0,0,2.808.088c.426-.412.423-.215.113.636a14.407,14.407,0,0,1-.569,1.342l2.432.021A10.478,10.478,0,0,1,2821.938,964.964Zm-52.094,30.012c.708-.185-2.5-10.381-4.848-14.929,2.676-6.435,6.338-12.671.181-21.936l14.964-.042c-4.623,10.523-4.721,37.083-5.807,37.147Zm1.312-11.811a4.421,4.421,0,0,1-.784-1.847c-.089-.53.047-.562.322-.022,1.333,1.479,3.137.051,3.145-1.259.154-1.2-1.243-2.226-2.14-1.627-.628.419-.8.3-.238-.482a1.614,1.614,0,0,0-1.483-2.514c-1.836.02-2.539,1.743-1.223,2.972.972.909.066.372-.706.047-1.5-.632-2.49.905-1.815,2.457a1.584,1.584,0,0,0,2.634.483c.439-.475.845-.754.607-.036a10.419,10.419,0,0,1-.8,1.812Zm2.317-16.174a5.884,5.884,0,0,1-1.039-1.954c-.052-.309.166-.231.669.2,1.61,1.388,3.822-1.1,2.322-2.62a1.28,1.28,0,0,0-1.642-.358c-.752.394-.692.2-.317-.205a1.649,1.649,0,0,0-.083-2.217c-1.637-1.465-4.227.717-2.706,2.283.663.681.349.593-.38.155-1.379-.828-2.905,1.44-1.869,2.773,1.227,1.041,2.147.529,3-.126.184-.1.344-.142.344-.061,0,.15-.848,2.158-.848,2.158Zm-19.626-6.287c-.913-.061-1.566-8.626-.45-11.338,2.38-11.44,9.642-19.773,14.161-26.78,7.251-10.435,6.35-27.768,6.658-27.077l1.028.12s-.8,10.161-.346,14.752c.468,4.037.366,4.288.078,4.688-.076.376.036,1.476-.045,1.854-3.227,14.946-10.929,30.314-18.881,41.916Zm74.555-26.11-24.487-38.765,5.884-.532c2.184,3.474,23.456,36.6,23.456,36.6Z" fill="#d40000"/>
          <path id="path3395-8-0-1-6" d="M2727.575,1103.941c2.784-10.249-4.76-34.085-9.474-37.2,5.529-.234,12.179-.134,11.969-.653,0,0,23.512,37.128,23.321,37.325s-25.816.528-25.816.528Zm95.3-58.147c-5.7-.813-3.451-5.561.213-6.054-.477.079.392-2.361,3.347-3.348.671-1.222,1.2-3.309,1.812-4.277-1.772.578-3.924,2.08-11.97.9.7-3.828,8.4-4.481,11.173-3.889,1.6.373,3.185,2.771,3.672,2.822,4.94-.827,11.225,3.66,9.324,8.215-.295.65-1.046-.771-2.709-1.376-5.376-1.957-5.752-4.878-6.988-6.185-.449-.085-2.827,4.638-2.827,4.638l.743,3.207c1.289-.118,7.019,3.437-.114,5.844-1.972,6.825-5.687,2.009-5.676-.493Zm13.5-30.475c-.3-.311.24-2.436.964-3.658a2.116,2.116,0,0,1,1.823-1.01c.943.166.8,1.543-.454,5.574C2838.653,1016.806,2837.377,1016.868,2836.372,1015.319ZM2722.9,987.092c-1.564-.005-.162-4.274.8-5.63.316-.42,1.564.476,1.628,1.1C2725.444,983.665,2723.749,987.532,2722.9,987.092Zm-1.11-29.027a23.463,23.463,0,0,1,6.361,3.45c1.79,1.341,1.3,3.974,2.733,4.208.967-.481,2.741-4.793,2.741-4.793s.445-2.215-.816-2.9c-3.139-1.7-3.083-3.531-2.884-3.7.931-2.422,2.784-1.991,3.786-2.126.021-1.326-.023-4.126,2.712-3.837,2.391.226,2.627,3.657,1.621,3.688-.019-.058,4.522-.654,4.478,2.354-.024,1.631-2.718,3.717-3.557,2.959,0,0,.45,3.251-3.62,4.365-.95.971-1.726,5.1-1.727,4.736,2.454-2.223,6.3-2.744,12.36-1.946-3.756,6.991-14.141,3.719-14.953,2.367C2725.8,965.315,2720.9,963.254,2721.791,958.065Zm44.736-16.756c5.527.5,11.574-1.238,16.17-.316.524.072,1.093.85,1.408,1.022,2.376,1.3,4.863.9,8.687-.556.944-.358,18.469-.221,18.469-.221,3.991,5.92,11.089,17.057,11.243,16.679,0,0-9.715-.11-14.19.156-3.147.187-1.3.617-3.482.713-15.314,11.547-18.229,36.5-18.229,36.5s4.866-1.286,6.138.063c6.021-17.681,17.45-25.755,33.389-24.174,7.365.731,16.154,8,16.154,8l-15.762,12.878c-12.211-6.184-17.442,12.043-13.738,12.089l31.741-26.049s.543,2.126.489,2.2c-2.262,2.978-40.1,33.816-40.1,33.816l-1.662-1.842s-1.044.93-1.593,1.549a3.4,3.4,0,0,0,1.063,2.657c-7.5,6.04-7.744,17.121-2.218,23.17,0,0-2.45.175-2.708.219-3.114.535-6.335-14.882-.162-22.055-3.114-6.132-5.033-14.474-5.423-14.861.083.983-4.916.656-4.916.656a169.282,169.282,0,0,1-4.659,36.452l22.965.5-9.776,17.034s-10.97-.276-15.7-.607c-4.934-2.883-7.779-.692-12.41.376-6.591.194-16.292-.114-16.292-.024a79.861,79.861,0,0,0-11.632-17.008c-.61-1.021,19.508-.39,19.508-.39s10.056-15.273,11.888-19.587c1.429-3.366,4.636-15.623,4.636-15.623.149.639-1.826-3.187-6.425-3.1-3.8,25.38-33.842,33.93-51.917,17.6l-.169-2.952,39.833-32.438,1.77,2.053c-.381-.305-24.453,19.807-24.054,19.68,7.135,3.749,15.391.714,14.431-11.593a135.375,135.375,0,0,0,15.579-13.761c.106-.191,5.491,12.131,5.359,14.5,3.1-1.045,4.932,1.145,4.873.771-1.113-7.126,5.1-34.144,5.22-37.251-3.452-.279-8.029-.151-15.208-.437,5.766,11.206,3.763,18.8-4.3,25.7l-1.686-2.127c.684.383,11.773-9.252,2.845-23.646-.409.034-4.706-.39-4.706-.39S2766.082,943.295,2766.527,941.309Zm42.8-46.313s25.139-.606,25.148.134a59.159,59.159,0,0,0,9.943,37.37s-11.135-.4-10.932-.256Z" fill="#e2cf00"/>
          <path id="path3393-8-5-4-3" d="M2846.221,894.036H2715.607v210.525h130.614Zm-12.28.915c-.01-.011-1.685,22.279,9.9,36.879-7.077-1.076-11.128.013-15.249,2.935l.564.583c5.675-3.5,10.489-2.579,15.416-2.034v28.679c-.035,1.392-5.9.77-9.517-1.962a17.073,17.073,0,0,1-4.927-4.761c-.3-.487-.621-.97-.708-1.071q-.5-.577-6.185-11.553c-1.926-3.716-4.472-8.785-6.54-12.714-1.339-2.544-3.828-7.349-4-7.732-.366-.8-3.076-6.107-4.131-8.038-2.786-5.1-7.284-14-8.889-17.2-.355-.828-.894-1.209.072-1.182a3.077,3.077,0,0,1,.552.048c.17.085.377-.294.377-.294Zm-116.532,120.593v-2.255l38.055-31.45,1.212,1.565Zm36.854-55.089c-.152.057-.319.114-.5.173-.976-4.367-.419-10.2.731-14.589,1.675-6.089,4.8-10.973,8.287-15.881,7.962-11.208,11.488-19.657,11.345-34.713l1.138.122c-.048,2.378-.361,4.167-.453,7.331a57.045,57.045,0,0,0,.274,9.279c.176,1.627.282,2.682.009,2.893a1.047,1.047,0,0,0-.128.876c-.019.452-.08,1.354-.08,1.354-1.824,8.964-11.6,31.948-20.621,43.155Zm4.75,20.378L2757,978.354a1.742,1.742,0,0,1-.157-2.669c4.021-4.094,4.048-9.3.16-13.977-.261-.6,1.208-3.6,1.208-3.6l3.06.05C2766.046,963.993,2767.348,974.295,2759.013,980.833Zm2.812-23.139c.1-.4-4.535-.245-4.535-.245,2.876-4.3,5.322-8.732,7.726-13.172,3.729-6.719,8.9-18.492,10.52-27.024,1.207,9.98,2.962,24.793,11.469,25.377,2.789.192,6.019-1.727,6.546-1.41l17.672-.14a68.8,68.8,0,0,0,12.128,17.177,45.441,45.441,0,0,0,11.259,4.372c2.219.554,2.432.185,6.808.812a8.843,8.843,0,0,0,2.9-.325c-3.5,2.769-7.53,1.985-11.972.8-.248-.066-.509-.143-.769-.236l-3.354,5.067c-7.466-1.777-31.434-.519-37.753,25.644,0,0,.65.333.5.153,5.019-22.71,26.216-27.237,36.322-24.975l-.869,1.332c-16.768-2.059-30.421,8.47-33.672,23.4l.323.295c6.292-22.575,32.743-30.928,49.143-15.28l3.007-2.139-.1,2.9-40.318,33.915-1.613-1.674s-.283.215-.6.484c-1.04.87-1.451,1.082-1.159,1.567s1.422,1.579,1.472,1.7c-6.687,5.471-8.809,16.022-2.455,23.411.709.783.58.993.45.111-5.7-6.228-4.977-17.242,2.129-22.462l1.433,1.884c-3.129,6.9-4.8,17.657,3.43,18.588,2.947,7.931-.444,17.328-4.23,23.628-4.011,7.257-8.873,13.288-11.908,21.193-1.475,3.3-3.822,13.08-3.7,20.555l-.884-.009c0-3.05.2-6.667.227-8.98.123-11.273.107-10.6.36-10.89.083-.095.319-.2.341-.275.034-.118-.184-.352-.269-.627a3.958,3.958,0,0,1-.222-1.2c.015-.417.405-1.026.331-1.162-1.77-6.222-1.915-17.4-7.628-22.538-2.8-2.416-6.523-2.513-11.342-.532-10.634.02-9.058.568-17.646.076a79.894,79.894,0,0,0-12.524-17.608c-2.179-2.44-5.208-3.776-8.057-5.544a13.676,13.676,0,0,1,3.855-4.8,7.063,7.063,0,0,1,.874-1.231c28.959,2.793,35.239-25.365,33.917-24.649l-.256.224c-7.917,29.011-36.093,27.954-50.256,15.412,0,0-2,1.745-2.008-.17-.006-1.741.627-2.245.627-2.245l39.752-32.545c.727.464,1.51,2.011,1.836,1.838.732-.391,1.811-1.176,1.778-1.643a19.539,19.539,0,0,0-1.454-2.618c10.635-11.055,5.838-15.993,2.424-23.567Zm15.07-62.126a.582.582,0,0,1,.506.3c.243.384-.722,2.627-1.319,3.022-.564.374-.6-.061-.2-2.229A1.245,1.245,0,0,1,2776.9,895.568Zm58.327.067h9.35v35.476C2837.691,921.4,2834.133,910.246,2835.222,895.635Zm-55.856.058c.23-.011.433.053.5.221.236.6-1.114,3.184-2.785,5.328-.867,1.112-1.3,1.434-1.574,1.169-.228-.506-.222-1.1.576-2.019a20.1,20.1,0,0,0,2.24-3.543C2778.521,896.264,2778.72,895.735,2779.366,895.693Zm9.454.127c.269,0,.544,0,.622.125a18.339,18.339,0,0,0,7.732,7.848c.451.258.238.9.39,1.357-3.479-.519-8.046-5.468-9.267-9.081C2788.29,895.808,2788.552,895.817,2788.82,895.82Zm5.441,0c.692.706,1.782,1.559,2.027,2.365a2.617,2.617,0,0,1,.155,1.328c-.605.379-3.609-3.12-3.493-3.529A1.536,1.536,0,0,1,2794.261,895.817Zm-13.027-.05c.3.011.747-.006.813.217.375,1.526-3.1,7.472-5.628,9.157-.9.6-.958.441-.886-.563.048-.675.113-.622,1.037-1.507a17.826,17.826,0,0,0,3.55-4.943C2781.136,895.911,2780.888,895.772,2781.234,895.767Zm2.356.023a.906.906,0,0,1,.723.26c.115.2-.039.524-.147.924a26.1,26.1,0,0,1-7.326,10.582c-1.3,1-1.518,1-1.612-.039-.055-.6.221-.779.831-1.2a17.809,17.809,0,0,0,6.456-8.889c.209-.681.129-1.292.5-1.5A1.2,1.2,0,0,1,2783.59,895.79Zm17.579,5.631c.136.233,1.108,1.759.313,1.184a25.156,25.156,0,0,1-1.86-2.019c-2.229-2.542-2.3-2.384-2.252-3.016.021-.824-.565-2.176.7-1.825C2799.319,897.215,2800.1,899.586,2801.169,901.421Zm-10.149-5.581a4.025,4.025,0,0,1,.8.093c1.467,2.771,5.051,5.2,5.037,5.191a5.376,5.376,0,0,1-.04,1.419c-.075.371-5.692-3.913-6.316-6.477C2790.561,895.9,2790.767,895.845,2791.02,895.84Zm-4,.051c1.318,2.432,4.04,7.952,10.433,10.182.46.1.95,1.414.6,1.776a17.975,17.975,0,0,1-12.024-11.925A1.054,1.054,0,0,1,2787.023,895.891Zm-1.717.472c-.22,0,3.019,9.386,12.243,12.183.8.252,1.265.6,1.214,1.072-.064.6-.044.672-.932.226a10.177,10.177,0,0,0-9.1-.41c-.467.239-.941.889-.565,1.3.215.208.744.053,1.418-.21,3.487-1.362,8.824-.561,9.766,1.581.669,1.52.783,2.64.418,2.827-.279.142-.752-.369-1.586-1.1-2.653-2.337-5.825-2.987-8.347-.742-.545.486-1.086.4-1.276.6s.034.63.189,1.056a.974.974,0,0,1,.008.944,3.951,3.951,0,0,0-.205,1.666c.059,1.2.848,2.227,3.118,3.8,1.767,1.23,3.149,1.921,1,.171-3.713-3.02-4.387-4.25-1.98-3.2,2.4.969,5.736,0,8.1-1.81.8-.014,1.281-.154,1.7.155,1.76,4.149,3.2,9.669,5.539,15.02-2.794,3.17-12.523,10.932-19.459,10.655-5.99-.239-8.1-10.081-9.429-15.52a34.282,34.282,0,0,1-.893-7.9.344.344,0,0,1,.263-.058,11.156,11.156,0,0,0,3.608.117c1.594-.374,1.914-.659,2.008-.424.11.278-.554.9-1.714,1.7-.5.347-1.972,1.057-1.818,1.161.351.236,2.128-.713,2.426-.967.464-.4.783-.42,1-.2.261.255.314-.017-.545,2.124-.947,2.359-.856,2.573.99,4.027a8.613,8.613,0,0,1,1.369,1.231c.177.29.3.631.379.741.313.419.121-.255-.065-1.328a4.13,4.13,0,0,0-1.54-1.965c-1.008-.7-.852-1.393-.017-3.79,2.461-7.067,1.834-10.219-.876-11.755-1.222-.692-4.644-.507-5.722.4-.531.446-.459-.43-.374-.488,6.5-4.486,8.026-8.766,9.684-12.893Zm12.547,3.463a75.242,75.242,0,0,1,5.525,6.111,24.633,24.633,0,0,1,1.763,2.912c.115.181.229.386.147.47-.03.036-.294-.118-.441-.229-1.352-1.023-6.935-7.406-6.935-7.406C2797.655,900.636,2797.476,900.279,2797.853,899.826Zm1.1,4.332s4.837,5.3,7.608,7.911a32.268,32.268,0,0,1,1.562,3.083c-.011.123-.592-.326-.592-.326-3.062-2.832-5.89-6.016-8.83-9.033.028.016-.232-1.248-.236-1.759C2798.536,903.784,2798.83,904.06,2798.957,904.158Zm10.493,13.592c.651,1.063,1.126,2.015,1.439,2.641.517.99.344,1.018-.112.652-3.461-2.844-6.36-6.306-9.62-9.479-.423-.438-1.268-1.41-1.268-1.41.03.035-1.062-2.286-.377-2.24.537.21.889.795,1.235,1.167C2802.457,910.919,2805.714,914.078,2809.45,917.75Zm-30.192-7.579a4.414,4.414,0,0,1,3.543,1.206c.645.8.906,2.065.548,2.433-.224.229-1.016-.417-1.016-.417-3.361-1.894-4.519-.982-6.344-.426-.26.079-.536-.625-.2-1.321.669-1.158,2.366-1.442,3.472-1.475Zm21.153,1.793c3.6,3.619,7.249,7.64,11.139,10.753.545.466.92.766,1.168,1.017.514,1.022,1.7,3.456,1.7,3.456-4.17-2.927-13.563-13.018-13.459-12.951C2801.049,914.286,2800.168,912.393,2800.411,911.964Zm-7.038.6a5.423,5.423,0,0,1,1.944.427c1.812.722,2.952,1.49,1.075,1.234a14.337,14.337,0,0,0-4.459-.221c-1.776.286-1.915.485-2.07.2C2789.456,913.461,2791.4,912.582,2793.373,912.563Zm-14.823.212a5.094,5.094,0,0,1,2.062.447c2.214.972,2.6,1.605.719,1.3a11.619,11.619,0,0,0-4.057.19,7.8,7.8,0,0,0-.963.377c-.456.146-.582-.2-.387-.769A2.6,2.6,0,0,1,2778.55,912.775Zm16.035,2.838.457.033c-.571,3.248-3.8,2.931-4.672.142l.457-.011C2792.529,918.445,2793.8,916.876,2794.585,915.613Zm1.8.168c1.492-.017,1.4.883-.159,1.487-1.192.463-1.326.38-.89-.516C2795.756,915.891,2795.713,915.789,2796.385,915.781ZM2781,915.9a2.1,2.1,0,1,1-4.164.271l.386-.019c1.331,2.51,2.867.995,3.347-.252Zm1.806.4c.46.315.175.748-.823,1.359-.9.562-1.133-.118-.39-1.061A1.026,1.026,0,0,1,2782.808,916.3Zm7.044,0c.177-.057.6.735.24.924-.214.112-.53-.211-.565-.451A.442.442,0,0,1,2789.852,916.294Zm12.16.182a103.3,103.3,0,0,0,13.418,12.532,24.855,24.855,0,0,1,1.373,2.8c-.194.239-.3.212-.855-.066a91.428,91.428,0,0,1-13.831-13.5C2801.937,917.6,2801.535,916.979,2802.012,916.476Zm-25.837.3c.308-.01.742.68.5,1.095-.2.156-.5-.086-.638-.275a.785.785,0,0,1-.047-.688A.217.217,0,0,1,2776.175,916.775Zm26.971,4.151c-.022-.1,12.6,12.742,14.222,12.5.754.445,2.63,4.1,2.63,4.1.054.116.045.33-.259.179-2.134-1.061-11.057-8.494-15.619-14.027A22.263,22.263,0,0,1,2803.146,920.926Zm-15.006,1.887c2.2,1.068,1.254,3.257-1.069,1.865-1.831-1.117-3.283-1.219-3.272-.253a1.086,1.086,0,0,0,.986.928,17.622,17.622,0,0,1,2.615.587c1.387.3,2.425-.071,2.772-.916a2.224,2.224,0,0,0-1.736-2.918c-.923.083-.691.528-.3.707Zm17.431,3.511a89.174,89.174,0,0,0,15.046,12.784,22.993,22.993,0,0,1,1.322,2.711c-.035.192-.228,0-.228,0-4.428-2.571-10.274-7.668-15.812-13.452a14.522,14.522,0,0,1-.7-2.117C2805.323,926.2,2805.454,926.272,2805.571,926.324Zm-14.609,2.548c-.2.027-.467.33-.8.512-.674.373-.888.472-2.545-.027-.9-.271-1.045-.252-1.582.148a1.021,1.021,0,0,1-1.253.171c-.942-.424-1.379-.116-2.251.19-.831.3-1.116-.066-1.864-.237a16.4,16.4,0,0,0-.043,3.126c.034.034.778-.456,1.2-.672.725-.37.621-.311,1.679-.268a8.182,8.182,0,0,0,4.154-.233,3.259,3.259,0,0,1,3.218.439c.546.449,1.27.376.847-.45a5.168,5.168,0,0,1-.437-1.728c.059-.585-.07-.959-.286-.971A.167.167,0,0,0,2790.962,928.872Zm16.678,2.361c2.96,2.85,6.61,7.2,15.2,12.24.447.787,1.052,1.833,1.435,2.648.035.227-.021.428-.24.35a71.919,71.919,0,0,1-15.611-12.295,19.394,19.394,0,0,1-1.323-3.017C2807.178,930.87,2807.518,931.159,2807.64,931.233Zm-1.249,1.087,3.283,6.19-11.058-.023A42.87,42.87,0,0,0,2806.391,932.32Zm-18.33.14c-1.816.725-2.09.875-3.891.435-1.049-.257-.761.354-.224.606a4.82,4.82,0,0,0,4.056-.317C2788.483,932.873,2788.813,932.16,2788.061,932.46Zm-1.864,1.911c-1.9.026-3.7.692-3.829,1.467-.026.15.129.319.425.14,1.289-.779,4.488-1.033,6.908-.155.392.142.46-.1.054-.439A5.526,5.526,0,0,0,2786.2,934.371Zm24.135,2.644a70.943,70.943,0,0,0,14.738,10.808,20.549,20.549,0,0,0,1.5,2.794c-7.22-3.518-15.089-10.461-15.089-10.461a25.3,25.3,0,0,1-1.522-3.164C2809.931,936.672,2810.231,936.935,2810.332,937.015Zm2.465,5.167a82.511,82.511,0,0,0,14.1,9.4c.3.294,1.06,2.095,1.307,2.288s-.3.194-.839-.086c-3.933-1.818-12.366-7.638-12.366-7.638C2814.2,944.81,2813.037,943.425,2812.8,942.182Zm-78.876,23.386a41.713,41.713,0,0,0,1.616-3.909,3.719,3.719,0,0,0,3.313-1.469c.909-.025,1.6-.022,2.843-.058-.04-1.229.016-2.969.016-2.969,1.255-1.3,2.107-2.8.161-5.089,0,0-.079-1.069-.107-2.893a20.944,20.944,0,0,0-2.908-.05,3.145,3.145,0,0,0-5.383,0s-1.3.071-2.185.075c-.019.486-.172,2.639-.172,2.639s-3.79,2.6.142,5.653l-.053,2.569a15.739,15.739,0,0,1,2.223.2s-1.5,3.507-2.493,5.171c-.338.089-.258-.106-.667-1.269a8.967,8.967,0,0,0-2.548-3.607c-1.279-.991-3.03-1.3-4.251-2.159-1.177-.83-2.008-1.9-2.382-1.7a11.88,11.88,0,0,0,.185,4.349c.625,2.531,4.251,4.144,7.28,5.355.232.151.44.38.44.462.005.419-.4.29-1.392.19a2.135,2.135,0,0,0-2.649,1.55,7.7,7.7,0,0,1-.836,1.227,4.838,4.838,0,0,0-.665.87c-.044.154-.356.935-.665,1.588a3.43,3.43,0,0,0-.53,1.418,31.854,31.854,0,0,0,.174,5.786c.2,1.128,1.619,1.776,2.108,1.868.75.14.887.9.769,1.53-.578,3.083-2.346,4.97-2.912,3.957-.149-.267-.306-1.527-.348-1.511a4.08,4.08,0,0,0-.194,1.5.972.972,0,0,0,1.285.594c.864-.314,1.544-1.174,2.08-3.13.22-.8.428-1.247.8-1.3.683.048,1.748,1.46,1.748,1.46-3.547,2.968-10.356,8.355-10.356,8.355V895.635h55.926a48.863,48.863,0,0,1-3.375,21.136c-3.267,7.4-8.336,12.891-12.214,19.7a36.506,36.506,0,0,0-4.587,25.315,58.148,58.148,0,0,1-12.643,12.228s-2.869-3.028-4.463-4.723c0,0,.673-.056,1.459-.088,3.636-.409,7.57-.927,9.09-4.726.216-.422.125-.61-.132-.668-2.846.4-5.319-.006-6.934.109-3.947.28-5.615,1.653-5.615,1.653Zm.433,2.8s-4.567-2.179-4.906-2.241c-1.991-.362-6.793-2.874-7.6-4.582-.106-.223-.372-3.338-.457-3.976.029-.2.111-.2.31-.051.513.355,2.5,1.657,3.237,2.015,3.034,1.48,4.208,2.534,4.951,4.761a6.519,6.519,0,0,0,.491,1.259c.243.263.346.241.65.007a15.054,15.054,0,0,0,2.51-4.908c.078-.2.248-.409.148-.7-.238-.8-.821-1.837-.224-2.621-1.9.088-3.72-1.307-3.489-2.7.507-2.588,1.6-2.122,3.651-2.5-.237-5.986,5.344-4.532,5.329-.363,6.131.518,3.234,6.211-.327,5.34,1.412,3.234-2.831,4.448-3.427,3.9-.24,1.045-1.855,4.411-2.2,5.412,4.542-3.233,11.852-1.8,12.91-2C2743.269,969.946,2734.641,968.6,2734.354,968.365Zm81.8-20.4c1.154.892,10.935,7.034,12.741,7.173,0,0,.864.974,1.578,1.86.665.825.909.955.986,1.122s-.251.157-.306.151c-4.4-1.92-8.877-3.941-12.682-7.133a4.588,4.588,0,0,1-.882-.971C2817.253,949.718,2816.257,948.128,2816.153,947.962Zm3.242,4.955c4.474,2.524,8.276,4.971,12.353,6.287a5.667,5.667,0,0,1,1.168.439c.29.205,1.532.977,1.826,1.15,1.86,1.095,2.051,1.043,1.59,1.227-.511.2-3.778-.755-6.537-1.779-4.9-1.817-6.627-2.847-8.4-4.45C2821,955.376,2819.139,953.143,2819.4,952.917ZM2730.2,966.994a2.927,2.927,0,0,1,1.609.711,21.769,21.769,0,0,0,3,1.895c.349.15.458.189.458.189l4.4,5.014-11.328,9.245s-.919-.945-1.212-1.26c-.277-.3-.2-.547.148-.886a1.5,1.5,0,0,0,.251-1.149,1.22,1.22,0,0,1,.484-1.313,1.286,1.286,0,0,0,.483-1.044,1.5,1.5,0,0,1,.615-.816,1.766,1.766,0,0,0,.766-2.124c-.112-.349-.173-.441.282-.746a2.1,2.1,0,0,0,1.072-1.844,1.4,1.4,0,0,0-.043-.357c-.159-.842.58-.629,1.188.427a8.613,8.613,0,0,1,.592,2.594c.2,1.266.329,1.612.4,1.433.393-1.023-.071-4.862-1.234-5.383-1.7-.761-3.122-2.314-2.7-2.924.148-.211.174-.139,1.211.342a9.256,9.256,0,0,0,1.253.513c1.2.038.472-.478.081-.532a5.32,5.32,0,0,1-2.038-1.224C2729.673,967.255,2729.825,967,2730.2,966.994Zm-2.9.66c1.107-.012,1.319.286,1.331,1.243.006.565.216,1,1.1,2.124.36.459.6.811.576.99-.038.3-.145-.01-1.365-.155-.433-.051-.653-.058-.8.167-.42.625-1.31-.026-1.857-.947C2724.979,968.879,2725.439,967.675,2727.3,967.654Zm21.09,1.325,12.043,14.8-1.359,1.059-12.088-14.6Zm-2.014.908,1.29,2.187s-3.731,3.2-4.713,4.1c-7.928,6.446-25.824,21.078-25.824,21.078l-.241-2.943Zm-21.737.4c.235.006.5.3.886.89a12.87,12.87,0,0,0,1.794,2.221c1.468,1.357,1.61,1.234.418,1.363-.473.051-.628-.006-.916.718-.875,1.1-3.456-2.826-2.851-4.326C2724.211,970.564,2724.409,970.277,2724.644,970.283Zm4.2,2.117a1.556,1.556,0,0,1,.839.275c.639.264.681.417.576,1.03-.1.586-.545.738-1.419-.035-.665-.628-.553-1.243,0-1.27Zm19.221.362,1.415,1.834-32.072,26.076v-3C2718.192,997.772,2738.749,979.8,2748.066,972.762Zm-24.907.3c.086-.018.22.277.576.815a9.222,9.222,0,0,0,2.151,2.393c.717.543.8.846.3.85a.942.942,0,0,0-.65.485c-.3.525-.33.4-.8.125a3.53,3.53,0,0,1-1.613-1.771,5.24,5.24,0,0,1-.074-2.672C2723.091,973.143,2723.12,973.068,2723.159,973.06Zm5.071,2.081a1.066,1.066,0,0,1,.866,1.7c-.3.3-.573.436-1.172.082-.791-.468-.934-1.189-.286-1.592A1.2,1.2,0,0,1,2728.23,975.141Zm-5.268,2.07c.172-.008.482.241,1,.777a6.173,6.173,0,0,0,1.37.916c.622.349.651.47.313.75-.144.119-.618.127-.747.505-.368,1.08-1.928-.175-2.077-1.721C2722.747,977.654,2722.74,977.221,2722.962,977.211Zm3.922.128a1.027,1.027,0,0,1,.692,1.833c-.445.322-1.566-.246-1.679-.835C2725.825,977.958,2726.494,977.323,2726.884,977.339Zm23.948.892a1.08,1.08,0,1,1-1.075,1.08A1.077,1.077,0,0,1,2750.832,978.231Zm-3.214.447a1.08,1.08,0,1,1-1.075,1.079A1.077,1.077,0,0,1,2747.618,978.678Zm-21.539,1.442a1.763,1.763,0,0,1,.2,0c.987.048,1.039.991.453,1.5a.752.752,0,0,1-1.122.035C2724.8,981,2725.1,980.175,2726.079,980.12Zm23.933,1.579a1.079,1.079,0,1,1-1.079,1.08A1.077,1.077,0,0,1,2750.012,981.7Zm94.429.063v2.731l-37.95,31.714-1.285-1.684Zm-96.611.233-2.807,6.33-.844-1.631-2.1,0,.644-1.888-1.236-1.51Zm59.759,26.327,5-4.022c-2.152-10.9,6.435-15.233,14.59-12.068l5.073-4.341C2822.836,979.932,2800.7,985.331,2807.589,1008.322Zm-67.6-21.3a1.08,1.08,0,1,1-1.075,1.079A1.077,1.077,0,0,1,2739.987,987.024Zm-3.264.264a1.02,1.02,0,0,1,1.041,1.045,1.059,1.059,0,1,1-1.041-1.045Zm17.374,2.192-4.954,3.982c1.28,10.433-3.775,15.746-14.643,12.17l-5.256,4.186C2743.444,1019.624,2762.027,1006.984,2754.1,989.48Zm-15.247.942a1.08,1.08,0,1,1-1.075,1.079A1.077,1.077,0,0,1,2738.85,990.422Zm104.215.273a1.08,1.08,0,1,1-1.075,1.08A1.081,1.081,0,0,1,2843.065,990.7Zm-106.44.258-3.167,6.291-.789-1.894-2.127.029.687-2.2-1.33-1.128Zm102.186.663.985,1.664,2.079.051-.782,1.584,1.5,1.553-6.775,1.671Zm-109.743,4.568a1.08,1.08,0,1,1-1.076,1.079A1.08,1.08,0,0,1,2729.068,996.184Zm-3.1.12a1.08,1.08,0,1,1-1.075,1.08A1.08,1.08,0,0,1,2725.973,996.3Zm107.6.642a1.08,1.08,0,1,1-1.075,1.08A1.077,1.077,0,0,1,2833.573,996.946Zm11,.167v2.4l-30.819,25.727-1.3-1.672Zm-116.444,2.339a1.081,1.081,0,1,1-1.076,1.079A1.077,1.077,0,0,1,2728.128,999.452Zm107.646.259a1.082,1.082,0,1,1-1.075,1.079A1.077,1.077,0,0,1,2835.774,999.711Zm-3.044.194a1.081,1.081,0,1,1-1.079,1.08A1.077,1.077,0,0,1,2832.73,999.905Zm12.019.383-.09,3.051c-9.6,8.218-29.24,24.542-29.172,24.552l-1.483-2.056S2835.532,1007.217,2844.749,1000.288Zm-118.595-.449-2.962,6.709-1.278-1.806-1.87-.128.445-1.815-1.717-1.172Zm102.711,2.65,1.891-.361-.33,1.944,1.329,1.4-6.967,1.537,3.368-6.271Zm10.408,32.686c1.413,2.121,1.323,4.438.732,4.794a21.872,21.872,0,0,0-1.81-1.244c-3.245-1.405-5.837-2.559-6.3-4.627C2830.127,1029.422,2838.1,1033.411,2839.273,1035.175Zm-17.058-12.423,10.919-8.926a11.091,11.091,0,0,1,1.991,1.26c.113.433-.189.566-.634.969a1.585,1.585,0,0,0-.344,1.085c-.012.612.189.887-.057,1.157-.412-.022-.741.518-.723.955.013.333-.421.7-.676.954-.452.446-.584.539-.874,2.049-.029.151-.019.545-.231.748-.632.057-1.089,1.609-1.377,1.707a1.83,1.83,0,0,1-1.372-1.43,7.2,7.2,0,0,1,.043-2.277,6.638,6.638,0,0,0,.17-1.736c-.118-.45-.414-.174-.41.458a10.678,10.678,0,0,1-.259,1.752c-.163.727-.6,1.692-.405,2.265.3.855,1.386,1.216,1.877,1.669a7.19,7.19,0,0,1,1.721,2.034c1.034,1.9,1.037,2.221.779,3.649-.149.822-.947.682-1.427.348,0,0-3.071-2.244-4.407-3.358a15,15,0,0,1-4.3-5.332Zm4.143,6.135a35.123,35.123,0,0,1,4.221,2.7l-2.778,5.8a11.331,11.331,0,0,1,.71,3.165c3.513-.27,5.415,5.674-.056,5.125.625,3.675-5.271,6.555-5.11-.03-6.141.478-4.079-6.506-.295-5.2-.113-2.959,1.852-3.343,3.239-4.07a12.522,12.522,0,0,0,1.833-4.213l-.276-.891h0c-1.165,2.042-6.124,2.628-11.573,1.545,1.475-3.509,5.951-3.41,10.085-3.933Zm-10.836,4.416c-.185.7-.19.691.65.6.425-.043,2.133-.039,3.325.008,2.193.172,5.644.187,7.375-1.137.335-.321.519-.3.581-.124.148.855-1.533,3.669-1.533,3.669l-2.774,1.54s-1.136.053-2.543.019l-.025,2.506a3.259,3.259,0,0,0,.046,5.609l-.1,2.729,2.68.049c1.779,1.71,3.227,1.7,4.86.092l3.09,0-.012-2.948a3.254,3.254,0,0,0,.183-4.983l-.038-2.991-2.378.015s-.492-.382-.506-.686a40.5,40.5,0,0,1,2.069-4.038c.432-.625.315-.268,1.006,1.173.99,2.062,1.968,2.9,4.476,4.119a13.638,13.638,0,0,1,3.687,2.216c.517.495.821.339,1.021-.4a6.056,6.056,0,0,0-.6-4.794c-1.9-3.177-5.219-3.323-5.746-4.058-.069-.175.606-.378,1.331-.7a10.293,10.293,0,0,0,3.328-4.011,5.867,5.867,0,0,1,.469-2.171,4.553,4.553,0,0,0,.267-2.3,5.23,5.23,0,0,1,.085-2.338,5.138,5.138,0,0,0-.876-2.8c-.218-1.038-.167-.768.5-3.106.109-.378.861-3.636-.1-3.859.012.029.1.129.128.182a5.554,5.554,0,0,1-.139,3.041c-.752,2.617-.768,2.924-1.455,2.7a16.543,16.543,0,0,1-1.4-1,12.814,12.814,0,0,1,.244-2.443c-.151.413-.253,1.478-.731,1.728-.256.06-.61-.169-1.276-.745-.255-.22-.8-.605-.8-.605s7.751-6.669,10.684-8.88v98.773l-55.667.024c-.7-6.118,1.134-14.212,4.169-22.32,1.875-5.011,4.569-8.728,7.607-13.213,5.823-8.553,10.229-17.237,8.53-28.247a17.577,17.577,0,0,1-.369-2.856,32.019,32.019,0,0,1,5.568-7.059c3.012-2.47,7.2-6.161,7.539-5.942a13.293,13.293,0,0,0,3.752,4.688c.276.3.283.565-.353.7-4.158-.038-8.438.879-9.826,4.571Zm-96.867-28.062a1.08,1.08,0,1,1-1.075,1.079A1.077,1.077,0,0,1,2718.655,1005.241Zm104.284.245a1.08,1.08,0,1,1-1.075,1.079A1.077,1.077,0,0,1,2822.939,1005.486Zm2.343,2.961a1.08,1.08,0,1,1-1.076,1.08A1.077,1.077,0,0,1,2825.282,1008.447Zm-3.48.46a1.08,1.08,0,1,1-1.075,1.079A1.077,1.077,0,0,1,2821.8,1008.907Zm-3.842,2.46,1.944-.1a15.09,15.09,0,0,0-.513,2.151l1.584,1.168-6.852,1.17,2.953-6.1Zm-4.674,17.777-11.538-14.958,1.392-1.13,11.63,14.794Zm-1.41-14.533a1.08,1.08,0,1,1-1.075,1.08A1.078,1.078,0,0,1,2811.876,1014.611Zm24.233,1.676c.936.73,0,1.754-.893,1.35a.758.758,0,0,1-.106-1.435A.9.9,0,0,1,2836.109,1016.287Zm1.246.7c.959.015,2.019,2.3,1.824,2.97-.285.781-.548.809-1.9-.341-1.338-1.136-1.357-1.183-.816-1.8.3-.349.444-.809.894-.831Zm-22.821.417a1.081,1.081,0,1,1-1.076,1.079A1.077,1.077,0,0,1,2814.534,1017.4Zm-3.335.415a1.08,1.08,0,1,1-1.075,1.08A1.077,1.077,0,0,1,2811.2,1017.815Zm23.619.77c1.061.158,1.339.963.851,1.561-.664.81-2.151.075-1.8-.889a1.011,1.011,0,0,1,.948-.672Zm1.9,1.216c.415-.036,1.041.541,1.726,1.5.77,1.075.832,1.422.614,2.078-.318.955-.517,1.13-1.208.2a20.246,20.246,0,0,0-1.3-1.628c-.921-.97-1.065-.723-.516-1.463C2836.3,1020.141,2836.472,1019.822,2836.722,1019.8Zm-2.495,1.129c.953.495,1.045,1.138.481,1.593a1.64,1.64,0,0,1-2.059-.727C2832.317,1020.833,2833.335,1020.344,2834.227,1020.93Zm1.616,1.424c.539-.035.983.524,1.642,1.593,1.123,1.821,1.185,2.434.227,3.634-.689.863-.758.91-1.432-.466a10.662,10.662,0,0,0-2.569-3.231c-.405-.33-.547-.792-.255-.824.085-.009.444-.026.8-.038a1.2,1.2,0,0,0,.99-.369A.94.94,0,0,1,2835.843,1022.354Zm-3.871,1.42a2.157,2.157,0,0,1,1.632.812c.547.577.482,1.1-.592,1.211-.483.19-1.8-.676-1.806-1.258A.725.725,0,0,1,2831.972,1023.774Zm2.53,2.111h.078c.451.022.683.459,1.19,1.48.778,1.567.553,2.421-.791,3.114-.912.471-1.609.612-1.726.074-.034-.156-.035-.608-.11-1.047a4.667,4.667,0,0,0-.749-1.972c-.822-1.243-.967-1.685-.065-1.319a1.764,1.764,0,0,0,1.543-.116,1.608,1.608,0,0,1,.63-.214Zm-4.56,2.521c-.313-.006-.514.186-.43.7.284.14.733.01,1.072.132.456.165.739.91,1.226.788.051-.628-1.18-1.6-1.868-1.619Zm-93.093,10.928c-2.513-1.2-8.74-3.984-11.74-4.025-5.563-1.567-5.749-.855-7.7-1.357a20.537,20.537,0,0,1,19.846,4.992C2738.437,1040.126,2737.793,1039.786,2736.849,1039.334Zm6.575,24.437c5.907,10.289,11.414,21.9,20.653,39.081l-.888.278-35.23.064c1.744-18.986-8.474-37.075-9.165-36.366,7.98.148,14.6-1.4,16-4.35l-1.138-.327c-4.644,4.024-11.609,4.209-16.251,2.965.106-9.892-.306-20.34,0-30.23a14.054,14.054,0,0,1,12.912,5.636C2735.434,1047.289,2738.9,1055.894,2743.424,1063.771Zm-16.157-27.409c1.413-.109,9.124,3.077,12.574,5.456a19.956,19.956,0,0,1,2.36,2.893c.005.46-.676-.108-4.008-2.016a77.429,77.429,0,0,0-7.684-3.651l-.35-.15a3.885,3.885,0,0,0-.512-.47c-.908-.7-2.67-1.955-2.38-2.062Zm3.749,3.607a56.972,56.972,0,0,1,13.794,7.709,11.105,11.105,0,0,1,1.82,3.091c-.548-1.036-10.256-6.868-13.664-8.2Zm2.723,3.73c.421-.254,11.718,6.441,13.374,8.169a11.786,11.786,0,0,1,2.514,3.938c.006.5-.544.068-1.555-.87a53.755,53.755,0,0,0-12.779-8.472Zm2.1,3.889c5.3,2.254,11.968,7.672,15.331,10.9a6.292,6.292,0,0,1,1.555,2.61c.071.349-.1.325-.174.512-4.358-5.022-13.937-10.755-15.207-11.2A20.358,20.358,0,0,1,2735.835,1047.588Zm17.613,15.65c.611.625,1.578,2.816,1.362,3.084-.107.131-.1.062-.352-.117a99.394,99.394,0,0,0-14.535-11.354c-.562-.281-2.444-3.261-2.045-3.318,3.124,1.023,12.061,8.186,15.57,11.705Zm-12.926-7.122a2.913,2.913,0,0,1,.611.319c5.5,3.044,13.464,10.709,14.975,12.552a5.077,5.077,0,0,1,.845,2.247c-.069.5-.269.075-2.491-2.12a80.037,80.037,0,0,0-12.033-9.763c-.837-.578-.677-.651-1.284-1.713s-.851-1.539-.623-1.522Zm35.154.117c3.925.112,5.46,3.095,7.877,8.593a45.551,45.551,0,0,1,2.889,14.334c.006.265-.474.039-.692-.02a7.392,7.392,0,0,0-3.876-.163c-1.113.283-2.172.251-1.028-.5.368-.242,1.367-1.171,1.9-1.5,1.076-.672.421-.663-.646-.135-.809.4-1.349.906-1.683.986-.206.05-.078-.631.12-1.118,1.141-2.819,1.487-4.487-.213-5.01a4.178,4.178,0,0,1-1.373-.854c-.233-.228-.433-1.14-.506-1.177s-.133.831-.132.963a3.2,3.2,0,0,0,1.28,1.872c1.183.851,1.416,1.087.774,3.1-.9,2.824-1.092,3.515-1.257,4.17-.095.377-.279,1.018-.371,1.433a15.455,15.455,0,0,0-.248,4.33c.389,2.973,3.58,4.439,7.864,2.788.405-.158.574-.015.574-.015-3.412,3.484-7.242,5.711-9.474,12.751-2.871-5.808-6.937-10.359-13.7-12.183l-.1-1.212c2.358,1.134,6.929,2.678,9.83.943,1.554-1.065,1.081-1.752-.8-1.018-2.245.875-6.3.773-8.324-.372a1.1,1.1,0,0,0-.951.007c-.1-.682-1.079-3.255-.936-4.222-.084-.136.616-.142.75.038a8.9,8.9,0,0,0,6.359,2.811,5.427,5.427,0,0,0,3.953-1.886c.107-.095.626-.163.7-.243.114-.129.032-.32.027-.389-.032-.1-.222-.385-.348-.7a1.263,1.263,0,0,1-.17-.791c0-.186.126-.284.222-.414a1.078,1.078,0,0,0,.018-.733.45.45,0,0,1-.089-.664c.4-.454-3.441-3.974-4.193-3.965-.271,0-.111.505.441.874,1.952,1.3,3.375,3,3.052,3.223-.249.171-1.123-.2-2.013-.415a7.022,7.022,0,0,0-6.257,1c-.87.718-3.17.826-3.17.826-.029-1.259-5.325-15.306-5.335-14.7,1.926-2.255,7.979-7.593,14.045-9.894a12.983,12.983,0,0,1,5.214-.747Zm-23,3.144,11.01.171c-2.768,1.4-7.8,6.416-7.8,6.416-1.438-2.906-1.878-4.356-3.212-6.587Zm-9.517,1.457c.82.005,9.559,7.154,10.8,8.843.15.2,1.035,1.141,1.969,2.081,2.26,2.275,3.192,3.59,3.2,4.528.005.443-.4.155-1-.512a64.538,64.538,0,0,0-13.066-11.662c-.635-.341-2.606-2.976-1.937-3.27a.086.086,0,0,1,.031-.008Zm29.892,1.317c-.246-.009-.2.228-.071.447,1.387,1.23,5.048,1.176,6.31.182,1.145-.9-.356-.427-.824-.225a5.575,5.575,0,0,1-3.79.011,13.773,13.773,0,0,0-1.625-.415Zm3.377,2c-1.28.012-2.619.4-2.321.87.109.172.459.495,1.3.038,1.208-.6,3.69.187,3.763.206.254.067-.825-.713-1.187-.874A3.968,3.968,0,0,0,2776.433,1064.155Zm-30.852,1.336c4.7,2.884,10.417,8.657,13.851,12.779a4.206,4.206,0,0,1,.99,2.1c.008.741-.15.331-3.268-2.842a89.885,89.885,0,0,0-8.583-7.774c-1.469-1.075-1.73-1.215-2.421-2.49-.649-1.2-.883-1.789-.569-1.77Zm29.258.963a4.337,4.337,0,0,1-3.194-.063c-1.033-.356-.791-.051-.4,1.08a6.81,6.81,0,0,1,.29,1.351c0,.252,0,.27.731-.139.635-.357.769-.48,2.124-.163,1.376.321,1.4.2,2.046-.136.564-.3.68-.472,1.066-.316a2.877,2.877,0,0,0,2.577-.076,1.086,1.086,0,0,1,1.327.046c.466.235.647.086.464-.381a6.618,6.618,0,0,1-.213-1.234c-.007-.479-.124-.909-.325-.808a4.587,4.587,0,0,1-2.047.758c-1.295-.024-2.43-.805-4.447.081Zm-57.43.983c11.705,14.641,9.837,35.747,9.447,35.576l-9.447.04Zm30.656,2.959a72.627,72.627,0,0,1,13.324,13c.524.685.1.9.36,1.728.1.306-.422-.146-1.907-1.748-1.851-2-4.893-5-6.9-6.737a24.347,24.347,0,0,1-3.3-3.033c-.369-.539-1.872-3.131-1.585-3.207Zm26.313,1.347a1.417,1.417,0,0,0-.146,0,1.814,1.814,0,0,0-1.083,3.273c.536.5,1.387.792,1.384.524a1.783,1.783,0,0,0-.456-.477c-1.188-.917-1.066-2.346.286-2.361.469-.006.5.162,1.582.943,1.275.919,2.78.92,2.762,0-.014-.678-.266-1.374-1.4-1.262a3.14,3.14,0,0,1-1.049-.027,3.648,3.648,0,0,1-.754-.349A2.859,2.859,0,0,0,2774.378,1071.743Zm-23.274,4.31c3.577,2.411,8.493,7.863,11.006,11.079a2.027,2.027,0,0,1,.381,2.035c-.055.088-.495-.186-.495-.186-2.905-3.435-6.2-6.557-9.434-9.728C2752.562,1079.253,2750.641,1076.151,2751.1,1076.053Zm34.676,5.215-.772.386c-1.172-1.762-2.243-1.786-3.139.272l-.576-.145c-.428-.474,1.542-4.951,4.487-.513Zm-.173-1.5c.322.011.886.186,1.017.516a.431.431,0,0,1-.46.633,4.185,4.185,0,0,1-.708-.852C2785.3,1079.867,2785.366,1079.759,2785.607,1079.766Zm-13.137,2.155-.865.041c-1.647-2.174-2.878-.715-3.617.192l-.926-.126c.148-2.387,4.35-3.219,5.408-.107Zm8.414-1.855a1.086,1.086,0,0,1,.379.074,3.21,3.21,0,0,0-.475,1.421c-.337.14-.816.431-1.172.058-.663-.6.357-1.571,1.268-1.553Zm-13.51.243c.408,0,.286-.025.109.2a4.138,4.138,0,0,0-.554,1.014c-.056.256-.1.349-.338.358a10.735,10.735,0,0,1-1.377-.143c-.352-.334,1.1-1.4,2.16-1.433Zm5.232.3c.273-.033.209.358.122.512-.173.2-.241.27-.338.016a1.075,1.075,0,0,0-.176-.292c-.135-.174-.119-.183.047-.213C2772.336,1080.624,2772.511,1080.615,2772.606,1080.613Zm14.134,1.735c1.007-.027.334,1.689-1.067,2.1a5.248,5.248,0,0,1-5.129-.435c-1.031-.59-1.343-1.211-.445-.963,3.382.935,4.2.762,6.244-.563A.658.658,0,0,1,2786.74,1082.348Zm-32.541-.371c3.367,2.863,5.9,6.107,8.594,9.1a2.309,2.309,0,0,1,.684,1.743c-.129.542-1.233-.749-1.233-.749.027.012-6.573-7.061-6.573-7.061A20.088,20.088,0,0,1,2754.2,1081.977Zm10.062.988a9.167,9.167,0,0,1,1.446.311c3.239.986,4.219.949,6.081.091,1.186-.547,1.677-.468,1.169.355-.935,1.513-4.235,1.68-6.712.836a6.817,6.817,0,0,1-1.864-1.092C2764.042,1083.112,2763.96,1082.955,2764.261,1082.965Zm14.937,1a2.837,2.837,0,0,1,1,.461c2.714,1.545,4.717,1.262,6.388.226.3-.277.467-.144.507.124.142.941.185,1.617-.244,2.07a3.319,3.319,0,0,1-1.311.6c-2.627.887-5.824.253-6.436-1.726-.2-1.017-.326-1.725.1-1.753Zm-21.53,4.244a.105.105,0,0,1,.031,0c.19.029.628.413,1.319,1.2,3.611,4.112,5.609,6.475,5.245,7.665-.034,0-.057.257-.209.125a24.218,24.218,0,0,1-4.816-5.573C2757.915,1089.472,2757.371,1088.238,2757.668,1088.212Zm29.115,2.893c-3.048,2.34-6.745,7.909-7.076,10.652-.064.524-.008.917-.2,1.107-.154.15-.5.164-.959.073-.283-.052-.216-.083-.283-.4-.262-1.255.936-4.415,3.416-8.139,1.3-1.954,4.255-4.593,5.08-4.61C2787.311,1090.012,2786.776,1091.131,2786.783,1091.1Zm-22.567-1.27a2.9,2.9,0,0,1,1.014.307,18.894,18.894,0,0,1,5.527,3.056c3.3,2.7,6.967,9.116,5.89,9.716-.472.264-.808.1-1-.5a14.862,14.862,0,0,0-.794-1.77,19.934,19.934,0,0,0-9.144-8.873c-1.5-.733-1.65-.652-1.764-1.266-.085-.461-.005-.664.271-.672Zm22.523,2.357c.274-.023.339.479.246,1.49-.075.824-.124.807-1.039,1.772a14.906,14.906,0,0,0-3.992,6.823.684.684,0,0,1-.213.435c-.376.324-.851.166-1.175.159-.234-.124-.17-.639-.128-.928a20.856,20.856,0,0,1,4.9-8.535c.726-.783,1.162-1.195,1.4-1.216Zm-21.954.074c1.449-.034,6.6,3.828,8.679,7.207,1.362,2.209,1.729,3.115,1.416,3.437a1.708,1.708,0,0,1-1.28.047c-.349-.137-.482-.669-1.134-1.9a15.121,15.121,0,0,0-6.8-6.761,2.843,2.843,0,0,1-.917-.551c-.178-.367-.406-1.4.039-1.48Zm.781,2.87a11.924,11.924,0,0,1,2.735,1.662c1.839,1.355,4.639,5.5,4.061,6.093a1.424,1.424,0,0,1-1.159.067,21.868,21.868,0,0,0-5.565-6.175C2765.323,1096.252,2764.587,1095,2765.566,1095.136Zm-4.092.621c.085-.022.43.319,1.056.979,1.848,1.948,3.021,4.108,2.75,5.2-.23.923-.5.418-2.615-3.634C2761.775,1096.595,2761.349,1095.789,2761.474,1095.757Zm25.292.054a6.326,6.326,0,0,1-.167,1.993c-.08.4-.347.593-.6.908a11.7,11.7,0,0,0-1.7,3.243c-.3.885-.16,1.1-1.245.978-.507-.066-.385-.2-.186-.788.683-1.92,2.324-5.032,3.9-6.334Zm-21.012,2.113c.023-.575,4.96,4.414,4.282,4.976-.642.112-1.025.136-1.294-.094a17.963,17.963,0,0,0-2.878-3.437Zm20.737,1.573a.056.056,0,0,1,.031,0,9.538,9.538,0,0,1-.085,3.367,1.759,1.759,0,0,1-1.373,0,.444.444,0,0,1-.2-.575C2785.067,1101.695,2786.137,1099.57,2786.491,1099.5Zm-18.634,3.374c-.155.244-1.116.287-1.479.012a4.6,4.6,0,0,1-.094-1.886C2766.652,1100.756,2767.979,1102.543,2767.857,1102.871Z" fill="#131f67"/>
          <path id="path3389-2-3-5-0" d="M2802.976,894.412l.619.816-3.616.019c.591.5,13.99,27.574,31.124,58.852,2.836,5.489,8.246,7.468,14.528,7.708l-16.64-26.9c1.773-.969,5.291-3.563,7.42-3.082.131.657.763.4.772-.187l.77.015.271.423h3.233l.265-.383,2.787.4c-7.449-9.219-11.378-23.425-10.1-37.292l-24.7.055-.328-.435Zm-3,.835c-.014-.012-.024-.018-.024,0Zm-28.4,18.046c-2.808,9.106-9.754,16.6-13.878,24.142-4.421,8.232-5.46,15.4-4.216,23.23l.809.07A134.886,134.886,0,0,0,2775.1,917.24c.089-.331-.064-.914.011-1.248a1.009,1.009,0,0,1,.089-.952c.238-.251.15-1.235-.027-2.862a66.561,66.561,0,0,1,.045-13.007c.31-3.363.292-3.892.292-3.892l-1.613-.024a50.42,50.42,0,0,1-2.321,18.038Zm38.8-17.65,2.652.055c.408,8.134,7.232,9.193,8.288,9.074-1.743,5.5,1.141,11.538,8.087,12.4-1.593,5.1,1.227,11.822,6.783,11.64l.588.372a6.835,6.835,0,0,0-.414,2.268,18.306,18.306,0,0,0-2.707.431C2826.47,921.007,2810.375,895.643,2810.375,895.643Zm23.563,0c-.8,9.088,1.013,21.568,5.264,28.942a3.755,3.755,0,0,1-.224.63c-.405.612-.6.082-.851-.412-.905-1.68-2.616-1.941-3.365-1.006-1.655,2.264.139,3.157,1.532,4.436-5.691-.349-7.588-6.637-6.273-9.748a4.134,4.134,0,0,0,.705,2.124c1.6,2.435,3.935.381,3.266-1.546a10.9,10.9,0,0,0-1.3-2.127,7.335,7.335,0,0,0,1.952-.548,1.6,1.6,0,0,0,.727-1.713,3.47,3.47,0,0,0-.479-1.5,2.3,2.3,0,0,0-1.774-.85c-1.175.079-1.318.89-2.087,1.446-.191-1.461-1.123-2.573-2.646-2.3a1.986,1.986,0,0,0-1.283,2.995c.359.79.862,1.03,1.369,1.716-8.177-.92-7.286-10.668-6.381-10.494,0,0,.246-.046.173.327-.466,2.386,2.485,3.811,3.779,2.078.825-1.406-.947-3.626-.947-3.626a8.019,8.019,0,0,0,1.715-.564c2.136-1.237-.14-4.789-2.127-3.916-.7.318-.875.967-1.555,1.313-.454-.508-.482-1.064-1.3-1.521-2.243-1.253-3.644,1.712-2.4,3.017.509.529,1.407,1.011,1.231,1.075-6.952-.881-6.884-8.186-6.725-8.135Zm-59.755.061h.957c-.284,4.334-.9,10.051-.5,14.276.468,4.037.489,4.61.2,5.01-.4.445-.187.655-.109,1.017a1.86,1.86,0,0,1,.02,1.048,88.548,88.548,0,0,1-3.288,10.451c-4.474,12.384-11.772,25.887-17.5,32.968,0-.025-.262.023-.266,0a35.986,35.986,0,0,1,3.528-21.5c3.543-6.853,9.107-12.7,12.411-19.884a49.62,49.62,0,0,0,4.537-23.385Zm35.218-.041,23.315,36.4-4.255,2.093-23.86-38.363Zm13.665,7.11a1.1,1.1,0,1,1-1.095,1.1A1.095,1.095,0,0,1,2823.066,902.773Zm7.732,12.139a1.111,1.111,0,1,1-1.107,1.111A1.109,1.109,0,0,1,2830.8,914.912Zm-55.553,2.168c.4,1.586-7.4,25.394-18.482,40.545l4.839.1.149.536c6.779,10.048,2.54,18.937-2.934,23.066l1.9,2.536-1.7,1.387-1.706-2.039c-13.872,10.447-40.941,33.571-40.941,33.571l.151,3.709,2.112-1.67c13.731,13.344,42.847,12.614,50.483-14.932l2.046.047c-4.619,20.19-23.412,28.092-37.6,24.744l-3.322,4.792.89.478c-.165-.255-.315-.344-.074-.578l2.824-3.647c21.221,2.729,34.033-9.33,38.191-25.665l2.707.047a66.53,66.53,0,0,1-17.865,35.256c-6.594-.026-18.187-.178-18.187-.178,4.221,4.106,12.284,16.638,12.6,17.91,0,0,8.293.265,17.189.046,3.26-1.473,7.624-2.064,9.662-1.033,3.58,1.812,6.946,8.534,8.459,19.32a45.3,45.3,0,0,0,.851,4.516c.019.1.262.174.3.155.137-.072-.217.492-.232.909a2.285,2.285,0,0,0,.2,1.266c.25.277.22.459.185.579a4.769,4.769,0,0,1-.506.528c-.073,6.283-.037,11.987-.379,19.715l1.229.008c-.008-12.435,3.729-23.942,9.488-31.862,3.5-5.2,7.207-10.8,9.256-16.136a30.607,30.607,0,0,0,1.389-17.638l-.844.047c-5.065-3.486-7.129-10.927-.889-16.244l-2.209-2.885c-6.231,4.837-7.662,13.759-1.207,21.144l-2.525-.007c-6.3-7.893-4.9-16.956,2.375-23.424l-1.629-2.078,1.77-1.566,1.6,1.755,40.633-34.086-.029-3.73-3.114,2.535c-18.227-16.918-45.256-5.046-49.219,15.332l-2.478.026c5.2-21.929,24.335-28.127,38.181-25.21l3.417-5.19a20.324,20.324,0,0,1-7.279-4.364,18.273,18.273,0,0,1-2.3-2.179c-6.558-6.958-11.01-16.621-11.218-16.637l-17.832-.044c-2.616,1.3-7.1,2.776-9.554.783-5.279-4.28-7.05-12.913-7.776-18.469-.22-1.729-.406-4.738-.568-5.736a.407.407,0,0,0-.471-.162Zm63.219,9.6a1.086,1.086,0,1,1-1.08,1.088A1.085,1.085,0,0,1,2838.464,926.682Zm2.32,1.278a13.238,13.238,0,0,1,2.1,3.569c-.41-.013-.8.115-1.251-.242a4.992,4.992,0,0,0-1.271-2.853Zm-3.26,1.6c.36.177.646,1.544.394,1.778-.434.093-.73.062-.876-.09A1.917,1.917,0,0,1,2837.524,929.564Zm-70.917,11.875,16.554.019c2.881,2.217,5.7,1.924,9.782.146h18.407l1.041,1.9H2765.71C2765.97,942.8,2766.607,941.439,2766.607,941.439Zm-1.365,2.963h47.64l1.2,1.945h-50.023Zm4.6,2.827h5.345l-1.98,3.375h-5.516Zm11.866,0h5.1l-2.271,3.371h-5.055Zm16.5,0-2.146,3.371h-5.187l2.228-3.34Zm6.4,0h5.109L2807.8,950.6h-5.291Zm-68.63.524c-3.313-.038-2.7,4.373-2.386,4.235-2.08-.478-3.617.514-3.873,2.293a3.056,3.056,0,0,0,3.574,3.143,3.873,3.873,0,0,0,.326,2.7,11.693,11.693,0,0,1-1.228,2.965c-1.5,3.153-1.812,3.3-2.494,1.231-.734-2.227-1.869-3.355-4.824-4.795a18.164,18.164,0,0,1-2.475-1.488c-1.319-1-1.335-.982-1.273,1.045.081,2.632.876,3.786,3.675,5.339a20.387,20.387,0,0,0,4.467,1.829,14.346,14.346,0,0,1,3.381,1.523,8.343,8.343,0,0,0,3.129,1.013,16.012,16.012,0,0,0,7.534-1.526c1.211-.7,1.679-1.33,2.572-3.126a20.723,20.723,0,0,1-4.455-.21c-2.9-.171-4.347,0-6.549,1.146-1.841.96-1.944,1.132-1.175-.454a23.65,23.65,0,0,0,.974-2.439c.321-.849.406-.92,1.211-1a3,3,0,0,0,2.936-2.979,4.877,4.877,0,0,0-.027-.978c1.2.179,3.663-.42,3.586-2.92-.069-2.249-1.665-2.766-3.631-2.921A3.145,3.145,0,0,0,2735.975,947.753Zm.04.7c2.9.02,2.835,2.7,1.57,4.213l-1.544-1.276-1.245,1.154C2733.44,951.673,2733.446,948.433,2736.015,948.451Zm79.42.032,1.427,2.117h-2.948Zm-54.193,3.041h5.466l-2.193,3.1h-5.168S2760.5,952.643,2761.242,951.524Zm17.228,0-2.066,3.215h-4.777l1.915-3.149Zm6.4,0h4.939l-1.953,3.429h-4.881Zm11.623,0h5l-2.035,3.429h-4.931Zm11.329,0h5.152l-2.128,3.429h-4.966Zm-71.737.637,2.456,2.485-2.394,2.408-2.468-2.369Zm6.227,2.421c-.435,2.887-3.205,2.73-3.993,1.318l1.13-1.293-1.385-1.365C2739.409,951.078,2742.642,952.4,2742.313,954.582Zm-8.246-1.382-1.328,1.5,1.457,1.406c-.939,1.309-4.546,1.205-3.823-1.946A2.046,2.046,0,0,1,2734.067,953.2Zm84.183-.367,1.52,2.1-2.85.023Zm-59.278,2.574,61.116.2,1.636,2.008c-21.339.369-42.233-.344-64.032-.361Zm-21.487,1.3c2.422,1.491.633,4.634-1.966,4.1-1.938-.854-2.334-2.872-.591-4.043l1.366,1.13Zm20.957,1.2-1.667.008-1.624,1.906c6.14,6.495,5.915,12.129.193,17.04l2.3,2.587C2764.063,973.944,2765.486,965.283,2758.442,957.916Zm6.308.248c3.443,5.4,6.42,15.628-3.836,25l-1.238-1.506c8.929-8.756,6.831-16.119,2.831-23.425Zm.956.132,13.878.055c-2.971,11.367-5.056,18.06-5.369,35.843l-4.011.023c.437-.41-2.077-10.737-5.009-14.318C2771.344,969.417,2768.031,963.505,2765.706,958.3Zm-43.652.016a6.023,6.023,0,0,1,1.694.889c.864.52,1.986,1.178,2.494,1.464a6.45,6.45,0,0,1,3.4,3.631c.406,1.157.153,1.18-1.013.089a33.559,33.559,0,0,0-4.1-3.1c-.814-.56-1.072-.468-.6.213a8.877,8.877,0,0,0,2.556,1.957c1.076.659,2.558,1.977,2.441,2.171-.106.177-.29.162-.808-.066-.24-.105-1.014-.424-1.718-.711-3.022-1.231-4.313-2.743-4.494-5.258C2721.836,958.718,2721.782,958.314,2722.054,958.312Zm63.331.054a3.725,3.725,0,0,1,.472.785c.116.5-.371.956-1.907,1.642-.527.236-.965.364-.951.672.07.725,1.453,1.832,1.284,2.82-.318.755-2.239,1.5-2.719,2.388,0,.613,1.249,1.551,1.071,2.384-.1.249-.5.5-1.094,1.021-1.219,1.062-1.294,1.224-.847,2.051,1.038,1.919,1.077,1.778-.341,3.141s-1.4,1.357-.719,2.552c.736,1.287.7,1.229-.286,2.054-.969.808-.929.973-.41,1.977.5.97.616.984-.229,1.735-.986.878-1.171.97-.475,2.074.719,1.142.772,1.094-.039,2.027-.768.884-.858.925-.441,1.526.523.755.622.956.074,1.787-.593.9-.59.833-.047,1.67a2.535,2.535,0,0,1,.379,1.487l-1.717,0a4.246,4.246,0,0,0-.213-1.355c-.486-.884-.474-1.158.1-1.942.593-.8.494-.873-.058-1.678s-.479-.8.247-1.732c.667-.849.7-1.25.321-1.735-.9-1.151-.9-1.635.008-2.4.689-.581.753-.839.158-1.833-.582-.973-.655-1.062.414-2.031,1.093-.991,1.082-.97.348-2.093-.711-1.09-.673-1.162.468-2.226s1.171-1.078.414-2.434c-.708-1.27-.713-1.249.669-2.486,1.377-1.151,1.846-1.3.472-2.951-.765-1.311-.22-1.44,1.037-2.093,2.2-1.352,1.2-1.268.274-3.274-.774-1.345-.331-1.354,1.018-2.027a11.6,11.6,0,0,0,1.087-.524c.9-.5.413-.967.413-.967Zm2.882.031,6.625.086c-7.679,9.846-11.375,22.438-12.7,35.722l-2.5-.038C2779.531,983.792,2782.782,970.831,2788.267,958.4Zm34.02.231c3.79,3.2,6.6,5.036,8.6,5.759,0,0-2.673,4.452-2.878,4.29A32.442,32.442,0,0,0,2790.22,994.1l-2.421.015a53.424,53.424,0,0,1,6.564-20.6,57.047,57.047,0,0,1,12.069-14.944Zm-26.443-.165,3.264.059s.613.739.89,1.005c1.409,1.605,1.53,1.285-1.574,3.045-1.961,1.111-2.829,1.627-2.944,2.093-.087.469.856,1.4.967,2.027,0,.071-2.665,1.863-3.148,2.117-.673.327-.707.609-.039,1.774.768,1.34.706,1.293-.951,2.454-1.617,1.133-1.934,1.021-1.246,2.148.957,1.565.507,1.918-1.744,3.138-.568.308-.583.617-.186,1.685.552,1.485.695,1.336-.468,2.14-1.373.949-1.615.975-1.311,1.557.884,1.69,1.235,2.1.054,2.652-.9.421-.919.659-.421,1.775s.63,1.076-.26,1.709c-.824.585-1.309.455-.506,1.413.634.758.578,1.356.062,1.821-.445.189-.652,1.038-.522,1.057l-1.145.031a1.3,1.3,0,0,1,.321-2.027c.145-.28-.033-.478-.4-1.134-.5-.905-.48-1.013.236-1.542s.745-.4.263-1.577c-.561-1.373-.535-1.53.348-2.166s.881-.767.29-1.969c-.623-1.269-.623-1.27.921-2.3,1.086-.724,1.1-.681.526-2.023-.4-.928-.116-1.249,1.361-2.264.845-.581.908-.7.511-1.387-1.1-1.905-1.084-1.963.8-3.192,1.545-1.005,1.532-1.091.936-2.431-.645-1.45-.7-1.339,1.416-2.613,1.745-1.05,1.839-.989,1.122-2.253-.893-1.571-.836-1.314,2.653-3.316,1.258-.865,2.393-.566,1.141-2.039C2796.519,959.225,2795.844,958.463,2795.844,958.463Zm-61.622,2.587c.241-.009.43.289.417.842a6.792,6.792,0,0,1-.762,2.326c-.737,1.578-1.473,2.746-1.86,2.75-.912.01-.887-.2.325-2.575.553-1.086,1.124-2.326,1.214-2.567C2733.751,961.306,2734.008,961.057,2734.222,961.05Zm11.216,3.572c.017,3.341-10.418,5.024-10.96,3.338,1.819-1.43,7.2-.8,8.337-2.074-1.374-.08-3.235.147-4.51.17-1.591.029-4.16.711-4.186.993-.167-.879,2.731-2.529,5.026-2.632C2741.291,964.323,2743.622,964.578,2745.438,964.622Zm.894,5.1s-20.347,16.9-30.405,25.082l.062,3.647,32.188-26.457Zm-.066.835,1.3,1.584-30.216,24.718-.108-2.59Zm95.507,8.673-1.086,1.164c-29.512-22.046-56.688,11.427-41.7,35.373a6.114,6.114,0,0,1-1.178,1.073C2781.1,989.04,2813.063,956.512,2841.773,979.229Zm-16.24-4.828a9.636,9.636,0,0,1,6.061,2.741c1.516,1.833,1.076,2.649-.851.92-2.07-1.51-3.78-1.86-.905-.077a4.477,4.477,0,0,1,1.234,1.246c.1.307-.425-.014-2.835-.9a8.039,8.039,0,0,1-3.721-2.908C2824.163,974.7,2824.656,974.394,2825.533,974.4Zm-6.211.05a4.956,4.956,0,0,1,1.319.132,9.04,9.04,0,0,1,3.562,1.542c.538.42.366.723-.259.454a16.444,16.444,0,0,0-3.447-.959c-.6.062,0,.456.863.672,1.908.479,2.855.973,1.493.994a35,35,0,0,1-4.665.015c-1.414-.167-3.531-1.462-3.044-1.926C2815.671,974.875,2817.754,974.464,2819.322,974.451Zm-6.053,1.992c2.5.03,3.857.968,1.121,1.157-4.7.748-5.606,1.775-.394.552,1.212-.285,1.19.154.352.567-.686.334-1.542.5-2.255.846a10.133,10.133,0,0,1-5.38.218C2805.017,979.136,2810.339,976.409,2813.269,976.443Zm20.139.427c1.265.033,3.963,1.874,5.164,3.6.785,1.129.394,1.939-.793,1.033-.237-.181-1.942-1.636-2.035-1.67-.159-.058,1.414,1.442,1.644,1.864.2.358.652,1.179-.2,1.2-1.326-.164-4.44-3.657-4.46-5.382C2832.726,977.05,2832.987,976.859,2833.408,976.87Zm-15.691.983c.526-.017.257.263-.743.971-1.805,1.276-.864,1.02,1.245-.07a7.941,7.941,0,0,1,1.687-.641c.272-.05.595-.125.719-.163.567-.175.13.527-.793,1.27a16.868,16.868,0,0,1-5.647,3.165c-1.929.479-2.337.54-1.624-.668,1.133-1.921,2.783-3.457,4.359-3.755A5.614,5.614,0,0,1,2817.717,977.853Zm6.49.031a15.527,15.527,0,0,1,3.361.489c1.1.345.812.419-.507.563-2.48.272-1.447.563.963.521,3.289-.025-1.647,1.19-3.249,1.433a15.107,15.107,0,0,1-4.339-.5c-1.038-.2-.416-.959,1.551-1.9A5,5,0,0,1,2824.207,977.884Zm20.325.446.089,2.128-39.819,33.428-1.354-1.5Zm-13.549,1.829c1.588-.021,3.882,1.085,3.636,1.752-.092.249-.269.238-1.481-.086-.8-.212-2.22-.437-2.031-.26a11.19,11.19,0,0,0,1.6.591c1.4.338,3.083,1.134,2.712,1.37-.65.4-1.246.087-2.016,0-1.925-.268-5.088-1.244-5.608-1.732C2827.206,981.245,2829.275,980.182,2830.983,980.159Zm-18.573.125c.286.015.393.282.12.648a12.791,12.791,0,0,0-.979,1.686,10.211,10.211,0,0,1-3.45,3.681c-1.279.8-1.462.663-1.35-1a5.694,5.694,0,0,1,3.118-4.4c.8-.114,1.265-.327.421.688-1.5,1.8-.472,1.615.925-.428C2811.659,980.508,2812.123,980.269,2812.41,980.284Zm-5.171.241c.863-.005,1.152.3.046.823a17.16,17.16,0,0,0-3.2,2.128c-.087.274.7-.156,2-.87,1.741-.954,1.894-.932,1.052.159a12.135,12.135,0,0,1-5.04,3.351c-2.515.692-2.453.208-1.048-1.665,1.34-2.038,2.477-3.009,4.193-3.565A6.94,6.94,0,0,1,2807.239,980.525Zm-42.655.31c9.125,15.8,4.059,31.853-6.527,40.039-11.068,8.559-28.287,8.051-38.448-2.221l1.41-1.336c-.007.006,16.017,16.391,36.2,1.847,10.242-7.381,14.473-24.811,6.023-36.962Zm-40.875.035a.128.128,0,0,0-.07.016,20.023,20.023,0,0,0-1.7,5.029,1.264,1.264,0,0,0,.372,1.153c.238.234.623.082.742.035.772-.351,1.2-.888,1.872-2.59a4.549,4.549,0,0,0,.426-2.435,1.634,1.634,0,0,0-.6-.734A2.819,2.819,0,0,0,2723.709,980.87Zm.178.711a1.691,1.691,0,0,1,1.176,1.017c.006.741-.416,1.974-.731,1.79-.527-.657-1.134-.242-1.234-.481a4.994,4.994,0,0,1,.719-2.318A.265.265,0,0,1,2723.887,981.581Zm98.552.59A16.549,16.549,0,0,1,2833.493,986l-1.582,1.456a17.243,17.243,0,0,0-19.83-.163c-4.745,3.321-8.945,10.671-4.831,21.024l-1.485,1.352a18.654,18.654,0,0,1,6.022-24.539,20.089,20.089,0,0,1,10.258-2.955C2822.176,982.172,2822.308,982.171,2822.439,982.171Zm-60,1.216c.123,0,.309.4.29.9-.024.6-.276,1.374-.677,1.538-.453.186-.739-1.169-.739-1.169A5.225,5.225,0,0,1,2762.438,983.387Zm72.645.466a2.677,2.677,0,0,1,.464.015c.453.056.457.464.031.854-.46.422-.7.445-1.164.105-.414-.3-.436-.526-.077-.784A1.594,1.594,0,0,1,2835.083,983.853Zm-77.929.093,1.346,1.666-4.665,3.766-.556.043-35.708,29.688-.008-2.637Zm74.608,4.019-4.863,4.029c-9.72-5.07-17.514,3.965-14.765,12.172l-4.205,3.664c-7.523-20.726,14.477-27.819,23.833-19.865ZM2806.3,984.8a.1.1,0,0,1,.042,0,.215.215,0,0,1,.1.062,10.5,10.5,0,0,1-.422,3.425,1.546,1.546,0,0,0-.162.532,21.809,21.809,0,0,1-1.6,3.355,8.067,8.067,0,0,0-.626,1.371c-.564,2.721-1.779-1.654-1.35-4.194.2-1.193,1.889-3.658,2.379-3.475.249.093.231.281-.2,1.235-1.219,2.661-1.524,4.033-.244,1.46C2805.686,985.6,2806.07,984.842,2806.3,984.8Zm-82.613.054a.442.442,0,0,1,.4.323,1.207,1.207,0,0,1,.012.738,1.393,1.393,0,0,1-1.288.9.576.576,0,0,1-.511-.466,1.136,1.136,0,0,1,.31-.9,1.632,1.632,0,0,1,1.075-.6Zm37.023.171c.576.029,1.183,1.584.8,2.295-.316.582-.374.474-.928-.652a12.817,12.817,0,0,1-.514-1.227l.472-.373a.341.341,0,0,1,.119-.039A.333.333,0,0,1,2760.709,985.025Zm-.971.657a7.81,7.81,0,0,1,.754,1.98c.09.536.076.436-.511.214a2.718,2.718,0,0,1-.85-.82,5.572,5.572,0,0,0-.38-.582Zm3.643.236c.307-.01.635.3.936,1.061,1.131,2.854,1.027,6.056-.243,7.568-.211.251-.262.261-.515.1a2.9,2.9,0,0,1-.027-1.868,5.927,5.927,0,0,0,.263-1.4c.033-1.1-.266-1.234-.41-.217-.166,1.174-.346,1.995-.665,1.289a10.36,10.36,0,0,1-.364-1.1C2761.721,988.887,2762.462,985.95,2763.381,985.918Zm-4.923.73s1.087,1.411,1.535,1.915c.158.272.152.342-.1.439-.43.165-1.869-.8-2.44-1.1-.308-.247-.174-.435-.174-.435A13,13,0,0,1,2758.458,986.648Zm42.9.051c.581-.007.581.2-.038,1.091-3.46,5-2.761,4.255-.561,1.522,1.223-1.519,1.436-1.664,1.57-1.324a18.249,18.249,0,0,1-2.108,4.284,8.927,8.927,0,0,1-2.39,1.821c-1.645.836-1.463.5-.855-1.573C2797.753,989.3,2799.7,986.718,2801.359,986.7Zm-44.932,1.728c9.484,23.679-16.486,34.072-28.2,23.121l1.365-1.091c16.3,11.1,32.388-6.682,25.025-20.6C2754.613,989.86,2755.28,989.3,2756.427,988.427Zm2.2.575c1.561.16,3.867,3.028,3.984,4.625.246,1.134-.073,1.329-.627.532-.935-1.735-.823-.635-.027,1.087.423.87.521,1.913.081,1.969-.6-.122-1.9-2.2-2.3-3.06a10.054,10.054,0,0,1-1.536-4.345C2758.1,989.288,2758.241,989.006,2758.624,989Zm-4.719.776c7.224,13.91-8.317,30.624-24.124,19.821l4.739-3.775c8.25,3.973,17.454-.954,14.817-12.376Zm72.07,2.594-13.032,10.9C2810.261,994.238,2820.108,989.076,2825.975,992.372Zm-24.206-.023c.426-.089.788,2.648.867,6.489.077,3.758.173,4.129-.99,2.746a11.1,11.1,0,0,1-1.354-1.608c-.773-1.466-.527-3-.313-5.149.2-2,.912-1.69.8.407-.074,1.35-.06,3.028.151,3.026.077,0,.1-.131.051-.315a33.634,33.634,0,0,1,.549-5.246C2801.608,992.477,2801.691,992.366,2801.769,992.349ZM2765.853,994c.941.37,1.209,3.525.189,6.575a4.374,4.374,0,0,1-2.115,2.7c-.717.377-.884.258-.561-.4a10.884,10.884,0,0,0,1.152-3.565c.1-1.349-.612-.266-.553.311-.555,2.517-1.285,2.9-1.191.244a6.46,6.46,0,0,1,1.242-4.135C2764.477,995.055,2764.97,994.129,2765.853,994Zm32.687.319c.387,0,.482.525.135,1.542-.24.7-1.059,2.986-.963,2.978.06-.005.939-2.057,1.118-2.392.294-.55.4-.654.661-.629a9.955,9.955,0,0,1-.131,3.328c-.533,2.734-2.388,5.559-3.1,4.718-1.158-1.369-.616-6.916.92-8.6C2797.761,994.631,2798.239,994.319,2798.54,994.322Zm-49.636.419c1.4,9.673-6.55,13.8-13.418,10.885C2735.632,1005.59,2748.9,994.741,2748.9,994.741Zm32.5.179,1.385,1.825,2.537.132-1.3,1.922,1.292,2.462-2.832.055-1.628,1.879-1.416-1.7-2.475-.132,1.443-2.31-1.164-2.21,2.672-.128Zm-21.292.831a7.153,7.153,0,0,1,2.038,2.839c.473,1.846.3,5.339-.363,5.219-.718-2.516-.439-3.815-.7-3.526-.446.463.276,4.319.038,5.269-.113.243-.5-.049-.928-.671-1.151-1.662-1-8.164-.116-9.122A.062.062,0,0,1,2760.109,995.751Zm84.732,3.92-31.313,26.044,1.806,2.333,29.564-24.506Zm-45.226.449c.137-.028.449.192,1.037.839a16.385,16.385,0,0,1,2.506,4.764,16.361,16.361,0,0,0,.538,1.682c.219.531.238.678.108.839-.542.671-2.811-1.019-3.543-2.637-1.028-2.273-1.054-4.321-.023-2.326.375.725.84,1.782.835,1.363a13.382,13.382,0,0,0-.8-2.322C2800.053,1001.894,2799.265,1000.191,2799.615,1000.12Zm44.894.633.066,2.155-29.164,24.488-1.145-1.4S2841.736,1003.06,2844.509,1000.753Zm-45.532,1.332c.137.014.207.21.166.648-.133,1.424-.483,4.523-.41,4.8.044.164.462-2.052.557-2.446.5-2.054,1.26,2.856.8,5.056-.072.346-.218.9-.294,1.246a5.06,5.06,0,0,1-.418,1.084c-.826,1.3-2.767-3.89-2.44-6.536C2797.142,1004.285,2798.487,1002.035,2798.977,1002.085Zm-33.739,1.137c.381-.02.455.356.39,1.146-.22,2.709-2.014,5.554-3.98,6.31s-2.139.6-.978-.8c.88-1.066,1.413-2.185,1.265-2.33-.082-.081-.278.367-.99,1.285-.894,1.151-1.041.176-.229-1.515a6.882,6.882,0,0,1,2.677-3.118A5.114,5.114,0,0,1,2765.238,1003.222Zm17.734.824a86.154,86.154,0,0,1-8.885,35.357l-5.225.012c6.4-9.463,10.482-21.178,11.619-35.319Zm2.3.011a9.856,9.856,0,0,1,1.1,1.367c.351.608.449,1.138-.19,1.592-.741.63-1.051.4.159,1.958.637.823.43.957-.36,1.65-.815.715-.862.754-.1,1.72.81,1.035.957,1.194-.1,1.993-.953.719-.965.888-.22,2.058.685,1.077.893,1.066-.422,2.182-1.123.953-1.15.689-.066,2.443.4.645.371.687-.36,1.336-1.795,1.594-1.7,1.495-1.446,1.914,1.967,2.831,1.078,2.75-.847,4.1-.388.333-.288.71.58,2.124.738,1.2.631,1.462-1.1,2.656-1.8,1.244-1.86,1.411-.96,2.68.887,1.249.907,1.164-.533,2.454-.651.582-1.184,1.118-1.184,1.118h-3.191s.674-.617,1.133-.959c2.621-1.947,2.61-1.741,1.5-3.145-.978-1.243-.883-1.325.108-2.035.713-.511,1.674-1.038,2.394-1.561.389-.278.1-.509-.545-1.736-.724-1.376-.764-1.217.584-2.33,1.476-1.219,1.5-1.174.7-2.718s-.816-1.415.2-2.245c1.506-1.234,1.578-1.168.786-2.6-.633-1.14-.639-1.108.429-2.178s.943-1.012.3-2c-.647-1.005-.613-1.14.24-1.9.92-.822.79-.772.027-1.821s-.74-.957.174-1.76c.481-.421.964-.85.936-1.048a5.991,5.991,0,0,0-1.025-1.934c-.178-.266.179-.348.751-.944s.555-.454.116-1.258c-.238-.435-.689-1.169-.689-1.169Zm-8.551.028.908.023a5.044,5.044,0,0,0,.368.423c.584.6.609.949.023,1.27-.563.308-.347.739.124,1.433.5.736.495.651-.221,1.375-.738.6-1.119.773-.3,1.914.463.529.405,1.075-.313,1.55-.553.364-1.47.667-.5,2.054.472.988.509.925-.476,1.627-1.311.934-1.557.771-.955,2.132.669,1.513.735,1.536-.639,2.551-1.6,1.18-1.651,1.275-.986,2.687s.688,1.064-1,2.385c-1.237.967-1.519,1.021-1.152,1.821.687,1.5.978,1.9-1.025,2.932-2.313,1.19-2.43,1.278-1.319,3.048.9,1.44.7,1.236-.789,2.1-2.156,1.246-3.109,1.788-3.176,2.175-.044.438,1.683,1.74,1.683,1.74l-3.009.081s-1.265-1.031-1.756-1.51c-1.361-1.33-1.376-.895,3.148-3.1,2.5-1.217,2.287-.941,1.88-1.651-1.2-2.1-1.246-2.314,1.013-3.456,1.963-.992,1.626-1.063,1.149-2.563-.416-1.307-.35-1.186.685-1.957,2.5-1.862,2.432-1.669,2.042-2.582s-.679-1.317-.391-1.76c.9-1.3,2.818-1.573,2.035-3.118-.366-1-.5-1.219.607-2.081,1-.832,1-.731.363-1.829-.775-1.008-.663-1.174.472-1.965.81-.743.8-.724.345-1.449-.627-1-.6-1.03.3-1.817.729-.641.855-.676.391-1.383-.616-.937-.514-1.143.3-1.6.5-.282.5-.4.452-.874a5.2,5.2,0,0,0-.266-.621Zm11.286.054,4.189.012a34.643,34.643,0,0,0,5.024,13.467c-5.3,8.537-4.092,15.627-.859,21.9l-13.266-.051A117.239,117.239,0,0,0,2788,1004.139Zm-28.754.031c.154-.011.263.239.523.683.839,1.437.245,3.474-.983,5.608-.919,1.6-1.085.377-.665-1.922.265-1.45-.463.722-.808,2.473-.188.95-.641,1.716-1.134,1.67-.463-.075-.32-1.406-.305-1.7.1-2.1.883-3.58,2.394-5.662C2758.844,1004.531,2759.076,1004.183,2759.25,1004.17Zm42.763,4.1a1.626,1.626,0,0,1,.82.272c.267.153.747.445,1.079.629,1.162.642,1.256.838.7,1.483-.683.8-1.12.494-2.3-.835C2801.518,1008.923,2801.5,1008.294,2802.013,1008.271Zm-.387,1.755a1.69,1.69,0,0,1,.952.641c.765.879.673,1.622-.174,1.409-.346-.507-.525-1.28-.855-1.852C2801.474,1010.094,2801.514,1010.023,2801.626,1010.026Zm37.418.113a2.922,2.922,0,0,0-2.22,1.984c-.721,3.051-.72,2.919-.074,3.363.19.13.332.226.426.283.379.3.9.765.963.672.615,0,1.551-3.9,1.52-4.71.039-.851.068-.954-.143-1.34A.5.5,0,0,0,2839.044,1010.139Zm-37.986.066a.246.246,0,0,1,.185.077,5.835,5.835,0,0,1,.929,1.977,1.257,1.257,0,0,1-.124.489c-.42.81-1.074.025-1.141-1.371-.038-.784,0-1.144.151-1.172Zm37.87.6a.716.716,0,0,1,.093,0c.5.022.42.539-.271,1.289-.364.394-1.114.581-1.362.338-.36-.354.384-1.327,1.2-1.561A1.519,1.519,0,0,1,2838.928,1010.807Zm-84.137.427c.028,0,.054,0,.081,0a.909.909,0,0,1,.65.334,1.781,1.781,0,0,1,.035,1.58c-.394,1.394-3,4.094-3.93,4.1-.556-.1,1.768-3.062,1.841-3.561-.173-.17-1.613,1.5-2.29,2.66a6.081,6.081,0,0,1-.839,1.285c-.485.056-1.045.367-1.048.039.08-1.481,2.968-4.709,3.953-5.607a2.514,2.514,0,0,1,1.547-.835Zm6.966.14c2.231-.025-2.162,4.877-5.005,5.584a5.906,5.906,0,0,1-2.634.093c-.117-.185.014-.335.379-.431a15.365,15.365,0,0,0,3.489-2.229c0-.275-1.2.181-2.228.846-.664.432-.976.342-.615-.178a7.869,7.869,0,0,1,6.614-3.685Zm38.628.007c.127.011.253.263.332.827.406,1.051.425,1.338.043,1.647-.655.529-.816.381-.808-.835.006-1,.222-1.656.433-1.639Zm-73.516,1.394s.814.307.476.7c-.235.27-1.237.04-1.238-.039Zm112.109.032c.266-.018.272.228.131.85a5.964,5.964,0,0,1-.963,2.52,3.635,3.635,0,0,1-1.117-.675c-.1-.106-.426-.347-.468-.505a1.587,1.587,0,0,1,.4-1.53,1.162,1.162,0,0,1,.626-.206,3.367,3.367,0,0,0,.855-.28A1.76,1.76,0,0,1,2838.978,1012.807Zm-111.823,1.184a5.519,5.519,0,0,1,1.752.245,23,23,0,0,1,5.129,2.283c.676.649-1.089,1.339-3.21,1.363-1.125.013-1.337-.222-2.893-1.157-.2-.132-1.107-.73-.844-.948.289-.3,1.158.085,2.24.637.353.18,1.212.129,1.211-.031a17.207,17.207,0,0,0-3.783-1.511c-1.064-.339-1.039-.681-.387-.827a5.784,5.784,0,0,1,.785-.054Zm-2.127.742s.448.4,1.029.835a7.639,7.639,0,0,1,1.872,1.836c.737.9,1.9,3.147,1.771,3.554-.3.932-3.409-.7-5.952-3.258a18.364,18.364,0,0,1-1.312-1.449l.971-.881s.853.715,1.837,1.588c1.848,1.636,1.835,1.074-.023-.649-.525-.487-1.009-.924-1.009-.924C2724.236,1015.073,2724.531,1014.8,2725.028,1014.733Zm75.991.077s.993,1.035,1.362,1.511c-6.054,5.941-8.365,14.242-2.522,23.082l-2.8-.011c-5.253-10.378-2.762-18.19,3.964-24.582Zm-51.2.245c.376-.017.033.428-.635,1.569-1.247,2.131-1.494,2.669-3.519,3.2a9.4,9.4,0,0,1-1.571.066c-.871.109-.483,0,.851-.87,1.849-1.2.279-.585-1.431.3-.99.512-2.029.486-2.119.221-.05-.146.4-.531.692-.792,2.6-2.337,3.4-2.239,5.825-3.083A12.388,12.388,0,0,1,2749.821,1015.055Zm-10.884,2.132a12.3,12.3,0,0,1,2.6.276c.517.117,1.36.221.649.866a8.8,8.8,0,0,1-4.587,1.867c-.226.009-3.538-.226-2.831-.939a8.068,8.068,0,0,1,.979-.132c1.834-.349,1.338-.646-.921-.525-2.829.152-2.958-.142-.816-.73a18.628,18.628,0,0,1,4.517-.679c.138,0,.272-.005.407,0Zm15.115.217c1.259-.012,2.238.214,2.243.7.009.782-2.376,2.5-3.941,2.835-.368.08-.893.2-1.164.257a21.026,21.026,0,0,1-3.864-.09c-1.416-.516-.431-.719,2.166-1.021,1.13-.132,1.669-.429,1.667-.645a4.689,4.689,0,0,0-2.073.024c-1.385.175-1.113-.234.611-1.13A10.662,10.662,0,0,1,2754.052,1017.4Zm-23.3,1.084a5.468,5.468,0,0,1,1.308.446c1.507.441,3.579.939,5,2.493,1.145,1.114,1.424,1.473,1.184,1.864-.292.475-3.846.114-5.342-.528a7.087,7.087,0,0,1-2.7-2.12c-1.3-1.906-.755-2.408.9-1.076,1.995,1.606,2.291,1.771,2.645,1.7.143-.029-.209-.359-.878-.858-1.681-1.253-2.5-1.928-2.112-1.918Zm12.3,2.046a6.545,6.545,0,0,1,3.655.874c2.031.719,1.539,1.358-2.065,2.26a6.634,6.634,0,0,1-4.939-.687c-2.905-1.8-2.713-2.154.53-1.352,1.065.264,2.127.313,2.193.113a9.16,9.16,0,0,0-2.286-.831c-1.134-.377-.16-.345,2.108-.369.3,0,.565-.008.8-.008Zm83.581,7.753s-.371.176-.535.266a13.678,13.678,0,0,1-2.231.28,15.709,15.709,0,0,0-4.937,1.041,8.054,8.054,0,0,0-3.31,3.269c1.483-.1,9.876,1.423,12.2-1.613.487-.636-1.252,4.8-2.144,5.039-2.212-.267-3.143,3.218-2.922,3.071-2.231.868-3.961,1.377-3.394,3.977.248,1.134,1.392,2.48,3.817,2.142-.66,4.508,4.834,5.674,5.44.24,0,0,1.071-.205,1.483-.254,2.506-.6,3.113-4.271-.564-5.437-1.02-.3-1.078-.5-1.078-.5a3.359,3.359,0,0,0-.453-2.666c.811-1.941,2.83-5.683,2.83-5.683Zm.389,1.121c.505.678-2.131,1.8-4.938,2.042a17.3,17.3,0,0,0-2.05.245c-.3.532,5.428.145,7.213-.858.612-.344.667-.042.4.488-2.073,2.676-7.075,2.016-10.987,1.547-.223-.226-.033-.5.843-1.216a8.4,8.4,0,0,1,5.3-2.008C2823.507,1029.626,2826.7,1029.023,2827.014,1029.408Zm3.1,2.768a49.721,49.721,0,0,1-2.243,4.664c-.232.232-1.057.4-.994-.493.009-.954,1.79-4.887,2.27-4.963A.841.841,0,0,1,2830.113,1032.176Zm1.194.268c.552,4.031,3.6,4.99,6.522,6.26.77.354,1.422.984,2.193,1.391,1.445-1.979-.183-5.82-2.726-7.072-1.89-.885-3.612-1.59-4.677-1.511-.616.046-1.3.443-1.312.932Zm1.564-.24a11.648,11.648,0,0,1,2.5.547,6.493,6.493,0,0,1,4.87,5.111c.019.1.151,2.05-.293,1.98-.671-.194-1.033-.872-2.109-1.324a15.98,15.98,0,0,1-4.386-2.361,4.546,4.546,0,0,1-1.559-2.555c-.115-.816.156-.9.839-.241,1.529,1.221,3.037,1.639,4.549,2.819.42.328,1.928,1.167.9.122a19.065,19.065,0,0,0-3.842-2.467c-1.515-.732-2.339-1.622-1.469-1.631Zm-116.074,4.023,17.278,27.117c-4.253,2.252-6.349,3.238-13.41,2.683l.027.358-3-.176c5.182,8.122,11.578,18.717,9.764,37.2l21.046-.021s.328.313.36.334c.308.209.77-.366.77-.366l9.493-.051.257.307,4.427-.031s-20.241-38.027-30.407-56.909c-4.177-7.575-8.526-10.94-16.6-10.446Zm108.949.9a2.17,2.17,0,0,1,2.271,2.275,4.747,4.747,0,0,1-.662,1.9l-1.542-1.476-1.473,1.481a2.555,2.555,0,0,1-.918-2.4,2.724,2.724,0,0,1,2.324-1.777Zm-17.869.54c1.462,5.721,3.042,13.61-9.639,31.843-7.5,10.783-9.954,20.957-10.253,33.373l-.759,0c.359-6.814.407-19.168.407-19.168l.707-.633a4.33,4.33,0,0,1-.464-1.142c-.239-1.039-.037-.693.58-3.483,2.592-13.478,19.421-40.794,19.421-40.794Zm-67.71,2.625,64.264.3-.855,1.693-62.187-.447Zm85.66.489,2.387,2.334-2.332,2.629-2.457-2.579Zm-1.957.992-1.3,1.39,1.129,1.192c-1.162,2.448-4.254.538-4.151-1.3.122-2.143,2.616-3.022,4.324-1.287Zm4.124,2.762,1.037-1.323-1.172-1.29c1.919-1.9,3.734-.227,3.909,1.361C2831.955,1044.972,2829.327,1046.882,2827.994,1044.532Zm-76.112-1.618,5.264.05-1.957,3.678-5.337-.024Zm11.727.027h4.835l-2.042,3.728h-4.893Zm11.418,0h5.129l-2.081,3.728h-5.268Zm11.48,0h5.249l-1.911,3.728H2784.4Zm11.692,0h5.06l-2.05,3.728H2796Zm-55.866.019h3.4l-1.388,2.455Zm84.773,2.352a2.335,2.335,0,0,1-1.433,4.191,2.385,2.385,0,0,1-1.23-4.272l1.46,1.34Zm-71.515,1.982h4.944l-1.861,3.355h-4.842Zm10.989.027H2772l-1.911,3.356h-5.16Zm11.611,0h5.4l-1.76,3.356h-5.45Zm11.569,0h5.353l-1.667,3.356h-5.659Zm-44.148.129h3.412l-1.454,2.687Zm2.573,3.891,50.092.446-.851,1.631-47.969.008Zm1.759,2.92,46.94.116-1.079,2.257-16.218-.074c-3.164-2.372-6.781-1.275-10.907.074,0,0-12.415.13-17.3,0Zm-15.61,9.561,24.758,39.233-5.473-.063-23.509-36.907Zm-4.963,2.555,23.374,36.668c-1.073-.025-2.068.041-3.141.025a9.343,9.343,0,0,0-8.28-10.222c1.935-8.009-3.881-11.379-7.76-12.015,1.573-10.408-7.009-11.884-7.134-11.779a9.466,9.466,0,0,0-.232-2.184l3.173-.493Zm-3.786.581c-.05.22.44,2.294-.484,1.912l-.065-1.908Zm-4.921.053c.334,1.379,1.04,1.652,2,2.577,0,0-1.226.209-1.51.012a12.026,12.026,0,0,1-1.574-2.6Zm3.656,2.333a1.078,1.078,0,1,1-1.071,1.079A1.075,1.075,0,0,1,2724.32,1069.344Zm2.124.828c3.074-.2,7.533,3.109,6.357,9.3a10.26,10.26,0,0,0-.946-2.06c-2.119-2.869-4.614,1.063-2.932,2.668.824.787,1.21,1.1,1.121,1.169a2.245,2.245,0,0,0-2.541,3.193c1.314,2.42,3.14,1.138,4.2-.3,0,0,.651,2.166,1.3,2.442a2.224,2.224,0,0,0,2.823-1.315c.692-1.787-.992-2.245-1.362-3.241,3.556.117,8.087,5.336,6.026,9.861.27-1.031-.831-3.342-2.972-2.746-1.071.375-1.443,1.94-.58,3.549a5.674,5.674,0,0,0,.425.707,5.153,5.153,0,0,0-1.169.273c-2.778,1.718.8,6.4,2.871,3.474a6.6,6.6,0,0,1,.557-.746c.341.652.446,1.571,1.069,1.886,2.56,1.294,3.7-1.437,2.625-2.776-.606-.754-1.289-1.624-1.289-1.624-.107-.482,7.672,1.566,6.724,9.164l-20.622-.028c1.911-11.672-2.717-25.025-5.08-29.094l1.023-1.356c.257.5.683,1.773,1.436,2.016,2.392.774,3.121-.905,2.8-2.631-.171-.919-1.452-1.658-1.859-1.791Zm5.461,10.985a1.023,1.023,0,1,1-1.021,1.025A1.022,1.022,0,0,1,2731.905,1081.157Zm7.739,12.158a1.033,1.033,0,1,1-1.028,1.033A1.031,1.031,0,0,1,2739.644,1093.315Z"/>
        </g>
      </g>
      <path id="path147-0-8-1-3-6-7-5-8" d="M2822.145,1097.551c7.819-.169,11.326-8.973,5.534-15.81-.839-1-.926-1.57.612-.612,3.9,2.608,11.376.893,11.758-7.078.473-9.821-13.25-12.651-15.827-2.207-.136,1.1-1.031,1.076-.815-.488a32.487,32.487,0,0,1,3.383-12.082h-9.3a32.5,32.5,0,0,1,3.383,12.082c.216,1.564-.68,1.589-.816.488-2.577-10.444-16.3-7.614-15.827,2.207.383,7.971,7.859,9.686,11.758,7.078,1.538-.958,1.452-.385.612.612-5.791,6.837-2.285,15.641,5.534,15.81h.007Z"/>
      <path id="path147-0-8-1-0-3-83-6-6-4" d="M2739.688,901.045c7.82.169,11.326,8.973,5.535,15.81-.84,1-.927,1.57.612.612,3.9-2.607,11.375-.893,11.758,7.078.473,9.821-13.25,12.651-15.827,2.208-.136-1.1-1.031-1.077-.816.487a32.507,32.507,0,0,0,3.383,12.082h-9.3a32.507,32.507,0,0,0,3.383-12.082c.216-1.564-.68-1.589-.816-.487-2.576,10.443-16.3,7.613-15.826-2.208.382-7.971,7.859-9.685,11.758-7.078,1.538.958,1.451.386.611-.612-5.791-6.837-2.284-15.641,5.535-15.81h.006Z"/>
    </g>
  </g>
</svg>
