<svg xmlns="http://www.w3.org/2000/svg" xmlns:xlink="http://www.w3.org/1999/xlink" width="179.79" height="250.65" viewBox="0 0 179.79 250.65">
  <defs>
    <clipPath id="clip-qd">
      <rect width="179.79" height="250.65"/>
    </clipPath>
  </defs>
  <g id="qd" clip-path="url(#clip-qd)">
    <g id="qd-2" data-name="qd" transform="translate(-2690.021 -1718.32)">
      <rect id="rect7166-7" width="177.785" height="248.651" rx="8.504" transform="translate(2692.021 1719.32)" fill="#fff" stroke="#000" stroke-width="1.001"/>
      <path id="path6307-8" d="M2803.878,1740.287s20.193,29.3,27.041,34.5c.5.237,8.947-1.382,8.947-1.382-4.328-10.4-7.111-21.157-4.3-33.219Zm11.221,46.333c-13.921,3.944-27.816,7.652-42.907,1.224l-16.481,15.982c-.137.412,19.91,9.1,20.248,8.088-9.828,26.549,5.5,31.369,15.25,2.165,12.77-1.678,28.09-3.416,40.751-12.239A60.2,60.2,0,0,1,2815.1,1786.62Zm-83.729,4.726c-5.276-3.25-9.4,3.438-5.537,6.778-.454,1.951-.608,4.855,1.273,6.131,1.728,1.1,4.951-.041,5.416-.029.033,0,.084,3.512-.185,3.5-.5-.017-2.387-1.63-3.55-1.98-3.933-1.184-9.464-1.767-9.366-1.564.164.342-.98,1.151,3.408,3.917,1.63,1.027,6.78-.13,10.882,1.169,2.5.791,4.743,2.053,6.1,1.4,3.577-.981,4.976-5.673,4.731-5.639-.119-.141-10.819,2.764-9.812,3.273l-.033-4.073c4.22.466,8.029-2.6,3.882-7.867,3.088-3.081-1.232-10.425-7.209-5.017Zm17.581,18.631c-10.379,10.5-31.593,30.209-31.593,30.209l.227,14.708,20.725,18.616c1.642-19.761,12.83-38.2,23.482-47.431C2762.771,1823.274,2751.207,1810.961,2748.951,1809.977Zm73.944,3.632c-1.564,12.151-2.985,28.721-23.522,47.14,3.559,6.083,8.089,12.275,14.608,15.23.462,1.045,18.841-19.09,30.148-28.609l-.06-12.9Zm-92.558,2.609c-.043.265-.8,3.456-1,3.372.015.173,2.1-.779,2.339-1.654.207-.767.686-1.807.717-1.954C2731.925,1812.7,2731.035,1815.03,2730.337,1816.218Zm-7.688,8.494a17.582,17.582,0,0,0-1.187,7.293c3.677,1.847,4.676-5.837,3.687-6.572A9.7,9.7,0,0,0,2722.649,1824.712Zm113.55,35.233c-.341,1.533-.269,1.987.41,2.287,1.19.523,1.725-.109,2.681-2.605.569-1.485,1.076-3.721.617-4.61-2.255-1.579-3.447,3.771-3.708,4.928Zm-64.3,12.9c-15.091,2.4-30.191,3.88-42.175,13.264,1.35-.159,15.875,13.532,16.626,15.457,22.2-10.883,43.756-2.662,43.756-2.662l16.244-15.715c.626-.3-17.668-7.861-21.114-9.136,12.458-33.661-7.272-28.6-13.338-1.208Zm59.4-3.843a12.152,12.152,0,0,0-2.252,2.558l.775,1.258,1.986-2.2Zm-14.216,14.163c2.092-.947,9.517-4.56,9.836-3.725l-.158,3.617c-1.136-.373-8.467.843-4.227,8.439-2.67,6.033,3.28,9.145,7.448,5.156,8.736,3.008,7.566-5.765,5.764-7.183,1.42-2.215-.365-6.931-1.254-6.947,0,0,7.623,1.725,6.878.363a6.543,6.543,0,0,0-2.46-2.83c-1.953-1.308-5.383-.833-8.159-1.416-2.968-.623-4.879-1.689-7.373-1.839-3.765.344-7.279,3.661-6.295,6.365Zm-84.951,28.476-10.5,2.817a77.263,77.263,0,0,1,4.573,14.971,72.8,72.8,0,0,1,.289,18.016l30.484.155Z" fill="#e2cf00"/>
      <path id="path6309-7" d="M2759.5,1947.487c-13.375-19.162-25.769-37.389-42.223-57.479,0,0,.013-7.764.071-15.465l50.55,72.755Zm27.078-30.939a79.6,79.6,0,0,0-2.231-11.743l9.23-8.735c-1,7.806-2.525,13.794-7,20.478Zm44.111-27.531c2.066,2.754-1.42,4.283-2.736,3.057A2.064,2.064,0,1,1,2830.691,1889.017Zm-91.515-17.342c-1.532.985,2.752-24.014,14.511-36.934C2760.839,1855.305,2748.22,1866.834,2739.176,1871.675Zm58.011-.093-7.81-2.116,3.677-10.962s7.544,1.724,6.919,4a83.412,83.412,0,0,1-2.786,9.078Zm-36.153-4.214a67.242,67.242,0,0,0,5.2-11.274l7.824-.163-3.931,10.864Zm47.068-15.384c-6.045-12.08,1.076-31.2,14.227-36.462A58.212,58.212,0,0,1,2808.1,1851.984Zm-40.624-3.432a62.587,62.587,0,0,0-.814-12.772,152.179,152.179,0,0,0,27.488,3.678l.96,11.565A126.146,126.146,0,0,0,2767.478,1848.552Zm19.967-17.623a59.078,59.078,0,0,1,3.585-10.482l9.524-.445c-.049-.187-4.064,6.361-5.025,11.088-1.517-.161-8.084-.161-8.084-.161Zm-18.059-2.858c-2.78-.985-6.581-1.26-8.059-3.418l2.892-9.2,8.564,2.637Zm24.036-87.763,6.712-.064s32.251,41.421,44.338,57.539c-.4,1.641.135,15.545.135,15.545C2827.486,1789.143,2793.422,1740.308,2793.422,1740.308Zm-61.845,57.794a1.509,1.509,0,1,1,2.257-1.929C2734.884,1797.7,2732.528,1799.127,2731.577,1798.1Zm36.187-6.792c.1-9.6,6.885-20.99,6.815-20.7-.079-.018.966,9.384,2.269,12.343C2776.5,1783.475,2768.084,1791.912,2767.764,1791.31Z" fill="#d40000"/>
      <path id="path6311-0" d="M2715.9,1738.72v209.852h130.031V1738.72Zm119.093,1.595c-1.058,11.62-1.243,20.605,4.764,32.656-1.085,1.142-9.259,1.466-11.835,2.819-.047.324.662.886.662.886,2.7-1.255,13.2-2.4,13.2-2.4-4.4-7.7-8.021-22.6-5.3-33.961h7.887v56.075s.092,10.659.317,16.745c-4.038-5.238-9.24-12.413-12.736-17.844-4.243-5.99-8.966-13.018-13.816-19.61-1.43-2.078-3.468-4.773-5.132-7.2-2.612-3.748-4.771-6.656-7.48-10.69-2.892-4.177-5.665-7.968-9.1-12.818-2.915-4.128-3.05-4.659-3.05-4.659Zm-49.809,0c4.916,8.575,13.716,11.576,15.931,12.154l1.287,1.888a28.012,28.012,0,0,1-18.541-12.861,3.01,3.01,0,0,1-.18-1.181Zm-4.866,0a23.408,23.408,0,0,1-5.067,7.156l.062-2.083a18.942,18.942,0,0,0,3.611-5.073Zm2.38,0a3.305,3.305,0,0,1-.125,1.1c-1.042,3.376-7.51,9.785-7.324,8.825l-.066-1.653c-.029.071,4.859-4.768,6.139-8.276Zm-4.7,0c-.5.942-2.385,3.885-2.555,3.1l.167-3.1Zm14.778,0c.816,1.184,1.556,2.146,2.413,3.357a.936.936,0,0,1,.216.608c-.13.336-.517.087-1.588-.866a26.218,26.218,0,0,1-2.951-3.1Zm-6.541,0h1.588a23.121,23.121,0,0,0,11.238,9.142c.545.6,1.132,1.706,1.361,1.95C2794.906,1749.909,2788.733,1745.136,2786.229,1740.315Zm3.863,0c1.752,2.538,4.5,4.39,6.045,5.605.832.654,1.93,1.991,1.827,2.256-3.444-1.093-7.473-5.022-9.322-7.861Zm-6.753,1.643.957,1.53a32.484,32.484,0,0,1-9.109,10.024l-.02-2.005c4.4-3.182,6.3-6.38,8.172-9.549Zm1.553,2.217a29.385,29.385,0,0,0,18.284,11.257,11.339,11.339,0,0,1,1.335,1.574c1,1.373,1.02,1.427,1.153,3.677a45.906,45.906,0,0,0,2.745,13.221c-.164.874-.317,1.319-1.959,3.545-6.841,9.276-21.417,18.049-28.6,6.075-2.4-3.836-2.628-11.191-2.78-15.778,0,0,.045-.322.063-.409.173-.833.41-.7,1.706-.345,1.314.566,2.683.109,4.073-.271,1.584-.642,1.716-.147.188,1.283a9.387,9.387,0,0,0-1.106,1.215,8.757,8.757,0,0,0,1.349-.7c1.22-.933,1.509-.576,1.056.45-1.918,4.354-2.258,4.527.44,5.736a4.88,4.88,0,0,1,1.262.81c1.845,1.743,1.182.8.667,0-.794-1.253-.077-1.914,1.263-1.139a4.28,4.28,0,0,0,2.712.738c1.242-.405,1.621-1.771,1.252-3.273-.3-.831-1.991-2.3-1.6-.762a1.443,1.443,0,0,1,1.014,2.388c-.669.905-1.861.416-3.69-.8-1.011-.762-2.238-.372-2.19.565.032.63-.857.485-1.434-.317-.32-.445-.1-1.728.5-2.943,3.792-7.651.595-15.071-5.971-12.979-.722.23-1.373.416-1.373.416l-.036-2.927a34.857,34.857,0,0,0,9.675-10.313Zm3.833,13.737c-.99,1.2-.639,2.267,1.535,1.192a6.933,6.933,0,0,1,3.944-1.049c2.738-.1,5.195.775,8.236,2.648,2.016,1.241,2.31,1.334,1.762.557C2802.574,1758.133,2792.952,1753.385,2788.725,1757.912Zm-9.3.358c1.9.481,3.724,1.74,3.407,2.262-.115.188-.225.224-.467.1a7.322,7.322,0,0,0-6.809-.441c-.353.151-.55-.084-.548-.511,0-.83,1.4-1.492,2.865-1.546A6.916,6.916,0,0,1,2779.427,1758.27Zm11.039,2.426c-1.133.591-1.522.9-2,.641-1.15-.63-.907-.136-.193,1.134.5.9.5,1.081.424,1.63-.081.6-.069.62.509,1.257a15.763,15.763,0,0,0,3.775,3.884,10.321,10.321,0,0,0,1.23.722c.161.005.1-.124-.189-.406-2.073-2-3.707-3.8-1.6-3.033,2.458.8,4.8-.2,6.712-.852a11.276,11.276,0,0,1,1.806-.446c1.771,0,2.189-.738,1.057-1.866C2798.168,1759.051,2794.99,1758.037,2790.466,1760.7Zm9.086.808c.792.734,1.209,1.132,1.13,1.323s-.694-.142-1.716-.689a9.251,9.251,0,0,0-7.3-.514c-2.26.655-1.593-.385.926-1.363a6.523,6.523,0,0,1,6.956,1.243Zm-21.1-1.485a7.239,7.239,0,0,1,4.727,1.581c.838.726.225.9-1.138.329a6.438,6.438,0,0,0-5.49-.2,5.746,5.746,0,0,1-1.311.53.907.907,0,0,1-.158-1.145A5.213,5.213,0,0,1,2778.45,1760.019Zm28.452.595c.126.005.317.207.6.607.516.728.536,1.087.108,2.361-.523,1.556-.732,1.3-.864-.867-.085-1.408-.087-2.112.154-2.1Zm1.712,2.345c.2-.028.426.32.794,1.041.257.5.2.653-.6,3.007-.336.985-.651,1.77-.66,1.777-.246.195-.214.177-.32.042-.571-.732-.53-2.161-.038-3.874.373-1.3.576-1.957.829-1.993Zm-15.555.178a4.306,4.306,0,0,1,.445.078c-.039,3.487,2.647,2.785,3,.309,0,0,.663-.069.765.1.318.518-.421,2.01-1.527,2.5a2.454,2.454,0,0,1-2.559-.332,5.227,5.227,0,0,1-.634-2.174c.129-.314.322-.46.509-.476Zm-1.6.407h.081a.528.528,0,0,1,.559.406l.576,1.771c-.424.508-2.033-.522-2.029-1.294a.858.858,0,0,1,.813-.883Zm-10.922,0c.406-.04.549.006.6.386a2.5,2.5,0,0,1-2.5,2.469,1.9,1.9,0,0,1-2.172-2.052c0-.83.715-.934.795-.277.228,1.9,1.842,2.005,2.579.958C2780.117,1764.614,2780.053,1763.6,2780.537,1763.541Zm17.674.385a1.535,1.535,0,0,1,.493.117c1.485.475,1.525.705.255,1.165-1.514.547-1.613.619-1.257-.442C2797.9,1764.175,2797.959,1763.937,2798.211,1763.926Zm-15.737.168c1.1.068,1.193,1,.225,1.315-1.441.638-1.927.6-1.368-.345C2781.633,1764.4,2781.9,1764.106,2782.474,1764.094Zm-6.885.336a.731.731,0,0,1,.443.17c.166.5.446.887.667,1.405a.92.92,0,0,1-1.108-.052c-.689-.549-.571-1.518,0-1.523Zm34.6,1.079c.427,0,.862.683,1,1.189-1.494,1.925-1.259,5.52-1.606,6.606-.3.883-.4.121-1.229-2.167-.335-.923,1.355-5.514,1.746-5.616A.359.359,0,0,1,2810.191,1765.509Zm1.526,1.974a1.77,1.77,0,0,1,.864,1.316,4.992,4.992,0,0,1-.277,1.455,38.8,38.8,0,0,0-.856,5.786c-.062.928-.059,1.762-.1,1.843-.449.883-1.4-1.494-1.315-3.387.294-1.511.459-6.8,1.686-7.013Zm2.11,2.717a2.318,2.318,0,0,1,.409.774,4.789,4.789,0,0,1-.24,2.09,26.555,26.555,0,0,0-.139,9.479c.094.692-.385.345-1.11-.848a6.622,6.622,0,0,1-.783-2.64,33.143,33.143,0,0,1,.649-8.018c.183-1.108.311-2.085,1.213-.837Zm1.137,1.812,1.2,1.451a45.9,45.9,0,0,0-.509,5.116,78.2,78.2,0,0,0,.818,8.5c-.737-.828-1.082-1.315-1.89-2.357-.091.015-.791-7.143-.308-9.88a21.327,21.327,0,0,1,.69-2.833Zm1.882,2.883c.2-.007.457.22.779.673a2.081,2.081,0,0,1,.447,1.254c.011.371-.172.658-.178,1.32a58.184,58.184,0,0,0,1.166,11.254c.235,1.284-.223.76-.982-.052a4.329,4.329,0,0,1-1.079-2.084c-.074-.211-.814-7.484-.808-8.033a13.262,13.262,0,0,1,.35-4.061C2816.626,1774.989,2816.725,1774.9,2816.846,1774.9Zm-4.358,7.924s-1.4.721-1.762.468c-.59-1.613-2.716-5.933-2.753-6.7a8.648,8.648,0,0,1,.872-1.388C2810.02,1777.76,2811.078,1780.378,2812.488,1782.819Zm-26.274-5.188c-.421.5-.923.289-1.938-.158-.52-.161-.44.054-1.3.5a2.272,2.272,0,0,1-1.343.353c-.583-.005-.793-.21-.794.2a9.8,9.8,0,0,1-.173,1.787c-.187.724-.351,1.043-.248,1.168.3.273.546.107,1.17-.5,1.037-1.005,1.736-.717,2.89-.343,1.314.425,1.585.581,2.786.16,1.7-.6,2.726-.6,3.4-.165,1.168.747,1.52.7,1.039-1.338-.155-.658-.166-1.678-.262-1.855-.108-.2-.405.371-.715.581-.594.4-.9.394-2.241-.046-.793-.261-1.682-1.115-2.276-.349Zm21.537.266c.518,1.226,2.581,5.322,2.518,5.779-.4.362-.939.626-1.258.3a37.04,37.04,0,0,1-2.179-5.026c-.25-.507.5-1.8.919-1.055Zm11.077-.15c.146-.021.451.284.678.589a2.588,2.588,0,0,1,.771,2.082,44.484,44.484,0,0,0,1.577,11.367c.2.658.59,1.459.548,1.567-.347.508-1.955-.851-2.441-2.918a57.65,57.65,0,0,1-1.274-7.145c-.27-3.135-.268-5.379.141-5.542Zm-12.374,2.032c.595,1.15,1.343,3.135,1.847,4.325.23.517-.945.925-1.215.749-.47-.352-.692-1.342-1-1.935-.98-2.152-1.157-2.2-.613-2.867C2805.807,1779.585,2806.207,1779.014,2806.454,1779.779Zm14.7,1.32c.086,0,.2.084.339.267a5.712,5.712,0,0,1,1.2,1.842,7.127,7.127,0,0,1,.065,1.409c.111,1.877.6,4.44,1.994,9.683a7.4,7.4,0,0,1,.3,1.282c-.135.962-1.542-.6-1.951-2.21a48.371,48.371,0,0,1-1.6-6.328c-.526-3.43-.817-5.945-.351-5.945Zm-15.942,1.386c1.17,2.74,1.263,2.736.526,2.953-.779.229-.825.154-1.74-1.712-.667-1.362-.8-1.533-.238-2.023C2804.62,1780.689,2804.845,1781.656,2805.215,1782.485Zm-16.293-.653c-.133,0-.525.3-.919.457a6.731,6.731,0,0,1-3.729.094c-1.853-.747-1.331.223.308.814,1.273.429,3.793.1,4.184-.7C2789.006,1782.242,2789.093,1781.828,2788.922,1781.832Zm14.095,1.441c1.044,1.62,1.358,2.267,1.182,2.393a1.777,1.777,0,0,1-1.334.313c-.427-.21-.8-1.21-.986-1.994.13-.383.817-1.07,1.138-.712Zm-26.16.682c.467,0,1.681,1.64,1.435,1.935-.069.152-.524.008-1.587-.288-.355-.131-1.158-.237-.9-.753A2.947,2.947,0,0,1,2776.857,1783.955Zm25.04,2.245c-.1.28-.892.346-1.226.325a4.657,4.657,0,0,1-.444-1.285c.109-.239.648-.857.914-.735a8.556,8.556,0,0,1,.755,1.695Zm21.727-1.579c.166.006.455.3.883.913.809,1.162.7,1.077,1.28,3.851.659,3.146,1.448,5.387,2.244,8.6.011.533-.2.392-.794.031-.964-.589-1.281-1.244-1.585-2.949-.518-2.817-1.612-5.423-2.032-8.751-.222-1.1-.239-1.7,0-1.7Zm-24.288,1.124c.569-.02.492.861.329,1-.416.364-1.562.255-1.759.276C2797.466,1786.331,2798.965,1785.768,2799.336,1785.745Zm27.18,2.994c.167.023.617.66,1.457,1.846.808,1.14.631.953,1.115,2.829.684,2.592,1.816,4.461,2.479,6.847,0,.272-.329.237-.644.108a7.054,7.054,0,0,1-1.677-1.118c-.355-.385-.352-.873-1.4-4.49-.378-1.3-.476-1.644-.948-3.626-.4-1.658-.572-2.422-.382-2.4Zm-87.589,7.743c2.746,5.074,1.73,7.324-4.179,8.027-.427-.06-.024,2.6-.036,3.788,2.961-1.7,6.54-2.1,9.84-3.164-.9,2.887-2.476,6.159-7.252,5.655-4.991-3.872-10.867-1.546-14.853-3.118a5.273,5.273,0,0,1-3.022-3.642c2.6.261,5.536.82,8.055.637-2.752-2.128-1.947-5.073-1.559-6.419-3.22-4.076-.532-8.661,4.146-7.595a9.564,9.564,0,0,1,1.438.582c4.512-4.055,9.742-.246,7.421,5.249Zm91.294-2.468c.187-.018.6.472,1.427,1.633a74.47,74.47,0,0,1,4.546,6.831c-.106.594-2.663-.446-3.308-1.3a29.009,29.009,0,0,1-2.8-6.746C2830.086,1794.172,2830.124,1794.023,2830.221,1794.014Zm-99.926,14.757c1.276.189,1.632.3,1.619.8.109.425-3.1.482-3.532.166-.347-.252.1-.8.443-.936a3.3,3.3,0,0,1,1.469-.028Zm88.39.457c-17.915,8.493-25.243,31.082-16.2,48.392l-1.245.9c-8.865-18.3-2.27-37.914,12.134-47.818.583-.417,1.873-.738,2.473-1.137,0,0-5.876,1.346-7.865,2.127a4.841,4.841,0,0,0-2.862,1.791,39.762,39.762,0,0,0-4.483,6.02l-9.248.374.008.343,9.077-.211c-9.347,15.448-7.051,30.146-1.279,40.433l.142.1c.336.227,1.219-.421,3.05-2.163.755-.718,1.705-1.609,2.113-1.982a55.211,55.211,0,0,0,3.852-4.133c-6.285-12.859-.085-29.795,14.623-37.426a13.7,13.7,0,0,0-.157-1.647s-.555-.5-.884-.45c-16.386,7.245-22.951,25.236-16.288,41.6l-1.1,1.2c-8.372-16.942.614-38.119,16.283-44.118-.008-.382-.347-.871-.769-.577a33.543,33.543,0,0,0-16,45.171l-1.043.926c-9.427-18.787.5-39.839,16.077-47.033.46-.106-.409-.677-.409-.677Zm-91.176.175s-.119,1,.233,1.342c.162.714-.1.637-.7.492-1.489-.357-.327.494.891,1.18,1.2.676,1.039.654-.008,1.32-.7.448-.63.616-.536.956.141.505.237.169.528-.1a2.228,2.228,0,0,1,1.647-.7c.818,0,.9.66.756,1.173-.325,1.075-1.428,1.018-2.333.751-1.48-.438-3.9-3.014-3.859-4.531C2724.023,1809.923,2725.875,1809.341,2727.509,1809.4Zm6.653.332c.574.212,1.3.495,2.09.828a12.5,12.5,0,0,1,2.925,1.4,4.862,4.862,0,0,1,1.892,4.672l-11.277,10.727s-.637-.313-1.236-.62c-1.9-.971-2.352-1.482-1.3-2.02a1.653,1.653,0,0,0,.748-1.37c.1-.735.06-.61.5-.945.762-.582.8-.823.8-1.791a2.28,2.28,0,0,1,.3-1.34,6.153,6.153,0,0,0,.508-1.753c.022-.126.028-.44.053-.551a1.611,1.611,0,0,1,.449-.912,4,4,0,0,0,.47-1c.315-.894.256-.761.764-.662.738.144.632.576.551,1.262a1.607,1.607,0,0,1-.185.491,2.7,2.7,0,0,1,.648-.337c.236-.054.471.028.532.4.033.207-.056.588-.05.882a10.148,10.148,0,0,0,.219,2.28c.838,2.9.671,2.5.386.085a9.814,9.814,0,0,1-.065-2.132,4.393,4.393,0,0,1,.393-1.452c.495-.865.522-1.036-.551-1.463-.4-.158-1.078-.435-1.219-.712a2.153,2.153,0,0,0-1.349-.956c-1.62-.382-2.563-1.953-2.329-2.186.153-.153.806.047,1.218.061,1.479.053,1.793-.023,2.449-.588.348-.3.5-.568.783-.588a2.834,2.834,0,0,1,.882.29Zm76.755,1.738c-15.149,12.3-17.8,32.2-10.247,47.558l-1.308,1.032c-9.5-18.013-3.118-37.444,8.55-48.07Zm-87.459,1.467c.268-.025.56.368,1.624,1.509a10.6,10.6,0,0,0,1.854,1.661c.89.427.7.249-.046.955-.758.873-.339,1.591-1.245,1.154-2.357-1.111-4.013-4.383-2.48-5.171A.843.843,0,0,1,2723.458,1812.94Zm-1.172,3.44a.6.6,0,0,1,.181.02c.291.071.644.62,1.022,1a7.533,7.533,0,0,0,2.371,1.9c.823.365.846.454.266,1.1a1.956,1.956,0,0,0-.385.673c-.05.157-.062.357-.239.391-.918.177-3.967-1.68-4.087-2.961C2721.513,1817.307,2721.814,1816.417,2722.286,1816.38Zm6.462.357c.529-.014.84.459.837,1.226,0,.532-.3.748-.906.976-1.295.486-2.093-.444-1.188-1.471A2.02,2.02,0,0,1,2728.748,1816.737Zm-.79,3.123c.977,0,1.26.831.544,1.544-.673.67-2.031.674-2.028-.062a1.884,1.884,0,0,1,1.484-1.482Zm-6.058.989c.661.2,2.27,1.36,2.978,1.5.037.393-.434.5.235,1.238.3.335.329.563.065.7-.807.432-3.6-.932-3.79-2.337C2721.3,1821.264,2721.524,1820.874,2721.9,1820.849Zm3.648,1.681c.962.041,2.05.069,1.936.531-.083.334-.427,1.218-.868,1.052a1.931,1.931,0,0,1-.57-.437C2725.532,1823.182,2725.4,1822.524,2725.548,1822.53Zm36.378,4c2.8,2.546,12.982,29.146-8.233,48.526l-4.5,1.354c20.369-16.053,16.98-38.844,11.484-48.676,0-.289-.08-.256-.587.2-.443.4-.491.491-.312.565,6.212,9.594,8.533,36.692-15.94,49.768-.41.428.421.363.421.363.043-.352,11.019-3.029,10.245-3.1,10.23-9.077,19.137-30.724,8.049-49.592-.268-.177-.625.584-.625.584Zm-3.534,3.011-.143.6c8.879,17.5.4,38.935-16.1,46.869a5.092,5.092,0,0,0,.877.481c18.724-10.12,24.123-31.539,15.955-48.129Zm-1.485,1.241-.1.635c7.351,14.892,1.515,35.558-16.029,43.941-.166.9,0,.638.823.6,20.3-10.927,22.208-31.706,15.857-45.2Zm-1.26,1.786c-.574.761-1.623,1.155-1.972,2.134,5.9,15.644-1.725,30.7-14.627,37.052-.011.787-.574,2.735.792,2.424,15.941-7.248,22.877-26.515,15.907-41.68,0,0-.091.067-.1.07Zm80.07,30.248c.587.041,1.113.22,1.657.291,1.98.258,3.265,1.707,2.38,2.588-.29.29-.7.123-1.983-.508-.591-.29-.686-.562-.808-1.217-.147-.784-.3-.864-.5-.255s-.417,1-1.093.841C2833.47,1864.111,2834.188,1862.8,2835.717,1862.814Zm-21.181,13.32c-4.755-2.709-10.626-7.592-13.983-13.141a79.913,79.913,0,0,0-3.63,8.862l-7.463-2.092-.087.156,7.376,2.133-.719,2.471c-.078.267-1.22,3.079-1.22,3.079l11.521,5.4a18.7,18.7,0,0,1-2.482,2.892,2.223,2.223,0,0,0-.575,1.354l15.974-15.294a36.792,36.792,0,0,0,2.827,3.763c.719.652.942.81.1,1.005-3.753.552-6.666,3.405-5.65,7.231.164.426.495.269,1.206-.18,2.492-2.265,8.583-4.362,8.791-3.83l.024,2.436c-6.557.1-5.885,4.935-5.405,7.53,0,.056-1.9,1.72-1.9,1.72a17.823,17.823,0,0,1,1.947,1.153c-.577,3.228,2.163,7.907,7.546,5.511.465.48.905.961,1.418,1.563a10.956,10.956,0,0,0,1.185-2.148c2.674,1.214,8.221-1.5,5.384-7.73l1.564-1.5-1.5-.95a7.62,7.62,0,0,0-1.225-4.377,28.618,28.618,0,0,0,4.392.755h0c1.153.1,2.125.134,2.029-.566a14.358,14.358,0,0,0-.314-1.543c-.557-1.631-3.446-2.829-6.253-2.987-.458-.026-.951-.011-1.049-.131-.183-.223.146-.541.448-.488a2.922,2.922,0,0,0,3.281-2.322,3.518,3.518,0,0,1,.817-1.216c.8-.878.863-.855.848-2.125a2.2,2.2,0,0,1,.548-1.667,4.091,4.091,0,0,0,.5-3.079,2.514,2.514,0,0,1-.134-1.768c.472-1.46-.564-2.8-1.922-3.557-.108-.031-.075.076-.165.184a4.008,4.008,0,0,1-2.732-.5c-.31-.153,1.049-8.075,3.863-7.367.468.284.666,1.661.631,1.686.129,0,.2-.811.017-1.349a1.234,1.234,0,0,0-1.467-.944,3.932,3.932,0,0,0-1.742,1.425c-1.315,1.682-1.33,2.756-1.769,4.545-.211.845-.234.8-1.4-.118-.837-.657-1.243-.866-.951-1.251.13-.173.672-.72.672-.72l10.66-9.84v98.874h-58.085l.4-13c1.081-8.9-.821-27.6-2.26-29.361,1.11-1.252,4.555-4.269,4.365-4.405l-.457-.272-1.821,1.682-4.5-1.367a19.422,19.422,0,0,0-5.906-3.083c-3.316-.854-9.7,1.868-9.708,1.9a52.877,52.877,0,0,0-18.259,4.885,8.721,8.721,0,0,1-1.048-1.709c-5.259-7.346-10.429-11.461-17.493-16.483l8.947-4.96-21.2-22.235-.187-18.055,30.713-29.472c.181-.509,9.8,6.818,13.379,12.781a71.59,71.59,0,0,1,3.031-8.424c.112-.261,6.11,2.227,7.89,2.332a.671.671,0,0,0,.481-.266l-7.918-2.584,1.62-4.655s.564-1.264-.073-1.474c-3.609-1.172-7-3.237-10.447-5,0,0,1.612-1.8,1.636-1.879s.677-1.04.521-1.373c-1.756,1.71-16.085,15.049-16.085,15.049a7.036,7.036,0,0,0-2.442-4.5,6.461,6.461,0,0,0,2.634-1.292c2.1-1.536,3.243-4.276,2.968-5.877a45.8,45.8,0,0,1-6.361,1.859,8.082,8.082,0,0,0-3.581,1.592l-.126-2.555c.008.029,3.4.6,4.969-1.688,1.354-1.969.8-4.223.488-5.372.035-.256-.041-.227.543-.767.432-.4,1.1-.913,1.1-.913.029-.145-1.752-.807-2.053-1.412.474-4.735-3.294-6.562-6.484-5.721-.6.18-.88.293-1.589-.5-.106-.118-.956-1.02-.956-1.02s-.376.869-.568,1.25c-.626,1.238-.8.865-2.146.932-3.416.168-4.941,2.937-4.156,6.335.184.8.1.675-.421,1.684-.266.515-.7,1.173-.7,1.173s.626.348,1.048.538c.626.28.658.609.656,1.234a6.342,6.342,0,0,0,1.179,3.488,19.55,19.55,0,0,1-7.152-1c.37,3.74,3.117,5.133,6.481,5.681a2.719,2.719,0,0,1-.724.478,1.7,1.7,0,0,0-1.272,1.545,2.946,2.946,0,0,1-.849,1.506,2.277,2.277,0,0,0-.748,2.337,2.177,2.177,0,0,1-.532,1.5,2.789,2.789,0,0,0-.574,2.28,9.679,9.679,0,0,1,.1,2.256c-.145,1.555.41,2.138,1.114,3.232.457.709.36.728.255,1.242a28.281,28.281,0,0,1-.791,2.81c-.612,2.1-.635,3.7-.135,4.107a2.1,2.1,0,0,0,2.006.309c2.976-.923,2.461-3.856,2.618-5.825.085-.506.257-.749.424-.726a9.228,9.228,0,0,0,2.877,2.184c-3.961,4.046-6.5,6.523-11.5,10.937v-98.662h57.21s.06.825-.076,4.392c-.248,7.248-.552,14.841-.078,22.231a67.327,67.327,0,0,0,.394,7.612c.356,2.465.514,5.124,1.662,7.42.461,1.244.476,1.149-1.282,2.779a6.773,6.773,0,0,0-1.562,1.8c.01.05-.038.238.094.132.088-.071.725-.7.8-.787.476-.563,1.273.16,3.99.929a7.342,7.342,0,0,1,1.859,1.072c4.062,3.436,9.777,2.365,14.05.491a9.046,9.046,0,0,1,3.459-.819,67.2,67.2,0,0,0,14.911-4.014l.942,1.549a.627.627,0,0,1,.607.324c4.15,7.869,17.7,16.86,17.46,16.444l-8.857,4.922c6.449,8,21.279,21.565,21.279,21.565v19.5a131.1,131.1,0,0,0-11.346,10.38c-1,.994-1.707,1.562-1.327,1.581.9-.138,1.684.756,2.419,1.376.466.522.353.474-.184,1.186-.378.5-.516.645-.517,1.007a1.772,1.772,0,0,1-.612,1.693,2.459,2.459,0,0,0-.675,1.372,2.409,2.409,0,0,1-.459,1.451c-.667.143-.73,1.117-.612,1.554a1.446,1.446,0,0,1,.444,1.29c-1.334,1.453-2.735,2.713-1.84.681a6.108,6.108,0,0,0,.543-1.384s-.642.668-.978.983c-.515.478-.7.2-.718-1.287a9.815,9.815,0,0,0-.725-2.989c-.1-.167-.123.123-.074,1.2a6.428,6.428,0,0,1-.265,3.255c-.674,1.918-1.154,2.189-.059,2.123,1.037-.063,1.913-.074,2.367.548a2.126,2.126,0,0,0,.769.779,7.834,7.834,0,0,1,2.006,1.505c1.534,1.674,1.093,3.17-1.872,2.156-1.561-.535-.539-1.208,1.14-1.052,1.03.1,1.2-.285.312-.559-1.66-.308-1.927-.5-3.021.81a10.661,10.661,0,0,1-8.417-5.136c-.519-.879-.678-1.047-.316-1.545.142-.2.055-.136-.189.136s-.913.5-1.134.694c-1.544,1.546-3.109,3.207-4.5,4.465Zm20-10.829c.78.1.765.754.068,1.386-.654.5-1.1.593-1.472.22C2832.49,1866.257,2833.325,1865.3,2834.54,1865.305Zm2.272.455a3.858,3.858,0,0,1,2.383,1.083c1.138.948,1.4,3.246.353,3.643-.437.167-.505,0-1.438-.885a8.1,8.1,0,0,0-1.981-1.463c-1.371-.655-1.547-.9-.621-1.349a1.706,1.706,0,0,0,.563-.522c.238-.383.31-.505.741-.507Zm-1.481,3.059a2.14,2.14,0,0,1,.8.321c2.311,1.267,3.441,3.252,2.659,4.373-.513.736-1.348.455-1.984-.588a6.469,6.469,0,0,0-2.391-1.888c-1.237-.63-1.264-.72-.37-1.15a1.814,1.814,0,0,0,.821-.743c.208-.368.226-.332.46-.325Zm.74,4.732c1.746,1.747,1.546,2.692.412,3.4-.774.485-2.016.607-2.423.2-.658-.577-.641-1.239.087-1.451.678-.146.424-.419-.21-.58-2.264-.645-3.655-1.851-1.194-1.589a2.252,2.252,0,0,0,1.758-.916c.534-.65,1.256.613,1.57.928Zm-119.044.673,50.842,72.855h-41.083c1.447-11.588-1.457-24.448-5.3-32.839a122.706,122.706,0,0,0,12.149-2.923l-.809-1.054a49.4,49.4,0,0,1-13.275,3.078c5.483,9.368,7.44,22.282,5.8,33.738h-7.831v-56.561Zm9.106,10.843a3.985,3.985,0,0,1,2.731,2.2,23.406,23.406,0,0,0,1.034,2.462c.01.2,1.776,3.4,1,3.124-1.544-2.106-4.3-5.692-5-7.439C2725.9,1885.178,2725.932,1885.074,2726.133,1885.067Zm5.5,3.2a17.381,17.381,0,0,0,1.052,2.823c1.1,2.376,2.8,6.1,2.456,7.16-.233.715.008.678-.617-.2-.305-.431-1.256-1.763-1.484-2.07-.557-.75-.183-.062-.5-1.284-.758-3.454-1.983-5.269-2.78-7.288-.284-.948,1.509.482,1.874.864Zm.979.526c.148.1,2.167,1.53,2.371,1.734.716,2.555,3.577,10.74,2.837,12.2a6.644,6.644,0,0,1-1.5-2.2,27.377,27.377,0,0,0-2.9-9.645C2733.056,1890,2732.762,1889.125,2732.616,1888.8Zm3.8,2.874a4.539,4.539,0,0,1,1.676,1.671,7.132,7.132,0,0,1,.614,2.021c.732,3.339,2.128,6.724,1.5,10.288-.392.532-1.243-.676-1.365-1.866a46.406,46.406,0,0,0-2.132-10.477C2736.439,1892.406,2736.236,1891.7,2736.414,1891.669Zm3.243,3.061c.136.006.416.261.882.7a2.668,2.668,0,0,1,1.041,2.589c.03,2.086.722,4.466.83,6.572a29.469,29.469,0,0,1,.1,4.544c-.264.365-1.436-.966-1.346-3.008a24.857,24.857,0,0,0-1.014-8.545c-.481-1.962-.725-2.8-.516-2.849a.226.226,0,0,1,.027,0Zm94.061-12.393c3.641,2.345,2.357,6.674,1.578,7.206,5.026,6.375-2.787,9.64-5.267,7.348-3.671,3.661-9.97.592-7.544-5.442,0,0-4.61-8.839,4.482-8.248,0,0,.156-3.572-.1-3.735-3.246-.219-7.658,2.918-8.907,3.785-.694.421-.845.22-.845.22-.173-1.854-.178-2.7.573-3.736,1.31-1.8,3.475-2.414,6.319-3.041,3.519,1.088,6.871,2.8,10.132,2.53a11.246,11.246,0,0,1,5.373,1.239c1.174.557,1.786,2.643,1.786,2.643-1.843.967-7.58-.769-7.58-.769Zm-1.731-13.108a1.4,1.4,0,0,1,1.429-1.256.839.839,0,0,1,.233,1.637c-.248.2-1.047-.1-1.091.126.059.39-.333.226-.409.085A.964.964,0,0,1,2831.987,1869.229Zm-.584,2.5a1.95,1.95,0,0,1,1-.318c.547-.066,1.246.017,1.4.592s-.926.9-1.8.911c-.444.008-.958.095-1.092-.218-.125-.294.306-.835.485-.967Zm-110.177-40.312c.7-2.451.264-3.823,1.434-6.843l2.849.952a16.243,16.243,0,0,1-.453,4.613C2724.481,1831.784,2722.591,1833.1,2721.226,1831.413Zm21.226,66.27c.336.041,1.162,1.221,1.534,2.3.342,1,.229,2.271.478,3.348a38.725,38.725,0,0,1,.378,8.511c-.074.557-.432.33-.921-.2-.712-.773-.614-.789-.606-2.934a66.349,66.349,0,0,0-.586-7.3,15.283,15.283,0,0,1-.408-3.615C2742.343,1897.71,2742.389,1897.676,2742.452,1897.683Zm33.327.442c3.67.587,6.6,3.1,8.284,7.241,1.623,4.209,2.023,9.952,2.275,15.232-.018,1.264-.537.945-1.9.16-1.485-.728-1.8-.517-3.968-.019-1.353.311-1.231-.613.994-2.144.758-.5,1.64-1.159,1.35-1.258a2.239,2.239,0,0,0-1.315.53c-2.183,1.771-2.775,2.2-2.146.48.159-.435.665-1.643.877-2.221.79-2.164-.121-3.09-2.807-4.459-.672-.343-1.114-.915-.443.282.549.979-.585,1.769-1.99.623a2.771,2.771,0,0,0-3.57.728,2.5,2.5,0,0,0,.924,3.339c1.065.46,1.462.129.432-.588-1.325-.922-1.067-2.478.421-2.472a10.44,10.44,0,0,1,2.657,1.308c1.174.637,2.01.368,2.011-.584,0-.637.364-.585,1.136-.2,1.04.516.926.983.377,2.425-.371,1.007-.555,2.152-.9,3.2-.876,3.543-.992,7.556-.024,8.807,2.576,3.327,5.313,2.975,7.655.776l-.1,3.643c-2.389,1.925-5.179,3.236-9.488,10.37-1.5-1.9-7.949-9.638-18.286-11.388l-2.326-3.195c.04-.2-1.738-11.881-2.9-15.858,0,0,1.279-1.949,2.441-3.386,4.641-5.74,12.486-12.308,20.32-11.375Zm-13.481,3.316c-.4.127-.527-.669-.311-.82a5.654,5.654,0,0,1,1.126.01c.362.022.354.439-.815.81Zm-17.444-.6a10.9,10.9,0,0,1,1.762,2.268c.341.5.148,1.332.2,2.152.075,1.163.2,3.08.286,4.258a12.45,12.45,0,0,1-.39,4.911c-.341.829-1.035.256-1.207-.878-.041-.273.185-3.09.186-4.637,0-2.661-.678-5.944-.837-8.073Zm15.647-.016a.442.442,0,0,1,.441.152c.557.715.783,1.148.276,1.54-.672.563-1.284.422-1.657-.648C2759.321,1901.111,2759.888,1900.871,2760.5,1900.829Zm-2.073.631a3.5,3.5,0,0,1,1.258,2.233c-.038.21-.223.389-.626.715-.4.368-.525.344-.971-.362-.7-1.1-1.026-1.818-.889-2.2A1.232,1.232,0,0,1,2758.428,1901.46Zm24.435.139a21.042,21.042,0,0,1,2.966.776l-1.488,1.443C2783.9,1903.078,2783.4,1902.338,2782.863,1901.6Zm-26.658.752a8.073,8.073,0,0,1,1.456,3.293,1.684,1.684,0,0,1-.587.582c-.183.05-.348-.272-.967-1.372-1.078-1.913-1.394-2.453-.834-2.683A1.263,1.263,0,0,1,2756.205,1902.351Zm-2.173.445a11.88,11.88,0,0,1,2.079,4.188.944.944,0,0,1-.217.574c-.9.976-.675.818-2.021-1.963-1.137-2.287-1.437-2.513-.685-2.77a1.47,1.47,0,0,1,.844-.029Zm-2.161.744c.4-.006.506.657,1.275,2.165,1.288,2.852,1.771,3.248,1.479,3.553-.359.455-.569.775-.91.222-.777-1.267-1.547-2.884-2.27-4.3-.579-1.06-.631-1.188-.259-1.447a1.345,1.345,0,0,1,.685-.189Zm22.985.81c-.484.137-2.43.755-1.238.867.241.023.851-.131,1.28-.16,1.205-.084,3.71.144,3.621-.088C2778.29,1904.1,2775.512,1904.181,2774.856,1904.35Zm-24.669.267c0,.048.312.6.623,1.148,1.83,3.55,2.848,4.842,2.523,5.4-.268.339-.681.765-.926.664-.393-.163-.918-1.325-2.228-3.954-1.353-2.718-1.494-2.921-.8-3.274.285-.132.63-.231.806.013Zm-1.828,1.252c.841,1.372.73,1.192.721,5.658-.008,2.78-.362,4.553-.825,5.237-.243.358-.671.147-.883-.553-.1-.321.179-.8.231-1.305.328-3.344.1-6.687.106-9.852C2747.963,1905.027,2748.223,1905.645,2748.359,1905.869Zm21.7,1.095c.392.562.3,1.014.293,1.769-.008,1.068.073,1.147.807.607.651-.477.7-.508,1.865.283a1.7,1.7,0,0,0,2.121,0c.4-.365.533-.2,1.064-.062.578.322.742.372,1.982-.232.837-.372.871-.425,1.369-.162.876.774,1.005.494.887-.519a7.721,7.721,0,0,1,.208-1.444c.436-1.8-.27-1.821-1.2-.673a1.631,1.631,0,0,1-1.928.279,7.619,7.619,0,0,0-4.05-.094,2.954,2.954,0,0,1-2.775-.673c-.338-.29-1.113-.549-1.2-.327s.089.572.558,1.245Zm-19.957,2.528c.186-.041.472.513.89,1.687.54,1.515-.4,6.781-.971,7.644-.3.452-.493.73-1.111-.108-.245-.369-.054-.486.189-1.521a32.054,32.054,0,0,0,.7-5.31c.008-1.539.09-2.347.3-2.392Zm1.9,5.108c.134.01.291.314.5.914a6.62,6.62,0,0,1-.243,3.63,9.611,9.611,0,0,1-.844,2.1c-.135.355-.821.231-1.011-.557-.119-.5.294-1.118.494-1.912s.43-1.812.544-2.323C2751.649,1915.2,2751.8,1914.587,2752,1914.6Zm14.683,2.334a.1.1,0,0,0-.043,0c0-.005-.008.008-.012.012-.031.031,1.432,1.631,1.824,2.078.205.175,1.968,2.325.872,1.831a7.51,7.51,0,0,0-7.993,1.343c-.25.241-.456-.006-1.211-.062-1.548-.116-2.11.5-1.168,1.266.144.117.444.169.58.357s.088.482.152.569c2.993,3.987,8.535,4.763,12.015,2.158.437-.327.683-.443,1.091-.321.809.242.881-.439.166-1.389-.312-.415-.7-.893-.472-1.031.442-.381.66-1.005-.108-1.238a2.518,2.518,0,0,1-1.421-1.579c-.348-.964-3.756-3.927-4.273-4Zm-13.584,1.746c.65-.015.68,3.841-.039,5.012-.369.443-1.214-.381-1.087-1.227a26.337,26.337,0,0,1,.945-3.692.283.283,0,0,1,.181-.093Zm13.26,2.407a2.932,2.932,0,0,1,1.887.779c.321.291.883,1.552.65,2.046-.066.252-.74.237-.8.053-.371-2.545-2.427-2.915-3.08-.539,0,0-.423.361-.477-.335.146-1.349.778-1.993,1.82-2Zm16.552.221a1.674,1.674,0,0,1,1.6,1.018,1.551,1.551,0,0,1,.159,1.113c-.066.16-.287.091-.287.091-1.043-2.872-2.463-1.544-2.977.044,0,0-.537.166-.6-.005a1.352,1.352,0,0,1,.188-.942,2.221,2.221,0,0,1,1.924-1.32Zm-13.957.178a2.342,2.342,0,0,1,1.474.76c.481.486.528.776.14,1.136-.233.217-1.062.431-1.223.055l-.7-1.637c-.066-.156.138-.305.306-.314Zm-5.028.077c.413,0,.5.1-.149,1.612-.139.324-1.8-.146-1.488-.772A2.762,2.762,0,0,1,2763.921,1921.563Zm16.691.12a.43.43,0,0,1,.359.093,9.964,9.964,0,0,0-.779,1.653c-.594-.072-1.3.012-1.434-.476-.122-.462.118-.742.956-1.065A3.462,3.462,0,0,1,2780.612,1921.683Zm4.877.41a.94.94,0,0,1,.7,1.045c-.061.21-.359.212-.571.051-.2-.235-.5-.634-.474-.9C2785.208,1922.02,2785.288,1922.017,2785.489,1922.093Zm-31.435,1.478c.194.366.544,2.442.135,2.389-.4-.1-.582-.729-.652-1.293C2753.523,1924.551,2753.876,1923.584,2754.054,1923.571Zm6.944,1.108a3.066,3.066,0,0,1,1.334.526,10.373,10.373,0,0,0,7.046.7c1.421-.37,1.783-.587,1.984-.342.341.416-.2.832-2.2,1.509-2.2.742-4.483.617-7.485-1.51-.807-.571-.912-.849-.675-.883Zm25.108.572c.373.7-.9,1.359-1.538,1.546a6.61,6.61,0,0,1-4.6-.493c-.1-.06-.192-.122-.281-.189-.95-.71-.557-1.217.5-.67a6.387,6.387,0,0,0,4.68.1c.616-.3,1.039-.672,1.239-.3Zm-28.1,1.3c-.127.028.087.348.528.828,3.095,3.487,10.479,5.379,14.63,1.785,1.3-1.224,1.1-1.776-.948-.8a19.459,19.459,0,0,1-8.277.433,12.154,12.154,0,0,1-4.735-1.545c-.713-.523-1.087-.729-1.2-.7Zm21.341.1a3.4,3.4,0,0,1,1.239.461,7.237,7.237,0,0,0,4.21.071c1.643-.609,1.981.165.424,1.028a4.706,4.706,0,0,1-5.526-.716c-.432-.389-.666-.873-.476-.912C2779.24,1926.584,2779.324,1926.654,2779.351,1926.656Zm-20.519,6.168c6.095.559,15.294,6.962,18.881,14.255h-2.065c-3.6-5.74-9.147-10.69-15.727-12.414-.26-.2-1.229-1.586-1.089-1.841Zm27.055,1.336-.281,2.016a32.646,32.646,0,0,0-7.543,8.83c-.578-.027-.859-.727-.762-1.2,2.223-4.4,4.881-6.83,8.586-9.642Zm-24.634,1.578c1.4-.1,10.5,5.14,13.56,11.341h-1.677c-3.446-4.505-7.277-7.776-10.677-8.955C2761.633,1937.249,2760.727,1935.777,2761.253,1935.738Zm24.353,1.4-.015,2.725a24.858,24.858,0,0,0-5.014,7.213h-1.69a3.891,3.891,0,0,1-.245-1.545,24.019,24.019,0,0,1,6.964-8.393Zm-13.822,9.938h-1.635a19.975,19.975,0,0,0-5.314-5.3c-.772-.96-1.636-2.144-1.288-2.337.02-.708,7.26,4.534,8.237,7.634Zm13.857-5.874-.035,1.575c-1.107,1.421-2.035,2.944-2.921,4.3h-1.394c1.271-2.755,4.464-6.619,4.35-5.874Zm-18.773,3.05c.5.134,2.347,2.232,2.288,2.824h-.829a17.365,17.365,0,0,1-1.345-2.163c-.2-.382-.336-.736-.115-.661Zm18.452.487h.012l-.016,2.337h-1.4a4.668,4.668,0,0,1,1.4-2.337Z" fill="#131f67"/>
      <path id="path6313-8" d="M2792.924,1740.047l52.089,74.183.042-16.479L2828.34,1776.1a62.8,62.8,0,0,1,12.107-2.319c-4.7-10.453-7.048-20.27-4.978-33.725C2820.867,1739.879,2806.2,1739.909,2792.924,1740.047Zm41.678.352c-.408,4.75-.944,10.047-.085,15.93-2.711-.993-3.347.7-3.8.882-.51-1.141-2.4-3.116-4.539-.8-1.112,1.207-.572,3.477,2.01,4.5-2.956.228-4.493-2.308-5.011-4.924-1.6-1.026-3.278-2.041-3.438-5.64l.82.137a2.518,2.518,0,0,0,3.849,2.592c.983-.757,1.089-1.924.7-3.738a2.643,2.643,0,0,0,2.151-3.326c-.675-3.295-4.047-2.908-5.587-.741-1.28-1.591-3.628-1.886-4.569.584a2.634,2.634,0,0,0,2.028,3.22c-3.015.58-4.535-3.593-4.7-6.417l-1.249-2.225C2821.334,1740.39,2824.9,1740.4,2834.6,1740.4Zm-40.829.081,6.049,0,44.153,57.35.093,14.278Zm15.3,0,.964.012a12.522,12.522,0,0,0,8.595,10.481c.257,4.123,2.238,9.725,9.755,11.618-.221,4.657,2.759,9.106,5.95,11.239a12.9,12.9,0,0,1-1.535.279c-4.29-3.414-5.347-8.441-5.772-10.515-.145-.3-.554-.373-.879-.446a13.276,13.276,0,0,1-8.024-8.023l-.794-3.626c0-.466-.093-.247-1.184-.65-2.832-1.047-5.45-4.122-6.624-7.8a5.62,5.62,0,0,1-.451-2.574Zm-3.89.012,3.389,0s.02.6.069.99c.456,3.617,3.691,8.155,6.991,9.661a8.134,8.134,0,0,1,1.268.654c.923,5.928,3.6,9.5,9.251,11.943.089.094.344.153.42.271.77,3.666,2.454,7.916,5.656,10.253l-1.384.143Zm16.556,6.222a1.391,1.391,0,1,1-1.388,1.393A1.391,1.391,0,0,1,2821.734,1746.718Zm-46.778,7.6c.08.2-18.957,16.365-17.1,46.777l-.552.619.151.217c-.629.716-1.234,1.291-1.92,1.989a68.849,68.849,0,0,0,10.85,5.209l-1.315,3.058,8.224,2.667-1.1,2.906s-5.722-1.9-8.094-2.7a72.19,72.19,0,0,0-2.73,8.061c-.08.219-.267.114-.559-.309-4.272-7.314-13.047-12.591-12.751-12.068l-31.116,29.635-.212,18.314,21.534,22.277a103.193,103.193,0,0,0-9.18,5.1c2.293,1.878,4.888,3.324,7.168,5.1,4.715,3.338,7.9,8.245,10.954,11.568a52.488,52.488,0,0,1,41.465-2.419c-1.46,1.543-3.09,2.879-4.6,4.551,3.644,9.6,2.478,28.656,2.294,29.175a63.292,63.292,0,0,0,17.367-47.945l3.192-3.213c-.058-.164-7.986-4.424-11.29-5.352l.914-2.919-7.912-2.48.883-2.319,7.881,2.291c1.493-3.677,3.073-8.828,3.073-8.828a40.62,40.62,0,0,0,13.758,13.4l30.939-29.712-.2-19.1-21.064-21.143,8.768-4.586c-.842-.682-2.063-1.329-2.93-2.013-.062-.049.174-.2.112-.244-.22-.169-.381-.307-.606-.464-.05-.035-.208.194-.258.159a52.756,52.756,0,0,1-8.294-6.661c-.059-.063.028-.324-.031-.387-1.217-1.3-2.429-2.52-3.667-3.8a19.922,19.922,0,0,1-1.523-1.962l-.054-.457-1.33-1.679c-4.284,2.536-22.548,8.9-40.22,1.854l3.358-3.371a25.8,25.8,0,0,1-1.7-6.561c-.924-7.936-.571-22.227-.571-22.227Zm55.709,4.494a1.471,1.471,0,1,1-1.462,1.471A1.469,1.469,0,0,1,2830.665,1758.814Zm4.582,1.749a66.659,66.659,0,0,0,4.02,12.541l-1.947.216c-1.584-1.033-3.259-2.541-3.435-4.68-4.285.033-5.538-6.714-3.973-5.9a2.552,2.552,0,0,0,3.064,2.987c1.391-.194,2.594-2.123.938-4.252A2.321,2.321,0,0,0,2835.247,1760.563Zm-60.73,10.81a60.9,60.9,0,0,0,2.051,11.615l-8.467,8.019A43.847,43.847,0,0,1,2774.517,1771.373Zm40.609,15.4,1.075,1.548c-12.236,7.213-33.121,7.722-45.845,1.641l1.689-1.614C2783.233,1793.415,2801.449,1793.792,2815.126,1786.769Zm-79.472,2.407a6.813,6.813,0,0,0-4.164,1.61c-5.614-2.567-9.29,3.434-5.819,7.408-.514,2.861-.9,3.393,1.242,6.289-2.278.291-5.154-.307-7.6-.685.414,4.236,6.457,5.222,8.973,4.757a9.032,9.032,0,0,1,5.39.789c1.6.448,2.589,1.22,4.164,1.591,2.6.62,6.4-2.435,6.952-5.337.052-.39.173-.743-.042-.8-1.775.455-3.726,1.1-5.456,1.478a10.28,10.28,0,0,0-4.26,1.842l-.108-3.5c8.794.42,4.967-7.973,4.469-8.333,1.633-3.311-.332-7.068-3.741-7.11Zm79.931.263,1.912,4.618-5.082,1.73-1.3-4.521Zm-80.3.14c2.989.029,5.662,3.188,2.791,6.726,5.565,4.926-1.567,10.2-4.962,6.541-4.521,4.155-9.324-.185-6.8-4.71-4.821-4.331,1.124-10.139,5.186-6.4A4.406,4.406,0,0,1,2735.288,1789.579Zm34.7,1.691a1.3,1.3,0,1,1-1.3,1.3A1.3,1.3,0,0,1,2769.99,1791.27Zm-33.11.1a.4.4,0,0,0-.258.12c-.145.013-.46.556-1.25,1.474-1.372,1.6-1.52,1.612-1.52,1.612a3.62,3.62,0,0,0-3.4.391,6.508,6.508,0,0,1-2.615-1.48c-.691-.58-1.063-.706-1.183-.4-.129.332.185.658,1.511,1.564,1.835,1.253,1.721,1.157,1.721,1.157a4.952,4.952,0,0,0,.48,2.83,13.467,13.467,0,0,1-1.626,2.495,3.613,3.613,0,0,0-.671,1.169c0,.667.576.219,1.908-1.47.522-.663,1.239-1.61,1.239-1.61a3.6,3.6,0,0,0,3.093-.137s.336.251,1.189.933c1.561,1.249,1.9,1.382,2.091,1.224.258-.214.224-.283-.367-.712a13.93,13.93,0,0,1-2.366-2.019,4.548,4.548,0,0,0-.417-3.288s.027-.178,1.021-1.292a9.308,9.308,0,0,0,1.666-2.3A.247.247,0,0,0,2736.88,1791.367Zm36.032.282,4.577,1.428-1.01,4.776-4.878-1.579Zm33.122,1.173,1.276,4.66-4.762,1.269-.779-4.946Zm3.343.077a1.3,1.3,0,1,1-1.3,1.3A1.3,1.3,0,0,1,2809.377,1792.9Zm10.823.167,4,3.576-4.442,2.253-2.14-4.66Zm-37.741,1.033,4.65.55-.188,5.016-5.337-.716Zm-16.132.054,5.174,2.28-1.866,5.233-5.3-2.284Zm13.337.407a1.3,1.3,0,1,1-1.3,1.3A1.3,1.3,0,0,1,2779.664,1794.56Zm16.73,0,.636,5.019-4.827.3-.1-5.1Zm3.32.572a1.3,1.3,0,1,1-1.3,1.3A1.3,1.3,0,0,1,2799.714,1795.136Zm-67.206.471a1.341,1.341,0,1,1-1.334,1.339A1.339,1.339,0,0,1,2732.508,1795.607Zm57.166-.049a1.3,1.3,0,1,1-1.3,1.3A1.3,1.3,0,0,1,2789.674,1795.558Zm22.737.322,1.882,5.159-5.275,1.706-1.492-5.3Zm3.7.139a1.3,1.3,0,1,1-1.3,1.3A1.3,1.3,0,0,1,2816.113,1796.019Zm9.119,1.463,3.408,2.419-1.689.944C2826.509,1799.782,2825.727,1798.521,2825.232,1797.482Zm-48.722.468,5.032,1.1-.767,5.291-5.491-1.1Zm-14.964.29,2.672,1.262-1.762,4.408-4.323-2.31Zm11.945.287a1.3,1.3,0,1,1-1.3,1.3A1.3,1.3,0,0,1,2773.491,1798.527Zm29.061.29.9,5.291-5.675.8-.351-5.4Zm21.249.1a1.3,1.3,0,1,1-1.295,1.3A1.3,1.3,0,0,1,2823.8,1798.918Zm-4.025.038,1.878,4.664-5.553,2.33-1.642-4.668Zm-14.159.337a1.3,1.3,0,1,1-1.295,1.3A1.3,1.3,0,0,1,2805.617,1799.293Zm-18.75.53,5.313.1-.061,5.349-5.819-.163Zm42.494.372,2.09,1.455c-21.507,13.882-51.721,15.6-75.3,1.939,0,0,.964-.964,1.512-1.529C2778.918,1814.829,2809.95,1813.037,2829.361,1800.195Zm-45.375.6a1.3,1.3,0,1,1-1.3,1.3A1.3,1.3,0,0,1,2783.986,1800.8Zm10.909.294a1.3,1.3,0,1,1-1.3,1.3A1.3,1.3,0,0,1,2794.9,1801.093Zm-25.306.716,5.549,1.61-.945,4.4-6.085-1.757Zm-3.671.031a1.3,1.3,0,1,1-1.295,1.3A1.3,1.3,0,0,1,2765.918,1801.84Zm43.1.936,1.326,4.935-6.135,1.316-.74-4.853Zm3.524.716a1.3,1.3,0,1,1-1.3,1.3A1.3,1.3,0,0,1,2812.539,1803.492Zm-80.143.767-.012,3.46c-1.017-.842-2.167-1.738-3.343-2.644a6.4,6.4,0,0,0,3.355-.816Zm-12.635.085a14.7,14.7,0,0,0,1.715.224c2.5-.008,7.165.775,8.545,1.912a5.919,5.919,0,0,1,1.523,1.324c0,.291-.411.3-1.014-.078a15.11,15.11,0,0,0-5.657-1.722c-.465-.065-.523-.046-.524.174,0,.272.429.431,1.785.654a15.235,15.235,0,0,1,2.518.569c1.042.287.376.67-.7.773-4.379.411-7.658-1.48-8.318-3.641-.053-.141,0-.188.124-.189Zm61.01.077,5.51.716-.251,4.629-6.031-.693Zm-46.856.4c.963.758.3,3.058-.224,3.735-.339.38-1.134.178-1.129-.357.12-.48-.05-2.767.054-3.475a1.282,1.282,0,0,1,1.3.1Zm63.852.205.285,4.772-6.011.275.047-4.687Zm-20.282.321a1.3,1.3,0,1,1-1.3,1.3A1.3,1.3,0,0,1,2777.485,1805.35Zm-33.5.066c.222,3.5-5.136,5.878-7.141,4.8-.887-.476-.518-.769,1.242-1.126,2.277-.6,3.777-1.2,3.778-1.622,0-.262-.344-.23-1.272.116-1.43.482-2.915.689-4.28,1.3-1.02.465-1.417.628-1.647.349-.48-.586,1.787-2.065,4.138-2.458,1.764-.295,3.542-1.239,5.182-1.366Zm57.093.437a1.3,1.3,0,1,1-1.3,1.3A1.3,1.3,0,0,1,2801.083,1805.853Zm-12.05.952a1.3,1.3,0,1,1-1.295,1.3A1.3,1.3,0,0,1,2789.033,1806.805Zm28.869,2.21c8.671,8.287,18.175,17.828,26.015,25.676-.011,4.106-.034,12.319-.034,12.319l-29.937,28.559a38.921,38.921,0,0,1-14.235-14.851,9.049,9.049,0,0,0,1.257-1.126l-1.562.937c-5.522-8.866-7.865-26.529,1.515-40.689l-9.477.349,1.546-3.24,10.318-.565,4.172-4.493s1.322-.246,2.418-.5,3.3-.889,4.931-1.417,3.011-.96,3.073-.96Zm-69.987,2.3a37.543,37.543,0,0,1,13.858,14.595c-15.993,13.809-22.021,29.889-23.381,46.625-8.705-8.172-13.1-12.692-20.968-20.628l.285-11.843Zm33.638,1.545a124.93,124.93,0,0,0-6.065,16.173l-2.479-.735s1.6-.673,2.317-1.1l-1.288-2.082,2.441-1.007-1.442-1.764,2.476-1.44-1.238-1.56,2.267-1.138-1.407-1.625,2.379-1.332-1.242-1.555Zm.76.011s.319.061.694.136c.09-.035-.447,1.3-.389,1.343.866.179.916.13,1.176.209l.659-1.37,1.083.205a90.084,90.084,0,0,0-5.864,16.232l-1.277-.267s.373-1.237.374-1.4c-.15-.032-.868-.336-1.091-.426-.076.193-.532,1.625-.532,1.625l-1.01-.027a77.142,77.142,0,0,1,6.177-16.259Zm4.153.19,2.263,1.881-2.568,1,1.33,1.777-2.722.987,1.562,1.846-2.7,1,1.608,2.233-2.8.949,1.77,1.962-2.529,1.188,1.515,1.506s-1.578.522-1.67.545a5.644,5.644,0,0,1-1.314-.2,88.067,88.067,0,0,1,6.254-16.677Zm-55.065.952c-.625.407-.269,1.294-1.053,2.051a1.71,1.71,0,0,0-.185.72c-.037.207-.657,2.679-.657,2.679a3.409,3.409,0,0,0,.4-.977c.212-.673.4-1.951.51-2.164.578-.177.665-2.069,1.252-1.81.338.15.274.459.082,1.185-.417,1.45-.581,2.061.135,1.072,1.07-1.293,1.174-2.459-.031-2.706a4.37,4.37,0,0,0-.459-.05Zm16.171.538L2719.6,1840.91l-.084,9.839,9.736,9.9,6.909,6.722c2.509-15.056,8.263-29.419,22.429-41.849a33.808,33.808,0,0,0-11.016-10.98Zm75.4.271c-16.437,7.754-20.216,23.656-15.126,38.052C2815.683,1842.758,2821.83,1833.258,2822.976,1814.817Zm-58.5.8,7.465,2.411-2.811,9.622-6.721-2.048-.686-1.7Zm57.675.251a59.671,59.671,0,0,1-13.958,35.294A28.143,28.143,0,0,1,2822.151,1815.873Zm-40.2.07-.47,1.2,1.033.294.44-1.215Zm-1.033,2.825-.424,1.216,1.06.36.4-1.235Zm44.033.221c-2.3,17.847-11.907,34.088-22.055,42.364a39.357,39.357,0,0,0,10.9,11.479l28.587-27.486-.112-9.169Zm-75.543,4.737c-.175.653-.237.984-.237.984a6.638,6.638,0,0,1,1.2-.782c5.617-2.812,3.8,1.464,1.158,3.046-.591.316-1.2.691-1.2.691s.562.128,1.171.241c3.409.712,2.683,2.713-.872,2.4-.526-.046-1.144-.146-1.144-.116a13.132,13.132,0,0,0,.459,1.4c1.2,3.03-1.037,3.266-2.508,1.34-.2-.269-.669-1.009-.669-1.009s-.144.56-.233,1.1c-1.271,4.75-4.405,4.629-3.235-.189.146-.5.324-1.389.324-1.389a15.32,15.32,0,0,1-1.471.771c-4.06,1.819-4.719-.053-1.031-2.791,1.049-.779,1.405-1.085,1.405-1.085a10.7,10.7,0,0,1-1.787-.284c-2.942-.741-3.726-2.507.987-2.424.7.014,1.406.061,1.406.061s-.233-1.015-.478-1.78c-1.137-3.54,1.154-3.961,3.088-.79.411.675.529.679.529.679a6.99,6.99,0,0,1,.59-2.326c2.34-4.352,3.256-.38,2.549,2.247Zm50.558-3.522a39.819,39.819,0,0,0-4.492,10.555l-7.639-.132a41.174,41.174,0,0,1,3.49-10.051C2794.429,1820.491,2797.234,1820.353,2799.961,1820.2Zm-20.166,1.544-.44,1.282,1.107.34.4-1.246Zm-57.12,2.4a48.367,48.367,0,0,0-1.546,6.417c-.191,1.1,0,1.564.663,1.811a2.806,2.806,0,0,0,3.05-1.215c.427-.614.737-1.881.8-4.118l.074-1.993a19.756,19.756,0,0,1-3.043-.9Zm56.087.279-.367,1.176,1.068.4.409-1.188Zm49.47.441a4.144,4.144,0,0,1,2.718.847l2.271,2.346a3.142,3.142,0,0,0,2.163,5.41,5.481,5.481,0,0,0,2.2-.905l3.6,3.742c-2.1.922-4.153-1.2-4.925-2.04a1.066,1.066,0,0,1-.228-.333,1.434,1.434,0,0,1-.043.519c-.3,1.666-1.939,6.583-3.5,6.321-1.763-.3.032-7.324.051-7.162-1.212,1.286-7.118,2.655-6.7,1.219.822-2.852,5.239-3.952,5.82-4.447-2.349-1.418-5.327-5.352-3.416-5.517Zm-105.271.092a5.314,5.314,0,0,1,1.769.357c.237.063.248.262.274.449.008.842.215,3.315-.563,3.34a3.582,3.582,0,0,0-2.244.6c-.457.35-.609.1-.486-.8.12-.87.551-2.7.737-3.44A.53.53,0,0,1,2722.961,1824.964Zm23.339.032a3.143,3.143,0,1,0,3.131,3.142A3.137,3.137,0,0,0,2746.3,1825Zm0,1.1a2.042,2.042,0,1,1-2.036,2.043A2.041,2.041,0,0,1,2746.3,1826.095Zm16.154.038c7.177,12.434,6.345,29.5-2.115,41.916l9.1-.639-1.2,2.338-9.7.948c-1.482,1.361-2.83,2.917-4.287,4.373l-.016.515a87.6,87.6,0,0,0-10.04,2.893c-1.789-1.763-5.153-5.288-5.131-5.376l.216-1.141c23.063-11.811,16.316-35.5,14.692-37.444a69.645,69.645,0,0,1,8.479-8.383Zm64.008,2.261a1.7,1.7,0,1,1-1.693,1.7A1.693,1.693,0,0,1,2826.462,1828.394Zm7.519.456,2.833,2.93a2.032,2.032,0,0,1-3.466-1.447A2.049,2.049,0,0,1,2833.981,1828.85Zm-97.34.364a1.7,1.7,0,1,1-1.693,1.7A1.691,1.691,0,0,1,2736.641,1829.214Zm-12.585.712c.792.266.607,1.009-.416,1.663a1.73,1.73,0,0,1-1.852.2C2720.685,1831.2,2722.975,1829.539,2724.056,1829.926Zm13.075,4.157-10.191,9.9a14.185,14.185,0,0,0,.713-4.926c3.066.317,4.35-1.245,3.9-4.459a18.169,18.169,0,0,0,5.575-.511Zm16.329,1.13c4.725,13.524.621,27.837-14.159,36.125C2739.91,1858.379,2745.329,1845.989,2753.46,1835.213Zm13.46,1.184a107.762,107.762,0,0,0,26.929,3.132,64.193,64.193,0,0,0,.995,11.27,100.438,100.438,0,0,0-27.249-2.965c.413-3.869-.248-8.259-.675-11.437Zm60.143,2-8.637,10.137.363-5.535c2.909.372,3.945-1.168,3.516-4.211A15.155,15.155,0,0,0,2827.063,1838.4Zm-83.925.562-.683,4.048c-1.723.047-3.415.661-3.393,4.524l-5.151-.062Zm95.053.747a1.7,1.7,0,1,1-1.693,1.7A1.693,1.693,0,0,1,2838.191,1839.707Zm-102.888.514a1.7,1.7,0,1,1-1.693,1.7A1.7,1.7,0,0,1,2735.3,1840.221Zm99.113,1.742-.9,6.13c-2.353-.207-4.317.157-3.713,4.312a40.3,40.3,0,0,0-6.609.437Zm-8.432,1.111a1.7,1.7,0,1,1-1.693,1.7A1.7,1.7,0,0,1,2825.984,1843.074ZM2722.9,1844.39a1.7,1.7,0,1,1-1.689,1.7A1.7,1.7,0,0,1,2722.9,1844.39Zm5.61,2.008c2.16.487,1.161,5.542.675,6.917-.037.037,6.027-3.19,6.389-1.765.237,2.855-5.02,4.845-5.02,4.845s3.543,3.09,3.643,5.032c.009,1.256-1.481,1.023-3.416-.569-.827-.816-1.467-1.427-2.036-1.994a3.137,3.137,0,1,0-4.43-4.416c-.449-.433-.957-.939-1.639-1.586-1.118-1.049-1.9-1.883-1.789-2.261,1.475-1.042,4.408,1.758,4.669,2.013C2725.34,1852.068,2726.962,1846.689,2728.513,1846.4Zm-2.954,6.216c.012.029.028.046.051.046C2725.61,1852.66,2725.571,1852.626,2725.559,1852.614Zm92.1-2.268c1.027-.014.963,2.333.6,3.553-.251.93-.5,1.691-.5,1.691a10.686,10.686,0,0,1,1.249-.859c2.8-1.315,3.839.174,2.43,1.9-.678.888-1.6,1.085-2.352,1.831a7.23,7.23,0,0,1,3.219.832c.718.431,1.282.953,1.28,1.277,0,.726-1.778,1.117-3.439.929a9.558,9.558,0,0,1-2.036-.364,12.077,12.077,0,0,1,.752,1.487c.62,1.727.4,3.75-.493,3.746-1.5-.4-2.232-2.076-2.819-3.278a9.042,9.042,0,0,1-2.021,3.769c-1.063.988-1.608.168-1.553-1.505a22.387,22.387,0,0,1,.509-2.651c-6.3,2.135-5.832-.753-.916-3.283-3.028-1.449-4.868-2.753.283-3.049-.136-.124-1.036-2.893-.073-3.541.894-.6,2.8,1.467,2.892,1.567a7.248,7.248,0,0,1,1.407-2.945c.694-.789,1.209-1.1,1.581-1.107Zm-5.807,6.026c.008.006.013.006.015,0Zm27.577-1.829c-1.1.1-1.779,1.077-2.287,1.929-.1.173-.293.235-.363.463a28.875,28.875,0,0,0-1.095,5.419,5.67,5.67,0,0,0,2.957.511c.195-.082.134-.588.2-.755a19.179,19.179,0,0,0,1.635-6.1C2840.476,1854.986,2840.125,1854.479,2839.429,1854.543Zm-112.721-.125a2.043,2.043,0,0,1,1.265,3.641c-1.311-1.312-1.983-2-2.861-2.864A2.028,2.028,0,0,1,2726.708,1854.418Zm113.109.972c.275.671-.609,1.4-1.753,1.394-.681,0-.9.094-.6-.5.361-.721,1.825-2.178,2.352-.9Zm-15.349-.473a1.7,1.7,0,1,1-1.692,1.7A1.7,1.7,0,0,1,2824.468,1854.917Zm-89.227.12a1.7,1.7,0,1,1-1.689,1.7A1.693,1.693,0,0,1,2735.241,1855.037Zm80.023.689a3.143,3.143,0,1,0,3.131,3.142A3.137,3.137,0,0,0,2815.264,1855.726Zm-41.843.422a51.94,51.94,0,0,1-3.69,10.507c-3.018.183-6.28.324-8.432.631,3.583-6.3,3.67-7.781,5-11.119Zm5.186.51c.848.1,1.777.23,2.615.391a98.681,98.681,0,0,1-6.208,16.41l-1.593-.247-.756-.937,2.53-1.014-1.971-2.02,3.266-.991-2.009-1.989,3.227-.809-1.727-2.106,2.9-1.134-1.839-2.384,3.084-.851Zm36.657.167a2.042,2.042,0,1,1-2.035,2.043A2.041,2.041,0,0,1,2815.264,1856.825Zm-33.464.309,1.076.175-.332,1.157,1.226.263.4-1.25a6.528,6.528,0,0,1,1.091.17,140.959,140.959,0,0,1-5.884,16.193l-1.168-.174.309-1.11-1.088-.155v-.012l-.524,1.208-1.161-.1a114.552,114.552,0,0,0,6.058-16.368Zm57.151.418c.862,0,.81.443.185,2.075-.587,1.533-.807,2.148-1.093,2.346-.679.484-2.143.078-2.024-.627.385-2.292.522-3.269,1.111-3.58A9.639,9.639,0,0,1,2838.951,1857.552Zm-52.825.19,2.807.546-2.348,1.4,1.492,1.749-2.884,1.235,1.751,1.819-2.784,1.142,1.692,2-2.888,1.223,1.967,1.71-3.247,1.03,1.23,1.9-1.222.685-1.508-.236c2.5-5.86,4.111-10.68,5.942-16.2Zm6.9,1.4,5.5,1.5,1.1,1.97-2.58,8.743-7.326-2.16Zm-10.927.844-.525,1.436,1.211.251.467-1.478Zm-1.064,3.3-.525,1.436,1.138.225.536-1.452Zm-1.072,2.9-.536,1.428,1.106.229.529-1.432Zm51.658,2.628a6.25,6.25,0,0,0-.709.589c.122.328.477.832.424,1.162-.048.249-.324.449-.739.893-1.035,1.209-1.4,1.077-.8-.213a4.216,4.216,0,0,0,.285-.782,8.357,8.357,0,0,0-.582,1.051c-.341.66-.66,1.284-.66,1.284a5.493,5.493,0,0,1,1.523,1.039s.217-.585.367-1.145a1.984,1.984,0,0,1,1.126-1.37,3.072,3.072,0,0,0,.623-.478,5.1,5.1,0,0,1-.86-2.03Zm-52.8.352-.567,1.521,1.1.271.613-1.552Zm-62.21,3.824c-.1,6.057.1,10.045-.112,16.577l16.337,21.251-2.548.859s-.028.3-.166.333c-3.491.964-9.154,1.924-9.154,1.924,4.212,9.652,6.943,21.723,5.059,33.78l42.283-.113Zm89.424,10.264-1.458,1.467c-21.5-11.682-51.12-11.636-72.732,2.508l-1.762-1.3c23.589-15.169,52.609-15.073,75.952-2.678Zm-88.633-8.139,49.766,71.759-5.845.085-43.879-57.617Zm106.8,1.3s-1.437.375-2.645.763c-3.458,1.111-5.076,3.119-4.758,5.906.094.823.307.812,1.716-.081,3.3-2.09,3.5-2.182,7.611-3.391a2.209,2.209,0,0,1,.779-.023l-.181,3.255c-6.847-.026-6.473,5.433-4.5,8.271-.689,1.312-2.2,5.893,2.769,7.636a6.439,6.439,0,0,0,5.02-1.63c4.569,2.17,9.872-1.467,5.737-7.767,1.555-2.748.459-4.787-1.025-6.541,0,0,.251.022,2.413.422a19.978,19.978,0,0,0,4.535.5c.008-2.964-2.441-4.288-7.542-4.691C2830.511,1879.548,2824.2,1876.383,2824.2,1876.408Zm-55.091.345c.247,0,.491,0,.736,0l-.239,5.062-5.556.256-.363-5.043c1.914-.133,3.693-.273,5.422-.279Zm6.659.124,5.961.727-.9,4.734-5.491-.592Zm48.325.058c.494.057.336.629-.34.762-1.072.211-3.82,1.817-3.821,2.233,0,.269.135.231,1.141-.309a24.784,24.784,0,0,1,2.329-1.026c.777-.3,1.665-.653,1.974-.793.924-.419,1.382-.129,1.049.662-.22.523-.307.564-2.448,1.246a11.059,11.059,0,0,0-3.524,1.567c-.459.3-1.273.767-1.809,1.045-1.265.658-1.522.661-1.519-.224-.069-2.622,2.82-4.59,6.736-5.155a.682.682,0,0,1,.232-.008Zm-51.568.611a1.355,1.355,0,1,1-1.35,1.355A1.353,1.353,0,0,1,2772.523,1877.546Zm-14.749.36.444,4.594-5.464,1.409-1.249-4.745c2.09-.514,4.179-.875,6.27-1.258Zm70.384.349c1.5.228,1.379,3.671.613,4.269-1.178.852-1.9-.93-1.376-3.294.148-.711.421-.959.763-.975Zm-67.283.185a1.355,1.355,0,1,1-1.35,1.355A1.352,1.352,0,0,1,2760.875,1878.44Zm26.689.4,6.177,1.692-1.511,4.8-5.795-1.637Zm-3.362.093a1.355,1.355,0,1,1-1.349,1.355A1.353,1.353,0,0,1,2784.2,1878.928Zm50.53.4c2.662.028,6.171,1.367,6.177,3.433-.054.586-5.574-.193-8.124-1.223-.9-.366-2.007-1.479-2-1.943,0-.277.54-.257.76.011.359.438,1.63.9,4.55,1.634,2.243.567,2.466.589,2.467.247,0-.311-1.324-.74-2.76-.979a24.011,24.011,0,0,0-2.506-.433c-.518,0-.644-.328-.212-.55a5.682,5.682,0,0,1,1.654-.2Zm-4.7,1.068c.671.316.914.945,1.284,1.277a3.006,3.006,0,0,1-1.411.495,4.793,4.793,0,0,1,.127-1.772Zm-80.89.371a1.355,1.355,0,1,1-1.35,1.355A1.352,1.352,0,0,1,2749.142,1880.77Zm-3.633.383,1.458,4.691-5.221,2.28-1.851-4.648A46.391,46.391,0,0,1,2745.509,1881.153Zm24.141.767s4.159.005,5.6.023l-.335,5.3-5.19.038Zm-5.556.29.289,5.287-5,.673-.987-5.317Zm31.595.046a1.355,1.355,0,1,1-1.35,1.355A1.352,1.352,0,0,1,2795.689,1882.256Zm36.156.124c3.042.013,5.944,3.527,2.938,7.207,4.931,3.808-.43,10.209-4.789,6.479-6.233,6.145-9.716-2.2-7.137-4.412-3.809-6.283.871-10.253,5.7-7.482A3.931,3.931,0,0,1,2831.845,1882.38Zm-50.932.151,5.483,1.223-1.1,5.229-5.356-1.091Zm18.146.128,5.012,2.5-3.886,3.754-2.888-1.443Zm-32.138.592a1.355,1.355,0,1,1-1.35,1.355A1.352,1.352,0,0,1,2766.921,1883.251Zm10.831.17a1.355,1.355,0,0,1,0,2.71,1.352,1.352,0,0,1,0-2.71Zm-24.967.763,1.223,5.229-5.078,1.722-1.817-5.093Zm3.49.371a1.355,1.355,0,1,1-1.35,1.355A1.352,1.352,0,0,1,2756.275,1884.555Zm75.168,2.412c-.381.476-.883,1.037-.883,1.037a3.476,3.476,0,0,0-3.308.25s-.87-.7-1.665-1.342c-1.378-1.117-1.838-1.373-1.84-.905a4.885,4.885,0,0,0,1.037,1.064,12.036,12.036,0,0,1,1.872,1.816,3.3,3.3,0,0,0,.344,3.178s.03.132-.516.71c-.99,1.048-2.011,2.667-1.776,2.905.292.295,1.119-.413,2.158-1.821.739-1,.962-1.026.962-1.026,1.262.342,1.961.652,3.223-.394a4.982,4.982,0,0,1,1.427.933c1.481,1.227,2.013,1.492,2.174,1.076.132-.34-.063-.567-1.318-1.525-.818-.624-1.726-1.355-1.726-1.355a3.1,3.1,0,0,0-.458-3.073s.036.071,1.387-1.687c.9-1.169,1.055-1.317.757-1.568-.4-.521-1.717,1.56-1.851,1.727Zm-39.163-1.5,4.947,2.086-1.77,5.19-4.777-1.958Zm-54.432.348a1.355,1.355,0,1,1-1.35,1.355A1.353,1.353,0,0,1,2737.848,1885.817Zm50.607.139a1.355,1.355,0,1,1-1.349,1.355A1.352,1.352,0,0,1,2788.455,1885.956Zm-54.062.372,1.62,4.025-3.683-2.756Zm40.6,1.037,4.928.585-.779,4.714-4.249-.387Zm-5.379.012-.05,4.845-4.681.2-.4-4.838Zm-24.083.882a1.355,1.355,0,1,1-1.35,1.355A1.352,1.352,0,0,1,2745.529,1888.259Zm-3.733.1,1.905,4.869-2.953,1.432-3.96-3.762Zm17.617.062.764,4.633-4.882,1.211-1.183-4.714Zm69.771.046a1.932,1.932,0,1,1-1.924,1.932A1.928,1.928,0,0,1,2829.184,1888.464Zm-57.116.147a1.355,1.355,0,1,1-1.349,1.355A1.353,1.353,0,0,1,2772.068,1888.611Zm13.295.5,5.205,1.691-1.75,4.184-4.5-1.223Zm-23.069.174a1.355,1.355,0,1,1-1.35,1.354A1.351,1.351,0,0,1,2762.294,1889.285Zm19.792.5a1.355,1.355,0,1,1-1.35,1.355A1.352,1.352,0,0,1,2782.086,1889.784Zm-33.052,1.587,1.793,4.141-4.9,2.125-2.132-4.223Zm3.47.248a1.355,1.355,0,1,1-1.35,1.354A1.352,1.352,0,0,1,2752.5,1891.619Zm18.041,1.25a55.161,55.161,0,0,1,21.122,4.091l-1.735,1.633c-18.9-6.518-31.253-3.581-43.925,2l-1.28-1.587a58.551,58.551,0,0,1,25.818-6.134Zm21.377.05a1.355,1.355,0,1,1-1.35,1.355A1.352,1.352,0,0,1,2791.922,1892.919Zm-49.243,2.972c1.084.065,1.188,2.095.683,1.51l-1.207-1.4A1.162,1.162,0,0,1,2742.679,1895.891Zm50.515.84c-.04,1.54-1.493,11.861-6.4,18.957a50.381,50.381,0,0,0-2.124-10.744s5.276-4.894,8.521-8.213Zm-62.73,15.64,25.518,34.539-2.68-.02a16.805,16.805,0,0,0-2.961-7.071,12.062,12.062,0,0,0-4.766-3.82c-1.394-.636-1.574-.5-1.662-1.575-.421-6.041-5.294-9.84-9.027-11.286a14,14,0,0,0-6.119-10.268Zm-2.485.827c2.332,1.609,4.887,3,6.264,9.345.1,1.325.184,1.184,1.222,1.574,4.067,1.2,7.6,6.1,7.92,10.392,0,1.294.417,1.409,2,2.078a12.609,12.609,0,0,1,5.12,4.273,14.052,14.052,0,0,1,2.159,6.011l-1.4.008c-1-6.319-4.962-8.839-9.151-10.02.326-8.92-6.583-11.7-9-12.122.141-6.425-4-9.075-6.673-11.232a8.112,8.112,0,0,1,1.533-.307Zm-4.127.886c2.087.685,3.669,3.6,3.508,4.948,2.753.348,5.646,3.019,5.011,5.8a.674.674,0,0,1-.844-.178c.738-5.4-7.29-2.726-4.082,1.18l-1.435.94a67.06,67.06,0,0,0-4.115-12.365C2722.457,1914.262,2723.852,1914.084,2723.852,1914.084Zm6.647,11.318a1.3,1.3,0,1,1-1.292,1.3A1.292,1.292,0,0,1,2730.5,1925.4Zm6.892,5.827a5.561,5.561,0,0,1,3.957,5.119l-.67-.016c-1.078-4.935-6.682-2.25-4.343,1.686-2.995,1.111-2.759,3.886-1.877,4.984a3.191,3.191,0,0,0,5.268-.865c2.912,3.782,6.93-.461,3.385-3.986,2.9,1.074,3.369,4.978,2.933,6.2a5.951,5.951,0,0,1,2.692,2.6l-21.754,0s1.053-8.811-.065-15.461c1.447.349,2.418.7,4.083-1.262,2.7,2.24,4.632.549,4.492-1.386a3.645,3.645,0,0,0-2.059-2.74c2.359-.582,4.143,3.513,3.958,5.13Zm2.427,6.208a1.335,1.335,0,1,1-1.33,1.335A1.332,1.332,0,0,1,2739.818,1937.437Z"/>
      <path id="path7198-0" d="M2706.069,1775.12a44.938,44.938,0,0,0-5.8-7.974,44.981,44.981,0,0,0,5.8-7.975,44.975,44.975,0,0,0,5.794,7.975A44.932,44.932,0,0,0,2706.069,1775.12Z" fill="#d40000"/>
      <path id="path7202-9" d="M2855.759,1928.121a44.937,44.937,0,0,0-5.795-7.974,44.976,44.976,0,0,0,5.795-7.975,44.971,44.971,0,0,0,5.794,7.975A44.932,44.932,0,0,0,2855.759,1928.121Z" fill="#d40000"/>
      <path id="path7204-2" d="M2739.869,1783.67c-4.13-6.83-8.476-13.468-13.906-19.139,5.43-5.67,9.776-12.308,13.906-19.138,4.131,6.83,8.476,13.468,13.907,19.138C2748.345,1770.2,2744,1776.84,2739.869,1783.67Z" fill="#d40000"/>
      <path id="path7222-2" d="M2821.958,1941.909c-4.131-6.83-8.476-13.468-13.907-19.139,5.431-5.67,9.776-12.308,13.907-19.138,4.13,6.83,8.476,13.468,13.906,19.138C2830.434,1928.441,2826.088,1935.079,2821.958,1941.909Z" fill="#d40000"/>
      <path id="path37-2-1-6-5" d="M2700.28,1747.963h-2.2v-3h2.2s.016-1.616.08-4.465c.136-6.075.287-7.018,2.043-8.69,3.468-3.3,9.276-.611,9.208,4.357-.1,7.012-.028,13.7-.233,14.645-.363,1.667-.4,1.761-.252,2.066.3.612,2.928.877,2.928.706v2.953a5.422,5.422,0,0,1-4.44-1.179,6.58,6.58,0,0,1-6.471.8c-1.844-.869-3.24-3.113-2.863-8.191Zm7.423,5.234c-1.088-1.575-2.92-3.724-4.643-4.488-.108,1.811.048,3.33.684,4.146a2.528,2.528,0,0,0,3.959.342Zm.9-17.32c-.808-2.291-2.884-3.068-4.4-1.635-.949.892-1.1,1.831-1.121,6.93-.012,3.145-.012,4.467-.012,4.467,2.953.959,5.712,4.4,5.689,4.36l.071-9.512a26.66,26.66,0,0,0-.227-4.61Z" fill="#d40000"/>
      <path id="path37-3-27-1-5" d="M2861.548,1939.329h2.2v3h-2.2s-.017,1.616-.08,4.466c-.136,6.074-.288,7.017-2.044,8.689-3.468,3.3-9.276.612-9.207-4.357.1-7.012.027-13.7.232-14.644.364-1.668.4-1.762.252-2.067-.3-.612-2.927-.877-2.927-.706v-2.953a5.421,5.421,0,0,1,4.439,1.179,6.582,6.582,0,0,1,6.472-.8c1.843.869,3.24,3.113,2.863,8.191Zm-7.424-5.233c1.088,1.574,2.92,3.723,4.644,4.487.107-1.811-.049-3.329-.684-4.146a2.528,2.528,0,0,0-3.96-.341Zm-.9,17.319c.808,2.291,2.883,3.068,4.4,1.635.948-.892,1.1-1.831,1.12-6.93.012-3.145.012-4.467.012-4.467-2.952-.959-5.712-4.4-5.688-4.36l-.072,9.512a26.781,26.781,0,0,0,.227,4.61h0Z" fill="#d40000"/>
    </g>
  </g>
</svg>
