<svg xmlns="http://www.w3.org/2000/svg" xmlns:xlink="http://www.w3.org/1999/xlink" width="179.79" height="250.65" viewBox="0 0 179.79 250.65">
  <defs>
    <clipPath id="clip-qh">
      <rect width="179.79" height="250.65"/>
    </clipPath>
  </defs>
  <g id="qh" clip-path="url(#clip-qh)">
    <g id="qh-2" data-name="qh" transform="translate(-2691.021 -1155.422)">
      <rect id="rect10414-2-6" width="177.785" height="248.651" rx="8.504" transform="translate(2692.021 1156.422)" fill="#fff" stroke="#000" stroke-width="0.997"/>
      <path id="path10446-4-8" d="M2705.733,1212.221s-1.772-2.543-4.162-5.534c-1.6-2-2.877-4.168-3-6.035-.136-2.132,1.154-4.271,3.49-4.375s3.283,1.644,3.668,3.085c.386-1.441,1.334-3.189,3.668-3.085a3.864,3.864,0,0,1,3.49,4.375c-.118,1.867-1.4,4.034-3,6.035-2.39,2.991-4.162,5.534-4.162,5.534Z" fill="#d40000"/>
      <path id="path10448-8-7" d="M2856.094,1349.273s-1.771,2.544-4.162,5.535c-1.6,2-2.877,4.168-3,6.035-.136,2.132,1.154,4.271,3.49,4.375s3.282-1.644,3.668-3.085c.386,1.441,1.334,3.189,3.668,3.085a3.864,3.864,0,0,0,3.49-4.375c-.118-1.867-1.4-4.034-3-6.035C2857.866,1351.817,2856.094,1349.273,2856.094,1349.273Z" fill="#d40000"/>
      <path id="path37-2-5-5-0" d="M2699.943,1185.064h-2.2v-3h2.2s.017-1.615.08-4.465c.136-6.075.288-7.017,2.044-8.689,3.468-3.3,9.276-.612,9.207,4.356-.1,7.012-.027,13.7-.232,14.645-.364,1.667-.4,1.761-.252,2.066.3.612,2.928.878,2.928.706v2.953a5.419,5.419,0,0,1-4.44-1.179,6.579,6.579,0,0,1-6.472.8c-1.843-.869-3.239-3.113-2.863-8.191Zm7.424,5.234c-1.089-1.575-2.92-3.724-4.644-4.487-.107,1.81.049,3.329.684,4.145a2.529,2.529,0,0,0,3.96.342Zm.9-17.32c-.808-2.291-2.883-3.068-4.4-1.634-.948.892-1.1,1.83-1.12,6.929-.012,3.146-.012,4.468-.012,4.468,2.952.958,5.711,4.4,5.688,4.359l.072-9.512a26.683,26.683,0,0,0-.227-4.61h0Z" fill="#d40000"/>
      <path id="path37-3-27-3-0-9" d="M2861.882,1376.431h2.2v3h-2.2s-.017,1.615-.08,4.465c-.136,6.074-.288,7.017-2.044,8.689-3.468,3.3-9.276.612-9.207-4.357.1-7.012.028-13.7.232-14.644.364-1.668.4-1.762.252-2.067-.3-.612-2.927-.877-2.927-.706v-2.953a5.425,5.425,0,0,1,4.439,1.179,6.579,6.579,0,0,1,6.472-.8c1.843.868,3.24,3.112,2.863,8.191Zm-7.424-5.234c1.089,1.575,2.921,3.724,4.644,4.487.108-1.811-.049-3.329-.684-4.146a2.529,2.529,0,0,0-3.96-.341Zm-.9,17.32c.808,2.291,2.884,3.068,4.4,1.634.948-.892,1.1-1.831,1.121-6.93.012-3.145.012-4.467.012-4.467-2.953-.959-5.712-4.405-5.689-4.36l-.072,9.512a26.792,26.792,0,0,0,.228,4.611Z" fill="#d40000"/>
      <path id="path3054-4-0-3" d="M2846.221,1175.485H2715.607V1386.01h130.614Zm-16.095,1.7h14.042v81.161s-1.158-.025-1.078-.592a4.208,4.208,0,0,0-.539-2.78,5.607,5.607,0,0,1-.73-.937,3.839,3.839,0,0,0-1.43-1.676c-.236-.1-.51-.156-.546-.321s-.111-.658-.211-1.123c-.253-1.163-.478-1.126.257-2.284,2.547-4.01,3.527-7.7,3.206-11.357a12.836,12.836,0,0,0-.52-2.826c-2.461,2.484-4.243,5.553-5.918,7.821a78.664,78.664,0,0,1-.374-8.283,3.652,3.652,0,0,0,2.676-2.884s1.409,1.111,2.272.952l-.568-2.093c3.769-1.165,4.284-6.117-.167-7.164l.4-2.608s-1.344.453-1.934.743c-.294.125-.367.026-.573-.4-2.076-3.251-5.3-2.559-6.72.647l-1.738-.743a7.011,7.011,0,0,1,.254,2.675c-3.647,1.635-2.746,6.11.165,6.7l-.253,2.09,2.191-.712a3.339,3.339,0,0,0,1.907,2.656c-.043,4.381-.114,7.121.023,11.014a18.039,18.039,0,0,0-8.346-5.188,13.67,13.67,0,0,0,.188,2.377c.074.473.06.4-.161.4-.5-.012-2.765-3.674-2.765-3.674a.771.771,0,0,0-.492.232c-.269.269.347.767,1.211,2.06,1.013,1.513.915,1.449.12,2.129-4.522,3.863-11.051,18.565-9.954,19.995-2.858.172-14,5.672-16.02,17.011-.12.51-.357,1.173-.357,1.173l-3.222-.806c1.943-9.287,6.328-28.171,6.328-28.171a39.037,39.037,0,0,1,4.886-1.076l-.019-.732-4.244.995.2-1.618,4.006-.794-.011-.383-4.24.573.692-2.7s-9.52,1.408-12.929,1.305c.216,10.478-.6,19.182-.163,30.473l-4.654-2.84c-.414-7.861-.539-27.718-.539-27.718l-12.85-2.032.427,3.119c-10.653-4.252-21.339-8.164-29.208-16.475,4.844-3.744,12.929-7.457,12.929-7.457l-.266-.6c-19.878,10.319-27.09,17.489-37.078,26.383v-73.643h53.813l-.18,13.495a1.482,1.482,0,0,1-.173.468c-.664,3.249,1.24,9.016.857,11.823a13.9,13.9,0,0,1,.115,2.478,40.682,40.682,0,0,0-6.4,13.9c-.558.223-1.38.682-1.961.84l-.165.708a42.088,42.088,0,0,1,4.875-1.85c16.055,7.881,27.852,5.952,40.478.1-2.013,7.117,2.364,16.165,9.565,18.068a7.31,7.31,0,0,0,3.041.19c.807-.235-1.814-6.274-2.975-6.5-3.479-1.518-4.911-5.083-4.541-9.172l-.576-.975c-1.186,4.967,1.668,10.01,5.586,11.242l1.053,2.315c-7.1-2.145-10.126-8.841-7.762-15.462.042-4.131-2.617-5.958-3.836-7.738-6.176-2.373-7.324-8.132-6.244-12.787,2.875,1.231-1.937-4.088-1.937-4.088-2.118,4.618-3,10.457,1.841,16.375a42.277,42.277,0,0,1-11.691,10.313c-6.6,3.469-11.554,1.132-14.744-6.55a35.53,35.53,0,0,1-2.591-14.026c.011-2.981.044-3.072,1.154-2.566a6.4,6.4,0,0,0,4.651-.159c1.839-.955,1.752-.374-.25,1.7a10.062,10.062,0,0,0-1.126,1.181c0,.612.855.1,2.076-1.122.446-.446.775-.874.915-.868.16.008.145.581-.039,1.2-.07.238-.294,1.243-.5,2.23s-.486,2.147-.623,2.579c-.543,1.712-.4,2.505,1.235,3.3a12.845,12.845,0,0,1,2.318,1.837,7.6,7.6,0,0,1-.222-2.057c.157-.6.867-.177,1.591.172,1.6.769,2.531.791,3.39.069a2.362,2.362,0,0,0-.619-3.817c-1.075-.428-1.263-.032-.19.721,1.609,1.13-.205,2.877-1.572,1.794-1.069-.847-2.925-.942-3.132-.236-.2.667-.4.545-1.138.11-1.15-.677-1.16-.8-.2-4.53,1.825-7.07,1.646-9.667-.773-11.815a6.548,6.548,0,0,0-7.816-.561V1187.1c4.5-1.812,7.781-4.9,10.423-9.914h.515c2.63,5.735,6.882,9.939,14.882,12.961,3.125,3.107-3.962-8.925-1.7-4a19.631,19.631,0,0,1-10.111-8.962h1.158a21.773,21.773,0,0,0,8.088,7.332c1.916.012-2.823-5.846-3.51-7.332H2828.9c-1.17,9.043-2.818,18.719,3.667,36.33-3.042-1.608-15.235,1.818-13.089,2.5,1.077-1.252,8.848-3.1,14.6-1.734-.475-.414-8.768-19.832-3.944-37.091Zm3.945,37.09c.01.01.02.014.023,0Zm-28.488,34.9.034,1.417.293-.07-.17-1.378Zm-33.289-71.986h1.618a4.075,4.075,0,0,1-1.664,1.827Zm2.783,0h1.742a13.1,13.1,0,0,1-4.541,4.606l.031-1.7a22.916,22.916,0,0,0,2.768-2.9Zm2.88,0h1.607c-2.181,3.374-4.42,5.724-7.286,7.158v-1.379A24.825,24.825,0,0,0,2777.957,1177.183Zm2.452,0h1.3a18.331,18.331,0,0,1-9.431,8.977v-1.03A19.68,19.68,0,0,0,2780.409,1177.183Zm3.553,0h1.561a21.933,21.933,0,0,0,11.475,10.2l.746,1.739c-6.44-2.329-10.7-5.81-13.782-11.939Zm4.517,0h1.115a16.5,16.5,0,0,0,4.252,4.177l1.011,1.97A20.783,20.783,0,0,1,2788.479,1177.183Zm2.034,0h1.245l1.649,2.918c-1.1-.621-1.931-1.97-2.9-2.918Zm-1.431,11.211a6.815,6.815,0,0,0-4.386,1.39c-1.189.975-.314,2.038,1.4,1.238,2.912-1.361,6.258-.747,9.869,1.243,3.041,1.676,1.976-.07-.861-1.936A11.1,11.1,0,0,0,2789.082,1188.394Zm-13.732,2.195c2.45.019,5.256,1.112,5.324,2.559a7.933,7.933,0,0,0-8.023-.627c-.24-.052-.273-.91-.131-1.224A4.8,4.8,0,0,1,2775.35,1190.589Zm14.836.933a4.537,4.537,0,0,0-3.622,1.285c-.334.416-.423.461-.792.4-.72-.121-.68.3.143,1.448a1.564,1.564,0,0,1-.2,1.947c-.613.868-.493.9,1.33,1.781a40.838,40.838,0,0,1,3.779,2.45c.9.514,1.085.062.25-.615-.287-.233-1.136-.843-1.9-1.344-1.293-.847-2.242-1.7-1.214-1.324a6.19,6.19,0,0,0,1.111.3,9.5,9.5,0,0,0,3.767.225,6.453,6.453,0,0,0,2.707-1.444c.219-.1.436.006.969.027,2.036.08,1.587-.522-1.338-2.129-2.9-1.59-5.165-1.88-7.017-1.007-.783.37-1.232.462-1.118.229a1.726,1.726,0,0,1,.688-.732c2.992-1.8,5.4-.309,8.035,1.045,1.132.68,1.438.856,1.572.639.172-.278-1.262-1.3-3.187-2.276a8.9,8.9,0,0,0-3.964-.906Zm-9.567,2.087c.506.2.28.783-.183.6-2.763-1.249-3.318-1.858-6.612-.7-1.088.382-1.519.044-.184-.533C2776.55,1191.748,2778.662,1192.575,2780.619,1193.609Zm-1.894,1.471c-.748,3.828-4.533,2.647-4.106.019l.7,0c.055,2.312,2.356,2.3,2.749.023Zm22.01.008,1.019,2.195a11.28,11.28,0,0,0,7.377,14.753s1.062,1.643.854,1.851C2797.631,1211.133,2798.581,1199.274,2800.735,1195.088Zm-11.7.143.346.019c1.067,2.668,2.617,1.135,2.918.008l.788.019c-.24,2.764-4.4,3.233-4.052-.046Zm-9.523.077c.5-.059.671.7.531.836-.039.039-.953.933-1.065.407a1.022,1.022,0,0,1,.534-1.243Zm-5.762.078a.956.956,0,0,1,.13.008,1.319,1.319,0,0,1,.265,1.316c-.183.192-.925-.07-1.068-.356a.666.666,0,0,1,.673-.968Zm20.037.255c.244.01.915.3.85.627-.017.083-.951.775-1.161.662-.406-.217.155-1.212.234-1.273a.128.128,0,0,1,.077-.016Zm-5.459.12h.015a.712.712,0,0,1,.162,1.119,1.575,1.575,0,0,1-.723-.275C2787.724,1196.2,2788.232,1195.79,2788.325,1195.761Zm14.97,4.847c-.15,3.177.672,6.262,4.118,8.242l-.742-1.363c-.883-.708-2.734-2.73-2.5-5.137Zm-30.94,5.679.388,2.091a47.752,47.752,0,0,0-4.529,9.934l-1.791.658A39.409,39.409,0,0,1,2772.355,1206.287Zm.753,3.256.508,1.8a26.991,26.991,0,0,0-2.526,5.95l-1.98.736A28.869,28.869,0,0,1,2773.108,1209.543Zm6.278.743a.387.387,0,0,0-.088.012c-.021.354-.017,1.333.057,2.946.015.306.313.177,1.154-.256.733-.377.657-.436,1.368-.2a5.225,5.225,0,0,0,3.633.185,2.518,2.518,0,0,1,2.334.229,5.744,5.744,0,0,0,.988.43c.54.2.334-.041-.034-1.51-.415-1.651-.237-1.832-.9-1.4a2.623,2.623,0,0,1-.789.354c-.573.067-1.529-.64-2.1-.416-1.381.545-1.369.4-2.651.085-.641-.158-1.255.235-1.812.346C2780.233,1211.132,2779.829,1210.283,2779.386,1210.286Zm23.5.856c2.333,2.155,4.732,2.893,7.335,3.709-.314,1.071-.942,2.277-1.234,3.677-13.544,7.209-27.155,6.983-39.994.438l6.662-2.563c3.64,6.348,8.306,8.043,13.552,5.966A35.411,35.411,0,0,0,2802.884,1211.142Zm-28.942,1.27.577,1.556-.857,2.346-1.634.666A13.525,13.525,0,0,1,2773.942,1212.412Zm12.241,1.8a13.4,13.4,0,0,1-2.414.3,15.645,15.645,0,0,0-1.642,0c-.608.124.1.4,1.465.789s3.027-.2,3.233-.793c.051-.146-.129-.319-.642-.294Zm-11.283.766.357.79-.611.221Zm36.011.445,1.011,2.319c-1.752,3.818-2.915,14.282,8.781,17.537l.511,1.5c-7.96.157-15.937-10.031-10.3-21.354Zm-26.781.79a5.07,5.07,0,0,0-3.11.891c-.7.554.155.9,1.061.46a4.958,4.958,0,0,1,4.283.2c.88.6,1.338.5.75-.422a3.669,3.669,0,0,0-2.983-1.127Zm51.067,2.606c3.057-.051,3.374,4.355,2.779,4.734a4.233,4.233,0,0,1,1.438-.193c2.24.059,3.408,1.306,3.537,3.12s-1.249,2.846-3.26,2.745c-.746-.038-1.26-.114-1.226.019.373,1.46-.078,3.662-2,4.212a1,1,0,0,0-.542.484c-.144,2.317.511,10.274.511,10.274s3.6-6.1,4.413-7.022c1.586-2.18,2.156-1.974,1.877,1.637-.388,5-1.149,6.159-4,10.4-1.258,1.816-4.237.862-3.967,2.09a4.082,4.082,0,0,0,1.026,1.22,1.612,1.612,0,0,0,1.354.456c1.271-.042,1.766-.3,1.006.81-.6.881-2.712,1.063-2.95,1.521-.553,1.065-.174.83-1.121,1.765-.724.8-.472.392-.142,1.049.518.849.3,2.541-.211,3.682a3.635,3.635,0,0,0-.372,1.592,6.007,6.007,0,0,0,1.529-2.707c.293-1.242.637-1.864.634-1.169,0,.877.149,2.069.935,2.524.621.36.71.719.607,1.161-.107.458.378.861.857,1.243.113.113.49.262.45.5-.128.764.18,1.661.732,1.807.246.123,1.815-.011,2.074-.9-.025-.283,0-1.45-.626-1.517-.441-.205-.4-.327.273-.728a8.814,8.814,0,0,1,2.218-1.123,2.646,2.646,0,0,0,1.3-.813l.126,47.966a140.541,140.541,0,0,1-20.994,18.168,102.96,102.96,0,0,0-16.2-11.576l-2-1.188.715-.922-3.464-4.6,3.9-3.159.988,1.259-1.845,1.8,2.768,3.081,6.22-6.109-4.1-3.949,2.133-4.022,1.365.674-1.03,2.551,3.118,1.986,3.9-7.8-4.948-2.268,1.253-5.242,1.527.163-.508,3.774,3.856.771,1.569-8.9-5.66-1.019.481-5.075,1.58.019-.231,2.807,4,.573.753-7.758-5.548-.925.715-5.989,1.269.182-.246,3.693,4.071.7c.448-2.505.812-5.65,1.477-8.107l-5.244-1.966,1.856-5.029,1.181.414-1.031,2.725,3.872,1.657,3.264-6.484-4.56-3.248a21.131,21.131,0,0,1,3.5-4.711l.9.785a7,7,0,0,0-.834,1c-.614.856-.807,1.288-.723,1.51a19.82,19.82,0,0,0,3.114,2.315,5.5,5.5,0,0,0,1.665-1.432c.515-.617.786-.676,1.318-.291a2.424,2.424,0,0,1,.37.36.78.78,0,0,1,.192.384.3.3,0,0,1-.039.2,1.9,1.9,0,0,1,.354-.236c.383-.215-.741-1.211-1.661-1.727-2.749-1.554-5.984-4.482-6.731-8.145-.275-1.645,3.949.333,6.858,3.252.441.441,2.08,2.04,2.08,2.04-.239-4.234-.581-8.536-.4-12.822l-.642-.449a3.477,3.477,0,0,1-1.326-2.7c-.056-.715.553-1.081-.838-1.034-2.9.026-4.571-2.718-2.814-5.063.627-.878,3.3-1.307,3.294-1.286a3.426,3.426,0,0,1,2.876-4.452Zm-1.054,32.623,3.833-27.889-.08.027A.157.157,0,0,0,2837.976,1223.557Zm-96.389,9.164c8.085,6.853,13.244,11.465,29.7,16.627l.408,2.454c-9.462-2.2-19.785-6.653-32.056-17.723Zm-2.433,1.583a83.775,83.775,0,0,0,15.678,11.552l1.864,1.13-.961.991,3.126,4.537-4.021,3.3-.958-.96,2.1-2.072-2.987-2.957-6.085,6.2,4.171,3.724-2.418,3.743-.877-.4,1.284-2.61-3.875-2.129-4.333,8.018,5.517,2.528-1.246,4.92-1.287-.066.434-3.856-4.148-.739-1.4,9.008,5.336.844-.127,5.188-1.422-.023.1-2.931-4.214-.2-.376,7.56,5.186.678-.515,6.136-1.276-.329.142-3.984-3.952-.391-1.361,8.471,5.332,1.533-1.884,5.28-1.157-.639.757-2.725c-.972-.427-3.706-1.572-3.706-1.572l-3.483,6.578,4.517,3.1-2.779,4.916-1.073-.724,1.918-2.868-3.752-2.374-2.138,2.939a40.371,40.371,0,0,1-3.16-2.633,1.9,1.9,0,0,0-2.026-.5c-.675.16-1.325.283-1.176.043a37.641,37.641,0,0,1,3.314-2.238c.547-.35.979-.655.972-.968-.008-.233.3-.6.692-.844.438-.266.34-.514.27-.79a8.92,8.92,0,0,1,.6-5.338c.5-1.039.65-1.226.327-1.227-.953.123-2.115,3.6-2.337,4.579a10.64,10.64,0,0,1-.246-1.347c-.122-.637-.211-1.032-.719-1.153-.608-.146-.415-.439-.477-.9a1.707,1.707,0,0,0-1.084-1.482c-.61-.254-.676-.357-.65-.968a2.532,2.532,0,0,0-.869-1.553l-2.114.751a1.6,1.6,0,0,0,.4,1.557c1.062,1.006-.492,1.02-1.557,1.676-.288.188-.632.595-.865.461-.676-.223-.624,1.811-1.288,1.556l.161-48.79c5.666-5.907,22.175-18.226,22.175-18.226Zm85.632,8.629.815.91a51.85,51.85,0,0,0-6.382,9.415,38.373,38.373,0,0,0-3.994,12.067c-.6,2.872-.7,5.8-1.069,8.733-.38,3.162-.452,7.419-1.053,10.759-1.11,9.156-3.664,14.029-9.215,19.224-2.441,2.284-10.031,6.6-10.238,6.554l-1.8-.449c15.566-8.023,19.457-13.557,21.141-32.549.329-23.829,11.093-33.059,11.795-34.664Zm1.53,1.595.834.809-4.544,6.461,4.479,3.179-1.776,4.177-1.357-.507.965-2.85-3.768-1.6-3.045,8.3,5.367,1.7-.884,5.408-1.084-.294v-3.686l-3.983-.816-1.157,9.271,5.866.821-.43,4.785-1.388-.1-.053-2.849-4.072-.217-.93,8.037,5.778.987-1.046,5.71-1.23-.294.277-3.767-3.875-.515-2.241,7.712,4.867,2.47-2.4,4.944-1.027-.721,1.326-2.922-3.786-1.882-3.657,6.38,3.968,3.929-3.875,4.089-.865-1.115,2-2.168-2.987-2.977-6.213,4.974,3.172,4.208-.373.531-3.276-1.324-1.568-2.087-1.876.829-1.481-.569c9.176-4.845,15.147-10.463,17.612-18.935,1.354-4.684,1.756-9.8,2.2-14.947.228-2.676.465-5.363.85-8.006a40.212,40.212,0,0,1,2.849-12.1,47.631,47.631,0,0,1,7.834-12.466Zm-49.379,3.194,6.3,3.345-.093,2.222-5.824-2.939Zm1.773.062,4.49.619.019,1.823Zm-20.241.058,2.621,1.188,2.222,2.582,1.665-1.1,1.807.681c-5.709,2.955-10.775,6.49-14.721,12.59-4.4,6.8-4.885,15.7-5.447,24.284-.938,11.848-2.956,20.17-10.776,29.774l-1.154-.731,4.222-6.752-4.76-3.1,2.168-3.991,1.1.379-.849,2.381,3.936,2.091,3.018-8.509-5.551-1.743.93-5.323,1.4.124-.369,3.814,3.967.631,1.138-9-5.347-.825.119-4.754,1.311.128-.008,2.892,4.217.228.327-8.207L2740.4,1277l.646-5.795,1.468.151-.338,3.477,4.037.58,1.914-7.5-5.243-2.385,2.829-5.068,1.273.589-1.3,2.806,3.637,1.785,3.814-5.869-4.052-3.917,3.979-4.193.977.964-2.161,2.5,2.995,2.787,5.928-5.009-2.9-4.383Zm37.71.278-.185,2.1-6.316,3.612v-2.06Zm33.9.074,1.4.871-1.011,1.208-1.219-.774Zm-36.557.3-3.783,2.2V1248.5Zm44.611,2.052a.991.991,0,0,1,.519.139.72.72,0,0,1-.1,1.169c-.56.395-2.093.368-2.245-.038-.219-.586.974-1.29,1.83-1.27Zm-60.378.867,5.429,2.95-.019,2.079-5.225-2.892Zm17.685.066-.319,2.71-5.59,2.985-.046-2.35Zm-27.057.05,2.225.569c-8.24,3.7-16.384,9.072-19.553,18.439a43.374,43.374,0,0,0-2.09,9.919c-.205,4.213-.744,8.359-.942,11.872-.4,7.154-2.741,16.842-10.819,27.135l-.773-.612a46.052,46.052,0,0,0,9.123-17.614c2.522-9.373,1.272-19.716,3.96-29.151a31.855,31.855,0,0,1,10.145-15.311,56.07,56.07,0,0,1,8.724-5.246Zm3.74.786c.025,0,.035,0,.039.008,2,6.782,4.471,19.144,4.471,19.144-5.292-2.578-14.1-2.106-14.1-2.106s-4.956-6.439-5.916-6.969c3.963-5.383,14.752-10.039,15.508-10.077Zm68.14,1.069c1.219-.04,1.131,1.825-.412,3.093-.787.647-1.152.556-1.733.038a1.282,1.282,0,0,0-1.031-.352c-.864,0,.844-1.8,2.365-2.547a2.025,2.025,0,0,1,.811-.232ZM2778.4,1254.9l4.84,2.5.046,2.059-4.478-2.446Zm16.408.279-.262,2.265-5.04,2.64.027-2.087Zm47.164.844a.472.472,0,0,1,.419.186c.687.77-.619,3.1-2.1,3.8a1.086,1.086,0,0,1-1.392-.186c-.23-.2-.57-.461-.765-.441-.847.088-.38-.869.3-.925a13.993,13.993,0,0,0,2.272-1.661,2.911,2.911,0,0,1,1.261-.778Zm-5.121.91c1.07-.027,1.459.87.192,1.262-.9.278-1.405.08-1.4-.531.19-.627.736-.7,1.211-.731Zm-57.786,1.211,4.294,2.168.019,2.222-3.944-2.071Zm15.366.306-.3,2.1-4.625,2.393.012-1.739Zm48.475.883c.293.018.379.346.377.929a2.594,2.594,0,0,1-1.592,2.292c-.7.319-1.19.294-1.537-.082a.968.968,0,0,0-.492-.313c-1.494-.06-1.254-.448.177-1.049a14.438,14.438,0,0,0,1.96-1.239,2.158,2.158,0,0,1,1.107-.538Zm-5.482.685c.733,0,1.378.523.973.859a2.138,2.138,0,0,1-1.73.151C2836.219,1260.578,2836.613,1260.014,2837.419,1260.017Zm-57.648,1.494,3.66,1.986-.019,2.114-3.5-1.99Zm14.04.163-.085,2.164-4.2,2.087-.027-2.064Zm45.211.9c.711.052.621.745.046,1.081a.87.87,0,0,1-1.211-.209C2837.346,1262.465,2838.507,1262.583,2839.022,1262.571Zm1.426,2.221a.685.685,0,0,1-.181.8c-.311.132-1.12-.006-1.245-.243-.1-.2-.079-.3.119-.5C2839.472,1264.591,2840.216,1264.394,2840.448,1264.792Zm-60.147.041,3.126,1.719-.019,2.075-2.872-1.68Zm13,.054-.154,2-3.637,1.815.05-1.947Zm-38.076,1.258c.78.009,1.381.533.923,1.425-.287.557-.5.763-1.75,1.649-.508.362-.95.693-.984.736s-.359.269-.573.418c-1.117.779-.729-.848.665-3.244A1.982,1.982,0,0,1,2755.224,1266.145Zm37.8,1.781-.288,2.2-3.253,1.672v-2.117Zm-12.229.2,2.629,1.313.039,2.141-2.388-1.263Zm31.59.167a.233.233,0,0,1,.211.1,4.274,4.274,0,0,1,.039,2.358c-.368.873-1.084-1.33-1-1.889a1.212,1.212,0,0,1,.754-.569Zm-55.28.4c1.064-.02,1.832.711,1.473,1.8-.415,1.047-2.816,1.7-3.9,2.427-.708.354-.879-.03-.661-.646.1-.285.179-.509-.361-.589-1.312-.194-.513-.836,1.891-2.458a2.922,2.922,0,0,1,1.557-.53Zm52.739.685a1.893,1.893,0,0,1,1.322.743c.826.9,1.423,2.8.973,3.3-.345-.038-.516.474-.534.682-.052.6-1.138-.495-2.165-2.219-.827-1.388-.426-2.495.4-2.5Zm-44.293.321c3.242-.022,9.432.652,18,6.051a38.6,38.6,0,0,0,3.422,2.063,31.407,31.407,0,0,0,10.123,3.748l-.12,2.183c-.037.689,1.091,4.679.573,6.922-.768-.015.742.662.742.662l.984,2.029a58.162,58.162,0,0,1-7.481-.508c-3.766-.616-10.64-3.831-13.963-6.36A34.371,34.371,0,0,0,2764.7,1281l-.061-1.877a69.265,69.265,0,0,0-.8-7.309l-.823-2.033c.2.082,1.064-.071,2.538-.081Zm27.046,1.409-.249,2.156-2.853,1.348v-1.847Zm14.217.1c.8,0,2.008.943,3.387,2.822a3.212,3.212,0,0,1,.6,1.045.27.27,0,0,1-.331.341c-.544-.1-.743-.3-.9.383-.038.169.059.473-.127.418-.969-.286-3.738-3.1-3.568-4,.128-.675.459-1.011.938-1.01Zm-25.4.143,2.08,1.115.092,2.126-1.849-.8Zm-22.352.647a1.154,1.154,0,0,1,1.238.731c.489,1.2-.377,1.927-2.949,2.47-2.234.535-2.188.568-1.876-.267.207-.554-.483-.616-.869-.762-.652-.249-.118-.326,1.757-1.266A7.137,7.137,0,0,1,2759.057,1272Zm-7.435.569c.063-.006.139.055.25.193a8.623,8.623,0,0,1-1.7,12.59c-.467.311-.483.023-.43-.6l.081-1.177c.02-.234,4.723-3.141,1.245-9.609l.292-.913c.093-.291.156-.479.262-.488Zm53.073,1.231c1.283.005,4.882,3.293,3.349,3.41-.181.014-.119.25-.12.4a2.209,2.209,0,0,1-.049.542c-.111.287-.53.231-1.177-.155a11.732,11.732,0,0,1-2.575-1.827c-1.115-1.062-.8-2.374.573-2.369Zm-12.675.565-.023,1.773-2.565,1.251.016-1.6Zm-32.5,1.274c1.726-.06,2.7,1.671.973,2.582-.689.364-2.958.109-4.014.015-1.191-.1-.487-.461-.423-.569.164-.271.291-.312-.33-.685-.494-.523-.776-.651.457-.813a22.027,22.027,0,0,0,2.557-.387A2.808,2.808,0,0,1,2759.522,1275.638Zm52.535.422c.127-.006.113.206.062.758l-.085,1.185c-.786.126-4.691,5.015-1.518,10.7l-.266,1.011c-.121.5-.161.572-.572.263-2.378-1.655-3.149-10.078,1.776-13.561A2.157,2.157,0,0,1,2812.057,1276.06Zm-9.273.987a4.263,4.263,0,0,1,1.665.433,8.394,8.394,0,0,1,2.73,1.611c.143.227-.082.415-.385.5-.366.106-.411.261-.311.693,0,.251.063.529-.25.546a7.859,7.859,0,0,1-3.18-1.088C2800.845,1278.549,2801.145,1277.017,2802.784,1277.047Zm-11.218.027v2.156l-2.107-.979Zm-35.315,1.854a7.616,7.616,0,0,1,.907.109,11.473,11.473,0,0,0,1.592.143c2.4-.042,3.4,1.641,1.414,2.5-.541.234-.767.209-2.249-.225-.709-.207-1.579-.425-1.933-.526-.714-.2-.961-.43-.489-.592.44-.151.478-.458.2-.864-.066-.406.062-.555.554-.542Zm55.795,0c-.34,3.34-.618,5.942-1.119,9.21C2810.562,1287.993,2807.97,1281.835,2812.046,1278.928Zm-10.1,1.6a11.079,11.079,0,0,1,3.384.825c1.121.415,1.262.526.488.859-.468.2-.411.381-.273.689.213.231.617.693-.019.6a21.82,21.82,0,0,1-3.341-.162c-1.809-.32-2.3-1.963-.819-2.726A1.314,1.314,0,0,1,2801.942,1280.527Zm-46.491.844a4.69,4.69,0,0,1,1.03.267c3.25,1.033,4.567,2.283,2.976,3.5-.462.352-1.178.2-2.53-.557a12.744,12.744,0,0,1-2.333-1.479c-.256-.274-.117-.588.276-.562.54.036.459-.236.416-.693C2755.255,1281.524,2755.236,1281.372,2755.451,1281.371Zm8.766.3,2.491.569-6.221,27.393a22.447,22.447,0,0,0-4.84,1.692l4.3-.747-.373,1.959-3.906.739-.088.585,4.475-.813s-.16,1.87-.315,2.594c4.27-.347,8.488-1.542,12.783-1.576,0,0,.1-21.619.088-23.975-.017-2.546,0-5.59,0-5.59l4.306,2.447.711,27.246,13.486,2.206c-.093-.459-.461-2.565-.461-2.565,10,2.968,20.137,7.357,29.111,16.427-4.176,2.275-8.123,4.531-12.18,6.718l-.588.852a150.257,150.257,0,0,0,37.167-26.019v72.252h-53.748v-6.73l.03-6.024c-.219-3.863.449-8.117-.726-11.359l-.231-3.4c3.332-3.9,5.131-8.82,6.72-13.847,0,0,1.6-.625,2.384-.9l.269-.987c-1.549.8-5.106,2.133-5.106,2.133.383-.3-7.561-3.669-12.467-4.46a48.7,48.7,0,0,0-27.669,4.374c-.425.3-.607.3-.5-.1a13.76,13.76,0,0,0-9.684-16.941,11.427,11.427,0,0,0-2.876-.453l.135.647c12.18,1.381,15.037,14.342,10.348,20.363-1.229,1.986-1.416,2.565,1.164,2.5,10.429-.085,14.054,11.649,9.3,18.142a7.261,7.261,0,0,1,.384.755,13.034,13.034,0,0,0-1.5-16.685c3.883-4.36,11.338-11.337,17.785-10.929,2.346.149,4.662,3.009,6.2,5.292,3.266,4.835,4.106,11.585,4.337,15.435.057,1.009.191,1.742.192,2.273.008,1.541-.287,1.356-1.276,1.1a8.438,8.438,0,0,0-4.2.05c-2.022.621-1.7.267.1-1.978,1.061-1.324,1.2-1.732.765-1.819-.134-.027-.584.427-1.173,1.339-1.775,2.75-1.636,1.621-.354-2.667.834-2.788.75-2.983-1.522-4.715a18.769,18.769,0,0,1-1.757-1.3c-.428-.915-.607.233-.223.987.375.737-.419,1.074-1.815.314-3.284-1.832-5.423,1.877-2.491,3.484.691.379,1.077.068.542-.43-1.8-1.679-.549-3.094,1.891-1.606,1.411.859,1.947.584,2.419-.492.261-.439,2.451,1.141,2.449,1.754a14.367,14.367,0,0,1-.5,2.551,44.55,44.55,0,0,0-1.2,4.765c-.55,2.86-.536,4.326.054,5.583a5.964,5.964,0,0,0,7.535,3.012,8.271,8.271,0,0,1,1.222-.3l.035,2.067c-5.691,2.17-9.8,8.944-9.615,9.175l-2.03,0a24.081,24.081,0,0,0-13.46-11.684c-1.177-1.03.294,2.75,1.646,3.585,2.862,1.465,6.649,4.063,8.738,8.095l-1.437.023a23.643,23.643,0,0,0-6.179-6.093c-.506-.108.37,4.88,2.438,6.418l-37.1.651c2.532-9.975,3.019-21.042-2.914-35.55a28.1,28.1,0,0,0,13.279-2.517l-.361-1.033a26.833,26.833,0,0,1-14.555,2.106c3.795,7.074,7.115,21.766,3.883,36.024h-14.058v-77.521a10.037,10.037,0,0,1,.952.658,3.661,3.661,0,0,1,.838,1.545c.155.6.32.634,1.169,1.274.407.307.642.577.642.735a1.551,1.551,0,0,0,.246,1.057c.747.91.615,1.5.053,2.083-2.61,2.735-4.245,8.482-2.925,14.544,3.1-2.1,6.284-7.586,6.385-7.595l.3,7.495a3.223,3.223,0,0,0-2.187,2.539,5.269,5.269,0,0,1-2.768-.429l.625,2.207a3.608,3.608,0,0,0,.334,6.9s-.336,1.712-.625,2.631l2.391-.367c1.389,4.177,6.722,2.84,6.7-.074,0,0,1.623.613,2.239.886l-.6-2.847c6.064-3.047,1.528-7.035.143-6.978.019-.8.382-1.047.714-1.974l-2.449.154a4.394,4.394,0,0,0-2.156-2.512l-.339-10.727a31.265,31.265,0,0,0,6.128,4.587c2.266,1.194,2.5.928,2.161-1.134a9.407,9.407,0,0,1-.138-1.541c.849.2,2.994,3.007,2.891,4.39.783,1.029,1.493-1.739-.527-4.1a44.036,44.036,0,0,0,10.349-21.474l7.151-2.865.081-.936c4.871-3.283,7.412-7.848,8.75-13.012Zm5.951,1.676,1.645.74-1.868.933Zm-15.855.453a9.882,9.882,0,0,1,1.457.953c1.4,1.032,2.215,1.743,2.242,2.369a1.069,1.069,0,0,1-.565.9c-.845.451-1.653.082-3.48-1.8a14.564,14.564,0,0,1-1.164-1.2c-.21-.315-.056-.612.292-.484,1.482.674.2-1.2,1.218-.732Zm50.39.387a4.32,4.32,0,0,1,.7.039c.4.08.51.306.265.527-.38.341-.272.686.112.871.263.126.156.393-.162.576a4.453,4.453,0,0,1-.857.345c-2.245.707-3.9.5-4.333-.557-.5-1.211.455-1.8,3.2-1.8.407,0,.775-.005,1.08,0Zm-32.69.72-.019,1.623-2.329,1.126.253-1.645Zm-19.8.508c.205.012.54.328,1.027.929,2.247,2.771,2.55,3.306,1.815,4.041-.873.872-2.1.029-3.414-2.4a7.623,7.623,0,0,0-.523-.9c-.484-.57-.271-.748.342-.7.336.026.495-.093.5-.441.009-.368.091-.54.25-.53Zm53.854,1.4c.409,0,.378.141.2.619-.141.425-.371.562.223.829.1.048.317.32.119.437a24.562,24.562,0,0,1-3.322,1.533c-1.473.493-2.379-.716-1.514-1.916.362-.5,2.853-1.414,4.094-1.494.078-.005.145-.008.2-.008Zm-55.03,1.607c1.493,2.242,1.68,3.29.7,3.944-.623.478-1.95-.208-2.253-1.657a5.825,5.825,0,0,1,.02-3.189c.543-1.395,1.382.67,1.537.9Zm20.968-.93.012,1.754-2.834,1.433.262-1.932Zm5.774.07,2.664,1.738.154,1.495-2.753-1.526Zm29.722,1.727c.07,0,.108.033.107.116,0,.206-.052.94.346,1.006.784.131.606.377-.08.972a12.984,12.984,0,0,1-2.319,1.932c-2.31.86-3.036-1.6-.849-2.876a9,9,0,0,1,1.949-.891A6.208,6.208,0,0,1,2807.5,1289.292Zm-29.649.9,3.087,1.831.108,1.843-3.068-1.572Zm-5.955.17.011,1.6-3.014,1.738.25-1.792Zm12.475,1.309c.854.4,11.809,3.465,15.436,2.419,0,0,3.1,4.507,5.4,6.121-3.555,5.254-15.6,10.406-15.6,10.406Zm24.659.112c.2-.007.247.193.246.569-.049,1.09-1.827,5.1-3.245,3.047-.389-.766.008-1.559,1.25-2.505.985-.75,1.493-1.1,1.749-1.111Zm-59.646.633c.27.3.148,1.21-.435,1.15-.168-.018-.191-.945-.08-1.448C2749.034,1292.037,2749.288,1292.32,2749.382,1292.418Zm22.551.509-.02,2.036-3.575,1.959.385-2.265Zm5.912.286,3.541,1.9.415,2.249-3.925-2.048Zm-5.92,2.768v2.052l-4.017,2.075.273-2.025Zm5.99.178,3.959,2.269.519,2.137-4.421-2.3Zm-56.13.066a.619.619,0,0,1,.392,1.131c-.323.3-1.241.241-1.322,0C2720.44,1296.953,2721.009,1296.236,2721.785,1296.225ZM2723,1298.4a.876.876,0,0,1,.266.019.832.832,0,0,1,.472,1.189c-.528.716-1.922.219-1.718-.685C2722.069,1298.68,2722.581,1298.426,2723,1298.4Zm48.86.685v1.835l-4.372,2.323.277-2.052Zm6.182.256,4.509,2.439.346,2.055-4.848-2.539Zm-57.183.054a.479.479,0,0,1,.484.213,1.5,1.5,0,0,0,.5.705c.584.341.645.412-.465.9a15.388,15.388,0,0,0-1.707,1.053c-.982.665-1.381.442-1.453-.345-.091-.992,1.7-2.475,2.645-2.528Zm3.383,1.5a1.009,1.009,0,0,1,.608.136.594.594,0,0,1,.034,1c-.826.532-2.117-.2-1.43-.832a1.309,1.309,0,0,1,.788-.306Zm47.61.995.023,2.381-4.874,2.59.323-2.416Zm-50.02.279a1.335,1.335,0,0,1,.892.255,1.169,1.169,0,0,0,.838.488c.836.033.57.34-.308.743a10.652,10.652,0,0,0-2.929,2.075c-.906.847-.972,1.029-1.269.682-1.106-1.291,1.05-4.145,2.776-4.243Zm56.283.027,5.109,2.814.438,2.377-5.547-3.108Zm-52.927,1.676a.823.823,0,0,1,.553.17c.363.3.154.875-.349,1.135a1.427,1.427,0,0,1-1.334-.078c-.483-.49.392-1.21,1.13-1.227Zm-2.468,1.2c.311-.03.593.37.845.8.089.108.438.059.688.062.957.008,1.09.415.162.933a18.147,18.147,0,0,0-1.757,1.347c-1.6,1.542-2.473,1.181-2.268-.4a3.28,3.28,0,0,1,2.33-2.745Zm55.4.147,5.636,3.113.55,2.559-6.186-3.356Zm-6.22.047-.024,2.358-5.3,2.826.411-2.393Zm6.3,3,6.313,3.848.231,2.505-6.544-3.794Zm-6.308.418.011,2.312-5.867,3,.3-2.184Zm-47.626,1.529a.935.935,0,0,1,.408.074c.687.319.507.869-.527,1.436-1.054.579-1.415.479-1.642-.17C2722.31,1311,2723.452,1310.228,2724.261,1310.208Zm65.914.314c10.976,2.53,21.722,8,32.155,17.552l-2.18,1.553s-9.143-10.5-29.46-16.654Zm-11.914,1.1,3.045,1.807.008.461-3.053-.251Zm-51.874.019a6.117,6.117,0,0,1,1.523.67c4.369,3.176,6.119,5.092,7.2,8.574.65,2.087.638,2-1.5.868a21.021,21.021,0,0,1-6.543-5.165,99.111,99.111,0,0,0,.334,12.172c2.73,1.354,1.846,4.88,1.839,4.859,7.024-1.93,5.484,7.4.251,5.391,1.247,7-6.715,6.433-5.9.431-6.338-.247-5.217-7.2.044-6.241a3.533,3.533,0,0,1,2.147-4.522l-.3-9.167s-5.165,7.465-6.028,7.348c-.506-.069-1.269-.926.015-7.472.669-3.408,4.258-7.558,6.267-7.692.355-.024.5-.061.642-.054Zm5.052.07.926.638-.872,1.568-.965-.7Zm40.417.449-.031,1.374-2.844.17Zm-29.749,16.453c6.7,1.044,10.791,9.29,7.693,15.26-.375.269.2,1.568.581,1.08,3.265-4.661.834-16.116-8.693-17.208-1.935-.237-.179.349.419.868Zm1.085,2.195c-.538,1.485-.68,1.841.7,1.235,2.437.908,5.067,4.9,4.225,8.915-.27.468.2-.305.523,1.014C2749.842,1339.035,2748.639,1332.7,2743.192,1330.808Zm30.944,7.475a38.223,38.223,0,0,1,19.03,4.611c-1.834,1.026-7.685,2.458-7.685,2.458-3.289-3.716-4.965-7.431-10.911-5.532-6.227,1.619-11.835,7.046-14.991,10.647a14.334,14.334,0,0,0-7.684-2.517c-.162-.005-.4.714-.2-.445a21.29,21.29,0,0,0,1.891-4.081A42.36,42.36,0,0,1,2774.136,1338.283Zm21.3,4.77a38.766,38.766,0,0,1-6.116,12.682l-.369-1.928a44.478,44.478,0,0,0,4.744-10.031Zm-2.653,1.153c.176.283-2.725,7.243-4.155,8.509l-.562-1.8a38.8,38.8,0,0,0,2.845-6.1Zm-17.692.008c-.09.009-.122.089-.123.263,0,.639.659,1.142,1.865,1.417,1.628.372,3.91-.2,3.913-.971,0-.449-.316-.481-1.249-.047-1.17.545-2.2.438-3.729-.375a1.844,1.844,0,0,0-.677-.287Zm14.5,1.111a13.557,13.557,0,0,1-1.983,4.216l-.277-.886a31.514,31.514,0,0,0,1.488-3.144Zm-1.7.546a4.974,4.974,0,0,1-.965,1.789l-.653-1.394Zm-10.31,1.292c-1.1.021-2.2.379-2.291.969-.045.283.379.174,2.431-.078,1.083-.133,1.6.513,2.593.446.5-.061.032-.531-.125-.667A4.241,4.241,0,0,0,2777.585,1347.163Zm-4.71,1.286c-.111.023.013.307.426,1.03a5.035,5.035,0,0,1,.324,1.684c-.054,1.231-.05,1.192.553.48.38-.379,1.118-.295,2.288.023.753.206.934.279,1.458-.051.606-.383.749-.19,1.271-.084a3.261,3.261,0,0,0,1.515-.256,2.006,2.006,0,0,1,1.391,0c.9.428.768.39.842-1.142.076-1.508-.008-1.615-.872-1.107a2.669,2.669,0,0,1-2.707.263,2.983,2.983,0,0,0-2.6-.065c-1.2.365-1.751.489-2.71-.1a5.016,5.016,0,0,0-1.18-.674Zm-19.619,2.277.538.882c4.854,1.749,8.142,5.744,6.2,12.478l.461.743c2.429-6.785-.344-12.394-7.2-14.1Zm1.5,2.872.661,1.367c3.652,1.776,3.434,6.669,3.229,6.476l.573,1.274c.913-3.166-.751-7.841-4.464-9.117Zm15.254,7.3a.263.263,0,0,0-.276.151c-.094.243.188.389,1.856,1.552,1.433,1,2.542,1.739,2.457,1.881a4.766,4.766,0,0,1-1.584-.313,7.254,7.254,0,0,0-5.505,1.08c-.35.237-.932-.022-1.438-.155a2.183,2.183,0,0,0-.869-.054c-1.043.275-.034,1.277,2.518,2.578,3.132,1.6,4.826,1.742,6.728.774,1.263-.657,1.716-.169.335.581-2.413,1.311-4.723.906-8.535-1.734-1.766-1.223-2.471-1.019-.954.147,2.664,2.1,7.791,4.654,10.938,1.529a2.151,2.151,0,0,1,.546-.023c.654,0,.682-.2,0-1.293-.411-.656-1.243-1.346-.231-2.149.768-.608.712-.9-.215-1.177-.245-.068-.22.094-.588-.2-2.228-1.808-4.407-3.174-5.183-3.17Zm.965,3.573a2.414,2.414,0,0,1,2.172,2.056,3.592,3.592,0,0,1,.066.36l-.8.03c-.66-2.658-2.65-1.777-2.848-.221l-.718-.1c.264-1.482,1.19-2.155,2.126-2.129Zm16.5,2.268-.531.079c-.347-.978-1.919-2.293-2.668.092l-.669-.027c.466-3.232,3.379-2.73,3.868-.144Zm-4.068-1.342c.217.31-.164.833-.385,1.072s-.682.035-.879-.19a.6.6,0,0,1,.242-.813c.3-.153.8-.291,1.022-.069Zm-9.326.1c.222.5-.4.876-.479.706a1.505,1.505,0,0,1-.222-.928c.206-.007.616.061.7.222Zm14.02-.081a.767.767,0,0,1,.769.569.639.639,0,0,1-.619.542.922.922,0,0,1-.6-1C2787.778,1365.314,2787.915,1365.393,2788.11,1365.41Zm-19.491.158c.118.182-.1.725-.154.8a1.879,1.879,0,0,1-.726-.047,1.5,1.5,0,0,1,.107-.758c.2-.128.63-.2.773.008Zm13,1.75a.719.719,0,0,1,.35.128c2,1.312,4.577,1.9,6.432.96.414-.209.685-.2.684,0,0,.221-.46.674-1.315.933-1.911.577-5.065-.185-6.155-1.363-.321-.346-.274-.669,0-.662Zm-17.558,1.374c-.191-.005-.253.109-.215.341.127.782,5.481,3.876,7.719,4.293a6.21,6.21,0,0,0,4.391-.468c2.73-1.6,2.03-3.757-.642-2.129-1.795,1.093-6.344.59-9.05-.984a7.362,7.362,0,0,0-2.2-1.053Zm24.123,1.132c.677-.286.968-.386,1.116-.261.688.58-.439,1.484-2.5,1.837a4.818,4.818,0,0,1-4.511-1.073c-1.454-1.083-.769-1.608.065-1.116a6.068,6.068,0,0,0,5.826.613Zm-23.646,3.382c4.737,1.709,10.125,5.828,12.518,10.832l-1.461-.011a23.081,23.081,0,0,0-10.15-9.036,3.5,3.5,0,0,1-.907-1.785Zm24.878,2.342v1.564a17.5,17.5,0,0,0-7.232,6.926l-1.657-.023a19.669,19.669,0,0,1,8.889-8.466Zm0,2.385v1.92a13.606,13.606,0,0,0-4.479,4.185h-1.961a15.045,15.045,0,0,1,6.44-6.1Zm-21.687,1.475a14.425,14.425,0,0,1,4.594,4.669l-.753.035a26.309,26.309,0,0,0-3-3.008,4.429,4.429,0,0,1-.846-1.7Zm21.687,1.231c.023,0,.024.015,0,.047v1.525a11.086,11.086,0,0,0-2,1.827h-1.592a8.854,8.854,0,0,1,3.595-3.4Zm0,2.536v.863l-1,0a3.545,3.545,0,0,1,1-.867Zm-19.507.217a1.728,1.728,0,0,1,.53.724l-.269.029Z" fill="#131f67"/>
      <path id="path3052-2-5-5" d="M2729.421,1349.611c3.294.09,10.247-1.149,10.136-1.023,0,0,21.572,36.091,20.694,35.733-.28.448-27.634.432-27.634.432C2732.024,1384.76,2738.421,1371.38,2729.421,1349.611Zm9.782-25.427c10.511-8.77,21.522-8.835,33.345-10.041l.271-29.806,4.279,2.579.091,27.309a68.079,68.079,0,0,1,40.64,17.008c.145.219-16.736,9.308-24.13,11.713-5.74-4.243-20.883-6.917-30.926-3.656-2.758.9-6.145,2.33-9.44,3.39,2.387-14.389-8.771-16.513-12.7-17.177C2740.145,1325.42,2739.559,1324.355,2739.2,1324.184Zm-13.493,4.652a69.947,69.947,0,0,0-.242-9.269c-.06-.715-6.147,9.327-6.487,6.891-.852-6.1,2.156-13.851,6.88-14.8.471-.642,9.83,5.191,9.4,10.232-.139,1.642-8.349-5.547-8.382-5.117-.193.84.241,12.089.5,12.067,2.364,1.339,1.849,3.059,2.107,4.485,6.335-.94,5.989,6.135.01,5.914.369,8.359-7.34,4.582-5.822.13-7.764-.368-3.94-7.671-.074-6.066-.233-1.843.219-3.765,2.112-4.466Zm8.908-35.465c-.447-.178-16.564-1.009-16.564-1.009l.843-39.516c8.228-19.021,39.193-10.126,34.267-6.079C2738.367,1256.527,2736.114,1274.326,2734.618,1293.371Zm29.724-16.233-.492-4.388c-1.264-2.726,32.949,13.183,33.336,13.523l.995,4.682C2798.379,1293.011,2776.419,1282.62,2764.342,1277.138Zm62.281-7.785c-2.553,19.692-2.409,39.505-16.9,46.357,10.9,10.626,20.008,2.439,33.728-4.449.373,0-.455-42.167-.686-42.138C2837.332,1269.412,2831.966,1269.535,2826.623,1269.353Zm7.548-19.221c-2.695-.414-8.967-6.961-7.666-8.941.04-1.486,7.8,4.2,8.61,5.735-.4-.456-.454-13.9-.58-13.36-.295.157-2.371-1.339-1.83-4.14-5.951,1.324-5.625-6.46-.423-6.142-.672-7.082,7.921-4.481,5.635.262,7.353-1.364,6.084,6.947.526,5.595.472,3.152-.819,4.023-2.625,4.652.115,1.322.608,10.135.608,10.135s5.437-8.388,5.827-7.665c1.383,2.023-.852,15.92-8.082,13.869Zm-25.2-30.931c-2.454,8.513,4.269,18.24,10.62,18.213,1.277-.2,3.724.492,2.879,1.18-10.019,8.172-33.4,9.868-33.406,9.514.245,10.032-.2,20.164-.44,30.192l-4.285-2.6c-.137-9.148-.361-18.505-.57-27.652-14.981-1.968-28.445-6.832-39.085-17.179,7.065-5.271,15.505-8.563,23.613-11.89,10.207,5.338,24.42,8.422,40.674.219Zm-7.394-40.449c-.47-.208,1.615-1.766,1.615-1.766s17.406.229,26.04.113c-3.146,13-.921,24.643,3.142,35.827-1.078-.254-8.227.33-9.973,1.116C2822.125,1214.325,2801.8,1179.07,2801.581,1178.752Z" fill="#e2cf00"/>
      <path id="path3050-3-4-7" d="M2760.817,1384.271l-21.044-35.77,3.158-1.381,21.7,37.2Zm-37.445-47.823,3.04-3.149,3.048,3.109-3.187,2.981Zm67.517-20.06-.428-2.557a64.992,64.992,0,0,1,29.185,16.1l-1.7,1.251c.53-.145-17.225-13.55-27.058-14.79Zm-34.827-2.331,3.457-.749-.109,2.149-3.354.673Zm70.583-1.887-2.094-1.7,1.507-1.8,2.035,1.615Zm-71.212-17.332c5.2-2.48,9.268-12.487,8.758-13.155l2.836.677-6.551,27.418-4.534,1C2755.919,1305.531,2755.431,1300.082,2755.433,1294.838Zm34.253,15.513c-1.764-5.771-5.238-18.827-5.238-18.827.126.427,11.289,3.622,15.271,2.458a46.414,46.414,0,0,0,5.541,6.289A48.01,48.01,0,0,1,2789.686,1310.351Zm46.791-21.011-1.967-1.715,1.764-2.175,2.16,1.656Zm-25.69-1.147c-1.6-2.9-1.714-6.174,1.259-9.406Zm-61.117-5.049a31.422,31.422,0,0,1,1.02-8.465C2752.412,1277.81,2752.389,1280.955,2749.67,1283.144Zm44.957-2.7s4.323-20.167,6.2-28.07l4.775-1.113-.213,16.332c-4.753,3.9-8.09,13.2-7.938,13.2Zm-69.476-3.354-2.087-1.962,1.766-1.945,1.841,1.9Zm37.389-7.862a57.176,57.176,0,0,0-5.734-6.753c3.552-4.973,9.448-7.853,15.7-10.112l4.23,18.95c-4.782-1.451-9.938-3.022-14.192-2.085Zm-29.3-16.89,1.47-1.841,1.926,1.526-1.464,2.037Zm69.14-5.542,2.979-.669.109,2.323-3.57.663Zm-60.211-14.48,2.271-1.423a67.431,67.431,0,0,0,26.389,15.009l.322,2.687c-10.832-3.362-20.742-8.03-28.982-16.273Zm93.188-2.876-2.954-2.932,2.659-2.977,3.159,2.748A18.713,18.713,0,0,1,2835.353,1229.439Zm-16.365-14.269L2796.88,1177.2l3.194-.027,21.755,36.576Z" fill="#d40000"/>
      <path id="path3048-5-8-9" d="M2796.679,1176.559l-5.282.02,29.983,60.717a6.364,6.364,0,0,1-2.4-.283c-7.2-1.9-11.639-9.562-10.011-17.076a6.384,6.384,0,0,0,.208-1.084c-18.564,8.46-30.057,5.344-40.775-.043l-4.571,1.766c.3-2.78,3.719-13.218,8.827-18.133l-.008-5.265-.123-2.486-.4-4.51c-7.6,7.2-16.467,18.546-17.576,34.652,0,0-6.92,3.579-12.826,7.538.328-.044,9.2,10.924,30.514,17.084l-.938-3.5a91.978,91.978,0,0,0,12.156,2.176l.6,27.49,5.09,3.035.173-30.436a68.136,68.136,0,0,0,12.406-1.313l-.6,2.935,4.237-.84v2.141l-4.645,1.1-6.612,28.45,3.852.863c1.127-5.73,3.975-10.365,8.1-13.209l-.042-1.091c2.646-1.912,8.146-3.431,8.181-3.4,1.876-9.227,6.242-15.621,10.884-21.7l-2.211-3.023,8.477-3.132-11.767-20.158c4.527-3.146,13.5-1.974,13.5-1.974-3.848-10.46-7.23-21.25-3.429-37.084l-32.732.027Zm10.738.656c-.008,2.645-3.439,2.373-3.858-.013Zm21.029-.083c-2.083,12.124-1.392,23.934,3.437,35.155,0,0-.7.041-.792.024-.066-.014.082-.606.046-.763-.1-.422-.79-.224-1.372.17a8.333,8.333,0,0,1-.73.461,17.148,17.148,0,0,1-3.632.278c.99-.675,2.382-2.574,1.574-3.682-.183-.236-.294-.132-.472.187-.862,1.542-1.29,1.784-2.441,1.769-1.807-.022-3.1-1.149-2.953-2.849.141-1.652,2.556-2.524,2.2-.921-.1,1.427,1.309,1.7,1.569.282.1-.532.02-.285.134-.91,2.813-1.5,1.26-4.562-1.365-3.921-.617.164-.694.222-1.13,0-.809-.42-1.482-.288-1.788.3-.269.519.141.934.742.937.624,0,.744.305.742.681,0,.875-1.5,1.3-2.5.786-2.625-1.349-1.652-4.855,1.4-4.843.927,0,1.314.062,1.353-.14.111-.566-1.3-1.545-2.1-1.4-.677.133-1.088.311-.73-.6a3.575,3.575,0,0,0,.027-2.064c-.488-1-.476-.489-.777.326-1,1.676-2.517,2.047-3.821,1.13-1.21-.851-1.173-2.467-.023-3.62.8-.8,1.656-.255,1.176.639a.628.628,0,0,0,.315.922c.722.185,1.169-.243,1.173-1.123-.015-.485-.148-.593.719-1.092a2.091,2.091,0,0,0-1.969-3.685c-.556.249-.686.492-.938.375-1.059-1.008-2.578.267-1.68.941a3.324,3.324,0,0,0,.988.275c.219.126.146.439-.173.832-1.049,1.246-3.432.631-3.994-1.126-.651-2.036,1.415-4.175,3-2.989.468.351.874.388.876-.132a2.05,2.05,0,0,0-2.3-1.645c-1.31.093-1.167.263-.454-.929a2.667,2.667,0,0,0,0-2.722c-.353-.48-.717-.582-.68-.073a2.3,2.3,0,0,1-3.049,2.416,2.73,2.73,0,0,1-1.453-3.7c.655-1.305,2.245-1.44,1.98-.046-.124.889.547,1.357,1.2.832.235-.19.291-.359.307-.933.019-.639-.239-.826.169-1.2,1.073-.143,1.14-2.437.977-2.532l17.227-.081Zm-19.2.078c.68,0,1.245.232,1.245.917a1.232,1.232,0,1,1-2.464,0C2808.024,1177.442,2808.563,1177.21,2809.243,1177.21Zm-12.073.089h2.738l21.627,36.293-2.561,1.254Zm4.5,1.268a9.881,9.881,0,0,0,4.163,1.535,8.931,8.931,0,0,0-1,3.895Zm4.4,7.309c1.335.481,2.493,1.21,4.691.473a8.75,8.75,0,0,0-2.332,3.611Zm11.252,4.384a1.148,1.148,0,1,1-1.142,1.15A1.147,1.147,0,0,1,2817.324,1190.26Zm-7.006,2.865a7.718,7.718,0,0,0,3.1.543,6,6,0,0,0-.779,3.273Zm3.311,5.721a6.088,6.088,0,0,0,3.823.872,6.274,6.274,0,0,0-1.1,3.633Zm10.838,4.212a1.2,1.2,0,1,1-1.2,1.2A1.2,1.2,0,0,1,2824.467,1203.058Zm-6.717,2.7a5.218,5.218,0,0,0,2.449.6,8.238,8.238,0,0,0-.527,2.6Zm3.763,6.182a7.08,7.08,0,0,0,3.2.706,13.691,13.691,0,0,0-2.438.709Zm13.705,6.787c-2.8.182-3.449,2.343-3.117,4.533a3.457,3.457,0,0,0-3.856,4.186c.634,2.362,2.816,2.445,4.321,2.287a3.877,3.877,0,0,0,1.884,4.137l.308,12.266s-1.021-.944-1.687-1.612c-2.91-2.919-7.287-5.033-7.012-3.388.04.242.133.856.2,1.363.463,2.777,4.168,5.779,6.694,7.29a7.683,7.683,0,0,1,1.461,1.049c-4.725,5.086-7.265,10.513-7.9,15.9-.587,5-1.063,9.512-1.53,14.107-1.928,23.05-11.751,28.847-12.218,29.976l-.184,3.073-2.741-.2-3.16,2.753c10.351,5.386,16.388,11.885,16.3,12.008a168.546,168.546,0,0,0,22.133-17.769l-.131-51.321a4.35,4.35,0,0,1-.7.2c-.512,0-.577.229-.754,1.211a3.574,3.574,0,0,1-.65,1.355c-.462.656-.3.324.285.562,1.326.54-.4,2.988-2.28,3.286-1.357.216-2.115.467-2.345.782-2.856,2.517-5.7,2.915-7.854,1.99a4.362,4.362,0,0,1-2.6-2.23c-.884-2.519.958-6.149,2.038-8.246a26.091,26.091,0,0,1,5.27-6.732l-.538-.588a4.943,4.943,0,0,0,.769-.035c2.84-1.04,3.015-1.054,3.537-1.812a30.468,30.468,0,0,0,2.111-3.631c1.459-3.822,1.655-4.07,1.653-6.577,0-2.032-.137-3.389-.527-3.5-2.237,1.727-4.5,5.76-5.817,8.137-.456-3.521-.592-9.67-.592-9.67.474-.527,3.16-.232,2.565-4.642a3.243,3.243,0,0,0,4.751-2.862c-.162-3.57-2.894-3.465-5.117-3.014a3.35,3.35,0,0,0-2.978-4.625Zm-.043.3c2.921.091,3.5,3.342,1.71,5.183,0,0-1.16-.9-1.775-1.411-.585.462-.753.863-1.4,1.338a3.256,3.256,0,0,1-1.227-2.533,2.806,2.806,0,0,1,2.688-2.577Zm-66.749.1c11.823,6.653,26.647,7.129,40.217.348l-.165,1.127-1.488.844.842,1.552.465-.224.012,1.026c-11.186,6.084-29.924,7.343-44.592-2.761l1.276-.6s.288.2.565.376a20.711,20.711,0,0,0,2,1.13l.888-1.289s-1.356-.832-1.222-.887l1.2-.646Zm1.042,2.04-.677,1.549,1.7.909.646-1.56Zm-6.432.174c18.206,11.508,35.153,8.082,45.33,3.376l.131,1.227c-13.136,5.627-30.408,7.138-46.849-3.991Zm42.854.74-1.618.65.642,1.494,1.664-.716Zm-45.03.278c14.795,9.607,30.663,11.487,47.764,4.449l.653,1.838c-16.655,6.735-34.232,5.96-50.29-5.489Zm11.368.055-.661,1.61,1.833.7.535-1.58Zm31.113.666-1.6.522.5,1.541,1.661-.569Zm-28.31.441-.4,1.618,1.872.53.327-1.625Zm67.756,2.664c.252,2.752-3.8,4.08-5.316,1.511l1.336-1.634-1.195-1.122a2.769,2.769,0,0,1,5.175,1.245Zm-84.207-2.575,4.414,3.054-3.207,5.018-4.751-3.214Zm76.494.139,2.8,2.447-2.572,3.031-2.63-2.671Zm-1.742.83-1.576,1.845,1.7,1.826a2.792,2.792,0,0,1-5.011-1.821c.024-2.023,3.1-3.992,4.882-1.85Zm-32.674-.71-1.684.507.385,1.487,1.741-.457Zm-22.713.469-.312,1.6,1.934.418.327-1.591Zm19.933.271-1.791.391.307,1.591,1.8-.38Zm37.384.375-1.476,1.46,1.476,1.54,1.488-1.54Zm-54.215.047-.227,1.61,2.027.275.157-1.63Zm13.644.22-1.822.209.185,1.58,1.891-.24Zm-10.757.186-.023,1.653,1.776.143V1225.6Zm7.835.155-1.783.066.012,1.6,1.822-.116-.05-1.549Zm-32.547.016a1.912,1.912,0,1,0,1.9,1.912A1.9,1.9,0,0,0,2759.222,1225.613Zm29.556.054-1.753.015.008,1.618,1.807.008-.061-1.641Zm46.484.008.769.774-.769.763-.788-.763Zm-76.044.611a1.256,1.256,0,1,1-1.249,1.255A1.25,1.25,0,0,1,2759.218,1226.286Zm-6.755.093,2.526,2.071a48.627,48.627,0,0,1-3.348,4.82l-4.668-3.767,2.442-1.389a1.866,1.866,0,1,0,1.783-1.015Zm-1.41,1.332a1.26,1.26,0,1,1-1.254,1.262A1.259,1.259,0,0,1,2751.053,1227.711Zm85.848.6a2.416,2.416,0,0,1,.856.523,2.847,2.847,0,0,1-2.327,4.535,2.668,2.668,0,0,1-1.526-4.771l1.483,1.41Zm-68.96.852,5.229,2.021-1.984,5.721-5.717-2.361Zm-21.49.6a62.99,62.99,0,0,0,73.66,7.9l1.342-.028.711.736a64.957,64.957,0,0,1-77.343-7.541Zm58.736,1.154,1.684,5.656-5.783,1.533-1.291-5.73Zm-60.924.2a63.759,63.759,0,0,0,26.377,14.908l.266,2.319c-11.412-3.45-20.031-8.059-28.427-16.058Zm25.063.089a1.88,1.88,0,1,0,1.868,1.881A1.876,1.876,0,0,0,2769.326,1231.2Zm-9.3.422,5.393,2.872-2.687,5.416L2757,1236.82Zm9.276.2a1.261,1.261,0,1,1-1.253,1.262A1.259,1.259,0,0,1,2769.3,1231.822Zm8.931.771,5.183.759-.239,5.783-6.047-.731C2777.362,1236.368,2778.233,1232.593,2778.233,1232.593Zm25.031.143a1.88,1.88,0,1,0,1.869,1.881A1.875,1.875,0,0,0,2803.264,1232.736Zm-.023.619a1.261,1.261,0,1,1-1.253,1.262A1.259,1.259,0,0,1,2803.241,1233.355Zm-42.135.082a1.88,1.88,0,1,0,1.868,1.881A1.876,1.876,0,0,0,2761.106,1233.437Zm33.131.008.742,5.81-5.659.283-.334-5.795Zm40.56.518h.8a138.584,138.584,0,0,0,1.042,15.071c.087.638.126.826.062.941-.556.991-1.2-.256-1.453-3.1-.07-.784-.158-1.925-.254-2.675-.291-2.268-.2-10.236-.2-10.236Zm-95.647.09c-8.509,5.345-22.663,18.114-22.579,18.411l.058,49.065,1.107.054.915-1.8c-1.416-.357-1.019-3.036,1.692-3.573a9.277,9.277,0,0,0,2.222-.836c2.058-1.58,5.4-2.512,7.746-1.889,3.421.881,4.122,3.413,2.476,7.816-1.3,3.471-3.868,7.909-6.281,9.175-.2.1-.623.313-.623.313s.561.514.765.647c6.649-3.869,10.006-17.748,9.826-26.383.268-8.845,1.783-17.721,5.329-24.176,5.859-10.669,13.61-14.958,13.571-15C2755.374,1245.875,2744.925,1239.488,2739.15,1234.053Zm21.933,0a1.26,1.26,0,1,1-1.254,1.262A1.257,1.257,0,0,1,2761.083,1234.057Zm51.689.2,2.018,5.4-5.609,2.311-2.022-5.675Zm-32.263.027a1.879,1.879,0,1,0,1.868,1.881A1.876,1.876,0,0,0,2780.509,1234.285Zm11.4.468a1.879,1.879,0,1,0,1.868,1.882A1.876,1.876,0,0,0,2791.912,1234.753Zm-11.426.151a1.261,1.261,0,1,1-1.253,1.262A1.258,1.258,0,0,1,2780.486,1234.9Zm11.4.469a1.26,1.26,0,1,1-1.254,1.262A1.258,1.258,0,0,1,2791.889,1235.373Zm19.076.642a1.88,1.88,0,1,0,1.868,1.882A1.876,1.876,0,0,0,2810.965,1236.015Zm-.023.62a1.26,1.26,0,1,1-1.254,1.262A1.258,1.258,0,0,1,2810.942,1236.635Zm-39.618.1,5.606,1.444-1.3,5.919-6.324-1.692Zm70.909-.153c.917,2.891-.766,6.6-.851,6.842-1.019,2.909-2.245,5.286-2.691,5.424-.379.145-.547.052-.546-.306a45.4,45.4,0,0,1,2.238-6.67,17.439,17.439,0,0,0,.8-2.659c0-.449-.431.282-.9,1.4-.9,2.237-2.217,4.632-2.5,6.8-.2,1.773-.54,1.523-.784-.588-.341-2.93.3-4.437,3.567-8.517.783-.976,1.586-1.979,1.666-1.728Zm-41.179,1.5,1.622,5.8-6.616,1.138-1.03-5.877Zm-27.7.584a1.88,1.88,0,1,0,1.869,1.882A1.876,1.876,0,0,0,2773.35,1238.667Zm9.892.376,5.994.344.053,6.024-6.505-.283Zm-9.915.244a1.26,1.26,0,1,1-1.253,1.262A1.258,1.258,0,0,1,2773.327,1239.287Zm25.155.534a1.879,1.879,0,1,0,1.868,1.881A1.876,1.876,0,0,0,2798.482,1239.821Zm-12.426.484a1.879,1.879,0,1,0,1.869,1.881A1.875,1.875,0,0,0,2786.056,1240.305Zm12.4.135a1.26,1.26,0,1,1-1.254,1.262A1.259,1.259,0,0,1,2798.459,1240.44Zm-12.426.484a1.26,1.26,0,1,1-1.253,1.262A1.259,1.259,0,0,1,2786.033,1240.924Zm40.871.36c.1,0,.229.017.315.016,1.339-.016,5.853,3.249,7.009,5.226.959,1.745.462,2.438-.642.879-1.524-1.709-4.34-4.246-4.7-4.247-.385,0,.145.551,1.937,2.311,1.778,1.745,3.654,4.02,3.652,4.425,0,.267-.353.234-.861-.081a18.09,18.09,0,0,1-2.564-1.851c-.3-.281-.863-.8-1.265-1.154-1.658-1.463-3.547-4.837-3.014-5.485a.177.177,0,0,1,.131-.039Zm-83.625.48a2.315,2.315,0,0,1,2.51,2.06c.038.956.1,1.029.962,1.045.819.015,3.187.3,3.187.3l.015,2.679s-1.143-.007-2.461-.07c-2.243-.107-2.233-.11-2.518.883a1.407,1.407,0,0,1-.723.894c-2.014,1.333-3.956-1.084-2.706-3.368.429-.783.454-1.051.158-1.521a1.981,1.981,0,0,1,1.576-2.9Zm.492,1.371a1.093,1.093,0,0,0-.769.356,1.782,1.782,0,0,0,0,1.827c.316.526.308.668-.062,1.014a1.588,1.588,0,0,0-.034,2.279c.579.415,1.192-.134,1.2-.974,0-.921.643-.9.643-.9l4.215.073.013-.691-3.057-.154a2.164,2.164,0,0,1-1.2-.266c-.348-.243-.744-.663-.366-1.175a.806.806,0,0,0-.576-1.385Zm-9.135,1.583,2,3.422,2.33.085.2,2.083,2.832,1.837-2.9,1.709-.143,2.095-2.2.278-2.041,2.575-1.957-2.571-2.157.012-.031-2.149-2.968-1.924,3.249-1.839-.035-2.454,2.3-.155,1.515-3Zm70.616,1.556.1,2.067-3.272.585.427-2.106Zm-20.968,2.083,4.41.135-.254,29.016-1.034-.008-.019-1.131-1.411.047-1.434-.875Zm-49.648.736-2.587,3.3,3.133,2.756,2.761-3.225Zm50.971.441v1.335h1.849v-1.335Zm-50.913,1.142,1.822,1.343-1.388,1.847-1.757-1.533Zm70.65.759-.058,15.88c-6.059,4.788-7.947,13.217-7.946,13.216l-2.464-.147,6.262-27.974Zm-32.843.352c-5.452,2.612-10.947,4.59-16.355,10.82a30.348,30.348,0,0,1,6.274,7.065c4.5-.675,9.512.136,14.975,2.3Zm13.106.356v1.382h1.849v-1.382Zm-61.285,1.994a4.819,4.819,0,0,1,.177.875c4-.338,2.978,4.334.43,4.494-.3.039.247.829.842,1.08a2.694,2.694,0,0,0,3.595-1.1,8.108,8.108,0,0,0,.807-1.169l2.468,1.316s.071-.036-.365,1.1c-.793,2.073.364,4.618,1.257,2.764a2.394,2.394,0,0,1,2.845-1.142c1.133.477,1.525,2.514.731,3.8-.241.388-.248.469-.1.829a4.306,4.306,0,0,1,.127,2.381c-.3.582-.651.715-1.331.24a8.168,8.168,0,0,0-3.071-1.375c-2.845-.539-3.4-1.547-4.533-3.9-3.369,1.016-8.411-1.111-7.739-6.147.306-1.112.39-3.246-.173-3.682-1.1-.855.108-2.09,1.765-2.288,1.362-.136,2.017,1.163,2.268,1.928Zm47.664-1.46,4.382,18.482c-4.81-1.774-9.531-3.159-13.709-2.129a29.233,29.233,0,0,0-5.667-6.585c4.135-5.02,9.392-7.829,14.994-9.768Zm-49.587.906a1.417,1.417,0,0,0-.938.418,2,2,0,0,1,.458.589c.258.541.261.541-.031,1.742-1.337,4.814,1.834,8,6.343,6.608,1.108-.345,1.065-.307,1.384,1,.526,2.155,2.039,3.269,5.048,3.678a1.988,1.988,0,0,1,.738.236c1.324.85.781-.281.419-.72a4.074,4.074,0,0,0-.731-.686s.4-.263.592-.363c.85-.454,1.166-2.229.466-2.61-.639-.347-1.727.177-1.73.836-.008,1.205-1.514,1.333-2.835.332-1.694-1.285-.193-4.523-.183-4.518l-.956-.423c.127.113-2.012,3.173-4.644,2.106-1.838-.745-3.134-2.889-2.282-3.5.622-.167,1.366.176,1.838-.19.94-.742.182-2.045-1.161-2a8.917,8.917,0,0,0-.923.135,6.152,6.152,0,0,0,.15-1.618,1.116,1.116,0,0,0-1.022-1.057Zm63.227,1.405v1.139l1.83.011V1255Zm-.019,2.346v1.173h1.849v-1.173Zm0,2.528v1.2h1.849v-1.2Zm0,2.358v1.27h1.849v-1.27Zm0,2.365v1.185h1.849v-1.185Zm0,2.412v1.2h1.849V1267Zm-60.12,1.169,1.557,2.648,1.849.082.073,1.819,3.145,2.42-2.749,1.978-.2,1.963-2.18.069-1.765,3-2.172-2.629-1.745-.282-.2-2.393-2.687-2.025,2.525-2.032.2-2.125,2.057.182Zm102.328,1.266a1.288,1.288,0,0,1,.55.151c.653.332.859.371,2.557.457,1.969.1,2.664.277,3.64.933.589.4.623.393,1.254-.027,2.764-1.845,5.921-.168,6.151,3.267a4.587,4.587,0,0,0,.5,2.025c.241.525.49.939.346,1.274-.443,1.023-2.573,1.088-3.733-.43a.888.888,0,0,0-.708-.329c-.576.216-2.05-.953-2.033-1-.137.813-.206,1.459-.35,2.64l-2.58-.038s-.058-.476-.177-2.137c-.137-1.91-.609-2.468-1.215-1.436a2.173,2.173,0,0,1-3.975-1.119c-.054-.717-.094-.81-.484-1.111-1.3-1.011-.925-3.141.254-3.117Zm-42.208.1v1.061h1.849v-1.061Zm42.5,1.134c-.512.037-.22.953.627,1.436.481.275.482.273.419,1.115-.114,1.526,1.346,2.274,2,1.022a1.071,1.071,0,0,0,.116-.677c-.273-1.109,2.11-.807,2.683.341a6.253,6.253,0,0,1,.35,1.672c.067.671.084,1.448.084,1.448h.761s-.008-.463.035-.906c.188-1.895,1.021-3.094,2.145-3.089.48,0,.5.087.162.712-.568,1.056-.021,1.822,1.3,1.831.84.006.837.007,1.15.608.343.66.6.869.922.747.226-.086.23.041-.065-2.21-.44-3.356-2.379-4.259-5.056-2.358-.757.538-.923.522-1.595-.132-1.007-.979-1.645-1.2-3.614-1.277a11.458,11.458,0,0,1-2.053-.2.844.844,0,0,0-.369-.078Zm-63.53.96c-.438.007-.946.1-1.387.138a77.232,77.232,0,0,1,.941,7.779c2.255-.394,5.175-.027,9.027,1.781a59.844,59.844,0,0,1,8.277,5.145,29.036,29.036,0,0,0,10.387,4.4c3.983.87,7.182.795,7.094.606a35.762,35.762,0,0,1-1.27-7.726,32.254,32.254,0,0,1-14.9-5.347C2777.371,1274.722,2771.149,1271.518,2764.581,1271.631Zm21.026.217v1.076h1.849v-1.076Zm-60.682.213-2.925,3.07,3.183,3.035,2.7-3.093Zm-.08,1.394,1.657,1.6-1.338,1.708-1.865-1.619Zm41.251.251c.39,0,.771.279,2.061,1.007,1.081.751,1.945,1.22,1.63.042.246-.339,1.444.765,2.856,1.46,1.7,1.373,1.709,1.042,1.93.36.228-.5.543-.161,1.9,1.107,1.787,1.667,1.627,1.669,1.984,1.254.407-.778.543-.77,2,.914,1.513,1.7,1.834,2.063,2.157,1.336.5-.377.756-.011,2.81,1.931,1.01,1.015,1.248.858,1.438.175.2-.7.251-.546,1.957.816,1.975,1.593,2.17,1.709,2.252,1.158.131-.876.743-.565,2.776.906,1.232.887,1.7,1.133,1.961.913.268-.477-.669-1.4,1.318-.53l.546,2.9-.688-.2c-.422-.121-1.348-.437-1,.468.2.523-.3.461-1.842-.464-2.21-1.326-2.618-1.63-2.783-1.359-.292.993-.255,1.056-1.746-.12-1.734-1.325-2.083-1.691-2.326-1.239-.032,1-.516.8-2.133-.608-1.368-1.2-1.659-1.833-2.272-.912-.168.32-.337.24-.563.073a31.829,31.829,0,0,1-2.848-2.78c-.355-.39-.557-.265-.849.058-.273.3-.294.207-1.176-.608-2.109-1.947-2.5-2.434-2.795-2.168-.241.457-.011,1.077-1.63-.209-2.032-1.473-2.914-2.127-2.776-1.161-.349.432-.1.517-2.138-.616-1.932-1.076-2.177-1.4-2.456-1.03a.6.6,0,0,1-.838.341l-.392-2.954.695.008a4,4,0,0,1,.977-.275Zm-15.5.248c-.155.457-1.221,3.091-1.234,9.8a7.623,7.623,0,0,0,2.764-4.827A10.528,10.528,0,0,0,2750.591,1273.954Zm35.012.186v1.223h1.849v-1.223Zm-34.88.97c2.351,3.752-.24,7.29-.885,7.54A34.422,34.422,0,0,1,2750.723,1275.11Zm61.687,3.152c-3.864,2.452-3.236,9.087-1.34,10.787A61.773,61.773,0,0,0,2812.41,1278.262Zm-.529.816-1.04,8.54C2809.49,1286.112,2809.251,1281.62,2811.881,1279.078Zm24.369,1.442,2.041,2.586,1.815.135.4,1.866,2.648,2.172-2.652,1.812-.235,2.067-1.972.2-1.953,3.094-1.911-3.032-1.83-.2-.057-1.99-2.876-2.137,2.745-1.661.053-2.249,2.149.008Zm-72.3.809a19.989,19.989,0,0,1-8.765,13.317l.023.627-7.362,2.973a46.6,46.6,0,0,1-10.591,21.9l1.7,3.469-8.223,2.845,11.772,20.329c.81,0-5.7,3.1-13.568,2.3,4.977,12.27,6,24.972,3.249,36.1l38.533-.162-29.448-58.19-.481-.948c-.409-.761,15.655,2.274,12.245,17.277-.048.348.072.391.265.248,3.123-2.7,23.863-10.191,40.425-.3l4.92-2.052c-2.342,8.256-5,13.935-9.492,18.912l.762,11.749a50.071,50.071,0,0,0,17.715-34.548c3.576-1.754,6.686-3.747,10.019-5.625l.442.144,2.156-1.3c-6.917-7.62-21.04-14.9-30.09-16.817l.534,2.582a73.46,73.46,0,0,0-12.614-2.063l-.595-27.339-5.029-2.985-.158,30.157a118.776,118.776,0,0,0-12.406,1.541l.389-2.578-3.96.821-.069-2.513,4.475-1.293,6.489-27.7Zm.542.615,2.069.422-6.424,27.161a27.788,27.788,0,0,1-3.826.864c-.286-5.094-.4-15.474-.4-15.474,6.341-5.322,7.333-9.09,8.577-12.973Zm-44.092,1.994c.968-.012,2.01.7,2.076,1.336.166.393.3.563.565.6,1.621.225,1.672.657,1.719,1.6-.229,1.8.971.289,1.311-1.5.035-.186.015-1.556.015-1.556l1.984-.019s.067,1.43.1,1.657c.175,1.385.761,2.509,1.169,1.773,1.395-2.524,4.591-1.237,4.086,1.2-.124.576-.116.612.273,1.049a2.223,2.223,0,0,1,.662,2.126c-.205.642-.651.739-1.611.352a7.328,7.328,0,0,0-2.461-.29c-2.068-.062-2.2-.1-3-.887l-.508-.495-.876.518a4.073,4.073,0,0,1-4.329.1c-1-.518-1.589-1.76-1.746-3.7-.029-1.029-.316-1.774-.949-2.021-.342-.324.039-.968.622-1.556a1.55,1.55,0,0,1,.9-.283Zm115.677.294-2.726,3.423,3.241,2.918,3.018-3.573Zm-63.138.492,3.775,2.176.484,26.952-4.267-.12.008-29.008Zm-52.435.375c-.287.029-.107.493.1,1.2a3.266,3.266,0,0,1,.177,1.467c-.4,2.953,2.962,4.455,5.39,2.408.645-.745.751-.7,1.291.1.666.841,1.635,1.114,3.668.991.928-.056,1.543.443,1.945.113.291-.213.009-.776-.553-1.1-.344-.2-.357-.232-.288-.925.172-1.748-1.26-2.211-2.276-.735-.84,1.218-2.106.413-2.515-1.6-.242-1.549-.436-1.524-.619-.174-.2,1.641-2.345,3.421-3.2,2.613-.235-.238-.232-.179.008-1,.31-1.058.061-1.452-1.084-1.727a.8.8,0,0,1-.477-.348c-.607-.946-.58-1.278-1.569-1.278Zm115.846.628,1.73,1.5-1.507,1.792-1.842-1.425Zm-62.227.96v1.273h1.614v-1.273Zm0,2.566v1.34h1.614v-1.34Zm9.726,1.541q2.715,10.151,5.452,20.293c1.722-.692,11.665-5.136,16.354-10.824a31.579,31.579,0,0,1-5.694-6.616c-4.689.779-10.076-.212-16.112-2.853Zm-9.726.805v1.251h1.614V1291.6Zm10.745.341c4.274,1.283,9.749,3.054,14.79,2.152a22.02,22.02,0,0,0,5.3,6.075c-3.815,4.179-9.332,7.366-15.039,9.821Zm40.567.488a.96.96,0,0,1,.642.271,4.237,4.237,0,0,0,2.58,1.041,5.206,5.206,0,0,1,4.406,3.631c.2.784.313.827,1.422.546,4.2-1.064,7.439,2.443,6.439,7.123-.349,1.635-.456,1.83.032,2.478,1.067,1.159,1.3,1.174.13,2.2a2.319,2.319,0,0,1-3.625-1.065c-.429-.855-.422-.92-1.127-1.033a2.381,2.381,0,0,1-.046-4.7,3.405,3.405,0,0,0,.484-.043c.733-.333-.8-2.079-2.064-1.811-1.553.328-2.326,1.331-2.937,2.9l-2.445-1.405c.613-1.277,1.063-2.923.53-3.941-.431-.859-.975-.891-1.142-.07-.391,1.933-2.778,2.511-4.344.937a2.371,2.371,0,0,1-.335-3.1c.417-.824.427-.883.25-1.231-.615-1.21.218-2.735,1.15-2.729ZM2774.127,1294v1.3l1.618-.008V1294h-1.618Zm51.612.109c-.5,0-.494.491-.034,1.084.408.417.487.608-.077.968a1.882,1.882,0,0,0-.373,2.412,1.213,1.213,0,0,0,2.233-.837c-.136-.94.6-1.36,1.765-1.006a3.228,3.228,0,0,1,1.838,4.347c-.126.363-.376,1.209-.376,1.209l.5.306s.595-.957.827-1.246c1.927-2.386,6.483-1.178,5.975,1.806-.078.938-.074,1.064-1.088.771-.673-.35-1.323.375-1.3,1.281a1.434,1.434,0,0,0,1.711,1.339c.772-.145.966-.119.911.93a1.7,1.7,0,0,0,.823,1.459c1.15.478,1.742-.181.822-1.15a2.163,2.163,0,0,1-.173-2.346,6.827,6.827,0,0,0-.442-4.517c-.925-1.819-3.514-2.581-5.682-1.673-.991.533-1.1.657-1.2-.279a5.163,5.163,0,0,0-4.436-4.227,13.145,13.145,0,0,1-2.226-.631Zm-51.612,2.369v1.2h1.618v-1.2Zm0,2.354v1.328h1.614v-1.328Zm0,2.59v1.328s.883-.025,1.614,0v-1.328Zm52.731,2.129,1.768,2.632,1.957.132.231,2.125,2.968,1.863-2.572,1.622-.02,2.055-2.452.209-2.169,2.9-1.845-2.555-1.845.008-.435-2.28-3.268-1.669,3.353-1.924-.093-2.4,2.28-.015,2.141-2.7Zm-52.731.314v1.362h1.614v-1.362Zm0,2.5v1.347h1.614v-1.347Zm51.739,1-2.534,3.4,3.414,2.842,2.714-3.434Zm-51.739,1.359v1.475h1.614v-1.475Zm52,.178,1.761,1.371-1.257,1.606-1.749-1.343Zm-52,2.547v1.235h1.614v-1.235Zm-48.056.159c-3.113.014-6.057,5.091-6.763,7.495-.833,3.08-.957,8.65-.165,8.807,2.79-2.022,4.113-5.448,6.209-8.013.325,2.966.273,8.688.273,8.688a5.823,5.823,0,0,0-1.909,1.695,3.215,3.215,0,0,0-.225,2.856,3.358,3.358,0,0,0-4.521,2.95c.1,4.062,4.505,3.489,4.521,3.434-.093-.025-.867,4.32,3.041,4.781,1.4.166,3.87-.864,3.137-4.816,2.467.41,4.594-.958,4.621-3.348a3.049,3.049,0,0,0-3.333-3.055,9.393,9.393,0,0,0-1.38.2,4.065,4.065,0,0,0-2.011-4.623l-.45-11.757s.989,1.085,1.431,1.494a21.963,21.963,0,0,0,5.34,3.818c2.136,1.134,1.873.854,1.5-1.3-1.01-3.237-3.12-5.683-7.585-8.742a3.013,3.013,0,0,0-1.734-.565Zm.307.252.627,16.628h-.927l-.8-16.612Zm91.607.549a1.817,1.817,0,0,1,.253.009,2.169,2.169,0,0,1,1.627,3.445c-.358.4-.482.484-.3.728.864,1.1.382,2.845-.473,3.112-2.718.851-3.13-.646-3.122-2.408l-4.2-.158.027-2.463,4.629.093a1.748,1.748,0,0,1,1.553-2.357Zm-93.552.028a.2.2,0,0,1,.05,0c.435.037-.013,1.208-1.227,2.992a30.027,30.027,0,0,0-2.3,4.193c-.748,1.879-1.251,5.249-.75,4.63.452-1.409.5-2,.884-3.008a40.343,40.343,0,0,1,3.372-6.09c.4-.365.509-.141.5,1.08-.021,2.751-1.315,5.645-4.4,9.032a9.825,9.825,0,0,1-1.25,1.181c-.3,0-.289-.624-.284-1.932.02-5.2,1.935-9.835,4.882-11.831a1.273,1.273,0,0,1,.527-.247Zm3.126.24c1.354.4,3.785,2.588,4.786,3.712,1.16,1.261,2.715,4.752,2.441,5.288-.09.236-.286.2-.965-.185-4.309-2.443-7.394-5.453-6.585-6.427.226-.272,1.152.289,2.391,1.448.843.753,1.705,1.516,2.476,2.28,1.211,1.2,1.483,1.377.753.043a19.416,19.416,0,0,0-4.759-4.917c-.913-.694-1.121-1.253-.538-1.242Zm90.691.7a.436.436,0,0,0-.15.027c-.848.36-.5,1.466-.584,2.315l-4.66-.162-.027.65,4.371.24c.077.664-.266,2.1.3,2.339,1.224.512,1.892-1.076.854-2.029-.37-.331-.77-.477.258-.945a1.569,1.569,0,0,0,.2-2.226.9.9,0,0,0-.561-.209Zm-58.951.194-.235,1.738-2.7.685-.069-1.858Zm31.875.615c9.978,2.707,21.069,8.851,28.272,15.791l-1.442.953a68.09,68.09,0,0,0-26.427-14.87Zm-17.193.267c16.431-.045,31.41,6.387,43.5,16.775l-1.976,1.254c-11.026-9.177-23.241-15.3-39.676-16.027-10.741-.477-23,2.3-35.08,8.989l-.9-1.645c11.733-6.443,23.252-9.315,34.135-9.346Zm-1.291,2.494,6.462.189-.4,6.043-5.874-.193Zm-6.951.429.911,5.831-5.625,1.056-1.595-5.845Zm20.456.771,6.42,1.722-2.118,5.943-5.636-1.618Zm-10.284.085a1.858,1.858,0,1,0,1.846,1.858A1.852,1.852,0,0,0,2775.911,1318.23Zm0,.643a1.218,1.218,0,1,1-1.23,1.215A1.221,1.221,0,0,1,2775.911,1318.873Zm-12.748.011a1.859,1.859,0,1,0,1.845,1.858A1.851,1.851,0,0,0,2763.163,1318.884Zm0,.643a1.218,1.218,0,1,1-1.23,1.215A1.222,1.222,0,0,1,2763.163,1319.527Zm25.416.747a1.858,1.858,0,1,0,1.845,1.858A1.852,1.852,0,0,0,2788.579,1320.274Zm-35.777.217,1.9,5.687-5.447,2.222-2.042-5.617Zm35.777.426a1.218,1.218,0,1,1-1.23,1.215A1.221,1.221,0,0,1,2788.579,1320.917Zm10.672,1.362,5.779,3.074-2.988,5.435-5.386-2.826Zm-48.379.492a1.858,1.858,0,1,0,1.846,1.858A1.852,1.852,0,0,0,2750.872,1322.771Zm21.829.178.269,5.741-5.117.364-.93-5.706Zm6.14.3,5.832.813-1.373,5.528-5.278-.855.819-5.486Zm-27.969.163a1.218,1.218,0,1,1-1.23,1.215A1.222,1.222,0,0,1,2750.872,1323.414Zm19.107.743a1.858,1.858,0,1,0,1.846,1.858A1.852,1.852,0,0,0,2769.979,1324.157Zm-9.319.232,1.511,5.586-5.624,1.622-1.726-5.373Zm20.419.089a1.859,1.859,0,1,0,1.845,1.858A1.852,1.852,0,0,0,2781.079,1324.478Zm-11.1.321a1.218,1.218,0,1,1-1.231,1.216A1.222,1.222,0,0,1,2769.98,1324.8Zm11.1.322a1.218,1.218,0,1,1-1.231,1.215A1.222,1.222,0,0,1,2781.079,1325.121Zm19.737.011a1.859,1.859,0,1,0,1.846,1.859A1.852,1.852,0,0,0,2800.816,1325.132Zm-9.984.542,5.636,1.94-2.249,5.3-5.394-2.068Zm9.984.1a1.218,1.218,0,1,1-1.23,1.216A1.223,1.223,0,0,1,2800.816,1325.775Zm-42.4.2a1.859,1.859,0,1,0,1.846,1.859A1.852,1.852,0,0,0,2758.419,1325.972Zm0,.643a1.218,1.218,0,1,1-1.23,1.216A1.222,1.222,0,0,1,2758.419,1326.615Zm34.147,1.084a1.858,1.858,0,1,0,1.845,1.858A1.852,1.852,0,0,0,2792.566,1327.7Zm0,.643a1.218,1.218,0,1,1-1.23,1.215A1.221,1.221,0,0,1,2792.566,1328.342Zm-66.018.646a2.91,2.91,0,0,1,2.649,2.784c.051,1.055-1.286,2.436-1.286,2.436l-1.555-1.449-1.493,1.385c-.252.084-1.413-1.9-1.058-2.929a2.853,2.853,0,0,1,2.743-2.227Zm83.795,0,4.463,3.678s-1.959,1.2-2.322,1.413a1.888,1.888,0,0,0,.066-.5,1.846,1.846,0,1,0-2.264,1.812c-.459.265-1.069.607-1.069.607l-2.357-1.99Zm-7.066,9.829-1.975.816c-12.154-8.039-28.781-12.438-47.788-4.343l-.654-1.587C2766.97,1327.787,2784.773,1325.944,2803.277,1338.817Zm-1.081-8.032,4.783,2.953-3.037,4.7-4.671-3.008Zm-1.445,9.1-2.007.759c-14.836-9.6-30.648-9.087-44.777-3.334l-.218-1.348c16.637-7.253,33.333-4.945,47,3.923Zm9.953-7.53a1.218,1.218,0,1,1-1.23,1.216A1.223,1.223,0,0,1,2810.7,1332.36Zm-86.321,2.2-1.649,1.676,1.506,1.7a6.411,6.411,0,0,1-.825.6,2.751,2.751,0,0,1-4.031-2.473c.151-2.689,3.369-3.971,5-1.5Zm78.5-1.284a1.858,1.858,0,1,0,1.845,1.858A1.852,1.852,0,0,0,2802.885,1333.278Zm-71.824.075a2.794,2.794,0,0,1,2.75,2.453,2.871,2.871,0,0,1-1.585,2.749c-1.573.961-3.4-.594-3.369-.69l1.326-1.32-1.6-1.643A3.327,3.327,0,0,1,2731.061,1333.353Zm-4.593.32,2.718,2.729-2.876,2.7-2.664-2.694Zm71.68,7.262-1.526.7-2.08-1.262-.615,1.188,1.157.74-1.2.454c-13.861-7.842-29.524-5.57-39.935-.366,0,0,.09-.807.095-.807l1.134-.582-.423-1.444-.608.178-.046-1.6c14.865-6.74,31.733-5.2,44.05,2.8Zm4.736-7.015a1.218,1.218,0,1,1-1.23,1.216A1.223,1.223,0,0,1,2802.884,1333.92Zm-76.474.976-1.449,1.452,1.441,1.548,1.407-1.5Zm45.373.321-1.9.085.1,1.561,1.853-.047Zm1.295.008.034,1.56,1.723-.008-.008-1.54-1.75-.012Zm3.056.027-.084,1.553,1.711.077.123-1.544Zm-7.381.2-1.945.213.215,1.568,1.842-.217Zm10.569.023-.139,1.6,1.757.2.239-1.533Zm-52.9.008.846.906-.842.844-.9-.883Zm39.056.476-1.876.3.2,1.615,1.83-.364Zm17.019,0-.311,1.494,1.745.422.285-1.525Zm-20.095.654-1.576.422.342,1.572,1.665-.41Zm23.09.062-.33,1.518,1.78.488.357-1.456Zm-25.692.755-1.65.589.427,1.455,1.676-.569Zm28.756.167-.549,1.459,1.541.623.681-1.324Zm-31.478.855-1.565.647.646,1.444,1.484-.682Zm-32.252.045,1.584,1.593,1.882-1.71c1.642,1.462,1.616,4.882-1.291,5.453-2.538.5-4.86-3.328-2.175-5.336Zm66.556.308-.6,1.339,1.7.755.588-1.289ZM2742.8,1347.4l21.491,36.781-3.4-.066-20.8-35.542Zm-3.528,1.4,1.189,1.859c-2.328-1.866-5.748-.3-5.6,2.055.114,1.05,1,1.689,1,.678-.106-1.057,1.382-1.978,2.461-1.928,1.991.026,3.208,2.6,1.833,3.887-.9.838-2.127.8-1.714-.349.065-.4.033-.541-.154-.712a.877.877,0,0,0-1.369.91c.169.493.219.615-.369,1.022-2.278,1.611-.69,4.787,2.069,3.341.564-.205.793-.235,1.049-.136,1.149.445,1.931-.559.842-1.08-.632-.3-.648-.82-.038-1.231,1.3-.876,3.332.493,3.325,2.245-.008,1.24-1.629,2.157-3.187,1.8-.925-.213-1.037.418-.188,1.073,1.643,1.269,4.1.217,4.84-2.067a2.414,2.414,0,0,0,.2-.869l2.193,3.646a10.842,10.842,0,0,0-1.091-.451c-2.064-.634-4.379.714-4.386,2.555,0,.868.506,1.2.792.523a2.574,2.574,0,0,1,3.594-1.533,2.508,2.508,0,0,1,1.465,3.267c-.562,1.308-2.446,1.694-2.233.457.1-.589-.256-.949-.885-.89-.238.022-.543.718-.461,1.053.077.313.022.389-.784,1.022-1.916,1.5-.443,3.959,1.949,3.248a.994.994,0,0,1,.911.065c.865.42,1.773.159,1.776-.511,0-.46-.205-.636-.746-.638-.819,0-.642-.937.265-1.394,2.276-1.145,4.6,1.746,3.215,4-.6.968-.972,1.068-3.1.832-.343-.038-.5.2-.294.48a3.329,3.329,0,0,0,3.592.686,3.826,3.826,0,0,0,1.977-3.335l2.4,4.228a3.217,3.217,0,0,0-5.615,1.6c0,.715.645,1.087.869.5a2.414,2.414,0,0,1,4.66.983,1.581,1.581,0,0,1-.369,1.08c-.679,1.318-2.414,1.644-2.1.461.14-.366-.138-.763-.615-.879s-.769.283-.757,1c.009.539.013.7.013.7a2.688,2.688,0,0,0-1.609,2.15l-16.834.038c2-11.749,1.531-22.358-2.295-32.391-.331-.87-.806-2.135-.806-2.135l2.971.079c.717.626,3.426.383,4.484-.584Zm2.858,4.613,1.739,3.145a5.755,5.755,0,0,0-2.572-.786A6.87,6.87,0,0,0,2742.129,1353.411Zm-4.57,3.343a1.154,1.154,0,1,1-1.149,1.153A1.149,1.149,0,0,1,2737.559,1356.754Zm11.987,9.394,1.675,3a6.546,6.546,0,0,0-2.776-.724A6.663,6.663,0,0,0,2749.546,1366.148Zm-4.828,3.215a1.094,1.094,0,1,1-1.085,1.095A1.092,1.092,0,0,1,2744.718,1369.363Zm12.131,9.354,2.472,4.416a5.5,5.5,0,0,0-3.332-1.135A5.813,5.813,0,0,0,2756.849,1378.717Zm-3.289,5.509-2.651.009C2751.439,1381.9,2753.582,1382.508,2753.56,1384.226Zm2.51-1.125a2.511,2.511,0,0,1,2.166,1.148l-3.336.009a1.155,1.155,0,0,1,1.17-1.157Z"/>
      <path id="path163-0-2-5-8-7-5-8-8-7" d="M2739.685,1220.771s-3.716-6.1-8.729-13.282c-3.354-4.8-6.035-10-6.285-14.484-.286-5.118,2.421-10.252,7.321-10.5s6.884,3.946,7.693,7.4c.809-3.458,2.8-7.652,7.694-7.4s7.606,5.383,7.32,10.5c-.249,4.48-2.93,9.681-6.284,14.484-5.013,7.177-8.73,13.282-8.73,13.282Z" fill="#d40000"/>
      <path id="path163-0-2-5-8-7-7-8-4-8-6" d="M2822.142,1340.724s-3.717,6.1-8.73,13.282c-3.354,4.8-6.035,10-6.284,14.484-.286,5.117,2.42,10.251,7.32,10.5s6.885-3.946,7.694-7.4c.809,3.458,2.8,7.653,7.693,7.4s7.607-5.383,7.321-10.5c-.25-4.48-2.931-9.681-6.285-14.484C2825.858,1346.828,2822.142,1340.724,2822.142,1340.724Z" fill="#d40000"/>
    </g>
  </g>
</svg>
